<?xml version="1.0" standalone="no"?>
 <!DOCTYPE svg PUBLIC "-//W3C//DTD SVG 1.1//EN" 
 "http://www.w3.org/Graphics/SVG/1.1/DTD/svg11.dtd"> 
<svg
  xmlns:svg="http://www.w3.org/2000/svg"
  xmlns="http://www.w3.org/2000/svg"
  xmlns:xlink="http://www.w3.org/1999/xlink"
  version="1.1"
  width="2.6100000000000003cm" height="2.6100000000000003cm" viewBox="66.95 46.95 26.1 26.1">
<title>SVG Image created as pedalboard-led-ring-B_SilkS.svg date 2023/06/03 20:11:31 </title>
  <desc>Image generated by PCBNEW </desc>
<g style="fill:#000000; fill-opacity:1.000000;stroke:#000000; stroke-opacity:1.000000;
stroke-linecap:round; stroke-linejoin:round;"
 transform="translate(0 0) scale(1 1)">
</g>
<g style="fill:#000000; fill-opacity:0.0; 
stroke:#000000; stroke-width:0.000000; stroke-opacity:1; 
stroke-linecap:round; stroke-linejoin:round;">
</g>
<g style="fill:#000000; fill-opacity:0.0; 
stroke:#000000; stroke-width:0.100000; stroke-opacity:1; 
stroke-linecap:round; stroke-linejoin:round;">
<circle cx="80.000000" cy="60.000000" r="7.050000" /> 
<g transform="rotate(-90.000000 87.900000 56.030000)">
<text x="87.900000" y="56.030000"
transform="scale(-1 1) translate(-175.800000 0)"
textLength="1.143333" font-size="0.933333" lengthAdjust="spacingAndGlyphs"
text-anchor="start" opacity="0">DI</text>
</g>
<g class="stroked-text"><desc>DI</desc>
<path d="M87.809133 56.262455
L87.109133 56.262455
" />
<path d="M87.109133 56.262455
L87.109133 56.429122
" />
<path d="M87.109133 56.429122
L87.142466 56.529122
" />
<path d="M87.142466 56.529122
L87.209133 56.595789
" />
<path d="M87.209133 56.595789
L87.275800 56.629122
" />
<path d="M87.275800 56.629122
L87.409133 56.662455
" />
<path d="M87.409133 56.662455
L87.509133 56.662455
" />
<path d="M87.509133 56.662455
L87.642466 56.629122
" />
<path d="M87.642466 56.629122
L87.709133 56.595789
" />
<path d="M87.709133 56.595789
L87.775800 56.529122
" />
<path d="M87.775800 56.529122
L87.809133 56.429122
" />
<path d="M87.809133 56.429122
L87.809133 56.262455
" />
<path d="M87.809133 56.962455
L87.109133 56.962455
" />
</g><g transform="rotate(-90.000000 87.950000 62.500000)">
<text x="87.950000" y="62.500000"
transform="scale(-1 1) translate(-175.900000 0)"
textLength="1.301429" font-size="0.800000" lengthAdjust="spacingAndGlyphs"
text-anchor="start" opacity="0">D0</text>
</g>
<g class="stroked-text"><desc>D0</desc>
<path d="M87.871371 62.708646
L87.271371 62.708646
" />
<path d="M87.271371 62.708646
L87.271371 62.851503
" />
<path d="M87.271371 62.851503
L87.299942 62.937217
" />
<path d="M87.299942 62.937217
L87.357085 62.994360
" />
<path d="M87.357085 62.994360
L87.414228 63.022931
" />
<path d="M87.414228 63.022931
L87.528514 63.051503
" />
<path d="M87.528514 63.051503
L87.614228 63.051503
" />
<path d="M87.614228 63.051503
L87.728514 63.022931
" />
<path d="M87.728514 63.022931
L87.785657 62.994360
" />
<path d="M87.785657 62.994360
L87.842800 62.937217
" />
<path d="M87.842800 62.937217
L87.871371 62.851503
" />
<path d="M87.871371 62.851503
L87.871371 62.708646
" />
<path d="M87.271371 63.422931
L87.271371 63.480074
" />
<path d="M87.271371 63.480074
L87.299942 63.537217
" />
<path d="M87.299942 63.537217
L87.328514 63.565789
" />
<path d="M87.328514 63.565789
L87.385657 63.594360
" />
<path d="M87.385657 63.594360
L87.499942 63.622931
" />
<path d="M87.499942 63.622931
L87.642800 63.622931
" />
<path d="M87.642800 63.622931
L87.757085 63.594360
" />
<path d="M87.757085 63.594360
L87.814228 63.565789
" />
<path d="M87.814228 63.565789
L87.842800 63.537217
" />
<path d="M87.842800 63.537217
L87.871371 63.480074
" />
<path d="M87.871371 63.480074
L87.871371 63.422931
" />
<path d="M87.871371 63.422931
L87.842800 63.365789
" />
<path d="M87.842800 63.365789
L87.814228 63.337217
" />
<path d="M87.814228 63.337217
L87.757085 63.308646
" />
<path d="M87.757085 63.308646
L87.642800 63.280074
" />
<path d="M87.642800 63.280074
L87.499942 63.280074
" />
<path d="M87.499942 63.280074
L87.385657 63.308646
" />
<path d="M87.385657 63.308646
L87.328514 63.337217
" />
<path d="M87.328514 63.337217
L87.299942 63.365789
" />
<path d="M87.299942 63.365789
L87.271371 63.422931
" />
</g><text x="91.140000" y="69.900000"
transform="scale(-1 1) translate(-182.280000 0)"
textLength="1.844286" font-size="0.800000" lengthAdjust="spacingAndGlyphs"
text-anchor="start" opacity="0">VCC</text>
<g class="stroked-text"><desc>VCC</desc>
<path d="M91.017068 69.221371
L90.817068 69.821371
" />
<path d="M90.817068 69.821371
L90.617068 69.221371
" />
<path d="M90.074210 69.764228
L90.102782 69.792800
" />
<path d="M90.102782 69.792800
L90.188496 69.821371
" />
<path d="M90.188496 69.821371
L90.245639 69.821371
" />
<path d="M90.245639 69.821371
L90.331353 69.792800
" />
<path d="M90.331353 69.792800
L90.388496 69.735657
" />
<path d="M90.388496 69.735657
L90.417067 69.678514
" />
<path d="M90.417067 69.678514
L90.445639 69.564228
" />
<path d="M90.445639 69.564228
L90.445639 69.478514
" />
<path d="M90.445639 69.478514
L90.417067 69.364228
" />
<path d="M90.417067 69.364228
L90.388496 69.307085
" />
<path d="M90.388496 69.307085
L90.331353 69.249942
" />
<path d="M90.331353 69.249942
L90.245639 69.221371
" />
<path d="M90.245639 69.221371
L90.188496 69.221371
" />
<path d="M90.188496 69.221371
L90.102782 69.249942
" />
<path d="M90.102782 69.249942
L90.074210 69.278514
" />
<path d="M89.474210 69.764228
L89.502782 69.792800
" />
<path d="M89.502782 69.792800
L89.588496 69.821371
" />
<path d="M89.588496 69.821371
L89.645639 69.821371
" />
<path d="M89.645639 69.821371
L89.731353 69.792800
" />
<path d="M89.731353 69.792800
L89.788496 69.735657
" />
<path d="M89.788496 69.735657
L89.817067 69.678514
" />
<path d="M89.817067 69.678514
L89.845639 69.564228
" />
<path d="M89.845639 69.564228
L89.845639 69.478514
" />
<path d="M89.845639 69.478514
L89.817067 69.364228
" />
<path d="M89.817067 69.364228
L89.788496 69.307085
" />
<path d="M89.788496 69.307085
L89.731353 69.249942
" />
<path d="M89.731353 69.249942
L89.645639 69.221371
" />
<path d="M89.645639 69.221371
L89.588496 69.221371
" />
<path d="M89.588496 69.221371
L89.502782 69.249942
" />
<path d="M89.502782 69.249942
L89.474210 69.278514
" />
</g><g transform="rotate(-90.000000 89.900000 62.350000)">
<text x="89.900000" y="62.350000"
transform="scale(-1 1) translate(-179.800000 0)"
textLength="1.958571" font-size="0.800000" lengthAdjust="spacingAndGlyphs"
text-anchor="start" opacity="0">GND</text>
</g>
<g class="stroked-text"><desc>GND</desc>
<path d="M89.249942 62.872931
L89.221371 62.815789
" />
<path d="M89.221371 62.815789
L89.221371 62.730074
" />
<path d="M89.221371 62.730074
L89.249942 62.644360
" />
<path d="M89.249942 62.644360
L89.307085 62.587217
" />
<path d="M89.307085 62.587217
L89.364228 62.558646
" />
<path d="M89.364228 62.558646
L89.478514 62.530074
" />
<path d="M89.478514 62.530074
L89.564228 62.530074
" />
<path d="M89.564228 62.530074
L89.678514 62.558646
" />
<path d="M89.678514 62.558646
L89.735657 62.587217
" />
<path d="M89.735657 62.587217
L89.792800 62.644360
" />
<path d="M89.792800 62.644360
L89.821371 62.730074
" />
<path d="M89.821371 62.730074
L89.821371 62.787217
" />
<path d="M89.821371 62.787217
L89.792800 62.872931
" />
<path d="M89.792800 62.872931
L89.764228 62.901503
" />
<path d="M89.764228 62.901503
L89.564228 62.901503
" />
<path d="M89.564228 62.901503
L89.564228 62.787217
" />
<path d="M89.821371 63.158646
L89.221371 63.158646
" />
<path d="M89.221371 63.158646
L89.821371 63.501503
" />
<path d="M89.821371 63.501503
L89.221371 63.501503
" />
<path d="M89.821371 63.787217
L89.221371 63.787217
" />
<path d="M89.221371 63.787217
L89.221371 63.930074
" />
<path d="M89.221371 63.930074
L89.249942 64.015788
" />
<path d="M89.249942 64.015788
L89.307085 64.072931
" />
<path d="M89.307085 64.072931
L89.364228 64.101502
" />
<path d="M89.364228 64.101502
L89.478514 64.130074
" />
<path d="M89.478514 64.130074
L89.564228 64.130074
" />
<path d="M89.564228 64.130074
L89.678514 64.101502
" />
<path d="M89.678514 64.101502
L89.735657 64.072931
" />
<path d="M89.735657 64.072931
L89.792800 64.015788
" />
<path d="M89.792800 64.015788
L89.821371 63.930074
" />
<path d="M89.821371 63.930074
L89.821371 63.787217
" />
</g><text x="84.525000" y="69.875000"
transform="scale(-1 1) translate(-169.050000 0)"
textLength="1.958571" font-size="0.800000" lengthAdjust="spacingAndGlyphs"
text-anchor="start" opacity="0">GND</text>
<g class="stroked-text"><desc>GND</desc>
<path d="M84.002068 69.224942
L84.059211 69.196371
" />
<path d="M84.059211 69.196371
L84.144925 69.196371
" />
<path d="M84.144925 69.196371
L84.230639 69.224942
" />
<path d="M84.230639 69.224942
L84.287782 69.282085
" />
<path d="M84.287782 69.282085
L84.316353 69.339228
" />
<path d="M84.316353 69.339228
L84.344925 69.453514
" />
<path d="M84.344925 69.453514
L84.344925 69.539228
" />
<path d="M84.344925 69.539228
L84.316353 69.653514
" />
<path d="M84.316353 69.653514
L84.287782 69.710657
" />
<path d="M84.287782 69.710657
L84.230639 69.767800
" />
<path d="M84.230639 69.767800
L84.144925 69.796371
" />
<path d="M84.144925 69.796371
L84.087782 69.796371
" />
<path d="M84.087782 69.796371
L84.002068 69.767800
" />
<path d="M84.002068 69.767800
L83.973496 69.739228
" />
<path d="M83.973496 69.739228
L83.973496 69.539228
" />
<path d="M83.973496 69.539228
L84.087782 69.539228
" />
<path d="M83.716353 69.796371
L83.716353 69.196371
" />
<path d="M83.716353 69.196371
L83.373496 69.796371
" />
<path d="M83.373496 69.796371
L83.373496 69.196371
" />
<path d="M83.087782 69.796371
L83.087782 69.196371
" />
<path d="M83.087782 69.196371
L82.944925 69.196371
" />
<path d="M82.944925 69.196371
L82.859211 69.224942
" />
<path d="M82.859211 69.224942
L82.802068 69.282085
" />
<path d="M82.802068 69.282085
L82.773497 69.339228
" />
<path d="M82.773497 69.339228
L82.744925 69.453514
" />
<path d="M82.744925 69.453514
L82.744925 69.539228
" />
<path d="M82.744925 69.539228
L82.773497 69.653514
" />
<path d="M82.773497 69.653514
L82.802068 69.710657
" />
<path d="M82.802068 69.710657
L82.859211 69.767800
" />
<path d="M82.859211 69.767800
L82.944925 69.796371
" />
<path d="M82.944925 69.796371
L83.087782 69.796371
" />
</g><g transform="rotate(-90.000000 69.160000 60.270000)">
<text x="69.160000" y="60.270000"
transform="scale(-1 1) translate(-138.320000 0)"
textLength="16.876660" font-size="0.933333" lengthAdjust="spacingAndGlyphs"
text-anchor="middle" opacity="0">https://github.com/pedalboard</text>
</g>
<g class="stroked-text"><desc>https://github.com/pedalboard</desc>
<path d="M69.069133 52.053336
L68.369133 52.053336
" />
<path d="M69.069133 52.353336
L68.702466 52.353336
" />
<path d="M68.702466 52.353336
L68.635800 52.320003
" />
<path d="M68.635800 52.320003
L68.602466 52.253336
" />
<path d="M68.602466 52.253336
L68.602466 52.153336
" />
<path d="M68.602466 52.153336
L68.635800 52.086670
" />
<path d="M68.635800 52.086670
L68.669133 52.053336
" />
<path d="M68.602466 52.586669
L68.602466 52.853336
" />
<path d="M68.369133 52.686669
L68.969133 52.686669
" />
<path d="M68.969133 52.686669
L69.035800 52.720003
" />
<path d="M69.035800 52.720003
L69.069133 52.786669
" />
<path d="M69.069133 52.786669
L69.069133 52.853336
" />
<path d="M68.602466 52.986669
L68.602466 53.253336
" />
<path d="M68.369133 53.086669
L68.969133 53.086669
" />
<path d="M68.969133 53.086669
L69.035800 53.120003
" />
<path d="M69.035800 53.120003
L69.069133 53.186669
" />
<path d="M69.069133 53.186669
L69.069133 53.253336
" />
<path d="M68.602466 53.486669
L69.302466 53.486669
" />
<path d="M68.635800 53.486669
L68.602466 53.553336
" />
<path d="M68.602466 53.553336
L68.602466 53.686669
" />
<path d="M68.602466 53.686669
L68.635800 53.753336
" />
<path d="M68.635800 53.753336
L68.669133 53.786669
" />
<path d="M68.669133 53.786669
L68.735800 53.820003
" />
<path d="M68.735800 53.820003
L68.935800 53.820003
" />
<path d="M68.935800 53.820003
L69.002466 53.786669
" />
<path d="M69.002466 53.786669
L69.035800 53.753336
" />
<path d="M69.035800 53.753336
L69.069133 53.686669
" />
<path d="M69.069133 53.686669
L69.069133 53.553336
" />
<path d="M69.069133 53.553336
L69.035800 53.486669
" />
<path d="M69.035800 54.086669
L69.069133 54.153336
" />
<path d="M69.069133 54.153336
L69.069133 54.286669
" />
<path d="M69.069133 54.286669
L69.035800 54.353336
" />
<path d="M69.035800 54.353336
L68.969133 54.386669
" />
<path d="M68.969133 54.386669
L68.935800 54.386669
" />
<path d="M68.935800 54.386669
L68.869133 54.353336
" />
<path d="M68.869133 54.353336
L68.835800 54.286669
" />
<path d="M68.835800 54.286669
L68.835800 54.186669
" />
<path d="M68.835800 54.186669
L68.802466 54.120002
" />
<path d="M68.802466 54.120002
L68.735800 54.086669
" />
<path d="M68.735800 54.086669
L68.702466 54.086669
" />
<path d="M68.702466 54.086669
L68.635800 54.120002
" />
<path d="M68.635800 54.120002
L68.602466 54.186669
" />
<path d="M68.602466 54.186669
L68.602466 54.286669
" />
<path d="M68.602466 54.286669
L68.635800 54.353336
" />
<path d="M69.002466 54.686669
L69.035800 54.720003
" />
<path d="M69.035800 54.720003
L69.069133 54.686669
" />
<path d="M69.069133 54.686669
L69.035800 54.653336
" />
<path d="M69.035800 54.653336
L69.002466 54.686669
" />
<path d="M69.002466 54.686669
L69.069133 54.686669
" />
<path d="M68.635800 54.686669
L68.669133 54.720003
" />
<path d="M68.669133 54.720003
L68.702466 54.686669
" />
<path d="M68.702466 54.686669
L68.669133 54.653336
" />
<path d="M68.669133 54.653336
L68.635800 54.686669
" />
<path d="M68.635800 54.686669
L68.702466 54.686669
" />
<path d="M68.335800 55.520002
L69.235800 54.920002
" />
<path d="M68.335800 56.253335
L69.235800 55.653335
" />
<path d="M68.602466 56.786668
L69.169133 56.786668
" />
<path d="M69.169133 56.786668
L69.235800 56.753335
" />
<path d="M69.235800 56.753335
L69.269133 56.720002
" />
<path d="M69.269133 56.720002
L69.302466 56.653335
" />
<path d="M69.302466 56.653335
L69.302466 56.553335
" />
<path d="M69.302466 56.553335
L69.269133 56.486668
" />
<path d="M69.035800 56.786668
L69.069133 56.720002
" />
<path d="M69.069133 56.720002
L69.069133 56.586668
" />
<path d="M69.069133 56.586668
L69.035800 56.520002
" />
<path d="M69.035800 56.520002
L69.002466 56.486668
" />
<path d="M69.002466 56.486668
L68.935800 56.453335
" />
<path d="M68.935800 56.453335
L68.735800 56.453335
" />
<path d="M68.735800 56.453335
L68.669133 56.486668
" />
<path d="M68.669133 56.486668
L68.635800 56.520002
" />
<path d="M68.635800 56.520002
L68.602466 56.586668
" />
<path d="M68.602466 56.586668
L68.602466 56.720002
" />
<path d="M68.602466 56.720002
L68.635800 56.786668
" />
<path d="M69.069133 57.120001
L68.602466 57.120001
" />
<path d="M68.369133 57.120001
L68.402466 57.086668
" />
<path d="M68.402466 57.086668
L68.435800 57.120001
" />
<path d="M68.435800 57.120001
L68.402466 57.153335
" />
<path d="M68.402466 57.153335
L68.369133 57.120001
" />
<path d="M68.369133 57.120001
L68.435800 57.120001
" />
<path d="M68.602466 57.353334
L68.602466 57.620001
" />
<path d="M68.369133 57.453334
L68.969133 57.453334
" />
<path d="M68.969133 57.453334
L69.035800 57.486668
" />
<path d="M69.035800 57.486668
L69.069133 57.553334
" />
<path d="M69.069133 57.553334
L69.069133 57.620001
" />
<path d="M69.069133 57.853334
L68.369133 57.853334
" />
<path d="M69.069133 58.153334
L68.702466 58.153334
" />
<path d="M68.702466 58.153334
L68.635800 58.120001
" />
<path d="M68.635800 58.120001
L68.602466 58.053334
" />
<path d="M68.602466 58.053334
L68.602466 57.953334
" />
<path d="M68.602466 57.953334
L68.635800 57.886668
" />
<path d="M68.635800 57.886668
L68.669133 57.853334
" />
<path d="M68.602466 58.786667
L69.069133 58.786667
" />
<path d="M68.602466 58.486667
L68.969133 58.486667
" />
<path d="M68.969133 58.486667
L69.035800 58.520001
" />
<path d="M69.035800 58.520001
L69.069133 58.586667
" />
<path d="M69.069133 58.586667
L69.069133 58.686667
" />
<path d="M69.069133 58.686667
L69.035800 58.753334
" />
<path d="M69.035800 58.753334
L69.002466 58.786667
" />
<path d="M69.069133 59.120000
L68.369133 59.120000
" />
<path d="M68.635800 59.120000
L68.602466 59.186667
" />
<path d="M68.602466 59.186667
L68.602466 59.320000
" />
<path d="M68.602466 59.320000
L68.635800 59.386667
" />
<path d="M68.635800 59.386667
L68.669133 59.420000
" />
<path d="M68.669133 59.420000
L68.735800 59.453334
" />
<path d="M68.735800 59.453334
L68.935800 59.453334
" />
<path d="M68.935800 59.453334
L69.002466 59.420000
" />
<path d="M69.002466 59.420000
L69.035800 59.386667
" />
<path d="M69.035800 59.386667
L69.069133 59.320000
" />
<path d="M69.069133 59.320000
L69.069133 59.186667
" />
<path d="M69.069133 59.186667
L69.035800 59.120000
" />
<path d="M69.002466 59.753333
L69.035800 59.786667
" />
<path d="M69.035800 59.786667
L69.069133 59.753333
" />
<path d="M69.069133 59.753333
L69.035800 59.720000
" />
<path d="M69.035800 59.720000
L69.002466 59.753333
" />
<path d="M69.002466 59.753333
L69.069133 59.753333
" />
<path d="M69.035800 60.386666
L69.069133 60.320000
" />
<path d="M69.069133 60.320000
L69.069133 60.186666
" />
<path d="M69.069133 60.186666
L69.035800 60.120000
" />
<path d="M69.035800 60.120000
L69.002466 60.086666
" />
<path d="M69.002466 60.086666
L68.935800 60.053333
" />
<path d="M68.935800 60.053333
L68.735800 60.053333
" />
<path d="M68.735800 60.053333
L68.669133 60.086666
" />
<path d="M68.669133 60.086666
L68.635800 60.120000
" />
<path d="M68.635800 60.120000
L68.602466 60.186666
" />
<path d="M68.602466 60.186666
L68.602466 60.320000
" />
<path d="M68.602466 60.320000
L68.635800 60.386666
" />
<path d="M69.069133 60.786666
L69.035800 60.720000
" />
<path d="M69.035800 60.720000
L69.002466 60.686666
" />
<path d="M69.002466 60.686666
L68.935800 60.653333
" />
<path d="M68.935800 60.653333
L68.735800 60.653333
" />
<path d="M68.735800 60.653333
L68.669133 60.686666
" />
<path d="M68.669133 60.686666
L68.635800 60.720000
" />
<path d="M68.635800 60.720000
L68.602466 60.786666
" />
<path d="M68.602466 60.786666
L68.602466 60.886666
" />
<path d="M68.602466 60.886666
L68.635800 60.953333
" />
<path d="M68.635800 60.953333
L68.669133 60.986666
" />
<path d="M68.669133 60.986666
L68.735800 61.020000
" />
<path d="M68.735800 61.020000
L68.935800 61.020000
" />
<path d="M68.935800 61.020000
L69.002466 60.986666
" />
<path d="M69.002466 60.986666
L69.035800 60.953333
" />
<path d="M69.035800 60.953333
L69.069133 60.886666
" />
<path d="M69.069133 60.886666
L69.069133 60.786666
" />
<path d="M69.069133 61.319999
L68.602466 61.319999
" />
<path d="M68.669133 61.319999
L68.635800 61.353333
" />
<path d="M68.635800 61.353333
L68.602466 61.419999
" />
<path d="M68.602466 61.419999
L68.602466 61.519999
" />
<path d="M68.602466 61.519999
L68.635800 61.586666
" />
<path d="M68.635800 61.586666
L68.702466 61.619999
" />
<path d="M68.702466 61.619999
L69.069133 61.619999
" />
<path d="M68.702466 61.619999
L68.635800 61.653333
" />
<path d="M68.635800 61.653333
L68.602466 61.719999
" />
<path d="M68.602466 61.719999
L68.602466 61.819999
" />
<path d="M68.602466 61.819999
L68.635800 61.886666
" />
<path d="M68.635800 61.886666
L68.702466 61.919999
" />
<path d="M68.702466 61.919999
L69.069133 61.919999
" />
<path d="M68.335800 62.753332
L69.235800 62.153332
" />
<path d="M68.602466 62.986665
L69.302466 62.986665
" />
<path d="M68.635800 62.986665
L68.602466 63.053332
" />
<path d="M68.602466 63.053332
L68.602466 63.186665
" />
<path d="M68.602466 63.186665
L68.635800 63.253332
" />
<path d="M68.635800 63.253332
L68.669133 63.286665
" />
<path d="M68.669133 63.286665
L68.735800 63.319999
" />
<path d="M68.735800 63.319999
L68.935800 63.319999
" />
<path d="M68.935800 63.319999
L69.002466 63.286665
" />
<path d="M69.002466 63.286665
L69.035800 63.253332
" />
<path d="M69.035800 63.253332
L69.069133 63.186665
" />
<path d="M69.069133 63.186665
L69.069133 63.053332
" />
<path d="M69.069133 63.053332
L69.035800 62.986665
" />
<path d="M69.035800 63.886665
L69.069133 63.819998
" />
<path d="M69.069133 63.819998
L69.069133 63.686665
" />
<path d="M69.069133 63.686665
L69.035800 63.619998
" />
<path d="M69.035800 63.619998
L68.969133 63.586665
" />
<path d="M68.969133 63.586665
L68.702466 63.586665
" />
<path d="M68.702466 63.586665
L68.635800 63.619998
" />
<path d="M68.635800 63.619998
L68.602466 63.686665
" />
<path d="M68.602466 63.686665
L68.602466 63.819998
" />
<path d="M68.602466 63.819998
L68.635800 63.886665
" />
<path d="M68.635800 63.886665
L68.702466 63.919998
" />
<path d="M68.702466 63.919998
L68.769133 63.919998
" />
<path d="M68.769133 63.919998
L68.835800 63.586665
" />
<path d="M69.069133 64.519998
L68.369133 64.519998
" />
<path d="M69.035800 64.519998
L69.069133 64.453332
" />
<path d="M69.069133 64.453332
L69.069133 64.319998
" />
<path d="M69.069133 64.319998
L69.035800 64.253332
" />
<path d="M69.035800 64.253332
L69.002466 64.219998
" />
<path d="M69.002466 64.219998
L68.935800 64.186665
" />
<path d="M68.935800 64.186665
L68.735800 64.186665
" />
<path d="M68.735800 64.186665
L68.669133 64.219998
" />
<path d="M68.669133 64.219998
L68.635800 64.253332
" />
<path d="M68.635800 64.253332
L68.602466 64.319998
" />
<path d="M68.602466 64.319998
L68.602466 64.453332
" />
<path d="M68.602466 64.453332
L68.635800 64.519998
" />
<path d="M69.069133 65.153331
L68.702466 65.153331
" />
<path d="M68.702466 65.153331
L68.635800 65.119998
" />
<path d="M68.635800 65.119998
L68.602466 65.053331
" />
<path d="M68.602466 65.053331
L68.602466 64.919998
" />
<path d="M68.602466 64.919998
L68.635800 64.853331
" />
<path d="M69.035800 65.153331
L69.069133 65.086665
" />
<path d="M69.069133 65.086665
L69.069133 64.919998
" />
<path d="M69.069133 64.919998
L69.035800 64.853331
" />
<path d="M69.035800 64.853331
L68.969133 64.819998
" />
<path d="M68.969133 64.819998
L68.902466 64.819998
" />
<path d="M68.902466 64.819998
L68.835800 64.853331
" />
<path d="M68.835800 64.853331
L68.802466 64.919998
" />
<path d="M68.802466 64.919998
L68.802466 65.086665
" />
<path d="M68.802466 65.086665
L68.769133 65.153331
" />
<path d="M69.069133 65.586664
L69.035800 65.519998
" />
<path d="M69.035800 65.519998
L68.969133 65.486664
" />
<path d="M68.969133 65.486664
L68.369133 65.486664
" />
<path d="M69.069133 65.853331
L68.369133 65.853331
" />
<path d="M68.635800 65.853331
L68.602466 65.919998
" />
<path d="M68.602466 65.919998
L68.602466 66.053331
" />
<path d="M68.602466 66.053331
L68.635800 66.119998
" />
<path d="M68.635800 66.119998
L68.669133 66.153331
" />
<path d="M68.669133 66.153331
L68.735800 66.186665
" />
<path d="M68.735800 66.186665
L68.935800 66.186665
" />
<path d="M68.935800 66.186665
L69.002466 66.153331
" />
<path d="M69.002466 66.153331
L69.035800 66.119998
" />
<path d="M69.035800 66.119998
L69.069133 66.053331
" />
<path d="M69.069133 66.053331
L69.069133 65.919998
" />
<path d="M69.069133 65.919998
L69.035800 65.853331
" />
<path d="M69.069133 66.586664
L69.035800 66.519998
" />
<path d="M69.035800 66.519998
L69.002466 66.486664
" />
<path d="M69.002466 66.486664
L68.935800 66.453331
" />
<path d="M68.935800 66.453331
L68.735800 66.453331
" />
<path d="M68.735800 66.453331
L68.669133 66.486664
" />
<path d="M68.669133 66.486664
L68.635800 66.519998
" />
<path d="M68.635800 66.519998
L68.602466 66.586664
" />
<path d="M68.602466 66.586664
L68.602466 66.686664
" />
<path d="M68.602466 66.686664
L68.635800 66.753331
" />
<path d="M68.635800 66.753331
L68.669133 66.786664
" />
<path d="M68.669133 66.786664
L68.735800 66.819998
" />
<path d="M68.735800 66.819998
L68.935800 66.819998
" />
<path d="M68.935800 66.819998
L69.002466 66.786664
" />
<path d="M69.002466 66.786664
L69.035800 66.753331
" />
<path d="M69.035800 66.753331
L69.069133 66.686664
" />
<path d="M69.069133 66.686664
L69.069133 66.586664
" />
<path d="M69.069133 67.419997
L68.702466 67.419997
" />
<path d="M68.702466 67.419997
L68.635800 67.386664
" />
<path d="M68.635800 67.386664
L68.602466 67.319997
" />
<path d="M68.602466 67.319997
L68.602466 67.186664
" />
<path d="M68.602466 67.186664
L68.635800 67.119997
" />
<path d="M69.035800 67.419997
L69.069133 67.353331
" />
<path d="M69.069133 67.353331
L69.069133 67.186664
" />
<path d="M69.069133 67.186664
L69.035800 67.119997
" />
<path d="M69.035800 67.119997
L68.969133 67.086664
" />
<path d="M68.969133 67.086664
L68.902466 67.086664
" />
<path d="M68.902466 67.086664
L68.835800 67.119997
" />
<path d="M68.835800 67.119997
L68.802466 67.186664
" />
<path d="M68.802466 67.186664
L68.802466 67.353331
" />
<path d="M68.802466 67.353331
L68.769133 67.419997
" />
<path d="M69.069133 67.753330
L68.602466 67.753330
" />
<path d="M68.735800 67.753330
L68.669133 67.786664
" />
<path d="M68.669133 67.786664
L68.635800 67.819997
" />
<path d="M68.635800 67.819997
L68.602466 67.886664
" />
<path d="M68.602466 67.886664
L68.602466 67.953330
" />
<path d="M69.069133 68.486663
L68.369133 68.486663
" />
<path d="M69.035800 68.486663
L69.069133 68.419997
" />
<path d="M69.069133 68.419997
L69.069133 68.286663
" />
<path d="M69.069133 68.286663
L69.035800 68.219997
" />
<path d="M69.035800 68.219997
L69.002466 68.186663
" />
<path d="M69.002466 68.186663
L68.935800 68.153330
" />
<path d="M68.935800 68.153330
L68.735800 68.153330
" />
<path d="M68.735800 68.153330
L68.669133 68.186663
" />
<path d="M68.669133 68.186663
L68.635800 68.219997
" />
<path d="M68.635800 68.219997
L68.602466 68.286663
" />
<path d="M68.602466 68.286663
L68.602466 68.419997
" />
<path d="M68.602466 68.419997
L68.635800 68.486663
" />
</g><text x="90.690000" y="67.800000"
transform="scale(-1 1) translate(-181.380000 0)"
textLength="1.015714" font-size="0.800000" lengthAdjust="spacingAndGlyphs"
text-anchor="start" opacity="0">DI</text>
<g class="stroked-text"><desc>DI</desc>
<path d="M90.481353 67.721371
L90.481353 67.121371
" />
<path d="M90.481353 67.121371
L90.338496 67.121371
" />
<path d="M90.338496 67.121371
L90.252782 67.149942
" />
<path d="M90.252782 67.149942
L90.195639 67.207085
" />
<path d="M90.195639 67.207085
L90.167068 67.264228
" />
<path d="M90.167068 67.264228
L90.138496 67.378514
" />
<path d="M90.138496 67.378514
L90.138496 67.464228
" />
<path d="M90.138496 67.464228
L90.167068 67.578514
" />
<path d="M90.167068 67.578514
L90.195639 67.635657
" />
<path d="M90.195639 67.635657
L90.252782 67.692800
" />
<path d="M90.252782 67.692800
L90.338496 67.721371
" />
<path d="M90.338496 67.721371
L90.481353 67.721371
" />
<path d="M89.881353 67.721371
L89.881353 67.121371
" />
</g><g transform="rotate(-90.000000 89.900000 55.720000)">
<text x="89.900000" y="55.720000"
transform="scale(-1 1) translate(-179.800000 0)"
textLength="1.844286" font-size="0.800000" lengthAdjust="spacingAndGlyphs"
text-anchor="start" opacity="0">VCC</text>
</g>
<g class="stroked-text"><desc>VCC</desc>
<path d="M89.221371 55.842931
L89.821371 56.042931
" />
<path d="M89.821371 56.042931
L89.221371 56.242931
" />
<path d="M89.764228 56.785789
L89.792800 56.757217
" />
<path d="M89.792800 56.757217
L89.821371 56.671503
" />
<path d="M89.821371 56.671503
L89.821371 56.614360
" />
<path d="M89.821371 56.614360
L89.792800 56.528646
" />
<path d="M89.792800 56.528646
L89.735657 56.471503
" />
<path d="M89.735657 56.471503
L89.678514 56.442932
" />
<path d="M89.678514 56.442932
L89.564228 56.414360
" />
<path d="M89.564228 56.414360
L89.478514 56.414360
" />
<path d="M89.478514 56.414360
L89.364228 56.442932
" />
<path d="M89.364228 56.442932
L89.307085 56.471503
" />
<path d="M89.307085 56.471503
L89.249942 56.528646
" />
<path d="M89.249942 56.528646
L89.221371 56.614360
" />
<path d="M89.221371 56.614360
L89.221371 56.671503
" />
<path d="M89.221371 56.671503
L89.249942 56.757217
" />
<path d="M89.249942 56.757217
L89.278514 56.785789
" />
<path d="M89.764228 57.385789
L89.792800 57.357217
" />
<path d="M89.792800 57.357217
L89.821371 57.271503
" />
<path d="M89.821371 57.271503
L89.821371 57.214360
" />
<path d="M89.821371 57.214360
L89.792800 57.128646
" />
<path d="M89.792800 57.128646
L89.735657 57.071503
" />
<path d="M89.735657 57.071503
L89.678514 57.042932
" />
<path d="M89.678514 57.042932
L89.564228 57.014360
" />
<path d="M89.564228 57.014360
L89.478514 57.014360
" />
<path d="M89.478514 57.014360
L89.364228 57.042932
" />
<path d="M89.364228 57.042932
L89.307085 57.071503
" />
<path d="M89.307085 57.071503
L89.249942 57.128646
" />
<path d="M89.249942 57.128646
L89.221371 57.214360
" />
<path d="M89.221371 57.214360
L89.221371 57.271503
" />
<path d="M89.221371 57.271503
L89.249942 57.357217
" />
<path d="M89.249942 57.357217
L89.278514 57.385789
" />
</g><text x="78.250000" y="71.500000"
transform="scale(-1 1) translate(-156.500000 0)"
textLength="4.554759" font-size="0.666666" lengthAdjust="spacingAndGlyphs"
text-anchor="middle" opacity="0">PCB: v1.0.0</text>
<g class="stroked-text"><desc>PCB: v1.0.0</desc>
<path d="M80.333331 71.433609
L80.333331 70.933609
" />
<path d="M80.333331 70.933609
L80.142855 70.933609
" />
<path d="M80.142855 70.933609
L80.095236 70.957419
" />
<path d="M80.095236 70.957419
L80.071426 70.981228
" />
<path d="M80.071426 70.981228
L80.047617 71.028847
" />
<path d="M80.047617 71.028847
L80.047617 71.100276
" />
<path d="M80.047617 71.100276
L80.071426 71.147895
" />
<path d="M80.071426 71.147895
L80.095236 71.171704
" />
<path d="M80.095236 71.171704
L80.142855 71.195514
" />
<path d="M80.142855 71.195514
L80.333331 71.195514
" />
<path d="M79.547617 71.385990
L79.571426 71.409800
" />
<path d="M79.571426 71.409800
L79.642855 71.433609
" />
<path d="M79.642855 71.433609
L79.690474 71.433609
" />
<path d="M79.690474 71.433609
L79.761902 71.409800
" />
<path d="M79.761902 71.409800
L79.809521 71.362180
" />
<path d="M79.809521 71.362180
L79.833331 71.314561
" />
<path d="M79.833331 71.314561
L79.857140 71.219323
" />
<path d="M79.857140 71.219323
L79.857140 71.147895
" />
<path d="M79.857140 71.147895
L79.833331 71.052657
" />
<path d="M79.833331 71.052657
L79.809521 71.005038
" />
<path d="M79.809521 71.005038
L79.761902 70.957419
" />
<path d="M79.761902 70.957419
L79.690474 70.933609
" />
<path d="M79.690474 70.933609
L79.642855 70.933609
" />
<path d="M79.642855 70.933609
L79.571426 70.957419
" />
<path d="M79.571426 70.957419
L79.547617 70.981228
" />
<path d="M79.166664 71.171704
L79.095236 71.195514
" />
<path d="M79.095236 71.195514
L79.071426 71.219323
" />
<path d="M79.071426 71.219323
L79.047617 71.266942
" />
<path d="M79.047617 71.266942
L79.047617 71.338371
" />
<path d="M79.047617 71.338371
L79.071426 71.385990
" />
<path d="M79.071426 71.385990
L79.095236 71.409800
" />
<path d="M79.095236 71.409800
L79.142855 71.433609
" />
<path d="M79.142855 71.433609
L79.333331 71.433609
" />
<path d="M79.333331 71.433609
L79.333331 70.933609
" />
<path d="M79.333331 70.933609
L79.166664 70.933609
" />
<path d="M79.166664 70.933609
L79.119045 70.957419
" />
<path d="M79.119045 70.957419
L79.095236 70.981228
" />
<path d="M79.095236 70.981228
L79.071426 71.028847
" />
<path d="M79.071426 71.028847
L79.071426 71.076466
" />
<path d="M79.071426 71.076466
L79.095236 71.124085
" />
<path d="M79.095236 71.124085
L79.119045 71.147895
" />
<path d="M79.119045 71.147895
L79.166664 71.171704
" />
<path d="M79.166664 71.171704
L79.333331 71.171704
" />
<path d="M78.833331 71.385990
L78.809521 71.409800
" />
<path d="M78.809521 71.409800
L78.833331 71.433609
" />
<path d="M78.833331 71.433609
L78.857140 71.409800
" />
<path d="M78.857140 71.409800
L78.833331 71.385990
" />
<path d="M78.833331 71.385990
L78.833331 71.433609
" />
<path d="M78.833331 71.124085
L78.809521 71.147895
" />
<path d="M78.809521 71.147895
L78.833331 71.171704
" />
<path d="M78.833331 71.171704
L78.857140 71.147895
" />
<path d="M78.857140 71.147895
L78.833331 71.124085
" />
<path d="M78.833331 71.124085
L78.833331 71.171704
" />
<path d="M78.261903 71.100276
L78.142855 71.433609
" />
<path d="M78.142855 71.433609
L78.023808 71.100276
" />
<path d="M77.571427 71.433609
L77.857141 71.433609
" />
<path d="M77.714284 71.433609
L77.714284 70.933609
" />
<path d="M77.714284 70.933609
L77.761903 71.005038
" />
<path d="M77.761903 71.005038
L77.809522 71.052657
" />
<path d="M77.809522 71.052657
L77.857141 71.076466
" />
<path d="M77.357142 71.385990
L77.333332 71.409800
" />
<path d="M77.333332 71.409800
L77.357142 71.433609
" />
<path d="M77.357142 71.433609
L77.380951 71.409800
" />
<path d="M77.380951 71.409800
L77.357142 71.385990
" />
<path d="M77.357142 71.385990
L77.357142 71.433609
" />
<path d="M77.023809 70.933609
L76.976190 70.933609
" />
<path d="M76.976190 70.933609
L76.928571 70.957419
" />
<path d="M76.928571 70.957419
L76.904761 70.981228
" />
<path d="M76.904761 70.981228
L76.880952 71.028847
" />
<path d="M76.880952 71.028847
L76.857142 71.124085
" />
<path d="M76.857142 71.124085
L76.857142 71.243133
" />
<path d="M76.857142 71.243133
L76.880952 71.338371
" />
<path d="M76.880952 71.338371
L76.904761 71.385990
" />
<path d="M76.904761 71.385990
L76.928571 71.409800
" />
<path d="M76.928571 71.409800
L76.976190 71.433609
" />
<path d="M76.976190 71.433609
L77.023809 71.433609
" />
<path d="M77.023809 71.433609
L77.071428 71.409800
" />
<path d="M77.071428 71.409800
L77.095237 71.385990
" />
<path d="M77.095237 71.385990
L77.119047 71.338371
" />
<path d="M77.119047 71.338371
L77.142856 71.243133
" />
<path d="M77.142856 71.243133
L77.142856 71.124085
" />
<path d="M77.142856 71.124085
L77.119047 71.028847
" />
<path d="M77.119047 71.028847
L77.095237 70.981228
" />
<path d="M77.095237 70.981228
L77.071428 70.957419
" />
<path d="M77.071428 70.957419
L77.023809 70.933609
" />
<path d="M76.642857 71.385990
L76.619047 71.409800
" />
<path d="M76.619047 71.409800
L76.642857 71.433609
" />
<path d="M76.642857 71.433609
L76.666666 71.409800
" />
<path d="M76.666666 71.409800
L76.642857 71.385990
" />
<path d="M76.642857 71.385990
L76.642857 71.433609
" />
<path d="M76.309524 70.933609
L76.261905 70.933609
" />
<path d="M76.261905 70.933609
L76.214286 70.957419
" />
<path d="M76.214286 70.957419
L76.190476 70.981228
" />
<path d="M76.190476 70.981228
L76.166667 71.028847
" />
<path d="M76.166667 71.028847
L76.142857 71.124085
" />
<path d="M76.142857 71.124085
L76.142857 71.243133
" />
<path d="M76.142857 71.243133
L76.166667 71.338371
" />
<path d="M76.166667 71.338371
L76.190476 71.385990
" />
<path d="M76.190476 71.385990
L76.214286 71.409800
" />
<path d="M76.214286 71.409800
L76.261905 71.433609
" />
<path d="M76.261905 71.433609
L76.309524 71.433609
" />
<path d="M76.309524 71.433609
L76.357143 71.409800
" />
<path d="M76.357143 71.409800
L76.380952 71.385990
" />
<path d="M76.380952 71.385990
L76.404762 71.338371
" />
<path d="M76.404762 71.338371
L76.428571 71.243133
" />
<path d="M76.428571 71.243133
L76.428571 71.124085
" />
<path d="M76.428571 71.124085
L76.404762 71.028847
" />
<path d="M76.404762 71.028847
L76.380952 70.981228
" />
<path d="M76.380952 70.981228
L76.357143 70.957419
" />
<path d="M76.357143 70.957419
L76.309524 70.933609
" />
</g><text x="84.275000" y="67.780000"
transform="scale(-1 1) translate(-168.550000 0)"
textLength="1.358571" font-size="0.800000" lengthAdjust="spacingAndGlyphs"
text-anchor="start" opacity="0">DO</text>
<g class="stroked-text"><desc>DO</desc>
<path d="M84.066353 67.701371
L84.066353 67.101371
" />
<path d="M84.066353 67.101371
L83.923496 67.101371
" />
<path d="M83.923496 67.101371
L83.837782 67.129942
" />
<path d="M83.837782 67.129942
L83.780639 67.187085
" />
<path d="M83.780639 67.187085
L83.752068 67.244228
" />
<path d="M83.752068 67.244228
L83.723496 67.358514
" />
<path d="M83.723496 67.358514
L83.723496 67.444228
" />
<path d="M83.723496 67.444228
L83.752068 67.558514
" />
<path d="M83.752068 67.558514
L83.780639 67.615657
" />
<path d="M83.780639 67.615657
L83.837782 67.672800
" />
<path d="M83.837782 67.672800
L83.923496 67.701371
" />
<path d="M83.923496 67.701371
L84.066353 67.701371
" />
<path d="M83.352068 67.101371
L83.237782 67.101371
" />
<path d="M83.237782 67.101371
L83.180639 67.129942
" />
<path d="M83.180639 67.129942
L83.123496 67.187085
" />
<path d="M83.123496 67.187085
L83.094925 67.301371
" />
<path d="M83.094925 67.301371
L83.094925 67.501371
" />
<path d="M83.094925 67.501371
L83.123496 67.615657
" />
<path d="M83.123496 67.615657
L83.180639 67.672800
" />
<path d="M83.180639 67.672800
L83.237782 67.701371
" />
<path d="M83.237782 67.701371
L83.352068 67.701371
" />
<path d="M83.352068 67.701371
L83.409211 67.672800
" />
<path d="M83.409211 67.672800
L83.466353 67.615657
" />
<path d="M83.466353 67.615657
L83.494925 67.501371
" />
<path d="M83.494925 67.501371
L83.494925 67.301371
" />
<path d="M83.494925 67.301371
L83.466353 67.187085
" />
<path d="M83.466353 67.187085
L83.409211 67.129942
" />
<path d="M83.409211 67.129942
L83.352068 67.101371
" />
</g><text x="80.260000" y="49.230000"
transform="scale(-1 1) translate(-160.520000 0)"
textLength="11.276663" font-size="0.933333" lengthAdjust="spacingAndGlyphs"
text-anchor="middle" opacity="0">Pedalboard LED Ring</text>
<g class="stroked-text"><desc>Pedalboard LED Ring</desc>
<path d="M85.676664 49.139133
L85.676664 48.439133
" />
<path d="M85.676664 48.439133
L85.409997 48.439133
" />
<path d="M85.409997 48.439133
L85.343331 48.472466
" />
<path d="M85.343331 48.472466
L85.309997 48.505800
" />
<path d="M85.309997 48.505800
L85.276664 48.572466
" />
<path d="M85.276664 48.572466
L85.276664 48.672466
" />
<path d="M85.276664 48.672466
L85.309997 48.739133
" />
<path d="M85.309997 48.739133
L85.343331 48.772466
" />
<path d="M85.343331 48.772466
L85.409997 48.805800
" />
<path d="M85.409997 48.805800
L85.676664 48.805800
" />
<path d="M84.709997 49.105800
L84.776664 49.139133
" />
<path d="M84.776664 49.139133
L84.909997 49.139133
" />
<path d="M84.909997 49.139133
L84.976664 49.105800
" />
<path d="M84.976664 49.105800
L85.009997 49.039133
" />
<path d="M85.009997 49.039133
L85.009997 48.772466
" />
<path d="M85.009997 48.772466
L84.976664 48.705800
" />
<path d="M84.976664 48.705800
L84.909997 48.672466
" />
<path d="M84.909997 48.672466
L84.776664 48.672466
" />
<path d="M84.776664 48.672466
L84.709997 48.705800
" />
<path d="M84.709997 48.705800
L84.676664 48.772466
" />
<path d="M84.676664 48.772466
L84.676664 48.839133
" />
<path d="M84.676664 48.839133
L85.009997 48.905800
" />
<path d="M84.076664 49.139133
L84.076664 48.439133
" />
<path d="M84.076664 49.105800
L84.143331 49.139133
" />
<path d="M84.143331 49.139133
L84.276664 49.139133
" />
<path d="M84.276664 49.139133
L84.343331 49.105800
" />
<path d="M84.343331 49.105800
L84.376664 49.072466
" />
<path d="M84.376664 49.072466
L84.409997 49.005800
" />
<path d="M84.409997 49.005800
L84.409997 48.805800
" />
<path d="M84.409997 48.805800
L84.376664 48.739133
" />
<path d="M84.376664 48.739133
L84.343331 48.705800
" />
<path d="M84.343331 48.705800
L84.276664 48.672466
" />
<path d="M84.276664 48.672466
L84.143331 48.672466
" />
<path d="M84.143331 48.672466
L84.076664 48.705800
" />
<path d="M83.443331 49.139133
L83.443331 48.772466
" />
<path d="M83.443331 48.772466
L83.476664 48.705800
" />
<path d="M83.476664 48.705800
L83.543331 48.672466
" />
<path d="M83.543331 48.672466
L83.676664 48.672466
" />
<path d="M83.676664 48.672466
L83.743331 48.705800
" />
<path d="M83.443331 49.105800
L83.509998 49.139133
" />
<path d="M83.509998 49.139133
L83.676664 49.139133
" />
<path d="M83.676664 49.139133
L83.743331 49.105800
" />
<path d="M83.743331 49.105800
L83.776664 49.039133
" />
<path d="M83.776664 49.039133
L83.776664 48.972466
" />
<path d="M83.776664 48.972466
L83.743331 48.905800
" />
<path d="M83.743331 48.905800
L83.676664 48.872466
" />
<path d="M83.676664 48.872466
L83.509998 48.872466
" />
<path d="M83.509998 48.872466
L83.443331 48.839133
" />
<path d="M83.009998 49.139133
L83.076665 49.105800
" />
<path d="M83.076665 49.105800
L83.109998 49.039133
" />
<path d="M83.109998 49.039133
L83.109998 48.439133
" />
<path d="M82.743331 49.139133
L82.743331 48.439133
" />
<path d="M82.743331 48.705800
L82.676664 48.672466
" />
<path d="M82.676664 48.672466
L82.543331 48.672466
" />
<path d="M82.543331 48.672466
L82.476664 48.705800
" />
<path d="M82.476664 48.705800
L82.443331 48.739133
" />
<path d="M82.443331 48.739133
L82.409998 48.805800
" />
<path d="M82.409998 48.805800
L82.409998 49.005800
" />
<path d="M82.409998 49.005800
L82.443331 49.072466
" />
<path d="M82.443331 49.072466
L82.476664 49.105800
" />
<path d="M82.476664 49.105800
L82.543331 49.139133
" />
<path d="M82.543331 49.139133
L82.676664 49.139133
" />
<path d="M82.676664 49.139133
L82.743331 49.105800
" />
<path d="M82.009998 49.139133
L82.076665 49.105800
" />
<path d="M82.076665 49.105800
L82.109998 49.072466
" />
<path d="M82.109998 49.072466
L82.143331 49.005800
" />
<path d="M82.143331 49.005800
L82.143331 48.805800
" />
<path d="M82.143331 48.805800
L82.109998 48.739133
" />
<path d="M82.109998 48.739133
L82.076665 48.705800
" />
<path d="M82.076665 48.705800
L82.009998 48.672466
" />
<path d="M82.009998 48.672466
L81.909998 48.672466
" />
<path d="M81.909998 48.672466
L81.843331 48.705800
" />
<path d="M81.843331 48.705800
L81.809998 48.739133
" />
<path d="M81.809998 48.739133
L81.776665 48.805800
" />
<path d="M81.776665 48.805800
L81.776665 49.005800
" />
<path d="M81.776665 49.005800
L81.809998 49.072466
" />
<path d="M81.809998 49.072466
L81.843331 49.105800
" />
<path d="M81.843331 49.105800
L81.909998 49.139133
" />
<path d="M81.909998 49.139133
L82.009998 49.139133
" />
<path d="M81.176665 49.139133
L81.176665 48.772466
" />
<path d="M81.176665 48.772466
L81.209998 48.705800
" />
<path d="M81.209998 48.705800
L81.276665 48.672466
" />
<path d="M81.276665 48.672466
L81.409998 48.672466
" />
<path d="M81.409998 48.672466
L81.476665 48.705800
" />
<path d="M81.176665 49.105800
L81.243332 49.139133
" />
<path d="M81.243332 49.139133
L81.409998 49.139133
" />
<path d="M81.409998 49.139133
L81.476665 49.105800
" />
<path d="M81.476665 49.105800
L81.509998 49.039133
" />
<path d="M81.509998 49.039133
L81.509998 48.972466
" />
<path d="M81.509998 48.972466
L81.476665 48.905800
" />
<path d="M81.476665 48.905800
L81.409998 48.872466
" />
<path d="M81.409998 48.872466
L81.243332 48.872466
" />
<path d="M81.243332 48.872466
L81.176665 48.839133
" />
<path d="M80.843332 49.139133
L80.843332 48.672466
" />
<path d="M80.843332 48.805800
L80.809999 48.739133
" />
<path d="M80.809999 48.739133
L80.776665 48.705800
" />
<path d="M80.776665 48.705800
L80.709999 48.672466
" />
<path d="M80.709999 48.672466
L80.643332 48.672466
" />
<path d="M80.109999 49.139133
L80.109999 48.439133
" />
<path d="M80.109999 49.105800
L80.176666 49.139133
" />
<path d="M80.176666 49.139133
L80.309999 49.139133
" />
<path d="M80.309999 49.139133
L80.376666 49.105800
" />
<path d="M80.376666 49.105800
L80.409999 49.072466
" />
<path d="M80.409999 49.072466
L80.443332 49.005800
" />
<path d="M80.443332 49.005800
L80.443332 48.805800
" />
<path d="M80.443332 48.805800
L80.409999 48.739133
" />
<path d="M80.409999 48.739133
L80.376666 48.705800
" />
<path d="M80.376666 48.705800
L80.309999 48.672466
" />
<path d="M80.309999 48.672466
L80.176666 48.672466
" />
<path d="M80.176666 48.672466
L80.109999 48.705800
" />
<path d="M78.910000 49.139133
L79.243333 49.139133
" />
<path d="M79.243333 49.139133
L79.243333 48.439133
" />
<path d="M78.676666 48.772466
L78.443333 48.772466
" />
<path d="M78.343333 49.139133
L78.676666 49.139133
" />
<path d="M78.676666 49.139133
L78.676666 48.439133
" />
<path d="M78.676666 48.439133
L78.343333 48.439133
" />
<path d="M78.043333 49.139133
L78.043333 48.439133
" />
<path d="M78.043333 48.439133
L77.876666 48.439133
" />
<path d="M77.876666 48.439133
L77.776666 48.472466
" />
<path d="M77.776666 48.472466
L77.710000 48.539133
" />
<path d="M77.710000 48.539133
L77.676666 48.605800
" />
<path d="M77.676666 48.605800
L77.643333 48.739133
" />
<path d="M77.643333 48.739133
L77.643333 48.839133
" />
<path d="M77.643333 48.839133
L77.676666 48.972466
" />
<path d="M77.676666 48.972466
L77.710000 49.039133
" />
<path d="M77.710000 49.039133
L77.776666 49.105800
" />
<path d="M77.776666 49.105800
L77.876666 49.139133
" />
<path d="M77.876666 49.139133
L78.043333 49.139133
" />
<path d="M76.410000 49.139133
L76.643333 48.805800
" />
<path d="M76.810000 49.139133
L76.810000 48.439133
" />
<path d="M76.810000 48.439133
L76.543333 48.439133
" />
<path d="M76.543333 48.439133
L76.476667 48.472466
" />
<path d="M76.476667 48.472466
L76.443333 48.505800
" />
<path d="M76.443333 48.505800
L76.410000 48.572466
" />
<path d="M76.410000 48.572466
L76.410000 48.672466
" />
<path d="M76.410000 48.672466
L76.443333 48.739133
" />
<path d="M76.443333 48.739133
L76.476667 48.772466
" />
<path d="M76.476667 48.772466
L76.543333 48.805800
" />
<path d="M76.543333 48.805800
L76.810000 48.805800
" />
<path d="M76.110000 49.139133
L76.110000 48.672466
" />
<path d="M76.110000 48.439133
L76.143333 48.472466
" />
<path d="M76.143333 48.472466
L76.110000 48.505800
" />
<path d="M76.110000 48.505800
L76.076667 48.472466
" />
<path d="M76.076667 48.472466
L76.110000 48.439133
" />
<path d="M76.110000 48.439133
L76.110000 48.505800
" />
<path d="M75.776667 48.672466
L75.776667 49.139133
" />
<path d="M75.776667 48.739133
L75.743334 48.705800
" />
<path d="M75.743334 48.705800
L75.676667 48.672466
" />
<path d="M75.676667 48.672466
L75.576667 48.672466
" />
<path d="M75.576667 48.672466
L75.510000 48.705800
" />
<path d="M75.510000 48.705800
L75.476667 48.772466
" />
<path d="M75.476667 48.772466
L75.476667 49.139133
" />
<path d="M74.843334 48.672466
L74.843334 49.239133
" />
<path d="M74.843334 49.239133
L74.876667 49.305800
" />
<path d="M74.876667 49.305800
L74.910001 49.339133
" />
<path d="M74.910001 49.339133
L74.976667 49.372466
" />
<path d="M74.976667 49.372466
L75.076667 49.372466
" />
<path d="M75.076667 49.372466
L75.143334 49.339133
" />
<path d="M74.843334 49.105800
L74.910001 49.139133
" />
<path d="M74.910001 49.139133
L75.043334 49.139133
" />
<path d="M75.043334 49.139133
L75.110001 49.105800
" />
<path d="M75.110001 49.105800
L75.143334 49.072466
" />
<path d="M75.143334 49.072466
L75.176667 49.005800
" />
<path d="M75.176667 49.005800
L75.176667 48.805800
" />
<path d="M75.176667 48.805800
L75.143334 48.739133
" />
<path d="M75.143334 48.739133
L75.110001 48.705800
" />
<path d="M75.110001 48.705800
L75.043334 48.672466
" />
<path d="M75.043334 48.672466
L74.910001 48.672466
" />
<path d="M74.910001 48.672466
L74.843334 48.705800
" />
</g></g>
<g style="fill:#000000; fill-opacity:0.0; 
stroke:#000000; stroke-width:0.120000; stroke-opacity:1; 
stroke-linecap:round; stroke-linejoin:round;">
<path d="M87.440000 62.060000
L87.440000 57.940000
" />
<path d="M87.740000 62.060000
L87.440000 62.060000
" />
<path d="M89.740000 62.060000
L89.260000 62.060000
" />
<path d="M91.560000 62.060000
L91.260000 62.060000
" />
<path d="M91.560000 62.060000
L91.560000 57.940000
" />
<path d="M87.740000 57.940000
L87.440000 57.940000
" />
<path d="M89.740000 57.940000
L89.260000 57.940000
" />
<path d="M91.260000 57.940000
L91.260000 55.560000
" />
<path d="M91.560000 57.940000
L91.260000 57.940000
" />
<path d="M84.940000 67.440000
L89.060000 67.440000
" />
<path d="M84.940000 67.740000
L84.940000 67.440000
" />
<path d="M84.940000 69.740000
L84.940000 69.260000
" />
<path d="M84.940000 71.560000
L84.940000 71.260000
" />
<path d="M84.940000 71.560000
L89.060000 71.560000
" />
<path d="M89.060000 67.740000
L89.060000 67.440000
" />
<path d="M89.060000 69.740000
L89.060000 69.260000
" />
<path d="M89.060000 71.260000
L91.440000 71.260000
" />
<path d="M89.060000 71.560000
L89.060000 71.260000
" />
<g >
</g>
<g >
</g>
<g >
</g>
<g >
</g>
<g >
</g>
<g >
</g>
<g >
</g>
<g >
</g>
<g >
</g>
<g >
</g>
<g >
</g>
<g >
</g>
<g >
</g>
<g >
</g>
<g >
</g>
<g >
</g>
<g >
</g>
<g >
</g>
<g >
</g>
<g >
</g>
<g >
</g>
<g >
</g>
<g >
</g>
<g >
</g>
<g >
</g>
<g >
</g>
<g >
</g>
<g >
</g>
<g >
</g>
<g >
</g>
<g >
</g>
<g >
</g>
<g >
</g>
<g >
</g>
</g> 
</svg>
