<?xml version="1.0" standalone="no"?>
 <!DOCTYPE svg PUBLIC "-//W3C//DTD SVG 1.1//EN" 
 "http://www.w3.org/Graphics/SVG/1.1/DTD/svg11.dtd"> 
<svg
  xmlns:svg="http://www.w3.org/2000/svg"
  xmlns="http://www.w3.org/2000/svg"
  xmlns:xlink="http://www.w3.org/1999/xlink"
  version="1.1"
  width="3.8100000000000005cm" height="3.0100000000000002cm" viewBox="64.95 44.95 38.1 30.1">
<title>SVG Image created as pedalboard-led-ring-B_SilkS.svg date 2023/05/26 17:26:18 </title>
  <desc>Image generated by PCBNEW </desc>
<g style="fill:#000000; fill-opacity:1.000000;stroke:#000000; stroke-opacity:1.000000;
stroke-linecap:round; stroke-linejoin:round;"
 transform="translate(0 0) scale(1 1)">
</g>
<g style="fill:#000000; fill-opacity:0.0; 
stroke:#000000; stroke-width:0.000000; stroke-opacity:1; 
stroke-linecap:round; stroke-linejoin:round;">
</g>
<g style="fill:#000000; fill-opacity:0.0; 
stroke:#000000; stroke-width:0.100000; stroke-opacity:1; 
stroke-linecap:round; stroke-linejoin:round;">
<circle cx="80.000000" cy="60.000000" r="7.050000" /> 
</g>
<g style="fill:#000000; fill-opacity:0.0; 
stroke:#000000; stroke-width:0.150000; stroke-opacity:1; 
stroke-linecap:round; stroke-linejoin:round;">
<text x="92.100000" y="49.800000"
transform="scale(-1 1) translate(-184.200000 0)"
textLength="2.175000" font-size="1.333333" lengthAdjust="spacingAndGlyphs"
text-anchor="middle" opacity="0">U1</text>
<g class="stroked-text"><desc>U1</desc>
<path d="M92.861904 48.762619
L92.861904 49.572142
" />
<path d="M92.861904 49.572142
L92.814285 49.667380
" />
<path d="M92.814285 49.667380
L92.766666 49.715000
" />
<path d="M92.766666 49.715000
L92.671428 49.762619
" />
<path d="M92.671428 49.762619
L92.480952 49.762619
" />
<path d="M92.480952 49.762619
L92.385714 49.715000
" />
<path d="M92.385714 49.715000
L92.338095 49.667380
" />
<path d="M92.338095 49.667380
L92.290476 49.572142
" />
<path d="M92.290476 49.572142
L92.290476 48.762619
" />
<path d="M91.290476 49.762619
L91.861904 49.762619
" />
<path d="M91.576190 49.762619
L91.576190 48.762619
" />
<path d="M91.576190 48.762619
L91.671428 48.905476
" />
<path d="M91.671428 48.905476
L91.766666 49.000714
" />
<path d="M91.766666 49.000714
L91.861904 49.048333
" />
</g><text x="88.300000" y="65.400000"
transform="scale(-1 1) translate(-176.600000 0)"
textLength="1.936905" font-size="1.333333" lengthAdjust="spacingAndGlyphs"
text-anchor="middle" opacity="0">L1</text>
<g class="stroked-text"><desc>L1</desc>
<path d="M88.466666 65.362619
L88.942856 65.362619
" />
<path d="M88.942856 65.362619
L88.942856 64.362619
" />
<path d="M87.609523 65.362619
L88.180951 65.362619
" />
<path d="M87.895237 65.362619
L87.895237 64.362619
" />
<path d="M87.895237 64.362619
L87.990475 64.505476
" />
<path d="M87.990475 64.505476
L88.085713 64.600714
" />
<path d="M88.085713 64.600714
L88.180951 64.648333
" />
</g><text x="91.900000" y="61.950000"
transform="scale(-1 1) translate(-183.800000 0)"
textLength="2.127381" font-size="1.333333" lengthAdjust="spacingAndGlyphs"
text-anchor="middle" opacity="0">C1</text>
<g class="stroked-text"><desc>C1</desc>
<path d="M92.066666 61.817380
L92.114285 61.865000
" />
<path d="M92.114285 61.865000
L92.257142 61.912619
" />
<path d="M92.257142 61.912619
L92.352380 61.912619
" />
<path d="M92.352380 61.912619
L92.495237 61.865000
" />
<path d="M92.495237 61.865000
L92.590475 61.769761
" />
<path d="M92.590475 61.769761
L92.638094 61.674523
" />
<path d="M92.638094 61.674523
L92.685713 61.484047
" />
<path d="M92.685713 61.484047
L92.685713 61.341190
" />
<path d="M92.685713 61.341190
L92.638094 61.150714
" />
<path d="M92.638094 61.150714
L92.590475 61.055476
" />
<path d="M92.590475 61.055476
L92.495237 60.960238
" />
<path d="M92.495237 60.960238
L92.352380 60.912619
" />
<path d="M92.352380 60.912619
L92.257142 60.912619
" />
<path d="M92.257142 60.912619
L92.114285 60.960238
" />
<path d="M92.114285 60.960238
L92.066666 61.007857
" />
<path d="M91.114285 61.912619
L91.685713 61.912619
" />
<path d="M91.399999 61.912619
L91.399999 60.912619
" />
<path d="M91.399999 60.912619
L91.495237 61.055476
" />
<path d="M91.495237 61.055476
L91.590475 61.150714
" />
<path d="M91.590475 61.150714
L91.685713 61.198333
" />
</g><text x="100.850000" y="72.400000"
transform="scale(-1 1) translate(-201.700000 0)"
textLength="1.889286" font-size="1.333333" lengthAdjust="spacingAndGlyphs"
text-anchor="middle" opacity="0">J1</text>
<g class="stroked-text"><desc>J1</desc>
<path d="M101.183333 71.362619
L101.183333 72.076904
" />
<path d="M101.183333 72.076904
L101.230952 72.219761
" />
<path d="M101.230952 72.219761
L101.326190 72.315000
" />
<path d="M101.326190 72.315000
L101.469047 72.362619
" />
<path d="M101.469047 72.362619
L101.564285 72.362619
" />
<path d="M100.183333 72.362619
L100.754761 72.362619
" />
<path d="M100.469047 72.362619
L100.469047 71.362619
" />
<path d="M100.469047 71.362619
L100.564285 71.505476
" />
<path d="M100.564285 71.505476
L100.659523 71.600714
" />
<path d="M100.659523 71.600714
L100.754761 71.648333
" />
</g><g transform="rotate(-90.000000 82.700000 72.800000)">
<text x="82.700000" y="73.125000"
transform="scale(-1 1) translate(-165.400000 0)"
textLength="1.514048" font-size="0.866666" lengthAdjust="spacingAndGlyphs"
text-anchor="middle" opacity="0">R2</text>
</g>
<g class="stroked-text"><desc>R2</desc>
<path d="M83.000702 72.691666
L82.691178 72.474999
" />
<path d="M83.000702 72.320237
L82.350702 72.320237
" />
<path d="M82.350702 72.320237
L82.350702 72.567856
" />
<path d="M82.350702 72.567856
L82.381654 72.629761
" />
<path d="M82.381654 72.629761
L82.412607 72.660714
" />
<path d="M82.412607 72.660714
L82.474511 72.691666
" />
<path d="M82.474511 72.691666
L82.567369 72.691666
" />
<path d="M82.567369 72.691666
L82.629273 72.660714
" />
<path d="M82.629273 72.660714
L82.660226 72.629761
" />
<path d="M82.660226 72.629761
L82.691178 72.567856
" />
<path d="M82.691178 72.567856
L82.691178 72.320237
" />
<path d="M82.412607 72.939285
L82.381654 72.970237
" />
<path d="M82.381654 72.970237
L82.350702 73.032142
" />
<path d="M82.350702 73.032142
L82.350702 73.186904
" />
<path d="M82.350702 73.186904
L82.381654 73.248809
" />
<path d="M82.381654 73.248809
L82.412607 73.279761
" />
<path d="M82.412607 73.279761
L82.474511 73.310714
" />
<path d="M82.474511 73.310714
L82.536416 73.310714
" />
<path d="M82.536416 73.310714
L82.629273 73.279761
" />
<path d="M82.629273 73.279761
L83.000702 72.908333
" />
<path d="M83.000702 72.908333
L83.000702 73.310714
" />
</g><g transform="rotate(-90.000000 101.300000 53.100000)">
<text x="101.300000" y="53.425000"
transform="scale(-1 1) translate(-202.600000 0)"
textLength="1.514048" font-size="0.866666" lengthAdjust="spacingAndGlyphs"
text-anchor="middle" opacity="0">R1</text>
</g>
<g class="stroked-text"><desc>R1</desc>
<path d="M101.600702 52.991666
L101.291178 52.774999
" />
<path d="M101.600702 52.620237
L100.950702 52.620237
" />
<path d="M100.950702 52.620237
L100.950702 52.867856
" />
<path d="M100.950702 52.867856
L100.981654 52.929761
" />
<path d="M100.981654 52.929761
L101.012607 52.960714
" />
<path d="M101.012607 52.960714
L101.074511 52.991666
" />
<path d="M101.074511 52.991666
L101.167369 52.991666
" />
<path d="M101.167369 52.991666
L101.229273 52.960714
" />
<path d="M101.229273 52.960714
L101.260226 52.929761
" />
<path d="M101.260226 52.929761
L101.291178 52.867856
" />
<path d="M101.291178 52.867856
L101.291178 52.620237
" />
<path d="M101.600702 53.610714
L101.600702 53.239285
" />
<path d="M101.600702 53.424999
L100.950702 53.424999
" />
<path d="M100.950702 53.424999
L101.043559 53.363095
" />
<path d="M101.043559 53.363095
L101.105464 53.301190
" />
<path d="M101.105464 53.301190
L101.136416 53.239285
" />
</g><text x="88.350000" y="73.900000"
transform="scale(-1 1) translate(-176.700000 0)"
textLength="1.635000" font-size="0.933333" lengthAdjust="spacingAndGlyphs"
text-anchor="middle" opacity="0">U2</text>
<g class="stroked-text"><desc>U2</desc>
<path d="M88.883333 73.173833
L88.883333 73.740500
" />
<path d="M88.883333 73.740500
L88.850000 73.807166
" />
<path d="M88.850000 73.807166
L88.816666 73.840500
" />
<path d="M88.816666 73.840500
L88.750000 73.873833
" />
<path d="M88.750000 73.873833
L88.616666 73.873833
" />
<path d="M88.616666 73.873833
L88.550000 73.840500
" />
<path d="M88.550000 73.840500
L88.516666 73.807166
" />
<path d="M88.516666 73.807166
L88.483333 73.740500
" />
<path d="M88.483333 73.740500
L88.483333 73.173833
" />
<path d="M88.183333 73.240500
L88.150000 73.207166
" />
<path d="M88.150000 73.207166
L88.083333 73.173833
" />
<path d="M88.083333 73.173833
L87.916667 73.173833
" />
<path d="M87.916667 73.173833
L87.850000 73.207166
" />
<path d="M87.850000 73.207166
L87.816667 73.240500
" />
<path d="M87.816667 73.240500
L87.783333 73.307166
" />
<path d="M87.783333 73.307166
L87.783333 73.373833
" />
<path d="M87.783333 73.373833
L87.816667 73.473833
" />
<path d="M87.816667 73.473833
L88.216667 73.873833
" />
<path d="M88.216667 73.873833
L87.783333 73.873833
" />
</g><g transform="rotate(-90.000000 96.120000 57.500000)">
<text x="96.120000" y="58.000000"
transform="scale(-1 1) translate(-192.240000 0)"
textLength="2.127381" font-size="1.333333" lengthAdjust="spacingAndGlyphs"
text-anchor="middle" opacity="0">C2</text>
</g>
<g class="stroked-text"><desc>C2</desc>
<path d="M96.487380 57.333333
L96.535000 57.285714
" />
<path d="M96.535000 57.285714
L96.582619 57.142857
" />
<path d="M96.582619 57.142857
L96.582619 57.047619
" />
<path d="M96.582619 57.047619
L96.535000 56.904762
" />
<path d="M96.535000 56.904762
L96.439761 56.809524
" />
<path d="M96.439761 56.809524
L96.344523 56.761905
" />
<path d="M96.344523 56.761905
L96.154047 56.714286
" />
<path d="M96.154047 56.714286
L96.011190 56.714286
" />
<path d="M96.011190 56.714286
L95.820714 56.761905
" />
<path d="M95.820714 56.761905
L95.725476 56.809524
" />
<path d="M95.725476 56.809524
L95.630238 56.904762
" />
<path d="M95.630238 56.904762
L95.582619 57.047619
" />
<path d="M95.582619 57.047619
L95.582619 57.142857
" />
<path d="M95.582619 57.142857
L95.630238 57.285714
" />
<path d="M95.630238 57.285714
L95.677857 57.333333
" />
<path d="M95.677857 57.714286
L95.630238 57.761905
" />
<path d="M95.630238 57.761905
L95.582619 57.857143
" />
<path d="M95.582619 57.857143
L95.582619 58.095238
" />
<path d="M95.582619 58.095238
L95.630238 58.190476
" />
<path d="M95.630238 58.190476
L95.677857 58.238095
" />
<path d="M95.677857 58.238095
L95.773095 58.285714
" />
<path d="M95.773095 58.285714
L95.868333 58.285714
" />
<path d="M95.868333 58.285714
L96.011190 58.238095
" />
<path d="M96.011190 58.238095
L96.582619 57.666667
" />
<path d="M96.582619 57.666667
L96.582619 58.285714
" />
</g><text x="83.100000" y="68.000000"
transform="scale(-1 1) translate(-166.200000 0)"
textLength="2.127381" font-size="1.333333" lengthAdjust="spacingAndGlyphs"
text-anchor="middle" opacity="0">C4</text>
<g class="stroked-text"><desc>C4</desc>
<path d="M83.266666 67.867380
L83.314285 67.915000
" />
<path d="M83.314285 67.915000
L83.457142 67.962619
" />
<path d="M83.457142 67.962619
L83.552380 67.962619
" />
<path d="M83.552380 67.962619
L83.695237 67.915000
" />
<path d="M83.695237 67.915000
L83.790475 67.819761
" />
<path d="M83.790475 67.819761
L83.838094 67.724523
" />
<path d="M83.838094 67.724523
L83.885713 67.534047
" />
<path d="M83.885713 67.534047
L83.885713 67.391190
" />
<path d="M83.885713 67.391190
L83.838094 67.200714
" />
<path d="M83.838094 67.200714
L83.790475 67.105476
" />
<path d="M83.790475 67.105476
L83.695237 67.010238
" />
<path d="M83.695237 67.010238
L83.552380 66.962619
" />
<path d="M83.552380 66.962619
L83.457142 66.962619
" />
<path d="M83.457142 66.962619
L83.314285 67.010238
" />
<path d="M83.314285 67.010238
L83.266666 67.057857
" />
<path d="M82.409523 67.295952
L82.409523 67.962619
" />
<path d="M82.647618 66.915000
L82.885713 67.629285
" />
<path d="M82.885713 67.629285
L82.266666 67.629285
" />
</g><text x="92.300000" y="73.700000"
transform="scale(-1 1) translate(-184.600000 0)"
textLength="2.127381" font-size="1.333333" lengthAdjust="spacingAndGlyphs"
text-anchor="middle" opacity="0">C3</text>
<g class="stroked-text"><desc>C3</desc>
<path d="M92.466666 73.567380
L92.514285 73.615000
" />
<path d="M92.514285 73.615000
L92.657142 73.662619
" />
<path d="M92.657142 73.662619
L92.752380 73.662619
" />
<path d="M92.752380 73.662619
L92.895237 73.615000
" />
<path d="M92.895237 73.615000
L92.990475 73.519761
" />
<path d="M92.990475 73.519761
L93.038094 73.424523
" />
<path d="M93.038094 73.424523
L93.085713 73.234047
" />
<path d="M93.085713 73.234047
L93.085713 73.091190
" />
<path d="M93.085713 73.091190
L93.038094 72.900714
" />
<path d="M93.038094 72.900714
L92.990475 72.805476
" />
<path d="M92.990475 72.805476
L92.895237 72.710238
" />
<path d="M92.895237 72.710238
L92.752380 72.662619
" />
<path d="M92.752380 72.662619
L92.657142 72.662619
" />
<path d="M92.657142 72.662619
L92.514285 72.710238
" />
<path d="M92.514285 72.710238
L92.466666 72.757857
" />
<path d="M92.133332 72.662619
L91.514285 72.662619
" />
<path d="M91.514285 72.662619
L91.847618 73.043571
" />
<path d="M91.847618 73.043571
L91.704761 73.043571
" />
<path d="M91.704761 73.043571
L91.609523 73.091190
" />
<path d="M91.609523 73.091190
L91.561904 73.138809
" />
<path d="M91.561904 73.138809
L91.514285 73.234047
" />
<path d="M91.514285 73.234047
L91.514285 73.472142
" />
<path d="M91.514285 73.472142
L91.561904 73.567380
" />
<path d="M91.561904 73.567380
L91.609523 73.615000
" />
<path d="M91.609523 73.615000
L91.704761 73.662619
" />
<path d="M91.704761 73.662619
L91.990475 73.662619
" />
<path d="M91.990475 73.662619
L92.085713 73.615000
" />
<path d="M92.085713 73.615000
L92.133332 73.567380
" />
</g></g>
<g style="fill:#000000; fill-opacity:0.0; 
stroke:#000000; stroke-width:0.120000; stroke-opacity:1; 
stroke-linecap:round; stroke-linejoin:round;">
<path d="M94.900000 50.240000
L92.950000 50.240000
" />
<path d="M94.900000 50.240000
L96.850000 50.240000
" />
<path d="M94.900000 55.360000
L91.450000 55.360000
" />
<path d="M94.900000 55.360000
L96.850000 55.360000
" />
</g>
<g style="fill:#000000; fill-opacity:0.0; 
stroke:#000000; stroke-width:0.127000; stroke-opacity:1; 
stroke-linecap:round; stroke-linejoin:round;">
<path d="M86.300000 68.413500
L89.500000 68.413500
" />
<path d="M89.500000 65.786500
L86.300000 65.786500
" />
</g>
<g style="fill:#000000; fill-opacity:0.0; 
stroke:#000000; stroke-width:0.120000; stroke-opacity:1; 
stroke-linecap:round; stroke-linejoin:round;">
<path d="M91.188748 58.690000
L92.611252 58.690000
" />
<path d="M91.188748 60.510000
L92.611252 60.510000
" />
<path d="M100.370000 65.400000
L100.370000 70.600000
" />
<path d="M99.800000 65.400000
L100.370000 65.400000
" />
<path d="M97.260000 65.400000
L98.280000 65.400000
" />
<path d="M94.720000 65.400000
L95.740000 65.400000
" />
<path d="M92.630000 65.400000
L93.200000 65.400000
" />
<path d="M92.630000 65.400000
L92.630000 70.600000
" />
<path d="M99.800000 70.600000
L100.370000 70.600000
" />
<path d="M97.260000 70.600000
L98.280000 70.600000
" />
<path d="M94.720000 70.600000
L95.740000 70.600000
" />
<path d="M93.200000 70.600000
L93.200000 71.960000
" />
<path d="M92.630000 70.600000
L93.200000 70.600000
" />
</g>
<g style="fill:#000000; fill-opacity:0.0; 
stroke:#000000; stroke-width:0.150000; stroke-opacity:1; 
stroke-linecap:round; stroke-linejoin:round;">
<path d="M83.300000 71.150000
L83.300000 72.850000
" />
<path d="M84.700000 72.850000
L84.700000 71.150000
" />
<path d="M100.500000 53.450000
L100.500000 51.750000
" />
<path d="M99.100000 51.750000
L99.100000 53.450000
" />
<path d="M87.400000 73.625000
L85.400000 73.625000
" />
<path d="M86.400000 70.375000
L85.400000 70.375000
" />
</g>
<g style="fill:#000000; fill-opacity:0.0; 
stroke:#000000; stroke-width:0.120000; stroke-opacity:1; 
stroke-linecap:round; stroke-linejoin:round;">
<path d="M98.535000 57.238748
L98.535000 57.761252
" />
<path d="M97.065000 57.238748
L97.065000 57.761252
" />
<path d="M83.161252 70.035000
L82.638748 70.035000
" />
<path d="M83.161252 68.565000
L82.638748 68.565000
" />
<path d="M89.090000 71.811252
L89.090000 70.388748
" />
<path d="M90.910000 71.811252
L90.910000 70.388748
" />
<g >
</g>
<g >
</g>
<g >
</g>
<g >
</g>
<g >
</g>
<g >
</g>
<g >
</g>
<g >
</g>
<g >
</g>
<g >
</g>
<g >
</g>
<g >
</g>
<g >
</g>
<g >
</g>
<g >
</g>
<g >
</g>
<g >
</g>
<g >
</g>
<g >
</g>
</g> 
</svg>
