<?xml version="1.0" standalone="no"?>
 <!DOCTYPE svg PUBLIC "-//W3C//DTD SVG 1.1//EN" 
 "http://www.w3.org/Graphics/SVG/1.1/DTD/svg11.dtd"> 
<svg
  xmlns:svg="http://www.w3.org/2000/svg"
  xmlns="http://www.w3.org/2000/svg"
  xmlns:xlink="http://www.w3.org/1999/xlink"
  version="1.1"
  width="2.6100000000000003cm" height="2.6100000000000003cm" viewBox="66.95 46.95 26.1 26.1">
<title>SVG Image created as pedalboard-led-ring-B_SilkS.svg date 2023/06/03 20:04:00 </title>
  <desc>Image generated by PCBNEW </desc>
<g style="fill:#000000; fill-opacity:1.000000;stroke:#000000; stroke-opacity:1.000000;
stroke-linecap:round; stroke-linejoin:round;"
 transform="translate(0 0) scale(1 1)">
</g>
<g style="fill:#000000; fill-opacity:0.0; 
stroke:#000000; stroke-width:0.000000; stroke-opacity:1; 
stroke-linecap:round; stroke-linejoin:round;">
</g>
<g style="fill:#000000; fill-opacity:0.0; 
stroke:#000000; stroke-width:0.100000; stroke-opacity:1; 
stroke-linecap:round; stroke-linejoin:round;">
<circle cx="80.000000" cy="60.000000" r="7.050000" /> 
<g transform="rotate(-90.000000 87.900000 56.030000)">
<text x="87.900000" y="56.030000"
transform="scale(-1 1) translate(-175.800000 0)"
textLength="1.143333" font-size="0.933333" lengthAdjust="spacingAndGlyphs"
text-anchor="start" opacity="0">DI</text>
</g>
<g class="stroked-text"><desc>DI</desc>
<path d="M87.809133 56.262455
L87.109133 56.262455
" />
<path d="M87.109133 56.262455
L87.109133 56.429122
" />
<path d="M87.109133 56.429122
L87.142466 56.529122
" />
<path d="M87.142466 56.529122
L87.209133 56.595789
" />
<path d="M87.209133 56.595789
L87.275800 56.629122
" />
<path d="M87.275800 56.629122
L87.409133 56.662455
" />
<path d="M87.409133 56.662455
L87.509133 56.662455
" />
<path d="M87.509133 56.662455
L87.642466 56.629122
" />
<path d="M87.642466 56.629122
L87.709133 56.595789
" />
<path d="M87.709133 56.595789
L87.775800 56.529122
" />
<path d="M87.775800 56.529122
L87.809133 56.429122
" />
<path d="M87.809133 56.429122
L87.809133 56.262455
" />
<path d="M87.809133 56.962455
L87.109133 56.962455
" />
</g><g transform="rotate(-90.000000 87.950000 62.500000)">
<text x="87.950000" y="62.500000"
transform="scale(-1 1) translate(-175.900000 0)"
textLength="1.301429" font-size="0.800000" lengthAdjust="spacingAndGlyphs"
text-anchor="start" opacity="0">D0</text>
</g>
<g class="stroked-text"><desc>D0</desc>
<path d="M87.871371 62.708646
L87.271371 62.708646
" />
<path d="M87.271371 62.708646
L87.271371 62.851503
" />
<path d="M87.271371 62.851503
L87.299942 62.937217
" />
<path d="M87.299942 62.937217
L87.357085 62.994360
" />
<path d="M87.357085 62.994360
L87.414228 63.022931
" />
<path d="M87.414228 63.022931
L87.528514 63.051503
" />
<path d="M87.528514 63.051503
L87.614228 63.051503
" />
<path d="M87.614228 63.051503
L87.728514 63.022931
" />
<path d="M87.728514 63.022931
L87.785657 62.994360
" />
<path d="M87.785657 62.994360
L87.842800 62.937217
" />
<path d="M87.842800 62.937217
L87.871371 62.851503
" />
<path d="M87.871371 62.851503
L87.871371 62.708646
" />
<path d="M87.271371 63.422931
L87.271371 63.480074
" />
<path d="M87.271371 63.480074
L87.299942 63.537217
" />
<path d="M87.299942 63.537217
L87.328514 63.565789
" />
<path d="M87.328514 63.565789
L87.385657 63.594360
" />
<path d="M87.385657 63.594360
L87.499942 63.622931
" />
<path d="M87.499942 63.622931
L87.642800 63.622931
" />
<path d="M87.642800 63.622931
L87.757085 63.594360
" />
<path d="M87.757085 63.594360
L87.814228 63.565789
" />
<path d="M87.814228 63.565789
L87.842800 63.537217
" />
<path d="M87.842800 63.537217
L87.871371 63.480074
" />
<path d="M87.871371 63.480074
L87.871371 63.422931
" />
<path d="M87.871371 63.422931
L87.842800 63.365789
" />
<path d="M87.842800 63.365789
L87.814228 63.337217
" />
<path d="M87.814228 63.337217
L87.757085 63.308646
" />
<path d="M87.757085 63.308646
L87.642800 63.280074
" />
<path d="M87.642800 63.280074
L87.499942 63.280074
" />
<path d="M87.499942 63.280074
L87.385657 63.308646
" />
<path d="M87.385657 63.308646
L87.328514 63.337217
" />
<path d="M87.328514 63.337217
L87.299942 63.365789
" />
<path d="M87.299942 63.365789
L87.271371 63.422931
" />
</g><text x="91.140000" y="69.900000"
transform="scale(-1 1) translate(-182.280000 0)"
textLength="1.844286" font-size="0.800000" lengthAdjust="spacingAndGlyphs"
text-anchor="start" opacity="0">VCC</text>
<g class="stroked-text"><desc>VCC</desc>
<path d="M91.017068 69.221371
L90.817068 69.821371
" />
<path d="M90.817068 69.821371
L90.617068 69.221371
" />
<path d="M90.074210 69.764228
L90.102782 69.792800
" />
<path d="M90.102782 69.792800
L90.188496 69.821371
" />
<path d="M90.188496 69.821371
L90.245639 69.821371
" />
<path d="M90.245639 69.821371
L90.331353 69.792800
" />
<path d="M90.331353 69.792800
L90.388496 69.735657
" />
<path d="M90.388496 69.735657
L90.417067 69.678514
" />
<path d="M90.417067 69.678514
L90.445639 69.564228
" />
<path d="M90.445639 69.564228
L90.445639 69.478514
" />
<path d="M90.445639 69.478514
L90.417067 69.364228
" />
<path d="M90.417067 69.364228
L90.388496 69.307085
" />
<path d="M90.388496 69.307085
L90.331353 69.249942
" />
<path d="M90.331353 69.249942
L90.245639 69.221371
" />
<path d="M90.245639 69.221371
L90.188496 69.221371
" />
<path d="M90.188496 69.221371
L90.102782 69.249942
" />
<path d="M90.102782 69.249942
L90.074210 69.278514
" />
<path d="M89.474210 69.764228
L89.502782 69.792800
" />
<path d="M89.502782 69.792800
L89.588496 69.821371
" />
<path d="M89.588496 69.821371
L89.645639 69.821371
" />
<path d="M89.645639 69.821371
L89.731353 69.792800
" />
<path d="M89.731353 69.792800
L89.788496 69.735657
" />
<path d="M89.788496 69.735657
L89.817067 69.678514
" />
<path d="M89.817067 69.678514
L89.845639 69.564228
" />
<path d="M89.845639 69.564228
L89.845639 69.478514
" />
<path d="M89.845639 69.478514
L89.817067 69.364228
" />
<path d="M89.817067 69.364228
L89.788496 69.307085
" />
<path d="M89.788496 69.307085
L89.731353 69.249942
" />
<path d="M89.731353 69.249942
L89.645639 69.221371
" />
<path d="M89.645639 69.221371
L89.588496 69.221371
" />
<path d="M89.588496 69.221371
L89.502782 69.249942
" />
<path d="M89.502782 69.249942
L89.474210 69.278514
" />
</g><g transform="rotate(-90.000000 89.900000 62.350000)">
<text x="89.900000" y="62.350000"
transform="scale(-1 1) translate(-179.800000 0)"
textLength="1.958571" font-size="0.800000" lengthAdjust="spacingAndGlyphs"
text-anchor="start" opacity="0">GND</text>
</g>
<g class="stroked-text"><desc>GND</desc>
<path d="M89.249942 62.872931
L89.221371 62.815789
" />
<path d="M89.221371 62.815789
L89.221371 62.730074
" />
<path d="M89.221371 62.730074
L89.249942 62.644360
" />
<path d="M89.249942 62.644360
L89.307085 62.587217
" />
<path d="M89.307085 62.587217
L89.364228 62.558646
" />
<path d="M89.364228 62.558646
L89.478514 62.530074
" />
<path d="M89.478514 62.530074
L89.564228 62.530074
" />
<path d="M89.564228 62.530074
L89.678514 62.558646
" />
<path d="M89.678514 62.558646
L89.735657 62.587217
" />
<path d="M89.735657 62.587217
L89.792800 62.644360
" />
<path d="M89.792800 62.644360
L89.821371 62.730074
" />
<path d="M89.821371 62.730074
L89.821371 62.787217
" />
<path d="M89.821371 62.787217
L89.792800 62.872931
" />
<path d="M89.792800 62.872931
L89.764228 62.901503
" />
<path d="M89.764228 62.901503
L89.564228 62.901503
" />
<path d="M89.564228 62.901503
L89.564228 62.787217
" />
<path d="M89.821371 63.158646
L89.221371 63.158646
" />
<path d="M89.221371 63.158646
L89.821371 63.501503
" />
<path d="M89.821371 63.501503
L89.221371 63.501503
" />
<path d="M89.821371 63.787217
L89.221371 63.787217
" />
<path d="M89.221371 63.787217
L89.221371 63.930074
" />
<path d="M89.221371 63.930074
L89.249942 64.015788
" />
<path d="M89.249942 64.015788
L89.307085 64.072931
" />
<path d="M89.307085 64.072931
L89.364228 64.101502
" />
<path d="M89.364228 64.101502
L89.478514 64.130074
" />
<path d="M89.478514 64.130074
L89.564228 64.130074
" />
<path d="M89.564228 64.130074
L89.678514 64.101502
" />
<path d="M89.678514 64.101502
L89.735657 64.072931
" />
<path d="M89.735657 64.072931
L89.792800 64.015788
" />
<path d="M89.792800 64.015788
L89.821371 63.930074
" />
<path d="M89.821371 63.930074
L89.821371 63.787217
" />
</g><text x="84.525000" y="69.875000"
transform="scale(-1 1) translate(-169.050000 0)"
textLength="1.958571" font-size="0.800000" lengthAdjust="spacingAndGlyphs"
text-anchor="start" opacity="0">GND</text>
<g class="stroked-text"><desc>GND</desc>
<path d="M84.002068 69.224942
L84.059211 69.196371
" />
<path d="M84.059211 69.196371
L84.144925 69.196371
" />
<path d="M84.144925 69.196371
L84.230639 69.224942
" />
<path d="M84.230639 69.224942
L84.287782 69.282085
" />
<path d="M84.287782 69.282085
L84.316353 69.339228
" />
<path d="M84.316353 69.339228
L84.344925 69.453514
" />
<path d="M84.344925 69.453514
L84.344925 69.539228
" />
<path d="M84.344925 69.539228
L84.316353 69.653514
" />
<path d="M84.316353 69.653514
L84.287782 69.710657
" />
<path d="M84.287782 69.710657
L84.230639 69.767800
" />
<path d="M84.230639 69.767800
L84.144925 69.796371
" />
<path d="M84.144925 69.796371
L84.087782 69.796371
" />
<path d="M84.087782 69.796371
L84.002068 69.767800
" />
<path d="M84.002068 69.767800
L83.973496 69.739228
" />
<path d="M83.973496 69.739228
L83.973496 69.539228
" />
<path d="M83.973496 69.539228
L84.087782 69.539228
" />
<path d="M83.716353 69.796371
L83.716353 69.196371
" />
<path d="M83.716353 69.196371
L83.373496 69.796371
" />
<path d="M83.373496 69.796371
L83.373496 69.196371
" />
<path d="M83.087782 69.796371
L83.087782 69.196371
" />
<path d="M83.087782 69.196371
L82.944925 69.196371
" />
<path d="M82.944925 69.196371
L82.859211 69.224942
" />
<path d="M82.859211 69.224942
L82.802068 69.282085
" />
<path d="M82.802068 69.282085
L82.773497 69.339228
" />
<path d="M82.773497 69.339228
L82.744925 69.453514
" />
<path d="M82.744925 69.453514
L82.744925 69.539228
" />
<path d="M82.744925 69.539228
L82.773497 69.653514
" />
<path d="M82.773497 69.653514
L82.802068 69.710657
" />
<path d="M82.802068 69.710657
L82.859211 69.767800
" />
<path d="M82.859211 69.767800
L82.944925 69.796371
" />
<path d="M82.944925 69.796371
L83.087782 69.796371
" />
</g><text x="90.690000" y="67.800000"
transform="scale(-1 1) translate(-181.380000 0)"
textLength="1.015714" font-size="0.800000" lengthAdjust="spacingAndGlyphs"
text-anchor="start" opacity="0">DI</text>
<g class="stroked-text"><desc>DI</desc>
<path d="M90.481353 67.721371
L90.481353 67.121371
" />
<path d="M90.481353 67.121371
L90.338496 67.121371
" />
<path d="M90.338496 67.121371
L90.252782 67.149942
" />
<path d="M90.252782 67.149942
L90.195639 67.207085
" />
<path d="M90.195639 67.207085
L90.167068 67.264228
" />
<path d="M90.167068 67.264228
L90.138496 67.378514
" />
<path d="M90.138496 67.378514
L90.138496 67.464228
" />
<path d="M90.138496 67.464228
L90.167068 67.578514
" />
<path d="M90.167068 67.578514
L90.195639 67.635657
" />
<path d="M90.195639 67.635657
L90.252782 67.692800
" />
<path d="M90.252782 67.692800
L90.338496 67.721371
" />
<path d="M90.338496 67.721371
L90.481353 67.721371
" />
<path d="M89.881353 67.721371
L89.881353 67.121371
" />
</g><g transform="rotate(-90.000000 89.900000 55.720000)">
<text x="89.900000" y="55.720000"
transform="scale(-1 1) translate(-179.800000 0)"
textLength="1.844286" font-size="0.800000" lengthAdjust="spacingAndGlyphs"
text-anchor="start" opacity="0">VCC</text>
</g>
<g class="stroked-text"><desc>VCC</desc>
<path d="M89.221371 55.842931
L89.821371 56.042931
" />
<path d="M89.821371 56.042931
L89.221371 56.242931
" />
<path d="M89.764228 56.785789
L89.792800 56.757217
" />
<path d="M89.792800 56.757217
L89.821371 56.671503
" />
<path d="M89.821371 56.671503
L89.821371 56.614360
" />
<path d="M89.821371 56.614360
L89.792800 56.528646
" />
<path d="M89.792800 56.528646
L89.735657 56.471503
" />
<path d="M89.735657 56.471503
L89.678514 56.442932
" />
<path d="M89.678514 56.442932
L89.564228 56.414360
" />
<path d="M89.564228 56.414360
L89.478514 56.414360
" />
<path d="M89.478514 56.414360
L89.364228 56.442932
" />
<path d="M89.364228 56.442932
L89.307085 56.471503
" />
<path d="M89.307085 56.471503
L89.249942 56.528646
" />
<path d="M89.249942 56.528646
L89.221371 56.614360
" />
<path d="M89.221371 56.614360
L89.221371 56.671503
" />
<path d="M89.221371 56.671503
L89.249942 56.757217
" />
<path d="M89.249942 56.757217
L89.278514 56.785789
" />
<path d="M89.764228 57.385789
L89.792800 57.357217
" />
<path d="M89.792800 57.357217
L89.821371 57.271503
" />
<path d="M89.821371 57.271503
L89.821371 57.214360
" />
<path d="M89.821371 57.214360
L89.792800 57.128646
" />
<path d="M89.792800 57.128646
L89.735657 57.071503
" />
<path d="M89.735657 57.071503
L89.678514 57.042932
" />
<path d="M89.678514 57.042932
L89.564228 57.014360
" />
<path d="M89.564228 57.014360
L89.478514 57.014360
" />
<path d="M89.478514 57.014360
L89.364228 57.042932
" />
<path d="M89.364228 57.042932
L89.307085 57.071503
" />
<path d="M89.307085 57.071503
L89.249942 57.128646
" />
<path d="M89.249942 57.128646
L89.221371 57.214360
" />
<path d="M89.221371 57.214360
L89.221371 57.271503
" />
<path d="M89.221371 57.271503
L89.249942 57.357217
" />
<path d="M89.249942 57.357217
L89.278514 57.385789
" />
</g><text x="73.860000" y="71.480000"
transform="scale(-1 1) translate(-147.720000 0)"
textLength="4.554759" font-size="0.666666" lengthAdjust="spacingAndGlyphs"
text-anchor="middle" opacity="0">PCB: v1.0.0</text>
<g class="stroked-text"><desc>PCB: v1.0.0</desc>
<path d="M75.943331 71.413609
L75.943331 70.913609
" />
<path d="M75.943331 70.913609
L75.752855 70.913609
" />
<path d="M75.752855 70.913609
L75.705236 70.937419
" />
<path d="M75.705236 70.937419
L75.681426 70.961228
" />
<path d="M75.681426 70.961228
L75.657617 71.008847
" />
<path d="M75.657617 71.008847
L75.657617 71.080276
" />
<path d="M75.657617 71.080276
L75.681426 71.127895
" />
<path d="M75.681426 71.127895
L75.705236 71.151704
" />
<path d="M75.705236 71.151704
L75.752855 71.175514
" />
<path d="M75.752855 71.175514
L75.943331 71.175514
" />
<path d="M75.157617 71.365990
L75.181426 71.389800
" />
<path d="M75.181426 71.389800
L75.252855 71.413609
" />
<path d="M75.252855 71.413609
L75.300474 71.413609
" />
<path d="M75.300474 71.413609
L75.371902 71.389800
" />
<path d="M75.371902 71.389800
L75.419521 71.342180
" />
<path d="M75.419521 71.342180
L75.443331 71.294561
" />
<path d="M75.443331 71.294561
L75.467140 71.199323
" />
<path d="M75.467140 71.199323
L75.467140 71.127895
" />
<path d="M75.467140 71.127895
L75.443331 71.032657
" />
<path d="M75.443331 71.032657
L75.419521 70.985038
" />
<path d="M75.419521 70.985038
L75.371902 70.937419
" />
<path d="M75.371902 70.937419
L75.300474 70.913609
" />
<path d="M75.300474 70.913609
L75.252855 70.913609
" />
<path d="M75.252855 70.913609
L75.181426 70.937419
" />
<path d="M75.181426 70.937419
L75.157617 70.961228
" />
<path d="M74.776664 71.151704
L74.705236 71.175514
" />
<path d="M74.705236 71.175514
L74.681426 71.199323
" />
<path d="M74.681426 71.199323
L74.657617 71.246942
" />
<path d="M74.657617 71.246942
L74.657617 71.318371
" />
<path d="M74.657617 71.318371
L74.681426 71.365990
" />
<path d="M74.681426 71.365990
L74.705236 71.389800
" />
<path d="M74.705236 71.389800
L74.752855 71.413609
" />
<path d="M74.752855 71.413609
L74.943331 71.413609
" />
<path d="M74.943331 71.413609
L74.943331 70.913609
" />
<path d="M74.943331 70.913609
L74.776664 70.913609
" />
<path d="M74.776664 70.913609
L74.729045 70.937419
" />
<path d="M74.729045 70.937419
L74.705236 70.961228
" />
<path d="M74.705236 70.961228
L74.681426 71.008847
" />
<path d="M74.681426 71.008847
L74.681426 71.056466
" />
<path d="M74.681426 71.056466
L74.705236 71.104085
" />
<path d="M74.705236 71.104085
L74.729045 71.127895
" />
<path d="M74.729045 71.127895
L74.776664 71.151704
" />
<path d="M74.776664 71.151704
L74.943331 71.151704
" />
<path d="M74.443331 71.365990
L74.419521 71.389800
" />
<path d="M74.419521 71.389800
L74.443331 71.413609
" />
<path d="M74.443331 71.413609
L74.467140 71.389800
" />
<path d="M74.467140 71.389800
L74.443331 71.365990
" />
<path d="M74.443331 71.365990
L74.443331 71.413609
" />
<path d="M74.443331 71.104085
L74.419521 71.127895
" />
<path d="M74.419521 71.127895
L74.443331 71.151704
" />
<path d="M74.443331 71.151704
L74.467140 71.127895
" />
<path d="M74.467140 71.127895
L74.443331 71.104085
" />
<path d="M74.443331 71.104085
L74.443331 71.151704
" />
<path d="M73.871903 71.080276
L73.752855 71.413609
" />
<path d="M73.752855 71.413609
L73.633808 71.080276
" />
<path d="M73.181427 71.413609
L73.467141 71.413609
" />
<path d="M73.324284 71.413609
L73.324284 70.913609
" />
<path d="M73.324284 70.913609
L73.371903 70.985038
" />
<path d="M73.371903 70.985038
L73.419522 71.032657
" />
<path d="M73.419522 71.032657
L73.467141 71.056466
" />
<path d="M72.967142 71.365990
L72.943332 71.389800
" />
<path d="M72.943332 71.389800
L72.967142 71.413609
" />
<path d="M72.967142 71.413609
L72.990951 71.389800
" />
<path d="M72.990951 71.389800
L72.967142 71.365990
" />
<path d="M72.967142 71.365990
L72.967142 71.413609
" />
<path d="M72.633809 70.913609
L72.586190 70.913609
" />
<path d="M72.586190 70.913609
L72.538571 70.937419
" />
<path d="M72.538571 70.937419
L72.514761 70.961228
" />
<path d="M72.514761 70.961228
L72.490952 71.008847
" />
<path d="M72.490952 71.008847
L72.467142 71.104085
" />
<path d="M72.467142 71.104085
L72.467142 71.223133
" />
<path d="M72.467142 71.223133
L72.490952 71.318371
" />
<path d="M72.490952 71.318371
L72.514761 71.365990
" />
<path d="M72.514761 71.365990
L72.538571 71.389800
" />
<path d="M72.538571 71.389800
L72.586190 71.413609
" />
<path d="M72.586190 71.413609
L72.633809 71.413609
" />
<path d="M72.633809 71.413609
L72.681428 71.389800
" />
<path d="M72.681428 71.389800
L72.705237 71.365990
" />
<path d="M72.705237 71.365990
L72.729047 71.318371
" />
<path d="M72.729047 71.318371
L72.752856 71.223133
" />
<path d="M72.752856 71.223133
L72.752856 71.104085
" />
<path d="M72.752856 71.104085
L72.729047 71.008847
" />
<path d="M72.729047 71.008847
L72.705237 70.961228
" />
<path d="M72.705237 70.961228
L72.681428 70.937419
" />
<path d="M72.681428 70.937419
L72.633809 70.913609
" />
<path d="M72.252857 71.365990
L72.229047 71.389800
" />
<path d="M72.229047 71.389800
L72.252857 71.413609
" />
<path d="M72.252857 71.413609
L72.276666 71.389800
" />
<path d="M72.276666 71.389800
L72.252857 71.365990
" />
<path d="M72.252857 71.365990
L72.252857 71.413609
" />
<path d="M71.919524 70.913609
L71.871905 70.913609
" />
<path d="M71.871905 70.913609
L71.824286 70.937419
" />
<path d="M71.824286 70.937419
L71.800476 70.961228
" />
<path d="M71.800476 70.961228
L71.776667 71.008847
" />
<path d="M71.776667 71.008847
L71.752857 71.104085
" />
<path d="M71.752857 71.104085
L71.752857 71.223133
" />
<path d="M71.752857 71.223133
L71.776667 71.318371
" />
<path d="M71.776667 71.318371
L71.800476 71.365990
" />
<path d="M71.800476 71.365990
L71.824286 71.389800
" />
<path d="M71.824286 71.389800
L71.871905 71.413609
" />
<path d="M71.871905 71.413609
L71.919524 71.413609
" />
<path d="M71.919524 71.413609
L71.967143 71.389800
" />
<path d="M71.967143 71.389800
L71.990952 71.365990
" />
<path d="M71.990952 71.365990
L72.014762 71.318371
" />
<path d="M72.014762 71.318371
L72.038571 71.223133
" />
<path d="M72.038571 71.223133
L72.038571 71.104085
" />
<path d="M72.038571 71.104085
L72.014762 71.008847
" />
<path d="M72.014762 71.008847
L71.990952 70.961228
" />
<path d="M71.990952 70.961228
L71.967143 70.937419
" />
<path d="M71.967143 70.937419
L71.919524 70.913609
" />
</g><text x="84.275000" y="67.780000"
transform="scale(-1 1) translate(-168.550000 0)"
textLength="1.358571" font-size="0.800000" lengthAdjust="spacingAndGlyphs"
text-anchor="start" opacity="0">DO</text>
<g class="stroked-text"><desc>DO</desc>
<path d="M84.066353 67.701371
L84.066353 67.101371
" />
<path d="M84.066353 67.101371
L83.923496 67.101371
" />
<path d="M83.923496 67.101371
L83.837782 67.129942
" />
<path d="M83.837782 67.129942
L83.780639 67.187085
" />
<path d="M83.780639 67.187085
L83.752068 67.244228
" />
<path d="M83.752068 67.244228
L83.723496 67.358514
" />
<path d="M83.723496 67.358514
L83.723496 67.444228
" />
<path d="M83.723496 67.444228
L83.752068 67.558514
" />
<path d="M83.752068 67.558514
L83.780639 67.615657
" />
<path d="M83.780639 67.615657
L83.837782 67.672800
" />
<path d="M83.837782 67.672800
L83.923496 67.701371
" />
<path d="M83.923496 67.701371
L84.066353 67.701371
" />
<path d="M83.352068 67.101371
L83.237782 67.101371
" />
<path d="M83.237782 67.101371
L83.180639 67.129942
" />
<path d="M83.180639 67.129942
L83.123496 67.187085
" />
<path d="M83.123496 67.187085
L83.094925 67.301371
" />
<path d="M83.094925 67.301371
L83.094925 67.501371
" />
<path d="M83.094925 67.501371
L83.123496 67.615657
" />
<path d="M83.123496 67.615657
L83.180639 67.672800
" />
<path d="M83.180639 67.672800
L83.237782 67.701371
" />
<path d="M83.237782 67.701371
L83.352068 67.701371
" />
<path d="M83.352068 67.701371
L83.409211 67.672800
" />
<path d="M83.409211 67.672800
L83.466353 67.615657
" />
<path d="M83.466353 67.615657
L83.494925 67.501371
" />
<path d="M83.494925 67.501371
L83.494925 67.301371
" />
<path d="M83.494925 67.301371
L83.466353 67.187085
" />
<path d="M83.466353 67.187085
L83.409211 67.129942
" />
<path d="M83.409211 67.129942
L83.352068 67.101371
" />
</g><text x="79.960000" y="51.113000"
transform="scale(-1 1) translate(-159.920000 0)"
textLength="11.276663" font-size="0.933333" lengthAdjust="spacingAndGlyphs"
text-anchor="middle" opacity="0">Pedalboard LED Ring</text>
<g class="stroked-text"><desc>Pedalboard LED Ring</desc>
<path d="M85.376664 51.022133
L85.376664 50.322133
" />
<path d="M85.376664 50.322133
L85.109997 50.322133
" />
<path d="M85.109997 50.322133
L85.043331 50.355466
" />
<path d="M85.043331 50.355466
L85.009997 50.388800
" />
<path d="M85.009997 50.388800
L84.976664 50.455466
" />
<path d="M84.976664 50.455466
L84.976664 50.555466
" />
<path d="M84.976664 50.555466
L85.009997 50.622133
" />
<path d="M85.009997 50.622133
L85.043331 50.655466
" />
<path d="M85.043331 50.655466
L85.109997 50.688800
" />
<path d="M85.109997 50.688800
L85.376664 50.688800
" />
<path d="M84.409997 50.988800
L84.476664 51.022133
" />
<path d="M84.476664 51.022133
L84.609997 51.022133
" />
<path d="M84.609997 51.022133
L84.676664 50.988800
" />
<path d="M84.676664 50.988800
L84.709997 50.922133
" />
<path d="M84.709997 50.922133
L84.709997 50.655466
" />
<path d="M84.709997 50.655466
L84.676664 50.588800
" />
<path d="M84.676664 50.588800
L84.609997 50.555466
" />
<path d="M84.609997 50.555466
L84.476664 50.555466
" />
<path d="M84.476664 50.555466
L84.409997 50.588800
" />
<path d="M84.409997 50.588800
L84.376664 50.655466
" />
<path d="M84.376664 50.655466
L84.376664 50.722133
" />
<path d="M84.376664 50.722133
L84.709997 50.788800
" />
<path d="M83.776664 51.022133
L83.776664 50.322133
" />
<path d="M83.776664 50.988800
L83.843331 51.022133
" />
<path d="M83.843331 51.022133
L83.976664 51.022133
" />
<path d="M83.976664 51.022133
L84.043331 50.988800
" />
<path d="M84.043331 50.988800
L84.076664 50.955466
" />
<path d="M84.076664 50.955466
L84.109997 50.888800
" />
<path d="M84.109997 50.888800
L84.109997 50.688800
" />
<path d="M84.109997 50.688800
L84.076664 50.622133
" />
<path d="M84.076664 50.622133
L84.043331 50.588800
" />
<path d="M84.043331 50.588800
L83.976664 50.555466
" />
<path d="M83.976664 50.555466
L83.843331 50.555466
" />
<path d="M83.843331 50.555466
L83.776664 50.588800
" />
<path d="M83.143331 51.022133
L83.143331 50.655466
" />
<path d="M83.143331 50.655466
L83.176664 50.588800
" />
<path d="M83.176664 50.588800
L83.243331 50.555466
" />
<path d="M83.243331 50.555466
L83.376664 50.555466
" />
<path d="M83.376664 50.555466
L83.443331 50.588800
" />
<path d="M83.143331 50.988800
L83.209998 51.022133
" />
<path d="M83.209998 51.022133
L83.376664 51.022133
" />
<path d="M83.376664 51.022133
L83.443331 50.988800
" />
<path d="M83.443331 50.988800
L83.476664 50.922133
" />
<path d="M83.476664 50.922133
L83.476664 50.855466
" />
<path d="M83.476664 50.855466
L83.443331 50.788800
" />
<path d="M83.443331 50.788800
L83.376664 50.755466
" />
<path d="M83.376664 50.755466
L83.209998 50.755466
" />
<path d="M83.209998 50.755466
L83.143331 50.722133
" />
<path d="M82.709998 51.022133
L82.776665 50.988800
" />
<path d="M82.776665 50.988800
L82.809998 50.922133
" />
<path d="M82.809998 50.922133
L82.809998 50.322133
" />
<path d="M82.443331 51.022133
L82.443331 50.322133
" />
<path d="M82.443331 50.588800
L82.376664 50.555466
" />
<path d="M82.376664 50.555466
L82.243331 50.555466
" />
<path d="M82.243331 50.555466
L82.176664 50.588800
" />
<path d="M82.176664 50.588800
L82.143331 50.622133
" />
<path d="M82.143331 50.622133
L82.109998 50.688800
" />
<path d="M82.109998 50.688800
L82.109998 50.888800
" />
<path d="M82.109998 50.888800
L82.143331 50.955466
" />
<path d="M82.143331 50.955466
L82.176664 50.988800
" />
<path d="M82.176664 50.988800
L82.243331 51.022133
" />
<path d="M82.243331 51.022133
L82.376664 51.022133
" />
<path d="M82.376664 51.022133
L82.443331 50.988800
" />
<path d="M81.709998 51.022133
L81.776665 50.988800
" />
<path d="M81.776665 50.988800
L81.809998 50.955466
" />
<path d="M81.809998 50.955466
L81.843331 50.888800
" />
<path d="M81.843331 50.888800
L81.843331 50.688800
" />
<path d="M81.843331 50.688800
L81.809998 50.622133
" />
<path d="M81.809998 50.622133
L81.776665 50.588800
" />
<path d="M81.776665 50.588800
L81.709998 50.555466
" />
<path d="M81.709998 50.555466
L81.609998 50.555466
" />
<path d="M81.609998 50.555466
L81.543331 50.588800
" />
<path d="M81.543331 50.588800
L81.509998 50.622133
" />
<path d="M81.509998 50.622133
L81.476665 50.688800
" />
<path d="M81.476665 50.688800
L81.476665 50.888800
" />
<path d="M81.476665 50.888800
L81.509998 50.955466
" />
<path d="M81.509998 50.955466
L81.543331 50.988800
" />
<path d="M81.543331 50.988800
L81.609998 51.022133
" />
<path d="M81.609998 51.022133
L81.709998 51.022133
" />
<path d="M80.876665 51.022133
L80.876665 50.655466
" />
<path d="M80.876665 50.655466
L80.909998 50.588800
" />
<path d="M80.909998 50.588800
L80.976665 50.555466
" />
<path d="M80.976665 50.555466
L81.109998 50.555466
" />
<path d="M81.109998 50.555466
L81.176665 50.588800
" />
<path d="M80.876665 50.988800
L80.943332 51.022133
" />
<path d="M80.943332 51.022133
L81.109998 51.022133
" />
<path d="M81.109998 51.022133
L81.176665 50.988800
" />
<path d="M81.176665 50.988800
L81.209998 50.922133
" />
<path d="M81.209998 50.922133
L81.209998 50.855466
" />
<path d="M81.209998 50.855466
L81.176665 50.788800
" />
<path d="M81.176665 50.788800
L81.109998 50.755466
" />
<path d="M81.109998 50.755466
L80.943332 50.755466
" />
<path d="M80.943332 50.755466
L80.876665 50.722133
" />
<path d="M80.543332 51.022133
L80.543332 50.555466
" />
<path d="M80.543332 50.688800
L80.509999 50.622133
" />
<path d="M80.509999 50.622133
L80.476665 50.588800
" />
<path d="M80.476665 50.588800
L80.409999 50.555466
" />
<path d="M80.409999 50.555466
L80.343332 50.555466
" />
<path d="M79.809999 51.022133
L79.809999 50.322133
" />
<path d="M79.809999 50.988800
L79.876666 51.022133
" />
<path d="M79.876666 51.022133
L80.009999 51.022133
" />
<path d="M80.009999 51.022133
L80.076666 50.988800
" />
<path d="M80.076666 50.988800
L80.109999 50.955466
" />
<path d="M80.109999 50.955466
L80.143332 50.888800
" />
<path d="M80.143332 50.888800
L80.143332 50.688800
" />
<path d="M80.143332 50.688800
L80.109999 50.622133
" />
<path d="M80.109999 50.622133
L80.076666 50.588800
" />
<path d="M80.076666 50.588800
L80.009999 50.555466
" />
<path d="M80.009999 50.555466
L79.876666 50.555466
" />
<path d="M79.876666 50.555466
L79.809999 50.588800
" />
<path d="M78.610000 51.022133
L78.943333 51.022133
" />
<path d="M78.943333 51.022133
L78.943333 50.322133
" />
<path d="M78.376666 50.655466
L78.143333 50.655466
" />
<path d="M78.043333 51.022133
L78.376666 51.022133
" />
<path d="M78.376666 51.022133
L78.376666 50.322133
" />
<path d="M78.376666 50.322133
L78.043333 50.322133
" />
<path d="M77.743333 51.022133
L77.743333 50.322133
" />
<path d="M77.743333 50.322133
L77.576666 50.322133
" />
<path d="M77.576666 50.322133
L77.476666 50.355466
" />
<path d="M77.476666 50.355466
L77.410000 50.422133
" />
<path d="M77.410000 50.422133
L77.376666 50.488800
" />
<path d="M77.376666 50.488800
L77.343333 50.622133
" />
<path d="M77.343333 50.622133
L77.343333 50.722133
" />
<path d="M77.343333 50.722133
L77.376666 50.855466
" />
<path d="M77.376666 50.855466
L77.410000 50.922133
" />
<path d="M77.410000 50.922133
L77.476666 50.988800
" />
<path d="M77.476666 50.988800
L77.576666 51.022133
" />
<path d="M77.576666 51.022133
L77.743333 51.022133
" />
<path d="M76.110000 51.022133
L76.343333 50.688800
" />
<path d="M76.510000 51.022133
L76.510000 50.322133
" />
<path d="M76.510000 50.322133
L76.243333 50.322133
" />
<path d="M76.243333 50.322133
L76.176667 50.355466
" />
<path d="M76.176667 50.355466
L76.143333 50.388800
" />
<path d="M76.143333 50.388800
L76.110000 50.455466
" />
<path d="M76.110000 50.455466
L76.110000 50.555466
" />
<path d="M76.110000 50.555466
L76.143333 50.622133
" />
<path d="M76.143333 50.622133
L76.176667 50.655466
" />
<path d="M76.176667 50.655466
L76.243333 50.688800
" />
<path d="M76.243333 50.688800
L76.510000 50.688800
" />
<path d="M75.810000 51.022133
L75.810000 50.555466
" />
<path d="M75.810000 50.322133
L75.843333 50.355466
" />
<path d="M75.843333 50.355466
L75.810000 50.388800
" />
<path d="M75.810000 50.388800
L75.776667 50.355466
" />
<path d="M75.776667 50.355466
L75.810000 50.322133
" />
<path d="M75.810000 50.322133
L75.810000 50.388800
" />
<path d="M75.476667 50.555466
L75.476667 51.022133
" />
<path d="M75.476667 50.622133
L75.443334 50.588800
" />
<path d="M75.443334 50.588800
L75.376667 50.555466
" />
<path d="M75.376667 50.555466
L75.276667 50.555466
" />
<path d="M75.276667 50.555466
L75.210000 50.588800
" />
<path d="M75.210000 50.588800
L75.176667 50.655466
" />
<path d="M75.176667 50.655466
L75.176667 51.022133
" />
<path d="M74.543334 50.555466
L74.543334 51.122133
" />
<path d="M74.543334 51.122133
L74.576667 51.188800
" />
<path d="M74.576667 51.188800
L74.610001 51.222133
" />
<path d="M74.610001 51.222133
L74.676667 51.255466
" />
<path d="M74.676667 51.255466
L74.776667 51.255466
" />
<path d="M74.776667 51.255466
L74.843334 51.222133
" />
<path d="M74.543334 50.988800
L74.610001 51.022133
" />
<path d="M74.610001 51.022133
L74.743334 51.022133
" />
<path d="M74.743334 51.022133
L74.810001 50.988800
" />
<path d="M74.810001 50.988800
L74.843334 50.955466
" />
<path d="M74.843334 50.955466
L74.876667 50.888800
" />
<path d="M74.876667 50.888800
L74.876667 50.688800
" />
<path d="M74.876667 50.688800
L74.843334 50.622133
" />
<path d="M74.843334 50.622133
L74.810001 50.588800
" />
<path d="M74.810001 50.588800
L74.743334 50.555466
" />
<path d="M74.743334 50.555466
L74.610001 50.555466
" />
<path d="M74.610001 50.555466
L74.543334 50.588800
" />
</g><text x="79.960000" y="52.240000"
transform="scale(-1 1) translate(-159.920000 0)"
textLength="16.876660" font-size="0.933333" lengthAdjust="spacingAndGlyphs"
text-anchor="middle" opacity="0">https://github.com/pedalboard</text>
<g class="stroked-text"><desc>https://github.com/pedalboard</desc>
<path d="M88.176663 52.149133
L88.176663 51.449133
" />
<path d="M87.876663 52.149133
L87.876663 51.782466
" />
<path d="M87.876663 51.782466
L87.909996 51.715800
" />
<path d="M87.909996 51.715800
L87.976663 51.682466
" />
<path d="M87.976663 51.682466
L88.076663 51.682466
" />
<path d="M88.076663 51.682466
L88.143330 51.715800
" />
<path d="M88.143330 51.715800
L88.176663 51.749133
" />
<path d="M87.643330 51.682466
L87.376663 51.682466
" />
<path d="M87.543330 51.449133
L87.543330 52.049133
" />
<path d="M87.543330 52.049133
L87.509997 52.115800
" />
<path d="M87.509997 52.115800
L87.443330 52.149133
" />
<path d="M87.443330 52.149133
L87.376663 52.149133
" />
<path d="M87.243330 51.682466
L86.976663 51.682466
" />
<path d="M87.143330 51.449133
L87.143330 52.049133
" />
<path d="M87.143330 52.049133
L87.109997 52.115800
" />
<path d="M87.109997 52.115800
L87.043330 52.149133
" />
<path d="M87.043330 52.149133
L86.976663 52.149133
" />
<path d="M86.743330 51.682466
L86.743330 52.382466
" />
<path d="M86.743330 51.715800
L86.676663 51.682466
" />
<path d="M86.676663 51.682466
L86.543330 51.682466
" />
<path d="M86.543330 51.682466
L86.476663 51.715800
" />
<path d="M86.476663 51.715800
L86.443330 51.749133
" />
<path d="M86.443330 51.749133
L86.409997 51.815800
" />
<path d="M86.409997 51.815800
L86.409997 52.015800
" />
<path d="M86.409997 52.015800
L86.443330 52.082466
" />
<path d="M86.443330 52.082466
L86.476663 52.115800
" />
<path d="M86.476663 52.115800
L86.543330 52.149133
" />
<path d="M86.543330 52.149133
L86.676663 52.149133
" />
<path d="M86.676663 52.149133
L86.743330 52.115800
" />
<path d="M86.143330 52.115800
L86.076664 52.149133
" />
<path d="M86.076664 52.149133
L85.943330 52.149133
" />
<path d="M85.943330 52.149133
L85.876664 52.115800
" />
<path d="M85.876664 52.115800
L85.843330 52.049133
" />
<path d="M85.843330 52.049133
L85.843330 52.015800
" />
<path d="M85.843330 52.015800
L85.876664 51.949133
" />
<path d="M85.876664 51.949133
L85.943330 51.915800
" />
<path d="M85.943330 51.915800
L86.043330 51.915800
" />
<path d="M86.043330 51.915800
L86.109997 51.882466
" />
<path d="M86.109997 51.882466
L86.143330 51.815800
" />
<path d="M86.143330 51.815800
L86.143330 51.782466
" />
<path d="M86.143330 51.782466
L86.109997 51.715800
" />
<path d="M86.109997 51.715800
L86.043330 51.682466
" />
<path d="M86.043330 51.682466
L85.943330 51.682466
" />
<path d="M85.943330 51.682466
L85.876664 51.715800
" />
<path d="M85.543330 52.082466
L85.509997 52.115800
" />
<path d="M85.509997 52.115800
L85.543330 52.149133
" />
<path d="M85.543330 52.149133
L85.576663 52.115800
" />
<path d="M85.576663 52.115800
L85.543330 52.082466
" />
<path d="M85.543330 52.082466
L85.543330 52.149133
" />
<path d="M85.543330 51.715800
L85.509997 51.749133
" />
<path d="M85.509997 51.749133
L85.543330 51.782466
" />
<path d="M85.543330 51.782466
L85.576663 51.749133
" />
<path d="M85.576663 51.749133
L85.543330 51.715800
" />
<path d="M85.543330 51.715800
L85.543330 51.782466
" />
<path d="M84.709997 51.415800
L85.309997 52.315800
" />
<path d="M83.976664 51.415800
L84.576664 52.315800
" />
<path d="M83.443331 51.682466
L83.443331 52.249133
" />
<path d="M83.443331 52.249133
L83.476664 52.315800
" />
<path d="M83.476664 52.315800
L83.509998 52.349133
" />
<path d="M83.509998 52.349133
L83.576664 52.382466
" />
<path d="M83.576664 52.382466
L83.676664 52.382466
" />
<path d="M83.676664 52.382466
L83.743331 52.349133
" />
<path d="M83.443331 52.115800
L83.509998 52.149133
" />
<path d="M83.509998 52.149133
L83.643331 52.149133
" />
<path d="M83.643331 52.149133
L83.709998 52.115800
" />
<path d="M83.709998 52.115800
L83.743331 52.082466
" />
<path d="M83.743331 52.082466
L83.776664 52.015800
" />
<path d="M83.776664 52.015800
L83.776664 51.815800
" />
<path d="M83.776664 51.815800
L83.743331 51.749133
" />
<path d="M83.743331 51.749133
L83.709998 51.715800
" />
<path d="M83.709998 51.715800
L83.643331 51.682466
" />
<path d="M83.643331 51.682466
L83.509998 51.682466
" />
<path d="M83.509998 51.682466
L83.443331 51.715800
" />
<path d="M83.109998 52.149133
L83.109998 51.682466
" />
<path d="M83.109998 51.449133
L83.143331 51.482466
" />
<path d="M83.143331 51.482466
L83.109998 51.515800
" />
<path d="M83.109998 51.515800
L83.076665 51.482466
" />
<path d="M83.076665 51.482466
L83.109998 51.449133
" />
<path d="M83.109998 51.449133
L83.109998 51.515800
" />
<path d="M82.876665 51.682466
L82.609998 51.682466
" />
<path d="M82.776665 51.449133
L82.776665 52.049133
" />
<path d="M82.776665 52.049133
L82.743332 52.115800
" />
<path d="M82.743332 52.115800
L82.676665 52.149133
" />
<path d="M82.676665 52.149133
L82.609998 52.149133
" />
<path d="M82.376665 52.149133
L82.376665 51.449133
" />
<path d="M82.076665 52.149133
L82.076665 51.782466
" />
<path d="M82.076665 51.782466
L82.109998 51.715800
" />
<path d="M82.109998 51.715800
L82.176665 51.682466
" />
<path d="M82.176665 51.682466
L82.276665 51.682466
" />
<path d="M82.276665 51.682466
L82.343332 51.715800
" />
<path d="M82.343332 51.715800
L82.376665 51.749133
" />
<path d="M81.443332 51.682466
L81.443332 52.149133
" />
<path d="M81.743332 51.682466
L81.743332 52.049133
" />
<path d="M81.743332 52.049133
L81.709999 52.115800
" />
<path d="M81.709999 52.115800
L81.643332 52.149133
" />
<path d="M81.643332 52.149133
L81.543332 52.149133
" />
<path d="M81.543332 52.149133
L81.476665 52.115800
" />
<path d="M81.476665 52.115800
L81.443332 52.082466
" />
<path d="M81.109999 52.149133
L81.109999 51.449133
" />
<path d="M81.109999 51.715800
L81.043332 51.682466
" />
<path d="M81.043332 51.682466
L80.909999 51.682466
" />
<path d="M80.909999 51.682466
L80.843332 51.715800
" />
<path d="M80.843332 51.715800
L80.809999 51.749133
" />
<path d="M80.809999 51.749133
L80.776666 51.815800
" />
<path d="M80.776666 51.815800
L80.776666 52.015800
" />
<path d="M80.776666 52.015800
L80.809999 52.082466
" />
<path d="M80.809999 52.082466
L80.843332 52.115800
" />
<path d="M80.843332 52.115800
L80.909999 52.149133
" />
<path d="M80.909999 52.149133
L81.043332 52.149133
" />
<path d="M81.043332 52.149133
L81.109999 52.115800
" />
<path d="M80.476666 52.082466
L80.443333 52.115800
" />
<path d="M80.443333 52.115800
L80.476666 52.149133
" />
<path d="M80.476666 52.149133
L80.509999 52.115800
" />
<path d="M80.509999 52.115800
L80.476666 52.082466
" />
<path d="M80.476666 52.082466
L80.476666 52.149133
" />
<path d="M79.843333 52.115800
L79.910000 52.149133
" />
<path d="M79.910000 52.149133
L80.043333 52.149133
" />
<path d="M80.043333 52.149133
L80.110000 52.115800
" />
<path d="M80.110000 52.115800
L80.143333 52.082466
" />
<path d="M80.143333 52.082466
L80.176666 52.015800
" />
<path d="M80.176666 52.015800
L80.176666 51.815800
" />
<path d="M80.176666 51.815800
L80.143333 51.749133
" />
<path d="M80.143333 51.749133
L80.110000 51.715800
" />
<path d="M80.110000 51.715800
L80.043333 51.682466
" />
<path d="M80.043333 51.682466
L79.910000 51.682466
" />
<path d="M79.910000 51.682466
L79.843333 51.715800
" />
<path d="M79.443333 52.149133
L79.510000 52.115800
" />
<path d="M79.510000 52.115800
L79.543333 52.082466
" />
<path d="M79.543333 52.082466
L79.576666 52.015800
" />
<path d="M79.576666 52.015800
L79.576666 51.815800
" />
<path d="M79.576666 51.815800
L79.543333 51.749133
" />
<path d="M79.543333 51.749133
L79.510000 51.715800
" />
<path d="M79.510000 51.715800
L79.443333 51.682466
" />
<path d="M79.443333 51.682466
L79.343333 51.682466
" />
<path d="M79.343333 51.682466
L79.276666 51.715800
" />
<path d="M79.276666 51.715800
L79.243333 51.749133
" />
<path d="M79.243333 51.749133
L79.210000 51.815800
" />
<path d="M79.210000 51.815800
L79.210000 52.015800
" />
<path d="M79.210000 52.015800
L79.243333 52.082466
" />
<path d="M79.243333 52.082466
L79.276666 52.115800
" />
<path d="M79.276666 52.115800
L79.343333 52.149133
" />
<path d="M79.343333 52.149133
L79.443333 52.149133
" />
<path d="M78.910000 52.149133
L78.910000 51.682466
" />
<path d="M78.910000 51.749133
L78.876667 51.715800
" />
<path d="M78.876667 51.715800
L78.810000 51.682466
" />
<path d="M78.810000 51.682466
L78.710000 51.682466
" />
<path d="M78.710000 51.682466
L78.643333 51.715800
" />
<path d="M78.643333 51.715800
L78.610000 51.782466
" />
<path d="M78.610000 51.782466
L78.610000 52.149133
" />
<path d="M78.610000 51.782466
L78.576667 51.715800
" />
<path d="M78.576667 51.715800
L78.510000 51.682466
" />
<path d="M78.510000 51.682466
L78.410000 51.682466
" />
<path d="M78.410000 51.682466
L78.343333 51.715800
" />
<path d="M78.343333 51.715800
L78.310000 51.782466
" />
<path d="M78.310000 51.782466
L78.310000 52.149133
" />
<path d="M77.476667 51.415800
L78.076667 52.315800
" />
<path d="M77.243334 51.682466
L77.243334 52.382466
" />
<path d="M77.243334 51.715800
L77.176667 51.682466
" />
<path d="M77.176667 51.682466
L77.043334 51.682466
" />
<path d="M77.043334 51.682466
L76.976667 51.715800
" />
<path d="M76.976667 51.715800
L76.943334 51.749133
" />
<path d="M76.943334 51.749133
L76.910001 51.815800
" />
<path d="M76.910001 51.815800
L76.910001 52.015800
" />
<path d="M76.910001 52.015800
L76.943334 52.082466
" />
<path d="M76.943334 52.082466
L76.976667 52.115800
" />
<path d="M76.976667 52.115800
L77.043334 52.149133
" />
<path d="M77.043334 52.149133
L77.176667 52.149133
" />
<path d="M77.176667 52.149133
L77.243334 52.115800
" />
<path d="M76.343334 52.115800
L76.410001 52.149133
" />
<path d="M76.410001 52.149133
L76.543334 52.149133
" />
<path d="M76.543334 52.149133
L76.610001 52.115800
" />
<path d="M76.610001 52.115800
L76.643334 52.049133
" />
<path d="M76.643334 52.049133
L76.643334 51.782466
" />
<path d="M76.643334 51.782466
L76.610001 51.715800
" />
<path d="M76.610001 51.715800
L76.543334 51.682466
" />
<path d="M76.543334 51.682466
L76.410001 51.682466
" />
<path d="M76.410001 51.682466
L76.343334 51.715800
" />
<path d="M76.343334 51.715800
L76.310001 51.782466
" />
<path d="M76.310001 51.782466
L76.310001 51.849133
" />
<path d="M76.310001 51.849133
L76.643334 51.915800
" />
<path d="M75.710001 52.149133
L75.710001 51.449133
" />
<path d="M75.710001 52.115800
L75.776668 52.149133
" />
<path d="M75.776668 52.149133
L75.910001 52.149133
" />
<path d="M75.910001 52.149133
L75.976668 52.115800
" />
<path d="M75.976668 52.115800
L76.010001 52.082466
" />
<path d="M76.010001 52.082466
L76.043334 52.015800
" />
<path d="M76.043334 52.015800
L76.043334 51.815800
" />
<path d="M76.043334 51.815800
L76.010001 51.749133
" />
<path d="M76.010001 51.749133
L75.976668 51.715800
" />
<path d="M75.976668 51.715800
L75.910001 51.682466
" />
<path d="M75.910001 51.682466
L75.776668 51.682466
" />
<path d="M75.776668 51.682466
L75.710001 51.715800
" />
<path d="M75.076668 52.149133
L75.076668 51.782466
" />
<path d="M75.076668 51.782466
L75.110001 51.715800
" />
<path d="M75.110001 51.715800
L75.176668 51.682466
" />
<path d="M75.176668 51.682466
L75.310001 51.682466
" />
<path d="M75.310001 51.682466
L75.376668 51.715800
" />
<path d="M75.076668 52.115800
L75.143335 52.149133
" />
<path d="M75.143335 52.149133
L75.310001 52.149133
" />
<path d="M75.310001 52.149133
L75.376668 52.115800
" />
<path d="M75.376668 52.115800
L75.410001 52.049133
" />
<path d="M75.410001 52.049133
L75.410001 51.982466
" />
<path d="M75.410001 51.982466
L75.376668 51.915800
" />
<path d="M75.376668 51.915800
L75.310001 51.882466
" />
<path d="M75.310001 51.882466
L75.143335 51.882466
" />
<path d="M75.143335 51.882466
L75.076668 51.849133
" />
<path d="M74.643335 52.149133
L74.710002 52.115800
" />
<path d="M74.710002 52.115800
L74.743335 52.049133
" />
<path d="M74.743335 52.049133
L74.743335 51.449133
" />
<path d="M74.376668 52.149133
L74.376668 51.449133
" />
<path d="M74.376668 51.715800
L74.310001 51.682466
" />
<path d="M74.310001 51.682466
L74.176668 51.682466
" />
<path d="M74.176668 51.682466
L74.110001 51.715800
" />
<path d="M74.110001 51.715800
L74.076668 51.749133
" />
<path d="M74.076668 51.749133
L74.043335 51.815800
" />
<path d="M74.043335 51.815800
L74.043335 52.015800
" />
<path d="M74.043335 52.015800
L74.076668 52.082466
" />
<path d="M74.076668 52.082466
L74.110001 52.115800
" />
<path d="M74.110001 52.115800
L74.176668 52.149133
" />
<path d="M74.176668 52.149133
L74.310001 52.149133
" />
<path d="M74.310001 52.149133
L74.376668 52.115800
" />
<path d="M73.643335 52.149133
L73.710002 52.115800
" />
<path d="M73.710002 52.115800
L73.743335 52.082466
" />
<path d="M73.743335 52.082466
L73.776668 52.015800
" />
<path d="M73.776668 52.015800
L73.776668 51.815800
" />
<path d="M73.776668 51.815800
L73.743335 51.749133
" />
<path d="M73.743335 51.749133
L73.710002 51.715800
" />
<path d="M73.710002 51.715800
L73.643335 51.682466
" />
<path d="M73.643335 51.682466
L73.543335 51.682466
" />
<path d="M73.543335 51.682466
L73.476668 51.715800
" />
<path d="M73.476668 51.715800
L73.443335 51.749133
" />
<path d="M73.443335 51.749133
L73.410002 51.815800
" />
<path d="M73.410002 51.815800
L73.410002 52.015800
" />
<path d="M73.410002 52.015800
L73.443335 52.082466
" />
<path d="M73.443335 52.082466
L73.476668 52.115800
" />
<path d="M73.476668 52.115800
L73.543335 52.149133
" />
<path d="M73.543335 52.149133
L73.643335 52.149133
" />
<path d="M72.810002 52.149133
L72.810002 51.782466
" />
<path d="M72.810002 51.782466
L72.843335 51.715800
" />
<path d="M72.843335 51.715800
L72.910002 51.682466
" />
<path d="M72.910002 51.682466
L73.043335 51.682466
" />
<path d="M73.043335 51.682466
L73.110002 51.715800
" />
<path d="M72.810002 52.115800
L72.876669 52.149133
" />
<path d="M72.876669 52.149133
L73.043335 52.149133
" />
<path d="M73.043335 52.149133
L73.110002 52.115800
" />
<path d="M73.110002 52.115800
L73.143335 52.049133
" />
<path d="M73.143335 52.049133
L73.143335 51.982466
" />
<path d="M73.143335 51.982466
L73.110002 51.915800
" />
<path d="M73.110002 51.915800
L73.043335 51.882466
" />
<path d="M73.043335 51.882466
L72.876669 51.882466
" />
<path d="M72.876669 51.882466
L72.810002 51.849133
" />
<path d="M72.476669 52.149133
L72.476669 51.682466
" />
<path d="M72.476669 51.815800
L72.443336 51.749133
" />
<path d="M72.443336 51.749133
L72.410002 51.715800
" />
<path d="M72.410002 51.715800
L72.343336 51.682466
" />
<path d="M72.343336 51.682466
L72.276669 51.682466
" />
<path d="M71.743336 52.149133
L71.743336 51.449133
" />
<path d="M71.743336 52.115800
L71.810003 52.149133
" />
<path d="M71.810003 52.149133
L71.943336 52.149133
" />
<path d="M71.943336 52.149133
L72.010003 52.115800
" />
<path d="M72.010003 52.115800
L72.043336 52.082466
" />
<path d="M72.043336 52.082466
L72.076669 52.015800
" />
<path d="M72.076669 52.015800
L72.076669 51.815800
" />
<path d="M72.076669 51.815800
L72.043336 51.749133
" />
<path d="M72.043336 51.749133
L72.010003 51.715800
" />
<path d="M72.010003 51.715800
L71.943336 51.682466
" />
<path d="M71.943336 51.682466
L71.810003 51.682466
" />
<path d="M71.810003 51.682466
L71.743336 51.715800
" />
</g></g>
<g style="fill:#000000; fill-opacity:0.0; 
stroke:#000000; stroke-width:0.120000; stroke-opacity:1; 
stroke-linecap:round; stroke-linejoin:round;">
<path d="M87.440000 62.060000
L87.440000 57.940000
" />
<path d="M87.740000 62.060000
L87.440000 62.060000
" />
<path d="M89.740000 62.060000
L89.260000 62.060000
" />
<path d="M91.560000 62.060000
L91.260000 62.060000
" />
<path d="M91.560000 62.060000
L91.560000 57.940000
" />
<path d="M87.740000 57.940000
L87.440000 57.940000
" />
<path d="M89.740000 57.940000
L89.260000 57.940000
" />
<path d="M91.260000 57.940000
L91.260000 55.560000
" />
<path d="M91.560000 57.940000
L91.260000 57.940000
" />
<path d="M84.940000 67.440000
L89.060000 67.440000
" />
<path d="M84.940000 67.740000
L84.940000 67.440000
" />
<path d="M84.940000 69.740000
L84.940000 69.260000
" />
<path d="M84.940000 71.560000
L84.940000 71.260000
" />
<path d="M84.940000 71.560000
L89.060000 71.560000
" />
<path d="M89.060000 67.740000
L89.060000 67.440000
" />
<path d="M89.060000 69.740000
L89.060000 69.260000
" />
<path d="M89.060000 71.260000
L91.440000 71.260000
" />
<path d="M89.060000 71.560000
L89.060000 71.260000
" />
<g >
</g>
<g >
</g>
<g >
</g>
<g >
</g>
<g >
</g>
<g >
</g>
<g >
</g>
<g >
</g>
<g >
</g>
<g >
</g>
<g >
</g>
<g >
</g>
<g >
</g>
<g >
</g>
<g >
</g>
<g >
</g>
<g >
</g>
<g >
</g>
<g >
</g>
<g >
</g>
<g >
</g>
<g >
</g>
<g >
</g>
<g >
</g>
<g >
</g>
<g >
</g>
<g >
</g>
<g >
</g>
<g >
</g>
<g >
</g>
<g >
</g>
<g >
</g>
<g >
</g>
<g >
</g>
</g> 
</svg>
