<?xml version="1.0" standalone="no"?>
 <!DOCTYPE svg PUBLIC "-//W3C//DTD SVG 1.1//EN" 
 "http://www.w3.org/Graphics/SVG/1.1/DTD/svg11.dtd"> 
<svg
  xmlns:svg="http://www.w3.org/2000/svg"
  xmlns="http://www.w3.org/2000/svg"
  xmlns:xlink="http://www.w3.org/1999/xlink"
  version="1.1"
  width="3.0100000000000002cm" height="3.0100000000000002cm" viewBox="64.95 44.95 30.1 30.1">
<title>SVG Image created as pedalboard-led-ring-B_SilkS.svg date 2023/05/31 21:03:05 </title>
  <desc>Image generated by PCBNEW </desc>
<g style="fill:#000000; fill-opacity:1.000000;stroke:#000000; stroke-opacity:1.000000;
stroke-linecap:round; stroke-linejoin:round;"
 transform="translate(0 0) scale(1 1)">
</g>
<g style="fill:#000000; fill-opacity:0.0; 
stroke:#000000; stroke-width:0.000000; stroke-opacity:1; 
stroke-linecap:round; stroke-linejoin:round;">
</g>
<g style="fill:#000000; fill-opacity:0.0; 
stroke:#000000; stroke-width:0.100000; stroke-opacity:1; 
stroke-linecap:round; stroke-linejoin:round;">
<circle cx="80.000000" cy="60.000000" r="7.050000" /> 
</g>
<g style="fill:#000000; fill-opacity:0.0; 
stroke:#000000; stroke-width:0.150000; stroke-opacity:1; 
stroke-linecap:round; stroke-linejoin:round;">
<text x="66.500000" y="47.780000"
transform="scale(-1 1) translate(-133.000000 0)"
textLength="19.651193" font-size="1.333333" lengthAdjust="spacingAndGlyphs"
text-anchor="end" opacity="0">Pedalboard neopixel Ring</text>
<g class="stroked-text"><desc>Pedalboard neopixel Ring</desc>
<path d="M85.836781 47.649819
L85.836781 46.649819
" />
<path d="M85.836781 46.649819
L85.455829 46.649819
" />
<path d="M85.455829 46.649819
L85.360591 46.697438
" />
<path d="M85.360591 46.697438
L85.312972 46.745057
" />
<path d="M85.312972 46.745057
L85.265353 46.840295
" />
<path d="M85.265353 46.840295
L85.265353 46.983152
" />
<path d="M85.265353 46.983152
L85.312972 47.078390
" />
<path d="M85.312972 47.078390
L85.360591 47.126009
" />
<path d="M85.360591 47.126009
L85.455829 47.173628
" />
<path d="M85.455829 47.173628
L85.836781 47.173628
" />
<path d="M84.455829 47.602200
L84.551067 47.649819
" />
<path d="M84.551067 47.649819
L84.741543 47.649819
" />
<path d="M84.741543 47.649819
L84.836781 47.602200
" />
<path d="M84.836781 47.602200
L84.884400 47.506961
" />
<path d="M84.884400 47.506961
L84.884400 47.126009
" />
<path d="M84.884400 47.126009
L84.836781 47.030771
" />
<path d="M84.836781 47.030771
L84.741543 46.983152
" />
<path d="M84.741543 46.983152
L84.551067 46.983152
" />
<path d="M84.551067 46.983152
L84.455829 47.030771
" />
<path d="M84.455829 47.030771
L84.408210 47.126009
" />
<path d="M84.408210 47.126009
L84.408210 47.221247
" />
<path d="M84.408210 47.221247
L84.884400 47.316485
" />
<path d="M83.551067 47.649819
L83.551067 46.649819
" />
<path d="M83.551067 47.602200
L83.646305 47.649819
" />
<path d="M83.646305 47.649819
L83.836781 47.649819
" />
<path d="M83.836781 47.649819
L83.932019 47.602200
" />
<path d="M83.932019 47.602200
L83.979638 47.554580
" />
<path d="M83.979638 47.554580
L84.027257 47.459342
" />
<path d="M84.027257 47.459342
L84.027257 47.173628
" />
<path d="M84.027257 47.173628
L83.979638 47.078390
" />
<path d="M83.979638 47.078390
L83.932019 47.030771
" />
<path d="M83.932019 47.030771
L83.836781 46.983152
" />
<path d="M83.836781 46.983152
L83.646305 46.983152
" />
<path d="M83.646305 46.983152
L83.551067 47.030771
" />
<path d="M82.646305 47.649819
L82.646305 47.126009
" />
<path d="M82.646305 47.126009
L82.693924 47.030771
" />
<path d="M82.693924 47.030771
L82.789162 46.983152
" />
<path d="M82.789162 46.983152
L82.979638 46.983152
" />
<path d="M82.979638 46.983152
L83.074876 47.030771
" />
<path d="M82.646305 47.602200
L82.741543 47.649819
" />
<path d="M82.741543 47.649819
L82.979638 47.649819
" />
<path d="M82.979638 47.649819
L83.074876 47.602200
" />
<path d="M83.074876 47.602200
L83.122495 47.506961
" />
<path d="M83.122495 47.506961
L83.122495 47.411723
" />
<path d="M83.122495 47.411723
L83.074876 47.316485
" />
<path d="M83.074876 47.316485
L82.979638 47.268866
" />
<path d="M82.979638 47.268866
L82.741543 47.268866
" />
<path d="M82.741543 47.268866
L82.646305 47.221247
" />
<path d="M82.027257 47.649819
L82.122495 47.602200
" />
<path d="M82.122495 47.602200
L82.170114 47.506961
" />
<path d="M82.170114 47.506961
L82.170114 46.649819
" />
<path d="M81.646304 47.649819
L81.646304 46.649819
" />
<path d="M81.646304 47.030771
L81.551066 46.983152
" />
<path d="M81.551066 46.983152
L81.360590 46.983152
" />
<path d="M81.360590 46.983152
L81.265352 47.030771
" />
<path d="M81.265352 47.030771
L81.217733 47.078390
" />
<path d="M81.217733 47.078390
L81.170114 47.173628
" />
<path d="M81.170114 47.173628
L81.170114 47.459342
" />
<path d="M81.170114 47.459342
L81.217733 47.554580
" />
<path d="M81.217733 47.554580
L81.265352 47.602200
" />
<path d="M81.265352 47.602200
L81.360590 47.649819
" />
<path d="M81.360590 47.649819
L81.551066 47.649819
" />
<path d="M81.551066 47.649819
L81.646304 47.602200
" />
<path d="M80.598685 47.649819
L80.693923 47.602200
" />
<path d="M80.693923 47.602200
L80.741542 47.554580
" />
<path d="M80.741542 47.554580
L80.789161 47.459342
" />
<path d="M80.789161 47.459342
L80.789161 47.173628
" />
<path d="M80.789161 47.173628
L80.741542 47.078390
" />
<path d="M80.741542 47.078390
L80.693923 47.030771
" />
<path d="M80.693923 47.030771
L80.598685 46.983152
" />
<path d="M80.598685 46.983152
L80.455828 46.983152
" />
<path d="M80.455828 46.983152
L80.360590 47.030771
" />
<path d="M80.360590 47.030771
L80.312971 47.078390
" />
<path d="M80.312971 47.078390
L80.265352 47.173628
" />
<path d="M80.265352 47.173628
L80.265352 47.459342
" />
<path d="M80.265352 47.459342
L80.312971 47.554580
" />
<path d="M80.312971 47.554580
L80.360590 47.602200
" />
<path d="M80.360590 47.602200
L80.455828 47.649819
" />
<path d="M80.455828 47.649819
L80.598685 47.649819
" />
<path d="M79.408209 47.649819
L79.408209 47.126009
" />
<path d="M79.408209 47.126009
L79.455828 47.030771
" />
<path d="M79.455828 47.030771
L79.551066 46.983152
" />
<path d="M79.551066 46.983152
L79.741542 46.983152
" />
<path d="M79.741542 46.983152
L79.836780 47.030771
" />
<path d="M79.408209 47.602200
L79.503447 47.649819
" />
<path d="M79.503447 47.649819
L79.741542 47.649819
" />
<path d="M79.741542 47.649819
L79.836780 47.602200
" />
<path d="M79.836780 47.602200
L79.884399 47.506961
" />
<path d="M79.884399 47.506961
L79.884399 47.411723
" />
<path d="M79.884399 47.411723
L79.836780 47.316485
" />
<path d="M79.836780 47.316485
L79.741542 47.268866
" />
<path d="M79.741542 47.268866
L79.503447 47.268866
" />
<path d="M79.503447 47.268866
L79.408209 47.221247
" />
<path d="M78.932018 47.649819
L78.932018 46.983152
" />
<path d="M78.932018 47.173628
L78.884399 47.078390
" />
<path d="M78.884399 47.078390
L78.836780 47.030771
" />
<path d="M78.836780 47.030771
L78.741542 46.983152
" />
<path d="M78.741542 46.983152
L78.646304 46.983152
" />
<path d="M77.884399 47.649819
L77.884399 46.649819
" />
<path d="M77.884399 47.602200
L77.979637 47.649819
" />
<path d="M77.979637 47.649819
L78.170113 47.649819
" />
<path d="M78.170113 47.649819
L78.265351 47.602200
" />
<path d="M78.265351 47.602200
L78.312970 47.554580
" />
<path d="M78.312970 47.554580
L78.360589 47.459342
" />
<path d="M78.360589 47.459342
L78.360589 47.173628
" />
<path d="M78.360589 47.173628
L78.312970 47.078390
" />
<path d="M78.312970 47.078390
L78.265351 47.030771
" />
<path d="M78.265351 47.030771
L78.170113 46.983152
" />
<path d="M78.170113 46.983152
L77.979637 46.983152
" />
<path d="M77.979637 46.983152
L77.884399 47.030771
" />
<path d="M76.646303 46.983152
L76.646303 47.649819
" />
<path d="M76.646303 47.078390
L76.598684 47.030771
" />
<path d="M76.598684 47.030771
L76.503446 46.983152
" />
<path d="M76.503446 46.983152
L76.360589 46.983152
" />
<path d="M76.360589 46.983152
L76.265351 47.030771
" />
<path d="M76.265351 47.030771
L76.217732 47.126009
" />
<path d="M76.217732 47.126009
L76.217732 47.649819
" />
<path d="M75.360589 47.602200
L75.455827 47.649819
" />
<path d="M75.455827 47.649819
L75.646303 47.649819
" />
<path d="M75.646303 47.649819
L75.741541 47.602200
" />
<path d="M75.741541 47.602200
L75.789160 47.506961
" />
<path d="M75.789160 47.506961
L75.789160 47.126009
" />
<path d="M75.789160 47.126009
L75.741541 47.030771
" />
<path d="M75.741541 47.030771
L75.646303 46.983152
" />
<path d="M75.646303 46.983152
L75.455827 46.983152
" />
<path d="M75.455827 46.983152
L75.360589 47.030771
" />
<path d="M75.360589 47.030771
L75.312970 47.126009
" />
<path d="M75.312970 47.126009
L75.312970 47.221247
" />
<path d="M75.312970 47.221247
L75.789160 47.316485
" />
<path d="M74.741541 47.649819
L74.836779 47.602200
" />
<path d="M74.836779 47.602200
L74.884398 47.554580
" />
<path d="M74.884398 47.554580
L74.932017 47.459342
" />
<path d="M74.932017 47.459342
L74.932017 47.173628
" />
<path d="M74.932017 47.173628
L74.884398 47.078390
" />
<path d="M74.884398 47.078390
L74.836779 47.030771
" />
<path d="M74.836779 47.030771
L74.741541 46.983152
" />
<path d="M74.741541 46.983152
L74.598684 46.983152
" />
<path d="M74.598684 46.983152
L74.503446 47.030771
" />
<path d="M74.503446 47.030771
L74.455827 47.078390
" />
<path d="M74.455827 47.078390
L74.408208 47.173628
" />
<path d="M74.408208 47.173628
L74.408208 47.459342
" />
<path d="M74.408208 47.459342
L74.455827 47.554580
" />
<path d="M74.455827 47.554580
L74.503446 47.602200
" />
<path d="M74.503446 47.602200
L74.598684 47.649819
" />
<path d="M74.598684 47.649819
L74.741541 47.649819
" />
<path d="M73.979636 46.983152
L73.979636 47.983152
" />
<path d="M73.979636 47.030771
L73.884398 46.983152
" />
<path d="M73.884398 46.983152
L73.693922 46.983152
" />
<path d="M73.693922 46.983152
L73.598684 47.030771
" />
<path d="M73.598684 47.030771
L73.551065 47.078390
" />
<path d="M73.551065 47.078390
L73.503446 47.173628
" />
<path d="M73.503446 47.173628
L73.503446 47.459342
" />
<path d="M73.503446 47.459342
L73.551065 47.554580
" />
<path d="M73.551065 47.554580
L73.598684 47.602200
" />
<path d="M73.598684 47.602200
L73.693922 47.649819
" />
<path d="M73.693922 47.649819
L73.884398 47.649819
" />
<path d="M73.884398 47.649819
L73.979636 47.602200
" />
<path d="M73.074874 47.649819
L73.074874 46.983152
" />
<path d="M73.074874 46.649819
L73.122493 46.697438
" />
<path d="M73.122493 46.697438
L73.074874 46.745057
" />
<path d="M73.074874 46.745057
L73.027255 46.697438
" />
<path d="M73.027255 46.697438
L73.074874 46.649819
" />
<path d="M73.074874 46.649819
L73.074874 46.745057
" />
<path d="M72.693922 47.649819
L72.170113 46.983152
" />
<path d="M72.693922 46.983152
L72.170113 47.649819
" />
<path d="M71.408208 47.602200
L71.503446 47.649819
" />
<path d="M71.503446 47.649819
L71.693922 47.649819
" />
<path d="M71.693922 47.649819
L71.789160 47.602200
" />
<path d="M71.789160 47.602200
L71.836779 47.506961
" />
<path d="M71.836779 47.506961
L71.836779 47.126009
" />
<path d="M71.836779 47.126009
L71.789160 47.030771
" />
<path d="M71.789160 47.030771
L71.693922 46.983152
" />
<path d="M71.693922 46.983152
L71.503446 46.983152
" />
<path d="M71.503446 46.983152
L71.408208 47.030771
" />
<path d="M71.408208 47.030771
L71.360589 47.126009
" />
<path d="M71.360589 47.126009
L71.360589 47.221247
" />
<path d="M71.360589 47.221247
L71.836779 47.316485
" />
<path d="M70.789160 47.649819
L70.884398 47.602200
" />
<path d="M70.884398 47.602200
L70.932017 47.506961
" />
<path d="M70.932017 47.506961
L70.932017 46.649819
" />
<path d="M69.074874 47.649819
L69.408207 47.173628
" />
<path d="M69.646302 47.649819
L69.646302 46.649819
" />
<path d="M69.646302 46.649819
L69.265350 46.649819
" />
<path d="M69.265350 46.649819
L69.170112 46.697438
" />
<path d="M69.170112 46.697438
L69.122493 46.745057
" />
<path d="M69.122493 46.745057
L69.074874 46.840295
" />
<path d="M69.074874 46.840295
L69.074874 46.983152
" />
<path d="M69.074874 46.983152
L69.122493 47.078390
" />
<path d="M69.122493 47.078390
L69.170112 47.126009
" />
<path d="M69.170112 47.126009
L69.265350 47.173628
" />
<path d="M69.265350 47.173628
L69.646302 47.173628
" />
<path d="M68.646302 47.649819
L68.646302 46.983152
" />
<path d="M68.646302 46.649819
L68.693921 46.697438
" />
<path d="M68.693921 46.697438
L68.646302 46.745057
" />
<path d="M68.646302 46.745057
L68.598683 46.697438
" />
<path d="M68.598683 46.697438
L68.646302 46.649819
" />
<path d="M68.646302 46.649819
L68.646302 46.745057
" />
<path d="M68.170112 46.983152
L68.170112 47.649819
" />
<path d="M68.170112 47.078390
L68.122493 47.030771
" />
<path d="M68.122493 47.030771
L68.027255 46.983152
" />
<path d="M68.027255 46.983152
L67.884398 46.983152
" />
<path d="M67.884398 46.983152
L67.789160 47.030771
" />
<path d="M67.789160 47.030771
L67.741541 47.126009
" />
<path d="M67.741541 47.126009
L67.741541 47.649819
" />
<path d="M66.836779 46.983152
L66.836779 47.792676
" />
<path d="M66.836779 47.792676
L66.884398 47.887914
" />
<path d="M66.884398 47.887914
L66.932017 47.935533
" />
<path d="M66.932017 47.935533
L67.027255 47.983152
" />
<path d="M67.027255 47.983152
L67.170112 47.983152
" />
<path d="M67.170112 47.983152
L67.265350 47.935533
" />
<path d="M66.836779 47.602200
L66.932017 47.649819
" />
<path d="M66.932017 47.649819
L67.122493 47.649819
" />
<path d="M67.122493 47.649819
L67.217731 47.602200
" />
<path d="M67.217731 47.602200
L67.265350 47.554580
" />
<path d="M67.265350 47.554580
L67.312969 47.459342
" />
<path d="M67.312969 47.459342
L67.312969 47.173628
" />
<path d="M67.312969 47.173628
L67.265350 47.078390
" />
<path d="M67.265350 47.078390
L67.217731 47.030771
" />
<path d="M67.217731 47.030771
L67.122493 46.983152
" />
<path d="M67.122493 46.983152
L66.932017 46.983152
" />
<path d="M66.932017 46.983152
L66.836779 47.030771
" />
</g><text x="66.500000" y="49.390000"
transform="scale(-1 1) translate(-133.000000 0)"
textLength="24.127383" font-size="1.333333" lengthAdjust="spacingAndGlyphs"
text-anchor="end" opacity="0">https://github.com/pedalboard</text>
<g class="stroked-text"><desc>https://github.com/pedalboard</desc>
<path d="M90.312971 49.259819
L90.312971 48.259819
" />
<path d="M89.884400 49.259819
L89.884400 48.736009
" />
<path d="M89.884400 48.736009
L89.932019 48.640771
" />
<path d="M89.932019 48.640771
L90.027257 48.593152
" />
<path d="M90.027257 48.593152
L90.170114 48.593152
" />
<path d="M90.170114 48.593152
L90.265352 48.640771
" />
<path d="M90.265352 48.640771
L90.312971 48.688390
" />
<path d="M89.551066 48.593152
L89.170114 48.593152
" />
<path d="M89.408209 48.259819
L89.408209 49.116961
" />
<path d="M89.408209 49.116961
L89.360590 49.212200
" />
<path d="M89.360590 49.212200
L89.265352 49.259819
" />
<path d="M89.265352 49.259819
L89.170114 49.259819
" />
<path d="M88.979637 48.593152
L88.598685 48.593152
" />
<path d="M88.836780 48.259819
L88.836780 49.116961
" />
<path d="M88.836780 49.116961
L88.789161 49.212200
" />
<path d="M88.789161 49.212200
L88.693923 49.259819
" />
<path d="M88.693923 49.259819
L88.598685 49.259819
" />
<path d="M88.265351 48.593152
L88.265351 49.593152
" />
<path d="M88.265351 48.640771
L88.170113 48.593152
" />
<path d="M88.170113 48.593152
L87.979637 48.593152
" />
<path d="M87.979637 48.593152
L87.884399 48.640771
" />
<path d="M87.884399 48.640771
L87.836780 48.688390
" />
<path d="M87.836780 48.688390
L87.789161 48.783628
" />
<path d="M87.789161 48.783628
L87.789161 49.069342
" />
<path d="M87.789161 49.069342
L87.836780 49.164580
" />
<path d="M87.836780 49.164580
L87.884399 49.212200
" />
<path d="M87.884399 49.212200
L87.979637 49.259819
" />
<path d="M87.979637 49.259819
L88.170113 49.259819
" />
<path d="M88.170113 49.259819
L88.265351 49.212200
" />
<path d="M87.408208 49.212200
L87.312970 49.259819
" />
<path d="M87.312970 49.259819
L87.122494 49.259819
" />
<path d="M87.122494 49.259819
L87.027256 49.212200
" />
<path d="M87.027256 49.212200
L86.979637 49.116961
" />
<path d="M86.979637 49.116961
L86.979637 49.069342
" />
<path d="M86.979637 49.069342
L87.027256 48.974104
" />
<path d="M87.027256 48.974104
L87.122494 48.926485
" />
<path d="M87.122494 48.926485
L87.265351 48.926485
" />
<path d="M87.265351 48.926485
L87.360589 48.878866
" />
<path d="M87.360589 48.878866
L87.408208 48.783628
" />
<path d="M87.408208 48.783628
L87.408208 48.736009
" />
<path d="M87.408208 48.736009
L87.360589 48.640771
" />
<path d="M87.360589 48.640771
L87.265351 48.593152
" />
<path d="M87.265351 48.593152
L87.122494 48.593152
" />
<path d="M87.122494 48.593152
L87.027256 48.640771
" />
<path d="M86.551065 49.164580
L86.503446 49.212200
" />
<path d="M86.503446 49.212200
L86.551065 49.259819
" />
<path d="M86.551065 49.259819
L86.598684 49.212200
" />
<path d="M86.598684 49.212200
L86.551065 49.164580
" />
<path d="M86.551065 49.164580
L86.551065 49.259819
" />
<path d="M86.551065 48.640771
L86.503446 48.688390
" />
<path d="M86.503446 48.688390
L86.551065 48.736009
" />
<path d="M86.551065 48.736009
L86.598684 48.688390
" />
<path d="M86.598684 48.688390
L86.551065 48.640771
" />
<path d="M86.551065 48.640771
L86.551065 48.736009
" />
<path d="M85.360590 48.212200
L86.217732 49.497914
" />
<path d="M84.312971 48.212200
L85.170113 49.497914
" />
<path d="M83.551066 48.593152
L83.551066 49.402676
" />
<path d="M83.551066 49.402676
L83.598685 49.497914
" />
<path d="M83.598685 49.497914
L83.646304 49.545533
" />
<path d="M83.646304 49.545533
L83.741542 49.593152
" />
<path d="M83.741542 49.593152
L83.884399 49.593152
" />
<path d="M83.884399 49.593152
L83.979637 49.545533
" />
<path d="M83.551066 49.212200
L83.646304 49.259819
" />
<path d="M83.646304 49.259819
L83.836780 49.259819
" />
<path d="M83.836780 49.259819
L83.932018 49.212200
" />
<path d="M83.932018 49.212200
L83.979637 49.164580
" />
<path d="M83.979637 49.164580
L84.027256 49.069342
" />
<path d="M84.027256 49.069342
L84.027256 48.783628
" />
<path d="M84.027256 48.783628
L83.979637 48.688390
" />
<path d="M83.979637 48.688390
L83.932018 48.640771
" />
<path d="M83.932018 48.640771
L83.836780 48.593152
" />
<path d="M83.836780 48.593152
L83.646304 48.593152
" />
<path d="M83.646304 48.593152
L83.551066 48.640771
" />
<path d="M83.074875 49.259819
L83.074875 48.593152
" />
<path d="M83.074875 48.259819
L83.122494 48.307438
" />
<path d="M83.122494 48.307438
L83.074875 48.355057
" />
<path d="M83.074875 48.355057
L83.027256 48.307438
" />
<path d="M83.027256 48.307438
L83.074875 48.259819
" />
<path d="M83.074875 48.259819
L83.074875 48.355057
" />
<path d="M82.741542 48.593152
L82.360590 48.593152
" />
<path d="M82.598685 48.259819
L82.598685 49.116961
" />
<path d="M82.598685 49.116961
L82.551066 49.212200
" />
<path d="M82.551066 49.212200
L82.455828 49.259819
" />
<path d="M82.455828 49.259819
L82.360590 49.259819
" />
<path d="M82.027256 49.259819
L82.027256 48.259819
" />
<path d="M81.598685 49.259819
L81.598685 48.736009
" />
<path d="M81.598685 48.736009
L81.646304 48.640771
" />
<path d="M81.646304 48.640771
L81.741542 48.593152
" />
<path d="M81.741542 48.593152
L81.884399 48.593152
" />
<path d="M81.884399 48.593152
L81.979637 48.640771
" />
<path d="M81.979637 48.640771
L82.027256 48.688390
" />
<path d="M80.693923 48.593152
L80.693923 49.259819
" />
<path d="M81.122494 48.593152
L81.122494 49.116961
" />
<path d="M81.122494 49.116961
L81.074875 49.212200
" />
<path d="M81.074875 49.212200
L80.979637 49.259819
" />
<path d="M80.979637 49.259819
L80.836780 49.259819
" />
<path d="M80.836780 49.259819
L80.741542 49.212200
" />
<path d="M80.741542 49.212200
L80.693923 49.164580
" />
<path d="M80.217732 49.259819
L80.217732 48.259819
" />
<path d="M80.217732 48.640771
L80.122494 48.593152
" />
<path d="M80.122494 48.593152
L79.932018 48.593152
" />
<path d="M79.932018 48.593152
L79.836780 48.640771
" />
<path d="M79.836780 48.640771
L79.789161 48.688390
" />
<path d="M79.789161 48.688390
L79.741542 48.783628
" />
<path d="M79.741542 48.783628
L79.741542 49.069342
" />
<path d="M79.741542 49.069342
L79.789161 49.164580
" />
<path d="M79.789161 49.164580
L79.836780 49.212200
" />
<path d="M79.836780 49.212200
L79.932018 49.259819
" />
<path d="M79.932018 49.259819
L80.122494 49.259819
" />
<path d="M80.122494 49.259819
L80.217732 49.212200
" />
<path d="M79.312970 49.164580
L79.265351 49.212200
" />
<path d="M79.265351 49.212200
L79.312970 49.259819
" />
<path d="M79.312970 49.259819
L79.360589 49.212200
" />
<path d="M79.360589 49.212200
L79.312970 49.164580
" />
<path d="M79.312970 49.164580
L79.312970 49.259819
" />
<path d="M78.408209 49.212200
L78.503447 49.259819
" />
<path d="M78.503447 49.259819
L78.693923 49.259819
" />
<path d="M78.693923 49.259819
L78.789161 49.212200
" />
<path d="M78.789161 49.212200
L78.836780 49.164580
" />
<path d="M78.836780 49.164580
L78.884399 49.069342
" />
<path d="M78.884399 49.069342
L78.884399 48.783628
" />
<path d="M78.884399 48.783628
L78.836780 48.688390
" />
<path d="M78.836780 48.688390
L78.789161 48.640771
" />
<path d="M78.789161 48.640771
L78.693923 48.593152
" />
<path d="M78.693923 48.593152
L78.503447 48.593152
" />
<path d="M78.503447 48.593152
L78.408209 48.640771
" />
<path d="M77.836780 49.259819
L77.932018 49.212200
" />
<path d="M77.932018 49.212200
L77.979637 49.164580
" />
<path d="M77.979637 49.164580
L78.027256 49.069342
" />
<path d="M78.027256 49.069342
L78.027256 48.783628
" />
<path d="M78.027256 48.783628
L77.979637 48.688390
" />
<path d="M77.979637 48.688390
L77.932018 48.640771
" />
<path d="M77.932018 48.640771
L77.836780 48.593152
" />
<path d="M77.836780 48.593152
L77.693923 48.593152
" />
<path d="M77.693923 48.593152
L77.598685 48.640771
" />
<path d="M77.598685 48.640771
L77.551066 48.688390
" />
<path d="M77.551066 48.688390
L77.503447 48.783628
" />
<path d="M77.503447 48.783628
L77.503447 49.069342
" />
<path d="M77.503447 49.069342
L77.551066 49.164580
" />
<path d="M77.551066 49.164580
L77.598685 49.212200
" />
<path d="M77.598685 49.212200
L77.693923 49.259819
" />
<path d="M77.693923 49.259819
L77.836780 49.259819
" />
<path d="M77.074875 49.259819
L77.074875 48.593152
" />
<path d="M77.074875 48.688390
L77.027256 48.640771
" />
<path d="M77.027256 48.640771
L76.932018 48.593152
" />
<path d="M76.932018 48.593152
L76.789161 48.593152
" />
<path d="M76.789161 48.593152
L76.693923 48.640771
" />
<path d="M76.693923 48.640771
L76.646304 48.736009
" />
<path d="M76.646304 48.736009
L76.646304 49.259819
" />
<path d="M76.646304 48.736009
L76.598685 48.640771
" />
<path d="M76.598685 48.640771
L76.503447 48.593152
" />
<path d="M76.503447 48.593152
L76.360590 48.593152
" />
<path d="M76.360590 48.593152
L76.265351 48.640771
" />
<path d="M76.265351 48.640771
L76.217732 48.736009
" />
<path d="M76.217732 48.736009
L76.217732 49.259819
" />
<path d="M75.027257 48.212200
L75.884399 49.497914
" />
<path d="M74.693923 48.593152
L74.693923 49.593152
" />
<path d="M74.693923 48.640771
L74.598685 48.593152
" />
<path d="M74.598685 48.593152
L74.408209 48.593152
" />
<path d="M74.408209 48.593152
L74.312971 48.640771
" />
<path d="M74.312971 48.640771
L74.265352 48.688390
" />
<path d="M74.265352 48.688390
L74.217733 48.783628
" />
<path d="M74.217733 48.783628
L74.217733 49.069342
" />
<path d="M74.217733 49.069342
L74.265352 49.164580
" />
<path d="M74.265352 49.164580
L74.312971 49.212200
" />
<path d="M74.312971 49.212200
L74.408209 49.259819
" />
<path d="M74.408209 49.259819
L74.598685 49.259819
" />
<path d="M74.598685 49.259819
L74.693923 49.212200
" />
<path d="M73.408209 49.212200
L73.503447 49.259819
" />
<path d="M73.503447 49.259819
L73.693923 49.259819
" />
<path d="M73.693923 49.259819
L73.789161 49.212200
" />
<path d="M73.789161 49.212200
L73.836780 49.116961
" />
<path d="M73.836780 49.116961
L73.836780 48.736009
" />
<path d="M73.836780 48.736009
L73.789161 48.640771
" />
<path d="M73.789161 48.640771
L73.693923 48.593152
" />
<path d="M73.693923 48.593152
L73.503447 48.593152
" />
<path d="M73.503447 48.593152
L73.408209 48.640771
" />
<path d="M73.408209 48.640771
L73.360590 48.736009
" />
<path d="M73.360590 48.736009
L73.360590 48.831247
" />
<path d="M73.360590 48.831247
L73.836780 48.926485
" />
<path d="M72.503447 49.259819
L72.503447 48.259819
" />
<path d="M72.503447 49.212200
L72.598685 49.259819
" />
<path d="M72.598685 49.259819
L72.789161 49.259819
" />
<path d="M72.789161 49.259819
L72.884399 49.212200
" />
<path d="M72.884399 49.212200
L72.932018 49.164580
" />
<path d="M72.932018 49.164580
L72.979637 49.069342
" />
<path d="M72.979637 49.069342
L72.979637 48.783628
" />
<path d="M72.979637 48.783628
L72.932018 48.688390
" />
<path d="M72.932018 48.688390
L72.884399 48.640771
" />
<path d="M72.884399 48.640771
L72.789161 48.593152
" />
<path d="M72.789161 48.593152
L72.598685 48.593152
" />
<path d="M72.598685 48.593152
L72.503447 48.640771
" />
<path d="M71.598685 49.259819
L71.598685 48.736009
" />
<path d="M71.598685 48.736009
L71.646304 48.640771
" />
<path d="M71.646304 48.640771
L71.741542 48.593152
" />
<path d="M71.741542 48.593152
L71.932018 48.593152
" />
<path d="M71.932018 48.593152
L72.027256 48.640771
" />
<path d="M71.598685 49.212200
L71.693923 49.259819
" />
<path d="M71.693923 49.259819
L71.932018 49.259819
" />
<path d="M71.932018 49.259819
L72.027256 49.212200
" />
<path d="M72.027256 49.212200
L72.074875 49.116961
" />
<path d="M72.074875 49.116961
L72.074875 49.021723
" />
<path d="M72.074875 49.021723
L72.027256 48.926485
" />
<path d="M72.027256 48.926485
L71.932018 48.878866
" />
<path d="M71.932018 48.878866
L71.693923 48.878866
" />
<path d="M71.693923 48.878866
L71.598685 48.831247
" />
<path d="M70.979637 49.259819
L71.074875 49.212200
" />
<path d="M71.074875 49.212200
L71.122494 49.116961
" />
<path d="M71.122494 49.116961
L71.122494 48.259819
" />
<path d="M70.598684 49.259819
L70.598684 48.259819
" />
<path d="M70.598684 48.640771
L70.503446 48.593152
" />
<path d="M70.503446 48.593152
L70.312970 48.593152
" />
<path d="M70.312970 48.593152
L70.217732 48.640771
" />
<path d="M70.217732 48.640771
L70.170113 48.688390
" />
<path d="M70.170113 48.688390
L70.122494 48.783628
" />
<path d="M70.122494 48.783628
L70.122494 49.069342
" />
<path d="M70.122494 49.069342
L70.170113 49.164580
" />
<path d="M70.170113 49.164580
L70.217732 49.212200
" />
<path d="M70.217732 49.212200
L70.312970 49.259819
" />
<path d="M70.312970 49.259819
L70.503446 49.259819
" />
<path d="M70.503446 49.259819
L70.598684 49.212200
" />
<path d="M69.551065 49.259819
L69.646303 49.212200
" />
<path d="M69.646303 49.212200
L69.693922 49.164580
" />
<path d="M69.693922 49.164580
L69.741541 49.069342
" />
<path d="M69.741541 49.069342
L69.741541 48.783628
" />
<path d="M69.741541 48.783628
L69.693922 48.688390
" />
<path d="M69.693922 48.688390
L69.646303 48.640771
" />
<path d="M69.646303 48.640771
L69.551065 48.593152
" />
<path d="M69.551065 48.593152
L69.408208 48.593152
" />
<path d="M69.408208 48.593152
L69.312970 48.640771
" />
<path d="M69.312970 48.640771
L69.265351 48.688390
" />
<path d="M69.265351 48.688390
L69.217732 48.783628
" />
<path d="M69.217732 48.783628
L69.217732 49.069342
" />
<path d="M69.217732 49.069342
L69.265351 49.164580
" />
<path d="M69.265351 49.164580
L69.312970 49.212200
" />
<path d="M69.312970 49.212200
L69.408208 49.259819
" />
<path d="M69.408208 49.259819
L69.551065 49.259819
" />
<path d="M68.360589 49.259819
L68.360589 48.736009
" />
<path d="M68.360589 48.736009
L68.408208 48.640771
" />
<path d="M68.408208 48.640771
L68.503446 48.593152
" />
<path d="M68.503446 48.593152
L68.693922 48.593152
" />
<path d="M68.693922 48.593152
L68.789160 48.640771
" />
<path d="M68.360589 49.212200
L68.455827 49.259819
" />
<path d="M68.455827 49.259819
L68.693922 49.259819
" />
<path d="M68.693922 49.259819
L68.789160 49.212200
" />
<path d="M68.789160 49.212200
L68.836779 49.116961
" />
<path d="M68.836779 49.116961
L68.836779 49.021723
" />
<path d="M68.836779 49.021723
L68.789160 48.926485
" />
<path d="M68.789160 48.926485
L68.693922 48.878866
" />
<path d="M68.693922 48.878866
L68.455827 48.878866
" />
<path d="M68.455827 48.878866
L68.360589 48.831247
" />
<path d="M67.884398 49.259819
L67.884398 48.593152
" />
<path d="M67.884398 48.783628
L67.836779 48.688390
" />
<path d="M67.836779 48.688390
L67.789160 48.640771
" />
<path d="M67.789160 48.640771
L67.693922 48.593152
" />
<path d="M67.693922 48.593152
L67.598684 48.593152
" />
<path d="M66.836779 49.259819
L66.836779 48.259819
" />
<path d="M66.836779 49.212200
L66.932017 49.259819
" />
<path d="M66.932017 49.259819
L67.122493 49.259819
" />
<path d="M67.122493 49.259819
L67.217731 49.212200
" />
<path d="M67.217731 49.212200
L67.265350 49.164580
" />
<path d="M67.265350 49.164580
L67.312969 49.069342
" />
<path d="M67.312969 49.069342
L67.312969 48.783628
" />
<path d="M67.312969 48.783628
L67.265350 48.688390
" />
<path d="M67.265350 48.688390
L67.217731 48.640771
" />
<path d="M67.217731 48.640771
L67.122493 48.593152
" />
<path d="M67.122493 48.593152
L66.932017 48.593152
" />
<path d="M66.932017 48.593152
L66.836779 48.640771
" />
</g><text x="66.500000" y="51.000000"
transform="scale(-1 1) translate(-133.000000 0)"
textLength="8.222618" font-size="1.333333" lengthAdjust="spacingAndGlyphs"
text-anchor="end" opacity="0">BCB: 1.0.0</text>
<g class="stroked-text"><desc>BCB: 1.0.0</desc>
<path d="M74.074873 50.346009
L73.932016 50.393628
" />
<path d="M73.932016 50.393628
L73.884397 50.441247
" />
<path d="M73.884397 50.441247
L73.836778 50.536485
" />
<path d="M73.836778 50.536485
L73.836778 50.679342
" />
<path d="M73.836778 50.679342
L73.884397 50.774580
" />
<path d="M73.884397 50.774580
L73.932016 50.822200
" />
<path d="M73.932016 50.822200
L74.027254 50.869819
" />
<path d="M74.027254 50.869819
L74.408206 50.869819
" />
<path d="M74.408206 50.869819
L74.408206 49.869819
" />
<path d="M74.408206 49.869819
L74.074873 49.869819
" />
<path d="M74.074873 49.869819
L73.979635 49.917438
" />
<path d="M73.979635 49.917438
L73.932016 49.965057
" />
<path d="M73.932016 49.965057
L73.884397 50.060295
" />
<path d="M73.884397 50.060295
L73.884397 50.155533
" />
<path d="M73.884397 50.155533
L73.932016 50.250771
" />
<path d="M73.932016 50.250771
L73.979635 50.298390
" />
<path d="M73.979635 50.298390
L74.074873 50.346009
" />
<path d="M74.074873 50.346009
L74.408206 50.346009
" />
<path d="M72.836778 50.774580
L72.884397 50.822200
" />
<path d="M72.884397 50.822200
L73.027254 50.869819
" />
<path d="M73.027254 50.869819
L73.122492 50.869819
" />
<path d="M73.122492 50.869819
L73.265349 50.822200
" />
<path d="M73.265349 50.822200
L73.360587 50.726961
" />
<path d="M73.360587 50.726961
L73.408206 50.631723
" />
<path d="M73.408206 50.631723
L73.455825 50.441247
" />
<path d="M73.455825 50.441247
L73.455825 50.298390
" />
<path d="M73.455825 50.298390
L73.408206 50.107914
" />
<path d="M73.408206 50.107914
L73.360587 50.012676
" />
<path d="M73.360587 50.012676
L73.265349 49.917438
" />
<path d="M73.265349 49.917438
L73.122492 49.869819
" />
<path d="M73.122492 49.869819
L73.027254 49.869819
" />
<path d="M73.027254 49.869819
L72.884397 49.917438
" />
<path d="M72.884397 49.917438
L72.836778 49.965057
" />
<path d="M72.074873 50.346009
L71.932016 50.393628
" />
<path d="M71.932016 50.393628
L71.884397 50.441247
" />
<path d="M71.884397 50.441247
L71.836778 50.536485
" />
<path d="M71.836778 50.536485
L71.836778 50.679342
" />
<path d="M71.836778 50.679342
L71.884397 50.774580
" />
<path d="M71.884397 50.774580
L71.932016 50.822200
" />
<path d="M71.932016 50.822200
L72.027254 50.869819
" />
<path d="M72.027254 50.869819
L72.408206 50.869819
" />
<path d="M72.408206 50.869819
L72.408206 49.869819
" />
<path d="M72.408206 49.869819
L72.074873 49.869819
" />
<path d="M72.074873 49.869819
L71.979635 49.917438
" />
<path d="M71.979635 49.917438
L71.932016 49.965057
" />
<path d="M71.932016 49.965057
L71.884397 50.060295
" />
<path d="M71.884397 50.060295
L71.884397 50.155533
" />
<path d="M71.884397 50.155533
L71.932016 50.250771
" />
<path d="M71.932016 50.250771
L71.979635 50.298390
" />
<path d="M71.979635 50.298390
L72.074873 50.346009
" />
<path d="M72.074873 50.346009
L72.408206 50.346009
" />
<path d="M71.408206 50.774580
L71.360587 50.822200
" />
<path d="M71.360587 50.822200
L71.408206 50.869819
" />
<path d="M71.408206 50.869819
L71.455825 50.822200
" />
<path d="M71.455825 50.822200
L71.408206 50.774580
" />
<path d="M71.408206 50.774580
L71.408206 50.869819
" />
<path d="M71.408206 50.250771
L71.360587 50.298390
" />
<path d="M71.360587 50.298390
L71.408206 50.346009
" />
<path d="M71.408206 50.346009
L71.455825 50.298390
" />
<path d="M71.455825 50.298390
L71.408206 50.250771
" />
<path d="M71.408206 50.250771
L71.408206 50.346009
" />
<path d="M69.646302 50.869819
L70.217730 50.869819
" />
<path d="M69.932016 50.869819
L69.932016 49.869819
" />
<path d="M69.932016 49.869819
L70.027254 50.012676
" />
<path d="M70.027254 50.012676
L70.122492 50.107914
" />
<path d="M70.122492 50.107914
L70.217730 50.155533
" />
<path d="M69.217730 50.774580
L69.170111 50.822200
" />
<path d="M69.170111 50.822200
L69.217730 50.869819
" />
<path d="M69.217730 50.869819
L69.265349 50.822200
" />
<path d="M69.265349 50.822200
L69.217730 50.774580
" />
<path d="M69.217730 50.774580
L69.217730 50.869819
" />
<path d="M68.551064 49.869819
L68.455826 49.869819
" />
<path d="M68.455826 49.869819
L68.360588 49.917438
" />
<path d="M68.360588 49.917438
L68.312969 49.965057
" />
<path d="M68.312969 49.965057
L68.265350 50.060295
" />
<path d="M68.265350 50.060295
L68.217731 50.250771
" />
<path d="M68.217731 50.250771
L68.217731 50.488866
" />
<path d="M68.217731 50.488866
L68.265350 50.679342
" />
<path d="M68.265350 50.679342
L68.312969 50.774580
" />
<path d="M68.312969 50.774580
L68.360588 50.822200
" />
<path d="M68.360588 50.822200
L68.455826 50.869819
" />
<path d="M68.455826 50.869819
L68.551064 50.869819
" />
<path d="M68.551064 50.869819
L68.646302 50.822200
" />
<path d="M68.646302 50.822200
L68.693921 50.774580
" />
<path d="M68.693921 50.774580
L68.741540 50.679342
" />
<path d="M68.741540 50.679342
L68.789159 50.488866
" />
<path d="M68.789159 50.488866
L68.789159 50.250771
" />
<path d="M68.789159 50.250771
L68.741540 50.060295
" />
<path d="M68.741540 50.060295
L68.693921 49.965057
" />
<path d="M68.693921 49.965057
L68.646302 49.917438
" />
<path d="M68.646302 49.917438
L68.551064 49.869819
" />
<path d="M67.789159 50.774580
L67.741540 50.822200
" />
<path d="M67.741540 50.822200
L67.789159 50.869819
" />
<path d="M67.789159 50.869819
L67.836778 50.822200
" />
<path d="M67.836778 50.822200
L67.789159 50.774580
" />
<path d="M67.789159 50.774580
L67.789159 50.869819
" />
<path d="M67.122493 49.869819
L67.027255 49.869819
" />
<path d="M67.027255 49.869819
L66.932017 49.917438
" />
<path d="M66.932017 49.917438
L66.884398 49.965057
" />
<path d="M66.884398 49.965057
L66.836779 50.060295
" />
<path d="M66.836779 50.060295
L66.789160 50.250771
" />
<path d="M66.789160 50.250771
L66.789160 50.488866
" />
<path d="M66.789160 50.488866
L66.836779 50.679342
" />
<path d="M66.836779 50.679342
L66.884398 50.774580
" />
<path d="M66.884398 50.774580
L66.932017 50.822200
" />
<path d="M66.932017 50.822200
L67.027255 50.869819
" />
<path d="M67.027255 50.869819
L67.122493 50.869819
" />
<path d="M67.122493 50.869819
L67.217731 50.822200
" />
<path d="M67.217731 50.822200
L67.265350 50.774580
" />
<path d="M67.265350 50.774580
L67.312969 50.679342
" />
<path d="M67.312969 50.679342
L67.360588 50.488866
" />
<path d="M67.360588 50.488866
L67.360588 50.250771
" />
<path d="M67.360588 50.250771
L67.312969 50.060295
" />
<path d="M67.312969 50.060295
L67.265350 49.965057
" />
<path d="M67.265350 49.965057
L67.217731 49.917438
" />
<path d="M67.217731 49.917438
L67.122493 49.869819
" />
</g><g transform="rotate(-90.000000 92.800000 54.000000)">
<text x="92.800000" y="54.500000"
transform="scale(-1 1) translate(-185.600000 0)"
textLength="1.889286" font-size="1.333333" lengthAdjust="spacingAndGlyphs"
text-anchor="middle" opacity="0">J1</text>
</g>
<g class="stroked-text"><desc>J1</desc>
<path d="M92.254819 53.666666
L92.969104 53.666666
" />
<path d="M92.969104 53.666666
L93.111961 53.619047
" />
<path d="M93.111961 53.619047
L93.207200 53.523809
" />
<path d="M93.207200 53.523809
L93.254819 53.380952
" />
<path d="M93.254819 53.380952
L93.254819 53.285714
" />
<path d="M93.254819 54.666666
L93.254819 54.095238
" />
<path d="M93.254819 54.380952
L92.254819 54.380952
" />
<path d="M92.254819 54.380952
L92.397676 54.285714
" />
<path d="M92.397676 54.285714
L92.492914 54.190476
" />
<path d="M92.492914 54.190476
L92.540533 54.095238
" />
</g></g>
<g style="fill:#000000; fill-opacity:0.0; 
stroke:#000000; stroke-width:0.120000; stroke-opacity:1; 
stroke-linecap:round; stroke-linejoin:round;">
<path d="M88.940000 62.060000
L88.940000 57.940000
" />
<path d="M89.240000 62.060000
L88.940000 62.060000
" />
<path d="M91.240000 62.060000
L90.760000 62.060000
" />
<path d="M93.060000 62.060000
L92.760000 62.060000
" />
<path d="M93.060000 62.060000
L93.060000 57.940000
" />
<path d="M89.240000 57.940000
L88.940000 57.940000
" />
<path d="M91.240000 57.940000
L90.760000 57.940000
" />
<path d="M92.760000 57.940000
L92.760000 55.560000
" />
<path d="M93.060000 57.940000
L92.760000 57.940000
" />
<g >
</g>
<g >
</g>
<g >
</g>
<g >
</g>
<g >
</g>
<g >
</g>
<g >
</g>
<g >
</g>
<g >
</g>
<g >
</g>
<g >
</g>
<g >
</g>
<g >
</g>
<g >
</g>
<g >
</g>
<g >
</g>
<g >
</g>
<g >
</g>
<g >
</g>
<g >
</g>
<g >
</g>
<g >
</g>
<g >
</g>
<g >
</g>
<g >
</g>
<g >
</g>
<g >
</g>
<g >
</g>
</g> 
</svg>
