<?xml version="1.0" standalone="no"?>
 <!DOCTYPE svg PUBLIC "-//W3C//DTD SVG 1.1//EN" 
 "http://www.w3.org/Graphics/SVG/1.1/DTD/svg11.dtd"> 
<svg
  xmlns:svg="http://www.w3.org/2000/svg"
  xmlns="http://www.w3.org/2000/svg"
  xmlns:xlink="http://www.w3.org/1999/xlink"
  version="1.1"
  width="3.8100000000000005cm" height="3.0100000000000002cm" viewBox="64.95 44.95 38.1 30.1">
<title>SVG Image created as pedalboard-led-ring-B_SilkS.svg date 2023/05/26 14:21:06 </title>
  <desc>Image generated by PCBNEW </desc>
<g style="fill:#000000; fill-opacity:1.000000;stroke:#000000; stroke-opacity:1.000000;
stroke-linecap:round; stroke-linejoin:round;"
 transform="translate(0 0) scale(1 1)">
</g>
<g style="fill:#000000; fill-opacity:0.0; 
stroke:#000000; stroke-width:0.000000; stroke-opacity:1; 
stroke-linecap:round; stroke-linejoin:round;">
</g>
<g style="fill:#000000; fill-opacity:0.0; 
stroke:#000000; stroke-width:0.100000; stroke-opacity:1; 
stroke-linecap:round; stroke-linejoin:round;">
<circle cx="80.000000" cy="60.000000" r="7.050000" /> 
</g>
<g style="fill:#000000; fill-opacity:0.0; 
stroke:#000000; stroke-width:0.150000; stroke-opacity:1; 
stroke-linecap:round; stroke-linejoin:round;">
<text x="92.100000" y="49.800000"
transform="scale(-1 1) translate(-184.200000 0)"
textLength="2.175000" font-size="1.333333" lengthAdjust="spacingAndGlyphs"
text-anchor="middle" opacity="0">U1</text>
<g class="stroked-text"><desc>U1</desc>
<path d="M92.861904 48.762619
L92.861904 49.572142
" />
<path d="M92.861904 49.572142
L92.814285 49.667380
" />
<path d="M92.814285 49.667380
L92.766666 49.715000
" />
<path d="M92.766666 49.715000
L92.671428 49.762619
" />
<path d="M92.671428 49.762619
L92.480952 49.762619
" />
<path d="M92.480952 49.762619
L92.385714 49.715000
" />
<path d="M92.385714 49.715000
L92.338095 49.667380
" />
<path d="M92.338095 49.667380
L92.290476 49.572142
" />
<path d="M92.290476 49.572142
L92.290476 48.762619
" />
<path d="M91.290476 49.762619
L91.861904 49.762619
" />
<path d="M91.576190 49.762619
L91.576190 48.762619
" />
<path d="M91.576190 48.762619
L91.671428 48.905476
" />
<path d="M91.671428 48.905476
L91.766666 49.000714
" />
<path d="M91.766666 49.000714
L91.861904 49.048333
" />
</g><text x="88.650000" y="64.900000"
transform="scale(-1 1) translate(-177.300000 0)"
textLength="1.936905" font-size="1.333333" lengthAdjust="spacingAndGlyphs"
text-anchor="middle" opacity="0">L1</text>
<g class="stroked-text"><desc>L1</desc>
<path d="M88.816666 64.862619
L89.292856 64.862619
" />
<path d="M89.292856 64.862619
L89.292856 63.862619
" />
<path d="M87.959523 64.862619
L88.530951 64.862619
" />
<path d="M88.245237 64.862619
L88.245237 63.862619
" />
<path d="M88.245237 63.862619
L88.340475 64.005476
" />
<path d="M88.340475 64.005476
L88.435713 64.100714
" />
<path d="M88.435713 64.100714
L88.530951 64.148333
" />
</g><text x="91.900000" y="61.950000"
transform="scale(-1 1) translate(-183.800000 0)"
textLength="2.127381" font-size="1.333333" lengthAdjust="spacingAndGlyphs"
text-anchor="middle" opacity="0">C1</text>
<g class="stroked-text"><desc>C1</desc>
<path d="M92.066666 61.817380
L92.114285 61.865000
" />
<path d="M92.114285 61.865000
L92.257142 61.912619
" />
<path d="M92.257142 61.912619
L92.352380 61.912619
" />
<path d="M92.352380 61.912619
L92.495237 61.865000
" />
<path d="M92.495237 61.865000
L92.590475 61.769761
" />
<path d="M92.590475 61.769761
L92.638094 61.674523
" />
<path d="M92.638094 61.674523
L92.685713 61.484047
" />
<path d="M92.685713 61.484047
L92.685713 61.341190
" />
<path d="M92.685713 61.341190
L92.638094 61.150714
" />
<path d="M92.638094 61.150714
L92.590475 61.055476
" />
<path d="M92.590475 61.055476
L92.495237 60.960238
" />
<path d="M92.495237 60.960238
L92.352380 60.912619
" />
<path d="M92.352380 60.912619
L92.257142 60.912619
" />
<path d="M92.257142 60.912619
L92.114285 60.960238
" />
<path d="M92.114285 60.960238
L92.066666 61.007857
" />
<path d="M91.114285 61.912619
L91.685713 61.912619
" />
<path d="M91.399999 61.912619
L91.399999 60.912619
" />
<path d="M91.399999 60.912619
L91.495237 61.055476
" />
<path d="M91.495237 61.055476
L91.590475 61.150714
" />
<path d="M91.590475 61.150714
L91.685713 61.198333
" />
</g><g transform="rotate(-90.000000 90.290000 68.000000)">
<text x="90.290000" y="68.500000"
transform="scale(-1 1) translate(-180.580000 0)"
textLength="1.889286" font-size="1.333333" lengthAdjust="spacingAndGlyphs"
text-anchor="middle" opacity="0">J1</text>
</g>
<g class="stroked-text"><desc>J1</desc>
<path d="M89.752619 67.666666
L90.466904 67.666666
" />
<path d="M90.466904 67.666666
L90.609761 67.619047
" />
<path d="M90.609761 67.619047
L90.705000 67.523809
" />
<path d="M90.705000 67.523809
L90.752619 67.380952
" />
<path d="M90.752619 67.380952
L90.752619 67.285714
" />
<path d="M90.752619 68.666666
L90.752619 68.095238
" />
<path d="M90.752619 68.380952
L89.752619 68.380952
" />
<path d="M89.752619 68.380952
L89.895476 68.285714
" />
<path d="M89.895476 68.285714
L89.990714 68.190476
" />
<path d="M89.990714 68.190476
L90.038333 68.095238
" />
</g><g transform="rotate(-90.000000 82.700000 72.800000)">
<text x="82.700000" y="73.125000"
transform="scale(-1 1) translate(-165.400000 0)"
textLength="1.514048" font-size="0.866666" lengthAdjust="spacingAndGlyphs"
text-anchor="middle" opacity="0">R2</text>
</g>
<g class="stroked-text"><desc>R2</desc>
<path d="M83.000702 72.691666
L82.691178 72.474999
" />
<path d="M83.000702 72.320237
L82.350702 72.320237
" />
<path d="M82.350702 72.320237
L82.350702 72.567856
" />
<path d="M82.350702 72.567856
L82.381654 72.629761
" />
<path d="M82.381654 72.629761
L82.412607 72.660714
" />
<path d="M82.412607 72.660714
L82.474511 72.691666
" />
<path d="M82.474511 72.691666
L82.567369 72.691666
" />
<path d="M82.567369 72.691666
L82.629273 72.660714
" />
<path d="M82.629273 72.660714
L82.660226 72.629761
" />
<path d="M82.660226 72.629761
L82.691178 72.567856
" />
<path d="M82.691178 72.567856
L82.691178 72.320237
" />
<path d="M82.412607 72.939285
L82.381654 72.970237
" />
<path d="M82.381654 72.970237
L82.350702 73.032142
" />
<path d="M82.350702 73.032142
L82.350702 73.186904
" />
<path d="M82.350702 73.186904
L82.381654 73.248809
" />
<path d="M82.381654 73.248809
L82.412607 73.279761
" />
<path d="M82.412607 73.279761
L82.474511 73.310714
" />
<path d="M82.474511 73.310714
L82.536416 73.310714
" />
<path d="M82.536416 73.310714
L82.629273 73.279761
" />
<path d="M82.629273 73.279761
L83.000702 72.908333
" />
<path d="M83.000702 72.908333
L83.000702 73.310714
" />
</g><g transform="rotate(-90.000000 101.300000 53.100000)">
<text x="101.300000" y="53.425000"
transform="scale(-1 1) translate(-202.600000 0)"
textLength="1.514048" font-size="0.866666" lengthAdjust="spacingAndGlyphs"
text-anchor="middle" opacity="0">R1</text>
</g>
<g class="stroked-text"><desc>R1</desc>
<path d="M101.600702 52.991666
L101.291178 52.774999
" />
<path d="M101.600702 52.620237
L100.950702 52.620237
" />
<path d="M100.950702 52.620237
L100.950702 52.867856
" />
<path d="M100.950702 52.867856
L100.981654 52.929761
" />
<path d="M100.981654 52.929761
L101.012607 52.960714
" />
<path d="M101.012607 52.960714
L101.074511 52.991666
" />
<path d="M101.074511 52.991666
L101.167369 52.991666
" />
<path d="M101.167369 52.991666
L101.229273 52.960714
" />
<path d="M101.229273 52.960714
L101.260226 52.929761
" />
<path d="M101.260226 52.929761
L101.291178 52.867856
" />
<path d="M101.291178 52.867856
L101.291178 52.620237
" />
<path d="M101.600702 53.610714
L101.600702 53.239285
" />
<path d="M101.600702 53.424999
L100.950702 53.424999
" />
<path d="M100.950702 53.424999
L101.043559 53.363095
" />
<path d="M101.043559 53.363095
L101.105464 53.301190
" />
<path d="M101.105464 53.301190
L101.136416 53.239285
" />
</g><text x="86.400000" y="69.950000"
transform="scale(-1 1) translate(-172.800000 0)"
textLength="2.175000" font-size="1.333333" lengthAdjust="spacingAndGlyphs"
text-anchor="middle" opacity="0">U2</text>
<g class="stroked-text"><desc>U2</desc>
<path d="M87.161904 68.912619
L87.161904 69.722142
" />
<path d="M87.161904 69.722142
L87.114285 69.817380
" />
<path d="M87.114285 69.817380
L87.066666 69.865000
" />
<path d="M87.066666 69.865000
L86.971428 69.912619
" />
<path d="M86.971428 69.912619
L86.780952 69.912619
" />
<path d="M86.780952 69.912619
L86.685714 69.865000
" />
<path d="M86.685714 69.865000
L86.638095 69.817380
" />
<path d="M86.638095 69.817380
L86.590476 69.722142
" />
<path d="M86.590476 69.722142
L86.590476 68.912619
" />
<path d="M86.161904 69.007857
L86.114285 68.960238
" />
<path d="M86.114285 68.960238
L86.019047 68.912619
" />
<path d="M86.019047 68.912619
L85.780952 68.912619
" />
<path d="M85.780952 68.912619
L85.685714 68.960238
" />
<path d="M85.685714 68.960238
L85.638095 69.007857
" />
<path d="M85.638095 69.007857
L85.590476 69.103095
" />
<path d="M85.590476 69.103095
L85.590476 69.198333
" />
<path d="M85.590476 69.198333
L85.638095 69.341190
" />
<path d="M85.638095 69.341190
L86.209523 69.912619
" />
<path d="M86.209523 69.912619
L85.590476 69.912619
" />
</g><g transform="rotate(-90.000000 96.120000 57.500000)">
<text x="96.120000" y="58.000000"
transform="scale(-1 1) translate(-192.240000 0)"
textLength="2.127381" font-size="1.333333" lengthAdjust="spacingAndGlyphs"
text-anchor="middle" opacity="0">C2</text>
</g>
<g class="stroked-text"><desc>C2</desc>
<path d="M96.487380 57.333333
L96.535000 57.285714
" />
<path d="M96.535000 57.285714
L96.582619 57.142857
" />
<path d="M96.582619 57.142857
L96.582619 57.047619
" />
<path d="M96.582619 57.047619
L96.535000 56.904762
" />
<path d="M96.535000 56.904762
L96.439761 56.809524
" />
<path d="M96.439761 56.809524
L96.344523 56.761905
" />
<path d="M96.344523 56.761905
L96.154047 56.714286
" />
<path d="M96.154047 56.714286
L96.011190 56.714286
" />
<path d="M96.011190 56.714286
L95.820714 56.761905
" />
<path d="M95.820714 56.761905
L95.725476 56.809524
" />
<path d="M95.725476 56.809524
L95.630238 56.904762
" />
<path d="M95.630238 56.904762
L95.582619 57.047619
" />
<path d="M95.582619 57.047619
L95.582619 57.142857
" />
<path d="M95.582619 57.142857
L95.630238 57.285714
" />
<path d="M95.630238 57.285714
L95.677857 57.333333
" />
<path d="M95.677857 57.714286
L95.630238 57.761905
" />
<path d="M95.630238 57.761905
L95.582619 57.857143
" />
<path d="M95.582619 57.857143
L95.582619 58.095238
" />
<path d="M95.582619 58.095238
L95.630238 58.190476
" />
<path d="M95.630238 58.190476
L95.677857 58.238095
" />
<path d="M95.677857 58.238095
L95.773095 58.285714
" />
<path d="M95.773095 58.285714
L95.868333 58.285714
" />
<path d="M95.868333 58.285714
L96.011190 58.238095
" />
<path d="M96.011190 58.238095
L96.582619 57.666667
" />
<path d="M96.582619 57.666667
L96.582619 58.285714
" />
</g><text x="83.200000" y="68.000000"
transform="scale(-1 1) translate(-166.400000 0)"
textLength="2.127381" font-size="1.333333" lengthAdjust="spacingAndGlyphs"
text-anchor="middle" opacity="0">C4</text>
<g class="stroked-text"><desc>C4</desc>
<path d="M83.366666 67.867380
L83.414285 67.915000
" />
<path d="M83.414285 67.915000
L83.557142 67.962619
" />
<path d="M83.557142 67.962619
L83.652380 67.962619
" />
<path d="M83.652380 67.962619
L83.795237 67.915000
" />
<path d="M83.795237 67.915000
L83.890475 67.819761
" />
<path d="M83.890475 67.819761
L83.938094 67.724523
" />
<path d="M83.938094 67.724523
L83.985713 67.534047
" />
<path d="M83.985713 67.534047
L83.985713 67.391190
" />
<path d="M83.985713 67.391190
L83.938094 67.200714
" />
<path d="M83.938094 67.200714
L83.890475 67.105476
" />
<path d="M83.890475 67.105476
L83.795237 67.010238
" />
<path d="M83.795237 67.010238
L83.652380 66.962619
" />
<path d="M83.652380 66.962619
L83.557142 66.962619
" />
<path d="M83.557142 66.962619
L83.414285 67.010238
" />
<path d="M83.414285 67.010238
L83.366666 67.057857
" />
<path d="M82.509523 67.295952
L82.509523 67.962619
" />
<path d="M82.747618 66.915000
L82.985713 67.629285
" />
<path d="M82.985713 67.629285
L82.366666 67.629285
" />
</g><g transform="rotate(-90.000000 91.900000 72.900000)">
<text x="91.900000" y="73.400000"
transform="scale(-1 1) translate(-183.800000 0)"
textLength="2.127381" font-size="1.333333" lengthAdjust="spacingAndGlyphs"
text-anchor="middle" opacity="0">C3</text>
</g>
<g class="stroked-text"><desc>C3</desc>
<path d="M92.267380 72.733333
L92.315000 72.685714
" />
<path d="M92.315000 72.685714
L92.362619 72.542857
" />
<path d="M92.362619 72.542857
L92.362619 72.447619
" />
<path d="M92.362619 72.447619
L92.315000 72.304762
" />
<path d="M92.315000 72.304762
L92.219761 72.209524
" />
<path d="M92.219761 72.209524
L92.124523 72.161905
" />
<path d="M92.124523 72.161905
L91.934047 72.114286
" />
<path d="M91.934047 72.114286
L91.791190 72.114286
" />
<path d="M91.791190 72.114286
L91.600714 72.161905
" />
<path d="M91.600714 72.161905
L91.505476 72.209524
" />
<path d="M91.505476 72.209524
L91.410238 72.304762
" />
<path d="M91.410238 72.304762
L91.362619 72.447619
" />
<path d="M91.362619 72.447619
L91.362619 72.542857
" />
<path d="M91.362619 72.542857
L91.410238 72.685714
" />
<path d="M91.410238 72.685714
L91.457857 72.733333
" />
<path d="M91.362619 73.066667
L91.362619 73.685714
" />
<path d="M91.362619 73.685714
L91.743571 73.352381
" />
<path d="M91.743571 73.352381
L91.743571 73.495238
" />
<path d="M91.743571 73.495238
L91.791190 73.590476
" />
<path d="M91.791190 73.590476
L91.838809 73.638095
" />
<path d="M91.838809 73.638095
L91.934047 73.685714
" />
<path d="M91.934047 73.685714
L92.172142 73.685714
" />
<path d="M92.172142 73.685714
L92.267380 73.638095
" />
<path d="M92.267380 73.638095
L92.315000 73.590476
" />
<path d="M92.315000 73.590476
L92.362619 73.495238
" />
<path d="M92.362619 73.495238
L92.362619 73.209524
" />
<path d="M92.362619 73.209524
L92.315000 73.114286
" />
<path d="M92.315000 73.114286
L92.267380 73.066667
" />
</g></g>
<g style="fill:#000000; fill-opacity:0.0; 
stroke:#000000; stroke-width:0.120000; stroke-opacity:1; 
stroke-linecap:round; stroke-linejoin:round;">
<path d="M94.900000 50.240000
L92.950000 50.240000
" />
<path d="M94.900000 50.240000
L96.850000 50.240000
" />
<path d="M94.900000 55.360000
L91.450000 55.360000
" />
<path d="M94.900000 55.360000
L96.850000 55.360000
" />
</g>
<g style="fill:#000000; fill-opacity:0.0; 
stroke:#000000; stroke-width:0.127000; stroke-opacity:1; 
stroke-linecap:round; stroke-linejoin:round;">
<path d="M86.650000 67.913500
L89.850000 67.913500
" />
<path d="M89.850000 65.286500
L86.650000 65.286500
" />
</g>
<g style="fill:#000000; fill-opacity:0.0; 
stroke:#000000; stroke-width:0.120000; stroke-opacity:1; 
stroke-linecap:round; stroke-linejoin:round;">
<path d="M91.188748 58.690000
L92.611252 58.690000
" />
<path d="M91.188748 60.510000
L92.611252 60.510000
" />
<path d="M99.470000 65.400000
L99.470000 70.600000
" />
<path d="M98.900000 65.400000
L99.470000 65.400000
" />
<path d="M96.360000 65.400000
L97.380000 65.400000
" />
<path d="M93.820000 65.400000
L94.840000 65.400000
" />
<path d="M91.730000 65.400000
L92.300000 65.400000
" />
<path d="M91.730000 65.400000
L91.730000 70.600000
" />
<path d="M98.900000 70.600000
L99.470000 70.600000
" />
<path d="M96.360000 70.600000
L97.380000 70.600000
" />
<path d="M93.820000 70.600000
L94.840000 70.600000
" />
<path d="M92.300000 70.600000
L92.300000 71.960000
" />
<path d="M91.730000 70.600000
L92.300000 70.600000
" />
</g>
<g style="fill:#000000; fill-opacity:0.0; 
stroke:#000000; stroke-width:0.150000; stroke-opacity:1; 
stroke-linecap:round; stroke-linejoin:round;">
<path d="M83.300000 71.150000
L83.300000 72.850000
" />
<path d="M84.700000 72.850000
L84.700000 71.150000
" />
<path d="M100.500000 53.450000
L100.500000 51.750000
" />
<path d="M99.100000 51.750000
L99.100000 53.450000
" />
<path d="M87.400000 73.625000
L85.400000 73.625000
" />
<path d="M86.400000 70.375000
L85.400000 70.375000
" />
</g>
<g style="fill:#000000; fill-opacity:0.0; 
stroke:#000000; stroke-width:0.120000; stroke-opacity:1; 
stroke-linecap:round; stroke-linejoin:round;">
<path d="M98.535000 57.238748
L98.535000 57.761252
" />
<path d="M97.065000 57.238748
L97.065000 57.761252
" />
<path d="M83.261252 70.035000
L82.738748 70.035000
" />
<path d="M83.261252 68.565000
L82.738748 68.565000
" />
<path d="M89.090000 72.211252
L89.090000 70.788748
" />
<path d="M90.910000 72.211252
L90.910000 70.788748
" />
<g >
</g>
<g >
</g>
<g >
</g>
<g >
</g>
<g >
</g>
<g >
</g>
<g >
</g>
<g >
</g>
<g >
</g>
<g >
</g>
<g >
</g>
<g >
</g>
<g >
</g>
<g >
</g>
<g >
</g>
<g >
</g>
<g >
</g>
<g >
</g>
<g >
</g>
</g> 
</svg>
