<?xml version="1.0" standalone="no"?>
 <!DOCTYPE svg PUBLIC "-//W3C//DTD SVG 1.1//EN" 
 "http://www.w3.org/Graphics/SVG/1.1/DTD/svg11.dtd"> 
<svg
  xmlns:svg="http://www.w3.org/2000/svg"
  xmlns="http://www.w3.org/2000/svg"
  xmlns:xlink="http://www.w3.org/1999/xlink"
  version="1.1"
  width="3.2100000000000004cm" height="3.2100000000000004cm" viewBox="63.95 43.95 32.1 32.1">
<title>SVG Image created as pedalboard-led-ring-B_SilkS.svg date 2023/06/02 14:33:15 </title>
  <desc>Image generated by PCBNEW </desc>
<g style="fill:#000000; fill-opacity:1.000000;stroke:#000000; stroke-opacity:1.000000;
stroke-linecap:round; stroke-linejoin:round;"
 transform="translate(0 0) scale(1 1)">
</g>
<g style="fill:#000000; fill-opacity:0.0; 
stroke:#000000; stroke-width:0.000000; stroke-opacity:1; 
stroke-linecap:round; stroke-linejoin:round;">
</g>
<g style="fill:#000000; fill-opacity:0.0; 
stroke:#000000; stroke-width:0.100000; stroke-opacity:1; 
stroke-linecap:round; stroke-linejoin:round;">
<circle cx="80.000000" cy="60.000000" r="7.050000" /> 
</g>
<g style="fill:#000000; fill-opacity:0.0; 
stroke:#000000; stroke-width:0.125000; stroke-opacity:1; 
stroke-linecap:round; stroke-linejoin:round;">
<text x="80.000000" y="73.400000"
transform="scale(-1 1) translate(-160.000000 0)"
textLength="4.236307" font-size="0.666666" lengthAdjust="spacingAndGlyphs"
text-anchor="middle" opacity="0">PCB: 1.0.0</text>
<g class="stroked-text"><desc>PCB: 1.0.0</desc>
<path d="M81.892855 73.332309
L81.892855 72.832309
" />
<path d="M81.892855 72.832309
L81.702379 72.832309
" />
<path d="M81.702379 72.832309
L81.654760 72.856119
" />
<path d="M81.654760 72.856119
L81.630950 72.879928
" />
<path d="M81.630950 72.879928
L81.607141 72.927547
" />
<path d="M81.607141 72.927547
L81.607141 72.998976
" />
<path d="M81.607141 72.998976
L81.630950 73.046595
" />
<path d="M81.630950 73.046595
L81.654760 73.070404
" />
<path d="M81.654760 73.070404
L81.702379 73.094214
" />
<path d="M81.702379 73.094214
L81.892855 73.094214
" />
<path d="M81.107141 73.284690
L81.130950 73.308500
" />
<path d="M81.130950 73.308500
L81.202379 73.332309
" />
<path d="M81.202379 73.332309
L81.249998 73.332309
" />
<path d="M81.249998 73.332309
L81.321426 73.308500
" />
<path d="M81.321426 73.308500
L81.369045 73.260880
" />
<path d="M81.369045 73.260880
L81.392855 73.213261
" />
<path d="M81.392855 73.213261
L81.416664 73.118023
" />
<path d="M81.416664 73.118023
L81.416664 73.046595
" />
<path d="M81.416664 73.046595
L81.392855 72.951357
" />
<path d="M81.392855 72.951357
L81.369045 72.903738
" />
<path d="M81.369045 72.903738
L81.321426 72.856119
" />
<path d="M81.321426 72.856119
L81.249998 72.832309
" />
<path d="M81.249998 72.832309
L81.202379 72.832309
" />
<path d="M81.202379 72.832309
L81.130950 72.856119
" />
<path d="M81.130950 72.856119
L81.107141 72.879928
" />
<path d="M80.726188 73.070404
L80.654760 73.094214
" />
<path d="M80.654760 73.094214
L80.630950 73.118023
" />
<path d="M80.630950 73.118023
L80.607141 73.165642
" />
<path d="M80.607141 73.165642
L80.607141 73.237071
" />
<path d="M80.607141 73.237071
L80.630950 73.284690
" />
<path d="M80.630950 73.284690
L80.654760 73.308500
" />
<path d="M80.654760 73.308500
L80.702379 73.332309
" />
<path d="M80.702379 73.332309
L80.892855 73.332309
" />
<path d="M80.892855 73.332309
L80.892855 72.832309
" />
<path d="M80.892855 72.832309
L80.726188 72.832309
" />
<path d="M80.726188 72.832309
L80.678569 72.856119
" />
<path d="M80.678569 72.856119
L80.654760 72.879928
" />
<path d="M80.654760 72.879928
L80.630950 72.927547
" />
<path d="M80.630950 72.927547
L80.630950 72.975166
" />
<path d="M80.630950 72.975166
L80.654760 73.022785
" />
<path d="M80.654760 73.022785
L80.678569 73.046595
" />
<path d="M80.678569 73.046595
L80.726188 73.070404
" />
<path d="M80.726188 73.070404
L80.892855 73.070404
" />
<path d="M80.392855 73.284690
L80.369045 73.308500
" />
<path d="M80.369045 73.308500
L80.392855 73.332309
" />
<path d="M80.392855 73.332309
L80.416664 73.308500
" />
<path d="M80.416664 73.308500
L80.392855 73.284690
" />
<path d="M80.392855 73.284690
L80.392855 73.332309
" />
<path d="M80.392855 73.022785
L80.369045 73.046595
" />
<path d="M80.369045 73.046595
L80.392855 73.070404
" />
<path d="M80.392855 73.070404
L80.416664 73.046595
" />
<path d="M80.416664 73.046595
L80.392855 73.022785
" />
<path d="M80.392855 73.022785
L80.392855 73.070404
" />
<path d="M79.511903 73.332309
L79.797617 73.332309
" />
<path d="M79.654760 73.332309
L79.654760 72.832309
" />
<path d="M79.654760 72.832309
L79.702379 72.903738
" />
<path d="M79.702379 72.903738
L79.749998 72.951357
" />
<path d="M79.749998 72.951357
L79.797617 72.975166
" />
<path d="M79.297618 73.284690
L79.273808 73.308500
" />
<path d="M79.273808 73.308500
L79.297618 73.332309
" />
<path d="M79.297618 73.332309
L79.321427 73.308500
" />
<path d="M79.321427 73.308500
L79.297618 73.284690
" />
<path d="M79.297618 73.284690
L79.297618 73.332309
" />
<path d="M78.964285 72.832309
L78.916666 72.832309
" />
<path d="M78.916666 72.832309
L78.869047 72.856119
" />
<path d="M78.869047 72.856119
L78.845237 72.879928
" />
<path d="M78.845237 72.879928
L78.821428 72.927547
" />
<path d="M78.821428 72.927547
L78.797618 73.022785
" />
<path d="M78.797618 73.022785
L78.797618 73.141833
" />
<path d="M78.797618 73.141833
L78.821428 73.237071
" />
<path d="M78.821428 73.237071
L78.845237 73.284690
" />
<path d="M78.845237 73.284690
L78.869047 73.308500
" />
<path d="M78.869047 73.308500
L78.916666 73.332309
" />
<path d="M78.916666 73.332309
L78.964285 73.332309
" />
<path d="M78.964285 73.332309
L79.011904 73.308500
" />
<path d="M79.011904 73.308500
L79.035713 73.284690
" />
<path d="M79.035713 73.284690
L79.059523 73.237071
" />
<path d="M79.059523 73.237071
L79.083332 73.141833
" />
<path d="M79.083332 73.141833
L79.083332 73.022785
" />
<path d="M79.083332 73.022785
L79.059523 72.927547
" />
<path d="M79.059523 72.927547
L79.035713 72.879928
" />
<path d="M79.035713 72.879928
L79.011904 72.856119
" />
<path d="M79.011904 72.856119
L78.964285 72.832309
" />
<path d="M78.583333 73.284690
L78.559523 73.308500
" />
<path d="M78.559523 73.308500
L78.583333 73.332309
" />
<path d="M78.583333 73.332309
L78.607142 73.308500
" />
<path d="M78.607142 73.308500
L78.583333 73.284690
" />
<path d="M78.583333 73.284690
L78.583333 73.332309
" />
<path d="M78.250000 72.832309
L78.202381 72.832309
" />
<path d="M78.202381 72.832309
L78.154762 72.856119
" />
<path d="M78.154762 72.856119
L78.130952 72.879928
" />
<path d="M78.130952 72.879928
L78.107143 72.927547
" />
<path d="M78.107143 72.927547
L78.083333 73.022785
" />
<path d="M78.083333 73.022785
L78.083333 73.141833
" />
<path d="M78.083333 73.141833
L78.107143 73.237071
" />
<path d="M78.107143 73.237071
L78.130952 73.284690
" />
<path d="M78.130952 73.284690
L78.154762 73.308500
" />
<path d="M78.154762 73.308500
L78.202381 73.332309
" />
<path d="M78.202381 73.332309
L78.250000 73.332309
" />
<path d="M78.250000 73.332309
L78.297619 73.308500
" />
<path d="M78.297619 73.308500
L78.321428 73.284690
" />
<path d="M78.321428 73.284690
L78.345238 73.237071
" />
<path d="M78.345238 73.237071
L78.369047 73.141833
" />
<path d="M78.369047 73.141833
L78.369047 73.022785
" />
<path d="M78.369047 73.022785
L78.345238 72.927547
" />
<path d="M78.345238 72.927547
L78.321428 72.879928
" />
<path d="M78.321428 72.879928
L78.297619 72.856119
" />
<path d="M78.297619 72.856119
L78.250000 72.832309
" />
</g></g>
<g style="fill:#000000; fill-opacity:0.0; 
stroke:#000000; stroke-width:0.150000; stroke-opacity:1; 
stroke-linecap:round; stroke-linejoin:round;">
<text x="79.800000" y="47.192500"
transform="scale(-1 1) translate(-159.600000 0)"
textLength="12.189283" font-size="1.000000" lengthAdjust="spacingAndGlyphs"
text-anchor="middle" opacity="0">Pedalboard LED Ring</text>
<g class="stroked-text"><desc>Pedalboard LED Ring</desc>
<path d="M85.603569 47.092914
L85.603569 46.342914
" />
<path d="M85.603569 46.342914
L85.317855 46.342914
" />
<path d="M85.317855 46.342914
L85.246426 46.378628
" />
<path d="M85.246426 46.378628
L85.210712 46.414342
" />
<path d="M85.210712 46.414342
L85.174998 46.485771
" />
<path d="M85.174998 46.485771
L85.174998 46.592914
" />
<path d="M85.174998 46.592914
L85.210712 46.664342
" />
<path d="M85.210712 46.664342
L85.246426 46.700057
" />
<path d="M85.246426 46.700057
L85.317855 46.735771
" />
<path d="M85.317855 46.735771
L85.603569 46.735771
" />
<path d="M84.567855 47.057200
L84.639283 47.092914
" />
<path d="M84.639283 47.092914
L84.782141 47.092914
" />
<path d="M84.782141 47.092914
L84.853569 47.057200
" />
<path d="M84.853569 47.057200
L84.889283 46.985771
" />
<path d="M84.889283 46.985771
L84.889283 46.700057
" />
<path d="M84.889283 46.700057
L84.853569 46.628628
" />
<path d="M84.853569 46.628628
L84.782141 46.592914
" />
<path d="M84.782141 46.592914
L84.639283 46.592914
" />
<path d="M84.639283 46.592914
L84.567855 46.628628
" />
<path d="M84.567855 46.628628
L84.532141 46.700057
" />
<path d="M84.532141 46.700057
L84.532141 46.771485
" />
<path d="M84.532141 46.771485
L84.889283 46.842914
" />
<path d="M83.889284 47.092914
L83.889284 46.342914
" />
<path d="M83.889284 47.057200
L83.960712 47.092914
" />
<path d="M83.960712 47.092914
L84.103569 47.092914
" />
<path d="M84.103569 47.092914
L84.174998 47.057200
" />
<path d="M84.174998 47.057200
L84.210712 47.021485
" />
<path d="M84.210712 47.021485
L84.246426 46.950057
" />
<path d="M84.246426 46.950057
L84.246426 46.735771
" />
<path d="M84.246426 46.735771
L84.210712 46.664342
" />
<path d="M84.210712 46.664342
L84.174998 46.628628
" />
<path d="M84.174998 46.628628
L84.103569 46.592914
" />
<path d="M84.103569 46.592914
L83.960712 46.592914
" />
<path d="M83.960712 46.592914
L83.889284 46.628628
" />
<path d="M83.210713 47.092914
L83.210713 46.700057
" />
<path d="M83.210713 46.700057
L83.246427 46.628628
" />
<path d="M83.246427 46.628628
L83.317855 46.592914
" />
<path d="M83.317855 46.592914
L83.460713 46.592914
" />
<path d="M83.460713 46.592914
L83.532141 46.628628
" />
<path d="M83.210713 47.057200
L83.282141 47.092914
" />
<path d="M83.282141 47.092914
L83.460713 47.092914
" />
<path d="M83.460713 47.092914
L83.532141 47.057200
" />
<path d="M83.532141 47.057200
L83.567855 46.985771
" />
<path d="M83.567855 46.985771
L83.567855 46.914342
" />
<path d="M83.567855 46.914342
L83.532141 46.842914
" />
<path d="M83.532141 46.842914
L83.460713 46.807200
" />
<path d="M83.460713 46.807200
L83.282141 46.807200
" />
<path d="M83.282141 46.807200
L83.210713 46.771485
" />
<path d="M82.746427 47.092914
L82.817856 47.057200
" />
<path d="M82.817856 47.057200
L82.853570 46.985771
" />
<path d="M82.853570 46.985771
L82.853570 46.342914
" />
<path d="M82.460713 47.092914
L82.460713 46.342914
" />
<path d="M82.460713 46.628628
L82.389285 46.592914
" />
<path d="M82.389285 46.592914
L82.246427 46.592914
" />
<path d="M82.246427 46.592914
L82.174999 46.628628
" />
<path d="M82.174999 46.628628
L82.139285 46.664342
" />
<path d="M82.139285 46.664342
L82.103570 46.735771
" />
<path d="M82.103570 46.735771
L82.103570 46.950057
" />
<path d="M82.103570 46.950057
L82.139285 47.021485
" />
<path d="M82.139285 47.021485
L82.174999 47.057200
" />
<path d="M82.174999 47.057200
L82.246427 47.092914
" />
<path d="M82.246427 47.092914
L82.389285 47.092914
" />
<path d="M82.389285 47.092914
L82.460713 47.057200
" />
<path d="M81.674999 47.092914
L81.746428 47.057200
" />
<path d="M81.746428 47.057200
L81.782142 47.021485
" />
<path d="M81.782142 47.021485
L81.817856 46.950057
" />
<path d="M81.817856 46.950057
L81.817856 46.735771
" />
<path d="M81.817856 46.735771
L81.782142 46.664342
" />
<path d="M81.782142 46.664342
L81.746428 46.628628
" />
<path d="M81.746428 46.628628
L81.674999 46.592914
" />
<path d="M81.674999 46.592914
L81.567856 46.592914
" />
<path d="M81.567856 46.592914
L81.496428 46.628628
" />
<path d="M81.496428 46.628628
L81.460714 46.664342
" />
<path d="M81.460714 46.664342
L81.424999 46.735771
" />
<path d="M81.424999 46.735771
L81.424999 46.950057
" />
<path d="M81.424999 46.950057
L81.460714 47.021485
" />
<path d="M81.460714 47.021485
L81.496428 47.057200
" />
<path d="M81.496428 47.057200
L81.567856 47.092914
" />
<path d="M81.567856 47.092914
L81.674999 47.092914
" />
<path d="M80.782143 47.092914
L80.782143 46.700057
" />
<path d="M80.782143 46.700057
L80.817857 46.628628
" />
<path d="M80.817857 46.628628
L80.889285 46.592914
" />
<path d="M80.889285 46.592914
L81.032143 46.592914
" />
<path d="M81.032143 46.592914
L81.103571 46.628628
" />
<path d="M80.782143 47.057200
L80.853571 47.092914
" />
<path d="M80.853571 47.092914
L81.032143 47.092914
" />
<path d="M81.032143 47.092914
L81.103571 47.057200
" />
<path d="M81.103571 47.057200
L81.139285 46.985771
" />
<path d="M81.139285 46.985771
L81.139285 46.914342
" />
<path d="M81.139285 46.914342
L81.103571 46.842914
" />
<path d="M81.103571 46.842914
L81.032143 46.807200
" />
<path d="M81.032143 46.807200
L80.853571 46.807200
" />
<path d="M80.853571 46.807200
L80.782143 46.771485
" />
<path d="M80.425000 47.092914
L80.425000 46.592914
" />
<path d="M80.425000 46.735771
L80.389286 46.664342
" />
<path d="M80.389286 46.664342
L80.353572 46.628628
" />
<path d="M80.353572 46.628628
L80.282143 46.592914
" />
<path d="M80.282143 46.592914
L80.210714 46.592914
" />
<path d="M79.639286 47.092914
L79.639286 46.342914
" />
<path d="M79.639286 47.057200
L79.710714 47.092914
" />
<path d="M79.710714 47.092914
L79.853571 47.092914
" />
<path d="M79.853571 47.092914
L79.925000 47.057200
" />
<path d="M79.925000 47.057200
L79.960714 47.021485
" />
<path d="M79.960714 47.021485
L79.996428 46.950057
" />
<path d="M79.996428 46.950057
L79.996428 46.735771
" />
<path d="M79.996428 46.735771
L79.960714 46.664342
" />
<path d="M79.960714 46.664342
L79.925000 46.628628
" />
<path d="M79.925000 46.628628
L79.853571 46.592914
" />
<path d="M79.853571 46.592914
L79.710714 46.592914
" />
<path d="M79.710714 46.592914
L79.639286 46.628628
" />
<path d="M78.353571 47.092914
L78.710714 47.092914
" />
<path d="M78.710714 47.092914
L78.710714 46.342914
" />
<path d="M78.103571 46.700057
L77.853571 46.700057
" />
<path d="M77.746428 47.092914
L78.103571 47.092914
" />
<path d="M78.103571 47.092914
L78.103571 46.342914
" />
<path d="M78.103571 46.342914
L77.746428 46.342914
" />
<path d="M77.425000 47.092914
L77.425000 46.342914
" />
<path d="M77.425000 46.342914
L77.246429 46.342914
" />
<path d="M77.246429 46.342914
L77.139286 46.378628
" />
<path d="M77.139286 46.378628
L77.067857 46.450057
" />
<path d="M77.067857 46.450057
L77.032143 46.521485
" />
<path d="M77.032143 46.521485
L76.996429 46.664342
" />
<path d="M76.996429 46.664342
L76.996429 46.771485
" />
<path d="M76.996429 46.771485
L77.032143 46.914342
" />
<path d="M77.032143 46.914342
L77.067857 46.985771
" />
<path d="M77.067857 46.985771
L77.139286 47.057200
" />
<path d="M77.139286 47.057200
L77.246429 47.092914
" />
<path d="M77.246429 47.092914
L77.425000 47.092914
" />
<path d="M75.675000 47.092914
L75.925000 46.735771
" />
<path d="M76.103571 47.092914
L76.103571 46.342914
" />
<path d="M76.103571 46.342914
L75.817857 46.342914
" />
<path d="M75.817857 46.342914
L75.746428 46.378628
" />
<path d="M75.746428 46.378628
L75.710714 46.414342
" />
<path d="M75.710714 46.414342
L75.675000 46.485771
" />
<path d="M75.675000 46.485771
L75.675000 46.592914
" />
<path d="M75.675000 46.592914
L75.710714 46.664342
" />
<path d="M75.710714 46.664342
L75.746428 46.700057
" />
<path d="M75.746428 46.700057
L75.817857 46.735771
" />
<path d="M75.817857 46.735771
L76.103571 46.735771
" />
<path d="M75.353571 47.092914
L75.353571 46.592914
" />
<path d="M75.353571 46.342914
L75.389285 46.378628
" />
<path d="M75.389285 46.378628
L75.353571 46.414342
" />
<path d="M75.353571 46.414342
L75.317857 46.378628
" />
<path d="M75.317857 46.378628
L75.353571 46.342914
" />
<path d="M75.353571 46.342914
L75.353571 46.414342
" />
<path d="M74.996428 46.592914
L74.996428 47.092914
" />
<path d="M74.996428 46.664342
L74.960714 46.628628
" />
<path d="M74.960714 46.628628
L74.889285 46.592914
" />
<path d="M74.889285 46.592914
L74.782142 46.592914
" />
<path d="M74.782142 46.592914
L74.710714 46.628628
" />
<path d="M74.710714 46.628628
L74.675000 46.700057
" />
<path d="M74.675000 46.700057
L74.675000 47.092914
" />
<path d="M73.996429 46.592914
L73.996429 47.200057
" />
<path d="M73.996429 47.200057
L74.032143 47.271485
" />
<path d="M74.032143 47.271485
L74.067857 47.307200
" />
<path d="M74.067857 47.307200
L74.139286 47.342914
" />
<path d="M74.139286 47.342914
L74.246429 47.342914
" />
<path d="M74.246429 47.342914
L74.317857 47.307200
" />
<path d="M73.996429 47.057200
L74.067857 47.092914
" />
<path d="M74.067857 47.092914
L74.210714 47.092914
" />
<path d="M74.210714 47.092914
L74.282143 47.057200
" />
<path d="M74.282143 47.057200
L74.317857 47.021485
" />
<path d="M74.317857 47.021485
L74.353571 46.950057
" />
<path d="M74.353571 46.950057
L74.353571 46.735771
" />
<path d="M74.353571 46.735771
L74.317857 46.664342
" />
<path d="M74.317857 46.664342
L74.282143 46.628628
" />
<path d="M74.282143 46.628628
L74.210714 46.592914
" />
<path d="M74.210714 46.592914
L74.067857 46.592914
" />
<path d="M74.067857 46.592914
L73.996429 46.628628
" />
</g><text x="79.800000" y="48.400000"
transform="scale(-1 1) translate(-159.600000 0)"
textLength="18.189278" font-size="1.000000" lengthAdjust="spacingAndGlyphs"
text-anchor="middle" opacity="0">https://github.com/pedalboard</text>
<g class="stroked-text"><desc>https://github.com/pedalboard</desc>
<path d="M88.603567 48.300414
L88.603567 47.550414
" />
<path d="M88.282139 48.300414
L88.282139 47.907557
" />
<path d="M88.282139 47.907557
L88.317853 47.836128
" />
<path d="M88.317853 47.836128
L88.389281 47.800414
" />
<path d="M88.389281 47.800414
L88.496424 47.800414
" />
<path d="M88.496424 47.800414
L88.567853 47.836128
" />
<path d="M88.567853 47.836128
L88.603567 47.871842
" />
<path d="M88.032139 47.800414
L87.746425 47.800414
" />
<path d="M87.924996 47.550414
L87.924996 48.193271
" />
<path d="M87.924996 48.193271
L87.889282 48.264700
" />
<path d="M87.889282 48.264700
L87.817853 48.300414
" />
<path d="M87.817853 48.300414
L87.746425 48.300414
" />
<path d="M87.603568 47.800414
L87.317854 47.800414
" />
<path d="M87.496425 47.550414
L87.496425 48.193271
" />
<path d="M87.496425 48.193271
L87.460711 48.264700
" />
<path d="M87.460711 48.264700
L87.389282 48.300414
" />
<path d="M87.389282 48.300414
L87.317854 48.300414
" />
<path d="M87.067854 47.800414
L87.067854 48.550414
" />
<path d="M87.067854 47.836128
L86.996426 47.800414
" />
<path d="M86.996426 47.800414
L86.853568 47.800414
" />
<path d="M86.853568 47.800414
L86.782140 47.836128
" />
<path d="M86.782140 47.836128
L86.746426 47.871842
" />
<path d="M86.746426 47.871842
L86.710711 47.943271
" />
<path d="M86.710711 47.943271
L86.710711 48.157557
" />
<path d="M86.710711 48.157557
L86.746426 48.228985
" />
<path d="M86.746426 48.228985
L86.782140 48.264700
" />
<path d="M86.782140 48.264700
L86.853568 48.300414
" />
<path d="M86.853568 48.300414
L86.996426 48.300414
" />
<path d="M86.996426 48.300414
L87.067854 48.264700
" />
<path d="M86.424997 48.264700
L86.353569 48.300414
" />
<path d="M86.353569 48.300414
L86.210712 48.300414
" />
<path d="M86.210712 48.300414
L86.139283 48.264700
" />
<path d="M86.139283 48.264700
L86.103569 48.193271
" />
<path d="M86.103569 48.193271
L86.103569 48.157557
" />
<path d="M86.103569 48.157557
L86.139283 48.086128
" />
<path d="M86.139283 48.086128
L86.210712 48.050414
" />
<path d="M86.210712 48.050414
L86.317855 48.050414
" />
<path d="M86.317855 48.050414
L86.389283 48.014700
" />
<path d="M86.389283 48.014700
L86.424997 47.943271
" />
<path d="M86.424997 47.943271
L86.424997 47.907557
" />
<path d="M86.424997 47.907557
L86.389283 47.836128
" />
<path d="M86.389283 47.836128
L86.317855 47.800414
" />
<path d="M86.317855 47.800414
L86.210712 47.800414
" />
<path d="M86.210712 47.800414
L86.139283 47.836128
" />
<path d="M85.782140 48.228985
L85.746426 48.264700
" />
<path d="M85.746426 48.264700
L85.782140 48.300414
" />
<path d="M85.782140 48.300414
L85.817854 48.264700
" />
<path d="M85.817854 48.264700
L85.782140 48.228985
" />
<path d="M85.782140 48.228985
L85.782140 48.300414
" />
<path d="M85.782140 47.836128
L85.746426 47.871842
" />
<path d="M85.746426 47.871842
L85.782140 47.907557
" />
<path d="M85.782140 47.907557
L85.817854 47.871842
" />
<path d="M85.817854 47.871842
L85.782140 47.836128
" />
<path d="M85.782140 47.836128
L85.782140 47.907557
" />
<path d="M84.889283 47.514700
L85.532140 48.478985
" />
<path d="M84.103569 47.514700
L84.746426 48.478985
" />
<path d="M83.532141 47.800414
L83.532141 48.407557
" />
<path d="M83.532141 48.407557
L83.567855 48.478985
" />
<path d="M83.567855 48.478985
L83.603569 48.514700
" />
<path d="M83.603569 48.514700
L83.674998 48.550414
" />
<path d="M83.674998 48.550414
L83.782141 48.550414
" />
<path d="M83.782141 48.550414
L83.853569 48.514700
" />
<path d="M83.532141 48.264700
L83.603569 48.300414
" />
<path d="M83.603569 48.300414
L83.746426 48.300414
" />
<path d="M83.746426 48.300414
L83.817855 48.264700
" />
<path d="M83.817855 48.264700
L83.853569 48.228985
" />
<path d="M83.853569 48.228985
L83.889283 48.157557
" />
<path d="M83.889283 48.157557
L83.889283 47.943271
" />
<path d="M83.889283 47.943271
L83.853569 47.871842
" />
<path d="M83.853569 47.871842
L83.817855 47.836128
" />
<path d="M83.817855 47.836128
L83.746426 47.800414
" />
<path d="M83.746426 47.800414
L83.603569 47.800414
" />
<path d="M83.603569 47.800414
L83.532141 47.836128
" />
<path d="M83.174998 48.300414
L83.174998 47.800414
" />
<path d="M83.174998 47.550414
L83.210712 47.586128
" />
<path d="M83.210712 47.586128
L83.174998 47.621842
" />
<path d="M83.174998 47.621842
L83.139284 47.586128
" />
<path d="M83.139284 47.586128
L83.174998 47.550414
" />
<path d="M83.174998 47.550414
L83.174998 47.621842
" />
<path d="M82.924998 47.800414
L82.639284 47.800414
" />
<path d="M82.817855 47.550414
L82.817855 48.193271
" />
<path d="M82.817855 48.193271
L82.782141 48.264700
" />
<path d="M82.782141 48.264700
L82.710712 48.300414
" />
<path d="M82.710712 48.300414
L82.639284 48.300414
" />
<path d="M82.389284 48.300414
L82.389284 47.550414
" />
<path d="M82.067856 48.300414
L82.067856 47.907557
" />
<path d="M82.067856 47.907557
L82.103570 47.836128
" />
<path d="M82.103570 47.836128
L82.174998 47.800414
" />
<path d="M82.174998 47.800414
L82.282141 47.800414
" />
<path d="M82.282141 47.800414
L82.353570 47.836128
" />
<path d="M82.353570 47.836128
L82.389284 47.871842
" />
<path d="M81.389285 47.800414
L81.389285 48.300414
" />
<path d="M81.710713 47.800414
L81.710713 48.193271
" />
<path d="M81.710713 48.193271
L81.674999 48.264700
" />
<path d="M81.674999 48.264700
L81.603570 48.300414
" />
<path d="M81.603570 48.300414
L81.496427 48.300414
" />
<path d="M81.496427 48.300414
L81.424999 48.264700
" />
<path d="M81.424999 48.264700
L81.389285 48.228985
" />
<path d="M81.032142 48.300414
L81.032142 47.550414
" />
<path d="M81.032142 47.836128
L80.960714 47.800414
" />
<path d="M80.960714 47.800414
L80.817856 47.800414
" />
<path d="M80.817856 47.800414
L80.746428 47.836128
" />
<path d="M80.746428 47.836128
L80.710714 47.871842
" />
<path d="M80.710714 47.871842
L80.674999 47.943271
" />
<path d="M80.674999 47.943271
L80.674999 48.157557
" />
<path d="M80.674999 48.157557
L80.710714 48.228985
" />
<path d="M80.710714 48.228985
L80.746428 48.264700
" />
<path d="M80.746428 48.264700
L80.817856 48.300414
" />
<path d="M80.817856 48.300414
L80.960714 48.300414
" />
<path d="M80.960714 48.300414
L81.032142 48.264700
" />
<path d="M80.353571 48.228985
L80.317857 48.264700
" />
<path d="M80.317857 48.264700
L80.353571 48.300414
" />
<path d="M80.353571 48.300414
L80.389285 48.264700
" />
<path d="M80.389285 48.264700
L80.353571 48.228985
" />
<path d="M80.353571 48.228985
L80.353571 48.300414
" />
<path d="M79.675000 48.264700
L79.746428 48.300414
" />
<path d="M79.746428 48.300414
L79.889285 48.300414
" />
<path d="M79.889285 48.300414
L79.960714 48.264700
" />
<path d="M79.960714 48.264700
L79.996428 48.228985
" />
<path d="M79.996428 48.228985
L80.032142 48.157557
" />
<path d="M80.032142 48.157557
L80.032142 47.943271
" />
<path d="M80.032142 47.943271
L79.996428 47.871842
" />
<path d="M79.996428 47.871842
L79.960714 47.836128
" />
<path d="M79.960714 47.836128
L79.889285 47.800414
" />
<path d="M79.889285 47.800414
L79.746428 47.800414
" />
<path d="M79.746428 47.800414
L79.675000 47.836128
" />
<path d="M79.246428 48.300414
L79.317857 48.264700
" />
<path d="M79.317857 48.264700
L79.353571 48.228985
" />
<path d="M79.353571 48.228985
L79.389285 48.157557
" />
<path d="M79.389285 48.157557
L79.389285 47.943271
" />
<path d="M79.389285 47.943271
L79.353571 47.871842
" />
<path d="M79.353571 47.871842
L79.317857 47.836128
" />
<path d="M79.317857 47.836128
L79.246428 47.800414
" />
<path d="M79.246428 47.800414
L79.139285 47.800414
" />
<path d="M79.139285 47.800414
L79.067857 47.836128
" />
<path d="M79.067857 47.836128
L79.032143 47.871842
" />
<path d="M79.032143 47.871842
L78.996428 47.943271
" />
<path d="M78.996428 47.943271
L78.996428 48.157557
" />
<path d="M78.996428 48.157557
L79.032143 48.228985
" />
<path d="M79.032143 48.228985
L79.067857 48.264700
" />
<path d="M79.067857 48.264700
L79.139285 48.300414
" />
<path d="M79.139285 48.300414
L79.246428 48.300414
" />
<path d="M78.675000 48.300414
L78.675000 47.800414
" />
<path d="M78.675000 47.871842
L78.639286 47.836128
" />
<path d="M78.639286 47.836128
L78.567857 47.800414
" />
<path d="M78.567857 47.800414
L78.460714 47.800414
" />
<path d="M78.460714 47.800414
L78.389286 47.836128
" />
<path d="M78.389286 47.836128
L78.353572 47.907557
" />
<path d="M78.353572 47.907557
L78.353572 48.300414
" />
<path d="M78.353572 47.907557
L78.317857 47.836128
" />
<path d="M78.317857 47.836128
L78.246429 47.800414
" />
<path d="M78.246429 47.800414
L78.139286 47.800414
" />
<path d="M78.139286 47.800414
L78.067857 47.836128
" />
<path d="M78.067857 47.836128
L78.032143 47.907557
" />
<path d="M78.032143 47.907557
L78.032143 48.300414
" />
<path d="M77.139286 47.514700
L77.782143 48.478985
" />
<path d="M76.889286 47.800414
L76.889286 48.550414
" />
<path d="M76.889286 47.836128
L76.817858 47.800414
" />
<path d="M76.817858 47.800414
L76.675000 47.800414
" />
<path d="M76.675000 47.800414
L76.603572 47.836128
" />
<path d="M76.603572 47.836128
L76.567858 47.871842
" />
<path d="M76.567858 47.871842
L76.532143 47.943271
" />
<path d="M76.532143 47.943271
L76.532143 48.157557
" />
<path d="M76.532143 48.157557
L76.567858 48.228985
" />
<path d="M76.567858 48.228985
L76.603572 48.264700
" />
<path d="M76.603572 48.264700
L76.675000 48.300414
" />
<path d="M76.675000 48.300414
L76.817858 48.300414
" />
<path d="M76.817858 48.300414
L76.889286 48.264700
" />
<path d="M75.925001 48.264700
L75.996429 48.300414
" />
<path d="M75.996429 48.300414
L76.139287 48.300414
" />
<path d="M76.139287 48.300414
L76.210715 48.264700
" />
<path d="M76.210715 48.264700
L76.246429 48.193271
" />
<path d="M76.246429 48.193271
L76.246429 47.907557
" />
<path d="M76.246429 47.907557
L76.210715 47.836128
" />
<path d="M76.210715 47.836128
L76.139287 47.800414
" />
<path d="M76.139287 47.800414
L75.996429 47.800414
" />
<path d="M75.996429 47.800414
L75.925001 47.836128
" />
<path d="M75.925001 47.836128
L75.889287 47.907557
" />
<path d="M75.889287 47.907557
L75.889287 47.978985
" />
<path d="M75.889287 47.978985
L76.246429 48.050414
" />
<path d="M75.246430 48.300414
L75.246430 47.550414
" />
<path d="M75.246430 48.264700
L75.317858 48.300414
" />
<path d="M75.317858 48.300414
L75.460715 48.300414
" />
<path d="M75.460715 48.300414
L75.532144 48.264700
" />
<path d="M75.532144 48.264700
L75.567858 48.228985
" />
<path d="M75.567858 48.228985
L75.603572 48.157557
" />
<path d="M75.603572 48.157557
L75.603572 47.943271
" />
<path d="M75.603572 47.943271
L75.567858 47.871842
" />
<path d="M75.567858 47.871842
L75.532144 47.836128
" />
<path d="M75.532144 47.836128
L75.460715 47.800414
" />
<path d="M75.460715 47.800414
L75.317858 47.800414
" />
<path d="M75.317858 47.800414
L75.246430 47.836128
" />
<path d="M74.567859 48.300414
L74.567859 47.907557
" />
<path d="M74.567859 47.907557
L74.603573 47.836128
" />
<path d="M74.603573 47.836128
L74.675001 47.800414
" />
<path d="M74.675001 47.800414
L74.817859 47.800414
" />
<path d="M74.817859 47.800414
L74.889287 47.836128
" />
<path d="M74.567859 48.264700
L74.639287 48.300414
" />
<path d="M74.639287 48.300414
L74.817859 48.300414
" />
<path d="M74.817859 48.300414
L74.889287 48.264700
" />
<path d="M74.889287 48.264700
L74.925001 48.193271
" />
<path d="M74.925001 48.193271
L74.925001 48.121842
" />
<path d="M74.925001 48.121842
L74.889287 48.050414
" />
<path d="M74.889287 48.050414
L74.817859 48.014700
" />
<path d="M74.817859 48.014700
L74.639287 48.014700
" />
<path d="M74.639287 48.014700
L74.567859 47.978985
" />
<path d="M74.103573 48.300414
L74.175002 48.264700
" />
<path d="M74.175002 48.264700
L74.210716 48.193271
" />
<path d="M74.210716 48.193271
L74.210716 47.550414
" />
<path d="M73.817859 48.300414
L73.817859 47.550414
" />
<path d="M73.817859 47.836128
L73.746431 47.800414
" />
<path d="M73.746431 47.800414
L73.603573 47.800414
" />
<path d="M73.603573 47.800414
L73.532145 47.836128
" />
<path d="M73.532145 47.836128
L73.496431 47.871842
" />
<path d="M73.496431 47.871842
L73.460716 47.943271
" />
<path d="M73.460716 47.943271
L73.460716 48.157557
" />
<path d="M73.460716 48.157557
L73.496431 48.228985
" />
<path d="M73.496431 48.228985
L73.532145 48.264700
" />
<path d="M73.532145 48.264700
L73.603573 48.300414
" />
<path d="M73.603573 48.300414
L73.746431 48.300414
" />
<path d="M73.746431 48.300414
L73.817859 48.264700
" />
<path d="M73.032145 48.300414
L73.103574 48.264700
" />
<path d="M73.103574 48.264700
L73.139288 48.228985
" />
<path d="M73.139288 48.228985
L73.175002 48.157557
" />
<path d="M73.175002 48.157557
L73.175002 47.943271
" />
<path d="M73.175002 47.943271
L73.139288 47.871842
" />
<path d="M73.139288 47.871842
L73.103574 47.836128
" />
<path d="M73.103574 47.836128
L73.032145 47.800414
" />
<path d="M73.032145 47.800414
L72.925002 47.800414
" />
<path d="M72.925002 47.800414
L72.853574 47.836128
" />
<path d="M72.853574 47.836128
L72.817860 47.871842
" />
<path d="M72.817860 47.871842
L72.782145 47.943271
" />
<path d="M72.782145 47.943271
L72.782145 48.157557
" />
<path d="M72.782145 48.157557
L72.817860 48.228985
" />
<path d="M72.817860 48.228985
L72.853574 48.264700
" />
<path d="M72.853574 48.264700
L72.925002 48.300414
" />
<path d="M72.925002 48.300414
L73.032145 48.300414
" />
<path d="M72.139289 48.300414
L72.139289 47.907557
" />
<path d="M72.139289 47.907557
L72.175003 47.836128
" />
<path d="M72.175003 47.836128
L72.246431 47.800414
" />
<path d="M72.246431 47.800414
L72.389289 47.800414
" />
<path d="M72.389289 47.800414
L72.460717 47.836128
" />
<path d="M72.139289 48.264700
L72.210717 48.300414
" />
<path d="M72.210717 48.300414
L72.389289 48.300414
" />
<path d="M72.389289 48.300414
L72.460717 48.264700
" />
<path d="M72.460717 48.264700
L72.496431 48.193271
" />
<path d="M72.496431 48.193271
L72.496431 48.121842
" />
<path d="M72.496431 48.121842
L72.460717 48.050414
" />
<path d="M72.460717 48.050414
L72.389289 48.014700
" />
<path d="M72.389289 48.014700
L72.210717 48.014700
" />
<path d="M72.210717 48.014700
L72.139289 47.978985
" />
<path d="M71.782146 48.300414
L71.782146 47.800414
" />
<path d="M71.782146 47.943271
L71.746432 47.871842
" />
<path d="M71.746432 47.871842
L71.710718 47.836128
" />
<path d="M71.710718 47.836128
L71.639289 47.800414
" />
<path d="M71.639289 47.800414
L71.567860 47.800414
" />
<path d="M70.996432 48.300414
L70.996432 47.550414
" />
<path d="M70.996432 48.264700
L71.067860 48.300414
" />
<path d="M71.067860 48.300414
L71.210717 48.300414
" />
<path d="M71.210717 48.300414
L71.282146 48.264700
" />
<path d="M71.282146 48.264700
L71.317860 48.228985
" />
<path d="M71.317860 48.228985
L71.353574 48.157557
" />
<path d="M71.353574 48.157557
L71.353574 47.943271
" />
<path d="M71.353574 47.943271
L71.317860 47.871842
" />
<path d="M71.317860 47.871842
L71.282146 47.836128
" />
<path d="M71.282146 47.836128
L71.210717 47.800414
" />
<path d="M71.210717 47.800414
L71.067860 47.800414
" />
<path d="M71.067860 47.800414
L70.996432 47.836128
" />
</g><g transform="rotate(-90.000000 91.800000 54.000000)">
<text x="91.800000" y="54.500000"
transform="scale(-1 1) translate(-183.600000 0)"
textLength="1.889286" font-size="1.333333" lengthAdjust="spacingAndGlyphs"
text-anchor="middle" opacity="0">J1</text>
</g>
<g class="stroked-text"><desc>J1</desc>
<path d="M91.254819 53.666666
L91.969104 53.666666
" />
<path d="M91.969104 53.666666
L92.111961 53.619047
" />
<path d="M92.111961 53.619047
L92.207200 53.523809
" />
<path d="M92.207200 53.523809
L92.254819 53.380952
" />
<path d="M92.254819 53.380952
L92.254819 53.285714
" />
<path d="M92.254819 54.666666
L92.254819 54.095238
" />
<path d="M92.254819 54.380952
L91.254819 54.380952
" />
<path d="M91.254819 54.380952
L91.397676 54.285714
" />
<path d="M91.397676 54.285714
L91.492914 54.190476
" />
<path d="M91.492914 54.190476
L91.540533 54.095238
" />
</g><text x="90.000000" y="74.000000"
transform="scale(-1 1) translate(-180.000000 0)"
textLength="1.889286" font-size="1.333333" lengthAdjust="spacingAndGlyphs"
text-anchor="middle" opacity="0">J2</text>
<g class="stroked-text"><desc>J2</desc>
<path d="M90.333333 72.954819
L90.333333 73.669104
" />
<path d="M90.333333 73.669104
L90.380952 73.811961
" />
<path d="M90.380952 73.811961
L90.476190 73.907200
" />
<path d="M90.476190 73.907200
L90.619047 73.954819
" />
<path d="M90.619047 73.954819
L90.714285 73.954819
" />
<path d="M89.904761 73.050057
L89.857142 73.002438
" />
<path d="M89.857142 73.002438
L89.761904 72.954819
" />
<path d="M89.761904 72.954819
L89.523809 72.954819
" />
<path d="M89.523809 72.954819
L89.428571 73.002438
" />
<path d="M89.428571 73.002438
L89.380952 73.050057
" />
<path d="M89.380952 73.050057
L89.333333 73.145295
" />
<path d="M89.333333 73.145295
L89.333333 73.240533
" />
<path d="M89.333333 73.240533
L89.380952 73.383390
" />
<path d="M89.380952 73.383390
L89.952380 73.954819
" />
<path d="M89.952380 73.954819
L89.333333 73.954819
" />
</g></g>
<g style="fill:#000000; fill-opacity:0.0; 
stroke:#000000; stroke-width:0.120000; stroke-opacity:1; 
stroke-linecap:round; stroke-linejoin:round;">
<path d="M87.940000 62.060000
L87.940000 57.940000
" />
<path d="M88.240000 62.060000
L87.940000 62.060000
" />
<path d="M90.240000 62.060000
L89.760000 62.060000
" />
<path d="M92.060000 62.060000
L91.760000 62.060000
" />
<path d="M92.060000 62.060000
L92.060000 57.940000
" />
<path d="M88.240000 57.940000
L87.940000 57.940000
" />
<path d="M90.240000 57.940000
L89.760000 57.940000
" />
<path d="M91.760000 57.940000
L91.760000 55.560000
" />
<path d="M92.060000 57.940000
L91.760000 57.940000
" />
<path d="M87.940000 67.940000
L92.060000 67.940000
" />
<path d="M87.940000 68.240000
L87.940000 67.940000
" />
<path d="M87.940000 70.240000
L87.940000 69.760000
" />
<path d="M87.940000 72.060000
L87.940000 71.760000
" />
<path d="M87.940000 72.060000
L92.060000 72.060000
" />
<path d="M92.060000 68.240000
L92.060000 67.940000
" />
<path d="M92.060000 70.240000
L92.060000 69.760000
" />
<path d="M92.060000 71.760000
L94.440000 71.760000
" />
<path d="M92.060000 72.060000
L92.060000 71.760000
" />
<g >
</g>
<g >
</g>
<g >
</g>
<g >
</g>
<g >
</g>
<g >
</g>
<g >
</g>
<g >
</g>
<g >
</g>
<g >
</g>
<g >
</g>
<g >
</g>
<g >
</g>
<g >
</g>
<g >
</g>
<g >
</g>
<g >
</g>
<g >
</g>
<g >
</g>
<g >
</g>
<g >
</g>
<g >
</g>
<g >
</g>
<g >
</g>
<g >
</g>
<g >
</g>
<g >
</g>
<g >
</g>
<g >
</g>
<g >
</g>
</g> 
</svg>
