<?xml version="1.0" standalone="no"?>
 <!DOCTYPE svg PUBLIC "-//W3C//DTD SVG 1.1//EN" 
 "http://www.w3.org/Graphics/SVG/1.1/DTD/svg11.dtd"> 
<svg
  xmlns:svg="http://www.w3.org/2000/svg"
  xmlns="http://www.w3.org/2000/svg"
  xmlns:xlink="http://www.w3.org/1999/xlink"
  version="1.1"
  width="3.8100000000000005cm" height="3.0100000000000002cm" viewBox="64.95 44.95 38.1 30.1">
<title>SVG Image created as pedalboard-led-ring-B_SilkS.svg date 2023/05/29 10:56:05 </title>
  <desc>Image generated by PCBNEW </desc>
<g style="fill:#000000; fill-opacity:1.000000;stroke:#000000; stroke-opacity:1.000000;
stroke-linecap:round; stroke-linejoin:round;"
 transform="translate(0 0) scale(1 1)">
</g>
<g style="fill:#000000; fill-opacity:0.0; 
stroke:#000000; stroke-width:0.000000; stroke-opacity:1; 
stroke-linecap:round; stroke-linejoin:round;">
</g>
<g style="fill:#000000; fill-opacity:0.0; 
stroke:#000000; stroke-width:0.100000; stroke-opacity:1; 
stroke-linecap:round; stroke-linejoin:round;">
<circle cx="80.000000" cy="60.000000" r="7.050000" /> 
</g>
<g style="fill:#000000; fill-opacity:0.0; 
stroke:#000000; stroke-width:0.150000; stroke-opacity:1; 
stroke-linecap:round; stroke-linejoin:round;">
<text x="66.500000" y="47.760000"
transform="scale(-1 1) translate(-133.000000 0)"
textLength="16.127383" font-size="1.333333" lengthAdjust="spacingAndGlyphs"
text-anchor="end" opacity="0">Pedalboard LED Ring</text>
<g class="stroked-text"><desc>Pedalboard LED Ring</desc>
<path d="M82.214287 47.637619
L82.214287 46.637619
" />
<path d="M82.214287 46.637619
L81.833335 46.637619
" />
<path d="M81.833335 46.637619
L81.738097 46.685238
" />
<path d="M81.738097 46.685238
L81.690478 46.732857
" />
<path d="M81.690478 46.732857
L81.642859 46.828095
" />
<path d="M81.642859 46.828095
L81.642859 46.970952
" />
<path d="M81.642859 46.970952
L81.690478 47.066190
" />
<path d="M81.690478 47.066190
L81.738097 47.113809
" />
<path d="M81.738097 47.113809
L81.833335 47.161428
" />
<path d="M81.833335 47.161428
L82.214287 47.161428
" />
<path d="M80.833335 47.590000
L80.928573 47.637619
" />
<path d="M80.928573 47.637619
L81.119049 47.637619
" />
<path d="M81.119049 47.637619
L81.214287 47.590000
" />
<path d="M81.214287 47.590000
L81.261906 47.494761
" />
<path d="M81.261906 47.494761
L81.261906 47.113809
" />
<path d="M81.261906 47.113809
L81.214287 47.018571
" />
<path d="M81.214287 47.018571
L81.119049 46.970952
" />
<path d="M81.119049 46.970952
L80.928573 46.970952
" />
<path d="M80.928573 46.970952
L80.833335 47.018571
" />
<path d="M80.833335 47.018571
L80.785716 47.113809
" />
<path d="M80.785716 47.113809
L80.785716 47.209047
" />
<path d="M80.785716 47.209047
L81.261906 47.304285
" />
<path d="M79.928573 47.637619
L79.928573 46.637619
" />
<path d="M79.928573 47.590000
L80.023811 47.637619
" />
<path d="M80.023811 47.637619
L80.214287 47.637619
" />
<path d="M80.214287 47.637619
L80.309525 47.590000
" />
<path d="M80.309525 47.590000
L80.357144 47.542380
" />
<path d="M80.357144 47.542380
L80.404763 47.447142
" />
<path d="M80.404763 47.447142
L80.404763 47.161428
" />
<path d="M80.404763 47.161428
L80.357144 47.066190
" />
<path d="M80.357144 47.066190
L80.309525 47.018571
" />
<path d="M80.309525 47.018571
L80.214287 46.970952
" />
<path d="M80.214287 46.970952
L80.023811 46.970952
" />
<path d="M80.023811 46.970952
L79.928573 47.018571
" />
<path d="M79.023811 47.637619
L79.023811 47.113809
" />
<path d="M79.023811 47.113809
L79.071430 47.018571
" />
<path d="M79.071430 47.018571
L79.166668 46.970952
" />
<path d="M79.166668 46.970952
L79.357144 46.970952
" />
<path d="M79.357144 46.970952
L79.452382 47.018571
" />
<path d="M79.023811 47.590000
L79.119049 47.637619
" />
<path d="M79.119049 47.637619
L79.357144 47.637619
" />
<path d="M79.357144 47.637619
L79.452382 47.590000
" />
<path d="M79.452382 47.590000
L79.500001 47.494761
" />
<path d="M79.500001 47.494761
L79.500001 47.399523
" />
<path d="M79.500001 47.399523
L79.452382 47.304285
" />
<path d="M79.452382 47.304285
L79.357144 47.256666
" />
<path d="M79.357144 47.256666
L79.119049 47.256666
" />
<path d="M79.119049 47.256666
L79.023811 47.209047
" />
<path d="M78.404763 47.637619
L78.500001 47.590000
" />
<path d="M78.500001 47.590000
L78.547620 47.494761
" />
<path d="M78.547620 47.494761
L78.547620 46.637619
" />
<path d="M78.023810 47.637619
L78.023810 46.637619
" />
<path d="M78.023810 47.018571
L77.928572 46.970952
" />
<path d="M77.928572 46.970952
L77.738096 46.970952
" />
<path d="M77.738096 46.970952
L77.642858 47.018571
" />
<path d="M77.642858 47.018571
L77.595239 47.066190
" />
<path d="M77.595239 47.066190
L77.547620 47.161428
" />
<path d="M77.547620 47.161428
L77.547620 47.447142
" />
<path d="M77.547620 47.447142
L77.595239 47.542380
" />
<path d="M77.595239 47.542380
L77.642858 47.590000
" />
<path d="M77.642858 47.590000
L77.738096 47.637619
" />
<path d="M77.738096 47.637619
L77.928572 47.637619
" />
<path d="M77.928572 47.637619
L78.023810 47.590000
" />
<path d="M76.976191 47.637619
L77.071429 47.590000
" />
<path d="M77.071429 47.590000
L77.119048 47.542380
" />
<path d="M77.119048 47.542380
L77.166667 47.447142
" />
<path d="M77.166667 47.447142
L77.166667 47.161428
" />
<path d="M77.166667 47.161428
L77.119048 47.066190
" />
<path d="M77.119048 47.066190
L77.071429 47.018571
" />
<path d="M77.071429 47.018571
L76.976191 46.970952
" />
<path d="M76.976191 46.970952
L76.833334 46.970952
" />
<path d="M76.833334 46.970952
L76.738096 47.018571
" />
<path d="M76.738096 47.018571
L76.690477 47.066190
" />
<path d="M76.690477 47.066190
L76.642858 47.161428
" />
<path d="M76.642858 47.161428
L76.642858 47.447142
" />
<path d="M76.642858 47.447142
L76.690477 47.542380
" />
<path d="M76.690477 47.542380
L76.738096 47.590000
" />
<path d="M76.738096 47.590000
L76.833334 47.637619
" />
<path d="M76.833334 47.637619
L76.976191 47.637619
" />
<path d="M75.785715 47.637619
L75.785715 47.113809
" />
<path d="M75.785715 47.113809
L75.833334 47.018571
" />
<path d="M75.833334 47.018571
L75.928572 46.970952
" />
<path d="M75.928572 46.970952
L76.119048 46.970952
" />
<path d="M76.119048 46.970952
L76.214286 47.018571
" />
<path d="M75.785715 47.590000
L75.880953 47.637619
" />
<path d="M75.880953 47.637619
L76.119048 47.637619
" />
<path d="M76.119048 47.637619
L76.214286 47.590000
" />
<path d="M76.214286 47.590000
L76.261905 47.494761
" />
<path d="M76.261905 47.494761
L76.261905 47.399523
" />
<path d="M76.261905 47.399523
L76.214286 47.304285
" />
<path d="M76.214286 47.304285
L76.119048 47.256666
" />
<path d="M76.119048 47.256666
L75.880953 47.256666
" />
<path d="M75.880953 47.256666
L75.785715 47.209047
" />
<path d="M75.309524 47.637619
L75.309524 46.970952
" />
<path d="M75.309524 47.161428
L75.261905 47.066190
" />
<path d="M75.261905 47.066190
L75.214286 47.018571
" />
<path d="M75.214286 47.018571
L75.119048 46.970952
" />
<path d="M75.119048 46.970952
L75.023810 46.970952
" />
<path d="M74.261905 47.637619
L74.261905 46.637619
" />
<path d="M74.261905 47.590000
L74.357143 47.637619
" />
<path d="M74.357143 47.637619
L74.547619 47.637619
" />
<path d="M74.547619 47.637619
L74.642857 47.590000
" />
<path d="M74.642857 47.590000
L74.690476 47.542380
" />
<path d="M74.690476 47.542380
L74.738095 47.447142
" />
<path d="M74.738095 47.447142
L74.738095 47.161428
" />
<path d="M74.738095 47.161428
L74.690476 47.066190
" />
<path d="M74.690476 47.066190
L74.642857 47.018571
" />
<path d="M74.642857 47.018571
L74.547619 46.970952
" />
<path d="M74.547619 46.970952
L74.357143 46.970952
" />
<path d="M74.357143 46.970952
L74.261905 47.018571
" />
<path d="M72.547619 47.637619
L73.023809 47.637619
" />
<path d="M73.023809 47.637619
L73.023809 46.637619
" />
<path d="M72.214285 47.113809
L71.880952 47.113809
" />
<path d="M71.738095 47.637619
L72.214285 47.637619
" />
<path d="M72.214285 47.637619
L72.214285 46.637619
" />
<path d="M72.214285 46.637619
L71.738095 46.637619
" />
<path d="M71.309523 47.637619
L71.309523 46.637619
" />
<path d="M71.309523 46.637619
L71.071428 46.637619
" />
<path d="M71.071428 46.637619
L70.928571 46.685238
" />
<path d="M70.928571 46.685238
L70.833333 46.780476
" />
<path d="M70.833333 46.780476
L70.785714 46.875714
" />
<path d="M70.785714 46.875714
L70.738095 47.066190
" />
<path d="M70.738095 47.066190
L70.738095 47.209047
" />
<path d="M70.738095 47.209047
L70.785714 47.399523
" />
<path d="M70.785714 47.399523
L70.833333 47.494761
" />
<path d="M70.833333 47.494761
L70.928571 47.590000
" />
<path d="M70.928571 47.590000
L71.071428 47.637619
" />
<path d="M71.071428 47.637619
L71.309523 47.637619
" />
<path d="M68.976190 47.637619
L69.309523 47.161428
" />
<path d="M69.547618 47.637619
L69.547618 46.637619
" />
<path d="M69.547618 46.637619
L69.166666 46.637619
" />
<path d="M69.166666 46.637619
L69.071428 46.685238
" />
<path d="M69.071428 46.685238
L69.023809 46.732857
" />
<path d="M69.023809 46.732857
L68.976190 46.828095
" />
<path d="M68.976190 46.828095
L68.976190 46.970952
" />
<path d="M68.976190 46.970952
L69.023809 47.066190
" />
<path d="M69.023809 47.066190
L69.071428 47.113809
" />
<path d="M69.071428 47.113809
L69.166666 47.161428
" />
<path d="M69.166666 47.161428
L69.547618 47.161428
" />
<path d="M68.547618 47.637619
L68.547618 46.970952
" />
<path d="M68.547618 46.637619
L68.595237 46.685238
" />
<path d="M68.595237 46.685238
L68.547618 46.732857
" />
<path d="M68.547618 46.732857
L68.499999 46.685238
" />
<path d="M68.499999 46.685238
L68.547618 46.637619
" />
<path d="M68.547618 46.637619
L68.547618 46.732857
" />
<path d="M68.071428 46.970952
L68.071428 47.637619
" />
<path d="M68.071428 47.066190
L68.023809 47.018571
" />
<path d="M68.023809 47.018571
L67.928571 46.970952
" />
<path d="M67.928571 46.970952
L67.785714 46.970952
" />
<path d="M67.785714 46.970952
L67.690476 47.018571
" />
<path d="M67.690476 47.018571
L67.642857 47.113809
" />
<path d="M67.642857 47.113809
L67.642857 47.637619
" />
<path d="M66.738095 46.970952
L66.738095 47.780476
" />
<path d="M66.738095 47.780476
L66.785714 47.875714
" />
<path d="M66.785714 47.875714
L66.833333 47.923333
" />
<path d="M66.833333 47.923333
L66.928571 47.970952
" />
<path d="M66.928571 47.970952
L67.071428 47.970952
" />
<path d="M67.071428 47.970952
L67.166666 47.923333
" />
<path d="M66.738095 47.590000
L66.833333 47.637619
" />
<path d="M66.833333 47.637619
L67.023809 47.637619
" />
<path d="M67.023809 47.637619
L67.119047 47.590000
" />
<path d="M67.119047 47.590000
L67.166666 47.542380
" />
<path d="M67.166666 47.542380
L67.214285 47.447142
" />
<path d="M67.214285 47.447142
L67.214285 47.161428
" />
<path d="M67.214285 47.161428
L67.166666 47.066190
" />
<path d="M67.166666 47.066190
L67.119047 47.018571
" />
<path d="M67.119047 47.018571
L67.023809 46.970952
" />
<path d="M67.023809 46.970952
L66.833333 46.970952
" />
<path d="M66.833333 46.970952
L66.738095 47.018571
" />
</g><text x="66.500000" y="49.380000"
transform="scale(-1 1) translate(-133.000000 0)"
textLength="24.127383" font-size="1.333333" lengthAdjust="spacingAndGlyphs"
text-anchor="end" opacity="0">https://github.com/pedalboard</text>
<g class="stroked-text"><desc>https://github.com/pedalboard</desc>
<path d="M90.214287 49.257619
L90.214287 48.257619
" />
<path d="M89.785716 49.257619
L89.785716 48.733809
" />
<path d="M89.785716 48.733809
L89.833335 48.638571
" />
<path d="M89.833335 48.638571
L89.928573 48.590952
" />
<path d="M89.928573 48.590952
L90.071430 48.590952
" />
<path d="M90.071430 48.590952
L90.166668 48.638571
" />
<path d="M90.166668 48.638571
L90.214287 48.686190
" />
<path d="M89.452382 48.590952
L89.071430 48.590952
" />
<path d="M89.309525 48.257619
L89.309525 49.114761
" />
<path d="M89.309525 49.114761
L89.261906 49.210000
" />
<path d="M89.261906 49.210000
L89.166668 49.257619
" />
<path d="M89.166668 49.257619
L89.071430 49.257619
" />
<path d="M88.880953 48.590952
L88.500001 48.590952
" />
<path d="M88.738096 48.257619
L88.738096 49.114761
" />
<path d="M88.738096 49.114761
L88.690477 49.210000
" />
<path d="M88.690477 49.210000
L88.595239 49.257619
" />
<path d="M88.595239 49.257619
L88.500001 49.257619
" />
<path d="M88.166667 48.590952
L88.166667 49.590952
" />
<path d="M88.166667 48.638571
L88.071429 48.590952
" />
<path d="M88.071429 48.590952
L87.880953 48.590952
" />
<path d="M87.880953 48.590952
L87.785715 48.638571
" />
<path d="M87.785715 48.638571
L87.738096 48.686190
" />
<path d="M87.738096 48.686190
L87.690477 48.781428
" />
<path d="M87.690477 48.781428
L87.690477 49.067142
" />
<path d="M87.690477 49.067142
L87.738096 49.162380
" />
<path d="M87.738096 49.162380
L87.785715 49.210000
" />
<path d="M87.785715 49.210000
L87.880953 49.257619
" />
<path d="M87.880953 49.257619
L88.071429 49.257619
" />
<path d="M88.071429 49.257619
L88.166667 49.210000
" />
<path d="M87.309524 49.210000
L87.214286 49.257619
" />
<path d="M87.214286 49.257619
L87.023810 49.257619
" />
<path d="M87.023810 49.257619
L86.928572 49.210000
" />
<path d="M86.928572 49.210000
L86.880953 49.114761
" />
<path d="M86.880953 49.114761
L86.880953 49.067142
" />
<path d="M86.880953 49.067142
L86.928572 48.971904
" />
<path d="M86.928572 48.971904
L87.023810 48.924285
" />
<path d="M87.023810 48.924285
L87.166667 48.924285
" />
<path d="M87.166667 48.924285
L87.261905 48.876666
" />
<path d="M87.261905 48.876666
L87.309524 48.781428
" />
<path d="M87.309524 48.781428
L87.309524 48.733809
" />
<path d="M87.309524 48.733809
L87.261905 48.638571
" />
<path d="M87.261905 48.638571
L87.166667 48.590952
" />
<path d="M87.166667 48.590952
L87.023810 48.590952
" />
<path d="M87.023810 48.590952
L86.928572 48.638571
" />
<path d="M86.452381 49.162380
L86.404762 49.210000
" />
<path d="M86.404762 49.210000
L86.452381 49.257619
" />
<path d="M86.452381 49.257619
L86.500000 49.210000
" />
<path d="M86.500000 49.210000
L86.452381 49.162380
" />
<path d="M86.452381 49.162380
L86.452381 49.257619
" />
<path d="M86.452381 48.638571
L86.404762 48.686190
" />
<path d="M86.404762 48.686190
L86.452381 48.733809
" />
<path d="M86.452381 48.733809
L86.500000 48.686190
" />
<path d="M86.500000 48.686190
L86.452381 48.638571
" />
<path d="M86.452381 48.638571
L86.452381 48.733809
" />
<path d="M85.261906 48.210000
L86.119048 49.495714
" />
<path d="M84.214287 48.210000
L85.071429 49.495714
" />
<path d="M83.452382 48.590952
L83.452382 49.400476
" />
<path d="M83.452382 49.400476
L83.500001 49.495714
" />
<path d="M83.500001 49.495714
L83.547620 49.543333
" />
<path d="M83.547620 49.543333
L83.642858 49.590952
" />
<path d="M83.642858 49.590952
L83.785715 49.590952
" />
<path d="M83.785715 49.590952
L83.880953 49.543333
" />
<path d="M83.452382 49.210000
L83.547620 49.257619
" />
<path d="M83.547620 49.257619
L83.738096 49.257619
" />
<path d="M83.738096 49.257619
L83.833334 49.210000
" />
<path d="M83.833334 49.210000
L83.880953 49.162380
" />
<path d="M83.880953 49.162380
L83.928572 49.067142
" />
<path d="M83.928572 49.067142
L83.928572 48.781428
" />
<path d="M83.928572 48.781428
L83.880953 48.686190
" />
<path d="M83.880953 48.686190
L83.833334 48.638571
" />
<path d="M83.833334 48.638571
L83.738096 48.590952
" />
<path d="M83.738096 48.590952
L83.547620 48.590952
" />
<path d="M83.547620 48.590952
L83.452382 48.638571
" />
<path d="M82.976191 49.257619
L82.976191 48.590952
" />
<path d="M82.976191 48.257619
L83.023810 48.305238
" />
<path d="M83.023810 48.305238
L82.976191 48.352857
" />
<path d="M82.976191 48.352857
L82.928572 48.305238
" />
<path d="M82.928572 48.305238
L82.976191 48.257619
" />
<path d="M82.976191 48.257619
L82.976191 48.352857
" />
<path d="M82.642858 48.590952
L82.261906 48.590952
" />
<path d="M82.500001 48.257619
L82.500001 49.114761
" />
<path d="M82.500001 49.114761
L82.452382 49.210000
" />
<path d="M82.452382 49.210000
L82.357144 49.257619
" />
<path d="M82.357144 49.257619
L82.261906 49.257619
" />
<path d="M81.928572 49.257619
L81.928572 48.257619
" />
<path d="M81.500001 49.257619
L81.500001 48.733809
" />
<path d="M81.500001 48.733809
L81.547620 48.638571
" />
<path d="M81.547620 48.638571
L81.642858 48.590952
" />
<path d="M81.642858 48.590952
L81.785715 48.590952
" />
<path d="M81.785715 48.590952
L81.880953 48.638571
" />
<path d="M81.880953 48.638571
L81.928572 48.686190
" />
<path d="M80.595239 48.590952
L80.595239 49.257619
" />
<path d="M81.023810 48.590952
L81.023810 49.114761
" />
<path d="M81.023810 49.114761
L80.976191 49.210000
" />
<path d="M80.976191 49.210000
L80.880953 49.257619
" />
<path d="M80.880953 49.257619
L80.738096 49.257619
" />
<path d="M80.738096 49.257619
L80.642858 49.210000
" />
<path d="M80.642858 49.210000
L80.595239 49.162380
" />
<path d="M80.119048 49.257619
L80.119048 48.257619
" />
<path d="M80.119048 48.638571
L80.023810 48.590952
" />
<path d="M80.023810 48.590952
L79.833334 48.590952
" />
<path d="M79.833334 48.590952
L79.738096 48.638571
" />
<path d="M79.738096 48.638571
L79.690477 48.686190
" />
<path d="M79.690477 48.686190
L79.642858 48.781428
" />
<path d="M79.642858 48.781428
L79.642858 49.067142
" />
<path d="M79.642858 49.067142
L79.690477 49.162380
" />
<path d="M79.690477 49.162380
L79.738096 49.210000
" />
<path d="M79.738096 49.210000
L79.833334 49.257619
" />
<path d="M79.833334 49.257619
L80.023810 49.257619
" />
<path d="M80.023810 49.257619
L80.119048 49.210000
" />
<path d="M79.214286 49.162380
L79.166667 49.210000
" />
<path d="M79.166667 49.210000
L79.214286 49.257619
" />
<path d="M79.214286 49.257619
L79.261905 49.210000
" />
<path d="M79.261905 49.210000
L79.214286 49.162380
" />
<path d="M79.214286 49.162380
L79.214286 49.257619
" />
<path d="M78.309525 49.210000
L78.404763 49.257619
" />
<path d="M78.404763 49.257619
L78.595239 49.257619
" />
<path d="M78.595239 49.257619
L78.690477 49.210000
" />
<path d="M78.690477 49.210000
L78.738096 49.162380
" />
<path d="M78.738096 49.162380
L78.785715 49.067142
" />
<path d="M78.785715 49.067142
L78.785715 48.781428
" />
<path d="M78.785715 48.781428
L78.738096 48.686190
" />
<path d="M78.738096 48.686190
L78.690477 48.638571
" />
<path d="M78.690477 48.638571
L78.595239 48.590952
" />
<path d="M78.595239 48.590952
L78.404763 48.590952
" />
<path d="M78.404763 48.590952
L78.309525 48.638571
" />
<path d="M77.738096 49.257619
L77.833334 49.210000
" />
<path d="M77.833334 49.210000
L77.880953 49.162380
" />
<path d="M77.880953 49.162380
L77.928572 49.067142
" />
<path d="M77.928572 49.067142
L77.928572 48.781428
" />
<path d="M77.928572 48.781428
L77.880953 48.686190
" />
<path d="M77.880953 48.686190
L77.833334 48.638571
" />
<path d="M77.833334 48.638571
L77.738096 48.590952
" />
<path d="M77.738096 48.590952
L77.595239 48.590952
" />
<path d="M77.595239 48.590952
L77.500001 48.638571
" />
<path d="M77.500001 48.638571
L77.452382 48.686190
" />
<path d="M77.452382 48.686190
L77.404763 48.781428
" />
<path d="M77.404763 48.781428
L77.404763 49.067142
" />
<path d="M77.404763 49.067142
L77.452382 49.162380
" />
<path d="M77.452382 49.162380
L77.500001 49.210000
" />
<path d="M77.500001 49.210000
L77.595239 49.257619
" />
<path d="M77.595239 49.257619
L77.738096 49.257619
" />
<path d="M76.976191 49.257619
L76.976191 48.590952
" />
<path d="M76.976191 48.686190
L76.928572 48.638571
" />
<path d="M76.928572 48.638571
L76.833334 48.590952
" />
<path d="M76.833334 48.590952
L76.690477 48.590952
" />
<path d="M76.690477 48.590952
L76.595239 48.638571
" />
<path d="M76.595239 48.638571
L76.547620 48.733809
" />
<path d="M76.547620 48.733809
L76.547620 49.257619
" />
<path d="M76.547620 48.733809
L76.500001 48.638571
" />
<path d="M76.500001 48.638571
L76.404763 48.590952
" />
<path d="M76.404763 48.590952
L76.261906 48.590952
" />
<path d="M76.261906 48.590952
L76.166667 48.638571
" />
<path d="M76.166667 48.638571
L76.119048 48.733809
" />
<path d="M76.119048 48.733809
L76.119048 49.257619
" />
<path d="M74.928573 48.210000
L75.785715 49.495714
" />
<path d="M74.595239 48.590952
L74.595239 49.590952
" />
<path d="M74.595239 48.638571
L74.500001 48.590952
" />
<path d="M74.500001 48.590952
L74.309525 48.590952
" />
<path d="M74.309525 48.590952
L74.214287 48.638571
" />
<path d="M74.214287 48.638571
L74.166668 48.686190
" />
<path d="M74.166668 48.686190
L74.119049 48.781428
" />
<path d="M74.119049 48.781428
L74.119049 49.067142
" />
<path d="M74.119049 49.067142
L74.166668 49.162380
" />
<path d="M74.166668 49.162380
L74.214287 49.210000
" />
<path d="M74.214287 49.210000
L74.309525 49.257619
" />
<path d="M74.309525 49.257619
L74.500001 49.257619
" />
<path d="M74.500001 49.257619
L74.595239 49.210000
" />
<path d="M73.309525 49.210000
L73.404763 49.257619
" />
<path d="M73.404763 49.257619
L73.595239 49.257619
" />
<path d="M73.595239 49.257619
L73.690477 49.210000
" />
<path d="M73.690477 49.210000
L73.738096 49.114761
" />
<path d="M73.738096 49.114761
L73.738096 48.733809
" />
<path d="M73.738096 48.733809
L73.690477 48.638571
" />
<path d="M73.690477 48.638571
L73.595239 48.590952
" />
<path d="M73.595239 48.590952
L73.404763 48.590952
" />
<path d="M73.404763 48.590952
L73.309525 48.638571
" />
<path d="M73.309525 48.638571
L73.261906 48.733809
" />
<path d="M73.261906 48.733809
L73.261906 48.829047
" />
<path d="M73.261906 48.829047
L73.738096 48.924285
" />
<path d="M72.404763 49.257619
L72.404763 48.257619
" />
<path d="M72.404763 49.210000
L72.500001 49.257619
" />
<path d="M72.500001 49.257619
L72.690477 49.257619
" />
<path d="M72.690477 49.257619
L72.785715 49.210000
" />
<path d="M72.785715 49.210000
L72.833334 49.162380
" />
<path d="M72.833334 49.162380
L72.880953 49.067142
" />
<path d="M72.880953 49.067142
L72.880953 48.781428
" />
<path d="M72.880953 48.781428
L72.833334 48.686190
" />
<path d="M72.833334 48.686190
L72.785715 48.638571
" />
<path d="M72.785715 48.638571
L72.690477 48.590952
" />
<path d="M72.690477 48.590952
L72.500001 48.590952
" />
<path d="M72.500001 48.590952
L72.404763 48.638571
" />
<path d="M71.500001 49.257619
L71.500001 48.733809
" />
<path d="M71.500001 48.733809
L71.547620 48.638571
" />
<path d="M71.547620 48.638571
L71.642858 48.590952
" />
<path d="M71.642858 48.590952
L71.833334 48.590952
" />
<path d="M71.833334 48.590952
L71.928572 48.638571
" />
<path d="M71.500001 49.210000
L71.595239 49.257619
" />
<path d="M71.595239 49.257619
L71.833334 49.257619
" />
<path d="M71.833334 49.257619
L71.928572 49.210000
" />
<path d="M71.928572 49.210000
L71.976191 49.114761
" />
<path d="M71.976191 49.114761
L71.976191 49.019523
" />
<path d="M71.976191 49.019523
L71.928572 48.924285
" />
<path d="M71.928572 48.924285
L71.833334 48.876666
" />
<path d="M71.833334 48.876666
L71.595239 48.876666
" />
<path d="M71.595239 48.876666
L71.500001 48.829047
" />
<path d="M70.880953 49.257619
L70.976191 49.210000
" />
<path d="M70.976191 49.210000
L71.023810 49.114761
" />
<path d="M71.023810 49.114761
L71.023810 48.257619
" />
<path d="M70.500000 49.257619
L70.500000 48.257619
" />
<path d="M70.500000 48.638571
L70.404762 48.590952
" />
<path d="M70.404762 48.590952
L70.214286 48.590952
" />
<path d="M70.214286 48.590952
L70.119048 48.638571
" />
<path d="M70.119048 48.638571
L70.071429 48.686190
" />
<path d="M70.071429 48.686190
L70.023810 48.781428
" />
<path d="M70.023810 48.781428
L70.023810 49.067142
" />
<path d="M70.023810 49.067142
L70.071429 49.162380
" />
<path d="M70.071429 49.162380
L70.119048 49.210000
" />
<path d="M70.119048 49.210000
L70.214286 49.257619
" />
<path d="M70.214286 49.257619
L70.404762 49.257619
" />
<path d="M70.404762 49.257619
L70.500000 49.210000
" />
<path d="M69.452381 49.257619
L69.547619 49.210000
" />
<path d="M69.547619 49.210000
L69.595238 49.162380
" />
<path d="M69.595238 49.162380
L69.642857 49.067142
" />
<path d="M69.642857 49.067142
L69.642857 48.781428
" />
<path d="M69.642857 48.781428
L69.595238 48.686190
" />
<path d="M69.595238 48.686190
L69.547619 48.638571
" />
<path d="M69.547619 48.638571
L69.452381 48.590952
" />
<path d="M69.452381 48.590952
L69.309524 48.590952
" />
<path d="M69.309524 48.590952
L69.214286 48.638571
" />
<path d="M69.214286 48.638571
L69.166667 48.686190
" />
<path d="M69.166667 48.686190
L69.119048 48.781428
" />
<path d="M69.119048 48.781428
L69.119048 49.067142
" />
<path d="M69.119048 49.067142
L69.166667 49.162380
" />
<path d="M69.166667 49.162380
L69.214286 49.210000
" />
<path d="M69.214286 49.210000
L69.309524 49.257619
" />
<path d="M69.309524 49.257619
L69.452381 49.257619
" />
<path d="M68.261905 49.257619
L68.261905 48.733809
" />
<path d="M68.261905 48.733809
L68.309524 48.638571
" />
<path d="M68.309524 48.638571
L68.404762 48.590952
" />
<path d="M68.404762 48.590952
L68.595238 48.590952
" />
<path d="M68.595238 48.590952
L68.690476 48.638571
" />
<path d="M68.261905 49.210000
L68.357143 49.257619
" />
<path d="M68.357143 49.257619
L68.595238 49.257619
" />
<path d="M68.595238 49.257619
L68.690476 49.210000
" />
<path d="M68.690476 49.210000
L68.738095 49.114761
" />
<path d="M68.738095 49.114761
L68.738095 49.019523
" />
<path d="M68.738095 49.019523
L68.690476 48.924285
" />
<path d="M68.690476 48.924285
L68.595238 48.876666
" />
<path d="M68.595238 48.876666
L68.357143 48.876666
" />
<path d="M68.357143 48.876666
L68.261905 48.829047
" />
<path d="M67.785714 49.257619
L67.785714 48.590952
" />
<path d="M67.785714 48.781428
L67.738095 48.686190
" />
<path d="M67.738095 48.686190
L67.690476 48.638571
" />
<path d="M67.690476 48.638571
L67.595238 48.590952
" />
<path d="M67.595238 48.590952
L67.500000 48.590952
" />
<path d="M66.738095 49.257619
L66.738095 48.257619
" />
<path d="M66.738095 49.210000
L66.833333 49.257619
" />
<path d="M66.833333 49.257619
L67.023809 49.257619
" />
<path d="M67.023809 49.257619
L67.119047 49.210000
" />
<path d="M67.119047 49.210000
L67.166666 49.162380
" />
<path d="M67.166666 49.162380
L67.214285 49.067142
" />
<path d="M67.214285 49.067142
L67.214285 48.781428
" />
<path d="M67.214285 48.781428
L67.166666 48.686190
" />
<path d="M67.166666 48.686190
L67.119047 48.638571
" />
<path d="M67.119047 48.638571
L67.023809 48.590952
" />
<path d="M67.023809 48.590952
L66.833333 48.590952
" />
<path d="M66.833333 48.590952
L66.738095 48.638571
" />
</g><text x="66.500000" y="51.000000"
transform="scale(-1 1) translate(-133.000000 0)"
textLength="8.222618" font-size="1.333333" lengthAdjust="spacingAndGlyphs"
text-anchor="end" opacity="0">BCB: 1.0.0</text>
<g class="stroked-text"><desc>BCB: 1.0.0</desc>
<path d="M73.976189 50.353809
L73.833332 50.401428
" />
<path d="M73.833332 50.401428
L73.785713 50.449047
" />
<path d="M73.785713 50.449047
L73.738094 50.544285
" />
<path d="M73.738094 50.544285
L73.738094 50.687142
" />
<path d="M73.738094 50.687142
L73.785713 50.782380
" />
<path d="M73.785713 50.782380
L73.833332 50.830000
" />
<path d="M73.833332 50.830000
L73.928570 50.877619
" />
<path d="M73.928570 50.877619
L74.309522 50.877619
" />
<path d="M74.309522 50.877619
L74.309522 49.877619
" />
<path d="M74.309522 49.877619
L73.976189 49.877619
" />
<path d="M73.976189 49.877619
L73.880951 49.925238
" />
<path d="M73.880951 49.925238
L73.833332 49.972857
" />
<path d="M73.833332 49.972857
L73.785713 50.068095
" />
<path d="M73.785713 50.068095
L73.785713 50.163333
" />
<path d="M73.785713 50.163333
L73.833332 50.258571
" />
<path d="M73.833332 50.258571
L73.880951 50.306190
" />
<path d="M73.880951 50.306190
L73.976189 50.353809
" />
<path d="M73.976189 50.353809
L74.309522 50.353809
" />
<path d="M72.738094 50.782380
L72.785713 50.830000
" />
<path d="M72.785713 50.830000
L72.928570 50.877619
" />
<path d="M72.928570 50.877619
L73.023808 50.877619
" />
<path d="M73.023808 50.877619
L73.166665 50.830000
" />
<path d="M73.166665 50.830000
L73.261903 50.734761
" />
<path d="M73.261903 50.734761
L73.309522 50.639523
" />
<path d="M73.309522 50.639523
L73.357141 50.449047
" />
<path d="M73.357141 50.449047
L73.357141 50.306190
" />
<path d="M73.357141 50.306190
L73.309522 50.115714
" />
<path d="M73.309522 50.115714
L73.261903 50.020476
" />
<path d="M73.261903 50.020476
L73.166665 49.925238
" />
<path d="M73.166665 49.925238
L73.023808 49.877619
" />
<path d="M73.023808 49.877619
L72.928570 49.877619
" />
<path d="M72.928570 49.877619
L72.785713 49.925238
" />
<path d="M72.785713 49.925238
L72.738094 49.972857
" />
<path d="M71.976189 50.353809
L71.833332 50.401428
" />
<path d="M71.833332 50.401428
L71.785713 50.449047
" />
<path d="M71.785713 50.449047
L71.738094 50.544285
" />
<path d="M71.738094 50.544285
L71.738094 50.687142
" />
<path d="M71.738094 50.687142
L71.785713 50.782380
" />
<path d="M71.785713 50.782380
L71.833332 50.830000
" />
<path d="M71.833332 50.830000
L71.928570 50.877619
" />
<path d="M71.928570 50.877619
L72.309522 50.877619
" />
<path d="M72.309522 50.877619
L72.309522 49.877619
" />
<path d="M72.309522 49.877619
L71.976189 49.877619
" />
<path d="M71.976189 49.877619
L71.880951 49.925238
" />
<path d="M71.880951 49.925238
L71.833332 49.972857
" />
<path d="M71.833332 49.972857
L71.785713 50.068095
" />
<path d="M71.785713 50.068095
L71.785713 50.163333
" />
<path d="M71.785713 50.163333
L71.833332 50.258571
" />
<path d="M71.833332 50.258571
L71.880951 50.306190
" />
<path d="M71.880951 50.306190
L71.976189 50.353809
" />
<path d="M71.976189 50.353809
L72.309522 50.353809
" />
<path d="M71.309522 50.782380
L71.261903 50.830000
" />
<path d="M71.261903 50.830000
L71.309522 50.877619
" />
<path d="M71.309522 50.877619
L71.357141 50.830000
" />
<path d="M71.357141 50.830000
L71.309522 50.782380
" />
<path d="M71.309522 50.782380
L71.309522 50.877619
" />
<path d="M71.309522 50.258571
L71.261903 50.306190
" />
<path d="M71.261903 50.306190
L71.309522 50.353809
" />
<path d="M71.309522 50.353809
L71.357141 50.306190
" />
<path d="M71.357141 50.306190
L71.309522 50.258571
" />
<path d="M71.309522 50.258571
L71.309522 50.353809
" />
<path d="M69.547618 50.877619
L70.119046 50.877619
" />
<path d="M69.833332 50.877619
L69.833332 49.877619
" />
<path d="M69.833332 49.877619
L69.928570 50.020476
" />
<path d="M69.928570 50.020476
L70.023808 50.115714
" />
<path d="M70.023808 50.115714
L70.119046 50.163333
" />
<path d="M69.119046 50.782380
L69.071427 50.830000
" />
<path d="M69.071427 50.830000
L69.119046 50.877619
" />
<path d="M69.119046 50.877619
L69.166665 50.830000
" />
<path d="M69.166665 50.830000
L69.119046 50.782380
" />
<path d="M69.119046 50.782380
L69.119046 50.877619
" />
<path d="M68.452380 49.877619
L68.357142 49.877619
" />
<path d="M68.357142 49.877619
L68.261904 49.925238
" />
<path d="M68.261904 49.925238
L68.214285 49.972857
" />
<path d="M68.214285 49.972857
L68.166666 50.068095
" />
<path d="M68.166666 50.068095
L68.119047 50.258571
" />
<path d="M68.119047 50.258571
L68.119047 50.496666
" />
<path d="M68.119047 50.496666
L68.166666 50.687142
" />
<path d="M68.166666 50.687142
L68.214285 50.782380
" />
<path d="M68.214285 50.782380
L68.261904 50.830000
" />
<path d="M68.261904 50.830000
L68.357142 50.877619
" />
<path d="M68.357142 50.877619
L68.452380 50.877619
" />
<path d="M68.452380 50.877619
L68.547618 50.830000
" />
<path d="M68.547618 50.830000
L68.595237 50.782380
" />
<path d="M68.595237 50.782380
L68.642856 50.687142
" />
<path d="M68.642856 50.687142
L68.690475 50.496666
" />
<path d="M68.690475 50.496666
L68.690475 50.258571
" />
<path d="M68.690475 50.258571
L68.642856 50.068095
" />
<path d="M68.642856 50.068095
L68.595237 49.972857
" />
<path d="M68.595237 49.972857
L68.547618 49.925238
" />
<path d="M68.547618 49.925238
L68.452380 49.877619
" />
<path d="M67.690475 50.782380
L67.642856 50.830000
" />
<path d="M67.642856 50.830000
L67.690475 50.877619
" />
<path d="M67.690475 50.877619
L67.738094 50.830000
" />
<path d="M67.738094 50.830000
L67.690475 50.782380
" />
<path d="M67.690475 50.782380
L67.690475 50.877619
" />
<path d="M67.023809 49.877619
L66.928571 49.877619
" />
<path d="M66.928571 49.877619
L66.833333 49.925238
" />
<path d="M66.833333 49.925238
L66.785714 49.972857
" />
<path d="M66.785714 49.972857
L66.738095 50.068095
" />
<path d="M66.738095 50.068095
L66.690476 50.258571
" />
<path d="M66.690476 50.258571
L66.690476 50.496666
" />
<path d="M66.690476 50.496666
L66.738095 50.687142
" />
<path d="M66.738095 50.687142
L66.785714 50.782380
" />
<path d="M66.785714 50.782380
L66.833333 50.830000
" />
<path d="M66.833333 50.830000
L66.928571 50.877619
" />
<path d="M66.928571 50.877619
L67.023809 50.877619
" />
<path d="M67.023809 50.877619
L67.119047 50.830000
" />
<path d="M67.119047 50.830000
L67.166666 50.782380
" />
<path d="M67.166666 50.782380
L67.214285 50.687142
" />
<path d="M67.214285 50.687142
L67.261904 50.496666
" />
<path d="M67.261904 50.496666
L67.261904 50.258571
" />
<path d="M67.261904 50.258571
L67.214285 50.068095
" />
<path d="M67.214285 50.068095
L67.166666 49.972857
" />
<path d="M67.166666 49.972857
L67.119047 49.925238
" />
<path d="M67.119047 49.925238
L67.023809 49.877619
" />
</g><text x="90.000000" y="55.500000"
transform="scale(-1 1) translate(-180.000000 0)"
textLength="2.175000" font-size="1.333333" lengthAdjust="spacingAndGlyphs"
text-anchor="middle" opacity="0">U1</text>
<g class="stroked-text"><desc>U1</desc>
<path d="M90.761904 54.462619
L90.761904 55.272142
" />
<path d="M90.761904 55.272142
L90.714285 55.367380
" />
<path d="M90.714285 55.367380
L90.666666 55.415000
" />
<path d="M90.666666 55.415000
L90.571428 55.462619
" />
<path d="M90.571428 55.462619
L90.380952 55.462619
" />
<path d="M90.380952 55.462619
L90.285714 55.415000
" />
<path d="M90.285714 55.415000
L90.238095 55.367380
" />
<path d="M90.238095 55.367380
L90.190476 55.272142
" />
<path d="M90.190476 55.272142
L90.190476 54.462619
" />
<path d="M89.190476 55.462619
L89.761904 55.462619
" />
<path d="M89.476190 55.462619
L89.476190 54.462619
" />
<path d="M89.476190 54.462619
L89.571428 54.605476
" />
<path d="M89.571428 54.605476
L89.666666 54.700714
" />
<path d="M89.666666 54.700714
L89.761904 54.748333
" />
</g><text x="88.300000" y="65.400000"
transform="scale(-1 1) translate(-176.600000 0)"
textLength="1.936905" font-size="1.333333" lengthAdjust="spacingAndGlyphs"
text-anchor="middle" opacity="0">L1</text>
<g class="stroked-text"><desc>L1</desc>
<path d="M88.466666 65.362619
L88.942856 65.362619
" />
<path d="M88.942856 65.362619
L88.942856 64.362619
" />
<path d="M87.609523 65.362619
L88.180951 65.362619
" />
<path d="M87.895237 65.362619
L87.895237 64.362619
" />
<path d="M87.895237 64.362619
L87.990475 64.505476
" />
<path d="M87.990475 64.505476
L88.085713 64.600714
" />
<path d="M88.085713 64.600714
L88.180951 64.648333
" />
</g><text x="91.900000" y="61.950000"
transform="scale(-1 1) translate(-183.800000 0)"
textLength="2.127381" font-size="1.333333" lengthAdjust="spacingAndGlyphs"
text-anchor="middle" opacity="0">C1</text>
<g class="stroked-text"><desc>C1</desc>
<path d="M92.066666 61.817380
L92.114285 61.865000
" />
<path d="M92.114285 61.865000
L92.257142 61.912619
" />
<path d="M92.257142 61.912619
L92.352380 61.912619
" />
<path d="M92.352380 61.912619
L92.495237 61.865000
" />
<path d="M92.495237 61.865000
L92.590475 61.769761
" />
<path d="M92.590475 61.769761
L92.638094 61.674523
" />
<path d="M92.638094 61.674523
L92.685713 61.484047
" />
<path d="M92.685713 61.484047
L92.685713 61.341190
" />
<path d="M92.685713 61.341190
L92.638094 61.150714
" />
<path d="M92.638094 61.150714
L92.590475 61.055476
" />
<path d="M92.590475 61.055476
L92.495237 60.960238
" />
<path d="M92.495237 60.960238
L92.352380 60.912619
" />
<path d="M92.352380 60.912619
L92.257142 60.912619
" />
<path d="M92.257142 60.912619
L92.114285 60.960238
" />
<path d="M92.114285 60.960238
L92.066666 61.007857
" />
<path d="M91.114285 61.912619
L91.685713 61.912619
" />
<path d="M91.399999 61.912619
L91.399999 60.912619
" />
<path d="M91.399999 60.912619
L91.495237 61.055476
" />
<path d="M91.495237 61.055476
L91.590475 61.150714
" />
<path d="M91.590475 61.150714
L91.685713 61.198333
" />
</g><text x="100.850000" y="72.400000"
transform="scale(-1 1) translate(-201.700000 0)"
textLength="1.889286" font-size="1.333333" lengthAdjust="spacingAndGlyphs"
text-anchor="middle" opacity="0">J1</text>
<g class="stroked-text"><desc>J1</desc>
<path d="M101.183333 71.362619
L101.183333 72.076904
" />
<path d="M101.183333 72.076904
L101.230952 72.219761
" />
<path d="M101.230952 72.219761
L101.326190 72.315000
" />
<path d="M101.326190 72.315000
L101.469047 72.362619
" />
<path d="M101.469047 72.362619
L101.564285 72.362619
" />
<path d="M100.183333 72.362619
L100.754761 72.362619
" />
<path d="M100.469047 72.362619
L100.469047 71.362619
" />
<path d="M100.469047 71.362619
L100.564285 71.505476
" />
<path d="M100.564285 71.505476
L100.659523 71.600714
" />
<path d="M100.659523 71.600714
L100.754761 71.648333
" />
</g><g transform="rotate(-90.000000 82.700000 72.800000)">
<text x="82.700000" y="73.125000"
transform="scale(-1 1) translate(-165.400000 0)"
textLength="1.514048" font-size="0.866666" lengthAdjust="spacingAndGlyphs"
text-anchor="middle" opacity="0">R2</text>
</g>
<g class="stroked-text"><desc>R2</desc>
<path d="M83.000702 72.691666
L82.691178 72.474999
" />
<path d="M83.000702 72.320237
L82.350702 72.320237
" />
<path d="M82.350702 72.320237
L82.350702 72.567856
" />
<path d="M82.350702 72.567856
L82.381654 72.629761
" />
<path d="M82.381654 72.629761
L82.412607 72.660714
" />
<path d="M82.412607 72.660714
L82.474511 72.691666
" />
<path d="M82.474511 72.691666
L82.567369 72.691666
" />
<path d="M82.567369 72.691666
L82.629273 72.660714
" />
<path d="M82.629273 72.660714
L82.660226 72.629761
" />
<path d="M82.660226 72.629761
L82.691178 72.567856
" />
<path d="M82.691178 72.567856
L82.691178 72.320237
" />
<path d="M82.412607 72.939285
L82.381654 72.970237
" />
<path d="M82.381654 72.970237
L82.350702 73.032142
" />
<path d="M82.350702 73.032142
L82.350702 73.186904
" />
<path d="M82.350702 73.186904
L82.381654 73.248809
" />
<path d="M82.381654 73.248809
L82.412607 73.279761
" />
<path d="M82.412607 73.279761
L82.474511 73.310714
" />
<path d="M82.474511 73.310714
L82.536416 73.310714
" />
<path d="M82.536416 73.310714
L82.629273 73.279761
" />
<path d="M82.629273 73.279761
L83.000702 72.908333
" />
<path d="M83.000702 72.908333
L83.000702 73.310714
" />
</g><g transform="rotate(-90.000000 101.300000 53.100000)">
<text x="101.300000" y="53.425000"
transform="scale(-1 1) translate(-202.600000 0)"
textLength="1.514048" font-size="0.866666" lengthAdjust="spacingAndGlyphs"
text-anchor="middle" opacity="0">R1</text>
</g>
<g class="stroked-text"><desc>R1</desc>
<path d="M101.600702 52.991666
L101.291178 52.774999
" />
<path d="M101.600702 52.620237
L100.950702 52.620237
" />
<path d="M100.950702 52.620237
L100.950702 52.867856
" />
<path d="M100.950702 52.867856
L100.981654 52.929761
" />
<path d="M100.981654 52.929761
L101.012607 52.960714
" />
<path d="M101.012607 52.960714
L101.074511 52.991666
" />
<path d="M101.074511 52.991666
L101.167369 52.991666
" />
<path d="M101.167369 52.991666
L101.229273 52.960714
" />
<path d="M101.229273 52.960714
L101.260226 52.929761
" />
<path d="M101.260226 52.929761
L101.291178 52.867856
" />
<path d="M101.291178 52.867856
L101.291178 52.620237
" />
<path d="M101.600702 53.610714
L101.600702 53.239285
" />
<path d="M101.600702 53.424999
L100.950702 53.424999
" />
<path d="M100.950702 53.424999
L101.043559 53.363095
" />
<path d="M101.043559 53.363095
L101.105464 53.301190
" />
<path d="M101.105464 53.301190
L101.136416 53.239285
" />
</g><text x="88.350000" y="73.900000"
transform="scale(-1 1) translate(-176.700000 0)"
textLength="1.635000" font-size="0.933333" lengthAdjust="spacingAndGlyphs"
text-anchor="middle" opacity="0">U2</text>
<g class="stroked-text"><desc>U2</desc>
<path d="M88.883333 73.173833
L88.883333 73.740500
" />
<path d="M88.883333 73.740500
L88.850000 73.807166
" />
<path d="M88.850000 73.807166
L88.816666 73.840500
" />
<path d="M88.816666 73.840500
L88.750000 73.873833
" />
<path d="M88.750000 73.873833
L88.616666 73.873833
" />
<path d="M88.616666 73.873833
L88.550000 73.840500
" />
<path d="M88.550000 73.840500
L88.516666 73.807166
" />
<path d="M88.516666 73.807166
L88.483333 73.740500
" />
<path d="M88.483333 73.740500
L88.483333 73.173833
" />
<path d="M88.183333 73.240500
L88.150000 73.207166
" />
<path d="M88.150000 73.207166
L88.083333 73.173833
" />
<path d="M88.083333 73.173833
L87.916667 73.173833
" />
<path d="M87.916667 73.173833
L87.850000 73.207166
" />
<path d="M87.850000 73.207166
L87.816667 73.240500
" />
<path d="M87.816667 73.240500
L87.783333 73.307166
" />
<path d="M87.783333 73.307166
L87.783333 73.373833
" />
<path d="M87.783333 73.373833
L87.816667 73.473833
" />
<path d="M87.816667 73.473833
L88.216667 73.873833
" />
<path d="M88.216667 73.873833
L87.783333 73.873833
" />
</g><g transform="rotate(-90.000000 96.120000 57.500000)">
<text x="96.120000" y="58.000000"
transform="scale(-1 1) translate(-192.240000 0)"
textLength="2.127381" font-size="1.333333" lengthAdjust="spacingAndGlyphs"
text-anchor="middle" opacity="0">C2</text>
</g>
<g class="stroked-text"><desc>C2</desc>
<path d="M96.487380 57.333333
L96.535000 57.285714
" />
<path d="M96.535000 57.285714
L96.582619 57.142857
" />
<path d="M96.582619 57.142857
L96.582619 57.047619
" />
<path d="M96.582619 57.047619
L96.535000 56.904762
" />
<path d="M96.535000 56.904762
L96.439761 56.809524
" />
<path d="M96.439761 56.809524
L96.344523 56.761905
" />
<path d="M96.344523 56.761905
L96.154047 56.714286
" />
<path d="M96.154047 56.714286
L96.011190 56.714286
" />
<path d="M96.011190 56.714286
L95.820714 56.761905
" />
<path d="M95.820714 56.761905
L95.725476 56.809524
" />
<path d="M95.725476 56.809524
L95.630238 56.904762
" />
<path d="M95.630238 56.904762
L95.582619 57.047619
" />
<path d="M95.582619 57.047619
L95.582619 57.142857
" />
<path d="M95.582619 57.142857
L95.630238 57.285714
" />
<path d="M95.630238 57.285714
L95.677857 57.333333
" />
<path d="M95.677857 57.714286
L95.630238 57.761905
" />
<path d="M95.630238 57.761905
L95.582619 57.857143
" />
<path d="M95.582619 57.857143
L95.582619 58.095238
" />
<path d="M95.582619 58.095238
L95.630238 58.190476
" />
<path d="M95.630238 58.190476
L95.677857 58.238095
" />
<path d="M95.677857 58.238095
L95.773095 58.285714
" />
<path d="M95.773095 58.285714
L95.868333 58.285714
" />
<path d="M95.868333 58.285714
L96.011190 58.238095
" />
<path d="M96.011190 58.238095
L96.582619 57.666667
" />
<path d="M96.582619 57.666667
L96.582619 58.285714
" />
</g><text x="83.100000" y="68.000000"
transform="scale(-1 1) translate(-166.200000 0)"
textLength="2.127381" font-size="1.333333" lengthAdjust="spacingAndGlyphs"
text-anchor="middle" opacity="0">C4</text>
<g class="stroked-text"><desc>C4</desc>
<path d="M83.266666 67.867380
L83.314285 67.915000
" />
<path d="M83.314285 67.915000
L83.457142 67.962619
" />
<path d="M83.457142 67.962619
L83.552380 67.962619
" />
<path d="M83.552380 67.962619
L83.695237 67.915000
" />
<path d="M83.695237 67.915000
L83.790475 67.819761
" />
<path d="M83.790475 67.819761
L83.838094 67.724523
" />
<path d="M83.838094 67.724523
L83.885713 67.534047
" />
<path d="M83.885713 67.534047
L83.885713 67.391190
" />
<path d="M83.885713 67.391190
L83.838094 67.200714
" />
<path d="M83.838094 67.200714
L83.790475 67.105476
" />
<path d="M83.790475 67.105476
L83.695237 67.010238
" />
<path d="M83.695237 67.010238
L83.552380 66.962619
" />
<path d="M83.552380 66.962619
L83.457142 66.962619
" />
<path d="M83.457142 66.962619
L83.314285 67.010238
" />
<path d="M83.314285 67.010238
L83.266666 67.057857
" />
<path d="M82.409523 67.295952
L82.409523 67.962619
" />
<path d="M82.647618 66.915000
L82.885713 67.629285
" />
<path d="M82.885713 67.629285
L82.266666 67.629285
" />
</g><text x="92.300000" y="73.700000"
transform="scale(-1 1) translate(-184.600000 0)"
textLength="2.127381" font-size="1.333333" lengthAdjust="spacingAndGlyphs"
text-anchor="middle" opacity="0">C3</text>
<g class="stroked-text"><desc>C3</desc>
<path d="M92.466666 73.567380
L92.514285 73.615000
" />
<path d="M92.514285 73.615000
L92.657142 73.662619
" />
<path d="M92.657142 73.662619
L92.752380 73.662619
" />
<path d="M92.752380 73.662619
L92.895237 73.615000
" />
<path d="M92.895237 73.615000
L92.990475 73.519761
" />
<path d="M92.990475 73.519761
L93.038094 73.424523
" />
<path d="M93.038094 73.424523
L93.085713 73.234047
" />
<path d="M93.085713 73.234047
L93.085713 73.091190
" />
<path d="M93.085713 73.091190
L93.038094 72.900714
" />
<path d="M93.038094 72.900714
L92.990475 72.805476
" />
<path d="M92.990475 72.805476
L92.895237 72.710238
" />
<path d="M92.895237 72.710238
L92.752380 72.662619
" />
<path d="M92.752380 72.662619
L92.657142 72.662619
" />
<path d="M92.657142 72.662619
L92.514285 72.710238
" />
<path d="M92.514285 72.710238
L92.466666 72.757857
" />
<path d="M92.133332 72.662619
L91.514285 72.662619
" />
<path d="M91.514285 72.662619
L91.847618 73.043571
" />
<path d="M91.847618 73.043571
L91.704761 73.043571
" />
<path d="M91.704761 73.043571
L91.609523 73.091190
" />
<path d="M91.609523 73.091190
L91.561904 73.138809
" />
<path d="M91.561904 73.138809
L91.514285 73.234047
" />
<path d="M91.514285 73.234047
L91.514285 73.472142
" />
<path d="M91.514285 73.472142
L91.561904 73.567380
" />
<path d="M91.561904 73.567380
L91.609523 73.615000
" />
<path d="M91.609523 73.615000
L91.704761 73.662619
" />
<path d="M91.704761 73.662619
L91.990475 73.662619
" />
<path d="M91.990475 73.662619
L92.085713 73.615000
" />
<path d="M92.085713 73.615000
L92.133332 73.567380
" />
</g></g>
<g style="fill:#000000; fill-opacity:0.0; 
stroke:#000000; stroke-width:0.120000; stroke-opacity:1; 
stroke-linecap:round; stroke-linejoin:round;">
<path d="M94.900000 50.240000
L92.950000 50.240000
" />
<path d="M94.900000 50.240000
L96.850000 50.240000
" />
<path d="M94.900000 55.360000
L91.450000 55.360000
" />
<path d="M94.900000 55.360000
L96.850000 55.360000
" />
</g>
<g style="fill:#000000; fill-opacity:0.0; 
stroke:#000000; stroke-width:0.127000; stroke-opacity:1; 
stroke-linecap:round; stroke-linejoin:round;">
<path d="M86.300000 68.413500
L89.500000 68.413500
" />
<path d="M89.500000 65.786500
L86.300000 65.786500
" />
</g>
<g style="fill:#000000; fill-opacity:0.0; 
stroke:#000000; stroke-width:0.120000; stroke-opacity:1; 
stroke-linecap:round; stroke-linejoin:round;">
<path d="M91.188748 58.690000
L92.611252 58.690000
" />
<path d="M91.188748 60.510000
L92.611252 60.510000
" />
<path d="M100.370000 65.400000
L100.370000 70.600000
" />
<path d="M99.800000 65.400000
L100.370000 65.400000
" />
<path d="M97.260000 65.400000
L98.280000 65.400000
" />
<path d="M94.720000 65.400000
L95.740000 65.400000
" />
<path d="M92.630000 65.400000
L93.200000 65.400000
" />
<path d="M92.630000 65.400000
L92.630000 70.600000
" />
<path d="M99.800000 70.600000
L100.370000 70.600000
" />
<path d="M97.260000 70.600000
L98.280000 70.600000
" />
<path d="M94.720000 70.600000
L95.740000 70.600000
" />
<path d="M93.200000 70.600000
L93.200000 71.960000
" />
<path d="M92.630000 70.600000
L93.200000 70.600000
" />
</g>
<g style="fill:#000000; fill-opacity:0.0; 
stroke:#000000; stroke-width:0.150000; stroke-opacity:1; 
stroke-linecap:round; stroke-linejoin:round;">
<path d="M83.300000 71.150000
L83.300000 72.850000
" />
<path d="M84.700000 72.850000
L84.700000 71.150000
" />
<path d="M100.500000 53.450000
L100.500000 51.750000
" />
<path d="M99.100000 51.750000
L99.100000 53.450000
" />
<path d="M87.400000 73.625000
L85.400000 73.625000
" />
<path d="M86.400000 70.375000
L85.400000 70.375000
" />
</g>
<g style="fill:#000000; fill-opacity:0.0; 
stroke:#000000; stroke-width:0.120000; stroke-opacity:1; 
stroke-linecap:round; stroke-linejoin:round;">
<path d="M98.535000 57.238748
L98.535000 57.761252
" />
<path d="M97.065000 57.238748
L97.065000 57.761252
" />
<path d="M83.161252 70.035000
L82.638748 70.035000
" />
<path d="M83.161252 68.565000
L82.638748 68.565000
" />
<path d="M89.090000 71.811252
L89.090000 70.388748
" />
<path d="M90.910000 71.811252
L90.910000 70.388748
" />
<g >
</g>
<g >
</g>
<g >
</g>
<g >
</g>
<g >
</g>
<g >
</g>
<g >
</g>
<g >
</g>
<g >
</g>
<g >
</g>
<g >
</g>
<g >
</g>
<g >
</g>
<g >
</g>
<g >
</g>
<g >
</g>
<g >
</g>
<g >
</g>
<g >
</g>
</g> 
</svg>
