<?xml version="1.0" standalone="no"?>
 <!DOCTYPE svg PUBLIC "-//W3C//DTD SVG 1.1//EN" 
 "http://www.w3.org/Graphics/SVG/1.1/DTD/svg11.dtd"> 
<svg
  xmlns:svg="http://www.w3.org/2000/svg"
  xmlns="http://www.w3.org/2000/svg"
  xmlns:xlink="http://www.w3.org/1999/xlink"
  version="1.1"
  width="3.2100000000000004cm" height="3.2100000000000004cm" viewBox="63.95 43.95 32.1 32.1">
<title>SVG Image created as pedalboard-led-ring-B_SilkS.svg date 2023/06/03 12:32:13 </title>
  <desc>Image generated by PCBNEW </desc>
<g style="fill:#000000; fill-opacity:1.000000;stroke:#000000; stroke-opacity:1.000000;
stroke-linecap:round; stroke-linejoin:round;"
 transform="translate(0 0) scale(1 1)">
</g>
<g style="fill:#000000; fill-opacity:0.0; 
stroke:#000000; stroke-width:0.000000; stroke-opacity:1; 
stroke-linecap:round; stroke-linejoin:round;">
</g>
<g style="fill:#000000; fill-opacity:0.0; 
stroke:#000000; stroke-width:0.100000; stroke-opacity:1; 
stroke-linecap:round; stroke-linejoin:round;">
<circle cx="80.000000" cy="60.000000" r="7.050000" /> 
</g>
<g style="fill:#000000; fill-opacity:0.0; 
stroke:#000000; stroke-width:0.150000; stroke-opacity:1; 
stroke-linecap:round; stroke-linejoin:round;">
<g transform="rotate(-90.000000 89.500000 53.500000)">
<text x="89.500000" y="53.500000"
transform="scale(-1 1) translate(-179.000000 0)"
textLength="1.332143" font-size="1.000000" lengthAdjust="spacingAndGlyphs"
text-anchor="start" opacity="0">DI</text>
</g>
<g class="stroked-text"><desc>DI</desc>
<path d="M89.400414 53.777255
L88.650414 53.777255
" />
<path d="M88.650414 53.777255
L88.650414 53.955826
" />
<path d="M88.650414 53.955826
L88.686128 54.062969
" />
<path d="M88.686128 54.062969
L88.757557 54.134398
" />
<path d="M88.757557 54.134398
L88.828985 54.170112
" />
<path d="M88.828985 54.170112
L88.971842 54.205826
" />
<path d="M88.971842 54.205826
L89.078985 54.205826
" />
<path d="M89.078985 54.205826
L89.221842 54.170112
" />
<path d="M89.221842 54.170112
L89.293271 54.134398
" />
<path d="M89.293271 54.134398
L89.364700 54.062969
" />
<path d="M89.364700 54.062969
L89.400414 53.955826
" />
<path d="M89.400414 53.955826
L89.400414 53.777255
" />
<path d="M89.400414 54.527255
L88.650414 54.527255
" />
</g><g transform="rotate(-90.000000 90.000000 65.500000)">
<text x="90.000000" y="65.500000"
transform="scale(-1 1) translate(-180.000000 0)"
textLength="1.689286" font-size="1.000000" lengthAdjust="spacingAndGlyphs"
text-anchor="start" opacity="0">D0</text>
</g>
<g class="stroked-text"><desc>D0</desc>
<path d="M89.900414 65.777255
L89.150414 65.777255
" />
<path d="M89.150414 65.777255
L89.150414 65.955826
" />
<path d="M89.150414 65.955826
L89.186128 66.062969
" />
<path d="M89.186128 66.062969
L89.257557 66.134398
" />
<path d="M89.257557 66.134398
L89.328985 66.170112
" />
<path d="M89.328985 66.170112
L89.471842 66.205826
" />
<path d="M89.471842 66.205826
L89.578985 66.205826
" />
<path d="M89.578985 66.205826
L89.721842 66.170112
" />
<path d="M89.721842 66.170112
L89.793271 66.134398
" />
<path d="M89.793271 66.134398
L89.864700 66.062969
" />
<path d="M89.864700 66.062969
L89.900414 65.955826
" />
<path d="M89.900414 65.955826
L89.900414 65.777255
" />
<path d="M89.150414 66.670112
L89.150414 66.741541
" />
<path d="M89.150414 66.741541
L89.186128 66.812969
" />
<path d="M89.186128 66.812969
L89.221842 66.848684
" />
<path d="M89.221842 66.848684
L89.293271 66.884398
" />
<path d="M89.293271 66.884398
L89.436128 66.920112
" />
<path d="M89.436128 66.920112
L89.614700 66.920112
" />
<path d="M89.614700 66.920112
L89.757557 66.884398
" />
<path d="M89.757557 66.884398
L89.828985 66.848684
" />
<path d="M89.828985 66.848684
L89.864700 66.812969
" />
<path d="M89.864700 66.812969
L89.900414 66.741541
" />
<path d="M89.900414 66.741541
L89.900414 66.670112
" />
<path d="M89.900414 66.670112
L89.864700 66.598684
" />
<path d="M89.864700 66.598684
L89.828985 66.562969
" />
<path d="M89.828985 66.562969
L89.757557 66.527255
" />
<path d="M89.757557 66.527255
L89.614700 66.491541
" />
<path d="M89.614700 66.491541
L89.436128 66.491541
" />
<path d="M89.436128 66.491541
L89.293271 66.527255
" />
<path d="M89.293271 66.527255
L89.221842 66.562969
" />
<path d="M89.221842 66.562969
L89.186128 66.598684
" />
<path d="M89.186128 66.598684
L89.150414 66.670112
" />
</g><text x="94.500000" y="73.000000"
transform="scale(-1 1) translate(-189.000000 0)"
textLength="2.367857" font-size="1.000000" lengthAdjust="spacingAndGlyphs"
text-anchor="start" opacity="0">VCC</text>
<g class="stroked-text"><desc>VCC</desc>
<path d="M94.329887 72.150414
L94.079887 72.900414
" />
<path d="M94.079887 72.900414
L93.829887 72.150414
" />
<path d="M93.151316 72.828985
L93.187030 72.864700
" />
<path d="M93.187030 72.864700
L93.294173 72.900414
" />
<path d="M93.294173 72.900414
L93.365601 72.900414
" />
<path d="M93.365601 72.900414
L93.472744 72.864700
" />
<path d="M93.472744 72.864700
L93.544173 72.793271
" />
<path d="M93.544173 72.793271
L93.579887 72.721842
" />
<path d="M93.579887 72.721842
L93.615601 72.578985
" />
<path d="M93.615601 72.578985
L93.615601 72.471842
" />
<path d="M93.615601 72.471842
L93.579887 72.328985
" />
<path d="M93.579887 72.328985
L93.544173 72.257557
" />
<path d="M93.544173 72.257557
L93.472744 72.186128
" />
<path d="M93.472744 72.186128
L93.365601 72.150414
" />
<path d="M93.365601 72.150414
L93.294173 72.150414
" />
<path d="M93.294173 72.150414
L93.187030 72.186128
" />
<path d="M93.187030 72.186128
L93.151316 72.221842
" />
<path d="M92.401316 72.828985
L92.437030 72.864700
" />
<path d="M92.437030 72.864700
L92.544173 72.900414
" />
<path d="M92.544173 72.900414
L92.615601 72.900414
" />
<path d="M92.615601 72.900414
L92.722744 72.864700
" />
<path d="M92.722744 72.864700
L92.794173 72.793271
" />
<path d="M92.794173 72.793271
L92.829887 72.721842
" />
<path d="M92.829887 72.721842
L92.865601 72.578985
" />
<path d="M92.865601 72.578985
L92.865601 72.471842
" />
<path d="M92.865601 72.471842
L92.829887 72.328985
" />
<path d="M92.829887 72.328985
L92.794173 72.257557
" />
<path d="M92.794173 72.257557
L92.722744 72.186128
" />
<path d="M92.722744 72.186128
L92.615601 72.150414
" />
<path d="M92.615601 72.150414
L92.544173 72.150414
" />
<path d="M92.544173 72.150414
L92.437030 72.186128
" />
<path d="M92.437030 72.186128
L92.401316 72.221842
" />
</g><g transform="rotate(-90.000000 91.500000 65.000000)">
<text x="91.500000" y="65.000000"
transform="scale(-1 1) translate(-183.000000 0)"
textLength="2.510714" font-size="1.000000" lengthAdjust="spacingAndGlyphs"
text-anchor="start" opacity="0">GND</text>
</g>
<g class="stroked-text"><desc>GND</desc>
<path d="M90.686128 65.670112
L90.650414 65.598684
" />
<path d="M90.650414 65.598684
L90.650414 65.491541
" />
<path d="M90.650414 65.491541
L90.686128 65.384398
" />
<path d="M90.686128 65.384398
L90.757557 65.312969
" />
<path d="M90.757557 65.312969
L90.828985 65.277255
" />
<path d="M90.828985 65.277255
L90.971842 65.241541
" />
<path d="M90.971842 65.241541
L91.078985 65.241541
" />
<path d="M91.078985 65.241541
L91.221842 65.277255
" />
<path d="M91.221842 65.277255
L91.293271 65.312969
" />
<path d="M91.293271 65.312969
L91.364700 65.384398
" />
<path d="M91.364700 65.384398
L91.400414 65.491541
" />
<path d="M91.400414 65.491541
L91.400414 65.562969
" />
<path d="M91.400414 65.562969
L91.364700 65.670112
" />
<path d="M91.364700 65.670112
L91.328985 65.705826
" />
<path d="M91.328985 65.705826
L91.078985 65.705826
" />
<path d="M91.078985 65.705826
L91.078985 65.562969
" />
<path d="M91.400414 66.027255
L90.650414 66.027255
" />
<path d="M90.650414 66.027255
L91.400414 66.455826
" />
<path d="M91.400414 66.455826
L90.650414 66.455826
" />
<path d="M91.400414 66.812969
L90.650414 66.812969
" />
<path d="M90.650414 66.812969
L90.650414 66.991540
" />
<path d="M90.650414 66.991540
L90.686128 67.098683
" />
<path d="M90.686128 67.098683
L90.757557 67.170112
" />
<path d="M90.757557 67.170112
L90.828985 67.205826
" />
<path d="M90.828985 67.205826
L90.971842 67.241540
" />
<path d="M90.971842 67.241540
L91.078985 67.241540
" />
<path d="M91.078985 67.241540
L91.221842 67.205826
" />
<path d="M91.221842 67.205826
L91.293271 67.170112
" />
<path d="M91.293271 67.170112
L91.364700 67.098683
" />
<path d="M91.364700 67.098683
L91.400414 66.991540
" />
<path d="M91.400414 66.991540
L91.400414 66.812969
" />
</g><text x="85.000000" y="71.500000"
transform="scale(-1 1) translate(-170.000000 0)"
textLength="2.510714" font-size="1.000000" lengthAdjust="spacingAndGlyphs"
text-anchor="start" opacity="0">GND</text>
<g class="stroked-text"><desc>GND</desc>
<path d="M84.329887 70.686128
L84.401316 70.650414
" />
<path d="M84.401316 70.650414
L84.508458 70.650414
" />
<path d="M84.508458 70.650414
L84.615601 70.686128
" />
<path d="M84.615601 70.686128
L84.687030 70.757557
" />
<path d="M84.687030 70.757557
L84.722744 70.828985
" />
<path d="M84.722744 70.828985
L84.758458 70.971842
" />
<path d="M84.758458 70.971842
L84.758458 71.078985
" />
<path d="M84.758458 71.078985
L84.722744 71.221842
" />
<path d="M84.722744 71.221842
L84.687030 71.293271
" />
<path d="M84.687030 71.293271
L84.615601 71.364700
" />
<path d="M84.615601 71.364700
L84.508458 71.400414
" />
<path d="M84.508458 71.400414
L84.437030 71.400414
" />
<path d="M84.437030 71.400414
L84.329887 71.364700
" />
<path d="M84.329887 71.364700
L84.294173 71.328985
" />
<path d="M84.294173 71.328985
L84.294173 71.078985
" />
<path d="M84.294173 71.078985
L84.437030 71.078985
" />
<path d="M83.972744 71.400414
L83.972744 70.650414
" />
<path d="M83.972744 70.650414
L83.544173 71.400414
" />
<path d="M83.544173 71.400414
L83.544173 70.650414
" />
<path d="M83.187030 71.400414
L83.187030 70.650414
" />
<path d="M83.187030 70.650414
L83.008459 70.650414
" />
<path d="M83.008459 70.650414
L82.901316 70.686128
" />
<path d="M82.901316 70.686128
L82.829887 70.757557
" />
<path d="M82.829887 70.757557
L82.794173 70.828985
" />
<path d="M82.794173 70.828985
L82.758459 70.971842
" />
<path d="M82.758459 70.971842
L82.758459 71.078985
" />
<path d="M82.758459 71.078985
L82.794173 71.221842
" />
<path d="M82.794173 71.221842
L82.829887 71.293271
" />
<path d="M82.829887 71.293271
L82.901316 71.364700
" />
<path d="M82.901316 71.364700
L83.008459 71.400414
" />
<path d="M83.008459 71.400414
L83.187030 71.400414
" />
</g><text x="94.500000" y="68.000000"
transform="scale(-1 1) translate(-189.000000 0)"
textLength="1.332143" font-size="1.000000" lengthAdjust="spacingAndGlyphs"
text-anchor="start" opacity="0">DI</text>
<g class="stroked-text"><desc>DI</desc>
<path d="M94.222744 67.900414
L94.222744 67.150414
" />
<path d="M94.222744 67.150414
L94.044173 67.150414
" />
<path d="M94.044173 67.150414
L93.937030 67.186128
" />
<path d="M93.937030 67.186128
L93.865601 67.257557
" />
<path d="M93.865601 67.257557
L93.829887 67.328985
" />
<path d="M93.829887 67.328985
L93.794173 67.471842
" />
<path d="M93.794173 67.471842
L93.794173 67.578985
" />
<path d="M93.794173 67.578985
L93.829887 67.721842
" />
<path d="M93.829887 67.721842
L93.865601 67.793271
" />
<path d="M93.865601 67.793271
L93.937030 67.864700
" />
<path d="M93.937030 67.864700
L94.044173 67.900414
" />
<path d="M94.044173 67.900414
L94.222744 67.900414
" />
<path d="M93.472744 67.900414
L93.472744 67.150414
" />
</g><g transform="rotate(-90.000000 91.500000 53.000000)">
<text x="91.500000" y="53.000000"
transform="scale(-1 1) translate(-183.000000 0)"
textLength="2.367857" font-size="1.000000" lengthAdjust="spacingAndGlyphs"
text-anchor="start" opacity="0">VCC</text>
</g>
<g class="stroked-text"><desc>VCC</desc>
<path d="M90.650414 53.170112
L91.400414 53.420112
" />
<path d="M91.400414 53.420112
L90.650414 53.670112
" />
<path d="M91.328985 54.348683
L91.364700 54.312969
" />
<path d="M91.364700 54.312969
L91.400414 54.205826
" />
<path d="M91.400414 54.205826
L91.400414 54.134398
" />
<path d="M91.400414 54.134398
L91.364700 54.027255
" />
<path d="M91.364700 54.027255
L91.293271 53.955826
" />
<path d="M91.293271 53.955826
L91.221842 53.920112
" />
<path d="M91.221842 53.920112
L91.078985 53.884398
" />
<path d="M91.078985 53.884398
L90.971842 53.884398
" />
<path d="M90.971842 53.884398
L90.828985 53.920112
" />
<path d="M90.828985 53.920112
L90.757557 53.955826
" />
<path d="M90.757557 53.955826
L90.686128 54.027255
" />
<path d="M90.686128 54.027255
L90.650414 54.134398
" />
<path d="M90.650414 54.134398
L90.650414 54.205826
" />
<path d="M90.650414 54.205826
L90.686128 54.312969
" />
<path d="M90.686128 54.312969
L90.721842 54.348683
" />
<path d="M91.328985 55.098683
L91.364700 55.062969
" />
<path d="M91.364700 55.062969
L91.400414 54.955826
" />
<path d="M91.400414 54.955826
L91.400414 54.884398
" />
<path d="M91.400414 54.884398
L91.364700 54.777255
" />
<path d="M91.364700 54.777255
L91.293271 54.705826
" />
<path d="M91.293271 54.705826
L91.221842 54.670112
" />
<path d="M91.221842 54.670112
L91.078985 54.634398
" />
<path d="M91.078985 54.634398
L90.971842 54.634398
" />
<path d="M90.971842 54.634398
L90.828985 54.670112
" />
<path d="M90.828985 54.670112
L90.757557 54.705826
" />
<path d="M90.757557 54.705826
L90.686128 54.777255
" />
<path d="M90.686128 54.777255
L90.650414 54.884398
" />
<path d="M90.650414 54.884398
L90.650414 54.955826
" />
<path d="M90.650414 54.955826
L90.686128 55.062969
" />
<path d="M90.686128 55.062969
L90.721842 55.098683
" />
</g></g>
<g style="fill:#000000; fill-opacity:0.0; 
stroke:#000000; stroke-width:0.125000; stroke-opacity:1; 
stroke-linecap:round; stroke-linejoin:round;">
<text x="90.000000" y="74.500000"
transform="scale(-1 1) translate(-180.000000 0)"
textLength="4.236307" font-size="0.666666" lengthAdjust="spacingAndGlyphs"
text-anchor="middle" opacity="0">PCB: 1.0.0</text>
<g class="stroked-text"><desc>PCB: 1.0.0</desc>
<path d="M91.892855 74.432309
L91.892855 73.932309
" />
<path d="M91.892855 73.932309
L91.702379 73.932309
" />
<path d="M91.702379 73.932309
L91.654760 73.956119
" />
<path d="M91.654760 73.956119
L91.630950 73.979928
" />
<path d="M91.630950 73.979928
L91.607141 74.027547
" />
<path d="M91.607141 74.027547
L91.607141 74.098976
" />
<path d="M91.607141 74.098976
L91.630950 74.146595
" />
<path d="M91.630950 74.146595
L91.654760 74.170404
" />
<path d="M91.654760 74.170404
L91.702379 74.194214
" />
<path d="M91.702379 74.194214
L91.892855 74.194214
" />
<path d="M91.107141 74.384690
L91.130950 74.408500
" />
<path d="M91.130950 74.408500
L91.202379 74.432309
" />
<path d="M91.202379 74.432309
L91.249998 74.432309
" />
<path d="M91.249998 74.432309
L91.321426 74.408500
" />
<path d="M91.321426 74.408500
L91.369045 74.360880
" />
<path d="M91.369045 74.360880
L91.392855 74.313261
" />
<path d="M91.392855 74.313261
L91.416664 74.218023
" />
<path d="M91.416664 74.218023
L91.416664 74.146595
" />
<path d="M91.416664 74.146595
L91.392855 74.051357
" />
<path d="M91.392855 74.051357
L91.369045 74.003738
" />
<path d="M91.369045 74.003738
L91.321426 73.956119
" />
<path d="M91.321426 73.956119
L91.249998 73.932309
" />
<path d="M91.249998 73.932309
L91.202379 73.932309
" />
<path d="M91.202379 73.932309
L91.130950 73.956119
" />
<path d="M91.130950 73.956119
L91.107141 73.979928
" />
<path d="M90.726188 74.170404
L90.654760 74.194214
" />
<path d="M90.654760 74.194214
L90.630950 74.218023
" />
<path d="M90.630950 74.218023
L90.607141 74.265642
" />
<path d="M90.607141 74.265642
L90.607141 74.337071
" />
<path d="M90.607141 74.337071
L90.630950 74.384690
" />
<path d="M90.630950 74.384690
L90.654760 74.408500
" />
<path d="M90.654760 74.408500
L90.702379 74.432309
" />
<path d="M90.702379 74.432309
L90.892855 74.432309
" />
<path d="M90.892855 74.432309
L90.892855 73.932309
" />
<path d="M90.892855 73.932309
L90.726188 73.932309
" />
<path d="M90.726188 73.932309
L90.678569 73.956119
" />
<path d="M90.678569 73.956119
L90.654760 73.979928
" />
<path d="M90.654760 73.979928
L90.630950 74.027547
" />
<path d="M90.630950 74.027547
L90.630950 74.075166
" />
<path d="M90.630950 74.075166
L90.654760 74.122785
" />
<path d="M90.654760 74.122785
L90.678569 74.146595
" />
<path d="M90.678569 74.146595
L90.726188 74.170404
" />
<path d="M90.726188 74.170404
L90.892855 74.170404
" />
<path d="M90.392855 74.384690
L90.369045 74.408500
" />
<path d="M90.369045 74.408500
L90.392855 74.432309
" />
<path d="M90.392855 74.432309
L90.416664 74.408500
" />
<path d="M90.416664 74.408500
L90.392855 74.384690
" />
<path d="M90.392855 74.384690
L90.392855 74.432309
" />
<path d="M90.392855 74.122785
L90.369045 74.146595
" />
<path d="M90.369045 74.146595
L90.392855 74.170404
" />
<path d="M90.392855 74.170404
L90.416664 74.146595
" />
<path d="M90.416664 74.146595
L90.392855 74.122785
" />
<path d="M90.392855 74.122785
L90.392855 74.170404
" />
<path d="M89.511903 74.432309
L89.797617 74.432309
" />
<path d="M89.654760 74.432309
L89.654760 73.932309
" />
<path d="M89.654760 73.932309
L89.702379 74.003738
" />
<path d="M89.702379 74.003738
L89.749998 74.051357
" />
<path d="M89.749998 74.051357
L89.797617 74.075166
" />
<path d="M89.297618 74.384690
L89.273808 74.408500
" />
<path d="M89.273808 74.408500
L89.297618 74.432309
" />
<path d="M89.297618 74.432309
L89.321427 74.408500
" />
<path d="M89.321427 74.408500
L89.297618 74.384690
" />
<path d="M89.297618 74.384690
L89.297618 74.432309
" />
<path d="M88.964285 73.932309
L88.916666 73.932309
" />
<path d="M88.916666 73.932309
L88.869047 73.956119
" />
<path d="M88.869047 73.956119
L88.845237 73.979928
" />
<path d="M88.845237 73.979928
L88.821428 74.027547
" />
<path d="M88.821428 74.027547
L88.797618 74.122785
" />
<path d="M88.797618 74.122785
L88.797618 74.241833
" />
<path d="M88.797618 74.241833
L88.821428 74.337071
" />
<path d="M88.821428 74.337071
L88.845237 74.384690
" />
<path d="M88.845237 74.384690
L88.869047 74.408500
" />
<path d="M88.869047 74.408500
L88.916666 74.432309
" />
<path d="M88.916666 74.432309
L88.964285 74.432309
" />
<path d="M88.964285 74.432309
L89.011904 74.408500
" />
<path d="M89.011904 74.408500
L89.035713 74.384690
" />
<path d="M89.035713 74.384690
L89.059523 74.337071
" />
<path d="M89.059523 74.337071
L89.083332 74.241833
" />
<path d="M89.083332 74.241833
L89.083332 74.122785
" />
<path d="M89.083332 74.122785
L89.059523 74.027547
" />
<path d="M89.059523 74.027547
L89.035713 73.979928
" />
<path d="M89.035713 73.979928
L89.011904 73.956119
" />
<path d="M89.011904 73.956119
L88.964285 73.932309
" />
<path d="M88.583333 74.384690
L88.559523 74.408500
" />
<path d="M88.559523 74.408500
L88.583333 74.432309
" />
<path d="M88.583333 74.432309
L88.607142 74.408500
" />
<path d="M88.607142 74.408500
L88.583333 74.384690
" />
<path d="M88.583333 74.384690
L88.583333 74.432309
" />
<path d="M88.250000 73.932309
L88.202381 73.932309
" />
<path d="M88.202381 73.932309
L88.154762 73.956119
" />
<path d="M88.154762 73.956119
L88.130952 73.979928
" />
<path d="M88.130952 73.979928
L88.107143 74.027547
" />
<path d="M88.107143 74.027547
L88.083333 74.122785
" />
<path d="M88.083333 74.122785
L88.083333 74.241833
" />
<path d="M88.083333 74.241833
L88.107143 74.337071
" />
<path d="M88.107143 74.337071
L88.130952 74.384690
" />
<path d="M88.130952 74.384690
L88.154762 74.408500
" />
<path d="M88.154762 74.408500
L88.202381 74.432309
" />
<path d="M88.202381 74.432309
L88.250000 74.432309
" />
<path d="M88.250000 74.432309
L88.297619 74.408500
" />
<path d="M88.297619 74.408500
L88.321428 74.384690
" />
<path d="M88.321428 74.384690
L88.345238 74.337071
" />
<path d="M88.345238 74.337071
L88.369047 74.241833
" />
<path d="M88.369047 74.241833
L88.369047 74.122785
" />
<path d="M88.369047 74.122785
L88.345238 74.027547
" />
<path d="M88.345238 74.027547
L88.321428 73.979928
" />
<path d="M88.321428 73.979928
L88.297619 73.956119
" />
<path d="M88.297619 73.956119
L88.250000 73.932309
" />
</g></g>
<g style="fill:#000000; fill-opacity:0.0; 
stroke:#000000; stroke-width:0.150000; stroke-opacity:1; 
stroke-linecap:round; stroke-linejoin:round;">
<text x="85.000000" y="69.500000"
transform="scale(-1 1) translate(-170.000000 0)"
textLength="1.760714" font-size="1.000000" lengthAdjust="spacingAndGlyphs"
text-anchor="start" opacity="0">DO</text>
<g class="stroked-text"><desc>DO</desc>
<path d="M84.722744 69.400414
L84.722744 68.650414
" />
<path d="M84.722744 68.650414
L84.544173 68.650414
" />
<path d="M84.544173 68.650414
L84.437030 68.686128
" />
<path d="M84.437030 68.686128
L84.365601 68.757557
" />
<path d="M84.365601 68.757557
L84.329887 68.828985
" />
<path d="M84.329887 68.828985
L84.294173 68.971842
" />
<path d="M84.294173 68.971842
L84.294173 69.078985
" />
<path d="M84.294173 69.078985
L84.329887 69.221842
" />
<path d="M84.329887 69.221842
L84.365601 69.293271
" />
<path d="M84.365601 69.293271
L84.437030 69.364700
" />
<path d="M84.437030 69.364700
L84.544173 69.400414
" />
<path d="M84.544173 69.400414
L84.722744 69.400414
" />
<path d="M83.829887 68.650414
L83.687030 68.650414
" />
<path d="M83.687030 68.650414
L83.615601 68.686128
" />
<path d="M83.615601 68.686128
L83.544173 68.757557
" />
<path d="M83.544173 68.757557
L83.508458 68.900414
" />
<path d="M83.508458 68.900414
L83.508458 69.150414
" />
<path d="M83.508458 69.150414
L83.544173 69.293271
" />
<path d="M83.544173 69.293271
L83.615601 69.364700
" />
<path d="M83.615601 69.364700
L83.687030 69.400414
" />
<path d="M83.687030 69.400414
L83.829887 69.400414
" />
<path d="M83.829887 69.400414
L83.901316 69.364700
" />
<path d="M83.901316 69.364700
L83.972744 69.293271
" />
<path d="M83.972744 69.293271
L84.008458 69.150414
" />
<path d="M84.008458 69.150414
L84.008458 68.900414
" />
<path d="M84.008458 68.900414
L83.972744 68.757557
" />
<path d="M83.972744 68.757557
L83.901316 68.686128
" />
<path d="M83.901316 68.686128
L83.829887 68.650414
" />
</g><text x="79.800000" y="46.792500"
transform="scale(-1 1) translate(-159.600000 0)"
textLength="12.189283" font-size="1.000000" lengthAdjust="spacingAndGlyphs"
text-anchor="middle" opacity="0">Pedalboard LED Ring</text>
<g class="stroked-text"><desc>Pedalboard LED Ring</desc>
<path d="M85.603569 46.692914
L85.603569 45.942914
" />
<path d="M85.603569 45.942914
L85.317855 45.942914
" />
<path d="M85.317855 45.942914
L85.246426 45.978628
" />
<path d="M85.246426 45.978628
L85.210712 46.014342
" />
<path d="M85.210712 46.014342
L85.174998 46.085771
" />
<path d="M85.174998 46.085771
L85.174998 46.192914
" />
<path d="M85.174998 46.192914
L85.210712 46.264342
" />
<path d="M85.210712 46.264342
L85.246426 46.300057
" />
<path d="M85.246426 46.300057
L85.317855 46.335771
" />
<path d="M85.317855 46.335771
L85.603569 46.335771
" />
<path d="M84.567855 46.657200
L84.639283 46.692914
" />
<path d="M84.639283 46.692914
L84.782141 46.692914
" />
<path d="M84.782141 46.692914
L84.853569 46.657200
" />
<path d="M84.853569 46.657200
L84.889283 46.585771
" />
<path d="M84.889283 46.585771
L84.889283 46.300057
" />
<path d="M84.889283 46.300057
L84.853569 46.228628
" />
<path d="M84.853569 46.228628
L84.782141 46.192914
" />
<path d="M84.782141 46.192914
L84.639283 46.192914
" />
<path d="M84.639283 46.192914
L84.567855 46.228628
" />
<path d="M84.567855 46.228628
L84.532141 46.300057
" />
<path d="M84.532141 46.300057
L84.532141 46.371485
" />
<path d="M84.532141 46.371485
L84.889283 46.442914
" />
<path d="M83.889284 46.692914
L83.889284 45.942914
" />
<path d="M83.889284 46.657200
L83.960712 46.692914
" />
<path d="M83.960712 46.692914
L84.103569 46.692914
" />
<path d="M84.103569 46.692914
L84.174998 46.657200
" />
<path d="M84.174998 46.657200
L84.210712 46.621485
" />
<path d="M84.210712 46.621485
L84.246426 46.550057
" />
<path d="M84.246426 46.550057
L84.246426 46.335771
" />
<path d="M84.246426 46.335771
L84.210712 46.264342
" />
<path d="M84.210712 46.264342
L84.174998 46.228628
" />
<path d="M84.174998 46.228628
L84.103569 46.192914
" />
<path d="M84.103569 46.192914
L83.960712 46.192914
" />
<path d="M83.960712 46.192914
L83.889284 46.228628
" />
<path d="M83.210713 46.692914
L83.210713 46.300057
" />
<path d="M83.210713 46.300057
L83.246427 46.228628
" />
<path d="M83.246427 46.228628
L83.317855 46.192914
" />
<path d="M83.317855 46.192914
L83.460713 46.192914
" />
<path d="M83.460713 46.192914
L83.532141 46.228628
" />
<path d="M83.210713 46.657200
L83.282141 46.692914
" />
<path d="M83.282141 46.692914
L83.460713 46.692914
" />
<path d="M83.460713 46.692914
L83.532141 46.657200
" />
<path d="M83.532141 46.657200
L83.567855 46.585771
" />
<path d="M83.567855 46.585771
L83.567855 46.514342
" />
<path d="M83.567855 46.514342
L83.532141 46.442914
" />
<path d="M83.532141 46.442914
L83.460713 46.407200
" />
<path d="M83.460713 46.407200
L83.282141 46.407200
" />
<path d="M83.282141 46.407200
L83.210713 46.371485
" />
<path d="M82.746427 46.692914
L82.817856 46.657200
" />
<path d="M82.817856 46.657200
L82.853570 46.585771
" />
<path d="M82.853570 46.585771
L82.853570 45.942914
" />
<path d="M82.460713 46.692914
L82.460713 45.942914
" />
<path d="M82.460713 46.228628
L82.389285 46.192914
" />
<path d="M82.389285 46.192914
L82.246427 46.192914
" />
<path d="M82.246427 46.192914
L82.174999 46.228628
" />
<path d="M82.174999 46.228628
L82.139285 46.264342
" />
<path d="M82.139285 46.264342
L82.103570 46.335771
" />
<path d="M82.103570 46.335771
L82.103570 46.550057
" />
<path d="M82.103570 46.550057
L82.139285 46.621485
" />
<path d="M82.139285 46.621485
L82.174999 46.657200
" />
<path d="M82.174999 46.657200
L82.246427 46.692914
" />
<path d="M82.246427 46.692914
L82.389285 46.692914
" />
<path d="M82.389285 46.692914
L82.460713 46.657200
" />
<path d="M81.674999 46.692914
L81.746428 46.657200
" />
<path d="M81.746428 46.657200
L81.782142 46.621485
" />
<path d="M81.782142 46.621485
L81.817856 46.550057
" />
<path d="M81.817856 46.550057
L81.817856 46.335771
" />
<path d="M81.817856 46.335771
L81.782142 46.264342
" />
<path d="M81.782142 46.264342
L81.746428 46.228628
" />
<path d="M81.746428 46.228628
L81.674999 46.192914
" />
<path d="M81.674999 46.192914
L81.567856 46.192914
" />
<path d="M81.567856 46.192914
L81.496428 46.228628
" />
<path d="M81.496428 46.228628
L81.460714 46.264342
" />
<path d="M81.460714 46.264342
L81.424999 46.335771
" />
<path d="M81.424999 46.335771
L81.424999 46.550057
" />
<path d="M81.424999 46.550057
L81.460714 46.621485
" />
<path d="M81.460714 46.621485
L81.496428 46.657200
" />
<path d="M81.496428 46.657200
L81.567856 46.692914
" />
<path d="M81.567856 46.692914
L81.674999 46.692914
" />
<path d="M80.782143 46.692914
L80.782143 46.300057
" />
<path d="M80.782143 46.300057
L80.817857 46.228628
" />
<path d="M80.817857 46.228628
L80.889285 46.192914
" />
<path d="M80.889285 46.192914
L81.032143 46.192914
" />
<path d="M81.032143 46.192914
L81.103571 46.228628
" />
<path d="M80.782143 46.657200
L80.853571 46.692914
" />
<path d="M80.853571 46.692914
L81.032143 46.692914
" />
<path d="M81.032143 46.692914
L81.103571 46.657200
" />
<path d="M81.103571 46.657200
L81.139285 46.585771
" />
<path d="M81.139285 46.585771
L81.139285 46.514342
" />
<path d="M81.139285 46.514342
L81.103571 46.442914
" />
<path d="M81.103571 46.442914
L81.032143 46.407200
" />
<path d="M81.032143 46.407200
L80.853571 46.407200
" />
<path d="M80.853571 46.407200
L80.782143 46.371485
" />
<path d="M80.425000 46.692914
L80.425000 46.192914
" />
<path d="M80.425000 46.335771
L80.389286 46.264342
" />
<path d="M80.389286 46.264342
L80.353572 46.228628
" />
<path d="M80.353572 46.228628
L80.282143 46.192914
" />
<path d="M80.282143 46.192914
L80.210714 46.192914
" />
<path d="M79.639286 46.692914
L79.639286 45.942914
" />
<path d="M79.639286 46.657200
L79.710714 46.692914
" />
<path d="M79.710714 46.692914
L79.853571 46.692914
" />
<path d="M79.853571 46.692914
L79.925000 46.657200
" />
<path d="M79.925000 46.657200
L79.960714 46.621485
" />
<path d="M79.960714 46.621485
L79.996428 46.550057
" />
<path d="M79.996428 46.550057
L79.996428 46.335771
" />
<path d="M79.996428 46.335771
L79.960714 46.264342
" />
<path d="M79.960714 46.264342
L79.925000 46.228628
" />
<path d="M79.925000 46.228628
L79.853571 46.192914
" />
<path d="M79.853571 46.192914
L79.710714 46.192914
" />
<path d="M79.710714 46.192914
L79.639286 46.228628
" />
<path d="M78.353571 46.692914
L78.710714 46.692914
" />
<path d="M78.710714 46.692914
L78.710714 45.942914
" />
<path d="M78.103571 46.300057
L77.853571 46.300057
" />
<path d="M77.746428 46.692914
L78.103571 46.692914
" />
<path d="M78.103571 46.692914
L78.103571 45.942914
" />
<path d="M78.103571 45.942914
L77.746428 45.942914
" />
<path d="M77.425000 46.692914
L77.425000 45.942914
" />
<path d="M77.425000 45.942914
L77.246429 45.942914
" />
<path d="M77.246429 45.942914
L77.139286 45.978628
" />
<path d="M77.139286 45.978628
L77.067857 46.050057
" />
<path d="M77.067857 46.050057
L77.032143 46.121485
" />
<path d="M77.032143 46.121485
L76.996429 46.264342
" />
<path d="M76.996429 46.264342
L76.996429 46.371485
" />
<path d="M76.996429 46.371485
L77.032143 46.514342
" />
<path d="M77.032143 46.514342
L77.067857 46.585771
" />
<path d="M77.067857 46.585771
L77.139286 46.657200
" />
<path d="M77.139286 46.657200
L77.246429 46.692914
" />
<path d="M77.246429 46.692914
L77.425000 46.692914
" />
<path d="M75.675000 46.692914
L75.925000 46.335771
" />
<path d="M76.103571 46.692914
L76.103571 45.942914
" />
<path d="M76.103571 45.942914
L75.817857 45.942914
" />
<path d="M75.817857 45.942914
L75.746428 45.978628
" />
<path d="M75.746428 45.978628
L75.710714 46.014342
" />
<path d="M75.710714 46.014342
L75.675000 46.085771
" />
<path d="M75.675000 46.085771
L75.675000 46.192914
" />
<path d="M75.675000 46.192914
L75.710714 46.264342
" />
<path d="M75.710714 46.264342
L75.746428 46.300057
" />
<path d="M75.746428 46.300057
L75.817857 46.335771
" />
<path d="M75.817857 46.335771
L76.103571 46.335771
" />
<path d="M75.353571 46.692914
L75.353571 46.192914
" />
<path d="M75.353571 45.942914
L75.389285 45.978628
" />
<path d="M75.389285 45.978628
L75.353571 46.014342
" />
<path d="M75.353571 46.014342
L75.317857 45.978628
" />
<path d="M75.317857 45.978628
L75.353571 45.942914
" />
<path d="M75.353571 45.942914
L75.353571 46.014342
" />
<path d="M74.996428 46.192914
L74.996428 46.692914
" />
<path d="M74.996428 46.264342
L74.960714 46.228628
" />
<path d="M74.960714 46.228628
L74.889285 46.192914
" />
<path d="M74.889285 46.192914
L74.782142 46.192914
" />
<path d="M74.782142 46.192914
L74.710714 46.228628
" />
<path d="M74.710714 46.228628
L74.675000 46.300057
" />
<path d="M74.675000 46.300057
L74.675000 46.692914
" />
<path d="M73.996429 46.192914
L73.996429 46.800057
" />
<path d="M73.996429 46.800057
L74.032143 46.871485
" />
<path d="M74.032143 46.871485
L74.067857 46.907200
" />
<path d="M74.067857 46.907200
L74.139286 46.942914
" />
<path d="M74.139286 46.942914
L74.246429 46.942914
" />
<path d="M74.246429 46.942914
L74.317857 46.907200
" />
<path d="M73.996429 46.657200
L74.067857 46.692914
" />
<path d="M74.067857 46.692914
L74.210714 46.692914
" />
<path d="M74.210714 46.692914
L74.282143 46.657200
" />
<path d="M74.282143 46.657200
L74.317857 46.621485
" />
<path d="M74.317857 46.621485
L74.353571 46.550057
" />
<path d="M74.353571 46.550057
L74.353571 46.335771
" />
<path d="M74.353571 46.335771
L74.317857 46.264342
" />
<path d="M74.317857 46.264342
L74.282143 46.228628
" />
<path d="M74.282143 46.228628
L74.210714 46.192914
" />
<path d="M74.210714 46.192914
L74.067857 46.192914
" />
<path d="M74.067857 46.192914
L73.996429 46.228628
" />
</g><text x="79.800000" y="48.000000"
transform="scale(-1 1) translate(-159.600000 0)"
textLength="18.189278" font-size="1.000000" lengthAdjust="spacingAndGlyphs"
text-anchor="middle" opacity="0">https://github.com/pedalboard</text>
<g class="stroked-text"><desc>https://github.com/pedalboard</desc>
<path d="M88.603567 47.900414
L88.603567 47.150414
" />
<path d="M88.282139 47.900414
L88.282139 47.507557
" />
<path d="M88.282139 47.507557
L88.317853 47.436128
" />
<path d="M88.317853 47.436128
L88.389281 47.400414
" />
<path d="M88.389281 47.400414
L88.496424 47.400414
" />
<path d="M88.496424 47.400414
L88.567853 47.436128
" />
<path d="M88.567853 47.436128
L88.603567 47.471842
" />
<path d="M88.032139 47.400414
L87.746425 47.400414
" />
<path d="M87.924996 47.150414
L87.924996 47.793271
" />
<path d="M87.924996 47.793271
L87.889282 47.864700
" />
<path d="M87.889282 47.864700
L87.817853 47.900414
" />
<path d="M87.817853 47.900414
L87.746425 47.900414
" />
<path d="M87.603568 47.400414
L87.317854 47.400414
" />
<path d="M87.496425 47.150414
L87.496425 47.793271
" />
<path d="M87.496425 47.793271
L87.460711 47.864700
" />
<path d="M87.460711 47.864700
L87.389282 47.900414
" />
<path d="M87.389282 47.900414
L87.317854 47.900414
" />
<path d="M87.067854 47.400414
L87.067854 48.150414
" />
<path d="M87.067854 47.436128
L86.996426 47.400414
" />
<path d="M86.996426 47.400414
L86.853568 47.400414
" />
<path d="M86.853568 47.400414
L86.782140 47.436128
" />
<path d="M86.782140 47.436128
L86.746426 47.471842
" />
<path d="M86.746426 47.471842
L86.710711 47.543271
" />
<path d="M86.710711 47.543271
L86.710711 47.757557
" />
<path d="M86.710711 47.757557
L86.746426 47.828985
" />
<path d="M86.746426 47.828985
L86.782140 47.864700
" />
<path d="M86.782140 47.864700
L86.853568 47.900414
" />
<path d="M86.853568 47.900414
L86.996426 47.900414
" />
<path d="M86.996426 47.900414
L87.067854 47.864700
" />
<path d="M86.424997 47.864700
L86.353569 47.900414
" />
<path d="M86.353569 47.900414
L86.210712 47.900414
" />
<path d="M86.210712 47.900414
L86.139283 47.864700
" />
<path d="M86.139283 47.864700
L86.103569 47.793271
" />
<path d="M86.103569 47.793271
L86.103569 47.757557
" />
<path d="M86.103569 47.757557
L86.139283 47.686128
" />
<path d="M86.139283 47.686128
L86.210712 47.650414
" />
<path d="M86.210712 47.650414
L86.317855 47.650414
" />
<path d="M86.317855 47.650414
L86.389283 47.614700
" />
<path d="M86.389283 47.614700
L86.424997 47.543271
" />
<path d="M86.424997 47.543271
L86.424997 47.507557
" />
<path d="M86.424997 47.507557
L86.389283 47.436128
" />
<path d="M86.389283 47.436128
L86.317855 47.400414
" />
<path d="M86.317855 47.400414
L86.210712 47.400414
" />
<path d="M86.210712 47.400414
L86.139283 47.436128
" />
<path d="M85.782140 47.828985
L85.746426 47.864700
" />
<path d="M85.746426 47.864700
L85.782140 47.900414
" />
<path d="M85.782140 47.900414
L85.817854 47.864700
" />
<path d="M85.817854 47.864700
L85.782140 47.828985
" />
<path d="M85.782140 47.828985
L85.782140 47.900414
" />
<path d="M85.782140 47.436128
L85.746426 47.471842
" />
<path d="M85.746426 47.471842
L85.782140 47.507557
" />
<path d="M85.782140 47.507557
L85.817854 47.471842
" />
<path d="M85.817854 47.471842
L85.782140 47.436128
" />
<path d="M85.782140 47.436128
L85.782140 47.507557
" />
<path d="M84.889283 47.114700
L85.532140 48.078985
" />
<path d="M84.103569 47.114700
L84.746426 48.078985
" />
<path d="M83.532141 47.400414
L83.532141 48.007557
" />
<path d="M83.532141 48.007557
L83.567855 48.078985
" />
<path d="M83.567855 48.078985
L83.603569 48.114700
" />
<path d="M83.603569 48.114700
L83.674998 48.150414
" />
<path d="M83.674998 48.150414
L83.782141 48.150414
" />
<path d="M83.782141 48.150414
L83.853569 48.114700
" />
<path d="M83.532141 47.864700
L83.603569 47.900414
" />
<path d="M83.603569 47.900414
L83.746426 47.900414
" />
<path d="M83.746426 47.900414
L83.817855 47.864700
" />
<path d="M83.817855 47.864700
L83.853569 47.828985
" />
<path d="M83.853569 47.828985
L83.889283 47.757557
" />
<path d="M83.889283 47.757557
L83.889283 47.543271
" />
<path d="M83.889283 47.543271
L83.853569 47.471842
" />
<path d="M83.853569 47.471842
L83.817855 47.436128
" />
<path d="M83.817855 47.436128
L83.746426 47.400414
" />
<path d="M83.746426 47.400414
L83.603569 47.400414
" />
<path d="M83.603569 47.400414
L83.532141 47.436128
" />
<path d="M83.174998 47.900414
L83.174998 47.400414
" />
<path d="M83.174998 47.150414
L83.210712 47.186128
" />
<path d="M83.210712 47.186128
L83.174998 47.221842
" />
<path d="M83.174998 47.221842
L83.139284 47.186128
" />
<path d="M83.139284 47.186128
L83.174998 47.150414
" />
<path d="M83.174998 47.150414
L83.174998 47.221842
" />
<path d="M82.924998 47.400414
L82.639284 47.400414
" />
<path d="M82.817855 47.150414
L82.817855 47.793271
" />
<path d="M82.817855 47.793271
L82.782141 47.864700
" />
<path d="M82.782141 47.864700
L82.710712 47.900414
" />
<path d="M82.710712 47.900414
L82.639284 47.900414
" />
<path d="M82.389284 47.900414
L82.389284 47.150414
" />
<path d="M82.067856 47.900414
L82.067856 47.507557
" />
<path d="M82.067856 47.507557
L82.103570 47.436128
" />
<path d="M82.103570 47.436128
L82.174998 47.400414
" />
<path d="M82.174998 47.400414
L82.282141 47.400414
" />
<path d="M82.282141 47.400414
L82.353570 47.436128
" />
<path d="M82.353570 47.436128
L82.389284 47.471842
" />
<path d="M81.389285 47.400414
L81.389285 47.900414
" />
<path d="M81.710713 47.400414
L81.710713 47.793271
" />
<path d="M81.710713 47.793271
L81.674999 47.864700
" />
<path d="M81.674999 47.864700
L81.603570 47.900414
" />
<path d="M81.603570 47.900414
L81.496427 47.900414
" />
<path d="M81.496427 47.900414
L81.424999 47.864700
" />
<path d="M81.424999 47.864700
L81.389285 47.828985
" />
<path d="M81.032142 47.900414
L81.032142 47.150414
" />
<path d="M81.032142 47.436128
L80.960714 47.400414
" />
<path d="M80.960714 47.400414
L80.817856 47.400414
" />
<path d="M80.817856 47.400414
L80.746428 47.436128
" />
<path d="M80.746428 47.436128
L80.710714 47.471842
" />
<path d="M80.710714 47.471842
L80.674999 47.543271
" />
<path d="M80.674999 47.543271
L80.674999 47.757557
" />
<path d="M80.674999 47.757557
L80.710714 47.828985
" />
<path d="M80.710714 47.828985
L80.746428 47.864700
" />
<path d="M80.746428 47.864700
L80.817856 47.900414
" />
<path d="M80.817856 47.900414
L80.960714 47.900414
" />
<path d="M80.960714 47.900414
L81.032142 47.864700
" />
<path d="M80.353571 47.828985
L80.317857 47.864700
" />
<path d="M80.317857 47.864700
L80.353571 47.900414
" />
<path d="M80.353571 47.900414
L80.389285 47.864700
" />
<path d="M80.389285 47.864700
L80.353571 47.828985
" />
<path d="M80.353571 47.828985
L80.353571 47.900414
" />
<path d="M79.675000 47.864700
L79.746428 47.900414
" />
<path d="M79.746428 47.900414
L79.889285 47.900414
" />
<path d="M79.889285 47.900414
L79.960714 47.864700
" />
<path d="M79.960714 47.864700
L79.996428 47.828985
" />
<path d="M79.996428 47.828985
L80.032142 47.757557
" />
<path d="M80.032142 47.757557
L80.032142 47.543271
" />
<path d="M80.032142 47.543271
L79.996428 47.471842
" />
<path d="M79.996428 47.471842
L79.960714 47.436128
" />
<path d="M79.960714 47.436128
L79.889285 47.400414
" />
<path d="M79.889285 47.400414
L79.746428 47.400414
" />
<path d="M79.746428 47.400414
L79.675000 47.436128
" />
<path d="M79.246428 47.900414
L79.317857 47.864700
" />
<path d="M79.317857 47.864700
L79.353571 47.828985
" />
<path d="M79.353571 47.828985
L79.389285 47.757557
" />
<path d="M79.389285 47.757557
L79.389285 47.543271
" />
<path d="M79.389285 47.543271
L79.353571 47.471842
" />
<path d="M79.353571 47.471842
L79.317857 47.436128
" />
<path d="M79.317857 47.436128
L79.246428 47.400414
" />
<path d="M79.246428 47.400414
L79.139285 47.400414
" />
<path d="M79.139285 47.400414
L79.067857 47.436128
" />
<path d="M79.067857 47.436128
L79.032143 47.471842
" />
<path d="M79.032143 47.471842
L78.996428 47.543271
" />
<path d="M78.996428 47.543271
L78.996428 47.757557
" />
<path d="M78.996428 47.757557
L79.032143 47.828985
" />
<path d="M79.032143 47.828985
L79.067857 47.864700
" />
<path d="M79.067857 47.864700
L79.139285 47.900414
" />
<path d="M79.139285 47.900414
L79.246428 47.900414
" />
<path d="M78.675000 47.900414
L78.675000 47.400414
" />
<path d="M78.675000 47.471842
L78.639286 47.436128
" />
<path d="M78.639286 47.436128
L78.567857 47.400414
" />
<path d="M78.567857 47.400414
L78.460714 47.400414
" />
<path d="M78.460714 47.400414
L78.389286 47.436128
" />
<path d="M78.389286 47.436128
L78.353572 47.507557
" />
<path d="M78.353572 47.507557
L78.353572 47.900414
" />
<path d="M78.353572 47.507557
L78.317857 47.436128
" />
<path d="M78.317857 47.436128
L78.246429 47.400414
" />
<path d="M78.246429 47.400414
L78.139286 47.400414
" />
<path d="M78.139286 47.400414
L78.067857 47.436128
" />
<path d="M78.067857 47.436128
L78.032143 47.507557
" />
<path d="M78.032143 47.507557
L78.032143 47.900414
" />
<path d="M77.139286 47.114700
L77.782143 48.078985
" />
<path d="M76.889286 47.400414
L76.889286 48.150414
" />
<path d="M76.889286 47.436128
L76.817858 47.400414
" />
<path d="M76.817858 47.400414
L76.675000 47.400414
" />
<path d="M76.675000 47.400414
L76.603572 47.436128
" />
<path d="M76.603572 47.436128
L76.567858 47.471842
" />
<path d="M76.567858 47.471842
L76.532143 47.543271
" />
<path d="M76.532143 47.543271
L76.532143 47.757557
" />
<path d="M76.532143 47.757557
L76.567858 47.828985
" />
<path d="M76.567858 47.828985
L76.603572 47.864700
" />
<path d="M76.603572 47.864700
L76.675000 47.900414
" />
<path d="M76.675000 47.900414
L76.817858 47.900414
" />
<path d="M76.817858 47.900414
L76.889286 47.864700
" />
<path d="M75.925001 47.864700
L75.996429 47.900414
" />
<path d="M75.996429 47.900414
L76.139287 47.900414
" />
<path d="M76.139287 47.900414
L76.210715 47.864700
" />
<path d="M76.210715 47.864700
L76.246429 47.793271
" />
<path d="M76.246429 47.793271
L76.246429 47.507557
" />
<path d="M76.246429 47.507557
L76.210715 47.436128
" />
<path d="M76.210715 47.436128
L76.139287 47.400414
" />
<path d="M76.139287 47.400414
L75.996429 47.400414
" />
<path d="M75.996429 47.400414
L75.925001 47.436128
" />
<path d="M75.925001 47.436128
L75.889287 47.507557
" />
<path d="M75.889287 47.507557
L75.889287 47.578985
" />
<path d="M75.889287 47.578985
L76.246429 47.650414
" />
<path d="M75.246430 47.900414
L75.246430 47.150414
" />
<path d="M75.246430 47.864700
L75.317858 47.900414
" />
<path d="M75.317858 47.900414
L75.460715 47.900414
" />
<path d="M75.460715 47.900414
L75.532144 47.864700
" />
<path d="M75.532144 47.864700
L75.567858 47.828985
" />
<path d="M75.567858 47.828985
L75.603572 47.757557
" />
<path d="M75.603572 47.757557
L75.603572 47.543271
" />
<path d="M75.603572 47.543271
L75.567858 47.471842
" />
<path d="M75.567858 47.471842
L75.532144 47.436128
" />
<path d="M75.532144 47.436128
L75.460715 47.400414
" />
<path d="M75.460715 47.400414
L75.317858 47.400414
" />
<path d="M75.317858 47.400414
L75.246430 47.436128
" />
<path d="M74.567859 47.900414
L74.567859 47.507557
" />
<path d="M74.567859 47.507557
L74.603573 47.436128
" />
<path d="M74.603573 47.436128
L74.675001 47.400414
" />
<path d="M74.675001 47.400414
L74.817859 47.400414
" />
<path d="M74.817859 47.400414
L74.889287 47.436128
" />
<path d="M74.567859 47.864700
L74.639287 47.900414
" />
<path d="M74.639287 47.900414
L74.817859 47.900414
" />
<path d="M74.817859 47.900414
L74.889287 47.864700
" />
<path d="M74.889287 47.864700
L74.925001 47.793271
" />
<path d="M74.925001 47.793271
L74.925001 47.721842
" />
<path d="M74.925001 47.721842
L74.889287 47.650414
" />
<path d="M74.889287 47.650414
L74.817859 47.614700
" />
<path d="M74.817859 47.614700
L74.639287 47.614700
" />
<path d="M74.639287 47.614700
L74.567859 47.578985
" />
<path d="M74.103573 47.900414
L74.175002 47.864700
" />
<path d="M74.175002 47.864700
L74.210716 47.793271
" />
<path d="M74.210716 47.793271
L74.210716 47.150414
" />
<path d="M73.817859 47.900414
L73.817859 47.150414
" />
<path d="M73.817859 47.436128
L73.746431 47.400414
" />
<path d="M73.746431 47.400414
L73.603573 47.400414
" />
<path d="M73.603573 47.400414
L73.532145 47.436128
" />
<path d="M73.532145 47.436128
L73.496431 47.471842
" />
<path d="M73.496431 47.471842
L73.460716 47.543271
" />
<path d="M73.460716 47.543271
L73.460716 47.757557
" />
<path d="M73.460716 47.757557
L73.496431 47.828985
" />
<path d="M73.496431 47.828985
L73.532145 47.864700
" />
<path d="M73.532145 47.864700
L73.603573 47.900414
" />
<path d="M73.603573 47.900414
L73.746431 47.900414
" />
<path d="M73.746431 47.900414
L73.817859 47.864700
" />
<path d="M73.032145 47.900414
L73.103574 47.864700
" />
<path d="M73.103574 47.864700
L73.139288 47.828985
" />
<path d="M73.139288 47.828985
L73.175002 47.757557
" />
<path d="M73.175002 47.757557
L73.175002 47.543271
" />
<path d="M73.175002 47.543271
L73.139288 47.471842
" />
<path d="M73.139288 47.471842
L73.103574 47.436128
" />
<path d="M73.103574 47.436128
L73.032145 47.400414
" />
<path d="M73.032145 47.400414
L72.925002 47.400414
" />
<path d="M72.925002 47.400414
L72.853574 47.436128
" />
<path d="M72.853574 47.436128
L72.817860 47.471842
" />
<path d="M72.817860 47.471842
L72.782145 47.543271
" />
<path d="M72.782145 47.543271
L72.782145 47.757557
" />
<path d="M72.782145 47.757557
L72.817860 47.828985
" />
<path d="M72.817860 47.828985
L72.853574 47.864700
" />
<path d="M72.853574 47.864700
L72.925002 47.900414
" />
<path d="M72.925002 47.900414
L73.032145 47.900414
" />
<path d="M72.139289 47.900414
L72.139289 47.507557
" />
<path d="M72.139289 47.507557
L72.175003 47.436128
" />
<path d="M72.175003 47.436128
L72.246431 47.400414
" />
<path d="M72.246431 47.400414
L72.389289 47.400414
" />
<path d="M72.389289 47.400414
L72.460717 47.436128
" />
<path d="M72.139289 47.864700
L72.210717 47.900414
" />
<path d="M72.210717 47.900414
L72.389289 47.900414
" />
<path d="M72.389289 47.900414
L72.460717 47.864700
" />
<path d="M72.460717 47.864700
L72.496431 47.793271
" />
<path d="M72.496431 47.793271
L72.496431 47.721842
" />
<path d="M72.496431 47.721842
L72.460717 47.650414
" />
<path d="M72.460717 47.650414
L72.389289 47.614700
" />
<path d="M72.389289 47.614700
L72.210717 47.614700
" />
<path d="M72.210717 47.614700
L72.139289 47.578985
" />
<path d="M71.782146 47.900414
L71.782146 47.400414
" />
<path d="M71.782146 47.543271
L71.746432 47.471842
" />
<path d="M71.746432 47.471842
L71.710718 47.436128
" />
<path d="M71.710718 47.436128
L71.639289 47.400414
" />
<path d="M71.639289 47.400414
L71.567860 47.400414
" />
<path d="M70.996432 47.900414
L70.996432 47.150414
" />
<path d="M70.996432 47.864700
L71.067860 47.900414
" />
<path d="M71.067860 47.900414
L71.210717 47.900414
" />
<path d="M71.210717 47.900414
L71.282146 47.864700
" />
<path d="M71.282146 47.864700
L71.317860 47.828985
" />
<path d="M71.317860 47.828985
L71.353574 47.757557
" />
<path d="M71.353574 47.757557
L71.353574 47.543271
" />
<path d="M71.353574 47.543271
L71.317860 47.471842
" />
<path d="M71.317860 47.471842
L71.282146 47.436128
" />
<path d="M71.282146 47.436128
L71.210717 47.400414
" />
<path d="M71.210717 47.400414
L71.067860 47.400414
" />
<path d="M71.067860 47.400414
L70.996432 47.436128
" />
</g></g>
<g style="fill:#000000; fill-opacity:0.0; 
stroke:#000000; stroke-width:0.120000; stroke-opacity:1; 
stroke-linecap:round; stroke-linejoin:round;">
<path d="M87.940000 62.060000
L87.940000 57.940000
" />
<path d="M88.240000 62.060000
L87.940000 62.060000
" />
<path d="M90.240000 62.060000
L89.760000 62.060000
" />
<path d="M92.060000 62.060000
L91.760000 62.060000
" />
<path d="M92.060000 62.060000
L92.060000 57.940000
" />
<path d="M88.240000 57.940000
L87.940000 57.940000
" />
<path d="M90.240000 57.940000
L89.760000 57.940000
" />
<path d="M91.760000 57.940000
L91.760000 55.560000
" />
<path d="M92.060000 57.940000
L91.760000 57.940000
" />
<path d="M87.940000 67.940000
L92.060000 67.940000
" />
<path d="M87.940000 68.240000
L87.940000 67.940000
" />
<path d="M87.940000 70.240000
L87.940000 69.760000
" />
<path d="M87.940000 72.060000
L87.940000 71.760000
" />
<path d="M87.940000 72.060000
L92.060000 72.060000
" />
<path d="M92.060000 68.240000
L92.060000 67.940000
" />
<path d="M92.060000 70.240000
L92.060000 69.760000
" />
<path d="M92.060000 71.760000
L94.440000 71.760000
" />
<path d="M92.060000 72.060000
L92.060000 71.760000
" />
<g >
</g>
<g >
</g>
<g >
</g>
<g >
</g>
<g >
</g>
<g >
</g>
<g >
</g>
<g >
</g>
<g >
</g>
<g >
</g>
<g >
</g>
<g >
</g>
<g >
</g>
<g >
</g>
<g >
</g>
<g >
</g>
<g >
</g>
<g >
</g>
<g >
</g>
<g >
</g>
<g >
</g>
<g >
</g>
<g >
</g>
<g >
</g>
<g >
</g>
<g >
</g>
<g >
</g>
<g >
</g>
<g >
</g>
<g >
</g>
<g >
</g>
<g >
</g>
<g >
</g>
<g >
</g>
</g> 
</svg>
