<?xml version="1.0" standalone="no"?>
 <!DOCTYPE svg PUBLIC "-//W3C//DTD SVG 1.1//EN" 
 "http://www.w3.org/Graphics/SVG/1.1/DTD/svg11.dtd"> 
<svg
  xmlns:svg="http://www.w3.org/2000/svg"
  xmlns="http://www.w3.org/2000/svg"
  xmlns:xlink="http://www.w3.org/1999/xlink"
  version="1.1"
  width="3.8100000000000005cm" height="3.0100000000000002cm" viewBox="64.95 44.95 38.1 30.1">
<title>SVG Image created as pedalboard-led-ring-B_SilkS.svg date 2023/05/22 19:36:47 </title>
  <desc>Image generated by PCBNEW </desc>
<g style="fill:#000000; fill-opacity:1.000000;stroke:#000000; stroke-opacity:1.000000;
stroke-linecap:round; stroke-linejoin:round;"
 transform="translate(0 0) scale(1 1)">
</g>
<g style="fill:#000000; fill-opacity:0.0; 
stroke:#000000; stroke-width:0.000000; stroke-opacity:1; 
stroke-linecap:round; stroke-linejoin:round;">
</g>
<g style="fill:#000000; fill-opacity:0.0; 
stroke:#000000; stroke-width:0.100000; stroke-opacity:1; 
stroke-linecap:round; stroke-linejoin:round;">
<circle cx="80.000000" cy="60.000000" r="7.050000" /> 
</g>
<g style="fill:#000000; fill-opacity:0.0; 
stroke:#000000; stroke-width:0.150000; stroke-opacity:1; 
stroke-linecap:round; stroke-linejoin:round;">
<text x="92.100000" y="49.800000"
transform="scale(-1 1) translate(-184.200000 0)"
textLength="2.175000" font-size="1.333333" lengthAdjust="spacingAndGlyphs"
text-anchor="middle" opacity="0">U1</text>
<g class="stroked-text"><desc>U1</desc>
<path d="M92.861904 48.762619
L92.861904 49.572142
" />
<path d="M92.861904 49.572142
L92.814285 49.667380
" />
<path d="M92.814285 49.667380
L92.766666 49.715000
" />
<path d="M92.766666 49.715000
L92.671428 49.762619
" />
<path d="M92.671428 49.762619
L92.480952 49.762619
" />
<path d="M92.480952 49.762619
L92.385714 49.715000
" />
<path d="M92.385714 49.715000
L92.338095 49.667380
" />
<path d="M92.338095 49.667380
L92.290476 49.572142
" />
<path d="M92.290476 49.572142
L92.290476 48.762619
" />
<path d="M91.290476 49.762619
L91.861904 49.762619
" />
<path d="M91.576190 49.762619
L91.576190 48.762619
" />
<path d="M91.576190 48.762619
L91.671428 48.905476
" />
<path d="M91.671428 48.905476
L91.766666 49.000714
" />
<path d="M91.766666 49.000714
L91.861904 49.048333
" />
</g><g transform="rotate(-90.000000 90.730000 68.000000)">
<text x="90.730000" y="68.500000"
transform="scale(-1 1) translate(-181.460000 0)"
textLength="1.889286" font-size="1.333333" lengthAdjust="spacingAndGlyphs"
text-anchor="middle" opacity="0">J1</text>
</g>
<g class="stroked-text"><desc>J1</desc>
<path d="M90.192619 67.666666
L90.906904 67.666666
" />
<path d="M90.906904 67.666666
L91.049761 67.619047
" />
<path d="M91.049761 67.619047
L91.145000 67.523809
" />
<path d="M91.145000 67.523809
L91.192619 67.380952
" />
<path d="M91.192619 67.380952
L91.192619 67.285714
" />
<path d="M91.192619 68.666666
L91.192619 68.095238
" />
<path d="M91.192619 68.380952
L90.192619 68.380952
" />
<path d="M90.192619 68.380952
L90.335476 68.285714
" />
<path d="M90.335476 68.285714
L90.430714 68.190476
" />
<path d="M90.430714 68.190476
L90.478333 68.095238
" />
</g><text x="97.500000" y="61.750000"
transform="scale(-1 1) translate(-195.000000 0)"
textLength="2.127381" font-size="1.333333" lengthAdjust="spacingAndGlyphs"
text-anchor="middle" opacity="0">C1</text>
<g class="stroked-text"><desc>C1</desc>
<path d="M97.666666 61.617380
L97.714285 61.665000
" />
<path d="M97.714285 61.665000
L97.857142 61.712619
" />
<path d="M97.857142 61.712619
L97.952380 61.712619
" />
<path d="M97.952380 61.712619
L98.095237 61.665000
" />
<path d="M98.095237 61.665000
L98.190475 61.569761
" />
<path d="M98.190475 61.569761
L98.238094 61.474523
" />
<path d="M98.238094 61.474523
L98.285713 61.284047
" />
<path d="M98.285713 61.284047
L98.285713 61.141190
" />
<path d="M98.285713 61.141190
L98.238094 60.950714
" />
<path d="M98.238094 60.950714
L98.190475 60.855476
" />
<path d="M98.190475 60.855476
L98.095237 60.760238
" />
<path d="M98.095237 60.760238
L97.952380 60.712619
" />
<path d="M97.952380 60.712619
L97.857142 60.712619
" />
<path d="M97.857142 60.712619
L97.714285 60.760238
" />
<path d="M97.714285 60.760238
L97.666666 60.807857
" />
<path d="M96.714285 61.712619
L97.285713 61.712619
" />
<path d="M96.999999 61.712619
L96.999999 60.712619
" />
<path d="M96.999999 60.712619
L97.095237 60.855476
" />
<path d="M97.095237 60.855476
L97.190475 60.950714
" />
<path d="M97.190475 60.950714
L97.285713 60.998333
" />
</g><g transform="rotate(-90.000000 100.900000 53.100000)">
<text x="100.900000" y="53.425000"
transform="scale(-1 1) translate(-201.800000 0)"
textLength="1.514048" font-size="0.866666" lengthAdjust="spacingAndGlyphs"
text-anchor="middle" opacity="0">R1</text>
</g>
<g class="stroked-text"><desc>R1</desc>
<path d="M101.200702 52.991666
L100.891178 52.774999
" />
<path d="M101.200702 52.620237
L100.550702 52.620237
" />
<path d="M100.550702 52.620237
L100.550702 52.867856
" />
<path d="M100.550702 52.867856
L100.581654 52.929761
" />
<path d="M100.581654 52.929761
L100.612607 52.960714
" />
<path d="M100.612607 52.960714
L100.674511 52.991666
" />
<path d="M100.674511 52.991666
L100.767369 52.991666
" />
<path d="M100.767369 52.991666
L100.829273 52.960714
" />
<path d="M100.829273 52.960714
L100.860226 52.929761
" />
<path d="M100.860226 52.929761
L100.891178 52.867856
" />
<path d="M100.891178 52.867856
L100.891178 52.620237
" />
<path d="M101.200702 53.610714
L101.200702 53.239285
" />
<path d="M101.200702 53.424999
L100.550702 53.424999
" />
<path d="M100.550702 53.424999
L100.643559 53.363095
" />
<path d="M100.643559 53.363095
L100.705464 53.301190
" />
<path d="M100.705464 53.301190
L100.736416 53.239285
" />
</g><g transform="rotate(-90.000000 100.800000 55.250000)">
<text x="100.800000" y="55.575000"
transform="scale(-1 1) translate(-201.600000 0)"
textLength="1.514048" font-size="0.866666" lengthAdjust="spacingAndGlyphs"
text-anchor="middle" opacity="0">C2</text>
</g>
<g class="stroked-text"><desc>C2</desc>
<path d="M101.038797 55.141666
L101.069750 55.110714
" />
<path d="M101.069750 55.110714
L101.100702 55.017856
" />
<path d="M101.100702 55.017856
L101.100702 54.955952
" />
<path d="M101.100702 54.955952
L101.069750 54.863095
" />
<path d="M101.069750 54.863095
L101.007845 54.801190
" />
<path d="M101.007845 54.801190
L100.945940 54.770237
" />
<path d="M100.945940 54.770237
L100.822130 54.739285
" />
<path d="M100.822130 54.739285
L100.729273 54.739285
" />
<path d="M100.729273 54.739285
L100.605464 54.770237
" />
<path d="M100.605464 54.770237
L100.543559 54.801190
" />
<path d="M100.543559 54.801190
L100.481654 54.863095
" />
<path d="M100.481654 54.863095
L100.450702 54.955952
" />
<path d="M100.450702 54.955952
L100.450702 55.017856
" />
<path d="M100.450702 55.017856
L100.481654 55.110714
" />
<path d="M100.481654 55.110714
L100.512607 55.141666
" />
<path d="M100.512607 55.389285
L100.481654 55.420237
" />
<path d="M100.481654 55.420237
L100.450702 55.482142
" />
<path d="M100.450702 55.482142
L100.450702 55.636904
" />
<path d="M100.450702 55.636904
L100.481654 55.698809
" />
<path d="M100.481654 55.698809
L100.512607 55.729761
" />
<path d="M100.512607 55.729761
L100.574511 55.760714
" />
<path d="M100.574511 55.760714
L100.636416 55.760714
" />
<path d="M100.636416 55.760714
L100.729273 55.729761
" />
<path d="M100.729273 55.729761
L101.100702 55.358333
" />
<path d="M101.100702 55.358333
L101.100702 55.760714
" />
</g></g>
<g style="fill:#000000; fill-opacity:0.0; 
stroke:#000000; stroke-width:0.120000; stroke-opacity:1; 
stroke-linecap:round; stroke-linejoin:round;">
<path d="M94.900000 50.240000
L92.950000 50.240000
" />
<path d="M94.900000 50.240000
L96.850000 50.240000
" />
<path d="M94.900000 55.360000
L91.450000 55.360000
" />
<path d="M94.900000 55.360000
L96.850000 55.360000
" />
<path d="M92.300000 63.960000
L92.300000 65.400000
" />
<path d="M99.470000 65.400000
L99.470000 70.600000
" />
<path d="M98.900000 65.400000
L99.470000 65.400000
" />
<path d="M96.360000 65.400000
L97.380000 65.400000
" />
<path d="M93.820000 65.400000
L94.840000 65.400000
" />
<path d="M91.730000 65.400000
L92.300000 65.400000
" />
<path d="M91.730000 65.400000
L91.730000 70.600000
" />
<path d="M98.900000 70.600000
L99.470000 70.600000
" />
<path d="M96.360000 70.600000
L97.380000 70.600000
" />
<path d="M93.820000 70.600000
L94.840000 70.600000
" />
<path d="M91.730000 70.600000
L92.300000 70.600000
" />
<path d="M89.600000 57.900000
L89.600000 60.100000
" />
<path d="M89.600000 60.100000
L90.400000 60.100000
" />
<path d="M90.400000 57.200000
L90.400000 57.900000
" />
<path d="M90.400000 57.900000
L89.600000 57.900000
" />
<path d="M90.400000 60.100000
L90.400000 60.700000
" />
<path d="M90.400000 60.700000
L90.400000 60.800000
" />
<path d="M90.400000 60.800000
L91.600000 62.000000
" />
<path d="M91.600000 56.000000
L90.400000 57.200000
" />
<path d="M91.600000 62.000000
L96.400000 62.000000
" />
<path d="M96.400000 56.000000
L91.600000 56.000000
" />
<path d="M96.400000 57.900000
L96.400000 56.000000
" />
<path d="M96.400000 60.100000
L97.200000 60.100000
" />
<path d="M96.400000 62.000000
L96.400000 60.100000
" />
<path d="M97.200000 57.900000
L96.400000 57.900000
" />
<path d="M97.200000 60.100000
L97.200000 57.900000
" />
</g>
<g style="fill:#000000; fill-opacity:0.0; 
stroke:#000000; stroke-width:0.150000; stroke-opacity:1; 
stroke-linecap:round; stroke-linejoin:round;">
<path d="M100.100000 53.450000
L100.100000 51.750000
" />
<path d="M98.700000 51.750000
L98.700000 53.450000
" />
</g>
<g style="fill:#000000; fill-opacity:0.0; 
stroke:#000000; stroke-width:0.120000; stroke-opacity:1; 
stroke-linecap:round; stroke-linejoin:round;">
<path d="M100.020000 55.298031
L100.020000 55.501969
" />
<path d="M98.780000 55.298031
L98.780000 55.501969
" />
<g >
</g>
<g >
</g>
<g >
</g>
<g >
</g>
<g >
</g>
<g >
</g>
<g >
</g>
<g >
</g>
<g >
</g>
<g >
</g>
<g >
</g>
<g >
</g>
<g >
</g>
<g >
</g>
</g> 
</svg>
