<?xml version="1.0" standalone="no"?>
 <!DOCTYPE svg PUBLIC "-//W3C//DTD SVG 1.1//EN" 
 "http://www.w3.org/Graphics/SVG/1.1/DTD/svg11.dtd"> 
<svg
  xmlns:svg="http://www.w3.org/2000/svg"
  xmlns="http://www.w3.org/2000/svg"
  xmlns:xlink="http://www.w3.org/1999/xlink"
  version="1.1"
  width="3.8100000000000005cm" height="3.0100000000000002cm" viewBox="64.95 44.95 38.1 30.1">
<title>SVG Image created as pedalboard-led-ring-F_Cu.svg date 2023/05/22 19:36:47 </title>
  <desc>Image generated by PCBNEW </desc>
<g style="fill:#000000; fill-opacity:1.000000;stroke:#000000; stroke-opacity:1.000000;
stroke-linecap:round; stroke-linejoin:round;"
 transform="translate(0 0) scale(1 1)">
</g>
<g style="fill:#000000; fill-opacity:0.0; 
stroke:#000000; stroke-width:0.000000; stroke-opacity:1; 
stroke-linecap:round; stroke-linejoin:round;">
<g >
</g>
<g style="fill:#000000; fill-opacity:0.0; 
stroke:#000000; stroke-width:0.000000; stroke-opacity:1; 
stroke-linecap:round; stroke-linejoin:round;">
</g>
<g style="fill:#000000; fill-opacity:1.000000; 
stroke:#000000; stroke-width:0.000000; stroke-opacity:1; 
stroke-linecap:round; stroke-linejoin:round;">
<path style="fill:#000000; fill-opacity:1.000000; 
stroke:#000000; stroke-width:0.000000; stroke-opacity:1; 
stroke-linecap:round; stroke-linejoin:round;fill-rule:evenodd;"
d="M 87.819890,54.716439
88.469410,54.341439
88.884410,55.060241
88.234890,55.435241
Z" /> 
<path style="fill:#000000; fill-opacity:1.000000; 
stroke:#000000; stroke-width:0.000000; stroke-opacity:1; 
stroke-linecap:round; stroke-linejoin:round;fill-rule:evenodd;"
d="M 87.230994,55.056439
87.664006,54.806439
88.079006,55.525241
87.645994,55.775241
Z" /> 
<path style="fill:#000000; fill-opacity:1.000000; 
stroke:#000000; stroke-width:0.000000; stroke-opacity:1; 
stroke-linecap:round; stroke-linejoin:round;fill-rule:evenodd;"
d="M 86.425590,55.521439
87.075110,55.146439
87.490110,55.865241
86.840590,56.240241
Z" /> 
<path style="fill:#000000; fill-opacity:1.000000; 
stroke:#000000; stroke-width:0.000000; stroke-opacity:1; 
stroke-linecap:round; stroke-linejoin:round;fill-rule:evenodd;"
d="M 87.215590,56.889759
87.865110,56.514759
88.280110,57.233561
87.630590,57.608561
Z" /> 
<path style="fill:#000000; fill-opacity:1.000000; 
stroke:#000000; stroke-width:0.000000; stroke-opacity:1; 
stroke-linecap:round; stroke-linejoin:round;fill-rule:evenodd;"
d="M 88.020994,56.424759
88.454006,56.174759
88.869006,56.893561
88.435994,57.143561
Z" /> 
<path style="fill:#000000; fill-opacity:1.000000; 
stroke:#000000; stroke-width:0.000000; stroke-opacity:1; 
stroke-linecap:round; stroke-linejoin:round;fill-rule:evenodd;"
d="M 88.609890,56.084759
89.259410,55.709759
89.674410,56.428561
89.024890,56.803561
Z" /> 
</g>
<g >
</g>
<g style="fill:#000000; fill-opacity:1.000000; 
stroke:#000000; stroke-width:0.000000; stroke-opacity:1; 
stroke-linecap:round; stroke-linejoin:round;">
<path style="fill:#000000; fill-opacity:1.000000; 
stroke:#000000; stroke-width:0.000000; stroke-opacity:1; 
stroke-linecap:round; stroke-linejoin:round;fill-rule:evenodd;"
d="M 81.205000,69.430000
81.205000,70.180000
80.375000,70.180000
80.375000,69.430000
Z" /> 
<path style="fill:#000000; fill-opacity:1.000000; 
stroke:#000000; stroke-width:0.000000; stroke-opacity:1; 
stroke-linecap:round; stroke-linejoin:round;fill-rule:evenodd;"
d="M 81.205000,68.750000
81.205000,69.250000
80.375000,69.250000
80.375000,68.750000
Z" /> 
<path style="fill:#000000; fill-opacity:1.000000; 
stroke:#000000; stroke-width:0.000000; stroke-opacity:1; 
stroke-linecap:round; stroke-linejoin:round;fill-rule:evenodd;"
d="M 81.205000,67.820000
81.205000,68.570000
80.375000,68.570000
80.375000,67.820000
Z" /> 
<path style="fill:#000000; fill-opacity:1.000000; 
stroke:#000000; stroke-width:0.000000; stroke-opacity:1; 
stroke-linecap:round; stroke-linejoin:round;fill-rule:evenodd;"
d="M 79.625000,67.820000
79.625000,68.570000
78.795000,68.570000
78.795000,67.820000
Z" /> 
<path style="fill:#000000; fill-opacity:1.000000; 
stroke:#000000; stroke-width:0.000000; stroke-opacity:1; 
stroke-linecap:round; stroke-linejoin:round;fill-rule:evenodd;"
d="M 79.625000,68.750000
79.625000,69.250000
78.795000,69.250000
78.795000,68.750000
Z" /> 
<path style="fill:#000000; fill-opacity:1.000000; 
stroke:#000000; stroke-width:0.000000; stroke-opacity:1; 
stroke-linecap:round; stroke-linejoin:round;fill-rule:evenodd;"
d="M 79.625000,69.430000
79.625000,70.180000
78.795000,70.180000
78.795000,69.430000
Z" /> 
</g>
<g >
</g>
<g style="fill:#000000; fill-opacity:1.000000; 
stroke:#000000; stroke-width:0.000000; stroke-opacity:1; 
stroke-linecap:round; stroke-linejoin:round;">
<path style="fill:#000000; fill-opacity:1.000000; 
stroke:#000000; stroke-width:0.000000; stroke-opacity:1; 
stroke-linecap:round; stroke-linejoin:round;fill-rule:evenodd;"
d="M 78.795000,50.570000
78.795000,49.820000
79.625000,49.820000
79.625000,50.570000
Z" /> 
<path style="fill:#000000; fill-opacity:1.000000; 
stroke:#000000; stroke-width:0.000000; stroke-opacity:1; 
stroke-linecap:round; stroke-linejoin:round;fill-rule:evenodd;"
d="M 78.795000,51.250000
78.795000,50.750000
79.625000,50.750000
79.625000,51.250000
Z" /> 
<path style="fill:#000000; fill-opacity:1.000000; 
stroke:#000000; stroke-width:0.000000; stroke-opacity:1; 
stroke-linecap:round; stroke-linejoin:round;fill-rule:evenodd;"
d="M 78.795000,52.180000
78.795000,51.430000
79.625000,51.430000
79.625000,52.180000
Z" /> 
<path style="fill:#000000; fill-opacity:1.000000; 
stroke:#000000; stroke-width:0.000000; stroke-opacity:1; 
stroke-linecap:round; stroke-linejoin:round;fill-rule:evenodd;"
d="M 80.375000,52.180000
80.375000,51.430000
81.205000,51.430000
81.205000,52.180000
Z" /> 
<path style="fill:#000000; fill-opacity:1.000000; 
stroke:#000000; stroke-width:0.000000; stroke-opacity:1; 
stroke-linecap:round; stroke-linejoin:round;fill-rule:evenodd;"
d="M 80.375000,51.250000
80.375000,50.750000
81.205000,50.750000
81.205000,51.250000
Z" /> 
<path style="fill:#000000; fill-opacity:1.000000; 
stroke:#000000; stroke-width:0.000000; stroke-opacity:1; 
stroke-linecap:round; stroke-linejoin:round;fill-rule:evenodd;"
d="M 80.375000,50.570000
80.375000,49.820000
81.205000,49.820000
81.205000,50.570000
Z" /> 
</g>
<g >
</g>
<g style="fill:#000000; fill-opacity:1.000000; 
stroke:#000000; stroke-width:0.000000; stroke-opacity:1; 
stroke-linecap:round; stroke-linejoin:round;">
<path style="fill:#000000; fill-opacity:1.000000; 
stroke:#000000; stroke-width:0.000000; stroke-opacity:1; 
stroke-linecap:round; stroke-linejoin:round;fill-rule:evenodd;"
d="M 72.180110,65.283561
71.530590,65.658561
71.115590,64.939759
71.765110,64.564759
Z" /> 
<path style="fill:#000000; fill-opacity:1.000000; 
stroke:#000000; stroke-width:0.000000; stroke-opacity:1; 
stroke-linecap:round; stroke-linejoin:round;fill-rule:evenodd;"
d="M 72.769006,64.943561
72.335994,65.193561
71.920994,64.474759
72.354006,64.224759
Z" /> 
<path style="fill:#000000; fill-opacity:1.000000; 
stroke:#000000; stroke-width:0.000000; stroke-opacity:1; 
stroke-linecap:round; stroke-linejoin:round;fill-rule:evenodd;"
d="M 73.574410,64.478561
72.924890,64.853561
72.509890,64.134759
73.159410,63.759759
Z" /> 
<path style="fill:#000000; fill-opacity:1.000000; 
stroke:#000000; stroke-width:0.000000; stroke-opacity:1; 
stroke-linecap:round; stroke-linejoin:round;fill-rule:evenodd;"
d="M 72.784410,63.110241
72.134890,63.485241
71.719890,62.766439
72.369410,62.391439
Z" /> 
<path style="fill:#000000; fill-opacity:1.000000; 
stroke:#000000; stroke-width:0.000000; stroke-opacity:1; 
stroke-linecap:round; stroke-linejoin:round;fill-rule:evenodd;"
d="M 71.979006,63.575241
71.545994,63.825241
71.130994,63.106439
71.564006,62.856439
Z" /> 
<path style="fill:#000000; fill-opacity:1.000000; 
stroke:#000000; stroke-width:0.000000; stroke-opacity:1; 
stroke-linecap:round; stroke-linejoin:round;fill-rule:evenodd;"
d="M 71.390110,63.915241
70.740590,64.290241
70.325590,63.571439
70.975110,63.196439
Z" /> 
</g>
<g >
</g>
<g style="fill:#000000; fill-opacity:1.000000; 
stroke:#000000; stroke-width:0.000000; stroke-opacity:1; 
stroke-linecap:round; stroke-linejoin:round;">
<path style="fill:#000000; fill-opacity:1.000000; 
stroke:#000000; stroke-width:0.000000; stroke-opacity:1; 
stroke-linecap:round; stroke-linejoin:round;fill-rule:evenodd;"
d="M 70.975110,56.803561
70.325590,56.428561
70.740590,55.709759
71.390110,56.084759
Z" /> 
<path style="fill:#000000; fill-opacity:1.000000; 
stroke:#000000; stroke-width:0.000000; stroke-opacity:1; 
stroke-linecap:round; stroke-linejoin:round;fill-rule:evenodd;"
d="M 71.564006,57.143561
71.130994,56.893561
71.545994,56.174759
71.979006,56.424759
Z" /> 
<path style="fill:#000000; fill-opacity:1.000000; 
stroke:#000000; stroke-width:0.000000; stroke-opacity:1; 
stroke-linecap:round; stroke-linejoin:round;fill-rule:evenodd;"
d="M 72.369410,57.608561
71.719890,57.233561
72.134890,56.514759
72.784410,56.889759
Z" /> 
<path style="fill:#000000; fill-opacity:1.000000; 
stroke:#000000; stroke-width:0.000000; stroke-opacity:1; 
stroke-linecap:round; stroke-linejoin:round;fill-rule:evenodd;"
d="M 73.159410,56.240241
72.509890,55.865241
72.924890,55.146439
73.574410,55.521439
Z" /> 
<path style="fill:#000000; fill-opacity:1.000000; 
stroke:#000000; stroke-width:0.000000; stroke-opacity:1; 
stroke-linecap:round; stroke-linejoin:round;fill-rule:evenodd;"
d="M 72.354006,55.775241
71.920994,55.525241
72.335994,54.806439
72.769006,55.056439
Z" /> 
<path style="fill:#000000; fill-opacity:1.000000; 
stroke:#000000; stroke-width:0.000000; stroke-opacity:1; 
stroke-linecap:round; stroke-linejoin:round;fill-rule:evenodd;"
d="M 71.765110,55.435241
71.115590,55.060241
71.530590,54.341439
72.180110,54.716439
Z" /> 
</g>
<g >
</g>
<g style="fill:#000000; fill-opacity:1.000000; 
stroke:#000000; stroke-width:0.000000; stroke-opacity:1; 
stroke-linecap:round; stroke-linejoin:round;">
<path style="fill:#000000; fill-opacity:1.000000; 
stroke:#000000; stroke-width:0.000000; stroke-opacity:1; 
stroke-linecap:round; stroke-linejoin:round;fill-rule:evenodd;"
d="M 89.024890,63.196439
89.674410,63.571439
89.259410,64.290241
88.609890,63.915241
Z" /> 
<path style="fill:#000000; fill-opacity:1.000000; 
stroke:#000000; stroke-width:0.000000; stroke-opacity:1; 
stroke-linecap:round; stroke-linejoin:round;fill-rule:evenodd;"
d="M 88.435994,62.856439
88.869006,63.106439
88.454006,63.825241
88.020994,63.575241
Z" /> 
<path style="fill:#000000; fill-opacity:1.000000; 
stroke:#000000; stroke-width:0.000000; stroke-opacity:1; 
stroke-linecap:round; stroke-linejoin:round;fill-rule:evenodd;"
d="M 87.630590,62.391439
88.280110,62.766439
87.865110,63.485241
87.215590,63.110241
Z" /> 
<path style="fill:#000000; fill-opacity:1.000000; 
stroke:#000000; stroke-width:0.000000; stroke-opacity:1; 
stroke-linecap:round; stroke-linejoin:round;fill-rule:evenodd;"
d="M 86.840590,63.759759
87.490110,64.134759
87.075110,64.853561
86.425590,64.478561
Z" /> 
<path style="fill:#000000; fill-opacity:1.000000; 
stroke:#000000; stroke-width:0.000000; stroke-opacity:1; 
stroke-linecap:round; stroke-linejoin:round;fill-rule:evenodd;"
d="M 87.645994,64.224759
88.079006,64.474759
87.664006,65.193561
87.230994,64.943561
Z" /> 
<path style="fill:#000000; fill-opacity:1.000000; 
stroke:#000000; stroke-width:0.000000; stroke-opacity:1; 
stroke-linecap:round; stroke-linejoin:round;fill-rule:evenodd;"
d="M 88.234890,64.564759
88.884410,64.939759
88.469410,65.658561
87.819890,65.283561
Z" /> 
</g>
<g >
</g>
<g >
</g>
<g >
</g>
<g >
</g>
<g >
</g>
<g >
</g>
<g style="fill:#000000; fill-opacity:1.000000; 
stroke:#000000; stroke-width:0.000000; stroke-opacity:1; 
stroke-linecap:round; stroke-linejoin:round;">
<circle cx="89.500000" cy="61.400000" r="0.400000" /> 
</g>
<g style="fill:#000000; fill-opacity:1.000000; 
stroke:#000000; stroke-width:0.021200; stroke-opacity:1; 
stroke-linecap:round; stroke-linejoin:round;">
</g>
<g style="fill:#000000; fill-opacity:1.000000; 
stroke:#000000; stroke-width:0.000000; stroke-opacity:1; 
stroke-linecap:round; stroke-linejoin:round;">
<circle cx="90.500000" cy="61.400000" r="0.400000" /> 
</g>
<g style="fill:#000000; fill-opacity:1.000000; 
stroke:#000000; stroke-width:0.021200; stroke-opacity:1; 
stroke-linecap:round; stroke-linejoin:round;">
</g>
<g style="fill:#000000; fill-opacity:1.000000; 
stroke:#000000; stroke-width:0.000000; stroke-opacity:1; 
stroke-linecap:round; stroke-linejoin:round;">
<circle cx="90.500000" cy="62.400000" r="0.400000" /> 
</g>
<g style="fill:#000000; fill-opacity:1.000000; 
stroke:#000000; stroke-width:0.021200; stroke-opacity:1; 
stroke-linecap:round; stroke-linejoin:round;">
</g>
<g style="fill:#000000; fill-opacity:1.000000; 
stroke:#000000; stroke-width:0.000000; stroke-opacity:1; 
stroke-linecap:round; stroke-linejoin:round;">
<circle cx="95.600000" cy="72.700000" r="0.400000" /> 
</g>
<g style="fill:#000000; fill-opacity:1.000000; 
stroke:#000000; stroke-width:0.021200; stroke-opacity:1; 
stroke-linecap:round; stroke-linejoin:round;">
</g>
<g style="fill:#000000; fill-opacity:1.000000; 
stroke:#000000; stroke-width:0.000000; stroke-opacity:1; 
stroke-linecap:round; stroke-linejoin:round;">
<circle cx="97.375000" cy="55.600000" r="0.400000" /> 
</g>
<g style="fill:#000000; fill-opacity:1.000000; 
stroke:#000000; stroke-width:0.021200; stroke-opacity:1; 
stroke-linecap:round; stroke-linejoin:round;">
</g>
<g style="fill:#000000; fill-opacity:1.000000; 
stroke:#000000; stroke-width:0.000000; stroke-opacity:1; 
stroke-linecap:round; stroke-linejoin:round;">
<circle cx="92.400000" cy="55.500000" r="0.400000" /> 
</g>
<g style="fill:#000000; fill-opacity:1.000000; 
stroke:#000000; stroke-width:0.021200; stroke-opacity:1; 
stroke-linecap:round; stroke-linejoin:round;">
</g>
<g style="fill:#000000; fill-opacity:1.000000; 
stroke:#000000; stroke-width:0.000000; stroke-opacity:1; 
stroke-linecap:round; stroke-linejoin:round;">
<circle cx="90.800000" cy="53.400000" r="0.400000" /> 
</g>
<g style="fill:#000000; fill-opacity:1.000000; 
stroke:#000000; stroke-width:0.021200; stroke-opacity:1; 
stroke-linecap:round; stroke-linejoin:round;">
</g>
<g style="fill:#000000; fill-opacity:1.000000; 
stroke:#000000; stroke-width:0.000000; stroke-opacity:1; 
stroke-linecap:round; stroke-linejoin:round;">
<circle cx="90.800000" cy="52.200000" r="0.400000" /> 
</g>
<g style="fill:#000000; fill-opacity:1.000000; 
stroke:#000000; stroke-width:0.021200; stroke-opacity:1; 
stroke-linecap:round; stroke-linejoin:round;">
</g>
<g >
</g>
<g style="fill:#000000; fill-opacity:1.000000; 
stroke:#000000; stroke-width:0.021200; stroke-opacity:1; 
stroke-linecap:round; stroke-linejoin:round;">
</g>
<g style="fill:#000000; fill-opacity:1.000000; 
stroke:#000000; stroke-width:0.250000; stroke-opacity:1; 
stroke-linecap:round; stroke-linejoin:round;">
</g>
<g style="fill:#000000; fill-opacity:0.0; 
stroke:#000000; stroke-width:0.250000; stroke-opacity:1; 
stroke-linecap:round; stroke-linejoin:round;">
<path d="M83.105000 68.195000
L80.790000 68.195000
" />
<path d="M86.957850 64.306660
L86.957850 64.342150
" />
<path d="M86.957850 64.342150
L83.105000 68.195000
" />
<path d="M87.655000 64.745000
L83.400000 69.000000
" />
<path d="M87.655000 64.709160
L87.655000 64.745000
" />
<path d="M83.400000 69.000000
L80.790000 69.000000
" />
<path d="M88.352150 65.111660
L83.658810 69.805000
" />
<path d="M83.658810 69.805000
L80.790000 69.805000
" />
<path d="M76.795000 68.195000
L73.042150 64.442150
" />
<path d="M79.210000 68.195000
L76.795000 68.195000
" />
<path d="M73.042150 64.442150
L73.042150 64.306660
" />
<path d="M76.500000 69.000000
L72.345000 64.845000
" />
<path d="M72.345000 64.845000
L72.345000 64.709160
" />
<path d="M79.210000 69.000000
L76.500000 69.000000
" />
<path d="M79.210000 69.805000
L76.341190 69.805000
" />
<path d="M76.341190 69.805000
L71.647850 65.111660
" />
<path d="M72.252150 62.938340
L72.100000 62.786190
" />
<path d="M72.100000 57.213810
L72.252150 57.061660
" />
<path d="M72.100000 62.786190
L72.100000 57.213810
" />
<path d="M71.300000 63.085840
L71.300000 56.914160
" />
<path d="M71.555000 63.340840
L71.300000 63.085840
" />
<path d="M71.300000 56.914160
L71.555000 56.659160
" />
<path d="M70.857850 63.743340
L70.600000 63.485490
" />
<path d="M70.600000 63.485490
L70.600000 56.514510
" />
<path d="M70.600000 56.514510
L70.857850 56.256660
" />
<path d="M76.930490 51.805000
L79.210000 51.805000
" />
<path d="M73.042150 55.693340
L76.930490 51.805000
" />
<path d="M76.611709 51.000000
L72.332934 55.278775
" />
<path d="M79.210000 51.000000
L76.611709 51.000000
" />
<path d="M79.210000 50.195000
L76.341190 50.195000
" />
<path d="M76.341190 50.195000
L71.647850 54.888340
" />
<path d="M80.790000 51.805000
L83.069510 51.805000
" />
<path d="M83.069510 51.805000
L86.957850 55.693340
" />
<path d="M85.600000 53.200000
L85.600000 53.211709
" />
<path d="M83.400000 51.000000
L85.600000 53.200000
" />
<path d="M80.790000 51.000000
L83.400000 51.000000
" />
<path d="M85.600000 53.211709
L87.667066 55.278775
" />
<path d="M83.658810 50.195000
L88.352150 54.888340
" />
<path d="M80.790000 50.195000
L83.658810 50.195000
" />
<path d="M87.747850 57.061660
L88.250000 57.563810
" />
<path d="M88.300000 57.800000
L88.250000 57.750000
" />
<path d="M88.250000 57.563810
L88.250000 57.750000
" />
<path d="M92.400000 55.500000
L90.100000 57.800000
" />
<path d="M90.100000 57.800000
L88.300000 57.800000
" />
<path d="M90.800000 53.400000
L90.800000 56.100000
" />
<path d="M90.800000 56.100000
L89.600000 57.300000
" />
<path d="M89.061709 57.300000
L88.432934 56.671225
" />
<path d="M89.600000 57.300000
L89.061709 57.300000
" />
<path d="M90.100000 55.500000
L90.075000 55.475000
" />
<path d="M89.600000 56.000000
L90.100000 55.500000
" />
<path d="M89.398810 56.000000
L89.600000 56.000000
" />
<path d="M90.075000 55.475000
L90.075000 52.925000
" />
<path d="M90.075000 52.925000
L90.800000 52.200000
" />
<path d="M89.142150 56.256660
L89.398810 56.000000
" />
</g>
<g >
</g>
<g style="fill:#000000; fill-opacity:0.0; 
stroke:#000000; stroke-width:0.250000; stroke-opacity:1; 
stroke-linecap:round; stroke-linejoin:round;">
<g >
</g>
<g style="fill:#000000; fill-opacity:1.000000; 
stroke:#000000; stroke-width:0.000000; stroke-opacity:1; 
stroke-linecap:round; stroke-linejoin:round;">
<path style="fill:#000000; fill-opacity:1.000000; 
stroke:#000000; stroke-width:0.000000; stroke-opacity:1; 
stroke-linecap:round; stroke-linejoin:round;fill-rule:evenodd;"
d="M 101.877886,54.197651
101.944533,54.218621
101.989264,54.272295
101.999500,54.321628
101.999500,72.994583
101.999028,73.005393
101.995523,73.045445
101.983082,73.171764
101.979455,73.191696
101.962123,73.256382
101.961008,73.260285
101.933319,73.351562
101.927041,73.367971
101.896328,73.433835
101.893304,73.439884
101.850990,73.519046
101.843207,73.531715
101.800373,73.592889
101.794652,73.600430
101.738826,73.668455
101.730653,73.677472
101.677472,73.730653
101.668455,73.738826
101.600430,73.794652
101.592889,73.800373
101.531715,73.843207
101.519046,73.850990
101.439884,73.893304
101.433835,73.896328
101.367971,73.927041
101.351562,73.933319
101.260285,73.961008
101.256382,73.962123
101.191700,73.979454
101.171761,73.983082
101.045445,73.995523
101.026131,73.997213
101.005360,73.999031
100.994594,73.999500
91.124000,73.999500
91.056961,73.979815
91.011206,73.927011
91.000000,73.875500
91.000000,68.024000
91.019685,67.956961
91.072489,67.911206
91.124000,67.900000
96.699999,67.900000
96.700000,67.900000
96.799090,54.225487
96.819260,54.158595
96.872394,54.113224
96.925466,54.102412
Z" /> 
</g>
</g>
<g style="fill:#000000; fill-opacity:1.000000; 
stroke:#000000; stroke-width:0.000000; stroke-opacity:1; 
stroke-linecap:round; stroke-linejoin:round;">
<g >
<path style="fill:#000000; fill-opacity:1.000000; 
stroke:#000000; stroke-width:0.000000; stroke-opacity:1; 
stroke-linecap:round; stroke-linejoin:round;fill-rule:evenodd;"
d="M 91.743039,58.719685
91.788794,58.772489
91.800000,58.824000
91.800000,61.500000
95.678988,61.500000
95.746027,61.519685
95.791782,61.572489
95.802950,61.620975
95.896545,65.458353
95.896902,65.472977
95.878858,65.540476
95.827185,65.587505
95.772939,65.600000
89.295921,65.600000
89.228882,65.580315
89.183127,65.527511
89.173183,65.458353
89.188534,65.414000
89.228313,65.345099
89.341790,65.148551
89.366046,65.093722
89.389914,64.951793
89.381196,64.878890
89.392781,64.809991
89.439779,64.758290
89.455508,64.750181
89.522319,64.721571
89.633189,64.630029
89.666549,64.584342
89.670179,64.578766
89.774921,64.397345
89.774921,64.397344
89.171657,64.049050
89.171654,64.049049
88.483655,63.651833
89.483655,63.651833
90.024921,63.964332
90.024922,63.964332
90.129673,63.782898
90.132681,63.776977
90.155565,63.725248
90.179409,63.583460
90.162338,63.440696
90.105742,63.308531
90.014198,63.197659
89.968511,63.164299
89.962943,63.160674
89.816155,63.075926
89.816154,63.075926
89.483655,63.651832
89.483655,63.651833
88.483655,63.651833
88.098665,63.429559
88.098661,63.429555
87.800000,63.257122
87.800000,63.249332
88.786506,63.249332
88.791337,63.252122
88.791340,63.252124
89.050642,63.401833
89.050643,63.401833
89.383142,62.825926
89.383142,62.825925
89.236348,62.741175
89.230424,62.738165
89.206871,62.727745
89.183916,62.714492
89.163118,62.699305
89.157540,62.695674
89.119005,62.673426
89.119004,62.673426
88.786506,63.249331
88.786506,63.249332
87.800000,63.249332
87.800000,62.846833
88.089355,62.846833
88.353492,62.999332
88.353493,62.999332
88.685992,62.423427
88.685992,62.423426
88.647451,62.401174
88.641527,62.398165
88.617974,62.387745
88.595019,62.374492
88.574221,62.359305
88.568643,62.355674
88.421855,62.270926
88.421854,62.270926
88.089355,62.846832
88.089355,62.846833
87.800000,62.846833
87.800000,62.348010
87.988842,62.020926
87.988842,62.020925
87.862000,61.947693
87.813784,61.897126
87.800000,61.840306
87.800000,58.824000
87.819685,58.756961
87.872489,58.711206
87.924000,58.700000
91.676000,58.700000
Z" /> 
</g>
</g>
</g> 
</svg>
