<?xml version="1.0" standalone="no"?>
 <!DOCTYPE svg PUBLIC "-//W3C//DTD SVG 1.1//EN" 
 "http://www.w3.org/Graphics/SVG/1.1/DTD/svg11.dtd"> 
<svg
  xmlns:svg="http://www.w3.org/2000/svg"
  xmlns="http://www.w3.org/2000/svg"
  xmlns:xlink="http://www.w3.org/1999/xlink"
  version="1.1"
  width="3.8100000000000005cm" height="3.0100000000000002cm" viewBox="64.95 44.95 38.1 30.1">
<title>SVG Image created as pedalboard-led-ring-F_Cu.svg date 2023/05/26 17:21:24 </title>
  <desc>Image generated by PCBNEW </desc>
<g style="fill:#000000; fill-opacity:1.000000;stroke:#000000; stroke-opacity:1.000000;
stroke-linecap:round; stroke-linejoin:round;"
 transform="translate(0 0) scale(1 1)">
</g>
<g style="fill:#000000; fill-opacity:0.0; 
stroke:#000000; stroke-width:0.000000; stroke-opacity:1; 
stroke-linecap:round; stroke-linejoin:round;">
<g >
</g>
<g style="fill:#000000; fill-opacity:0.0; 
stroke:#000000; stroke-width:0.000000; stroke-opacity:1; 
stroke-linecap:round; stroke-linejoin:round;">
</g>
<g style="fill:#000000; fill-opacity:1.000000; 
stroke:#000000; stroke-width:0.000000; stroke-opacity:1; 
stroke-linecap:round; stroke-linejoin:round;">
<path style="fill:#000000; fill-opacity:1.000000; 
stroke:#000000; stroke-width:0.000000; stroke-opacity:1; 
stroke-linecap:round; stroke-linejoin:round;fill-rule:evenodd;"
d="M 87.819890,54.716439
88.469410,54.341439
88.884410,55.060241
88.234890,55.435241
Z" /> 
<path style="fill:#000000; fill-opacity:1.000000; 
stroke:#000000; stroke-width:0.000000; stroke-opacity:1; 
stroke-linecap:round; stroke-linejoin:round;fill-rule:evenodd;"
d="M 87.230994,55.056439
87.664006,54.806439
88.079006,55.525241
87.645994,55.775241
Z" /> 
<path style="fill:#000000; fill-opacity:1.000000; 
stroke:#000000; stroke-width:0.000000; stroke-opacity:1; 
stroke-linecap:round; stroke-linejoin:round;fill-rule:evenodd;"
d="M 86.425590,55.521439
87.075110,55.146439
87.490110,55.865241
86.840590,56.240241
Z" /> 
<path style="fill:#000000; fill-opacity:1.000000; 
stroke:#000000; stroke-width:0.000000; stroke-opacity:1; 
stroke-linecap:round; stroke-linejoin:round;fill-rule:evenodd;"
d="M 87.215590,56.889759
87.865110,56.514759
88.280110,57.233561
87.630590,57.608561
Z" /> 
<path style="fill:#000000; fill-opacity:1.000000; 
stroke:#000000; stroke-width:0.000000; stroke-opacity:1; 
stroke-linecap:round; stroke-linejoin:round;fill-rule:evenodd;"
d="M 88.020994,56.424759
88.454006,56.174759
88.869006,56.893561
88.435994,57.143561
Z" /> 
<path style="fill:#000000; fill-opacity:1.000000; 
stroke:#000000; stroke-width:0.000000; stroke-opacity:1; 
stroke-linecap:round; stroke-linejoin:round;fill-rule:evenodd;"
d="M 88.609890,56.084759
89.259410,55.709759
89.674410,56.428561
89.024890,56.803561
Z" /> 
</g>
<g >
</g>
<g style="fill:#000000; fill-opacity:1.000000; 
stroke:#000000; stroke-width:0.000000; stroke-opacity:1; 
stroke-linecap:round; stroke-linejoin:round;">
<path style="fill:#000000; fill-opacity:1.000000; 
stroke:#000000; stroke-width:0.000000; stroke-opacity:1; 
stroke-linecap:round; stroke-linejoin:round;fill-rule:evenodd;"
d="M 81.205000,69.430000
81.205000,70.180000
80.375000,70.180000
80.375000,69.430000
Z" /> 
<path style="fill:#000000; fill-opacity:1.000000; 
stroke:#000000; stroke-width:0.000000; stroke-opacity:1; 
stroke-linecap:round; stroke-linejoin:round;fill-rule:evenodd;"
d="M 81.205000,68.750000
81.205000,69.250000
80.375000,69.250000
80.375000,68.750000
Z" /> 
<path style="fill:#000000; fill-opacity:1.000000; 
stroke:#000000; stroke-width:0.000000; stroke-opacity:1; 
stroke-linecap:round; stroke-linejoin:round;fill-rule:evenodd;"
d="M 81.205000,67.820000
81.205000,68.570000
80.375000,68.570000
80.375000,67.820000
Z" /> 
<path style="fill:#000000; fill-opacity:1.000000; 
stroke:#000000; stroke-width:0.000000; stroke-opacity:1; 
stroke-linecap:round; stroke-linejoin:round;fill-rule:evenodd;"
d="M 79.625000,67.820000
79.625000,68.570000
78.795000,68.570000
78.795000,67.820000
Z" /> 
<path style="fill:#000000; fill-opacity:1.000000; 
stroke:#000000; stroke-width:0.000000; stroke-opacity:1; 
stroke-linecap:round; stroke-linejoin:round;fill-rule:evenodd;"
d="M 79.625000,68.750000
79.625000,69.250000
78.795000,69.250000
78.795000,68.750000
Z" /> 
<path style="fill:#000000; fill-opacity:1.000000; 
stroke:#000000; stroke-width:0.000000; stroke-opacity:1; 
stroke-linecap:round; stroke-linejoin:round;fill-rule:evenodd;"
d="M 79.625000,69.430000
79.625000,70.180000
78.795000,70.180000
78.795000,69.430000
Z" /> 
</g>
<g >
</g>
<g style="fill:#000000; fill-opacity:1.000000; 
stroke:#000000; stroke-width:0.000000; stroke-opacity:1; 
stroke-linecap:round; stroke-linejoin:round;">
<path style="fill:#000000; fill-opacity:1.000000; 
stroke:#000000; stroke-width:0.000000; stroke-opacity:1; 
stroke-linecap:round; stroke-linejoin:round;fill-rule:evenodd;"
d="M 78.795000,50.570000
78.795000,49.820000
79.625000,49.820000
79.625000,50.570000
Z" /> 
<path style="fill:#000000; fill-opacity:1.000000; 
stroke:#000000; stroke-width:0.000000; stroke-opacity:1; 
stroke-linecap:round; stroke-linejoin:round;fill-rule:evenodd;"
d="M 78.795000,51.250000
78.795000,50.750000
79.625000,50.750000
79.625000,51.250000
Z" /> 
<path style="fill:#000000; fill-opacity:1.000000; 
stroke:#000000; stroke-width:0.000000; stroke-opacity:1; 
stroke-linecap:round; stroke-linejoin:round;fill-rule:evenodd;"
d="M 78.795000,52.180000
78.795000,51.430000
79.625000,51.430000
79.625000,52.180000
Z" /> 
<path style="fill:#000000; fill-opacity:1.000000; 
stroke:#000000; stroke-width:0.000000; stroke-opacity:1; 
stroke-linecap:round; stroke-linejoin:round;fill-rule:evenodd;"
d="M 80.375000,52.180000
80.375000,51.430000
81.205000,51.430000
81.205000,52.180000
Z" /> 
<path style="fill:#000000; fill-opacity:1.000000; 
stroke:#000000; stroke-width:0.000000; stroke-opacity:1; 
stroke-linecap:round; stroke-linejoin:round;fill-rule:evenodd;"
d="M 80.375000,51.250000
80.375000,50.750000
81.205000,50.750000
81.205000,51.250000
Z" /> 
<path style="fill:#000000; fill-opacity:1.000000; 
stroke:#000000; stroke-width:0.000000; stroke-opacity:1; 
stroke-linecap:round; stroke-linejoin:round;fill-rule:evenodd;"
d="M 80.375000,50.570000
80.375000,49.820000
81.205000,49.820000
81.205000,50.570000
Z" /> 
</g>
<g >
</g>
<g style="fill:#000000; fill-opacity:1.000000; 
stroke:#000000; stroke-width:0.000000; stroke-opacity:1; 
stroke-linecap:round; stroke-linejoin:round;">
<path style="fill:#000000; fill-opacity:1.000000; 
stroke:#000000; stroke-width:0.000000; stroke-opacity:1; 
stroke-linecap:round; stroke-linejoin:round;fill-rule:evenodd;"
d="M 72.180110,65.283561
71.530590,65.658561
71.115590,64.939759
71.765110,64.564759
Z" /> 
<path style="fill:#000000; fill-opacity:1.000000; 
stroke:#000000; stroke-width:0.000000; stroke-opacity:1; 
stroke-linecap:round; stroke-linejoin:round;fill-rule:evenodd;"
d="M 72.769006,64.943561
72.335994,65.193561
71.920994,64.474759
72.354006,64.224759
Z" /> 
<path style="fill:#000000; fill-opacity:1.000000; 
stroke:#000000; stroke-width:0.000000; stroke-opacity:1; 
stroke-linecap:round; stroke-linejoin:round;fill-rule:evenodd;"
d="M 73.574410,64.478561
72.924890,64.853561
72.509890,64.134759
73.159410,63.759759
Z" /> 
<path style="fill:#000000; fill-opacity:1.000000; 
stroke:#000000; stroke-width:0.000000; stroke-opacity:1; 
stroke-linecap:round; stroke-linejoin:round;fill-rule:evenodd;"
d="M 72.784410,63.110241
72.134890,63.485241
71.719890,62.766439
72.369410,62.391439
Z" /> 
<path style="fill:#000000; fill-opacity:1.000000; 
stroke:#000000; stroke-width:0.000000; stroke-opacity:1; 
stroke-linecap:round; stroke-linejoin:round;fill-rule:evenodd;"
d="M 71.979006,63.575241
71.545994,63.825241
71.130994,63.106439
71.564006,62.856439
Z" /> 
<path style="fill:#000000; fill-opacity:1.000000; 
stroke:#000000; stroke-width:0.000000; stroke-opacity:1; 
stroke-linecap:round; stroke-linejoin:round;fill-rule:evenodd;"
d="M 71.390110,63.915241
70.740590,64.290241
70.325590,63.571439
70.975110,63.196439
Z" /> 
</g>
<g >
</g>
<g style="fill:#000000; fill-opacity:1.000000; 
stroke:#000000; stroke-width:0.000000; stroke-opacity:1; 
stroke-linecap:round; stroke-linejoin:round;">
<path style="fill:#000000; fill-opacity:1.000000; 
stroke:#000000; stroke-width:0.000000; stroke-opacity:1; 
stroke-linecap:round; stroke-linejoin:round;fill-rule:evenodd;"
d="M 70.975110,56.803561
70.325590,56.428561
70.740590,55.709759
71.390110,56.084759
Z" /> 
<path style="fill:#000000; fill-opacity:1.000000; 
stroke:#000000; stroke-width:0.000000; stroke-opacity:1; 
stroke-linecap:round; stroke-linejoin:round;fill-rule:evenodd;"
d="M 71.564006,57.143561
71.130994,56.893561
71.545994,56.174759
71.979006,56.424759
Z" /> 
<path style="fill:#000000; fill-opacity:1.000000; 
stroke:#000000; stroke-width:0.000000; stroke-opacity:1; 
stroke-linecap:round; stroke-linejoin:round;fill-rule:evenodd;"
d="M 72.369410,57.608561
71.719890,57.233561
72.134890,56.514759
72.784410,56.889759
Z" /> 
<path style="fill:#000000; fill-opacity:1.000000; 
stroke:#000000; stroke-width:0.000000; stroke-opacity:1; 
stroke-linecap:round; stroke-linejoin:round;fill-rule:evenodd;"
d="M 73.159410,56.240241
72.509890,55.865241
72.924890,55.146439
73.574410,55.521439
Z" /> 
<path style="fill:#000000; fill-opacity:1.000000; 
stroke:#000000; stroke-width:0.000000; stroke-opacity:1; 
stroke-linecap:round; stroke-linejoin:round;fill-rule:evenodd;"
d="M 72.354006,55.775241
71.920994,55.525241
72.335994,54.806439
72.769006,55.056439
Z" /> 
<path style="fill:#000000; fill-opacity:1.000000; 
stroke:#000000; stroke-width:0.000000; stroke-opacity:1; 
stroke-linecap:round; stroke-linejoin:round;fill-rule:evenodd;"
d="M 71.765110,55.435241
71.115590,55.060241
71.530590,54.341439
72.180110,54.716439
Z" /> 
</g>
<g >
</g>
<g style="fill:#000000; fill-opacity:1.000000; 
stroke:#000000; stroke-width:0.000000; stroke-opacity:1; 
stroke-linecap:round; stroke-linejoin:round;">
<path style="fill:#000000; fill-opacity:1.000000; 
stroke:#000000; stroke-width:0.000000; stroke-opacity:1; 
stroke-linecap:round; stroke-linejoin:round;fill-rule:evenodd;"
d="M 89.024890,63.196439
89.674410,63.571439
89.259410,64.290241
88.609890,63.915241
Z" /> 
<path style="fill:#000000; fill-opacity:1.000000; 
stroke:#000000; stroke-width:0.000000; stroke-opacity:1; 
stroke-linecap:round; stroke-linejoin:round;fill-rule:evenodd;"
d="M 88.435994,62.856439
88.869006,63.106439
88.454006,63.825241
88.020994,63.575241
Z" /> 
<path style="fill:#000000; fill-opacity:1.000000; 
stroke:#000000; stroke-width:0.000000; stroke-opacity:1; 
stroke-linecap:round; stroke-linejoin:round;fill-rule:evenodd;"
d="M 87.630590,62.391439
88.280110,62.766439
87.865110,63.485241
87.215590,63.110241
Z" /> 
<path style="fill:#000000; fill-opacity:1.000000; 
stroke:#000000; stroke-width:0.000000; stroke-opacity:1; 
stroke-linecap:round; stroke-linejoin:round;fill-rule:evenodd;"
d="M 86.840590,63.759759
87.490110,64.134759
87.075110,64.853561
86.425590,64.478561
Z" /> 
<path style="fill:#000000; fill-opacity:1.000000; 
stroke:#000000; stroke-width:0.000000; stroke-opacity:1; 
stroke-linecap:round; stroke-linejoin:round;fill-rule:evenodd;"
d="M 87.645994,64.224759
88.079006,64.474759
87.664006,65.193561
87.230994,64.943561
Z" /> 
<path style="fill:#000000; fill-opacity:1.000000; 
stroke:#000000; stroke-width:0.000000; stroke-opacity:1; 
stroke-linecap:round; stroke-linejoin:round;fill-rule:evenodd;"
d="M 88.234890,64.564759
88.884410,64.939759
88.469410,65.658561
87.819890,65.283561
Z" /> 
</g>
<g >
</g>
<g >
</g>
<g >
</g>
<g >
</g>
<g >
</g>
<g >
</g>
<g >
</g>
<g >
</g>
<g >
</g>
<g >
</g>
<g >
</g>
<g style="fill:#000000; fill-opacity:1.000000; 
stroke:#000000; stroke-width:0.000000; stroke-opacity:1; 
stroke-linecap:round; stroke-linejoin:round;">
<circle cx="89.500000" cy="61.400000" r="0.400000" /> 
</g>
<g style="fill:#000000; fill-opacity:1.000000; 
stroke:#000000; stroke-width:0.021200; stroke-opacity:1; 
stroke-linecap:round; stroke-linejoin:round;">
</g>
<g style="fill:#000000; fill-opacity:1.000000; 
stroke:#000000; stroke-width:0.000000; stroke-opacity:1; 
stroke-linecap:round; stroke-linejoin:round;">
<circle cx="90.500000" cy="61.400000" r="0.400000" /> 
</g>
<g style="fill:#000000; fill-opacity:1.000000; 
stroke:#000000; stroke-width:0.021200; stroke-opacity:1; 
stroke-linecap:round; stroke-linejoin:round;">
</g>
<g style="fill:#000000; fill-opacity:1.000000; 
stroke:#000000; stroke-width:0.000000; stroke-opacity:1; 
stroke-linecap:round; stroke-linejoin:round;">
<circle cx="83.000000" cy="71.200000" r="0.400000" /> 
</g>
<g style="fill:#000000; fill-opacity:1.000000; 
stroke:#000000; stroke-width:0.021200; stroke-opacity:1; 
stroke-linecap:round; stroke-linejoin:round;">
</g>
<g style="fill:#000000; fill-opacity:1.000000; 
stroke:#000000; stroke-width:0.000000; stroke-opacity:1; 
stroke-linecap:round; stroke-linejoin:round;">
<circle cx="86.400000" cy="69.750000" r="0.400000" /> 
</g>
<g style="fill:#000000; fill-opacity:1.000000; 
stroke:#000000; stroke-width:0.021200; stroke-opacity:1; 
stroke-linecap:round; stroke-linejoin:round;">
</g>
<g style="fill:#000000; fill-opacity:1.000000; 
stroke:#000000; stroke-width:0.000000; stroke-opacity:1; 
stroke-linecap:round; stroke-linejoin:round;">
<circle cx="87.900000" cy="69.750000" r="0.400000" /> 
</g>
<g style="fill:#000000; fill-opacity:1.000000; 
stroke:#000000; stroke-width:0.021200; stroke-opacity:1; 
stroke-linecap:round; stroke-linejoin:round;">
</g>
<g style="fill:#000000; fill-opacity:1.000000; 
stroke:#000000; stroke-width:0.000000; stroke-opacity:1; 
stroke-linecap:round; stroke-linejoin:round;">
<circle cx="81.250000" cy="70.800000" r="0.400000" /> 
</g>
<g style="fill:#000000; fill-opacity:1.000000; 
stroke:#000000; stroke-width:0.021200; stroke-opacity:1; 
stroke-linecap:round; stroke-linejoin:round;">
</g>
<g style="fill:#000000; fill-opacity:1.000000; 
stroke:#000000; stroke-width:0.000000; stroke-opacity:1; 
stroke-linecap:round; stroke-linejoin:round;">
<circle cx="96.550000" cy="58.500000" r="0.400000" /> 
</g>
<g style="fill:#000000; fill-opacity:1.000000; 
stroke:#000000; stroke-width:0.021200; stroke-opacity:1; 
stroke-linecap:round; stroke-linejoin:round;">
</g>
<g style="fill:#000000; fill-opacity:1.000000; 
stroke:#000000; stroke-width:0.000000; stroke-opacity:1; 
stroke-linecap:round; stroke-linejoin:round;">
<circle cx="91.800000" cy="69.500000" r="0.400000" /> 
</g>
<g style="fill:#000000; fill-opacity:1.000000; 
stroke:#000000; stroke-width:0.021200; stroke-opacity:1; 
stroke-linecap:round; stroke-linejoin:round;">
</g>
<g style="fill:#000000; fill-opacity:1.000000; 
stroke:#000000; stroke-width:0.000000; stroke-opacity:1; 
stroke-linecap:round; stroke-linejoin:round;">
<circle cx="101.050000" cy="51.750000" r="0.400000" /> 
</g>
<g style="fill:#000000; fill-opacity:1.000000; 
stroke:#000000; stroke-width:0.021200; stroke-opacity:1; 
stroke-linecap:round; stroke-linejoin:round;">
</g>
<g style="fill:#000000; fill-opacity:1.000000; 
stroke:#000000; stroke-width:0.000000; stroke-opacity:1; 
stroke-linecap:round; stroke-linejoin:round;">
<circle cx="96.500000" cy="72.550000" r="0.400000" /> 
</g>
<g style="fill:#000000; fill-opacity:1.000000; 
stroke:#000000; stroke-width:0.021200; stroke-opacity:1; 
stroke-linecap:round; stroke-linejoin:round;">
</g>
<g style="fill:#000000; fill-opacity:1.000000; 
stroke:#000000; stroke-width:0.000000; stroke-opacity:1; 
stroke-linecap:round; stroke-linejoin:round;">
<circle cx="96.500000" cy="68.400000" r="0.400000" /> 
</g>
<g style="fill:#000000; fill-opacity:1.000000; 
stroke:#000000; stroke-width:0.021200; stroke-opacity:1; 
stroke-linecap:round; stroke-linejoin:round;">
</g>
<g style="fill:#000000; fill-opacity:1.000000; 
stroke:#000000; stroke-width:0.000000; stroke-opacity:1; 
stroke-linecap:round; stroke-linejoin:round;">
<circle cx="90.800000" cy="50.850000" r="0.400000" /> 
</g>
<g style="fill:#000000; fill-opacity:1.000000; 
stroke:#000000; stroke-width:0.021200; stroke-opacity:1; 
stroke-linecap:round; stroke-linejoin:round;">
</g>
<g style="fill:#000000; fill-opacity:1.000000; 
stroke:#000000; stroke-width:0.000000; stroke-opacity:1; 
stroke-linecap:round; stroke-linejoin:round;">
<circle cx="93.450000" cy="58.050000" r="0.400000" /> 
</g>
<g style="fill:#000000; fill-opacity:1.000000; 
stroke:#000000; stroke-width:0.021200; stroke-opacity:1; 
stroke-linecap:round; stroke-linejoin:round;">
</g>
<g style="fill:#000000; fill-opacity:1.000000; 
stroke:#000000; stroke-width:0.000000; stroke-opacity:1; 
stroke-linecap:round; stroke-linejoin:round;">
<circle cx="99.040000" cy="72.540000" r="0.400000" /> 
</g>
<g style="fill:#000000; fill-opacity:1.000000; 
stroke:#000000; stroke-width:0.021200; stroke-opacity:1; 
stroke-linecap:round; stroke-linejoin:round;">
</g>
<g style="fill:#000000; fill-opacity:1.000000; 
stroke:#000000; stroke-width:0.000000; stroke-opacity:1; 
stroke-linecap:round; stroke-linejoin:round;">
<circle cx="99.200000" cy="55.200000" r="0.400000" /> 
</g>
<g style="fill:#000000; fill-opacity:1.000000; 
stroke:#000000; stroke-width:0.021200; stroke-opacity:1; 
stroke-linecap:round; stroke-linejoin:round;">
</g>
<g style="fill:#000000; fill-opacity:1.000000; 
stroke:#000000; stroke-width:0.000000; stroke-opacity:1; 
stroke-linecap:round; stroke-linejoin:round;">
<circle cx="92.400000" cy="55.500000" r="0.400000" /> 
</g>
<g style="fill:#000000; fill-opacity:1.000000; 
stroke:#000000; stroke-width:0.021200; stroke-opacity:1; 
stroke-linecap:round; stroke-linejoin:round;">
</g>
<g style="fill:#000000; fill-opacity:1.000000; 
stroke:#000000; stroke-width:0.000000; stroke-opacity:1; 
stroke-linecap:round; stroke-linejoin:round;">
<circle cx="90.800000" cy="53.400000" r="0.400000" /> 
</g>
<g style="fill:#000000; fill-opacity:1.000000; 
stroke:#000000; stroke-width:0.021200; stroke-opacity:1; 
stroke-linecap:round; stroke-linejoin:round;">
</g>
<g style="fill:#000000; fill-opacity:1.000000; 
stroke:#000000; stroke-width:0.000000; stroke-opacity:1; 
stroke-linecap:round; stroke-linejoin:round;">
<circle cx="90.800000" cy="52.200000" r="0.400000" /> 
</g>
<g style="fill:#000000; fill-opacity:1.000000; 
stroke:#000000; stroke-width:0.021200; stroke-opacity:1; 
stroke-linecap:round; stroke-linejoin:round;">
</g>
<g >
</g>
<g style="fill:#000000; fill-opacity:1.000000; 
stroke:#000000; stroke-width:0.021200; stroke-opacity:1; 
stroke-linecap:round; stroke-linejoin:round;">
</g>
<g style="fill:#000000; fill-opacity:1.000000; 
stroke:#000000; stroke-width:0.250000; stroke-opacity:1; 
stroke-linecap:round; stroke-linejoin:round;">
</g>
<g style="fill:#000000; fill-opacity:0.0; 
stroke:#000000; stroke-width:0.250000; stroke-opacity:1; 
stroke-linecap:round; stroke-linejoin:round;">
<path d="M84.300000 67.000000
L81.985000 67.000000
" />
<path d="M81.985000 67.000000
L80.790000 68.195000
" />
<path d="M86.957850 64.342150
L84.300000 67.000000
" />
<path d="M86.957850 64.306660
L86.957850 64.342150
" />
<path d="M87.655000 64.745000
L84.750000 67.650000
" />
<path d="M84.750000 67.650000
L82.735000 67.650000
" />
<path d="M87.655000 64.709160
L87.655000 64.745000
" />
<path d="M82.735000 67.650000
L81.385000 69.000000
" />
<path d="M81.385000 69.000000
L80.790000 69.000000
" />
<path d="M88.352150 65.111660
L85.063810 68.400000
" />
<path d="M81.188112 69.805000
L80.790000 69.805000
" />
<path d="M85.063810 68.400000
L82.593112 68.400000
" />
<path d="M82.593112 68.400000
L81.188112 69.805000
" />
<path d="M76.795000 68.195000
L73.042150 64.442150
" />
<path d="M79.210000 68.195000
L76.795000 68.195000
" />
<path d="M73.042150 64.442150
L73.042150 64.306660
" />
<path d="M76.500000 69.000000
L72.345000 64.845000
" />
<path d="M72.345000 64.845000
L72.345000 64.709160
" />
<path d="M79.210000 69.000000
L76.500000 69.000000
" />
<path d="M79.210000 69.805000
L76.341190 69.805000
" />
<path d="M76.341190 69.805000
L71.647850 65.111660
" />
<path d="M72.252150 62.938340
L72.100000 62.786190
" />
<path d="M72.100000 57.213810
L72.252150 57.061660
" />
<path d="M72.100000 62.786190
L72.100000 57.213810
" />
<path d="M71.300000 63.085840
L71.300000 56.914160
" />
<path d="M71.555000 63.340840
L71.300000 63.085840
" />
<path d="M71.300000 56.914160
L71.555000 56.659160
" />
<path d="M70.857850 63.743340
L70.600000 63.485490
" />
<path d="M70.600000 63.485490
L70.600000 56.514510
" />
<path d="M70.600000 56.514510
L70.857850 56.256660
" />
<path d="M76.930490 51.805000
L79.210000 51.805000
" />
<path d="M73.042150 55.693340
L76.930490 51.805000
" />
<path d="M76.611709 51.000000
L72.332934 55.278775
" />
<path d="M79.210000 51.000000
L76.611709 51.000000
" />
<path d="M79.210000 50.195000
L76.341190 50.195000
" />
<path d="M76.341190 50.195000
L71.647850 54.888340
" />
<path d="M80.790000 51.805000
L83.069510 51.805000
" />
<path d="M83.069510 51.805000
L86.957850 55.693340
" />
<path d="M85.600000 53.200000
L85.600000 53.211709
" />
<path d="M83.400000 51.000000
L85.600000 53.200000
" />
<path d="M80.790000 51.000000
L83.400000 51.000000
" />
<path d="M85.600000 53.211709
L87.667066 55.278775
" />
<path d="M83.658810 50.195000
L88.352150 54.888340
" />
<path d="M80.790000 50.195000
L83.658810 50.195000
" />
<path d="M87.747850 57.061660
L88.250000 57.563810
" />
<path d="M88.300000 57.800000
L88.250000 57.750000
" />
<path d="M88.250000 57.563810
L88.250000 57.750000
" />
<path d="M92.400000 55.500000
L90.100000 57.800000
" />
<path d="M90.100000 57.800000
L88.300000 57.800000
" />
<path d="M90.800000 53.400000
L90.800000 56.100000
" />
<path d="M90.800000 56.100000
L89.600000 57.300000
" />
<path d="M89.061709 57.300000
L88.432934 56.671225
" />
<path d="M89.600000 57.300000
L89.061709 57.300000
" />
<path d="M90.100000 55.500000
L90.075000 55.475000
" />
<path d="M89.600000 56.000000
L90.100000 55.500000
" />
<path d="M89.398810 56.000000
L89.600000 56.000000
" />
<path d="M90.075000 55.475000
L90.075000 52.925000
" />
<path d="M90.075000 52.925000
L90.800000 52.200000
" />
<path d="M89.142150 56.256660
L89.398810 56.000000
" />
</g>
<g >
</g>
<g style="fill:#000000; fill-opacity:0.0; 
stroke:#000000; stroke-width:0.250000; stroke-opacity:1; 
stroke-linecap:round; stroke-linejoin:round;">
<g >
</g>
<g style="fill:#000000; fill-opacity:1.000000; 
stroke:#000000; stroke-width:0.000000; stroke-opacity:1; 
stroke-linecap:round; stroke-linejoin:round;">
<path style="fill:#000000; fill-opacity:1.000000; 
stroke:#000000; stroke-width:0.000000; stroke-opacity:1; 
stroke-linecap:round; stroke-linejoin:round;fill-rule:evenodd;"
d="M 101.005394,46.000971
101.045519,46.004482
101.171780,46.016919
101.191682,46.020540
101.256467,46.037899
101.260203,46.038966
101.351570,46.066682
101.367959,46.072952
101.433867,46.103686
101.439867,46.106685
101.482639,46.129548
101.519046,46.149008
101.531715,46.156791
101.592889,46.199625
101.600430,46.205346
101.668455,46.261172
101.677472,46.269345
101.730653,46.322526
101.738826,46.331543
101.794652,46.399568
101.800373,46.407109
101.843207,46.468283
101.850990,46.480952
101.893304,46.560114
101.896328,46.566163
101.927041,46.632027
101.933319,46.648436
101.961008,46.739713
101.962123,46.743616
101.979454,46.808298
101.983082,46.828237
101.995523,46.954554
101.997207,46.973801
101.999030,46.994638
101.999500,47.005406
101.999500,54.321817
101.979815,54.388856
101.927011,54.434611
101.876833,54.445810
101.871424,54.445868
101.871423,54.445868
100.345518,54.462275
97.473140,54.493161
97.473133,54.493161
97.469915,54.493196
97.466721,54.493565
97.466712,54.493566
97.420216,54.498944
97.420200,54.498946
97.417007,54.499316
97.413848,54.500020
97.413848,54.500021
97.368377,54.510169
97.368353,54.510174
97.366834,54.510514
97.365329,54.510931
97.365298,54.510939
97.341802,54.517453
97.255173,54.566783
97.204459,54.610727
97.204445,54.610740
97.202368,54.612540
97.200453,54.614525
97.170742,54.645315
97.124535,54.733648
97.104849,54.800688
97.094500,54.872673
97.094500,73.875500
97.074815,73.942539
97.022011,73.988294
96.970500,73.999500
67.005416,73.999500
66.994606,73.999028
66.954554,73.995523
66.828234,73.983082
66.808302,73.979455
66.743616,73.962123
66.739713,73.961008
66.648436,73.933319
66.632027,73.927041
66.566163,73.896328
66.560114,73.893304
66.480952,73.850990
66.468283,73.843207
66.407109,73.800373
66.399568,73.794652
66.331543,73.738826
66.322526,73.730653
66.269345,73.677472
66.261172,73.668455
66.205346,73.600430
66.199625,73.592889
66.156791,73.531715
66.149008,73.519046
66.129548,73.482639
66.106685,73.439867
66.103686,73.433867
66.072952,73.367959
66.066682,73.351570
66.038966,73.260203
66.037899,73.256467
66.020541,73.191685
66.016918,73.171773
66.004476,73.045444
66.004269,73.043087
66.000968,73.005360
66.000500,72.994597
66.000500,64.973097
70.862368,64.973097
70.886314,65.043642
71.325987,65.805178
71.325988,65.805179
71.375108,65.861189
71.464486,65.905266
71.563928,65.911783
71.634472,65.887837
71.715965,65.840786
71.783862,65.824313
71.849889,65.847164
71.865645,65.860492
76.039040,70.033887
76.055167,70.053746
76.061106,70.062836
76.072401,70.071627
76.086084,70.082277
76.097602,70.092449
76.097671,70.092518
76.114579,70.104590
76.118684,70.107650
76.160001,70.139809
76.160002,70.139809
76.166233,70.144659
76.166424,70.144757
76.173990,70.147009
76.173991,70.147010
76.224145,70.161941
76.228982,70.163490
76.278530,70.180500
76.285987,70.183060
76.286220,70.183093
76.294099,70.182767
76.294102,70.182768
76.346383,70.180605
76.351506,70.180500
78.437928,70.180500
78.504967,70.200185
78.550722,70.252989
78.558417,70.276815
78.559033,70.277737
78.559034,70.277740
78.614399,70.360601
78.697260,70.415966
78.733792,70.423232
78.770325,70.430500
78.770326,70.430500
79.649675,70.430500
79.674029,70.425655
79.722740,70.415966
79.805601,70.360601
79.860966,70.277740
79.875500,70.204674
80.124500,70.204674
80.139033,70.277738
80.139033,70.277739
80.139034,70.277740
80.194399,70.360601
80.277260,70.415966
80.313792,70.423232
80.350325,70.430500
80.350326,70.430500
81.229675,70.430500
81.254029,70.425655
81.302740,70.415966
81.385601,70.360601
81.440966,70.277740
81.455500,70.204674
81.455500,70.120010
81.475185,70.052971
81.491819,70.032329
82.712330,68.811819
82.773653,68.778334
82.800011,68.775500
85.012005,68.775500
85.037451,68.778139
85.041250,68.778935
85.048078,68.780367
85.077948,68.776643
85.079487,68.776452
85.094824,68.775500
85.094921,68.775500
85.094924,68.775500
85.115453,68.772073
85.120469,68.771342
85.172436,68.764866
85.172438,68.764864
85.180267,68.763889
85.180476,68.763822
85.187417,68.760065
85.187420,68.760065
85.233476,68.735140
85.237954,68.732835
85.285021,68.709826
85.285022,68.709824
85.292118,68.706356
85.292286,68.706230
85.297634,68.700419
85.297636,68.700419
85.333104,68.661889
85.336605,68.658240
88.134355,65.860490
88.195676,65.827007
88.265368,65.831991
88.284033,65.840785
88.365528,65.887837
88.365529,65.887837
88.372942,65.892117
88.421158,65.942684
88.434937,66.000631
88.397930,70.071627
88.377637,70.138485
88.324419,70.183758
88.273935,70.194500
82.574000,70.194500
82.570720,70.194852
82.570712,70.194853
82.522987,70.199984
82.522982,70.199984
82.519687,70.200339
82.516446,70.201043
82.516440,70.201045
82.469781,70.211195
82.469751,70.211202
82.468176,70.211545
82.466613,70.211973
82.466600,70.211977
82.449496,70.216669
82.441802,70.218781
82.441801,70.218781
82.441799,70.218782
82.355174,70.268109
82.304459,70.312054
82.304445,70.312067
82.302368,70.313867
82.300453,70.315852
82.270742,70.346642
82.224535,70.434975
82.204849,70.502015
82.194500,70.574000
82.194500,71.426000
82.200339,71.480313
82.201044,71.483556
82.201045,71.483559
82.211195,71.530218
82.211200,71.530239
82.211545,71.531824
82.211975,71.533394
82.211977,71.533399
82.218782,71.558200
82.268109,71.644825
82.312054,71.695540
82.313867,71.697632
82.346641,71.729257
82.434976,71.775465
82.502015,71.795150
82.574000,71.805500
82.723383,71.805500
82.753058,71.809103
82.767634,71.812695
82.767635,71.812696
82.921015,71.850500
82.921016,71.850500
83.078984,71.850500
83.078985,71.850500
83.232365,71.812696
83.232365,71.812695
83.246942,71.809103
83.276617,71.805500
90.973678,71.805500
90.976936,71.805500
91.030303,71.799864
91.080958,71.789045
91.106435,71.782211
91.193437,71.733539
91.246587,71.688186
91.278466,71.655646
91.325340,71.567662
91.345531,71.500773
91.356425,71.428875
91.400963,65.550000
91.401095,65.532434
91.402352,65.515737
91.405500,65.493852
91.405500,60.771681
91.400162,60.719727
91.389908,60.670353
91.383651,60.646210
91.335964,60.558664
91.326777,60.547648
91.292991,60.507136
91.292983,60.507128
91.291214,60.505006
91.289264,60.503052
91.289253,60.503040
91.259042,60.472768
91.171595,60.424901
91.149377,60.417919
91.104943,60.403956
91.081526,60.400136
91.033163,60.392248
88.500000,60.344500
87.878539,60.344500
87.874263,60.345100
87.874254,60.345101
87.812468,60.353777
87.812465,60.353777
87.808175,60.354380
87.804015,60.355571
87.804009,60.355573
87.745080,60.372454
87.745057,60.372461
87.742518,60.373189
87.722335,60.380900
87.701540,60.388845
87.622014,60.448957
87.575562,60.501157
87.535443,60.561808
86.775082,62.170268
86.662514,62.408392
86.477832,62.799065
86.398078,62.967774
86.331683,63.108226
86.317930,63.137318
86.316991,63.139854
86.316989,63.139860
86.303436,63.176482
86.303431,63.176496
86.302496,63.179024
86.301784,63.181623
86.301781,63.181633
86.291139,63.220492
86.290641,63.222507
86.287163,63.237150
86.286787,63.336879
86.299626,63.402728
86.299629,63.402742
86.300159,63.405458
86.312823,63.449202
86.366402,63.533271
86.366404,63.533273
86.414724,63.583732
86.471989,63.628567
86.480693,63.633567
86.529020,63.684027
86.542395,63.752604
86.526318,63.803091
86.196314,64.374677
86.172368,64.445222
86.178004,64.531222
86.162745,64.599405
86.141950,64.627011
84.180781,66.588181
84.119458,66.621666
84.093100,66.624500
82.036805,66.624500
82.011359,66.621861
82.000733,66.619633
82.000732,66.619633
81.984422,66.621666
81.969323,66.623548
81.953986,66.624500
81.953884,66.624500
81.933399,66.627918
81.928332,66.628657
81.868567,66.636107
81.868312,66.636189
81.815370,66.664838
81.810820,66.667180
81.756715,66.693632
81.756505,66.693788
81.715719,66.738093
81.712172,66.741789
80.920781,67.533181
80.859458,67.566666
80.833100,67.569500
80.350325,67.569500
80.277261,67.584033
80.194399,67.639399
80.139033,67.722261
80.124500,67.795325
80.124500,68.594674
80.132682,68.635808
80.132682,68.684192
80.124500,68.725325
80.124500,69.274674
80.132682,69.315808
80.132682,69.364192
80.124500,69.405325
80.124500,70.204674
79.875500,70.204674
79.875500,69.405326
79.867317,69.364189
79.867317,69.315808
79.875500,69.274674
79.875500,68.725326
79.867317,68.684189
79.867317,68.635808
79.875500,68.594674
79.875500,67.795326
79.860966,67.722260
79.805601,67.639399
79.722740,67.584034
79.722739,67.584033
79.722738,67.584033
79.649675,67.569500
79.649674,67.569500
78.770326,67.569500
78.770325,67.569500
78.697261,67.584033
78.697259,67.584034
78.697260,67.584034
78.614399,67.639399
78.559034,67.722260
78.559033,67.722261
78.555198,67.728002
78.527160,67.781603
78.466444,67.816177
78.437928,67.819500
77.001900,67.819500
76.934861,67.799815
76.914219,67.783181
73.835921,64.704883
73.802436,64.643560
73.807420,64.573868
73.812390,64.562357
73.821115,64.544665
73.827632,64.445223
73.803686,64.374679
73.656556,64.119843
73.364012,63.613141
73.314892,63.557131
73.266509,63.533271
73.225514,63.513054
73.126072,63.506537
73.126071,63.506537
73.055526,63.530483
72.363271,63.930156
72.331736,63.957812
72.289837,63.982002
72.250125,63.995482
71.774374,64.270156
71.742839,64.297812
71.700940,64.322002
71.661228,64.335482
70.968972,64.735156
70.912962,64.784276
70.868885,64.873655
70.862368,64.973097
66.000500,64.973097
66.000500,63.604777
70.072368,63.604777
70.096314,63.675322
70.535987,64.436858
70.535988,64.436859
70.585108,64.492869
70.674486,64.536946
70.773928,64.543463
70.844472,64.519517
71.536728,64.119843
71.568260,64.092188
71.610159,64.067997
71.649875,64.054517
72.125625,63.779843
72.157157,63.752188
72.199056,63.727997
72.238772,63.714517
72.931028,63.314843
72.987038,63.265723
73.031115,63.176345
73.037632,63.076903
73.013686,63.006359
72.574012,62.244821
72.524892,62.188811
72.524891,62.188810
72.508630,62.170268
72.511333,62.167897
72.493222,62.151228
72.475500,62.087345
72.475500,60.000000
73.894548,60.000000
73.894649,60.002506
73.914245,60.488793
73.914246,60.488807
73.914346,60.491285
73.914643,60.493736
73.914645,60.493753
73.973310,60.976900
73.973312,60.976912
73.973612,60.979383
73.974108,60.981817
73.974112,60.981836
74.071462,61.458687
74.071961,61.461130
74.072649,61.463508
74.072654,61.463525
74.185886,61.854446
74.208756,61.933401
74.209636,61.935723
74.209638,61.935727
74.305620,62.188811
74.383110,62.393133
74.384169,62.395366
74.384176,62.395381
74.592819,62.835087
74.592824,62.835098
74.593891,62.837345
74.595140,62.839509
74.595142,62.839512
74.789613,63.176345
74.839733,63.263155
74.841145,63.265202
74.841151,63.265210
75.117623,63.665749
75.119041,63.667803
75.430004,64.048664
75.770605,64.403267
75.772480,64.404928
75.772482,64.404930
75.963174,64.573868
76.138635,64.729313
76.140623,64.730807
76.140633,64.730815
76.529706,65.023184
76.529712,65.023188
76.531708,65.024688
76.947274,65.287477
77.382638,65.515973
77.834977,65.708697
78.301357,65.864397
78.778753,65.982065
79.264069,66.060936
79.754158,66.100500
79.756643,66.100500
80.243357,66.100500
80.245842,66.100500
80.735931,66.060936
81.221247,65.982065
81.698643,65.864397
82.165023,65.708697
82.617362,65.515973
83.052726,65.287477
83.468292,65.024688
83.861365,64.729313
84.229395,64.403267
84.569996,64.048664
84.880959,63.667803
85.160267,63.263155
85.406109,62.837345
85.616890,62.393133
85.791244,61.933401
85.928039,61.461130
86.026388,60.979383
86.085654,60.491285
86.105452,60.000000
86.085654,59.508715
86.026388,59.020617
85.928039,58.538870
85.791244,58.066599
85.616890,57.606867
85.407421,57.165421
85.407180,57.164912
85.407179,57.164911
85.406109,57.162655
85.267800,56.923097
86.962368,56.923097
86.986314,56.993642
87.341707,57.609200
87.425988,57.755179
87.475108,57.811189
87.564486,57.855266
87.663928,57.861783
87.734472,57.837837
87.734472,57.837836
87.746038,57.833911
87.747091,57.837014
87.795674,57.825224
87.861703,57.848069
87.898840,57.890066
87.911064,57.912655
87.914827,57.919607
87.917171,57.924162
87.943634,57.978292
87.943777,57.978482
87.949579,57.983824
87.949581,57.983826
87.988108,58.019293
87.991780,58.022817
87.997850,58.028887
88.013977,58.048746
88.019915,58.057836
88.044893,58.077277
88.056410,58.087448
88.056481,58.087519
88.073397,58.099597
88.077505,58.102660
88.125040,58.139658
88.125232,58.139757
88.159601,58.149988
88.182955,58.156941
88.187792,58.158490
88.237340,58.175500
88.244797,58.178060
88.245030,58.178093
88.252909,58.177767
88.252912,58.177768
88.305193,58.175605
88.310316,58.175500
90.048195,58.175500
90.073641,58.178139
90.077440,58.178935
90.084268,58.180367
90.114138,58.176643
90.115677,58.176452
90.131014,58.175500
90.131111,58.175500
90.131114,58.175500
90.151643,58.172073
90.156659,58.171342
90.208626,58.164866
90.208628,58.164864
90.216457,58.163889
90.216666,58.163822
90.223607,58.160065
90.223610,58.160065
90.269666,58.135140
90.274144,58.132835
90.321211,58.109826
90.321212,58.109824
90.328308,58.106356
90.328476,58.106230
90.333824,58.100419
90.333826,58.100419
90.369294,58.061889
90.372795,58.058240
92.244217,56.186819
92.305540,56.153334
92.331898,56.150500
92.478985,56.150500
92.632365,56.112696
92.772240,56.039283
92.890483,55.934530
92.980220,55.804523
93.036237,55.656818
93.055278,55.500000
93.036237,55.343182
92.980220,55.195477
92.890483,55.065470
92.772240,54.960717
92.758994,54.953764
92.632364,54.887303
92.478985,54.849500
92.321015,54.849500
92.167635,54.887303
92.027761,54.960716
91.909515,55.065471
91.819780,55.195476
91.763763,55.343181
91.744721,55.500000
91.750896,55.550853
91.739435,55.619777
91.715481,55.653480
91.387181,55.981781
91.325858,56.015266
91.256167,56.010282
91.200233,55.968411
91.175816,55.902946
91.175500,55.894100
91.175500,53.992202
91.195185,53.925163
91.217269,53.899390
91.290483,53.834530
91.380220,53.704523
91.436237,53.556818
91.455278,53.400000
91.436237,53.243182
91.380220,53.095477
91.315487,53.001695
91.290484,52.965471
91.272018,52.949112
91.208471,52.892814
91.171345,52.833626
91.172113,52.763761
91.208471,52.707185
91.290483,52.634530
91.380220,52.504523
91.436237,52.356818
91.455278,52.200000
91.436237,52.043182
91.380220,51.895477
91.290483,51.765470
91.172240,51.660717
91.158994,51.653764
91.032364,51.587303
90.878985,51.549500
90.721015,51.549500
90.567635,51.587303
90.427761,51.660716
90.309515,51.765471
90.219780,51.895476
90.163763,52.043181
90.144721,52.200000
90.150896,52.250853
90.139435,52.319777
90.115481,52.353480
89.846108,52.622852
89.826254,52.638976
89.817165,52.644914
89.797722,52.669894
89.787563,52.681398
89.787484,52.681476
89.787479,52.681482
89.787480,52.681482
89.775390,52.698414
89.772341,52.702504
89.735354,52.750024
89.735237,52.750253
89.718057,52.807955
89.716495,52.812831
89.696941,52.869792
89.696906,52.870034
89.699394,52.930191
89.699500,52.935315
89.699500,55.318100
89.679815,55.385139
89.663185,55.405776
89.613627,55.455335
89.576132,55.492830
89.514808,55.526314
89.445117,55.521330
89.433606,55.516360
89.325514,55.463054
89.226072,55.456537
89.226071,55.456537
89.155526,55.480483
88.463271,55.880156
88.431736,55.907812
88.389837,55.932002
88.350125,55.945482
87.874374,56.220156
87.842839,56.247812
87.800940,56.272002
87.761228,56.285482
87.068972,56.685156
87.012962,56.734276
86.968885,56.823655
86.962368,56.923097
85.267800,56.923097
85.160267,56.736845
85.158494,56.734277
84.882376,56.334250
84.880959,56.332197
84.569996,55.951336
84.229395,55.596733
84.191477,55.563141
83.863240,55.272348
83.863238,55.272346
83.861365,55.270687
83.859379,55.269194
83.859366,55.269184
83.470293,54.976815
83.470282,54.976807
83.468292,54.975312
83.466178,54.973975
83.466172,54.973971
83.060878,54.717678
83.052726,54.712523
83.050535,54.711373
83.050528,54.711369
82.619575,54.485188
82.619565,54.485183
82.617362,54.484027
82.615058,54.483045
82.615051,54.483042
82.167319,54.292281
82.167313,54.292279
82.165023,54.291303
81.911863,54.206786
81.700993,54.136387
81.700980,54.136383
81.698643,54.135603
81.532832,54.094734
81.223667,54.018531
81.223655,54.018528
81.221247,54.017935
81.218786,54.017535
81.218781,54.017534
80.738391,53.939463
80.738371,53.939460
80.735931,53.939064
80.733470,53.938865
80.733451,53.938863
80.248317,53.899699
80.248297,53.899698
80.245842,53.899500
79.754158,53.899500
79.751703,53.899698
79.751682,53.899699
79.266548,53.938863
79.266526,53.938865
79.264069,53.939064
79.261631,53.939460
79.261608,53.939463
78.781218,54.017534
78.781208,54.017535
78.778753,54.017935
78.776349,54.018527
78.776332,54.018531
78.303766,54.135009
78.303760,54.135010
78.301357,54.135603
78.299025,54.136381
78.299006,54.136387
77.837334,54.290516
77.834977,54.291303
77.832694,54.292275
77.832680,54.292281
77.384948,54.483042
77.384931,54.483049
77.382638,54.484027
77.380443,54.485178
77.380424,54.485188
76.949471,54.711369
76.949453,54.711379
76.947274,54.712523
76.945174,54.713850
76.945167,54.713855
76.533827,54.973971
76.533809,54.973983
76.531708,54.975312
76.529728,54.976799
76.529706,54.976815
76.140633,55.269184
76.140608,55.269204
76.138635,55.270687
76.136773,55.272336
76.136759,55.272348
75.772482,55.595069
75.772466,55.595083
75.770605,55.596733
75.768874,55.598534
75.768871,55.598538
75.431730,55.949538
75.431718,55.949551
75.430004,55.951336
75.428433,55.953259
75.428426,55.953268
75.120620,56.330262
75.120609,56.330275
75.119041,56.332197
75.117634,56.334235
75.117623,56.334250
74.841151,56.734789
74.841138,56.734808
74.839733,56.736845
74.838490,56.738997
74.838483,56.739009
74.595142,57.160487
74.595135,57.160500
74.593891,57.162655
74.592829,57.164891
74.592819,57.164912
74.384176,57.604618
74.384165,57.604641
74.383110,57.606867
74.382232,57.609180
74.382226,57.609196
74.209638,58.064272
74.209634,58.064283
74.208756,58.066599
74.208064,58.068987
74.208063,58.068991
74.072654,58.536474
74.072648,58.536497
74.071961,58.538870
74.071464,58.541301
74.071462,58.541312
73.974112,59.018163
73.974108,59.018186
73.973612,59.020617
73.973312,59.023083
73.973310,59.023099
73.914645,59.506246
73.914643,59.506265
73.914346,59.508715
73.914246,59.511190
73.914245,59.511206
73.894649,59.997493
73.894548,60.000000
72.475500,60.000000
72.475500,57.912655
72.495185,57.845616
72.510820,57.831656
72.508629,57.829734
72.551267,57.781114
72.574012,57.755179
73.013686,56.993641
73.037632,56.923097
73.031115,56.823655
72.987038,56.734277
72.931028,56.685157
72.931027,56.685156
72.238771,56.285482
72.199057,56.272001
72.157157,56.247810
72.125625,56.220157
71.649874,55.945482
71.610160,55.932001
71.568260,55.907810
71.536728,55.880157
70.844473,55.480483
70.773928,55.456537
70.674486,55.463054
70.585107,55.507131
70.535987,55.563141
70.096314,56.324677
70.093065,56.334250
70.072368,56.395223
70.075491,56.442868
70.078885,56.494664
70.122962,56.584043
70.182260,56.636047
70.219683,56.695049
70.224500,56.729274
70.224500,63.270726
70.204815,63.337765
70.182260,63.363953
70.122962,63.415956
70.078885,63.505335
70.072368,63.604777
66.000500,63.604777
66.000500,55.026903
70.862368,55.026903
70.868885,55.126345
70.912962,55.215723
70.968972,55.264843
71.661228,55.664517
71.700940,55.677997
71.742840,55.702187
71.774375,55.729843
72.250125,56.004517
72.289837,56.017997
72.331737,56.042187
72.363272,56.069843
72.912358,56.386858
73.009370,56.442868
73.055528,56.469517
73.126072,56.493463
73.225514,56.486946
73.314892,56.442869
73.364012,56.386859
73.803686,55.625321
73.827632,55.554777
73.824178,55.502082
73.839435,55.433902
73.860227,55.406298
77.049707,52.216819
77.111031,52.183334
77.137389,52.180500
78.437928,52.180500
78.504967,52.200185
78.550722,52.252989
78.558417,52.276815
78.559033,52.277737
78.559034,52.277740
78.614399,52.360601
78.697260,52.415966
78.733792,52.423232
78.770325,52.430500
78.770326,52.430500
79.649675,52.430500
79.674029,52.425655
79.722740,52.415966
79.805601,52.360601
79.860966,52.277740
79.875500,52.204674
80.124500,52.204674
80.139033,52.277738
80.139033,52.277739
80.139034,52.277740
80.194399,52.360601
80.277260,52.415966
80.313792,52.423232
80.350325,52.430500
80.350326,52.430500
81.229675,52.430500
81.254029,52.425655
81.302740,52.415966
81.385601,52.360601
81.440966,52.277740
81.440966,52.277735
81.444801,52.271997
81.472840,52.218397
81.533556,52.183823
81.562072,52.180500
82.862611,52.180500
82.929650,52.200185
82.950292,52.216819
86.139767,55.406294
86.173252,55.467617
86.175821,55.502082
86.172368,55.554776
86.196314,55.625322
86.605614,56.334250
86.635988,56.386859
86.685108,56.442869
86.774486,56.486946
86.873928,56.493463
86.944472,56.469517
87.636728,56.069843
87.668260,56.042188
87.710159,56.017997
87.749875,56.004517
88.225625,55.729843
88.257157,55.702188
88.299056,55.677997
88.338772,55.664517
89.031028,55.264843
89.087038,55.215723
89.131115,55.126345
89.137632,55.026903
89.113686,54.956359
88.888765,54.566785
88.674012,54.194821
88.624892,54.138811
88.617182,54.135009
88.535514,54.094734
88.436072,54.088217
88.436071,54.088217
88.365527,54.112163
88.284033,54.159213
88.216133,54.175684
88.150106,54.152832
88.134353,54.139506
83.960959,49.966111
83.944832,49.946253
83.938893,49.937162
83.913920,49.917725
83.902403,49.907554
83.902329,49.907480
83.885404,49.895397
83.881290,49.892330
83.839999,49.860191
83.839996,49.860190
83.833773,49.855346
83.833571,49.855242
83.826010,49.852990
83.826009,49.852990
83.775846,49.838055
83.770984,49.836497
83.752447,49.830134
83.714012,49.816939
83.713779,49.816906
83.674075,49.818548
83.653616,49.819394
83.648494,49.819500
81.562072,49.819500
81.495033,49.799815
81.449278,49.747011
81.441582,49.723184
81.440966,49.722262
81.440966,49.722260
81.385601,49.639399
81.302740,49.584034
81.302739,49.584033
81.302738,49.584033
81.229675,49.569500
81.229674,49.569500
80.350326,49.569500
80.350325,49.569500
80.277261,49.584033
80.194399,49.639399
80.139033,49.722261
80.124500,49.795325
80.124500,50.594674
80.132682,50.635808
80.132682,50.684192
80.124500,50.725325
80.124500,51.274674
80.132682,51.315808
80.132682,51.364192
80.124500,51.405325
80.124500,52.204674
79.875500,52.204674
79.875500,51.405326
79.867317,51.364189
79.867317,51.315808
79.875500,51.274674
79.875500,50.725326
79.867317,50.684189
79.867317,50.635808
79.875500,50.594674
79.875500,49.795326
79.860966,49.722260
79.805601,49.639399
79.722740,49.584034
79.722739,49.584033
79.722738,49.584033
79.649675,49.569500
79.649674,49.569500
78.770326,49.569500
78.770325,49.569500
78.697261,49.584033
78.697259,49.584034
78.697260,49.584034
78.614399,49.639399
78.559034,49.722260
78.559033,49.722261
78.555198,49.728002
78.527160,49.781603
78.466444,49.816177
78.437928,49.819500
76.392995,49.819500
76.367549,49.816861
76.356923,49.814633
76.356922,49.814633
76.339048,49.816861
76.325513,49.818548
76.310176,49.819500
76.310074,49.819500
76.289589,49.822918
76.284522,49.823657
76.224757,49.831107
76.224502,49.831189
76.171560,49.859838
76.167010,49.862180
76.112905,49.888632
76.112695,49.888788
76.071908,49.933094
76.068361,49.936790
71.865645,54.139505
71.804322,54.172990
71.734630,54.168006
71.715965,54.159212
71.634472,54.112163
71.563928,54.088217
71.464486,54.094734
71.375107,54.138811
71.325987,54.194821
70.886314,54.956357
70.867499,55.011786
70.862368,55.026903
66.000500,55.026903
66.000500,47.005412
66.000972,46.994605
66.004476,46.954554
66.016919,46.828215
66.020539,46.808322
66.037908,46.743498
66.038956,46.739828
66.066685,46.648419
66.072948,46.632049
66.103700,46.566102
66.106670,46.560161
66.149012,46.480944
66.156786,46.468289
66.199639,46.407089
66.205330,46.399587
66.261191,46.331521
66.269325,46.322547
66.322547,46.269325
66.331521,46.261191
66.399587,46.205330
66.407089,46.199639
66.468289,46.156786
66.480944,46.149012
66.560161,46.106670
66.566102,46.103700
66.632049,46.072948
66.648419,46.066685
66.739828,46.038956
66.743498,46.037908
66.808318,46.020540
66.828221,46.016918
66.954471,46.004483
66.994640,46.000968
67.005402,46.000500
100.994587,46.000500
Z" /> 
</g>
</g>
<g style="fill:#000000; fill-opacity:1.000000; 
stroke:#000000; stroke-width:0.000000; stroke-opacity:1; 
stroke-linecap:round; stroke-linejoin:round;">
<g >
<path style="fill:#000000; fill-opacity:1.000000; 
stroke:#000000; stroke-width:0.000000; stroke-opacity:1; 
stroke-linecap:round; stroke-linejoin:round;fill-rule:evenodd;"
d="M 91.028345,60.647704
91.094996,60.668649
91.139746,60.722307
91.150000,60.771681
91.150000,65.493852
91.145771,65.508253
91.145455,65.550000
88.821340,65.550000
89.113686,65.043641
89.137632,64.973097
89.131115,64.873655
89.087038,64.784277
89.031028,64.735157
89.031027,64.735156
88.338771,64.335482
88.299057,64.322001
88.257157,64.297810
88.225625,64.270157
87.749874,63.995482
87.710160,63.982001
87.705390,63.979247
88.220753,63.979247
88.350329,64.054058
88.390091,64.067555
88.431994,64.091748
88.463565,64.119435
89.155733,64.519058
89.226139,64.542958
89.325381,64.536453
89.414582,64.492463
89.463606,64.436563
89.620915,64.164092
89.620915,64.164091
89.187903,63.914093
88.812902,63.697586
89.312902,63.697586
89.745915,63.947585
89.745916,63.947585
89.903227,63.675115
89.927127,63.604709
89.920622,63.505467
89.876633,63.416267
89.820734,63.367245
89.582902,63.229932
89.582901,63.229932
89.312902,63.697585
89.312902,63.697586
88.812902,63.697586
88.490752,63.511593
88.490751,63.511593
88.220753,63.979246
88.220753,63.979247
87.705390,63.979247
87.668260,63.957810
87.636728,63.930157
86.944473,63.530483
86.909200,63.518510
86.873928,63.506537
86.873927,63.506537
86.820263,63.510054
86.752080,63.494795
86.750450,63.493875
86.599259,63.407021
86.550936,63.356559
86.537564,63.287981
86.548921,63.246513
86.629069,63.076969
86.962872,63.076969
86.969377,63.176212
87.013366,63.265412
87.069265,63.314434
87.761435,63.714059
87.801196,63.727556
87.843097,63.751747
87.874669,63.779435
88.004246,63.854246
88.004247,63.854246
88.274246,63.386592
88.274246,63.386591
88.113894,63.294012
88.613889,63.294012
89.096395,63.572586
89.096396,63.572586
89.366395,63.104932
89.366395,63.104931
89.128567,62.967622
89.088799,62.954122
89.046902,62.929932
89.015329,62.902244
88.885752,62.827432
88.885751,62.827432
88.651547,63.233087
88.622322,63.260952
88.622706,63.268995
88.621976,63.271854
88.619977,63.279315
88.613889,63.294012
88.113894,63.294012
87.793603,63.109093
87.418601,62.892586
87.918602,62.892586
88.399246,63.170085
88.404281,63.168736
88.419259,63.154453
88.419114,63.153440
88.434465,63.109087
88.669245,62.702432
88.669245,62.702431
88.539671,62.627622
88.499903,62.614122
88.458005,62.589931
88.426434,62.562244
88.188602,62.424932
88.188601,62.424932
87.918602,62.892585
87.918602,62.892586
87.418601,62.892586
87.144083,62.734093
87.144082,62.734093
86.986771,63.006566
86.962872,63.076969
86.629069,63.076969
86.893504,62.517587
87.269083,62.517587
87.702095,62.767586
87.702096,62.767586
87.972095,62.299932
87.972095,62.299931
87.734264,62.162620
87.663861,62.138721
87.564618,62.145226
87.475418,62.189215
87.426396,62.245114
87.269083,62.517586
87.269083,62.517587
86.893504,62.517587
87.766434,60.671005
87.812882,60.618809
87.878539,60.600000
88.500000,60.600000
Z" /> 
</g>
</g>
<g style="fill:#000000; fill-opacity:1.000000; 
stroke:#000000; stroke-width:0.000000; stroke-opacity:1; 
stroke-linecap:round; stroke-linejoin:round;">
<g >
<path style="fill:#000000; fill-opacity:1.000000; 
stroke:#000000; stroke-width:0.000000; stroke-opacity:1; 
stroke-linecap:round; stroke-linejoin:round;fill-rule:evenodd;"
d="M 101.941414,54.720315
101.987734,54.772624
101.999500,54.825345
101.999500,72.994583
101.999028,73.005393
101.995523,73.045445
101.983082,73.171764
101.979455,73.191696
101.962123,73.256382
101.961008,73.260285
101.933319,73.351562
101.927041,73.367971
101.896328,73.433835
101.893304,73.439884
101.850990,73.519046
101.843207,73.531715
101.800373,73.592889
101.794652,73.600430
101.738826,73.668455
101.730653,73.677472
101.677472,73.730653
101.668455,73.738826
101.600430,73.794652
101.592889,73.800373
101.531715,73.843207
101.519046,73.850990
101.439884,73.893304
101.433835,73.896328
101.367971,73.927041
101.351562,73.933319
101.260285,73.961008
101.256382,73.962123
101.191700,73.979454
101.171761,73.983082
101.045445,73.995523
101.026131,73.997213
101.005360,73.999031
100.994594,73.999500
97.474000,73.999500
97.406961,73.979815
97.361206,73.927011
97.350000,73.875500
97.350000,54.872673
97.369685,54.805634
97.422489,54.759879
97.472662,54.748681
101.874170,54.701353
Z" /> 
</g>
</g>
<g style="fill:#000000; fill-opacity:1.000000; 
stroke:#000000; stroke-width:0.000000; stroke-opacity:1; 
stroke-linecap:round; stroke-linejoin:round;">
<g >
<path style="fill:#000000; fill-opacity:1.000000; 
stroke:#000000; stroke-width:0.000000; stroke-opacity:1; 
stroke-linecap:round; stroke-linejoin:round;fill-rule:evenodd;"
d="M 91.145771,65.508252
91.145771,65.508253
91.100932,71.426939
91.080741,71.493828
91.027591,71.539181
90.976936,71.550000
82.574000,71.550000
82.506961,71.530315
82.461206,71.477511
82.450000,71.426000
82.450000,70.574000
82.469685,70.506961
82.522489,70.461206
82.574000,70.450000
88.649999,70.450000
88.650000,70.450000
88.692220,65.805742
88.708825,65.744879
89.113686,65.043641
89.137632,64.973097
89.136118,64.950000
91.150000,64.950000
Z" /> 
</g>
</g>
</g> 
</svg>
