<?xml version="1.0" standalone="no"?>
 <!DOCTYPE svg PUBLIC "-//W3C//DTD SVG 1.1//EN" 
 "http://www.w3.org/Graphics/SVG/1.1/DTD/svg11.dtd"> 
<svg
  xmlns:svg="http://www.w3.org/2000/svg"
  xmlns="http://www.w3.org/2000/svg"
  xmlns:xlink="http://www.w3.org/1999/xlink"
  version="1.1"
  width="3.0100000000000002cm" height="3.0100000000000002cm" viewBox="64.95 44.95 30.1 30.1">
<title>SVG Image created as pedalboard-led-ring-F_Cu.svg date 2023/06/02 11:30:43 </title>
  <desc>Image generated by PCBNEW </desc>
<g style="fill:#000000; fill-opacity:1.000000;stroke:#000000; stroke-opacity:1.000000;
stroke-linecap:round; stroke-linejoin:round;"
 transform="translate(0 0) scale(1 1)">
</g>
<g style="fill:#000000; fill-opacity:0.0; 
stroke:#000000; stroke-width:0.000000; stroke-opacity:1; 
stroke-linecap:round; stroke-linejoin:round;">
<g >
</g>
<g style="fill:#000000; fill-opacity:0.0; 
stroke:#000000; stroke-width:0.000000; stroke-opacity:1; 
stroke-linecap:round; stroke-linejoin:round;">
</g>
<g style="fill:#000000; fill-opacity:1.000000; 
stroke:#000000; stroke-width:0.000000; stroke-opacity:1; 
stroke-linecap:round; stroke-linejoin:round;">
<path style="fill:#000000; fill-opacity:1.000000; 
stroke:#000000; stroke-width:0.000000; stroke-opacity:1; 
stroke-linecap:round; stroke-linejoin:round;fill-rule:evenodd;"
d="M 71.312534,65.852868
71.275587,65.865410
71.236652,65.862859
71.201658,65.845601
71.175932,65.816266
70.958432,65.439544
70.945890,65.402597
70.948441,65.363662
70.965699,65.328668
70.995034,65.302942
71.168240,65.202942
71.205187,65.190400
71.244122,65.192951
71.279116,65.210209
71.304842,65.239544
71.522342,65.616266
71.534884,65.653213
71.532333,65.692148
71.515075,65.727142
71.485740,65.752868
Z" /> 
<path style="fill:#000000; fill-opacity:1.000000; 
stroke:#000000; stroke-width:0.000000; stroke-opacity:1; 
stroke-linecap:round; stroke-linejoin:round;fill-rule:evenodd;"
d="M 70.905034,65.147058
70.868087,65.159600
70.829152,65.157049
70.794158,65.139791
70.768432,65.110456
70.550932,64.733734
70.538390,64.696787
70.540941,64.657852
70.558199,64.622858
70.587534,64.597132
70.760740,64.497132
70.797687,64.484590
70.836622,64.487141
70.871616,64.504399
70.897342,64.533734
71.114842,64.910456
71.127384,64.947403
71.124833,64.986338
71.107575,65.021332
71.078240,65.047058
Z" /> 
</g>
<g >
</g>
<g style="fill:#000000; fill-opacity:1.000000; 
stroke:#000000; stroke-width:0.000000; stroke-opacity:1; 
stroke-linecap:round; stroke-linejoin:round;">
<path style="fill:#000000; fill-opacity:1.000000; 
stroke:#000000; stroke-width:0.000000; stroke-opacity:1; 
stroke-linecap:round; stroke-linejoin:round;fill-rule:evenodd;"
d="M 84.323205,67.088012
84.756217,66.838012
85.006217,67.271024
84.573205,67.521024
Z" /> 
<path style="fill:#000000; fill-opacity:1.000000; 
stroke:#000000; stroke-width:0.000000; stroke-opacity:1; 
stroke-linecap:round; stroke-linejoin:round;fill-rule:evenodd;"
d="M 83.543783,67.538012
83.976795,67.288012
84.226795,67.721024
83.793783,67.971024
Z" /> 
<path style="fill:#000000; fill-opacity:1.000000; 
stroke:#000000; stroke-width:0.000000; stroke-opacity:1; 
stroke-linecap:round; stroke-linejoin:round;fill-rule:evenodd;"
d="M 83.993783,68.317434
84.426795,68.067434
84.676795,68.500446
84.243783,68.750446
Z" /> 
<path style="fill:#000000; fill-opacity:1.000000; 
stroke:#000000; stroke-width:0.000000; stroke-opacity:1; 
stroke-linecap:round; stroke-linejoin:round;fill-rule:evenodd;"
d="M 84.773205,67.867434
85.206217,67.617434
85.456217,68.050446
85.023205,68.300446
Z" /> 
</g>
<g >
</g>
<g style="fill:#000000; fill-opacity:1.000000; 
stroke:#000000; stroke-width:0.000000; stroke-opacity:1; 
stroke-linecap:round; stroke-linejoin:round;">
<path style="fill:#000000; fill-opacity:1.000000; 
stroke:#000000; stroke-width:0.000000; stroke-opacity:1; 
stroke-linecap:round; stroke-linejoin:round;fill-rule:evenodd;"
d="M 88.300000,59.800000
88.300000,59.300000
88.800000,59.300000
88.800000,59.800000
Z" /> 
<path style="fill:#000000; fill-opacity:1.000000; 
stroke:#000000; stroke-width:0.000000; stroke-opacity:1; 
stroke-linecap:round; stroke-linejoin:round;fill-rule:evenodd;"
d="M 88.300000,60.700000
88.300000,60.200000
88.800000,60.200000
88.800000,60.700000
Z" /> 
<path style="fill:#000000; fill-opacity:1.000000; 
stroke:#000000; stroke-width:0.000000; stroke-opacity:1; 
stroke-linecap:round; stroke-linejoin:round;fill-rule:evenodd;"
d="M 89.200000,60.700000
89.200000,60.200000
89.700000,60.200000
89.700000,60.700000
Z" /> 
<path style="fill:#000000; fill-opacity:1.000000; 
stroke:#000000; stroke-width:0.000000; stroke-opacity:1; 
stroke-linecap:round; stroke-linejoin:round;fill-rule:evenodd;"
d="M 89.200000,59.800000
89.200000,59.300000
89.700000,59.300000
89.700000,59.800000
Z" /> 
</g>
<g >
</g>
<g style="fill:#000000; fill-opacity:1.000000; 
stroke:#000000; stroke-width:0.000000; stroke-opacity:1; 
stroke-linecap:round; stroke-linejoin:round;">
<path style="fill:#000000; fill-opacity:1.000000; 
stroke:#000000; stroke-width:0.000000; stroke-opacity:1; 
stroke-linecap:round; stroke-linejoin:round;fill-rule:evenodd;"
d="M 79.800000,51.700000
79.300000,51.700000
79.300000,51.200000
79.800000,51.200000
Z" /> 
<path style="fill:#000000; fill-opacity:1.000000; 
stroke:#000000; stroke-width:0.000000; stroke-opacity:1; 
stroke-linecap:round; stroke-linejoin:round;fill-rule:evenodd;"
d="M 80.700000,51.700000
80.200000,51.700000
80.200000,51.200000
80.700000,51.200000
Z" /> 
<path style="fill:#000000; fill-opacity:1.000000; 
stroke:#000000; stroke-width:0.000000; stroke-opacity:1; 
stroke-linecap:round; stroke-linejoin:round;fill-rule:evenodd;"
d="M 80.700000,50.800000
80.200000,50.800000
80.200000,50.300000
80.700000,50.300000
Z" /> 
<path style="fill:#000000; fill-opacity:1.000000; 
stroke:#000000; stroke-width:0.000000; stroke-opacity:1; 
stroke-linecap:round; stroke-linejoin:round;fill-rule:evenodd;"
d="M 79.800000,50.800000
79.300000,50.800000
79.300000,50.300000
79.800000,50.300000
Z" /> 
</g>
<g >
</g>
<g style="fill:#000000; fill-opacity:1.000000; 
stroke:#000000; stroke-width:0.000000; stroke-opacity:1; 
stroke-linecap:round; stroke-linejoin:round;">
<path style="fill:#000000; fill-opacity:1.000000; 
stroke:#000000; stroke-width:0.000000; stroke-opacity:1; 
stroke-linecap:round; stroke-linejoin:round;fill-rule:evenodd;"
d="M 87.288012,63.976795
87.538012,63.543783
87.971024,63.793783
87.721024,64.226795
Z" /> 
<path style="fill:#000000; fill-opacity:1.000000; 
stroke:#000000; stroke-width:0.000000; stroke-opacity:1; 
stroke-linecap:round; stroke-linejoin:round;fill-rule:evenodd;"
d="M 86.838012,64.756217
87.088012,64.323205
87.521024,64.573205
87.271024,65.006217
Z" /> 
<path style="fill:#000000; fill-opacity:1.000000; 
stroke:#000000; stroke-width:0.000000; stroke-opacity:1; 
stroke-linecap:round; stroke-linejoin:round;fill-rule:evenodd;"
d="M 87.617434,65.206217
87.867434,64.773205
88.300446,65.023205
88.050446,65.456217
Z" /> 
<path style="fill:#000000; fill-opacity:1.000000; 
stroke:#000000; stroke-width:0.000000; stroke-opacity:1; 
stroke-linecap:round; stroke-linejoin:round;fill-rule:evenodd;"
d="M 88.067434,64.426795
88.317434,63.993783
88.750446,64.243783
88.500446,64.676795
Z" /> 
</g>
<g >
</g>
<g style="fill:#000000; fill-opacity:1.000000; 
stroke:#000000; stroke-width:0.000000; stroke-opacity:1; 
stroke-linecap:round; stroke-linejoin:round;">
<path style="fill:#000000; fill-opacity:1.000000; 
stroke:#000000; stroke-width:0.000000; stroke-opacity:1; 
stroke-linecap:round; stroke-linejoin:round;fill-rule:evenodd;"
d="M 72.911988,64.323205
73.161988,64.756217
72.728976,65.006217
72.478976,64.573205
Z" /> 
<path style="fill:#000000; fill-opacity:1.000000; 
stroke:#000000; stroke-width:0.000000; stroke-opacity:1; 
stroke-linecap:round; stroke-linejoin:round;fill-rule:evenodd;"
d="M 72.461988,63.543783
72.711988,63.976795
72.278976,64.226795
72.028976,63.793783
Z" /> 
<path style="fill:#000000; fill-opacity:1.000000; 
stroke:#000000; stroke-width:0.000000; stroke-opacity:1; 
stroke-linecap:round; stroke-linejoin:round;fill-rule:evenodd;"
d="M 71.682566,63.993783
71.932566,64.426795
71.499554,64.676795
71.249554,64.243783
Z" /> 
<path style="fill:#000000; fill-opacity:1.000000; 
stroke:#000000; stroke-width:0.000000; stroke-opacity:1; 
stroke-linecap:round; stroke-linejoin:round;fill-rule:evenodd;"
d="M 72.132566,64.773205
72.382566,65.206217
71.949554,65.456217
71.699554,65.023205
Z" /> 
</g>
<g >
</g>
<g style="fill:#000000; fill-opacity:1.000000; 
stroke:#000000; stroke-width:0.000000; stroke-opacity:1; 
stroke-linecap:round; stroke-linejoin:round;">
<path style="fill:#000000; fill-opacity:1.000000; 
stroke:#000000; stroke-width:0.000000; stroke-opacity:1; 
stroke-linecap:round; stroke-linejoin:round;fill-rule:evenodd;"
d="M 80.200000,68.300000
80.700000,68.300000
80.700000,68.800000
80.200000,68.800000
Z" /> 
<path style="fill:#000000; fill-opacity:1.000000; 
stroke:#000000; stroke-width:0.000000; stroke-opacity:1; 
stroke-linecap:round; stroke-linejoin:round;fill-rule:evenodd;"
d="M 79.300000,68.300000
79.800000,68.300000
79.800000,68.800000
79.300000,68.800000
Z" /> 
<path style="fill:#000000; fill-opacity:1.000000; 
stroke:#000000; stroke-width:0.000000; stroke-opacity:1; 
stroke-linecap:round; stroke-linejoin:round;fill-rule:evenodd;"
d="M 79.300000,69.200000
79.800000,69.200000
79.800000,69.700000
79.300000,69.700000
Z" /> 
<path style="fill:#000000; fill-opacity:1.000000; 
stroke:#000000; stroke-width:0.000000; stroke-opacity:1; 
stroke-linecap:round; stroke-linejoin:round;fill-rule:evenodd;"
d="M 80.200000,69.200000
80.700000,69.200000
80.700000,69.700000
80.200000,69.700000
Z" /> 
</g>
<g >
</g>
<g style="fill:#000000; fill-opacity:1.000000; 
stroke:#000000; stroke-width:0.000000; stroke-opacity:1; 
stroke-linecap:round; stroke-linejoin:round;">
<path style="fill:#000000; fill-opacity:1.000000; 
stroke:#000000; stroke-width:0.000000; stroke-opacity:1; 
stroke-linecap:round; stroke-linejoin:round;fill-rule:evenodd;"
d="M 85.852868,68.687466
85.865410,68.724413
85.862859,68.763348
85.845601,68.798342
85.816266,68.824068
85.439544,69.041568
85.402597,69.054110
85.363662,69.051559
85.328668,69.034301
85.302942,69.004966
85.202942,68.831760
85.190400,68.794813
85.192951,68.755878
85.210209,68.720884
85.239544,68.695158
85.616266,68.477658
85.653213,68.465116
85.692148,68.467667
85.727142,68.484925
85.752868,68.514260
Z" /> 
<path style="fill:#000000; fill-opacity:1.000000; 
stroke:#000000; stroke-width:0.000000; stroke-opacity:1; 
stroke-linecap:round; stroke-linejoin:round;fill-rule:evenodd;"
d="M 85.147058,69.094966
85.159600,69.131913
85.157049,69.170848
85.139791,69.205842
85.110456,69.231568
84.733734,69.449068
84.696787,69.461610
84.657852,69.459059
84.622858,69.441801
84.597132,69.412466
84.497132,69.239260
84.484590,69.202313
84.487141,69.163378
84.504399,69.128384
84.533734,69.102658
84.910456,68.885158
84.947403,68.872616
84.986338,68.875167
85.021332,68.892425
85.047058,68.921760
Z" /> 
</g>
<g >
</g>
<g style="fill:#000000; fill-opacity:1.000000; 
stroke:#000000; stroke-width:0.000000; stroke-opacity:1; 
stroke-linecap:round; stroke-linejoin:round;">
<path style="fill:#000000; fill-opacity:1.000000; 
stroke:#000000; stroke-width:0.000000; stroke-opacity:1; 
stroke-linecap:round; stroke-linejoin:round;fill-rule:evenodd;"
d="M 71.700000,60.200000
71.700000,60.700000
71.200000,60.700000
71.200000,60.200000
Z" /> 
<path style="fill:#000000; fill-opacity:1.000000; 
stroke:#000000; stroke-width:0.000000; stroke-opacity:1; 
stroke-linecap:round; stroke-linejoin:round;fill-rule:evenodd;"
d="M 71.700000,59.300000
71.700000,59.800000
71.200000,59.800000
71.200000,59.300000
Z" /> 
<path style="fill:#000000; fill-opacity:1.000000; 
stroke:#000000; stroke-width:0.000000; stroke-opacity:1; 
stroke-linecap:round; stroke-linejoin:round;fill-rule:evenodd;"
d="M 70.800000,59.300000
70.800000,59.800000
70.300000,59.800000
70.300000,59.300000
Z" /> 
<path style="fill:#000000; fill-opacity:1.000000; 
stroke:#000000; stroke-width:0.000000; stroke-opacity:1; 
stroke-linecap:round; stroke-linejoin:round;fill-rule:evenodd;"
d="M 70.800000,60.200000
70.800000,60.700000
70.300000,60.700000
70.300000,60.200000
Z" /> 
</g>
<g >
</g>
<g style="fill:#000000; fill-opacity:1.000000; 
stroke:#000000; stroke-width:0.000000; stroke-opacity:1; 
stroke-linecap:round; stroke-linejoin:round;">
<path style="fill:#000000; fill-opacity:1.000000; 
stroke:#000000; stroke-width:0.000000; stroke-opacity:1; 
stroke-linecap:round; stroke-linejoin:round;fill-rule:evenodd;"
d="M 72.711988,56.023205
72.461988,56.456217
72.028976,56.206217
72.278976,55.773205
Z" /> 
<path style="fill:#000000; fill-opacity:1.000000; 
stroke:#000000; stroke-width:0.000000; stroke-opacity:1; 
stroke-linecap:round; stroke-linejoin:round;fill-rule:evenodd;"
d="M 73.161988,55.243783
72.911988,55.676795
72.478976,55.426795
72.728976,54.993783
Z" /> 
<path style="fill:#000000; fill-opacity:1.000000; 
stroke:#000000; stroke-width:0.000000; stroke-opacity:1; 
stroke-linecap:round; stroke-linejoin:round;fill-rule:evenodd;"
d="M 72.382566,54.793783
72.132566,55.226795
71.699554,54.976795
71.949554,54.543783
Z" /> 
<path style="fill:#000000; fill-opacity:1.000000; 
stroke:#000000; stroke-width:0.000000; stroke-opacity:1; 
stroke-linecap:round; stroke-linejoin:round;fill-rule:evenodd;"
d="M 71.932566,55.573205
71.682566,56.006217
71.249554,55.756217
71.499554,55.323205
Z" /> 
</g>
<g >
</g>
<g style="fill:#000000; fill-opacity:1.000000; 
stroke:#000000; stroke-width:0.000000; stroke-opacity:1; 
stroke-linecap:round; stroke-linejoin:round;">
<path style="fill:#000000; fill-opacity:1.000000; 
stroke:#000000; stroke-width:0.000000; stroke-opacity:1; 
stroke-linecap:round; stroke-linejoin:round;fill-rule:evenodd;"
d="M 89.412466,64.597132
89.441801,64.622858
89.459059,64.657852
89.461610,64.696787
89.449068,64.733734
89.231568,65.110456
89.205842,65.139791
89.170848,65.157049
89.131913,65.159600
89.094966,65.147058
88.921760,65.047058
88.892425,65.021332
88.875167,64.986338
88.872616,64.947403
88.885158,64.910456
89.102658,64.533734
89.128384,64.504399
89.163378,64.487141
89.202313,64.484590
89.239260,64.497132
Z" /> 
<path style="fill:#000000; fill-opacity:1.000000; 
stroke:#000000; stroke-width:0.000000; stroke-opacity:1; 
stroke-linecap:round; stroke-linejoin:round;fill-rule:evenodd;"
d="M 89.004966,65.302942
89.034301,65.328668
89.051559,65.363662
89.054110,65.402597
89.041568,65.439544
88.824068,65.816266
88.798342,65.845601
88.763348,65.862859
88.724413,65.865410
88.687466,65.852868
88.514260,65.752868
88.484925,65.727142
88.467667,65.692148
88.465116,65.653213
88.477658,65.616266
88.695158,65.239544
88.720884,65.210209
88.755878,65.192951
88.794813,65.190400
88.831760,65.202942
Z" /> 
</g>
<g >
</g>
<g style="fill:#000000; fill-opacity:1.000000; 
stroke:#000000; stroke-width:0.000000; stroke-opacity:1; 
stroke-linecap:round; stroke-linejoin:round;">
<path style="fill:#000000; fill-opacity:1.000000; 
stroke:#000000; stroke-width:0.000000; stroke-opacity:1; 
stroke-linecap:round; stroke-linejoin:round;fill-rule:evenodd;"
d="M 70.587534,55.402868
70.558199,55.377142
70.540941,55.342148
70.538390,55.303213
70.550932,55.266266
70.768432,54.889544
70.794158,54.860209
70.829152,54.842951
70.868087,54.840400
70.905034,54.852942
71.078240,54.952942
71.107575,54.978668
71.124833,55.013662
71.127384,55.052597
71.114842,55.089544
70.897342,55.466266
70.871616,55.495601
70.836622,55.512859
70.797687,55.515410
70.760740,55.502868
Z" /> 
<path style="fill:#000000; fill-opacity:1.000000; 
stroke:#000000; stroke-width:0.000000; stroke-opacity:1; 
stroke-linecap:round; stroke-linejoin:round;fill-rule:evenodd;"
d="M 70.995034,54.697058
70.965699,54.671332
70.948441,54.636338
70.945890,54.597403
70.958432,54.560456
71.175932,54.183734
71.201658,54.154399
71.236652,54.137141
71.275587,54.134590
71.312534,54.147132
71.485740,54.247132
71.515075,54.272858
71.532333,54.307852
71.534884,54.346787
71.522342,54.383734
71.304842,54.760456
71.279116,54.789791
71.244122,54.807049
71.205187,54.809600
71.168240,54.797058
Z" /> 
</g>
<g >
</g>
<g style="fill:#000000; fill-opacity:1.000000; 
stroke:#000000; stroke-width:0.000000; stroke-opacity:1; 
stroke-linecap:round; stroke-linejoin:round;">
<path style="fill:#000000; fill-opacity:1.000000; 
stroke:#000000; stroke-width:0.000000; stroke-opacity:1; 
stroke-linecap:round; stroke-linejoin:round;fill-rule:evenodd;"
d="M 75.402868,69.412466
75.377142,69.441801
75.342148,69.459059
75.303213,69.461610
75.266266,69.449068
74.889544,69.231568
74.860209,69.205842
74.842951,69.170848
74.840400,69.131913
74.852942,69.094966
74.952942,68.921760
74.978668,68.892425
75.013662,68.875167
75.052597,68.872616
75.089544,68.885158
75.466266,69.102658
75.495601,69.128384
75.512859,69.163378
75.515410,69.202313
75.502868,69.239260
Z" /> 
<path style="fill:#000000; fill-opacity:1.000000; 
stroke:#000000; stroke-width:0.000000; stroke-opacity:1; 
stroke-linecap:round; stroke-linejoin:round;fill-rule:evenodd;"
d="M 74.697058,69.004966
74.671332,69.034301
74.636338,69.051559
74.597403,69.054110
74.560456,69.041568
74.183734,68.824068
74.154399,68.798342
74.137141,68.763348
74.134590,68.724413
74.147132,68.687466
74.247132,68.514260
74.272858,68.484925
74.307852,68.467667
74.346787,68.465116
74.383734,68.477658
74.760456,68.695158
74.789791,68.720884
74.807049,68.755878
74.809600,68.794813
74.797058,68.831760
Z" /> 
</g>
<g >
</g>
<g style="fill:#000000; fill-opacity:1.000000; 
stroke:#000000; stroke-width:0.000000; stroke-opacity:1; 
stroke-linecap:round; stroke-linejoin:round;">
<path style="fill:#000000; fill-opacity:1.000000; 
stroke:#000000; stroke-width:0.000000; stroke-opacity:1; 
stroke-linecap:round; stroke-linejoin:round;fill-rule:evenodd;"
d="M 69.550000,60.725000
69.511732,60.717388
69.479289,60.695711
69.457612,60.663268
69.450000,60.625000
69.450000,60.190000
69.457612,60.151732
69.479289,60.119289
69.511732,60.097612
69.550000,60.090000
69.750000,60.090000
69.788268,60.097612
69.820711,60.119289
69.842388,60.151732
69.850000,60.190000
69.850000,60.625000
69.842388,60.663268
69.820711,60.695711
69.788268,60.717388
69.750000,60.725000
Z" /> 
<path style="fill:#000000; fill-opacity:1.000000; 
stroke:#000000; stroke-width:0.000000; stroke-opacity:1; 
stroke-linecap:round; stroke-linejoin:round;fill-rule:evenodd;"
d="M 69.550000,59.910000
69.511732,59.902388
69.479289,59.880711
69.457612,59.848268
69.450000,59.810000
69.450000,59.375000
69.457612,59.336732
69.479289,59.304289
69.511732,59.282612
69.550000,59.275000
69.750000,59.275000
69.788268,59.282612
69.820711,59.304289
69.842388,59.336732
69.850000,59.375000
69.850000,59.810000
69.842388,59.848268
69.820711,59.880711
69.788268,59.902388
69.750000,59.910000
Z" /> 
</g>
<g >
</g>
<g style="fill:#000000; fill-opacity:1.000000; 
stroke:#000000; stroke-width:0.000000; stroke-opacity:1; 
stroke-linecap:round; stroke-linejoin:round;">
<path style="fill:#000000; fill-opacity:1.000000; 
stroke:#000000; stroke-width:0.000000; stroke-opacity:1; 
stroke-linecap:round; stroke-linejoin:round;fill-rule:evenodd;"
d="M 80.725000,70.450000
80.717388,70.488268
80.695711,70.520711
80.663268,70.542388
80.625000,70.550000
80.190000,70.550000
80.151732,70.542388
80.119289,70.520711
80.097612,70.488268
80.090000,70.450000
80.090000,70.250000
80.097612,70.211732
80.119289,70.179289
80.151732,70.157612
80.190000,70.150000
80.625000,70.150000
80.663268,70.157612
80.695711,70.179289
80.717388,70.211732
80.725000,70.250000
Z" /> 
<path style="fill:#000000; fill-opacity:1.000000; 
stroke:#000000; stroke-width:0.000000; stroke-opacity:1; 
stroke-linecap:round; stroke-linejoin:round;fill-rule:evenodd;"
d="M 79.910000,70.450000
79.902388,70.488268
79.880711,70.520711
79.848268,70.542388
79.810000,70.550000
79.375000,70.550000
79.336732,70.542388
79.304289,70.520711
79.282612,70.488268
79.275000,70.450000
79.275000,70.250000
79.282612,70.211732
79.304289,70.179289
79.336732,70.157612
79.375000,70.150000
79.810000,70.150000
79.848268,70.157612
79.880711,70.179289
79.902388,70.211732
79.910000,70.250000
Z" /> 
</g>
<g >
</g>
<g style="fill:#000000; fill-opacity:1.000000; 
stroke:#000000; stroke-width:0.000000; stroke-opacity:1; 
stroke-linecap:round; stroke-linejoin:round;">
<path style="fill:#000000; fill-opacity:1.000000; 
stroke:#000000; stroke-width:0.000000; stroke-opacity:1; 
stroke-linecap:round; stroke-linejoin:round;fill-rule:evenodd;"
d="M 84.597132,50.587534
84.622858,50.558199
84.657852,50.540941
84.696787,50.538390
84.733734,50.550932
85.110456,50.768432
85.139791,50.794158
85.157049,50.829152
85.159600,50.868087
85.147058,50.905034
85.047058,51.078240
85.021332,51.107575
84.986338,51.124833
84.947403,51.127384
84.910456,51.114842
84.533734,50.897342
84.504399,50.871616
84.487141,50.836622
84.484590,50.797687
84.497132,50.760740
Z" /> 
<path style="fill:#000000; fill-opacity:1.000000; 
stroke:#000000; stroke-width:0.000000; stroke-opacity:1; 
stroke-linecap:round; stroke-linejoin:round;fill-rule:evenodd;"
d="M 85.302942,50.995034
85.328668,50.965699
85.363662,50.948441
85.402597,50.945890
85.439544,50.958432
85.816266,51.175932
85.845601,51.201658
85.862859,51.236652
85.865410,51.275587
85.852868,51.312534
85.752868,51.485740
85.727142,51.515075
85.692148,51.532333
85.653213,51.534884
85.616266,51.522342
85.239544,51.304842
85.210209,51.279116
85.192951,51.244122
85.190400,51.205187
85.202942,51.168240
Z" /> 
</g>
<g >
</g>
<g style="fill:#000000; fill-opacity:1.000000; 
stroke:#000000; stroke-width:0.000000; stroke-opacity:1; 
stroke-linecap:round; stroke-linejoin:round;">
<path style="fill:#000000; fill-opacity:1.000000; 
stroke:#000000; stroke-width:0.000000; stroke-opacity:1; 
stroke-linecap:round; stroke-linejoin:round;fill-rule:evenodd;"
d="M 88.687466,54.147132
88.724413,54.134590
88.763348,54.137141
88.798342,54.154399
88.824068,54.183734
89.041568,54.560456
89.054110,54.597403
89.051559,54.636338
89.034301,54.671332
89.004966,54.697058
88.831760,54.797058
88.794813,54.809600
88.755878,54.807049
88.720884,54.789791
88.695158,54.760456
88.477658,54.383734
88.465116,54.346787
88.467667,54.307852
88.484925,54.272858
88.514260,54.247132
Z" /> 
<path style="fill:#000000; fill-opacity:1.000000; 
stroke:#000000; stroke-width:0.000000; stroke-opacity:1; 
stroke-linecap:round; stroke-linejoin:round;fill-rule:evenodd;"
d="M 89.094966,54.852942
89.131913,54.840400
89.170848,54.842951
89.205842,54.860209
89.231568,54.889544
89.449068,55.266266
89.461610,55.303213
89.459059,55.342148
89.441801,55.377142
89.412466,55.402868
89.239260,55.502868
89.202313,55.515410
89.163378,55.512859
89.128384,55.495601
89.102658,55.466266
88.885158,55.089544
88.872616,55.052597
88.875167,55.013662
88.892425,54.978668
88.921760,54.952942
Z" /> 
</g>
<g >
</g>
<g style="fill:#000000; fill-opacity:1.000000; 
stroke:#000000; stroke-width:0.000000; stroke-opacity:1; 
stroke-linecap:round; stroke-linejoin:round;">
<path style="fill:#000000; fill-opacity:1.000000; 
stroke:#000000; stroke-width:0.000000; stroke-opacity:1; 
stroke-linecap:round; stroke-linejoin:round;fill-rule:evenodd;"
d="M 74.147132,51.312534
74.134590,51.275587
74.137141,51.236652
74.154399,51.201658
74.183734,51.175932
74.560456,50.958432
74.597403,50.945890
74.636338,50.948441
74.671332,50.965699
74.697058,50.995034
74.797058,51.168240
74.809600,51.205187
74.807049,51.244122
74.789791,51.279116
74.760456,51.304842
74.383734,51.522342
74.346787,51.534884
74.307852,51.532333
74.272858,51.515075
74.247132,51.485740
Z" /> 
<path style="fill:#000000; fill-opacity:1.000000; 
stroke:#000000; stroke-width:0.000000; stroke-opacity:1; 
stroke-linecap:round; stroke-linejoin:round;fill-rule:evenodd;"
d="M 74.852942,50.905034
74.840400,50.868087
74.842951,50.829152
74.860209,50.794158
74.889544,50.768432
75.266266,50.550932
75.303213,50.538390
75.342148,50.540941
75.377142,50.558199
75.402868,50.587534
75.502868,50.760740
75.515410,50.797687
75.512859,50.836622
75.495601,50.871616
75.466266,50.897342
75.089544,51.114842
75.052597,51.127384
75.013662,51.124833
74.978668,51.107575
74.952942,51.078240
Z" /> 
</g>
<g >
</g>
<g style="fill:#000000; fill-opacity:1.000000; 
stroke:#000000; stroke-width:0.000000; stroke-opacity:1; 
stroke-linecap:round; stroke-linejoin:round;">
<path style="fill:#000000; fill-opacity:1.000000; 
stroke:#000000; stroke-width:0.000000; stroke-opacity:1; 
stroke-linecap:round; stroke-linejoin:round;fill-rule:evenodd;"
d="M 87.088012,55.676795
86.838012,55.243783
87.271024,54.993783
87.521024,55.426795
Z" /> 
<path style="fill:#000000; fill-opacity:1.000000; 
stroke:#000000; stroke-width:0.000000; stroke-opacity:1; 
stroke-linecap:round; stroke-linejoin:round;fill-rule:evenodd;"
d="M 87.538012,56.456217
87.288012,56.023205
87.721024,55.773205
87.971024,56.206217
Z" /> 
<path style="fill:#000000; fill-opacity:1.000000; 
stroke:#000000; stroke-width:0.000000; stroke-opacity:1; 
stroke-linecap:round; stroke-linejoin:round;fill-rule:evenodd;"
d="M 88.317434,56.006217
88.067434,55.573205
88.500446,55.323205
88.750446,55.756217
Z" /> 
<path style="fill:#000000; fill-opacity:1.000000; 
stroke:#000000; stroke-width:0.000000; stroke-opacity:1; 
stroke-linecap:round; stroke-linejoin:round;fill-rule:evenodd;"
d="M 87.867434,55.226795
87.617434,54.793783
88.050446,54.543783
88.300446,54.976795
Z" /> 
</g>
<g >
</g>
<g style="fill:#000000; fill-opacity:1.000000; 
stroke:#000000; stroke-width:0.000000; stroke-opacity:1; 
stroke-linecap:round; stroke-linejoin:round;">
<path style="fill:#000000; fill-opacity:1.000000; 
stroke:#000000; stroke-width:0.000000; stroke-opacity:1; 
stroke-linecap:round; stroke-linejoin:round;fill-rule:evenodd;"
d="M 90.450000,59.275000
90.488268,59.282612
90.520711,59.304289
90.542388,59.336732
90.550000,59.375000
90.550000,59.810000
90.542388,59.848268
90.520711,59.880711
90.488268,59.902388
90.450000,59.910000
90.250000,59.910000
90.211732,59.902388
90.179289,59.880711
90.157612,59.848268
90.150000,59.810000
90.150000,59.375000
90.157612,59.336732
90.179289,59.304289
90.211732,59.282612
90.250000,59.275000
Z" /> 
<path style="fill:#000000; fill-opacity:1.000000; 
stroke:#000000; stroke-width:0.000000; stroke-opacity:1; 
stroke-linecap:round; stroke-linejoin:round;fill-rule:evenodd;"
d="M 90.450000,60.090000
90.488268,60.097612
90.520711,60.119289
90.542388,60.151732
90.550000,60.190000
90.550000,60.625000
90.542388,60.663268
90.520711,60.695711
90.488268,60.717388
90.450000,60.725000
90.250000,60.725000
90.211732,60.717388
90.179289,60.695711
90.157612,60.663268
90.150000,60.625000
90.150000,60.190000
90.157612,60.151732
90.179289,60.119289
90.211732,60.097612
90.250000,60.090000
Z" /> 
</g>
<g >
</g>
<g style="fill:#000000; fill-opacity:1.000000; 
stroke:#000000; stroke-width:0.000000; stroke-opacity:1; 
stroke-linecap:round; stroke-linejoin:round;">
<path style="fill:#000000; fill-opacity:1.000000; 
stroke:#000000; stroke-width:0.000000; stroke-opacity:1; 
stroke-linecap:round; stroke-linejoin:round;fill-rule:evenodd;"
d="M 75.676795,52.911988
75.243783,53.161988
74.993783,52.728976
75.426795,52.478976
Z" /> 
<path style="fill:#000000; fill-opacity:1.000000; 
stroke:#000000; stroke-width:0.000000; stroke-opacity:1; 
stroke-linecap:round; stroke-linejoin:round;fill-rule:evenodd;"
d="M 76.456217,52.461988
76.023205,52.711988
75.773205,52.278976
76.206217,52.028976
Z" /> 
<path style="fill:#000000; fill-opacity:1.000000; 
stroke:#000000; stroke-width:0.000000; stroke-opacity:1; 
stroke-linecap:round; stroke-linejoin:round;fill-rule:evenodd;"
d="M 76.006217,51.682566
75.573205,51.932566
75.323205,51.499554
75.756217,51.249554
Z" /> 
<path style="fill:#000000; fill-opacity:1.000000; 
stroke:#000000; stroke-width:0.000000; stroke-opacity:1; 
stroke-linecap:round; stroke-linejoin:round;fill-rule:evenodd;"
d="M 75.226795,52.132566
74.793783,52.382566
74.543783,51.949554
74.976795,51.699554
Z" /> 
</g>
<g >
</g>
<g style="fill:#000000; fill-opacity:1.000000; 
stroke:#000000; stroke-width:0.000000; stroke-opacity:1; 
stroke-linecap:round; stroke-linejoin:round;">
<path style="fill:#000000; fill-opacity:1.000000; 
stroke:#000000; stroke-width:0.000000; stroke-opacity:1; 
stroke-linecap:round; stroke-linejoin:round;fill-rule:evenodd;"
d="M 76.023205,67.288012
76.456217,67.538012
76.206217,67.971024
75.773205,67.721024
Z" /> 
<path style="fill:#000000; fill-opacity:1.000000; 
stroke:#000000; stroke-width:0.000000; stroke-opacity:1; 
stroke-linecap:round; stroke-linejoin:round;fill-rule:evenodd;"
d="M 75.243783,66.838012
75.676795,67.088012
75.426795,67.521024
74.993783,67.271024
Z" /> 
<path style="fill:#000000; fill-opacity:1.000000; 
stroke:#000000; stroke-width:0.000000; stroke-opacity:1; 
stroke-linecap:round; stroke-linejoin:round;fill-rule:evenodd;"
d="M 74.793783,67.617434
75.226795,67.867434
74.976795,68.300446
74.543783,68.050446
Z" /> 
<path style="fill:#000000; fill-opacity:1.000000; 
stroke:#000000; stroke-width:0.000000; stroke-opacity:1; 
stroke-linecap:round; stroke-linejoin:round;fill-rule:evenodd;"
d="M 75.573205,68.067434
76.006217,68.317434
75.756217,68.750446
75.323205,68.500446
Z" /> 
</g>
<g >
</g>
<g style="fill:#000000; fill-opacity:1.000000; 
stroke:#000000; stroke-width:0.000000; stroke-opacity:1; 
stroke-linecap:round; stroke-linejoin:round;">
<path style="fill:#000000; fill-opacity:1.000000; 
stroke:#000000; stroke-width:0.000000; stroke-opacity:1; 
stroke-linecap:round; stroke-linejoin:round;fill-rule:evenodd;"
d="M 83.976795,52.711988
83.543783,52.461988
83.793783,52.028976
84.226795,52.278976
Z" /> 
<path style="fill:#000000; fill-opacity:1.000000; 
stroke:#000000; stroke-width:0.000000; stroke-opacity:1; 
stroke-linecap:round; stroke-linejoin:round;fill-rule:evenodd;"
d="M 84.756217,53.161988
84.323205,52.911988
84.573205,52.478976
85.006217,52.728976
Z" /> 
<path style="fill:#000000; fill-opacity:1.000000; 
stroke:#000000; stroke-width:0.000000; stroke-opacity:1; 
stroke-linecap:round; stroke-linejoin:round;fill-rule:evenodd;"
d="M 85.206217,52.382566
84.773205,52.132566
85.023205,51.699554
85.456217,51.949554
Z" /> 
<path style="fill:#000000; fill-opacity:1.000000; 
stroke:#000000; stroke-width:0.000000; stroke-opacity:1; 
stroke-linecap:round; stroke-linejoin:round;fill-rule:evenodd;"
d="M 84.426795,51.932566
83.993783,51.682566
84.243783,51.249554
84.676795,51.499554
Z" /> 
</g>
<g >
</g>
<g style="fill:#000000; fill-opacity:1.000000; 
stroke:#000000; stroke-width:0.000000; stroke-opacity:1; 
stroke-linecap:round; stroke-linejoin:round;">
<path style="fill:#000000; fill-opacity:1.000000; 
stroke:#000000; stroke-width:0.000000; stroke-opacity:1; 
stroke-linecap:round; stroke-linejoin:round;fill-rule:evenodd;"
d="M 79.275000,49.550000
79.282612,49.511732
79.304289,49.479289
79.336732,49.457612
79.375000,49.450000
79.810000,49.450000
79.848268,49.457612
79.880711,49.479289
79.902388,49.511732
79.910000,49.550000
79.910000,49.750000
79.902388,49.788268
79.880711,49.820711
79.848268,49.842388
79.810000,49.850000
79.375000,49.850000
79.336732,49.842388
79.304289,49.820711
79.282612,49.788268
79.275000,49.750000
Z" /> 
<path style="fill:#000000; fill-opacity:1.000000; 
stroke:#000000; stroke-width:0.000000; stroke-opacity:1; 
stroke-linecap:round; stroke-linejoin:round;fill-rule:evenodd;"
d="M 80.090000,49.550000
80.097612,49.511732
80.119289,49.479289
80.151732,49.457612
80.190000,49.450000
80.625000,49.450000
80.663268,49.457612
80.695711,49.479289
80.717388,49.511732
80.725000,49.550000
80.725000,49.750000
80.717388,49.788268
80.695711,49.820711
80.663268,49.842388
80.625000,49.850000
80.190000,49.850000
80.151732,49.842388
80.119289,49.820711
80.097612,49.788268
80.090000,49.750000
Z" /> 
</g>
<g >
</g>
<g >
</g>
<g style="fill:#000000; fill-opacity:1.000000; 
stroke:#000000; stroke-width:0.000000; stroke-opacity:1; 
stroke-linecap:round; stroke-linejoin:round;">
<circle cx="89.500000" cy="61.100000" r="0.400000" /> 
</g>
<g style="fill:#000000; fill-opacity:1.000000; 
stroke:#000000; stroke-width:0.021200; stroke-opacity:1; 
stroke-linecap:round; stroke-linejoin:round;">
</g>
<g style="fill:#000000; fill-opacity:1.000000; 
stroke:#000000; stroke-width:0.000000; stroke-opacity:1; 
stroke-linecap:round; stroke-linejoin:round;">
<circle cx="88.100000" cy="63.100000" r="0.400000" /> 
</g>
<g style="fill:#000000; fill-opacity:1.000000; 
stroke:#000000; stroke-width:0.021200; stroke-opacity:1; 
stroke-linecap:round; stroke-linejoin:round;">
</g>
<g style="fill:#000000; fill-opacity:1.000000; 
stroke:#000000; stroke-width:0.000000; stroke-opacity:1; 
stroke-linecap:round; stroke-linejoin:round;">
<circle cx="89.726279" cy="65.153590" r="0.400000" /> 
</g>
<g style="fill:#000000; fill-opacity:1.000000; 
stroke:#000000; stroke-width:0.021200; stroke-opacity:1; 
stroke-linecap:round; stroke-linejoin:round;">
</g>
<g style="fill:#000000; fill-opacity:1.000000; 
stroke:#000000; stroke-width:0.000000; stroke-opacity:1; 
stroke-linecap:round; stroke-linejoin:round;">
<circle cx="69.000000" cy="60.400000" r="0.400000" /> 
</g>
<g style="fill:#000000; fill-opacity:1.000000; 
stroke:#000000; stroke-width:0.021200; stroke-opacity:1; 
stroke-linecap:round; stroke-linejoin:round;">
</g>
<g style="fill:#000000; fill-opacity:1.000000; 
stroke:#000000; stroke-width:0.000000; stroke-opacity:1; 
stroke-linecap:round; stroke-linejoin:round;">
<circle cx="80.400000" cy="71.000000" r="0.400000" /> 
</g>
<g style="fill:#000000; fill-opacity:1.000000; 
stroke:#000000; stroke-width:0.021200; stroke-opacity:1; 
stroke-linecap:round; stroke-linejoin:round;">
</g>
<g style="fill:#000000; fill-opacity:1.000000; 
stroke:#000000; stroke-width:0.000000; stroke-opacity:1; 
stroke-linecap:round; stroke-linejoin:round;">
<circle cx="85.153590" cy="50.273721" r="0.400000" /> 
</g>
<g style="fill:#000000; fill-opacity:1.000000; 
stroke:#000000; stroke-width:0.021200; stroke-opacity:1; 
stroke-linecap:round; stroke-linejoin:round;">
</g>
<g style="fill:#000000; fill-opacity:1.000000; 
stroke:#000000; stroke-width:0.000000; stroke-opacity:1; 
stroke-linecap:round; stroke-linejoin:round;">
<circle cx="74.153590" cy="50.673721" r="0.400000" /> 
</g>
<g style="fill:#000000; fill-opacity:1.000000; 
stroke:#000000; stroke-width:0.021200; stroke-opacity:1; 
stroke-linecap:round; stroke-linejoin:round;">
</g>
<g style="fill:#000000; fill-opacity:1.000000; 
stroke:#000000; stroke-width:0.000000; stroke-opacity:1; 
stroke-linecap:round; stroke-linejoin:round;">
<circle cx="79.600000" cy="49.000000" r="0.400000" /> 
</g>
<g style="fill:#000000; fill-opacity:1.000000; 
stroke:#000000; stroke-width:0.021200; stroke-opacity:1; 
stroke-linecap:round; stroke-linejoin:round;">
</g>
<g style="fill:#000000; fill-opacity:1.000000; 
stroke:#000000; stroke-width:0.000000; stroke-opacity:1; 
stroke-linecap:round; stroke-linejoin:round;">
<circle cx="70.273721" cy="54.846410" r="0.400000" /> 
</g>
<g style="fill:#000000; fill-opacity:1.000000; 
stroke:#000000; stroke-width:0.021200; stroke-opacity:1; 
stroke-linecap:round; stroke-linejoin:round;">
</g>
<g style="fill:#000000; fill-opacity:1.000000; 
stroke:#000000; stroke-width:0.000000; stroke-opacity:1; 
stroke-linecap:round; stroke-linejoin:round;">
<circle cx="89.326279" cy="54.153590" r="0.400000" /> 
</g>
<g style="fill:#000000; fill-opacity:1.000000; 
stroke:#000000; stroke-width:0.021200; stroke-opacity:1; 
stroke-linecap:round; stroke-linejoin:round;">
</g>
<g style="fill:#000000; fill-opacity:1.000000; 
stroke:#000000; stroke-width:0.000000; stroke-opacity:1; 
stroke-linecap:round; stroke-linejoin:round;">
<circle cx="85.846410" cy="69.326279" r="0.400000" /> 
</g>
<g style="fill:#000000; fill-opacity:1.000000; 
stroke:#000000; stroke-width:0.021200; stroke-opacity:1; 
stroke-linecap:round; stroke-linejoin:round;">
</g>
<g style="fill:#000000; fill-opacity:1.000000; 
stroke:#000000; stroke-width:0.000000; stroke-opacity:1; 
stroke-linecap:round; stroke-linejoin:round;">
<circle cx="74.846410" cy="69.726279" r="0.400000" /> 
</g>
<g style="fill:#000000; fill-opacity:1.000000; 
stroke:#000000; stroke-width:0.021200; stroke-opacity:1; 
stroke-linecap:round; stroke-linejoin:round;">
</g>
<g style="fill:#000000; fill-opacity:1.000000; 
stroke:#000000; stroke-width:0.000000; stroke-opacity:1; 
stroke-linecap:round; stroke-linejoin:round;">
<circle cx="91.000000" cy="59.600000" r="0.400000" /> 
</g>
<g style="fill:#000000; fill-opacity:1.000000; 
stroke:#000000; stroke-width:0.021200; stroke-opacity:1; 
stroke-linecap:round; stroke-linejoin:round;">
</g>
<g style="fill:#000000; fill-opacity:1.000000; 
stroke:#000000; stroke-width:0.000000; stroke-opacity:1; 
stroke-linecap:round; stroke-linejoin:round;">
<circle cx="70.673721" cy="65.846410" r="0.400000" /> 
</g>
<g style="fill:#000000; fill-opacity:1.000000; 
stroke:#000000; stroke-width:0.021200; stroke-opacity:1; 
stroke-linecap:round; stroke-linejoin:round;">
</g>
<g style="fill:#000000; fill-opacity:1.000000; 
stroke:#000000; stroke-width:0.000000; stroke-opacity:1; 
stroke-linecap:round; stroke-linejoin:round;">
<circle cx="92.000000" cy="65.000000" r="0.400000" /> 
</g>
<g style="fill:#000000; fill-opacity:1.000000; 
stroke:#000000; stroke-width:0.021200; stroke-opacity:1; 
stroke-linecap:round; stroke-linejoin:round;">
</g>
<g style="fill:#000000; fill-opacity:1.000000; 
stroke:#000000; stroke-width:0.000000; stroke-opacity:1; 
stroke-linecap:round; stroke-linejoin:round;">
<circle cx="93.000000" cy="61.200000" r="0.400000" /> 
</g>
<g style="fill:#000000; fill-opacity:1.000000; 
stroke:#000000; stroke-width:0.021200; stroke-opacity:1; 
stroke-linecap:round; stroke-linejoin:round;">
</g>
<g style="fill:#000000; fill-opacity:1.000000; 
stroke:#000000; stroke-width:0.000000; stroke-opacity:1; 
stroke-linecap:round; stroke-linejoin:round;">
<circle cx="93.000000" cy="62.600000" r="0.400000" /> 
</g>
<g style="fill:#000000; fill-opacity:1.000000; 
stroke:#000000; stroke-width:0.021200; stroke-opacity:1; 
stroke-linecap:round; stroke-linejoin:round;">
</g>
<g style="fill:#000000; fill-opacity:1.000000; 
stroke:#000000; stroke-width:0.000000; stroke-opacity:1; 
stroke-linecap:round; stroke-linejoin:round;">
<circle cx="93.000000" cy="65.000000" r="0.400000" /> 
</g>
<g style="fill:#000000; fill-opacity:1.000000; 
stroke:#000000; stroke-width:0.021200; stroke-opacity:1; 
stroke-linecap:round; stroke-linejoin:round;">
</g>
<g style="fill:#000000; fill-opacity:1.000000; 
stroke:#000000; stroke-width:0.000000; stroke-opacity:1; 
stroke-linecap:round; stroke-linejoin:round;">
<circle cx="93.000000" cy="63.800000" r="0.400000" /> 
</g>
<g style="fill:#000000; fill-opacity:1.000000; 
stroke:#000000; stroke-width:0.021200; stroke-opacity:1; 
stroke-linecap:round; stroke-linejoin:round;">
</g>
<g style="fill:#000000; fill-opacity:1.000000; 
stroke:#000000; stroke-width:0.000000; stroke-opacity:1; 
stroke-linecap:round; stroke-linejoin:round;">
<circle cx="92.000000" cy="61.200000" r="0.400000" /> 
</g>
<g style="fill:#000000; fill-opacity:1.000000; 
stroke:#000000; stroke-width:0.021200; stroke-opacity:1; 
stroke-linecap:round; stroke-linejoin:round;">
</g>
<g >
</g>
<g style="fill:#000000; fill-opacity:1.000000; 
stroke:#000000; stroke-width:0.021200; stroke-opacity:1; 
stroke-linecap:round; stroke-linejoin:round;">
</g>
<g style="fill:#000000; fill-opacity:1.000000; 
stroke:#000000; stroke-width:0.250000; stroke-opacity:1; 
stroke-linecap:round; stroke-linejoin:round;">
</g>
<g style="fill:#000000; fill-opacity:0.0; 
stroke:#000000; stroke-width:0.250000; stroke-opacity:1; 
stroke-linecap:round; stroke-linejoin:round;">
<path d="M88.550000 59.550000
L88.550000 55.805771
" />
<path d="M88.550000 55.805771
L88.408940 55.664711
" />
<path d="M89.450000 60.450000
L89.450000 61.120498
" />
<path d="M87.179518 55.335289
L87.179518 54.105867
" />
<path d="M87.179518 54.105867
L85.114711 52.041060
" />
<path d="M83.885289 52.370482
L82.064807 50.550000
" />
<path d="M82.064807 50.550000
L80.450000 50.550000
" />
<path d="M79.550000 51.450000
L75.805771 51.450000
" />
<path d="M75.805771 51.450000
L75.664711 51.591060
" />
<path d="M74.105867 52.820482
L72.041060 54.885289
" />
<path d="M75.335289 52.820482
L74.105867 52.820482
" />
<path d="M70.550000 57.935193
L70.550000 59.550000
" />
<path d="M72.370482 56.114711
L70.550000 57.935193
" />
<path d="M87.629518 63.885289
L87.629518 63.570482
" />
<path d="M87.629518 63.570482
L88.100000 63.100000
" />
<path d="M90.350000 59.592500
L90.992500 59.592500
" />
<path d="M70.832887 55.177905
L70.605216 55.177905
" />
<path d="M85.527905 68.759613
L85.527905 69.007774
" />
<path d="M85.527905 68.372134
L85.114711 67.958940
" />
<path d="M88.759613 54.472095
L88.372134 54.472095
" />
<path d="M88.895746 64.822095
L88.408940 64.335289
" />
<path d="M75.177905 69.167113
L75.177905 69.394784
" />
<path d="M88.372134 54.472095
L87.958940 54.885289
" />
<path d="M88.759613 54.472095
L89.007774 54.472095
" />
<path d="M84.822095 50.832887
L84.822095 51.104254
" />
<path d="M69.650000 60.407500
L69.007500 60.407500
" />
<path d="M84.822095 50.832887
L84.822095 50.605216
" />
<path d="M70.992226 65.527905
L70.673721 65.846410
" />
<path d="M75.177905 68.895746
L75.664711 68.408940
" />
<path d="M71.627866 65.527905
L72.041060 65.114711
" />
<path d="M89.167113 64.822095
L88.895746 64.822095
" />
<path d="M74.472095 50.992226
L74.153590 50.673721
" />
<path d="M71.104254 55.177905
L71.591060 55.664711
" />
<path d="M70.605216 55.177905
L70.273721 54.846410
" />
<path d="M71.240387 65.527905
L70.992226 65.527905
" />
<path d="M84.822095 50.605216
L85.153590 50.273721
" />
<path d="M69.650000 60.407500
L70.507500 60.407500
" />
<path d="M89.007774 54.472095
L89.326279 54.153590
" />
<path d="M90.350000 59.592500
L89.492500 59.592500
" />
<path d="M75.177905 69.394784
L74.846410 69.726279
" />
<path d="M74.472095 51.240387
L74.472095 50.992226
" />
<path d="M74.472095 51.627866
L74.885289 52.041060
" />
<path d="M89.167113 64.822095
L89.394784 64.822095
" />
<path d="M80.407500 70.350000
L80.407500 70.992500
" />
<path d="M84.822095 51.104254
L84.335289 51.591060
" />
<path d="M74.472095 51.240387
L74.472095 51.627866
" />
<path d="M80.407500 70.350000
L80.407500 69.492500
" />
<path d="M80.407500 70.992500
L80.400000 71.000000
" />
<path d="M89.394784 64.822095
L89.726279 65.153590
" />
<path d="M79.592500 49.007500
L79.600000 49.000000
" />
<path d="M71.240387 65.527905
L71.627866 65.527905
" />
<path d="M90.992500 59.592500
L91.000000 59.600000
" />
<path d="M85.527905 69.007774
L85.846410 69.326279
" />
<path d="M79.592500 49.650000
L79.592500 50.507500
" />
<path d="M69.007500 60.407500
L69.000000 60.400000
" />
<path d="M79.592500 49.650000
L79.592500 49.007500
" />
<path d="M70.832887 55.177905
L71.104254 55.177905
" />
<path d="M85.527905 68.759613
L85.527905 68.372134
" />
<path d="M75.177905 69.167113
L75.177905 68.895746
" />
<path d="M71.450000 60.450000
L71.450000 64.194229
" />
<path d="M71.450000 64.194229
L71.591060 64.335289
" />
<path d="M72.820482 65.894133
L74.885289 67.958940
" />
<path d="M72.820482 64.664711
L72.820482 65.894133
" />
<path d="M76.114711 67.629518
L77.935193 69.450000
" />
<path d="M77.935193 69.450000
L79.550000 69.450000
" />
<path d="M85.894133 67.179518
L87.958940 65.114711
" />
<path d="M84.664711 67.179518
L85.894133 67.179518
" />
<path d="M84.194229 68.550000
L84.335289 68.408940
" />
<path d="M80.450000 68.550000
L84.194229 68.550000
" />
</g>
<g >
</g>
<g style="fill:#000000; fill-opacity:0.0; 
stroke:#000000; stroke-width:0.250000; stroke-opacity:1; 
stroke-linecap:round; stroke-linejoin:round;">
<g >
</g>
<g style="fill:#000000; fill-opacity:1.000000; 
stroke:#000000; stroke-width:0.000000; stroke-opacity:1; 
stroke-linecap:round; stroke-linejoin:round;">
<path style="fill:#000000; fill-opacity:1.000000; 
stroke:#000000; stroke-width:0.000000; stroke-opacity:1; 
stroke-linecap:round; stroke-linejoin:round;fill-rule:evenodd;"
d="M 93.002140,46.000687
93.045464,46.004477
93.173816,46.017119
93.189696,46.020008
93.257626,46.038209
93.259036,46.038612
93.353264,46.067196
93.366359,46.072207
93.435690,46.104536
93.438085,46.105733
93.522989,46.151115
93.528052,46.154225
93.595221,46.201258
93.598233,46.203543
93.632865,46.231964
93.671280,46.263491
93.674877,46.266751
93.733247,46.325121
93.736512,46.328723
93.796455,46.401765
93.798740,46.404777
93.845773,46.471946
93.848883,46.477009
93.894255,46.561893
93.895462,46.564308
93.927791,46.633639
93.932804,46.646739
93.961364,46.740887
93.961809,46.742445
93.979986,46.810282
93.982882,46.826202
93.995520,46.954525
93.999311,46.997843
93.999500,47.002161
93.999500,72.997837
93.999311,73.002155
93.995520,73.045473
93.982882,73.173796
93.979986,73.189716
93.961809,73.257553
93.961364,73.259111
93.932804,73.353259
93.927791,73.366359
93.895462,73.435690
93.894255,73.438105
93.848883,73.522989
93.845773,73.528052
93.798740,73.595221
93.796455,73.598233
93.736512,73.671275
93.733247,73.674877
93.674877,73.733247
93.671275,73.736512
93.598233,73.796455
93.595221,73.798740
93.528052,73.845773
93.522989,73.848883
93.438105,73.894255
93.435690,73.895462
93.366359,73.927791
93.353259,73.932804
93.259111,73.961364
93.257553,73.961809
93.189716,73.979986
93.173796,73.982882
93.045473,73.995520
93.002156,73.999311
92.997838,73.999500
67.002162,73.999500
66.997844,73.999311
66.954525,73.995520
66.826202,73.982882
66.810284,73.979986
66.773391,73.970101
66.742445,73.961809
66.740887,73.961364
66.646739,73.932804
66.633639,73.927791
66.564308,73.895462
66.561893,73.894255
66.477009,73.848883
66.471946,73.845773
66.404777,73.798740
66.401765,73.796455
66.328723,73.736512
66.325121,73.733247
66.266751,73.674877
66.263486,73.671275
66.203543,73.598233
66.201258,73.595221
66.154225,73.528052
66.151115,73.522989
66.105733,73.438085
66.104536,73.435690
66.072207,73.366359
66.067194,73.353259
66.038612,73.259036
66.038209,73.257626
66.020008,73.189696
66.017119,73.173816
66.004476,73.045447
66.000687,73.002140
66.000500,72.997840
66.000500,70.500000
78.977934,70.500000
78.989833,70.575142
78.989834,70.575145
79.047359,70.688044
79.136956,70.777641
79.249848,70.835163
79.249852,70.835164
79.343515,70.849999
79.442500,70.849999
79.442500,70.500001
79.442499,70.500000
78.977934,70.500000
66.000500,70.500000
66.000500,68.779798
73.830967,68.779798
73.863761,68.902189
73.863763,68.902192
73.932768,69.008450
74.006471,69.068134
74.006479,69.068140
74.092190,69.117624
74.267189,68.814517
73.864863,68.582234
73.837598,68.653260
73.837597,68.653267
73.830967,68.779792
73.830967,68.779798
66.000500,68.779798
66.000500,64.641407
70.234767,64.641407
70.241397,64.767932
70.241398,64.767936
70.275384,64.856470
70.275389,64.856481
70.324873,64.942189
70.324874,64.942189
70.627981,64.767190
70.395699,64.364865
70.336568,64.412749
70.267563,64.519007
70.267561,64.519010
70.234767,64.641401
70.234767,64.641407
66.000500,64.641407
66.000500,60.400000
68.394318,60.400000
68.414955,60.556758
68.414957,60.556766
68.475462,60.702838
68.475462,60.702839
68.571229,60.827645
68.571718,60.828282
68.571722,60.828285
68.571723,60.828286
68.592924,60.844554
68.697159,60.924536
68.697160,60.924536
68.697161,60.924537
68.762946,60.951786
68.843238,60.985044
68.956826,60.999998
68.999999,61.005682
69.000000,61.005682
69.000001,61.005682
69.043174,60.999998
69.156762,60.985044
69.302841,60.924536
69.322601,60.909373
69.380274,60.888948
69.422852,60.897348
69.480009,60.922585
69.505135,60.925500
69.794864,60.925499
69.819991,60.922585
69.922765,60.877206
69.990029,60.809941
70.044543,60.782165
70.104975,60.791736
70.142346,60.824944
70.144576,60.828282
70.155448,60.844552
70.221769,60.888867
70.264411,60.897349
70.280241,60.900498
70.280246,60.900498
70.280252,60.900500
70.280253,60.900500
70.819747,60.900500
70.819748,60.900500
70.878231,60.888867
70.944552,60.844552
70.944553,60.844549
70.944996,60.844254
71.003884,60.827645
71.055000,60.844253
71.080501,60.861292
71.118381,60.909342
71.124500,60.943608
71.124500,64.041916
71.105593,64.100107
71.090779,64.116345
71.087370,64.119334
71.087369,64.119335
71.069112,64.156358
71.026418,64.200185
70.966116,64.210546
70.954699,64.208198
70.853072,64.180967
70.853066,64.180967
70.726541,64.187597
70.726534,64.187598
70.655508,64.214863
70.887791,64.617191
70.988290,64.791262
71.001011,64.851111
70.976124,64.907006
70.952053,64.926499
70.474872,65.201999
70.464361,65.241228
70.431037,65.292542
70.406623,65.307067
70.370882,65.321872
70.370881,65.321872
70.245444,65.418123
70.245434,65.418133
70.149183,65.543570
70.149183,65.543571
70.088678,65.689643
70.088676,65.689651
70.068039,65.846409
70.068039,65.846410
70.088676,66.003168
70.088678,66.003176
70.149183,66.149248
70.149183,66.149249
70.159276,66.162402
70.245439,66.274692
70.370880,66.370946
70.516959,66.431454
70.634530,66.446932
70.673720,66.452092
70.673721,66.452092
70.673722,66.452092
70.705073,66.447964
70.830483,66.431454
70.976562,66.370946
71.102003,66.274692
71.198257,66.149251
71.207788,66.126239
71.247522,66.079714
71.288599,66.065699
71.350713,66.058977
71.373930,66.048939
71.624842,65.904073
71.645146,65.888986
71.649851,65.882550
71.699459,65.846737
71.712562,65.843491
71.740911,65.838493
71.740913,65.838492
71.742211,65.837743
71.766102,65.827847
71.766330,65.827785
71.767550,65.827459
71.801169,65.803917
71.804777,65.801619
71.840321,65.781099
71.866704,65.749655
71.869592,65.746503
71.931097,65.684998
71.969278,65.661257
71.976233,65.658895
71.976237,65.658896
72.032701,65.639729
72.346483,65.458566
72.406330,65.445846
72.462226,65.470733
72.492819,65.523721
72.494982,65.544304
72.494982,65.877758
72.494794,65.882060
72.494752,65.882552
72.491218,65.922939
72.501836,65.962569
72.502771,65.966785
72.509893,66.007178
72.510646,66.008481
72.520536,66.032357
72.520925,66.033812
72.520928,66.033817
72.531516,66.048939
72.544453,66.067414
72.546770,66.071051
72.563773,66.100500
72.567288,66.106588
72.598706,66.132951
72.601892,66.135870
74.335253,67.869230
74.363030,67.923747
74.358995,67.971055
74.341104,68.023759
74.341104,68.023765
74.343804,68.064953
74.328744,68.124256
74.281702,68.163381
74.270640,68.167056
74.169008,68.194288
74.169007,68.194289
74.062747,68.263295
74.062746,68.263295
74.014863,68.322424
74.591262,68.655208
74.632203,68.700678
74.638599,68.761528
74.627499,68.790445
74.528332,68.962209
74.351998,69.267624
74.362510,69.306855
74.359307,69.367957
74.345427,69.392742
74.321874,69.423438
74.321873,69.423439
74.261367,69.569515
74.261365,69.569520
74.240728,69.726278
74.240728,69.726279
74.261365,69.883037
74.261367,69.883045
74.321872,70.029117
74.321872,70.029118
74.418123,70.154555
74.418128,70.154561
74.543569,70.250815
74.543570,70.250815
74.543571,70.250816
74.689643,70.311321
74.689648,70.311323
74.807219,70.326801
74.846409,70.331961
74.846410,70.331961
74.846411,70.331961
74.877762,70.327833
75.003172,70.311323
75.149251,70.250815
75.274692,70.154561
75.370946,70.029120
75.431454,69.883041
75.452092,69.726279
75.448840,69.701582
75.459989,69.641424
75.488552,69.608751
75.538986,69.571872
75.554074,69.551570
75.698937,69.300657
75.708977,69.277439
75.721065,69.165745
75.720534,69.163765
75.716022,69.146925
75.696444,69.073859
75.699645,69.012761
75.738150,68.965210
75.785593,68.949450
75.809127,68.947908
75.880665,68.912630
75.919981,68.867799
76.189729,68.400581
76.198291,68.375357
76.234897,68.326333
76.293330,68.308187
76.351269,68.327853
76.362041,68.337175
77.693461,69.668596
77.696380,69.671782
77.722738,69.703194
77.758267,69.723707
77.761902,69.726022
77.795509,69.749554
77.796960,69.749942
77.820852,69.759840
77.822147,69.760588
77.831047,69.762157
77.862558,69.767713
77.866737,69.768638
77.906386,69.779263
77.947258,69.775687
77.951558,69.775500
79.044807,69.775500
79.102998,69.794407
79.138962,69.843907
79.138962,69.905093
79.114811,69.944504
79.047358,70.011956
78.989836,70.124848
78.989835,70.124852
78.977933,70.200000
79.643500,70.200000
79.701691,70.218907
79.737655,70.268407
79.742500,70.299000
79.742500,70.849998
79.771218,70.878716
79.798995,70.933233
79.799367,70.961640
79.794318,70.999997
79.794318,71.000000
79.814955,71.156758
79.814957,71.156766
79.875462,71.302838
79.875462,71.302839
79.875464,71.302841
79.971718,71.428282
80.097159,71.524536
80.243238,71.585044
80.360809,71.600522
80.399999,71.605682
80.400000,71.605682
80.400001,71.605682
80.431352,71.601554
80.556762,71.585044
80.702841,71.524536
80.828282,71.428282
80.924536,71.302841
80.985044,71.156762
81.005682,71.000000
80.985044,70.843238
80.924537,70.697161
80.924537,70.697160
80.917542,70.688044
80.909372,70.677397
80.888948,70.619723
80.897349,70.577144
80.922585,70.519991
80.925500,70.494865
80.925499,70.205136
80.922585,70.180009
80.877206,70.077235
80.809940,70.009969
80.782165,69.955455
80.791736,69.895023
80.824944,69.857653
80.844552,69.844552
80.888867,69.778231
80.900500,69.719748
80.900500,69.604299
84.364865,69.604299
84.412747,69.663430
84.519007,69.732436
84.519010,69.732438
84.641401,69.765232
84.641407,69.765232
84.767932,69.758602
84.767936,69.758601
84.856470,69.724615
84.856478,69.724612
84.942189,69.675125
84.767190,69.372017
84.364865,69.604299
80.900500,69.604299
80.900500,69.180252
80.888867,69.121769
80.844552,69.055448
80.844254,69.055002
80.827645,68.996114
80.844254,68.944998
80.861293,68.919498
80.909344,68.881619
80.943608,68.875500
84.041917,68.875500
84.100108,68.894407
84.116348,68.909225
84.119335,68.912630
84.156356,68.930886
84.200184,68.973580
84.210547,69.033881
84.208198,69.045299
84.180967,69.146925
84.180967,69.146933
84.187597,69.273458
84.187598,69.273463
84.214863,69.344489
84.791262,69.011708
84.851110,68.998987
84.907006,69.023874
84.926499,69.047945
85.201998,69.525124
85.241227,69.535636
85.292542,69.568960
85.307068,69.593376
85.321874,69.629120
85.348201,69.663430
85.396426,69.726279
85.418128,69.754561
85.418132,69.754564
85.418133,69.754565
85.432035,69.765232
85.543569,69.850815
85.543570,69.850815
85.543571,69.850816
85.650296,69.895023
85.689648,69.911323
85.807219,69.926801
85.846409,69.931961
85.846410,69.931961
85.846411,69.931961
85.877762,69.927833
86.003172,69.911323
86.149251,69.850815
86.274692,69.754561
86.370946,69.629120
86.431454,69.483041
86.452092,69.326279
86.431454,69.169517
86.429323,69.164372
86.370947,69.023440
86.370947,69.023439
86.274696,68.898002
86.274695,68.898001
86.274692,68.897997
86.274687,68.897993
86.274686,68.897992
86.205352,68.844791
86.149251,68.801743
86.134668,68.795702
86.126237,68.792210
86.079712,68.752472
86.065699,68.711398
86.059407,68.653260
86.058977,68.649287
86.048939,68.626070
85.904073,68.375158
85.888986,68.354854
85.882544,68.350143
85.846735,68.300530
85.843489,68.287423
85.839451,68.264524
85.838493,68.259089
85.837745,68.257793
85.827847,68.233901
85.827459,68.232450
85.827457,68.232447
85.827456,68.232445
85.803930,68.198846
85.801608,68.195202
85.801080,68.194288
85.781099,68.159679
85.781098,68.159677
85.759974,68.141953
85.749670,68.133307
85.746493,68.130395
85.684999,68.068902
85.661256,68.030719
85.658895,68.023765
85.658896,68.023763
85.639729,67.967299
85.458566,67.653516
85.445846,67.593670
85.470733,67.537774
85.523721,67.507181
85.544304,67.505018
85.877759,67.505018
85.882059,67.505205
85.922940,67.508782
85.962585,67.498158
85.966783,67.497228
86.007178,67.490106
86.008478,67.489356
86.032369,67.479460
86.032597,67.479398
86.033817,67.479072
86.067436,67.455530
86.071044,67.453232
86.106588,67.432712
86.132971,67.401268
86.135859,67.398116
87.398840,66.135135
88.582234,66.135135
88.653267,66.162402
88.779792,66.169032
88.779798,66.169032
88.902189,66.136238
88.902192,66.136236
89.008452,66.067230
89.008453,66.067230
89.068128,65.993538
89.068136,65.993526
89.117624,65.907808
88.814517,65.732809
88.582234,66.135135
87.398840,66.135135
87.869231,65.664744
87.923746,65.636969
87.971055,65.641004
88.023763,65.658896
88.064953,65.656196
88.124256,65.671256
88.163381,65.718298
88.167056,65.729360
88.194288,65.830991
88.194289,65.830992
88.263294,65.937250
88.322425,65.985134
88.655208,65.408737
88.700678,65.367796
88.761528,65.361400
88.790445,65.372501
88.936094,65.456592
88.936095,65.456592
89.267624,65.647999
89.306852,65.637488
89.367953,65.640689
89.392740,65.654571
89.423438,65.678126
89.423439,65.678126
89.423440,65.678127
89.555454,65.732809
89.569517,65.738634
89.653413,65.749679
89.726278,65.759272
89.726279,65.759272
89.726280,65.759272
89.757631,65.755144
89.883041,65.738634
90.029120,65.678126
90.154561,65.581872
90.250815,65.456431
90.311323,65.310352
90.331961,65.153590
90.311323,64.996828
90.306318,64.984745
90.250816,64.850751
90.250816,64.850750
90.154565,64.725313
90.154564,64.725312
90.154561,64.725308
90.154556,64.725304
90.154555,64.725303
90.064044,64.655852
90.029120,64.629054
90.029119,64.629053
90.029117,64.629052
89.883045,64.568547
89.883037,64.568545
89.726280,64.547908
89.726278,64.547908
89.701582,64.551159
89.641421,64.540008
89.608749,64.511444
89.571872,64.461014
89.571871,64.461013
89.571869,64.461011
89.551574,64.445928
89.345460,64.326930
89.300657,64.301063
89.300654,64.301062
89.300653,64.301061
89.300643,64.301056
89.277441,64.291023
89.277437,64.291022
89.165746,64.278935
89.165744,64.278935
89.128853,64.288820
89.073859,64.303555
89.012760,64.300354
88.965210,64.261849
88.949450,64.214404
88.949197,64.210546
88.947908,64.190873
88.912630,64.119335
88.867799,64.080019
88.400581,63.810271
88.400575,63.810269
88.400572,63.810267
88.396146,63.808261
88.397119,63.806113
88.355419,63.774957
88.337291,63.716519
88.356974,63.658586
88.398399,63.626376
88.398700,63.626250
88.402841,63.624536
88.528282,63.528282
88.624536,63.402841
88.685044,63.256762
88.705682,63.100000
88.685044,62.943238
88.624537,62.797161
88.624537,62.797160
88.528286,62.671723
88.528285,62.671722
88.528282,62.671718
88.528277,62.671714
88.528276,62.671713
88.402838,62.575462
88.256766,62.514957
88.256758,62.514955
88.100001,62.494318
88.099999,62.494318
87.943241,62.514955
87.943233,62.514957
87.797161,62.575462
87.797160,62.575462
87.671723,62.671713
87.671713,62.671723
87.575462,62.797160
87.575462,62.797161
87.514957,62.943233
87.514955,62.943241
87.494318,63.099999
87.494318,63.100000
87.504855,63.180040
87.493705,63.240201
87.476706,63.262966
87.410931,63.328741
87.407747,63.331658
87.376325,63.358024
87.376324,63.358026
87.355810,63.393557
87.353490,63.397198
87.329964,63.430798
87.329960,63.430806
87.329569,63.432268
87.319688,63.456122
87.318932,63.457430
87.318928,63.457442
87.311805,63.497831
87.310871,63.502045
87.298014,63.550038
87.296255,63.549566
87.287949,63.575901
87.104498,63.893650
87.082199,63.959345
87.081094,63.958969
87.058988,64.005301
87.012809,64.032771
86.956200,64.047940
86.956197,64.047941
86.865661,64.114147
86.865660,64.114148
86.850600,64.134414
86.850594,64.134424
86.778204,64.259805
86.778204,64.259806
87.298685,64.560306
87.339626,64.605776
87.346022,64.666626
87.334922,64.695542
87.281705,64.787719
87.034422,65.216022
87.034422,65.216023
87.152742,65.284335
87.193683,65.329805
87.200079,65.390655
87.173246,65.440075
85.788303,66.825021
85.733786,66.852799
85.718299,66.854018
85.054133,66.854018
84.995942,66.835111
84.968397,66.804518
84.919981,66.720659
84.880665,66.675828
84.809127,66.640550
84.782595,66.638810
84.729536,66.635333
84.729532,66.635333
84.673075,66.654497
84.205851,66.924248
84.177183,66.949389
84.161021,66.963564
84.161020,66.963564
84.153691,66.969993
84.152920,66.969114
84.110619,66.998185
84.056883,66.998888
84.000271,66.983719
83.888766,66.995786
83.888764,66.995787
83.865591,67.005806
83.740193,67.078204
83.940193,67.424614
84.040692,67.598685
84.053413,67.658534
84.028526,67.714429
84.004455,67.733921
83.483975,68.034420
83.483975,68.034421
83.507981,68.076000
83.520702,68.135848
83.495815,68.191744
83.442827,68.222337
83.422244,68.224500
80.943608,68.224500
80.885417,68.205593
80.861293,68.180502
80.844554,68.155451
80.844552,68.155448
80.844419,68.155359
80.778233,68.111134
80.778231,68.111133
80.778228,68.111132
80.778227,68.111132
80.719758,68.099501
80.719748,68.099500
80.180252,68.099500
80.180249,68.099500
80.112206,68.113035
80.111978,68.111890
80.060802,68.115913
80.013919,68.089655
79.972477,68.048213
79.869872,68.002909
79.844797,68.000000
79.700001,68.000000
79.700000,68.000001
79.700000,68.601000
79.681093,68.659191
79.631593,68.695155
79.601000,68.700000
79.000002,68.700000
79.000001,68.700001
79.000001,68.844791
79.002909,68.869874
79.051919,68.980870
79.049815,68.981798
79.063496,69.028242
79.042984,69.085886
78.992507,69.120466
78.964534,69.124500
78.111028,69.124500
78.052837,69.105593
78.041024,69.095504
77.365245,68.419725
77.345518,68.399998
79.000000,68.399998
79.000001,68.400000
79.399999,68.400000
79.400000,68.399999
79.400000,68.000001
79.399999,68.000000
79.255210,68.000000
79.255207,68.000001
79.230125,68.002909
79.127522,68.048213
79.048213,68.127522
79.002909,68.230127
79.000000,68.255202
79.000000,68.399998
77.345518,68.399998
76.664745,67.719226
76.636969,67.664710
76.641003,67.617403
76.658896,67.564695
76.655608,67.514536
83.239490,67.514536
83.251557,67.626040
83.251558,67.626042
83.261582,67.649226
83.333974,67.774612
83.333975,67.774612
83.680383,67.574613
83.480384,67.228204
83.354989,67.300602
83.334723,67.315662
83.268520,67.406194
83.268519,67.406196
83.239490,67.514534
83.239490,67.514536
76.655608,67.514536
76.653679,67.485102
76.618401,67.413564
76.573570,67.374248
76.106352,67.104500
76.106350,67.104499
76.106346,67.104497
76.040655,67.082199
76.041029,67.081094
75.994699,67.058989
75.967227,67.012808
75.952058,66.956197
75.885852,66.865661
75.885851,66.865660
75.865585,66.850600
75.865575,66.850594
75.740193,66.778204
75.740191,66.778204
75.439692,67.298684
75.394223,67.339625
75.333373,67.346021
75.304456,67.334921
75.153358,67.247685
74.783974,67.034422
74.715663,67.152743
74.670193,67.193684
74.609343,67.200080
74.559922,67.173247
74.161288,66.774613
74.933975,66.774613
75.280384,66.974612
75.480383,66.628204
75.354990,66.555808
75.331814,66.545787
75.331807,66.545786
75.220307,66.533719
75.220305,66.533719
75.111968,66.562748
75.021432,66.628954
75.021431,66.628955
75.006371,66.649221
75.006365,66.649231
74.933975,66.774612
74.933975,66.774613
74.161288,66.774613
73.174978,65.788302
73.147201,65.733785
73.145982,65.718298
73.145982,65.054133
73.164889,64.995942
73.195483,64.968396
73.279339,64.919982
73.279338,64.919982
73.279341,64.919981
73.324172,64.880665
73.359450,64.809127
73.364667,64.729534
73.345500,64.673070
73.075752,64.205852
73.036436,64.161021
73.036434,64.161020
73.030007,64.153691
73.030885,64.152920
73.001815,64.110625
73.001112,64.056882
73.016280,64.000275
73.016280,64.000270
73.004213,63.888766
73.004212,63.888764
72.994188,63.865580
72.921796,63.740193
72.921794,63.740193
72.533104,63.964603
72.533103,63.964604
72.401314,64.040692
72.341465,64.053413
72.285570,64.028526
72.266078,64.004455
71.965578,63.483975
71.965577,63.483975
71.924000,63.507980
71.864152,63.520702
71.808256,63.495816
71.777663,63.442828
71.775500,63.422244
71.775500,63.333975
72.225386,63.333975
72.425385,63.680383
72.771794,63.480384
72.771794,63.480383
72.699400,63.354993
72.684337,63.334723
72.593805,63.268520
72.593803,63.268519
72.485464,63.239490
72.373959,63.251557
72.373957,63.251558
72.350784,63.261577
72.225386,63.333975
71.775500,63.333975
71.775500,60.943608
71.794407,60.885417
71.819498,60.861293
71.824755,60.857780
71.844552,60.844552
71.888867,60.778231
71.900500,60.719748
71.900500,60.180252
71.888867,60.121769
71.886965,60.112207
71.888109,60.111979
71.884082,60.060816
71.910344,60.013920
71.924264,60.000000
73.894548,60.000000
73.914346,60.491285
73.914346,60.491291
73.914347,60.491297
73.914347,60.491306
73.973609,60.979365
73.973613,60.979392
74.071962,61.461136
74.071962,61.461137
74.208750,61.933386
74.208753,61.933395
74.335071,62.266467
74.383110,62.393133
74.537956,62.719464
74.592578,62.834579
74.593891,62.837345
74.839733,63.263155
74.889133,63.334723
75.119038,63.667800
75.429999,64.048659
75.770601,64.403263
75.770605,64.403267
76.053540,64.653925
76.138635,64.729313
76.138640,64.729317
76.531707,65.024688
76.651503,65.100442
76.947274,65.287477
76.947281,65.287480
76.947280,65.287480
76.947293,65.287488
77.296440,65.470733
77.382638,65.515973
77.834977,65.708697
77.986468,65.759272
78.301341,65.864392
78.301351,65.864395
78.301357,65.864397
78.778753,65.982065
79.264069,66.060936
79.754158,66.100500
79.754163,66.100500
80.245837,66.100500
80.245842,66.100500
80.735931,66.060936
81.221247,65.982065
81.698643,65.864397
82.165023,65.708697
82.617362,65.515973
82.890726,65.372501
83.052706,65.287488
83.052711,65.287484
83.052726,65.287477
83.468292,65.024688
83.794320,64.779694
86.533719,64.779694
86.562748,64.888031
86.628954,64.978567
86.628955,64.978568
86.649219,64.993627
86.774613,65.066023
86.974612,64.719614
86.628204,64.519615
86.555808,64.645009
86.545787,64.668185
86.545786,64.668192
86.533719,64.779692
86.533719,64.779694
83.794320,64.779694
83.861365,64.729313
84.229395,64.403267
84.569996,64.048664
84.880959,63.667803
85.160267,63.263155
85.406109,62.837345
85.616890,62.393133
85.791244,61.933401
85.791246,61.933395
85.791249,61.933386
85.928037,61.461137
85.928037,61.461136
85.928039,61.461130
86.026388,60.979383
86.042759,60.844554
86.054873,60.744791
88.000001,60.744791
88.002909,60.769874
88.048213,60.872477
88.127522,60.951786
88.230127,60.997090
88.255203,60.999999
88.399999,60.999999
88.399999,60.600000
88.000002,60.600000
88.000001,60.600001
88.000001,60.744791
86.054873,60.744791
86.085652,60.491306
86.085652,60.491301
86.085654,60.491285
86.105452,60.000000
86.085654,59.508715
86.085652,59.508698
86.085652,59.508693
86.026390,59.020634
86.026388,59.020617
85.928039,58.538870
85.928037,58.538862
85.791249,58.066613
85.791246,58.066604
85.773157,58.018910
85.616890,57.606867
85.406109,57.162655
85.160267,56.736845
85.010324,56.519615
87.228204,56.519615
87.300599,56.645006
87.315662,56.665276
87.406194,56.731479
87.406196,56.731480
87.514535,56.760509
87.626040,56.748442
87.626042,56.748441
87.649222,56.738419
87.774612,56.666024
87.574613,56.319615
87.228204,56.519614
87.228204,56.519615
85.010324,56.519615
84.894125,56.351271
84.880961,56.332199
84.570000,55.951340
84.229398,55.596736
84.181239,55.554071
83.924850,55.326930
83.861364,55.270686
83.861359,55.270682
83.468292,54.975311
83.126653,54.759272
83.052726,54.712523
83.052722,54.712520
83.052719,54.712519
83.052706,54.712511
82.617376,54.484034
82.617372,54.484032
82.617369,54.484030
82.617362,54.484027
82.236769,54.321871
82.165021,54.291302
81.698658,54.135607
81.698638,54.135601
81.300357,54.037434
81.221247,54.017935
80.735931,53.939064
80.735925,53.939063
80.461028,53.916871
80.245842,53.899500
79.754158,53.899500
79.556342,53.915469
79.264074,53.939063
78.778753,54.017935
78.301361,54.135601
78.301341,54.135607
77.834978,54.291302
77.666630,54.363029
77.382638,54.484027
77.382634,54.484028
77.382627,54.484032
77.382623,54.484034
76.947293,54.712511
76.947280,54.712519
76.531707,54.975311
76.138640,55.270682
76.138635,55.270686
75.770601,55.596736
75.429999,55.951340
75.119038,56.332199
74.839734,56.736843
74.593885,57.162666
74.383108,57.606872
74.208753,58.066604
74.208750,58.066613
74.071962,58.538862
74.071962,58.538863
73.973613,59.020607
73.973609,59.020634
73.914347,59.508693
73.914347,59.508702
73.914346,59.508709
73.914346,59.508715
73.894548,60.000000
71.924264,60.000000
71.951785,59.972478
71.997090,59.869872
71.999999,59.844797
72.000000,59.844795
72.000000,59.700001
71.999999,59.700000
71.399000,59.700000
71.340809,59.681093
71.304845,59.631593
71.300000,59.601000
71.300000,59.399999
71.600000,59.399999
71.600001,59.400000
71.999998,59.400000
71.999999,59.399998
71.999999,59.255209
71.999998,59.255208
71.997090,59.230125
71.951786,59.127522
71.872477,59.048213
71.769872,59.002909
71.744797,59.000000
71.600001,59.000000
71.600000,59.000001
71.600000,59.399999
71.300000,59.399999
71.300000,59.000001
71.299999,59.000000
71.155210,59.000000
71.155207,59.000001
71.130125,59.002909
71.019130,59.051919
71.018202,59.049817
70.971744,59.063495
70.914102,59.042975
70.879530,58.992493
70.875500,58.964533
70.875500,58.111027
70.894407,58.052836
70.904496,58.041023
71.338652,57.606867
72.280774,56.664744
72.335289,56.636969
72.382596,56.641003
72.435305,56.658896
72.514898,56.653679
72.586436,56.618401
72.625752,56.573570
72.895500,56.106352
72.914667,56.049888
72.914666,56.049887
72.917801,56.040655
72.918906,56.041030
72.941003,55.994706
72.987192,55.967227
73.043802,55.952058
73.134338,55.885852
73.134339,55.885851
73.149399,55.865585
73.149402,55.865581
73.221794,55.740192
73.221794,55.740191
72.701315,55.439692
72.660374,55.394223
72.653978,55.333373
72.665078,55.304456
72.678976,55.280384
73.025386,55.280384
73.371794,55.480383
73.371795,55.480383
73.444187,55.354997
73.444188,55.354996
73.454212,55.331814
73.454213,55.331807
73.466280,55.220307
73.466280,55.220305
73.437251,55.111968
73.371045,55.021432
73.371044,55.021431
73.350778,55.006371
73.350768,55.006365
73.225386,54.933975
73.225385,54.933975
73.025386,55.280384
72.678976,55.280384
72.765578,55.130385
72.965576,54.783975
72.847255,54.715663
72.806314,54.670193
72.799918,54.609343
72.826749,54.559924
74.014880,53.371794
84.519615,53.371794
84.645010,53.444191
84.668185,53.454212
84.668192,53.454213
84.779692,53.466280
84.779694,53.466280
84.888031,53.437251
84.978567,53.371045
84.978568,53.371044
84.993628,53.350778
84.993631,53.350774
85.066023,53.225385
84.719614,53.025386
84.519615,53.371794
74.014880,53.371794
74.211696,53.174978
74.266214,53.147201
74.281701,53.145982
74.945867,53.145982
75.004058,53.164889
75.031602,53.195481
75.046794,53.221794
75.080017,53.279339
75.080019,53.279341
75.119335,53.324172
75.190873,53.359450
75.270466,53.364667
75.326930,53.345500
75.794148,53.075752
75.830580,53.043802
75.846311,53.030007
75.847081,53.030885
75.889367,53.001818
75.943118,53.001112
75.999724,53.016280
75.999729,53.016280
76.111233,53.004213
76.111235,53.004212
76.134415,52.994190
76.259805,52.921795
76.020108,52.506626
76.020108,52.506625
75.973204,52.425385
76.319615,52.425385
76.519614,52.771794
76.645012,52.699395
76.665276,52.684337
76.731479,52.593805
76.731480,52.593803
76.760509,52.485465
76.760509,52.485463
76.748442,52.373959
76.748441,52.373957
76.738417,52.350773
76.666024,52.225386
76.319615,52.425385
75.973204,52.425385
75.959307,52.401314
75.946585,52.341466
75.971472,52.285570
75.995543,52.266077
76.516023,51.965577
76.492019,51.924000
76.479297,51.864152
76.504183,51.808256
76.557171,51.777663
76.577755,51.775500
79.056392,51.775500
79.114583,51.794407
79.138707,51.819498
79.150146,51.836618
79.155448,51.844552
79.221769,51.888867
79.260867,51.896644
79.280241,51.900498
79.280246,51.900498
79.280252,51.900500
79.280253,51.900500
79.819747,51.900500
79.819748,51.900500
79.878231,51.888867
79.878232,51.888865
79.887794,51.886964
79.888022,51.888111
79.939175,51.884080
79.986079,51.910343
80.027522,51.951786
80.130127,51.997090
80.155203,51.999999
80.300000,51.999999
80.300000,51.999997
80.600000,51.999997
80.600001,51.999999
80.744790,51.999999
80.744791,51.999998
80.769874,51.997090
80.872477,51.951786
80.951786,51.872477
80.997090,51.769872
80.999999,51.744797
81.000000,51.744795
81.000000,51.600001
80.999999,51.600000
80.600001,51.600000
80.600000,51.600001
80.600000,51.999997
80.300000,51.999997
80.300000,51.399000
80.318907,51.340809
80.368407,51.304845
80.399000,51.300000
80.999998,51.300000
80.999999,51.299999
80.999999,51.155209
80.999998,51.155208
80.997090,51.130125
80.948081,51.019130
80.950184,51.018201
80.936504,50.971758
80.957016,50.914114
81.007493,50.879534
81.035466,50.875500
81.888973,50.875500
81.947164,50.894407
81.958977,50.904496
83.335252,52.280772
83.363029,52.335289
83.358995,52.382596
83.344471,52.425385
83.341104,52.435305
83.346321,52.514898
83.381599,52.586436
83.426430,52.625752
83.893648,52.895500
83.893651,52.895501
83.893653,52.895502
83.959345,52.917801
83.958969,52.918906
84.005294,52.941004
84.032771,52.987190
84.047940,53.043800
84.047941,53.043802
84.114147,53.134338
84.114148,53.134339
84.134412,53.149398
84.259806,53.221794
84.560305,52.701314
84.605775,52.660373
84.666625,52.653977
84.695542,52.665077
85.216023,52.965576
85.284336,52.847256
85.329806,52.806315
85.390656,52.799919
85.440077,52.826752
86.825022,54.211697
86.852799,54.266214
86.854018,54.281701
86.854018,54.945866
86.835111,55.004057
86.804518,55.031602
86.720662,55.080016
86.675828,55.119335
86.640550,55.190872
86.640550,55.190874
86.635333,55.270463
86.635333,55.270467
86.654497,55.326924
86.654499,55.326928
86.654500,55.326930
86.869687,55.699645
86.924250,55.794151
86.969993,55.846311
86.969114,55.847081
86.998182,55.889370
86.998887,55.943114
86.983719,55.999723
86.983719,55.999729
86.995786,56.111233
86.995787,56.111235
87.005811,56.134419
87.078203,56.259805
87.078204,56.259805
87.441795,56.049888
87.598684,55.959307
87.658533,55.946585
87.714428,55.971471
87.733922,55.995543
88.034421,56.516023
88.076000,56.492018
88.135848,56.479297
88.191744,56.504184
88.222337,56.557172
88.224500,56.577755
88.224500,59.056392
88.205593,59.114583
88.180502,59.138707
88.155451,59.155445
88.155445,59.155451
88.111134,59.221766
88.111132,59.221772
88.099501,59.280241
88.099500,59.280253
88.099500,59.819746
88.099501,59.819758
88.113035,59.887793
88.111890,59.888020
88.115916,59.939188
88.089656,59.986078
88.048214,60.027520
88.002909,60.130127
88.000000,60.155202
88.000000,60.299999
88.000001,60.300000
88.601000,60.300000
88.659191,60.318907
88.695155,60.368407
88.700000,60.399000
88.700000,60.999998
88.700001,60.999999
88.795318,60.999999
88.853509,61.018906
88.889473,61.068406
88.893458,61.093568
88.893471,61.093567
88.893536,61.094063
88.894318,61.098999
88.894318,61.100000
88.914955,61.256758
88.914957,61.256766
88.975462,61.402838
88.975462,61.402839
89.020195,61.461136
89.071718,61.528282
89.197159,61.624536
89.343238,61.685044
89.460809,61.700522
89.499999,61.705682
89.500000,61.705682
89.500001,61.705682
89.531352,61.701554
89.656762,61.685044
89.802841,61.624536
89.928282,61.528282
90.024536,61.402841
90.085044,61.256762
90.104394,61.109780
90.130735,61.054556
90.184505,61.025361
90.196322,61.025206
90.199999,61.022066
90.500000,61.022066
90.575142,61.010166
90.575145,61.010165
90.688044,60.952640
90.777641,60.863043
90.835163,60.750151
90.835164,60.750147
90.850000,60.656484
90.850000,60.557501
90.849999,60.557500
90.500001,60.557500
90.500000,60.557501
90.500000,61.022066
90.199999,61.022066
90.200000,61.022065
90.200000,60.356500
90.218907,60.298309
90.268407,60.262345
90.299000,60.257500
90.849998,60.257500
90.878716,60.228782
90.933232,60.201004
90.961641,60.200632
91.000000,60.205682
91.000001,60.205682
91.038359,60.200632
91.156762,60.185044
91.302841,60.124536
91.428282,60.028282
91.524536,59.902841
91.585044,59.756762
91.605682,59.600000
91.585044,59.443238
91.584738,59.442499
91.524537,59.297161
91.524537,59.297160
91.428286,59.171723
91.428285,59.171722
91.428282,59.171718
91.428277,59.171714
91.428276,59.171713
91.338724,59.102998
91.302841,59.075464
91.302840,59.075463
91.302838,59.075462
91.156766,59.014957
91.156758,59.014955
91.000001,58.994318
90.999999,58.994318
90.843241,59.014955
90.843238,59.014955
90.843238,59.014956
90.829571,59.020617
90.697160,59.075463
90.697159,59.075464
90.677395,59.090629
90.619719,59.111051
90.577143,59.102650
90.519991,59.077415
90.519990,59.077414
90.519988,59.077414
90.494868,59.074500
90.205140,59.074500
90.205135,59.074501
90.180009,59.077414
90.077233,59.122795
90.009971,59.190057
89.955454,59.217834
89.895022,59.208262
89.857653,59.175055
89.844553,59.155450
89.844552,59.155448
89.844548,59.155445
89.778233,59.111134
89.778231,59.111133
89.778228,59.111132
89.778227,59.111132
89.719758,59.099501
89.719748,59.099500
89.180252,59.099500
89.180251,59.099500
89.180241,59.099501
89.121772,59.111132
89.121767,59.111134
89.055001,59.155746
88.996113,59.172354
88.945000,59.155746
88.919500,59.138708
88.881620,59.090659
88.875500,59.056392
88.875500,55.958083
88.894407,55.899892
88.909226,55.883650
88.912630,55.880665
88.930887,55.843641
88.973579,55.799815
89.033881,55.789452
89.045300,55.791801
89.146927,55.819032
89.146933,55.819032
89.273455,55.812403
89.273461,55.812401
89.344490,55.785134
89.025605,55.232808
89.372017,55.232808
89.604300,55.635134
89.663430,55.587252
89.732436,55.480992
89.732438,55.480989
89.765232,55.358598
89.765232,55.358592
89.758602,55.232067
89.758601,55.232063
89.724615,55.143529
89.724610,55.143518
89.675125,55.057809
89.372017,55.232808
89.025605,55.232808
89.011708,55.208737
88.998987,55.148889
89.023874,55.092993
89.047945,55.073500
89.222017,54.973000
89.525124,54.798000
89.535635,54.758772
89.568958,54.707457
89.593371,54.692933
89.629120,54.678126
89.754561,54.581872
89.850815,54.456431
89.911323,54.310352
89.931961,54.153590
89.911323,53.996828
89.909127,53.991526
89.850816,53.850751
89.850816,53.850750
89.754565,53.725313
89.754564,53.725312
89.754561,53.725308
89.754556,53.725304
89.754555,53.725303
89.629117,53.629052
89.483045,53.568547
89.483037,53.568545
89.326280,53.547908
89.326278,53.547908
89.169520,53.568545
89.169512,53.568547
89.023440,53.629052
89.023439,53.629052
88.898002,53.725303
88.897992,53.725313
88.801743,53.850747
88.801741,53.850751
88.792209,53.873763
88.752471,53.920288
88.711399,53.934300
88.649288,53.941022
88.626073,53.951059
88.626061,53.951065
88.375156,54.095928
88.354851,54.111016
88.350141,54.117457
88.300528,54.153264
88.287429,54.156508
88.259094,54.161505
88.259082,54.161509
88.257774,54.162265
88.233920,54.172146
88.232458,54.172537
88.232450,54.172541
88.198850,54.196067
88.195214,54.198383
88.187009,54.203120
88.159679,54.218900
88.133315,54.250319
88.130397,54.253503
88.068902,54.314999
88.030722,54.338741
87.967301,54.360270
87.967299,54.360270
87.967299,54.360271
87.655545,54.540262
87.653518,54.541432
87.593669,54.554153
87.537774,54.529266
87.507181,54.476278
87.505018,54.455695
87.505018,54.122240
87.505205,54.117939
87.508782,54.077060
87.498158,54.037415
87.497228,54.033215
87.493992,54.014864
87.490106,53.992822
87.489358,53.991526
87.479460,53.967634
87.479072,53.966183
87.479070,53.966180
87.479069,53.966178
87.455543,53.932579
87.453221,53.928935
87.432711,53.893410
87.409295,53.873763
87.401283,53.867040
87.398106,53.864128
85.664746,52.130769
85.636969,52.076252
85.641003,52.028945
85.658896,51.976237
85.656196,51.935045
85.671257,51.875743
85.718298,51.836618
85.729361,51.832943
85.830989,51.805712
85.830992,51.805710
85.937252,51.736704
85.985135,51.677573
85.408738,51.344790
85.367797,51.299321
85.361401,51.238471
85.372501,51.209554
85.386400,51.185481
85.732809,51.185481
86.135134,51.417764
86.162401,51.346735
86.162403,51.346729
86.169032,51.220207
86.169032,51.220201
86.136238,51.097810
86.136236,51.097807
86.067231,50.991549
85.993524,50.931862
85.907808,50.882374
85.732809,51.185481
85.386400,51.185481
85.473001,51.035483
85.647999,50.732375
85.637488,50.693148
85.640690,50.632046
85.654574,50.607256
85.678124,50.576564
85.678126,50.576562
85.738634,50.430483
85.759272,50.273721
85.755016,50.241397
85.743786,50.156093
85.738634,50.116959
85.736221,50.111133
85.678127,49.970882
85.678127,49.970881
85.581876,49.845444
85.581875,49.845443
85.581872,49.845439
85.581867,49.845435
85.581866,49.845434
85.456428,49.749183
85.310356,49.688678
85.310348,49.688676
85.153591,49.668039
85.153589,49.668039
84.996831,49.688676
84.996823,49.688678
84.850751,49.749183
84.850750,49.749183
84.725313,49.845434
84.725303,49.845444
84.629052,49.970881
84.629052,49.970882
84.568547,50.116954
84.568545,50.116962
84.547908,50.273720
84.547908,50.273721
84.551159,50.298417
84.540009,50.358577
84.511445,50.391249
84.490426,50.406620
84.461011,50.428130
84.445928,50.448425
84.301061,50.699346
84.301056,50.699356
84.291023,50.722558
84.291022,50.722562
84.278935,50.834253
84.278935,50.834258
84.303555,50.926137
84.300354,50.987239
84.261849,51.034789
84.214407,51.050549
84.193917,51.051892
84.190873,51.052092
84.190872,51.052092
84.119335,51.087370
84.080019,51.132200
83.893047,51.456047
83.842972,51.542780
83.810270,51.599421
83.801708,51.624644
83.765098,51.673668
83.706665,51.691812
83.648727,51.672143
83.637958,51.662824
82.306548,50.331414
82.303629,50.328229
82.277263,50.296806
82.244236,50.277738
82.241725,50.276288
82.238095,50.273975
82.204491,50.250446
82.204486,50.250443
82.203031,50.250054
82.179155,50.240164
82.177852,50.239411
82.137459,50.232289
82.133243,50.231354
82.106960,50.224312
82.093614,50.220736
82.093613,50.220736
82.089188,50.221123
82.052733,50.224312
82.048433,50.224500
80.955193,50.224500
80.897002,50.205593
80.861038,50.156093
80.861038,50.094907
80.885189,50.055496
80.952641,49.988043
81.010163,49.875151
81.010164,49.875147
81.022067,49.800000
80.356500,49.800000
80.298309,49.781093
80.262345,49.731593
80.257500,49.701000
80.257500,49.499999
80.557500,49.499999
80.557501,49.500000
81.022065,49.500000
81.022066,49.499999
81.010166,49.424857
81.010165,49.424854
80.952640,49.311955
80.863043,49.222358
80.750151,49.164836
80.750147,49.164835
80.656484,49.150000
80.557501,49.150000
80.557500,49.150001
80.557500,49.499999
80.257500,49.499999
80.257500,49.150000
80.228781,49.121282
80.201004,49.066765
80.200632,49.038355
80.205682,48.999999
80.185044,48.843241
80.185044,48.843238
80.124537,48.697161
80.124537,48.697160
80.028286,48.571723
80.028285,48.571722
80.028282,48.571718
80.028277,48.571714
80.028276,48.571713
79.902838,48.475462
79.756766,48.414957
79.756758,48.414955
79.600001,48.394318
79.599999,48.394318
79.443241,48.414955
79.443233,48.414957
79.297161,48.475462
79.297160,48.475462
79.171723,48.571713
79.171713,48.571723
79.075462,48.697160
79.075462,48.697161
79.014957,48.843233
79.014955,48.843241
78.994318,48.999999
78.994318,49.000000
79.014955,49.156758
79.014957,49.156766
79.075462,49.302838
79.075465,49.302843
79.090626,49.322601
79.111051,49.380276
79.102650,49.422856
79.077415,49.480008
79.077414,49.480011
79.074500,49.505130
79.074500,49.794859
79.074501,49.794864
79.077414,49.819990
79.101769,49.875147
79.122794,49.922765
79.190058,49.990029
79.217834,50.044544
79.208263,50.104976
79.175057,50.142345
79.155450,50.155446
79.155445,50.155451
79.111134,50.221766
79.111132,50.221772
79.099501,50.280241
79.099500,50.280253
79.099500,50.819746
79.099501,50.819758
79.111132,50.878227
79.111134,50.878233
79.155745,50.944997
79.172354,51.003885
79.155747,51.054998
79.138709,51.080499
79.090661,51.118380
79.056392,51.124500
75.958083,51.124500
75.899892,51.105593
75.883650,51.090774
75.880665,51.087370
75.843641,51.069112
75.799814,51.026418
75.789452,50.966117
75.791801,50.954698
75.819032,50.853070
75.819032,50.853066
75.812402,50.726541
75.785135,50.655508
75.208737,50.988291
75.148889,51.001012
75.092993,50.976125
75.073500,50.952054
74.797999,50.474873
74.758770,50.464361
74.707456,50.431037
74.692930,50.406620
74.678127,50.370883
74.678125,50.370878
74.642825,50.324874
75.057809,50.324874
75.232808,50.627981
75.635133,50.395698
75.587252,50.336569
75.480992,50.267563
75.480989,50.267561
75.358598,50.234767
75.358592,50.234767
75.232067,50.241397
75.232063,50.241398
75.143528,50.275384
75.057809,50.324873
75.057809,50.324874
74.642825,50.324874
74.581876,50.245444
74.581875,50.245443
74.581872,50.245439
74.581867,50.245435
74.581866,50.245434
74.510694,50.190822
74.456431,50.149185
74.456430,50.149184
74.456428,50.149183
74.310356,50.088678
74.310348,50.088676
74.153591,50.068039
74.153589,50.068039
73.996831,50.088676
73.996823,50.088678
73.850751,50.149183
73.850750,50.149183
73.725313,50.245434
73.725303,50.245444
73.629052,50.370881
73.629052,50.370882
73.568547,50.516954
73.568545,50.516962
73.547908,50.673720
73.547908,50.673721
73.568545,50.830479
73.568547,50.830487
73.629052,50.976559
73.629052,50.976560
73.725303,51.101997
73.725308,51.102003
73.725312,51.102006
73.725313,51.102007
73.731617,51.106844
73.850749,51.198257
73.873761,51.207788
73.920285,51.247523
73.934300,51.288599
73.941022,51.350711
73.951059,51.373926
73.951065,51.373938
74.033110,51.516042
74.095927,51.624842
74.111014,51.645146
74.111015,51.645146
74.111016,51.645148
74.117449,51.649852
74.153262,51.699461
74.156510,51.712574
74.161506,51.740911
74.162259,51.742214
74.172149,51.766090
74.172538,51.767545
74.172541,51.767550
74.191346,51.794407
74.196066,51.801147
74.198383,51.804784
74.210804,51.826297
74.218901,51.840321
74.250319,51.866684
74.253505,51.869603
74.314999,51.931096
74.338741,51.969277
74.349170,51.999999
74.360271,52.032701
74.538537,52.341466
74.541433,52.346482
74.554154,52.406330
74.529267,52.462226
74.476279,52.492819
74.455696,52.494982
74.122241,52.494982
74.117940,52.494794
74.077060,52.491218
74.077054,52.491218
74.037431,52.501835
74.033216,52.502769
73.992827,52.509892
73.992815,52.509896
73.991507,52.510652
73.967653,52.520533
73.966191,52.520924
73.966183,52.520928
73.932583,52.544454
73.928947,52.546770
73.920742,52.551507
73.893412,52.567287
73.867048,52.598706
73.864130,52.601890
72.130769,54.335252
72.076252,54.363029
72.028944,54.358995
72.002828,54.350130
71.976237,54.341104
71.976235,54.341104
71.976234,54.341104
71.948572,54.342917
71.935045,54.343803
71.875743,54.328743
71.836618,54.281702
71.832943,54.270639
71.805712,54.169010
71.805710,54.169007
71.736705,54.062749
71.677572,54.014864
71.344790,54.591261
71.299321,54.632202
71.238471,54.638598
71.209554,54.627498
71.058456,54.540262
70.732375,54.351999
70.693145,54.362511
70.632043,54.359308
70.607260,54.345429
70.576562,54.321874
70.576559,54.321873
70.576557,54.321871
70.430487,54.261367
70.430479,54.261365
70.273722,54.240728
70.273720,54.240728
70.116962,54.261365
70.116954,54.261367
69.970882,54.321872
69.970881,54.321872
69.845444,54.418123
69.845434,54.418133
69.749183,54.543570
69.749183,54.543571
69.688678,54.689643
69.688676,54.689651
69.668039,54.846409
69.668039,54.846410
69.688676,55.003168
69.688678,55.003176
69.749183,55.149248
69.749183,55.149249
69.845434,55.274686
69.845439,55.274692
69.970880,55.370946
69.970881,55.370946
69.970882,55.370947
70.099584,55.424257
70.116959,55.431454
70.273721,55.452092
70.298415,55.448840
70.358573,55.459989
70.391249,55.488554
70.428128,55.538986
70.428129,55.538986
70.428130,55.538988
70.448425,55.554071
70.448429,55.554073
70.448430,55.554074
70.699343,55.698937
70.699350,55.698940
70.699356,55.698943
70.722558,55.708976
70.722559,55.708976
70.722561,55.708977
70.834255,55.721065
70.926139,55.696444
70.987238,55.699645
71.034789,55.738149
71.050549,55.785592
71.052092,55.809127
71.087370,55.880665
71.132201,55.919981
71.599419,56.189729
71.599422,56.189730
71.599424,56.189731
71.624641,56.198291
71.673666,56.234899
71.691811,56.293332
71.672144,56.351271
71.662823,56.362041
70.331413,57.693451
70.328229,57.696369
70.296807,57.722735
70.296806,57.722737
70.276292,57.758268
70.273972,57.761909
70.250446,57.795509
70.250442,57.795517
70.250051,57.796979
70.240170,57.820833
70.239414,57.822141
70.239410,57.822153
70.232287,57.862542
70.231353,57.866757
70.220736,57.906380
70.220736,57.906386
70.224312,57.947265
70.224500,57.951566
70.224500,59.044807
70.205593,59.102998
70.156093,59.138962
70.094907,59.138962
70.055496,59.114811
69.988043,59.047358
69.875151,58.989836
69.875147,58.989835
69.800000,58.977932
69.800000,59.643500
69.781093,59.701691
69.731593,59.737655
69.701000,59.742500
69.150000,59.742500
69.121282,59.771218
69.066765,59.798995
69.038359,59.799367
69.000003,59.794318
68.999999,59.794318
68.843241,59.814955
68.843233,59.814957
68.697161,59.875462
68.697160,59.875462
68.571723,59.971713
68.571713,59.971723
68.475462,60.097160
68.475462,60.097161
68.414957,60.243233
68.414955,60.243241
68.394318,60.399999
68.394318,60.400000
66.000500,60.400000
66.000500,59.442498
69.150000,59.442498
69.150001,59.442500
69.499999,59.442500
69.500000,59.442499
69.500000,58.977932
69.424852,58.989835
69.424848,58.989836
69.311956,59.047358
69.222358,59.136956
69.164836,59.249848
69.164835,59.249852
69.150000,59.343515
69.150000,59.442498
66.000500,59.442498
66.000500,54.092190
70.882374,54.092190
71.185481,54.267189
71.417764,53.864863
71.346737,53.837598
71.346732,53.837597
71.220207,53.830967
71.220201,53.830967
71.097810,53.863761
71.097807,53.863763
70.991549,53.932768
70.931864,54.006473
70.882374,54.092190
66.000500,54.092190
66.000500,47.002158
66.000687,46.997860
66.004483,46.954465
66.017120,46.826179
66.020007,46.810307
66.038218,46.742342
66.038603,46.740995
66.067199,46.646725
66.072207,46.633639
66.099292,46.575555
66.104551,46.564276
66.105718,46.561943
66.151123,46.476994
66.154212,46.471965
66.201271,46.404759
66.203528,46.401784
66.263508,46.328698
66.266741,46.325131
66.325131,46.266741
66.328698,46.263508
66.401784,46.203528
66.404759,46.201271
66.471965,46.154212
66.476994,46.151123
66.561943,46.105718
66.564276,46.104551
66.633641,46.072205
66.646725,46.067199
66.740995,46.038603
66.742342,46.038218
66.810307,46.020007
66.826179,46.017120
66.954484,46.004482
66.997859,46.000687
67.002159,46.000500
92.997840,46.000500
Z" /> 
</g>
</g>
</g> 
</svg>
