<?xml version="1.0" standalone="no"?>
 <!DOCTYPE svg PUBLIC "-//W3C//DTD SVG 1.1//EN" 
 "http://www.w3.org/Graphics/SVG/1.1/DTD/svg11.dtd"> 
<svg
  xmlns:svg="http://www.w3.org/2000/svg"
  xmlns="http://www.w3.org/2000/svg"
  xmlns:xlink="http://www.w3.org/1999/xlink"
  version="1.1"
  width="2.91cm" height="2.6100000000000003cm" viewBox="66.95 46.95 29.1 26.1">
<title>SVG Image created as pedalboard-led-ring-F_Cu.svg date 2023/06/03 17:37:59 </title>
  <desc>Image generated by PCBNEW </desc>
<g style="fill:#000000; fill-opacity:1.000000;stroke:#000000; stroke-opacity:1.000000;
stroke-linecap:round; stroke-linejoin:round;"
 transform="translate(0 0) scale(1 1)">
</g>
<g style="fill:#000000; fill-opacity:0.0; 
stroke:#000000; stroke-width:0.000000; stroke-opacity:1; 
stroke-linecap:round; stroke-linejoin:round;">
<g >
</g>
<g style="fill:#000000; fill-opacity:0.0; 
stroke:#000000; stroke-width:0.000000; stroke-opacity:1; 
stroke-linecap:round; stroke-linejoin:round;">
</g>
<g style="fill:#000000; fill-opacity:1.000000; 
stroke:#000000; stroke-width:0.000000; stroke-opacity:1; 
stroke-linecap:round; stroke-linejoin:round;">
<path style="fill:#000000; fill-opacity:1.000000; 
stroke:#000000; stroke-width:0.000000; stroke-opacity:1; 
stroke-linecap:round; stroke-linejoin:round;fill-rule:evenodd;"
d="M 71.312534,65.852868
71.275587,65.865410
71.236652,65.862859
71.201658,65.845601
71.175932,65.816266
70.958432,65.439544
70.945890,65.402597
70.948441,65.363662
70.965699,65.328668
70.995034,65.302942
71.168240,65.202942
71.205187,65.190400
71.244122,65.192951
71.279116,65.210209
71.304842,65.239544
71.522342,65.616266
71.534884,65.653213
71.532333,65.692148
71.515075,65.727142
71.485740,65.752868
Z" /> 
<path style="fill:#000000; fill-opacity:1.000000; 
stroke:#000000; stroke-width:0.000000; stroke-opacity:1; 
stroke-linecap:round; stroke-linejoin:round;fill-rule:evenodd;"
d="M 70.905034,65.147058
70.868087,65.159600
70.829152,65.157049
70.794158,65.139791
70.768432,65.110456
70.550932,64.733734
70.538390,64.696787
70.540941,64.657852
70.558199,64.622858
70.587534,64.597132
70.760740,64.497132
70.797687,64.484590
70.836622,64.487141
70.871616,64.504399
70.897342,64.533734
71.114842,64.910456
71.127384,64.947403
71.124833,64.986338
71.107575,65.021332
71.078240,65.047058
Z" /> 
</g>
<g >
</g>
<g style="fill:#000000; fill-opacity:1.000000; 
stroke:#000000; stroke-width:0.000000; stroke-opacity:1; 
stroke-linecap:round; stroke-linejoin:round;">
<path style="fill:#000000; fill-opacity:1.000000; 
stroke:#000000; stroke-width:0.000000; stroke-opacity:1; 
stroke-linecap:round; stroke-linejoin:round;fill-rule:evenodd;"
d="M 84.323205,67.088012
84.756217,66.838012
85.006217,67.271024
84.573205,67.521024
Z" /> 
<path style="fill:#000000; fill-opacity:1.000000; 
stroke:#000000; stroke-width:0.000000; stroke-opacity:1; 
stroke-linecap:round; stroke-linejoin:round;fill-rule:evenodd;"
d="M 83.543783,67.538012
83.976795,67.288012
84.226795,67.721024
83.793783,67.971024
Z" /> 
<path style="fill:#000000; fill-opacity:1.000000; 
stroke:#000000; stroke-width:0.000000; stroke-opacity:1; 
stroke-linecap:round; stroke-linejoin:round;fill-rule:evenodd;"
d="M 83.993783,68.317434
84.426795,68.067434
84.676795,68.500446
84.243783,68.750446
Z" /> 
<path style="fill:#000000; fill-opacity:1.000000; 
stroke:#000000; stroke-width:0.000000; stroke-opacity:1; 
stroke-linecap:round; stroke-linejoin:round;fill-rule:evenodd;"
d="M 84.773205,67.867434
85.206217,67.617434
85.456217,68.050446
85.023205,68.300446
Z" /> 
</g>
<g >
</g>
<g style="fill:#000000; fill-opacity:1.000000; 
stroke:#000000; stroke-width:0.000000; stroke-opacity:1; 
stroke-linecap:round; stroke-linejoin:round;">
<path style="fill:#000000; fill-opacity:1.000000; 
stroke:#000000; stroke-width:0.000000; stroke-opacity:1; 
stroke-linecap:round; stroke-linejoin:round;fill-rule:evenodd;"
d="M 88.300000,59.800000
88.300000,59.300000
88.800000,59.300000
88.800000,59.800000
Z" /> 
<path style="fill:#000000; fill-opacity:1.000000; 
stroke:#000000; stroke-width:0.000000; stroke-opacity:1; 
stroke-linecap:round; stroke-linejoin:round;fill-rule:evenodd;"
d="M 88.300000,60.700000
88.300000,60.200000
88.800000,60.200000
88.800000,60.700000
Z" /> 
<path style="fill:#000000; fill-opacity:1.000000; 
stroke:#000000; stroke-width:0.000000; stroke-opacity:1; 
stroke-linecap:round; stroke-linejoin:round;fill-rule:evenodd;"
d="M 89.200000,60.700000
89.200000,60.200000
89.700000,60.200000
89.700000,60.700000
Z" /> 
<path style="fill:#000000; fill-opacity:1.000000; 
stroke:#000000; stroke-width:0.000000; stroke-opacity:1; 
stroke-linecap:round; stroke-linejoin:round;fill-rule:evenodd;"
d="M 89.200000,59.800000
89.200000,59.300000
89.700000,59.300000
89.700000,59.800000
Z" /> 
</g>
<g >
</g>
<g style="fill:#000000; fill-opacity:1.000000; 
stroke:#000000; stroke-width:0.000000; stroke-opacity:1; 
stroke-linecap:round; stroke-linejoin:round;">
<path style="fill:#000000; fill-opacity:1.000000; 
stroke:#000000; stroke-width:0.000000; stroke-opacity:1; 
stroke-linecap:round; stroke-linejoin:round;fill-rule:evenodd;"
d="M 79.800000,51.700000
79.300000,51.700000
79.300000,51.200000
79.800000,51.200000
Z" /> 
<path style="fill:#000000; fill-opacity:1.000000; 
stroke:#000000; stroke-width:0.000000; stroke-opacity:1; 
stroke-linecap:round; stroke-linejoin:round;fill-rule:evenodd;"
d="M 80.700000,51.700000
80.200000,51.700000
80.200000,51.200000
80.700000,51.200000
Z" /> 
<path style="fill:#000000; fill-opacity:1.000000; 
stroke:#000000; stroke-width:0.000000; stroke-opacity:1; 
stroke-linecap:round; stroke-linejoin:round;fill-rule:evenodd;"
d="M 80.700000,50.800000
80.200000,50.800000
80.200000,50.300000
80.700000,50.300000
Z" /> 
<path style="fill:#000000; fill-opacity:1.000000; 
stroke:#000000; stroke-width:0.000000; stroke-opacity:1; 
stroke-linecap:round; stroke-linejoin:round;fill-rule:evenodd;"
d="M 79.800000,50.800000
79.300000,50.800000
79.300000,50.300000
79.800000,50.300000
Z" /> 
</g>
<g >
</g>
<g style="fill:#000000; fill-opacity:1.000000; 
stroke:#000000; stroke-width:0.000000; stroke-opacity:1; 
stroke-linecap:round; stroke-linejoin:round;">
<path style="fill:#000000; fill-opacity:1.000000; 
stroke:#000000; stroke-width:0.000000; stroke-opacity:1; 
stroke-linecap:round; stroke-linejoin:round;fill-rule:evenodd;"
d="M 87.288012,63.976795
87.538012,63.543783
87.971024,63.793783
87.721024,64.226795
Z" /> 
<path style="fill:#000000; fill-opacity:1.000000; 
stroke:#000000; stroke-width:0.000000; stroke-opacity:1; 
stroke-linecap:round; stroke-linejoin:round;fill-rule:evenodd;"
d="M 86.838012,64.756217
87.088012,64.323205
87.521024,64.573205
87.271024,65.006217
Z" /> 
<path style="fill:#000000; fill-opacity:1.000000; 
stroke:#000000; stroke-width:0.000000; stroke-opacity:1; 
stroke-linecap:round; stroke-linejoin:round;fill-rule:evenodd;"
d="M 87.617434,65.206217
87.867434,64.773205
88.300446,65.023205
88.050446,65.456217
Z" /> 
<path style="fill:#000000; fill-opacity:1.000000; 
stroke:#000000; stroke-width:0.000000; stroke-opacity:1; 
stroke-linecap:round; stroke-linejoin:round;fill-rule:evenodd;"
d="M 88.067434,64.426795
88.317434,63.993783
88.750446,64.243783
88.500446,64.676795
Z" /> 
</g>
<g >
</g>
<g style="fill:#000000; fill-opacity:1.000000; 
stroke:#000000; stroke-width:0.000000; stroke-opacity:1; 
stroke-linecap:round; stroke-linejoin:round;">
<path style="fill:#000000; fill-opacity:1.000000; 
stroke:#000000; stroke-width:0.000000; stroke-opacity:1; 
stroke-linecap:round; stroke-linejoin:round;fill-rule:evenodd;"
d="M 72.911988,64.323205
73.161988,64.756217
72.728976,65.006217
72.478976,64.573205
Z" /> 
<path style="fill:#000000; fill-opacity:1.000000; 
stroke:#000000; stroke-width:0.000000; stroke-opacity:1; 
stroke-linecap:round; stroke-linejoin:round;fill-rule:evenodd;"
d="M 72.461988,63.543783
72.711988,63.976795
72.278976,64.226795
72.028976,63.793783
Z" /> 
<path style="fill:#000000; fill-opacity:1.000000; 
stroke:#000000; stroke-width:0.000000; stroke-opacity:1; 
stroke-linecap:round; stroke-linejoin:round;fill-rule:evenodd;"
d="M 71.682566,63.993783
71.932566,64.426795
71.499554,64.676795
71.249554,64.243783
Z" /> 
<path style="fill:#000000; fill-opacity:1.000000; 
stroke:#000000; stroke-width:0.000000; stroke-opacity:1; 
stroke-linecap:round; stroke-linejoin:round;fill-rule:evenodd;"
d="M 72.132566,64.773205
72.382566,65.206217
71.949554,65.456217
71.699554,65.023205
Z" /> 
</g>
<g >
</g>
<g style="fill:#000000; fill-opacity:1.000000; 
stroke:#000000; stroke-width:0.000000; stroke-opacity:1; 
stroke-linecap:round; stroke-linejoin:round;">
<path style="fill:#000000; fill-opacity:1.000000; 
stroke:#000000; stroke-width:0.000000; stroke-opacity:1; 
stroke-linecap:round; stroke-linejoin:round;fill-rule:evenodd;"
d="M 80.200000,68.300000
80.700000,68.300000
80.700000,68.800000
80.200000,68.800000
Z" /> 
<path style="fill:#000000; fill-opacity:1.000000; 
stroke:#000000; stroke-width:0.000000; stroke-opacity:1; 
stroke-linecap:round; stroke-linejoin:round;fill-rule:evenodd;"
d="M 79.300000,68.300000
79.800000,68.300000
79.800000,68.800000
79.300000,68.800000
Z" /> 
<path style="fill:#000000; fill-opacity:1.000000; 
stroke:#000000; stroke-width:0.000000; stroke-opacity:1; 
stroke-linecap:round; stroke-linejoin:round;fill-rule:evenodd;"
d="M 79.300000,69.200000
79.800000,69.200000
79.800000,69.700000
79.300000,69.700000
Z" /> 
<path style="fill:#000000; fill-opacity:1.000000; 
stroke:#000000; stroke-width:0.000000; stroke-opacity:1; 
stroke-linecap:round; stroke-linejoin:round;fill-rule:evenodd;"
d="M 80.200000,69.200000
80.700000,69.200000
80.700000,69.700000
80.200000,69.700000
Z" /> 
</g>
<g >
</g>
<g style="fill:#000000; fill-opacity:1.000000; 
stroke:#000000; stroke-width:0.000000; stroke-opacity:1; 
stroke-linecap:round; stroke-linejoin:round;">
<path style="fill:#000000; fill-opacity:1.000000; 
stroke:#000000; stroke-width:0.000000; stroke-opacity:1; 
stroke-linecap:round; stroke-linejoin:round;fill-rule:evenodd;"
d="M 85.852868,68.687466
85.865410,68.724413
85.862859,68.763348
85.845601,68.798342
85.816266,68.824068
85.439544,69.041568
85.402597,69.054110
85.363662,69.051559
85.328668,69.034301
85.302942,69.004966
85.202942,68.831760
85.190400,68.794813
85.192951,68.755878
85.210209,68.720884
85.239544,68.695158
85.616266,68.477658
85.653213,68.465116
85.692148,68.467667
85.727142,68.484925
85.752868,68.514260
Z" /> 
<path style="fill:#000000; fill-opacity:1.000000; 
stroke:#000000; stroke-width:0.000000; stroke-opacity:1; 
stroke-linecap:round; stroke-linejoin:round;fill-rule:evenodd;"
d="M 85.147058,69.094966
85.159600,69.131913
85.157049,69.170848
85.139791,69.205842
85.110456,69.231568
84.733734,69.449068
84.696787,69.461610
84.657852,69.459059
84.622858,69.441801
84.597132,69.412466
84.497132,69.239260
84.484590,69.202313
84.487141,69.163378
84.504399,69.128384
84.533734,69.102658
84.910456,68.885158
84.947403,68.872616
84.986338,68.875167
85.021332,68.892425
85.047058,68.921760
Z" /> 
</g>
<g >
</g>
<g style="fill:#000000; fill-opacity:1.000000; 
stroke:#000000; stroke-width:0.000000; stroke-opacity:1; 
stroke-linecap:round; stroke-linejoin:round;">
<path style="fill:#000000; fill-opacity:1.000000; 
stroke:#000000; stroke-width:0.000000; stroke-opacity:1; 
stroke-linecap:round; stroke-linejoin:round;fill-rule:evenodd;"
d="M 71.700000,60.200000
71.700000,60.700000
71.200000,60.700000
71.200000,60.200000
Z" /> 
<path style="fill:#000000; fill-opacity:1.000000; 
stroke:#000000; stroke-width:0.000000; stroke-opacity:1; 
stroke-linecap:round; stroke-linejoin:round;fill-rule:evenodd;"
d="M 71.700000,59.300000
71.700000,59.800000
71.200000,59.800000
71.200000,59.300000
Z" /> 
<path style="fill:#000000; fill-opacity:1.000000; 
stroke:#000000; stroke-width:0.000000; stroke-opacity:1; 
stroke-linecap:round; stroke-linejoin:round;fill-rule:evenodd;"
d="M 70.800000,59.300000
70.800000,59.800000
70.300000,59.800000
70.300000,59.300000
Z" /> 
<path style="fill:#000000; fill-opacity:1.000000; 
stroke:#000000; stroke-width:0.000000; stroke-opacity:1; 
stroke-linecap:round; stroke-linejoin:round;fill-rule:evenodd;"
d="M 70.800000,60.200000
70.800000,60.700000
70.300000,60.700000
70.300000,60.200000
Z" /> 
</g>
<g >
</g>
<g style="fill:#000000; fill-opacity:1.000000; 
stroke:#000000; stroke-width:0.000000; stroke-opacity:1; 
stroke-linecap:round; stroke-linejoin:round;">
<path style="fill:#000000; fill-opacity:1.000000; 
stroke:#000000; stroke-width:0.000000; stroke-opacity:1; 
stroke-linecap:round; stroke-linejoin:round;fill-rule:evenodd;"
d="M 72.711988,56.023205
72.461988,56.456217
72.028976,56.206217
72.278976,55.773205
Z" /> 
<path style="fill:#000000; fill-opacity:1.000000; 
stroke:#000000; stroke-width:0.000000; stroke-opacity:1; 
stroke-linecap:round; stroke-linejoin:round;fill-rule:evenodd;"
d="M 73.161988,55.243783
72.911988,55.676795
72.478976,55.426795
72.728976,54.993783
Z" /> 
<path style="fill:#000000; fill-opacity:1.000000; 
stroke:#000000; stroke-width:0.000000; stroke-opacity:1; 
stroke-linecap:round; stroke-linejoin:round;fill-rule:evenodd;"
d="M 72.382566,54.793783
72.132566,55.226795
71.699554,54.976795
71.949554,54.543783
Z" /> 
<path style="fill:#000000; fill-opacity:1.000000; 
stroke:#000000; stroke-width:0.000000; stroke-opacity:1; 
stroke-linecap:round; stroke-linejoin:round;fill-rule:evenodd;"
d="M 71.932566,55.573205
71.682566,56.006217
71.249554,55.756217
71.499554,55.323205
Z" /> 
</g>
<g >
</g>
<g style="fill:#000000; fill-opacity:1.000000; 
stroke:#000000; stroke-width:0.000000; stroke-opacity:1; 
stroke-linecap:round; stroke-linejoin:round;">
<path style="fill:#000000; fill-opacity:1.000000; 
stroke:#000000; stroke-width:0.000000; stroke-opacity:1; 
stroke-linecap:round; stroke-linejoin:round;fill-rule:evenodd;"
d="M 88.620897,65.577868
88.591562,65.552142
88.574304,65.517148
88.571753,65.478213
88.584295,65.441266
88.801795,65.064544
88.827521,65.035209
88.862515,65.017951
88.901450,65.015400
88.938397,65.027942
89.111603,65.127942
89.140938,65.153668
89.158196,65.188662
89.160747,65.227597
89.148205,65.264544
88.930705,65.641266
88.904979,65.670601
88.869985,65.687859
88.831050,65.690410
88.794103,65.677868
Z" /> 
<path style="fill:#000000; fill-opacity:1.000000; 
stroke:#000000; stroke-width:0.000000; stroke-opacity:1; 
stroke-linecap:round; stroke-linejoin:round;fill-rule:evenodd;"
d="M 89.028397,64.872058
88.999062,64.846332
88.981804,64.811338
88.979253,64.772403
88.991795,64.735456
89.209295,64.358734
89.235021,64.329399
89.270015,64.312141
89.308950,64.309590
89.345897,64.322132
89.519103,64.422132
89.548438,64.447858
89.565696,64.482852
89.568247,64.521787
89.555705,64.558734
89.338205,64.935456
89.312479,64.964791
89.277485,64.982049
89.238550,64.984600
89.201603,64.972058
Z" /> 
</g>
<g >
</g>
<g >
</g>
<g style="fill:#000000; fill-opacity:1.000000; 
stroke:#000000; stroke-width:0.000000; stroke-opacity:1; 
stroke-linecap:round; stroke-linejoin:round;">
<path style="fill:#000000; fill-opacity:1.000000; 
stroke:#000000; stroke-width:0.000000; stroke-opacity:1; 
stroke-linecap:round; stroke-linejoin:round;fill-rule:evenodd;"
d="M 70.587534,55.402868
70.558199,55.377142
70.540941,55.342148
70.538390,55.303213
70.550932,55.266266
70.768432,54.889544
70.794158,54.860209
70.829152,54.842951
70.868087,54.840400
70.905034,54.852942
71.078240,54.952942
71.107575,54.978668
71.124833,55.013662
71.127384,55.052597
71.114842,55.089544
70.897342,55.466266
70.871616,55.495601
70.836622,55.512859
70.797687,55.515410
70.760740,55.502868
Z" /> 
<path style="fill:#000000; fill-opacity:1.000000; 
stroke:#000000; stroke-width:0.000000; stroke-opacity:1; 
stroke-linecap:round; stroke-linejoin:round;fill-rule:evenodd;"
d="M 70.995034,54.697058
70.965699,54.671332
70.948441,54.636338
70.945890,54.597403
70.958432,54.560456
71.175932,54.183734
71.201658,54.154399
71.236652,54.137141
71.275587,54.134590
71.312534,54.147132
71.485740,54.247132
71.515075,54.272858
71.532333,54.307852
71.534884,54.346787
71.522342,54.383734
71.304842,54.760456
71.279116,54.789791
71.244122,54.807049
71.205187,54.809600
71.168240,54.797058
Z" /> 
</g>
<g >
</g>
<g >
</g>
<g >
</g>
<g style="fill:#000000; fill-opacity:1.000000; 
stroke:#000000; stroke-width:0.000000; stroke-opacity:1; 
stroke-linecap:round; stroke-linejoin:round;">
<path style="fill:#000000; fill-opacity:1.000000; 
stroke:#000000; stroke-width:0.000000; stroke-opacity:1; 
stroke-linecap:round; stroke-linejoin:round;fill-rule:evenodd;"
d="M 75.402868,69.412466
75.377142,69.441801
75.342148,69.459059
75.303213,69.461610
75.266266,69.449068
74.889544,69.231568
74.860209,69.205842
74.842951,69.170848
74.840400,69.131913
74.852942,69.094966
74.952942,68.921760
74.978668,68.892425
75.013662,68.875167
75.052597,68.872616
75.089544,68.885158
75.466266,69.102658
75.495601,69.128384
75.512859,69.163378
75.515410,69.202313
75.502868,69.239260
Z" /> 
<path style="fill:#000000; fill-opacity:1.000000; 
stroke:#000000; stroke-width:0.000000; stroke-opacity:1; 
stroke-linecap:round; stroke-linejoin:round;fill-rule:evenodd;"
d="M 74.697058,69.004966
74.671332,69.034301
74.636338,69.051559
74.597403,69.054110
74.560456,69.041568
74.183734,68.824068
74.154399,68.798342
74.137141,68.763348
74.134590,68.724413
74.147132,68.687466
74.247132,68.514260
74.272858,68.484925
74.307852,68.467667
74.346787,68.465116
74.383734,68.477658
74.760456,68.695158
74.789791,68.720884
74.807049,68.755878
74.809600,68.794813
74.797058,68.831760
Z" /> 
</g>
<g >
</g>
<g style="fill:#000000; fill-opacity:1.000000; 
stroke:#000000; stroke-width:0.000000; stroke-opacity:1; 
stroke-linecap:round; stroke-linejoin:round;">
<path style="fill:#000000; fill-opacity:1.000000; 
stroke:#000000; stroke-width:0.000000; stroke-opacity:1; 
stroke-linecap:round; stroke-linejoin:round;fill-rule:evenodd;"
d="M 69.550000,60.725000
69.511732,60.717388
69.479289,60.695711
69.457612,60.663268
69.450000,60.625000
69.450000,60.190000
69.457612,60.151732
69.479289,60.119289
69.511732,60.097612
69.550000,60.090000
69.750000,60.090000
69.788268,60.097612
69.820711,60.119289
69.842388,60.151732
69.850000,60.190000
69.850000,60.625000
69.842388,60.663268
69.820711,60.695711
69.788268,60.717388
69.750000,60.725000
Z" /> 
<path style="fill:#000000; fill-opacity:1.000000; 
stroke:#000000; stroke-width:0.000000; stroke-opacity:1; 
stroke-linecap:round; stroke-linejoin:round;fill-rule:evenodd;"
d="M 69.550000,59.910000
69.511732,59.902388
69.479289,59.880711
69.457612,59.848268
69.450000,59.810000
69.450000,59.375000
69.457612,59.336732
69.479289,59.304289
69.511732,59.282612
69.550000,59.275000
69.750000,59.275000
69.788268,59.282612
69.820711,59.304289
69.842388,59.336732
69.850000,59.375000
69.850000,59.810000
69.842388,59.848268
69.820711,59.880711
69.788268,59.902388
69.750000,59.910000
Z" /> 
</g>
<g >
</g>
<g style="fill:#000000; fill-opacity:1.000000; 
stroke:#000000; stroke-width:0.000000; stroke-opacity:1; 
stroke-linecap:round; stroke-linejoin:round;">
<path style="fill:#000000; fill-opacity:1.000000; 
stroke:#000000; stroke-width:0.000000; stroke-opacity:1; 
stroke-linecap:round; stroke-linejoin:round;fill-rule:evenodd;"
d="M 80.725000,70.450000
80.717388,70.488268
80.695711,70.520711
80.663268,70.542388
80.625000,70.550000
80.190000,70.550000
80.151732,70.542388
80.119289,70.520711
80.097612,70.488268
80.090000,70.450000
80.090000,70.250000
80.097612,70.211732
80.119289,70.179289
80.151732,70.157612
80.190000,70.150000
80.625000,70.150000
80.663268,70.157612
80.695711,70.179289
80.717388,70.211732
80.725000,70.250000
Z" /> 
<path style="fill:#000000; fill-opacity:1.000000; 
stroke:#000000; stroke-width:0.000000; stroke-opacity:1; 
stroke-linecap:round; stroke-linejoin:round;fill-rule:evenodd;"
d="M 79.910000,70.450000
79.902388,70.488268
79.880711,70.520711
79.848268,70.542388
79.810000,70.550000
79.375000,70.550000
79.336732,70.542388
79.304289,70.520711
79.282612,70.488268
79.275000,70.450000
79.275000,70.250000
79.282612,70.211732
79.304289,70.179289
79.336732,70.157612
79.375000,70.150000
79.810000,70.150000
79.848268,70.157612
79.880711,70.179289
79.902388,70.211732
79.910000,70.250000
Z" /> 
</g>
<g >
</g>
<g style="fill:#000000; fill-opacity:1.000000; 
stroke:#000000; stroke-width:0.000000; stroke-opacity:1; 
stroke-linecap:round; stroke-linejoin:round;">
<path style="fill:#000000; fill-opacity:1.000000; 
stroke:#000000; stroke-width:0.000000; stroke-opacity:1; 
stroke-linecap:round; stroke-linejoin:round;fill-rule:evenodd;"
d="M 84.597132,50.587534
84.622858,50.558199
84.657852,50.540941
84.696787,50.538390
84.733734,50.550932
85.110456,50.768432
85.139791,50.794158
85.157049,50.829152
85.159600,50.868087
85.147058,50.905034
85.047058,51.078240
85.021332,51.107575
84.986338,51.124833
84.947403,51.127384
84.910456,51.114842
84.533734,50.897342
84.504399,50.871616
84.487141,50.836622
84.484590,50.797687
84.497132,50.760740
Z" /> 
<path style="fill:#000000; fill-opacity:1.000000; 
stroke:#000000; stroke-width:0.000000; stroke-opacity:1; 
stroke-linecap:round; stroke-linejoin:round;fill-rule:evenodd;"
d="M 85.302942,50.995034
85.328668,50.965699
85.363662,50.948441
85.402597,50.945890
85.439544,50.958432
85.816266,51.175932
85.845601,51.201658
85.862859,51.236652
85.865410,51.275587
85.852868,51.312534
85.752868,51.485740
85.727142,51.515075
85.692148,51.532333
85.653213,51.534884
85.616266,51.522342
85.239544,51.304842
85.210209,51.279116
85.192951,51.244122
85.190400,51.205187
85.202942,51.168240
Z" /> 
</g>
<g >
</g>
<g style="fill:#000000; fill-opacity:1.000000; 
stroke:#000000; stroke-width:0.000000; stroke-opacity:1; 
stroke-linecap:round; stroke-linejoin:round;">
<path style="fill:#000000; fill-opacity:1.000000; 
stroke:#000000; stroke-width:0.000000; stroke-opacity:1; 
stroke-linecap:round; stroke-linejoin:round;fill-rule:evenodd;"
d="M 88.687466,54.147132
88.724413,54.134590
88.763348,54.137141
88.798342,54.154399
88.824068,54.183734
89.041568,54.560456
89.054110,54.597403
89.051559,54.636338
89.034301,54.671332
89.004966,54.697058
88.831760,54.797058
88.794813,54.809600
88.755878,54.807049
88.720884,54.789791
88.695158,54.760456
88.477658,54.383734
88.465116,54.346787
88.467667,54.307852
88.484925,54.272858
88.514260,54.247132
Z" /> 
<path style="fill:#000000; fill-opacity:1.000000; 
stroke:#000000; stroke-width:0.000000; stroke-opacity:1; 
stroke-linecap:round; stroke-linejoin:round;fill-rule:evenodd;"
d="M 89.094966,54.852942
89.131913,54.840400
89.170848,54.842951
89.205842,54.860209
89.231568,54.889544
89.449068,55.266266
89.461610,55.303213
89.459059,55.342148
89.441801,55.377142
89.412466,55.402868
89.239260,55.502868
89.202313,55.515410
89.163378,55.512859
89.128384,55.495601
89.102658,55.466266
88.885158,55.089544
88.872616,55.052597
88.875167,55.013662
88.892425,54.978668
88.921760,54.952942
Z" /> 
</g>
<g >
</g>
<g style="fill:#000000; fill-opacity:1.000000; 
stroke:#000000; stroke-width:0.000000; stroke-opacity:1; 
stroke-linecap:round; stroke-linejoin:round;">
<path style="fill:#000000; fill-opacity:1.000000; 
stroke:#000000; stroke-width:0.000000; stroke-opacity:1; 
stroke-linecap:round; stroke-linejoin:round;fill-rule:evenodd;"
d="M 74.147132,51.312534
74.134590,51.275587
74.137141,51.236652
74.154399,51.201658
74.183734,51.175932
74.560456,50.958432
74.597403,50.945890
74.636338,50.948441
74.671332,50.965699
74.697058,50.995034
74.797058,51.168240
74.809600,51.205187
74.807049,51.244122
74.789791,51.279116
74.760456,51.304842
74.383734,51.522342
74.346787,51.534884
74.307852,51.532333
74.272858,51.515075
74.247132,51.485740
Z" /> 
<path style="fill:#000000; fill-opacity:1.000000; 
stroke:#000000; stroke-width:0.000000; stroke-opacity:1; 
stroke-linecap:round; stroke-linejoin:round;fill-rule:evenodd;"
d="M 74.852942,50.905034
74.840400,50.868087
74.842951,50.829152
74.860209,50.794158
74.889544,50.768432
75.266266,50.550932
75.303213,50.538390
75.342148,50.540941
75.377142,50.558199
75.402868,50.587534
75.502868,50.760740
75.515410,50.797687
75.512859,50.836622
75.495601,50.871616
75.466266,50.897342
75.089544,51.114842
75.052597,51.127384
75.013662,51.124833
74.978668,51.107575
74.952942,51.078240
Z" /> 
</g>
<g >
</g>
<g style="fill:#000000; fill-opacity:1.000000; 
stroke:#000000; stroke-width:0.000000; stroke-opacity:1; 
stroke-linecap:round; stroke-linejoin:round;">
<path style="fill:#000000; fill-opacity:1.000000; 
stroke:#000000; stroke-width:0.000000; stroke-opacity:1; 
stroke-linecap:round; stroke-linejoin:round;fill-rule:evenodd;"
d="M 87.088012,55.676795
86.838012,55.243783
87.271024,54.993783
87.521024,55.426795
Z" /> 
<path style="fill:#000000; fill-opacity:1.000000; 
stroke:#000000; stroke-width:0.000000; stroke-opacity:1; 
stroke-linecap:round; stroke-linejoin:round;fill-rule:evenodd;"
d="M 87.538012,56.456217
87.288012,56.023205
87.721024,55.773205
87.971024,56.206217
Z" /> 
<path style="fill:#000000; fill-opacity:1.000000; 
stroke:#000000; stroke-width:0.000000; stroke-opacity:1; 
stroke-linecap:round; stroke-linejoin:round;fill-rule:evenodd;"
d="M 88.317434,56.006217
88.067434,55.573205
88.500446,55.323205
88.750446,55.756217
Z" /> 
<path style="fill:#000000; fill-opacity:1.000000; 
stroke:#000000; stroke-width:0.000000; stroke-opacity:1; 
stroke-linecap:round; stroke-linejoin:round;fill-rule:evenodd;"
d="M 87.867434,55.226795
87.617434,54.793783
88.050446,54.543783
88.300446,54.976795
Z" /> 
</g>
<g >
</g>
<g style="fill:#000000; fill-opacity:1.000000; 
stroke:#000000; stroke-width:0.000000; stroke-opacity:1; 
stroke-linecap:round; stroke-linejoin:round;">
<path style="fill:#000000; fill-opacity:1.000000; 
stroke:#000000; stroke-width:0.000000; stroke-opacity:1; 
stroke-linecap:round; stroke-linejoin:round;fill-rule:evenodd;"
d="M 90.450000,59.275000
90.488268,59.282612
90.520711,59.304289
90.542388,59.336732
90.550000,59.375000
90.550000,59.810000
90.542388,59.848268
90.520711,59.880711
90.488268,59.902388
90.450000,59.910000
90.250000,59.910000
90.211732,59.902388
90.179289,59.880711
90.157612,59.848268
90.150000,59.810000
90.150000,59.375000
90.157612,59.336732
90.179289,59.304289
90.211732,59.282612
90.250000,59.275000
Z" /> 
<path style="fill:#000000; fill-opacity:1.000000; 
stroke:#000000; stroke-width:0.000000; stroke-opacity:1; 
stroke-linecap:round; stroke-linejoin:round;fill-rule:evenodd;"
d="M 90.450000,60.090000
90.488268,60.097612
90.520711,60.119289
90.542388,60.151732
90.550000,60.190000
90.550000,60.625000
90.542388,60.663268
90.520711,60.695711
90.488268,60.717388
90.450000,60.725000
90.250000,60.725000
90.211732,60.717388
90.179289,60.695711
90.157612,60.663268
90.150000,60.625000
90.150000,60.190000
90.157612,60.151732
90.179289,60.119289
90.211732,60.097612
90.250000,60.090000
Z" /> 
</g>
<g >
</g>
<g style="fill:#000000; fill-opacity:1.000000; 
stroke:#000000; stroke-width:0.000000; stroke-opacity:1; 
stroke-linecap:round; stroke-linejoin:round;">
<path style="fill:#000000; fill-opacity:1.000000; 
stroke:#000000; stroke-width:0.000000; stroke-opacity:1; 
stroke-linecap:round; stroke-linejoin:round;fill-rule:evenodd;"
d="M 75.676795,52.911988
75.243783,53.161988
74.993783,52.728976
75.426795,52.478976
Z" /> 
<path style="fill:#000000; fill-opacity:1.000000; 
stroke:#000000; stroke-width:0.000000; stroke-opacity:1; 
stroke-linecap:round; stroke-linejoin:round;fill-rule:evenodd;"
d="M 76.456217,52.461988
76.023205,52.711988
75.773205,52.278976
76.206217,52.028976
Z" /> 
<path style="fill:#000000; fill-opacity:1.000000; 
stroke:#000000; stroke-width:0.000000; stroke-opacity:1; 
stroke-linecap:round; stroke-linejoin:round;fill-rule:evenodd;"
d="M 76.006217,51.682566
75.573205,51.932566
75.323205,51.499554
75.756217,51.249554
Z" /> 
<path style="fill:#000000; fill-opacity:1.000000; 
stroke:#000000; stroke-width:0.000000; stroke-opacity:1; 
stroke-linecap:round; stroke-linejoin:round;fill-rule:evenodd;"
d="M 75.226795,52.132566
74.793783,52.382566
74.543783,51.949554
74.976795,51.699554
Z" /> 
</g>
<g >
</g>
<g style="fill:#000000; fill-opacity:1.000000; 
stroke:#000000; stroke-width:0.000000; stroke-opacity:1; 
stroke-linecap:round; stroke-linejoin:round;">
<path style="fill:#000000; fill-opacity:1.000000; 
stroke:#000000; stroke-width:0.000000; stroke-opacity:1; 
stroke-linecap:round; stroke-linejoin:round;fill-rule:evenodd;"
d="M 76.023205,67.288012
76.456217,67.538012
76.206217,67.971024
75.773205,67.721024
Z" /> 
<path style="fill:#000000; fill-opacity:1.000000; 
stroke:#000000; stroke-width:0.000000; stroke-opacity:1; 
stroke-linecap:round; stroke-linejoin:round;fill-rule:evenodd;"
d="M 75.243783,66.838012
75.676795,67.088012
75.426795,67.521024
74.993783,67.271024
Z" /> 
<path style="fill:#000000; fill-opacity:1.000000; 
stroke:#000000; stroke-width:0.000000; stroke-opacity:1; 
stroke-linecap:round; stroke-linejoin:round;fill-rule:evenodd;"
d="M 74.793783,67.617434
75.226795,67.867434
74.976795,68.300446
74.543783,68.050446
Z" /> 
<path style="fill:#000000; fill-opacity:1.000000; 
stroke:#000000; stroke-width:0.000000; stroke-opacity:1; 
stroke-linecap:round; stroke-linejoin:round;fill-rule:evenodd;"
d="M 75.573205,68.067434
76.006217,68.317434
75.756217,68.750446
75.323205,68.500446
Z" /> 
</g>
<g >
</g>
<g style="fill:#000000; fill-opacity:1.000000; 
stroke:#000000; stroke-width:0.000000; stroke-opacity:1; 
stroke-linecap:round; stroke-linejoin:round;">
<path style="fill:#000000; fill-opacity:1.000000; 
stroke:#000000; stroke-width:0.000000; stroke-opacity:1; 
stroke-linecap:round; stroke-linejoin:round;fill-rule:evenodd;"
d="M 83.976795,52.711988
83.543783,52.461988
83.793783,52.028976
84.226795,52.278976
Z" /> 
<path style="fill:#000000; fill-opacity:1.000000; 
stroke:#000000; stroke-width:0.000000; stroke-opacity:1; 
stroke-linecap:round; stroke-linejoin:round;fill-rule:evenodd;"
d="M 84.756217,53.161988
84.323205,52.911988
84.573205,52.478976
85.006217,52.728976
Z" /> 
<path style="fill:#000000; fill-opacity:1.000000; 
stroke:#000000; stroke-width:0.000000; stroke-opacity:1; 
stroke-linecap:round; stroke-linejoin:round;fill-rule:evenodd;"
d="M 85.206217,52.382566
84.773205,52.132566
85.023205,51.699554
85.456217,51.949554
Z" /> 
<path style="fill:#000000; fill-opacity:1.000000; 
stroke:#000000; stroke-width:0.000000; stroke-opacity:1; 
stroke-linecap:round; stroke-linejoin:round;fill-rule:evenodd;"
d="M 84.426795,51.932566
83.993783,51.682566
84.243783,51.249554
84.676795,51.499554
Z" /> 
</g>
<g >
</g>
<g style="fill:#000000; fill-opacity:1.000000; 
stroke:#000000; stroke-width:0.000000; stroke-opacity:1; 
stroke-linecap:round; stroke-linejoin:round;">
<path style="fill:#000000; fill-opacity:1.000000; 
stroke:#000000; stroke-width:0.000000; stroke-opacity:1; 
stroke-linecap:round; stroke-linejoin:round;fill-rule:evenodd;"
d="M 89.635000,61.780000
89.627388,61.818268
89.605711,61.850711
89.573268,61.872388
89.535000,61.880000
89.100000,61.880000
89.061732,61.872388
89.029289,61.850711
89.007612,61.818268
89.000000,61.780000
89.000000,61.580000
89.007612,61.541732
89.029289,61.509289
89.061732,61.487612
89.100000,61.480000
89.535000,61.480000
89.573268,61.487612
89.605711,61.509289
89.627388,61.541732
89.635000,61.580000
Z" /> 
<path style="fill:#000000; fill-opacity:1.000000; 
stroke:#000000; stroke-width:0.000000; stroke-opacity:1; 
stroke-linecap:round; stroke-linejoin:round;fill-rule:evenodd;"
d="M 88.820000,61.780000
88.812388,61.818268
88.790711,61.850711
88.758268,61.872388
88.720000,61.880000
88.285000,61.880000
88.246732,61.872388
88.214289,61.850711
88.192612,61.818268
88.185000,61.780000
88.185000,61.580000
88.192612,61.541732
88.214289,61.509289
88.246732,61.487612
88.285000,61.480000
88.720000,61.480000
88.758268,61.487612
88.790711,61.509289
88.812388,61.541732
88.820000,61.580000
Z" /> 
</g>
<g >
</g>
<g >
</g>
<g style="fill:#000000; fill-opacity:1.000000; 
stroke:#000000; stroke-width:0.000000; stroke-opacity:1; 
stroke-linecap:round; stroke-linejoin:round;">
<path style="fill:#000000; fill-opacity:1.000000; 
stroke:#000000; stroke-width:0.000000; stroke-opacity:1; 
stroke-linecap:round; stroke-linejoin:round;fill-rule:evenodd;"
d="M 79.275000,49.550000
79.282612,49.511732
79.304289,49.479289
79.336732,49.457612
79.375000,49.450000
79.810000,49.450000
79.848268,49.457612
79.880711,49.479289
79.902388,49.511732
79.910000,49.550000
79.910000,49.750000
79.902388,49.788268
79.880711,49.820711
79.848268,49.842388
79.810000,49.850000
79.375000,49.850000
79.336732,49.842388
79.304289,49.820711
79.282612,49.788268
79.275000,49.750000
Z" /> 
<path style="fill:#000000; fill-opacity:1.000000; 
stroke:#000000; stroke-width:0.000000; stroke-opacity:1; 
stroke-linecap:round; stroke-linejoin:round;fill-rule:evenodd;"
d="M 80.090000,49.550000
80.097612,49.511732
80.119289,49.479289
80.151732,49.457612
80.190000,49.450000
80.625000,49.450000
80.663268,49.457612
80.695711,49.479289
80.717388,49.511732
80.725000,49.550000
80.725000,49.750000
80.717388,49.788268
80.695711,49.820711
80.663268,49.842388
80.625000,49.850000
80.190000,49.850000
80.151732,49.842388
80.119289,49.820711
80.097612,49.788268
80.090000,49.750000
Z" /> 
</g>
<g >
</g>
<g >
</g>
<g >
</g>
<g style="fill:#000000; fill-opacity:1.000000; 
stroke:#000000; stroke-width:0.000000; stroke-opacity:1; 
stroke-linecap:round; stroke-linejoin:round;">
<circle cx="86.800000" cy="63.600000" r="0.400000" /> 
</g>
<g style="fill:#000000; fill-opacity:1.000000; 
stroke:#000000; stroke-width:0.021200; stroke-opacity:1; 
stroke-linecap:round; stroke-linejoin:round;">
</g>
<g style="fill:#000000; fill-opacity:1.000000; 
stroke:#000000; stroke-width:0.000000; stroke-opacity:1; 
stroke-linecap:round; stroke-linejoin:round;">
<circle cx="74.000000" cy="52.000000" r="0.400000" /> 
</g>
<g style="fill:#000000; fill-opacity:1.000000; 
stroke:#000000; stroke-width:0.021200; stroke-opacity:1; 
stroke-linecap:round; stroke-linejoin:round;">
</g>
<g style="fill:#000000; fill-opacity:1.000000; 
stroke:#000000; stroke-width:0.000000; stroke-opacity:1; 
stroke-linecap:round; stroke-linejoin:round;">
<circle cx="89.928203" cy="58.803848" r="0.400000" /> 
</g>
<g style="fill:#000000; fill-opacity:1.000000; 
stroke:#000000; stroke-width:0.021200; stroke-opacity:1; 
stroke-linecap:round; stroke-linejoin:round;">
</g>
<g style="fill:#000000; fill-opacity:1.000000; 
stroke:#000000; stroke-width:0.000000; stroke-opacity:1; 
stroke-linecap:round; stroke-linejoin:round;">
<circle cx="70.071797" cy="61.196152" r="0.400000" /> 
</g>
<g style="fill:#000000; fill-opacity:1.000000; 
stroke:#000000; stroke-width:0.021200; stroke-opacity:1; 
stroke-linecap:round; stroke-linejoin:round;">
</g>
<g style="fill:#000000; fill-opacity:1.000000; 
stroke:#000000; stroke-width:0.000000; stroke-opacity:1; 
stroke-linecap:round; stroke-linejoin:round;">
<circle cx="76.071797" cy="69.196152" r="0.400000" /> 
</g>
<g style="fill:#000000; fill-opacity:1.000000; 
stroke:#000000; stroke-width:0.021200; stroke-opacity:1; 
stroke-linecap:round; stroke-linejoin:round;">
</g>
<g style="fill:#000000; fill-opacity:1.000000; 
stroke:#000000; stroke-width:0.000000; stroke-opacity:1; 
stroke-linecap:round; stroke-linejoin:round;">
<circle cx="81.196152" cy="69.928203" r="0.400000" /> 
</g>
<g style="fill:#000000; fill-opacity:1.000000; 
stroke:#000000; stroke-width:0.021200; stroke-opacity:1; 
stroke-linecap:round; stroke-linejoin:round;">
</g>
<g style="fill:#000000; fill-opacity:1.000000; 
stroke:#000000; stroke-width:0.000000; stroke-opacity:1; 
stroke-linecap:round; stroke-linejoin:round;">
<circle cx="83.928203" cy="50.803848" r="0.400000" /> 
</g>
<g style="fill:#000000; fill-opacity:1.000000; 
stroke:#000000; stroke-width:0.021200; stroke-opacity:1; 
stroke-linecap:round; stroke-linejoin:round;">
</g>
<g style="fill:#000000; fill-opacity:1.000000; 
stroke:#000000; stroke-width:0.000000; stroke-opacity:1; 
stroke-linecap:round; stroke-linejoin:round;">
<circle cx="72.000000" cy="66.000000" r="0.400000" /> 
</g>
<g style="fill:#000000; fill-opacity:1.000000; 
stroke:#000000; stroke-width:0.021200; stroke-opacity:1; 
stroke-linecap:round; stroke-linejoin:round;">
</g>
<g style="fill:#000000; fill-opacity:1.000000; 
stroke:#000000; stroke-width:0.000000; stroke-opacity:1; 
stroke-linecap:round; stroke-linejoin:round;">
<circle cx="86.400000" cy="67.700000" r="0.400000" /> 
</g>
<g style="fill:#000000; fill-opacity:1.000000; 
stroke:#000000; stroke-width:0.021200; stroke-opacity:1; 
stroke-linecap:round; stroke-linejoin:round;">
</g>
<g style="fill:#000000; fill-opacity:1.000000; 
stroke:#000000; stroke-width:0.000000; stroke-opacity:1; 
stroke-linecap:round; stroke-linejoin:round;">
<circle cx="70.803848" cy="56.071797" r="0.400000" /> 
</g>
<g style="fill:#000000; fill-opacity:1.000000; 
stroke:#000000; stroke-width:0.021200; stroke-opacity:1; 
stroke-linecap:round; stroke-linejoin:round;">
</g>
<g style="fill:#000000; fill-opacity:1.000000; 
stroke:#000000; stroke-width:0.000000; stroke-opacity:1; 
stroke-linecap:round; stroke-linejoin:round;">
<circle cx="88.000000" cy="54.000000" r="0.400000" /> 
</g>
<g style="fill:#000000; fill-opacity:1.000000; 
stroke:#000000; stroke-width:0.021200; stroke-opacity:1; 
stroke-linecap:round; stroke-linejoin:round;">
</g>
<g style="fill:#000000; fill-opacity:1.000000; 
stroke:#000000; stroke-width:0.000000; stroke-opacity:1; 
stroke-linecap:round; stroke-linejoin:round;">
<circle cx="88.500000" cy="66.000000" r="0.400000" /> 
</g>
<g style="fill:#000000; fill-opacity:1.000000; 
stroke:#000000; stroke-width:0.021200; stroke-opacity:1; 
stroke-linecap:round; stroke-linejoin:round;">
</g>
<g style="fill:#000000; fill-opacity:1.000000; 
stroke:#000000; stroke-width:0.000000; stroke-opacity:1; 
stroke-linecap:round; stroke-linejoin:round;">
<circle cx="78.803848" cy="50.071797" r="0.400000" /> 
</g>
<g style="fill:#000000; fill-opacity:1.000000; 
stroke:#000000; stroke-width:0.021200; stroke-opacity:1; 
stroke-linecap:round; stroke-linejoin:round;">
</g>
<g style="fill:#000000; fill-opacity:1.000000; 
stroke:#000000; stroke-width:0.000000; stroke-opacity:1; 
stroke-linecap:round; stroke-linejoin:round;">
<circle cx="90.600000" cy="61.400000" r="0.400000" /> 
</g>
<g style="fill:#000000; fill-opacity:1.000000; 
stroke:#000000; stroke-width:0.021200; stroke-opacity:1; 
stroke-linecap:round; stroke-linejoin:round;">
</g>
<g style="fill:#000000; fill-opacity:1.000000; 
stroke:#000000; stroke-width:0.000000; stroke-opacity:1; 
stroke-linecap:round; stroke-linejoin:round;">
<circle cx="85.100000" cy="70.600000" r="0.400000" /> 
</g>
<g style="fill:#000000; fill-opacity:1.000000; 
stroke:#000000; stroke-width:0.021200; stroke-opacity:1; 
stroke-linecap:round; stroke-linejoin:round;">
</g>
<g style="fill:#000000; fill-opacity:1.000000; 
stroke:#000000; stroke-width:0.000000; stroke-opacity:1; 
stroke-linecap:round; stroke-linejoin:round;">
<circle cx="91.400000" cy="61.400000" r="0.400000" /> 
</g>
<g style="fill:#000000; fill-opacity:1.000000; 
stroke:#000000; stroke-width:0.021200; stroke-opacity:1; 
stroke-linecap:round; stroke-linejoin:round;">
</g>
<g style="fill:#000000; fill-opacity:1.000000; 
stroke:#000000; stroke-width:0.000000; stroke-opacity:1; 
stroke-linecap:round; stroke-linejoin:round;">
<circle cx="91.400000" cy="64.900000" r="0.400000" /> 
</g>
<g style="fill:#000000; fill-opacity:1.000000; 
stroke:#000000; stroke-width:0.021200; stroke-opacity:1; 
stroke-linecap:round; stroke-linejoin:round;">
</g>
<g style="fill:#000000; fill-opacity:1.000000; 
stroke:#000000; stroke-width:0.000000; stroke-opacity:1; 
stroke-linecap:round; stroke-linejoin:round;">
<circle cx="90.700000" cy="64.900000" r="0.400000" /> 
</g>
<g style="fill:#000000; fill-opacity:1.000000; 
stroke:#000000; stroke-width:0.021200; stroke-opacity:1; 
stroke-linecap:round; stroke-linejoin:round;">
</g>
<g style="fill:#000000; fill-opacity:1.000000; 
stroke:#000000; stroke-width:0.000000; stroke-opacity:1; 
stroke-linecap:round; stroke-linejoin:round;">
<circle cx="88.600000" cy="70.600000" r="0.400000" /> 
</g>
<g style="fill:#000000; fill-opacity:1.000000; 
stroke:#000000; stroke-width:0.021200; stroke-opacity:1; 
stroke-linecap:round; stroke-linejoin:round;">
</g>
<g style="fill:#000000; fill-opacity:1.000000; 
stroke:#000000; stroke-width:0.000000; stroke-opacity:1; 
stroke-linecap:round; stroke-linejoin:round;">
<circle cx="88.600000" cy="71.400000" r="0.400000" /> 
</g>
<g style="fill:#000000; fill-opacity:1.000000; 
stroke:#000000; stroke-width:0.021200; stroke-opacity:1; 
stroke-linecap:round; stroke-linejoin:round;">
</g>
<g style="fill:#000000; fill-opacity:1.000000; 
stroke:#000000; stroke-width:0.000000; stroke-opacity:1; 
stroke-linecap:round; stroke-linejoin:round;">
<circle cx="85.100000" cy="71.400000" r="0.400000" /> 
</g>
<g style="fill:#000000; fill-opacity:1.000000; 
stroke:#000000; stroke-width:0.021200; stroke-opacity:1; 
stroke-linecap:round; stroke-linejoin:round;">
</g>
<g style="fill:#000000; fill-opacity:1.000000; 
stroke:#000000; stroke-width:0.000000; stroke-opacity:1; 
stroke-linecap:round; stroke-linejoin:round;">
<circle cx="87.910000" cy="61.820000" r="0.400000" /> 
</g>
<g style="fill:#000000; fill-opacity:1.000000; 
stroke:#000000; stroke-width:0.021200; stroke-opacity:1; 
stroke-linecap:round; stroke-linejoin:round;">
</g>
<g >
</g>
<g style="fill:#000000; fill-opacity:1.000000; 
stroke:#000000; stroke-width:0.021200; stroke-opacity:1; 
stroke-linecap:round; stroke-linejoin:round;">
</g>
<g style="fill:#000000; fill-opacity:1.000000; 
stroke:#000000; stroke-width:0.250000; stroke-opacity:1; 
stroke-linecap:round; stroke-linejoin:round;">
</g>
<g style="fill:#000000; fill-opacity:0.0; 
stroke:#000000; stroke-width:0.250000; stroke-opacity:1; 
stroke-linecap:round; stroke-linejoin:round;">
<path d="M88.550000 59.550000
L88.550000 55.805771
" />
<path d="M88.550000 55.805771
L88.408940 55.664711
" />
<path d="M89.450000 60.450000
L89.450000 61.547500
" />
<path d="M89.450000 61.547500
L89.317500 61.680000
" />
<path d="M87.179518 55.335289
L87.179518 54.105867
" />
<path d="M87.179518 54.105867
L85.114711 52.041060
" />
<path d="M83.885289 52.370482
L82.064807 50.550000
" />
<path d="M82.064807 50.550000
L80.450000 50.550000
" />
<path d="M79.550000 51.450000
L75.805771 51.450000
" />
<path d="M75.805771 51.450000
L75.664711 51.591060
" />
<path d="M74.105867 52.820482
L72.041060 54.885289
" />
<path d="M75.335289 52.820482
L74.105867 52.820482
" />
<path d="M70.550000 57.935193
L70.550000 59.550000
" />
<path d="M72.370482 56.114711
L70.550000 57.935193
" />
<path d="M87.629518 63.885289
L87.085289 63.885289
" />
<path d="M87.085289 63.885289
L86.800000 63.600000
" />
<path d="M80.774355 70.350000
L81.196152 69.928203
" />
<path d="M80.450000 69.450000
L80.717949 69.450000
" />
<path d="M74.472095 51.240387
L74.472095 51.527905
" />
<path d="M75.664711 68.789066
L76.071797 69.196152
" />
<path d="M69.650000 60.774355
L70.071797 61.196152
" />
<path d="M88.866250 65.633750
L88.500000 66.000000
" />
<path d="M85.114711 67.958940
L86.141060 67.958940
" />
<path d="M80.717949 69.450000
L81.196152 69.928203
" />
<path d="M76.042758 69.167113
L76.071797 69.196152
" />
<path d="M71.527905 65.527905
L72.000000 66.000000
" />
<path d="M71.591060 55.664711
L71.210934 55.664711
" />
<path d="M84.822095 50.832887
L83.957242 50.832887
" />
<path d="M70.550000 60.450000
L70.550000 60.717949
" />
<path d="M72.041060 65.958940
L72.000000 66.000000
" />
<path d="M70.832887 55.177905
L70.832887 56.042758
" />
<path d="M88.605446 65.062101
L88.896250 65.352905
" />
<path d="M79.282051 50.550000
L78.803848 50.071797
" />
<path d="M79.592500 49.650000
L79.225645 49.650000
" />
<path d="M87.958940 54.041060
L88.000000 54.000000
" />
<path d="M74.041060 52.041060
L74.000000 52.000000
" />
<path d="M74.885289 52.041060
L74.041060 52.041060
" />
<path d="M80.407500 70.350000
L80.774355 70.350000
" />
<path d="M72.041060 65.114711
L72.041060 65.958940
" />
<path d="M89.450000 59.282051
L89.928203 58.803848
" />
<path d="M84.335289 51.210934
L83.928203 50.803848
" />
<path d="M85.114711 68.346419
L85.527905 68.759613
" />
<path d="M90.350000 59.592500
L90.350000 59.225645
" />
<path d="M75.664711 68.408940
L75.664711 68.789066
" />
<path d="M79.550000 50.550000
L79.282051 50.550000
" />
<path d="M79.225645 49.650000
L78.803848 50.071797
" />
<path d="M69.650000 60.407500
L69.650000 60.774355
" />
<path d="M85.114711 67.958940
L85.114711 68.346419
" />
<path d="M88.408940 64.335289
L88.605446 64.531795
" />
<path d="M83.957242 50.832887
L83.928203 50.803848
" />
<path d="M88.866250 65.352905
L88.866250 65.633750
" />
<path d="M71.240387 65.527905
L71.527905 65.527905
" />
<path d="M87.958940 54.885289
L87.958940 54.041060
" />
<path d="M75.177905 69.167113
L76.042758 69.167113
" />
<path d="M88.605446 64.531795
L88.605446 65.062101
" />
<path d="M71.210934 55.664711
L70.803848 56.071797
" />
<path d="M90.350000 59.225645
L89.928203 58.803848
" />
<path d="M88.759613 54.472095
L88.472095 54.472095
" />
<path d="M89.450000 59.550000
L89.450000 59.282051
" />
<path d="M70.832887 56.042758
L70.803848 56.071797
" />
<path d="M74.472095 51.527905
L74.000000 52.000000
" />
<path d="M86.141060 67.958940
L86.400000 67.700000
" />
<path d="M70.550000 60.717949
L70.071797 61.196152
" />
<path d="M84.335289 51.591060
L84.335289 51.210934
" />
<path d="M88.472095 54.472095
L88.000000 54.000000
" />
<path d="M71.450000 60.450000
L71.450000 64.194229
" />
<path d="M71.450000 64.194229
L71.591060 64.335289
" />
<path d="M72.820482 65.894133
L74.885289 67.958940
" />
<path d="M72.820482 64.664711
L72.820482 65.894133
" />
<path d="M76.114711 67.629518
L77.935193 69.450000
" />
<path d="M77.935193 69.450000
L79.550000 69.450000
" />
<path d="M85.894133 67.179518
L87.958940 65.114711
" />
<path d="M84.664711 67.179518
L85.894133 67.179518
" />
<path d="M84.194229 68.550000
L84.335289 68.408940
" />
<path d="M80.450000 68.550000
L84.194229 68.550000
" />
<path d="M88.360000 61.680000
L88.050000 61.990000
" />
</g>
<g >
</g>
<g style="fill:#000000; fill-opacity:0.0; 
stroke:#000000; stroke-width:0.250000; stroke-opacity:1; 
stroke-linecap:round; stroke-linejoin:round;">
<g >
</g>
<g style="fill:#000000; fill-opacity:1.000000; 
stroke:#000000; stroke-width:0.000000; stroke-opacity:1; 
stroke-linecap:round; stroke-linejoin:round;">
<path style="fill:#000000; fill-opacity:1.000000; 
stroke:#000000; stroke-width:0.000000; stroke-opacity:1; 
stroke-linecap:round; stroke-linejoin:round;fill-rule:evenodd;"
d="M 94.002140,48.000687
94.045464,48.004477
94.173816,48.017119
94.189696,48.020008
94.257626,48.038209
94.259036,48.038612
94.353264,48.067196
94.366359,48.072207
94.435690,48.104536
94.438085,48.105733
94.522989,48.151115
94.528052,48.154225
94.595221,48.201258
94.598233,48.203543
94.632865,48.231964
94.671280,48.263491
94.674877,48.266751
94.733247,48.325121
94.736512,48.328723
94.796455,48.401765
94.798740,48.404777
94.845773,48.471946
94.848883,48.477009
94.894255,48.561893
94.895462,48.564308
94.927791,48.633639
94.932804,48.646739
94.961364,48.740887
94.961809,48.742445
94.979986,48.810282
94.982882,48.826202
94.995520,48.954525
94.999311,48.997843
94.999500,49.002161
94.999500,70.997837
94.999311,71.002155
94.995520,71.045473
94.982882,71.173796
94.979986,71.189716
94.961809,71.257553
94.961364,71.259111
94.932804,71.353259
94.927791,71.366359
94.895462,71.435690
94.894255,71.438105
94.848883,71.522989
94.845773,71.528052
94.798740,71.595221
94.796455,71.598233
94.736512,71.671275
94.733247,71.674877
94.674877,71.733247
94.671275,71.736512
94.598233,71.796455
94.595221,71.798740
94.528052,71.845773
94.522989,71.848883
94.438105,71.894255
94.435690,71.895462
94.366359,71.927791
94.353259,71.932804
94.259111,71.961364
94.257553,71.961809
94.189716,71.979986
94.173796,71.982882
94.045473,71.995520
94.002156,71.999311
93.997838,71.999500
69.002162,71.999500
68.997844,71.999311
68.954525,71.995520
68.826202,71.982882
68.810284,71.979986
68.773391,71.970101
68.742445,71.961809
68.740887,71.961364
68.646739,71.932804
68.633639,71.927791
68.564308,71.895462
68.561893,71.894255
68.477009,71.848883
68.471946,71.845773
68.404777,71.798740
68.401765,71.796455
68.328723,71.736512
68.325121,71.733247
68.266751,71.674877
68.263486,71.671275
68.203543,71.598233
68.201258,71.595221
68.154225,71.528052
68.151115,71.522989
68.105733,71.438085
68.104536,71.435690
68.072207,71.366359
68.067194,71.353259
68.038612,71.259036
68.038209,71.257626
68.020008,71.189696
68.017119,71.173816
68.004476,71.045447
68.003868,71.038495
68.000687,71.002140
68.000500,70.997840
68.000500,70.000004
68.644341,70.000004
68.664935,70.235400
68.664936,70.235407
68.664937,70.235408
68.697379,70.356485
68.726098,70.463667
68.825959,70.677818
68.825963,70.677826
68.946518,70.849998
68.961505,70.871401
69.128599,71.038495
69.128602,71.038497
69.128603,71.038498
69.192906,71.083523
69.322171,71.174035
69.322172,71.174035
69.322173,71.174036
69.322181,71.174040
69.536333,71.273901
69.536337,71.273903
69.764592,71.335063
69.764596,71.335063
69.764599,71.335064
69.941026,71.350500
69.941034,71.350500
70.058974,71.350500
70.235400,71.335064
70.235401,71.335063
70.235408,71.335063
70.463663,71.273903
70.677829,71.174035
70.871401,71.038495
71.038495,70.871401
71.174035,70.677830
71.256959,70.500000
78.977934,70.500000
78.989833,70.575142
78.989834,70.575145
79.047359,70.688044
79.136956,70.777641
79.249848,70.835163
79.249852,70.835164
79.343515,70.849999
79.442500,70.849999
79.442500,70.500001
79.442499,70.500000
78.977934,70.500000
71.256959,70.500000
71.273903,70.463663
71.335063,70.235408
71.348225,70.084969
71.355659,70.000004
71.355659,69.999995
71.335064,69.764599
71.335063,69.764596
71.335063,69.764592
71.273903,69.536337
71.273901,69.536332
71.174040,69.322181
71.174036,69.322173
71.173850,69.321908
71.066421,69.168481
71.038498,69.128603
71.038497,69.128602
71.038495,69.128599
70.871401,68.961505
70.871397,68.961502
70.871396,68.961501
70.677826,68.825963
70.677818,68.825959
70.578826,68.779798
73.830967,68.779798
73.863761,68.902189
73.863763,68.902192
73.932768,69.008450
74.006471,69.068134
74.006479,69.068140
74.092190,69.117624
74.267189,68.814517
73.864863,68.582234
73.837598,68.653260
73.837597,68.653267
73.830967,68.779792
73.830967,68.779798
70.578826,68.779798
70.463666,68.726098
70.463667,68.726098
70.348184,68.695155
70.235408,68.664937
70.235407,68.664936
70.235400,68.664935
70.058974,68.649500
70.058966,68.649500
69.941034,68.649500
69.941026,68.649500
69.764599,68.664935
69.536332,68.726098
69.322181,68.825959
69.322173,68.825963
69.128603,68.961501
68.961501,69.128603
68.825964,69.322171
68.726097,69.536337
68.664935,69.764599
68.644341,69.999995
68.644341,70.000004
68.000500,70.000004
68.000500,64.641407
70.234767,64.641407
70.241397,64.767932
70.241398,64.767936
70.275384,64.856470
70.275389,64.856481
70.324873,64.942189
70.324874,64.942189
70.627981,64.767190
70.395699,64.364865
70.336568,64.412749
70.267563,64.519007
70.267561,64.519010
70.234767,64.641401
70.234767,64.641407
68.000500,64.641407
68.000500,59.841485
69.150001,59.841485
69.164833,59.935141
69.164836,59.935151
69.222358,60.048043
69.222917,60.048602
69.223276,60.049306
69.226940,60.054350
69.226141,60.054930
69.250694,60.103119
69.251254,60.130012
69.249500,60.145135
69.249500,60.669860
69.249501,60.669863
69.252414,60.694990
69.264456,60.722261
69.297794,60.797765
69.307061,60.807032
69.334552,60.859841
69.339412,60.887400
69.340164,60.888703
69.350054,60.912579
69.350443,60.914034
69.350446,60.914039
69.371150,60.943608
69.373971,60.947636
69.376288,60.951273
69.391967,60.978429
69.396806,60.986810
69.428224,61.013173
69.431410,61.016092
69.448503,61.033184
69.476280,61.087701
69.476652,61.116109
69.466115,61.196150
69.466115,61.196152
69.486752,61.352910
69.486754,61.352918
69.547259,61.498990
69.547259,61.498991
69.574994,61.535136
69.643515,61.624434
69.768956,61.720688
69.915035,61.781196
70.032606,61.796674
70.071796,61.801834
70.071797,61.801834
70.071798,61.801834
70.103149,61.797706
70.228559,61.781196
70.374638,61.720688
70.500079,61.624434
70.596333,61.498993
70.656841,61.352914
70.677479,61.196152
70.666940,61.116107
70.678089,61.055949
70.695086,61.033188
70.768594,60.959680
70.771761,60.956778
70.803194,60.930404
70.803198,60.930395
70.807615,60.925134
70.859502,60.892709
70.864145,60.891669
70.878226,60.888868
70.878226,60.888867
70.878231,60.888867
70.944552,60.844552
70.944554,60.844547
70.944996,60.844253
71.003884,60.827644
71.055002,60.844254
71.080503,60.861294
71.118382,60.909344
71.124500,60.943608
71.124500,64.041916
71.105593,64.100107
71.090779,64.116345
71.087370,64.119334
71.087369,64.119335
71.069112,64.156358
71.026418,64.200185
70.966116,64.210546
70.954699,64.208198
70.853072,64.180967
70.853066,64.180967
70.726541,64.187597
70.726534,64.187598
70.655508,64.214863
70.887791,64.617191
70.988290,64.791262
71.001011,64.851111
70.976124,64.907006
70.952053,64.926499
70.474874,65.201998
70.524364,65.287717
70.584047,65.361420
70.690307,65.430426
70.691066,65.430630
70.691725,65.431058
70.697428,65.433597
70.697026,65.434499
70.742383,65.463950
70.756320,65.486968
70.762358,65.500933
70.762369,65.500956
71.024725,65.955366
71.039815,65.975673
71.120319,66.034542
71.130500,66.041987
71.239019,66.071065
71.305183,66.063904
71.365069,66.076440
71.406150,66.121783
71.413986,66.149402
71.414954,66.156757
71.414956,66.156762
71.475462,66.302838
71.475462,66.302839
71.475464,66.302841
71.571718,66.428282
71.697159,66.524536
71.697160,66.524536
71.697161,66.524537
71.748461,66.545786
71.843238,66.585044
71.960809,66.600522
71.999999,66.605682
72.000000,66.605682
72.000001,66.605682
72.031352,66.601554
72.156762,66.585044
72.302841,66.524536
72.428282,66.428282
72.524536,66.302841
72.539397,66.266962
72.579134,66.220436
72.638629,66.206152
72.695157,66.229567
72.700866,66.234843
74.335253,67.869230
74.363030,67.923747
74.358995,67.971055
74.341104,68.023759
74.341104,68.023765
74.343804,68.064953
74.328744,68.124256
74.281702,68.163381
74.270640,68.167056
74.169008,68.194288
74.169007,68.194289
74.062747,68.263295
74.062746,68.263295
74.014863,68.322424
74.591262,68.655208
74.632203,68.700678
74.638599,68.761528
74.627499,68.790445
74.528332,68.962209
74.351998,69.267623
74.437720,69.317115
74.526253,69.351101
74.526260,69.351103
74.652783,69.357733
74.652790,69.357732
74.653541,69.357531
74.654318,69.357571
74.660537,69.356918
74.660640,69.357902
74.714642,69.360727
74.738224,69.373695
74.750443,69.382776
74.786628,69.403667
75.204869,69.645137
75.204876,69.645140
75.204882,69.645143
75.228084,69.655176
75.228085,69.655176
75.228087,69.655177
75.339781,69.667265
75.448300,69.638187
75.502022,69.598901
75.560151,69.579816
75.618400,69.598544
75.638996,69.618546
75.643515,69.624434
75.643519,69.624437
75.643520,69.624438
75.644727,69.625364
75.768956,69.720688
75.768957,69.720688
75.768958,69.720689
75.907877,69.778231
75.915035,69.781196
76.015383,69.794407
76.071796,69.801834
76.071797,69.801834
76.071798,69.801834
76.103149,69.797706
76.228559,69.781196
76.374638,69.720688
76.500079,69.624434
76.596333,69.498993
76.656841,69.352914
76.677479,69.196152
76.656841,69.039390
76.640106,68.998987
76.596334,68.893313
76.596334,68.893312
76.500083,68.767875
76.500082,68.767874
76.500079,68.767870
76.500074,68.767866
76.500073,68.767865
76.405315,68.695155
76.374638,68.671616
76.374637,68.671615
76.374635,68.671614
76.228559,68.611108
76.228555,68.611106
76.226400,68.610823
76.224995,68.610152
76.222290,68.609428
76.222424,68.608926
76.171177,68.584479
76.141985,68.530707
76.149974,68.470045
76.153581,68.463190
76.189729,68.400581
76.198291,68.375357
76.234897,68.326333
76.293330,68.308187
76.351269,68.327853
76.362041,68.337175
77.693461,69.668596
77.696380,69.671782
77.722738,69.703194
77.758267,69.723707
77.761902,69.726022
77.795509,69.749554
77.796960,69.749942
77.820852,69.759840
77.822147,69.760588
77.831047,69.762157
77.862558,69.767713
77.866737,69.768638
77.906386,69.779263
77.947258,69.775687
77.951558,69.775500
79.044807,69.775500
79.102998,69.794407
79.138962,69.843907
79.138962,69.905093
79.114811,69.944504
79.047358,70.011956
78.989836,70.124848
78.989835,70.124852
78.977933,70.200000
79.643500,70.200000
79.701691,70.218907
79.737655,70.268407
79.742500,70.299000
79.742500,70.849998
79.742501,70.849999
79.841483,70.849999
79.841485,70.849998
79.935141,70.835166
79.935148,70.835164
80.048043,70.777641
80.048597,70.777088
80.049296,70.776731
80.054347,70.773062
80.054927,70.773861
80.103111,70.749306
80.130016,70.748746
80.145135,70.750500
80.669864,70.750499
80.694991,70.747585
80.797765,70.702206
80.807028,70.692942
80.859847,70.665446
80.887400,70.660588
80.888700,70.659838
80.912591,70.649942
80.912819,70.649880
80.914039,70.649554
80.947658,70.626012
80.951266,70.623714
80.986810,70.603194
81.013193,70.571750
81.016081,70.568598
81.033186,70.551493
81.087701,70.523718
81.116104,70.523346
81.196152,70.533885
81.352914,70.513247
81.498993,70.452739
81.624434,70.356485
81.720688,70.231044
81.781196,70.084965
81.801834,69.928203
81.781196,69.771441
81.775878,69.758602
81.720689,69.625364
81.720689,69.625363
81.704526,69.604299
84.364865,69.604299
84.412747,69.663430
84.519007,69.732436
84.519010,69.732438
84.641401,69.765232
84.641407,69.765232
84.767932,69.758602
84.767936,69.758601
84.856470,69.724615
84.856475,69.724613
84.942189,69.675125
84.767190,69.372017
84.364865,69.604299
81.704526,69.604299
81.624438,69.499926
81.624437,69.499925
81.624434,69.499921
81.624429,69.499917
81.624428,69.499916
81.498990,69.403665
81.352918,69.343160
81.352910,69.343158
81.196153,69.322521
81.196150,69.322521
81.116109,69.333058
81.055949,69.321908
81.033184,69.304909
80.959689,69.231413
80.956771,69.228229
80.930404,69.196806
80.925126,69.192377
80.892705,69.140487
80.891675,69.135889
80.888867,69.121769
80.844552,69.055448
80.844254,69.055002
80.827645,68.996114
80.844254,68.944998
80.861293,68.919498
80.909344,68.881619
80.943608,68.875500
84.041917,68.875500
84.100108,68.894407
84.116348,68.909225
84.119335,68.912630
84.156356,68.930886
84.200184,68.973580
84.210547,69.033881
84.208198,69.045299
84.180967,69.146925
84.180967,69.146933
84.187597,69.273458
84.187598,69.273463
84.214863,69.344489
84.791262,69.011708
84.851110,68.998987
84.907006,69.023874
84.926499,69.047945
85.201998,69.525124
85.287717,69.475635
85.361420,69.415952
85.430425,69.309693
85.430426,69.309692
85.430630,69.308933
85.431058,69.308273
85.433596,69.302573
85.434498,69.302974
85.463950,69.257616
85.486968,69.243679
85.500940,69.237639
85.512982,69.230687
85.844315,69.039390
85.955368,68.975273
85.975672,68.960186
86.041987,68.869500
86.071065,68.760981
86.058977,68.649287
86.048939,68.626070
86.040299,68.611106
85.977956,68.503125
85.937433,68.432939
85.924712,68.373092
85.949598,68.317197
86.002586,68.286604
86.023170,68.284440
86.124686,68.284440
86.128986,68.284627
86.169867,68.288204
86.186824,68.283659
86.238070,68.283659
86.243234,68.285042
86.243238,68.285044
86.347746,68.298802
86.399999,68.305682
86.400000,68.305682
86.400001,68.305682
86.431352,68.301554
86.556762,68.285044
86.702841,68.224536
86.828282,68.128282
86.924536,68.002841
86.985044,67.856762
87.005682,67.700000
87.001399,67.667471
87.000223,67.658534
86.985044,67.543238
86.928279,67.406196
86.924537,67.397161
86.924537,67.397160
86.828286,67.271723
86.828285,67.271722
86.828282,67.271718
86.828277,67.271714
86.828276,67.271713
86.734921,67.200080
86.702841,67.175464
86.596249,67.131312
86.549724,67.091575
86.535440,67.032081
86.558855,66.975553
86.564118,66.969857
87.742728,65.791247
87.797243,65.763472
87.857675,65.773043
87.900940,65.816308
87.910883,65.874175
87.894318,65.999999
87.894318,66.000000
87.914955,66.156758
87.914957,66.156766
87.975462,66.302838
87.975462,66.302839
87.975464,66.302841
88.071718,66.428282
88.197159,66.524536
88.197160,66.524536
88.197161,66.524537
88.248461,66.545786
88.343238,66.585044
88.460809,66.600522
88.499999,66.605682
88.500000,66.605682
88.500001,66.605682
88.531352,66.601554
88.656762,66.585044
88.802841,66.524536
88.928282,66.428282
89.024536,66.302841
89.085044,66.156762
89.105682,66.000000
89.095732,65.924426
89.106882,65.864267
89.118053,65.847862
89.119441,65.846206
89.119444,65.846205
89.139964,65.810661
89.142262,65.807053
89.165804,65.773434
89.166191,65.771986
89.176088,65.748095
89.176838,65.746795
89.179132,65.733785
89.183960,65.706400
89.184890,65.702202
89.195514,65.662557
89.194747,65.653795
89.192236,65.625088
89.205121,65.566961
89.344274,65.325941
89.350316,65.311967
89.390764,65.266061
89.415570,65.255630
89.416329,65.255426
89.416330,65.255425
89.522589,65.186420
89.522590,65.186420
89.582265,65.112728
89.582273,65.112716
89.631761,65.026998
89.154583,64.751499
89.113642,64.706029
89.107246,64.645179
89.118346,64.616262
89.132243,64.592191
89.478654,64.592191
89.781760,64.767190
89.831251,64.681470
89.865238,64.592936
89.865240,64.592929
89.871869,64.466407
89.871869,64.466401
89.839075,64.344010
89.839073,64.344007
89.770068,64.237749
89.710936,64.189864
89.478654,64.592190
89.478654,64.592191
89.132243,64.592191
89.218846,64.442191
89.451127,64.039863
89.380100,64.012598
89.380095,64.012597
89.253570,64.005967
89.253564,64.005967
89.131173,64.038761
89.131170,64.038763
89.018374,64.112014
89.016908,64.109757
88.972460,64.129533
88.912615,64.116797
88.896861,64.105505
88.867802,64.080021
88.827724,64.056882
88.400581,63.810271
88.400579,63.810270
88.400575,63.810268
88.344118,63.791104
88.344113,63.791103
88.263988,63.796356
88.204685,63.781295
88.168722,63.741353
88.168486,63.740874
88.168486,63.740873
88.133208,63.669335
88.088377,63.630019
87.621159,63.360271
87.621157,63.360270
87.621153,63.360268
87.564696,63.341104
87.564692,63.341104
87.505000,63.345016
87.485102,63.346321
87.485101,63.346321
87.485098,63.346322
87.463477,63.356984
87.402925,63.365761
87.348778,63.337271
87.328230,63.306077
87.324537,63.297162
87.324535,63.297157
87.228286,63.171723
87.228285,63.171722
87.228282,63.171718
87.228277,63.171714
87.228276,63.171713
87.102838,63.075462
86.956766,63.014957
86.956758,63.014955
86.800001,62.994318
86.799999,62.994318
86.643241,63.014955
86.643233,63.014957
86.497161,63.075462
86.497160,63.075462
86.371723,63.171713
86.371713,63.171723
86.275462,63.297160
86.275462,63.297161
86.214957,63.443233
86.214955,63.443241
86.194318,63.599999
86.194318,63.600000
86.214955,63.756758
86.214957,63.756766
86.275462,63.902838
86.275462,63.902839
86.359683,64.012598
86.371718,64.028282
86.371722,64.028285
86.371723,64.028286
86.385377,64.038763
86.497159,64.124536
86.497160,64.124536
86.497161,64.124537
86.533751,64.139693
86.643238,64.185044
86.696790,64.192094
86.752015,64.218435
86.775804,64.258420
87.298685,64.560306
87.339626,64.605776
87.346022,64.666626
87.334922,64.695543
87.244593,64.851999
87.034422,65.216022
87.034422,65.216023
87.152742,65.284335
87.193683,65.329805
87.200079,65.390655
87.173246,65.440075
85.788303,66.825021
85.733786,66.852799
85.718299,66.854018
85.054133,66.854018
84.995942,66.835111
84.968397,66.804518
84.919981,66.720659
84.880665,66.675828
84.809127,66.640550
84.782595,66.638810
84.729536,66.635333
84.729532,66.635333
84.673075,66.654497
84.205851,66.924248
84.177183,66.949389
84.161021,66.963564
84.161020,66.963564
84.153691,66.969993
84.152920,66.969114
84.110619,66.998185
84.056883,66.998888
84.000271,66.983719
83.888766,66.995786
83.888764,66.995787
83.865591,67.005806
83.740193,67.078204
83.940193,67.424614
84.040692,67.598685
84.053413,67.658534
84.028526,67.714429
84.004455,67.733921
83.483975,68.034420
83.483975,68.034421
83.507981,68.076000
83.520702,68.135848
83.495815,68.191744
83.442827,68.222337
83.422244,68.224500
80.943608,68.224500
80.885417,68.205593
80.861293,68.180502
80.844554,68.155451
80.844552,68.155448
80.844419,68.155359
80.778233,68.111134
80.778231,68.111133
80.778228,68.111132
80.778227,68.111132
80.719758,68.099501
80.719748,68.099500
80.180252,68.099500
80.180249,68.099500
80.112206,68.113035
80.111978,68.111890
80.060802,68.115913
80.013919,68.089655
79.972477,68.048213
79.869872,68.002909
79.844797,68.000000
79.700001,68.000000
79.700000,68.000001
79.700000,68.601000
79.681093,68.659191
79.631593,68.695155
79.601000,68.700000
79.000002,68.700000
79.000001,68.700001
79.000001,68.844791
79.002909,68.869874
79.051919,68.980870
79.049815,68.981798
79.063496,69.028242
79.042984,69.085886
78.992507,69.120466
78.964534,69.124500
78.111028,69.124500
78.052837,69.105593
78.041024,69.095504
77.365245,68.419725
77.345518,68.399998
79.000000,68.399998
79.000001,68.400000
79.399999,68.400000
79.400000,68.399999
79.400000,68.000001
79.399999,68.000000
79.255210,68.000000
79.255207,68.000001
79.230125,68.002909
79.127522,68.048213
79.048213,68.127522
79.002909,68.230127
79.000000,68.255202
79.000000,68.399998
77.345518,68.399998
76.664745,67.719226
76.636969,67.664710
76.641003,67.617403
76.658896,67.564695
76.655608,67.514536
83.239490,67.514536
83.251557,67.626040
83.251558,67.626042
83.261582,67.649226
83.333974,67.774612
83.333975,67.774612
83.680383,67.574613
83.480384,67.228204
83.354989,67.300602
83.334723,67.315662
83.268520,67.406194
83.268519,67.406196
83.239490,67.514534
83.239490,67.514536
76.655608,67.514536
76.653679,67.485102
76.618401,67.413564
76.573570,67.374248
76.106352,67.104500
76.106350,67.104499
76.106346,67.104497
76.040655,67.082199
76.041029,67.081094
75.994699,67.058989
75.967227,67.012808
75.952058,66.956197
75.885852,66.865661
75.885851,66.865660
75.865585,66.850600
75.865575,66.850594
75.740193,66.778204
75.740191,66.778204
75.439692,67.298684
75.394223,67.339625
75.333373,67.346021
75.304456,67.334921
75.153358,67.247685
74.783974,67.034422
74.715663,67.152743
74.670193,67.193684
74.609343,67.200080
74.559922,67.173247
74.161288,66.774613
74.933975,66.774613
75.280384,66.974612
75.480383,66.628204
75.354990,66.555808
75.331814,66.545787
75.331807,66.545786
75.220307,66.533719
75.220305,66.533719
75.111968,66.562748
75.021432,66.628954
75.021431,66.628955
75.006371,66.649221
75.006365,66.649231
74.933975,66.774612
74.933975,66.774613
74.161288,66.774613
73.174978,65.788302
73.147201,65.733785
73.145982,65.718298
73.145982,65.054133
73.164889,64.995942
73.195483,64.968396
73.279339,64.919982
73.279338,64.919982
73.279341,64.919981
73.324172,64.880665
73.359450,64.809127
73.364667,64.729534
73.353129,64.695543
73.345502,64.673075
73.345501,64.673073
73.345500,64.673070
73.075752,64.205852
73.036436,64.161021
73.036434,64.161020
73.030007,64.153691
73.030885,64.152920
73.001815,64.110625
73.001112,64.056882
73.016280,64.000275
73.016280,64.000270
73.004213,63.888766
73.004212,63.888764
72.994188,63.865580
72.921796,63.740193
72.921794,63.740193
72.533104,63.964603
72.533103,63.964604
72.401314,64.040692
72.341465,64.053413
72.285570,64.028526
72.266078,64.004455
71.965578,63.483975
71.965577,63.483975
71.924000,63.507980
71.864152,63.520702
71.808256,63.495816
71.777663,63.442828
71.775500,63.422244
71.775500,63.333975
72.225386,63.333975
72.425385,63.680383
72.771794,63.480384
72.771794,63.480383
72.699400,63.354993
72.684337,63.334723
72.593805,63.268520
72.593803,63.268519
72.485464,63.239490
72.373959,63.251557
72.373957,63.251558
72.350784,63.261577
72.225386,63.333975
71.775500,63.333975
71.775500,60.943608
71.794407,60.885417
71.819498,60.861293
71.824755,60.857780
71.844552,60.844552
71.888867,60.778231
71.900500,60.719748
71.900500,60.180252
71.896176,60.158516
71.886965,60.112207
71.888109,60.111979
71.884082,60.060816
71.910344,60.013920
71.924264,60.000000
73.894548,60.000000
73.914346,60.491285
73.914346,60.491291
73.914347,60.491297
73.914347,60.491306
73.973609,60.979365
73.973613,60.979392
74.071962,61.461136
74.071962,61.461137
74.208750,61.933386
74.208753,61.933395
74.280601,62.122841
74.383110,62.393133
74.398555,62.425682
74.592578,62.834579
74.593891,62.837345
74.839733,63.263155
74.889133,63.334723
75.119038,63.667800
75.429999,64.048659
75.770601,64.403263
75.770605,64.403267
76.043667,64.645179
76.138635,64.729313
76.138640,64.729317
76.531707,65.024688
76.687286,65.123070
76.947274,65.287477
76.947281,65.287480
76.947280,65.287480
76.947293,65.287488
77.327373,65.486968
77.382638,65.515973
77.834977,65.708697
78.028883,65.773432
78.301341,65.864392
78.301351,65.864395
78.301357,65.864397
78.778753,65.982065
79.264069,66.060936
79.754158,66.100500
79.754163,66.100500
80.245837,66.100500
80.245842,66.100500
80.735931,66.060936
81.221247,65.982065
81.698643,65.864397
82.165023,65.708697
82.617362,65.515973
82.979439,65.325941
83.052706,65.287488
83.052711,65.287484
83.052726,65.287477
83.468292,65.024688
83.794320,64.779694
86.533719,64.779694
86.562748,64.888031
86.628954,64.978567
86.628955,64.978568
86.649219,64.993627
86.774613,65.066023
86.974612,64.719614
86.628204,64.519615
86.555808,64.645009
86.545787,64.668185
86.545786,64.668192
86.533719,64.779692
86.533719,64.779694
83.794320,64.779694
83.861365,64.729313
84.229395,64.403267
84.569996,64.048664
84.880959,63.667803
85.160267,63.263155
85.406109,62.837345
85.616890,62.393133
85.791244,61.933401
85.791246,61.933395
85.791249,61.933386
85.928037,61.461137
85.928037,61.461136
85.928039,61.461130
86.026388,60.979383
86.042759,60.844554
86.054873,60.744791
88.000001,60.744791
88.002909,60.769874
88.048213,60.872477
88.127522,60.951786
88.230127,60.997090
88.255203,60.999999
88.399999,60.999999
88.399999,60.600000
88.000002,60.600000
88.000001,60.600001
88.000001,60.744791
86.054873,60.744791
86.085652,60.491306
86.085652,60.491301
86.085654,60.491285
86.105452,60.000000
86.085654,59.508715
86.085652,59.508698
86.085652,59.508693
86.026390,59.020634
86.026388,59.020617
85.928039,58.538870
85.928037,58.538862
85.791249,58.066613
85.791246,58.066604
85.773157,58.018910
85.616890,57.606867
85.406109,57.162655
85.160267,56.736845
85.010324,56.519615
87.228204,56.519615
87.300599,56.645006
87.315662,56.665276
87.406194,56.731479
87.406196,56.731480
87.514535,56.760509
87.626040,56.748442
87.626042,56.748441
87.649222,56.738419
87.774612,56.666024
87.574613,56.319615
87.228204,56.519614
87.228204,56.519615
85.010324,56.519615
84.996842,56.500083
84.880961,56.332199
84.570000,55.951340
84.229398,55.596736
84.197492,55.568470
83.924850,55.326930
83.861364,55.270686
83.861359,55.270682
83.468292,54.975311
83.112691,54.750443
83.052726,54.712523
83.052722,54.712520
83.052719,54.712519
83.052706,54.712511
82.617376,54.484034
82.617372,54.484032
82.617369,54.484030
82.617362,54.484027
82.165023,54.291303
82.165024,54.291303
82.165021,54.291302
81.698658,54.135607
81.698638,54.135601
81.247184,54.024328
81.221247,54.017935
80.735931,53.939064
80.735925,53.939063
80.461028,53.916871
80.245842,53.899500
79.754158,53.899500
79.556342,53.915469
79.264074,53.939063
78.778753,54.017935
78.301361,54.135601
78.301341,54.135607
77.834978,54.291302
77.676098,54.358995
77.382638,54.484027
77.382634,54.484028
77.382627,54.484032
77.382623,54.484034
76.947293,54.712511
76.947280,54.712519
76.531707,54.975311
76.138640,55.270682
76.138635,55.270686
75.770601,55.596736
75.429999,55.951340
75.119038,56.332199
74.839734,56.736843
74.593885,57.162666
74.383108,57.606872
74.208753,58.066604
74.208750,58.066613
74.071962,58.538862
74.071962,58.538863
73.973613,59.020607
73.973609,59.020634
73.914347,59.508693
73.914347,59.508702
73.914346,59.508709
73.914346,59.508715
73.894548,60.000000
71.924264,60.000000
71.951785,59.972478
71.997090,59.869872
71.999999,59.844797
72.000000,59.844795
72.000000,59.700001
71.999999,59.700000
71.399000,59.700000
71.340809,59.681093
71.304845,59.631593
71.300000,59.601000
71.300000,59.399999
71.600000,59.399999
71.600001,59.400000
71.999998,59.400000
71.999999,59.399998
71.999999,59.255209
71.999998,59.255208
71.997090,59.230125
71.951786,59.127522
71.872477,59.048213
71.769872,59.002909
71.744797,59.000000
71.600001,59.000000
71.600000,59.000001
71.600000,59.399999
71.300000,59.399999
71.300000,59.000001
71.299999,59.000000
71.155210,59.000000
71.155207,59.000001
71.130125,59.002909
71.019130,59.051919
71.018202,59.049817
70.971744,59.063495
70.914102,59.042975
70.879530,58.992493
70.875500,58.964533
70.875500,58.111027
70.894407,58.052836
70.904496,58.041023
71.338652,57.606867
72.280774,56.664744
72.335289,56.636969
72.382596,56.641003
72.435305,56.658896
72.514898,56.653679
72.586436,56.618401
72.625752,56.573570
72.895500,56.106352
72.914667,56.049888
72.914666,56.049887
72.917801,56.040655
72.918906,56.041030
72.941003,55.994706
72.987192,55.967227
73.043802,55.952058
73.134338,55.885852
73.134339,55.885851
73.149399,55.865585
73.149402,55.865581
73.221794,55.740192
73.221794,55.740191
72.701315,55.439692
72.660374,55.394223
72.653978,55.333373
72.665078,55.304456
72.678976,55.280384
73.025386,55.280384
73.371794,55.480383
73.371795,55.480383
73.444187,55.354997
73.444188,55.354996
73.454212,55.331814
73.454213,55.331807
73.466280,55.220307
73.466280,55.220305
73.437251,55.111968
73.371045,55.021432
73.371044,55.021431
73.350778,55.006371
73.350768,55.006365
73.225386,54.933975
73.225385,54.933975
73.025386,55.280384
72.678976,55.280384
72.765578,55.130385
72.965576,54.783975
72.847255,54.715663
72.806314,54.670193
72.799918,54.609343
72.826749,54.559924
74.014880,53.371794
84.519615,53.371794
84.645010,53.444191
84.668185,53.454212
84.668192,53.454213
84.779692,53.466280
84.779694,53.466280
84.888031,53.437251
84.978567,53.371045
84.978568,53.371044
84.993628,53.350778
84.993631,53.350774
85.066023,53.225385
84.719614,53.025386
84.519615,53.371794
74.014880,53.371794
74.211696,53.174978
74.266214,53.147201
74.281701,53.145982
74.945867,53.145982
75.004058,53.164889
75.031602,53.195481
75.046794,53.221794
75.080017,53.279339
75.080019,53.279341
75.119335,53.324172
75.190873,53.359450
75.270466,53.364667
75.326930,53.345500
75.794148,53.075752
75.830580,53.043802
75.846311,53.030007
75.847081,53.030885
75.889367,53.001818
75.943118,53.001112
75.999724,53.016280
75.999729,53.016280
76.111233,53.004213
76.111235,53.004212
76.134415,52.994190
76.259805,52.921795
76.020108,52.506626
76.020108,52.506625
75.973204,52.425385
76.319615,52.425385
76.519614,52.771794
76.645012,52.699395
76.665276,52.684337
76.731479,52.593805
76.731480,52.593803
76.760509,52.485465
76.760509,52.485463
76.748442,52.373959
76.748441,52.373957
76.738417,52.350773
76.666024,52.225386
76.319615,52.425385
75.973204,52.425385
75.959307,52.401314
75.946585,52.341466
75.971472,52.285570
75.995543,52.266077
76.516023,51.965577
76.492019,51.924000
76.479297,51.864152
76.504183,51.808256
76.557171,51.777663
76.577755,51.775500
79.056392,51.775500
79.114583,51.794407
79.138707,51.819498
79.154566,51.843233
79.155448,51.844552
79.221769,51.888867
79.260867,51.896644
79.280241,51.900498
79.280246,51.900498
79.280252,51.900500
79.280253,51.900500
79.819747,51.900500
79.819748,51.900500
79.878231,51.888867
79.878232,51.888865
79.887794,51.886964
79.888022,51.888111
79.939175,51.884080
79.986079,51.910343
80.027522,51.951786
80.130127,51.997090
80.155203,51.999999
80.300000,51.999999
80.300000,51.999997
80.600000,51.999997
80.600001,51.999999
80.744790,51.999999
80.744791,51.999998
80.769874,51.997090
80.872477,51.951786
80.951786,51.872477
80.997090,51.769872
80.999999,51.744797
81.000000,51.744795
81.000000,51.600001
80.999999,51.600000
80.600001,51.600000
80.600000,51.600001
80.600000,51.999997
80.300000,51.999997
80.300000,51.399000
80.318907,51.340809
80.368407,51.304845
80.399000,51.300000
80.999998,51.300000
80.999999,51.299999
80.999999,51.155209
80.999998,51.155208
80.997090,51.130125
80.948081,51.019130
80.950184,51.018201
80.936504,50.971758
80.957016,50.914114
81.007493,50.879534
81.035466,50.875500
81.888973,50.875500
81.947164,50.894407
81.958977,50.904496
83.335252,52.280772
83.363029,52.335289
83.358995,52.382596
83.341104,52.435304
83.341104,52.435305
83.346321,52.514898
83.381599,52.586436
83.426430,52.625752
83.893648,52.895500
83.893651,52.895501
83.893653,52.895502
83.959345,52.917801
83.958969,52.918906
84.005294,52.941004
84.032771,52.987190
84.047940,53.043800
84.047941,53.043802
84.114147,53.134338
84.114148,53.134339
84.134412,53.149398
84.259806,53.221794
84.560305,52.701314
84.605775,52.660373
84.666625,52.653977
84.695542,52.665077
85.216023,52.965576
85.284336,52.847256
85.329806,52.806315
85.390656,52.799919
85.440077,52.826752
86.825022,54.211697
86.852799,54.266214
86.854018,54.281701
86.854018,54.945866
86.835111,55.004057
86.804518,55.031602
86.720662,55.080016
86.675828,55.119335
86.640550,55.190872
86.640550,55.190874
86.635333,55.270463
86.635333,55.270467
86.654497,55.326924
86.654499,55.326928
86.654500,55.326930
86.909704,55.768957
86.924250,55.794151
86.969993,55.846311
86.969114,55.847081
86.998182,55.889370
86.998887,55.943114
86.983719,55.999723
86.983719,55.999729
86.995786,56.111233
86.995787,56.111235
87.005811,56.134419
87.078203,56.259805
87.078204,56.259805
87.441795,56.049888
87.598684,55.959307
87.658533,55.946585
87.714428,55.971471
87.733922,55.995543
88.034421,56.516023
88.076000,56.492018
88.135848,56.479297
88.191744,56.504184
88.222337,56.557172
88.224500,56.577755
88.224500,59.056392
88.205593,59.114583
88.180502,59.138707
88.155451,59.155445
88.155445,59.155451
88.111134,59.221766
88.111132,59.221772
88.099501,59.280241
88.099500,59.280253
88.099500,59.819746
88.099501,59.819758
88.113035,59.887793
88.111890,59.888020
88.115916,59.939188
88.089656,59.986078
88.048214,60.027520
88.002909,60.130127
88.000000,60.155202
88.000000,60.299999
88.000001,60.300000
88.601000,60.300000
88.659191,60.318907
88.695155,60.368407
88.700000,60.399000
88.700000,60.999998
88.700001,60.999999
88.844790,60.999999
88.844791,60.999998
88.869874,60.997090
88.980870,60.948081
88.981798,60.950184
89.028242,60.936504
89.085886,60.957016
89.120466,61.007493
89.124500,61.035466
89.124500,61.183274
89.105593,61.241465
89.056093,61.277429
89.036907,61.281615
89.030009,61.282415
88.949987,61.317748
88.889117,61.323956
88.870018,61.317750
88.789991,61.282415
88.789988,61.282414
88.764868,61.279500
88.240139,61.279500
88.240133,61.279501
88.214239,61.282504
88.164950,61.275627
88.066762,61.234956
88.066759,61.234955
88.066758,61.234955
87.910001,61.214318
87.909999,61.214318
87.753241,61.234955
87.753233,61.234957
87.607161,61.295462
87.607160,61.295462
87.481723,61.391713
87.481713,61.391723
87.385462,61.517160
87.385462,61.517161
87.324957,61.663233
87.324955,61.663241
87.304318,61.819999
87.304318,61.820000
87.324955,61.976758
87.324957,61.976766
87.385462,62.122838
87.385462,62.122839
87.385464,62.122841
87.481718,62.248282
87.607159,62.344536
87.753238,62.405044
87.870809,62.420522
87.909999,62.425682
87.910000,62.425682
87.910001,62.425682
87.941352,62.421554
88.066762,62.405044
88.212841,62.344536
88.338282,62.248282
88.434536,62.122841
88.434537,62.122839
88.437305,62.119232
88.487729,62.084576
88.515847,62.080499
88.764861,62.080499
88.764864,62.080499
88.789991,62.077585
88.870013,62.042251
88.930881,62.036044
88.949984,62.042250
89.030009,62.077585
89.055135,62.080500
89.579864,62.080499
89.604991,62.077585
89.707765,62.032206
89.787206,61.952765
89.832585,61.849991
89.835500,61.824865
89.835499,61.535136
89.832585,61.510009
89.787206,61.407235
89.787205,61.407234
89.783935,61.399828
89.775500,61.359840
89.775500,60.955193
89.794407,60.897002
89.843907,60.861038
89.905093,60.861038
89.944504,60.885189
90.011955,60.952640
90.124854,61.010165
90.124857,61.010166
90.199999,61.022066
90.500000,61.022066
90.575142,61.010166
90.575145,61.010165
90.688044,60.952640
90.777641,60.863043
90.835163,60.750151
90.835164,60.750147
90.850000,60.656484
90.850000,60.557501
90.849999,60.557500
90.500001,60.557500
90.500000,60.557501
90.500000,61.022066
90.199999,61.022066
90.200000,61.022065
90.200000,60.356500
90.218907,60.298309
90.268407,60.262345
90.299000,60.257500
90.849998,60.257500
90.849999,60.257499
90.849999,60.158516
90.849998,60.158514
90.835166,60.064858
90.835163,60.064848
90.777641,59.951956
90.777082,59.951397
90.776722,59.950690
90.773060,59.945650
90.773858,59.945070
90.749305,59.896880
90.748746,59.869981
90.748759,59.869872
90.750500,59.854865
90.750499,59.330136
90.747585,59.305009
90.702206,59.202235
90.692936,59.192965
90.665446,59.140153
90.660588,59.112599
90.659840,59.111304
90.649942,59.087412
90.649554,59.085961
90.649552,59.085958
90.649551,59.085956
90.626025,59.052357
90.623703,59.048713
90.623414,59.048213
90.603194,59.013190
90.603193,59.013188
90.575362,58.989836
90.571765,58.986818
90.568588,58.983906
90.551495,58.966814
90.523718,58.912297
90.523346,58.883894
90.533885,58.803848
90.513247,58.647086
90.469012,58.540294
90.452740,58.501009
90.452740,58.501008
90.356489,58.375571
90.356488,58.375570
90.356485,58.375566
90.356480,58.375562
90.356479,58.375561
90.231041,58.279310
90.084969,58.218805
90.084961,58.218803
89.928204,58.198166
89.928202,58.198166
89.771444,58.218803
89.771436,58.218805
89.625364,58.279310
89.625363,58.279310
89.499926,58.375561
89.499916,58.375571
89.403665,58.501008
89.403665,58.501009
89.343160,58.647081
89.343158,58.647089
89.322521,58.803847
89.322521,58.803848
89.333058,58.883888
89.321908,58.944049
89.304909,58.966814
89.231413,59.040310
89.228229,59.043227
89.196807,59.069593
89.192379,59.074871
89.140489,59.107292
89.135861,59.108329
89.121770,59.111132
89.055001,59.155746
88.996113,59.172354
88.945000,59.155746
88.919500,59.138708
88.881620,59.090659
88.875500,59.056392
88.875500,55.958083
88.894407,55.899892
88.909226,55.883650
88.912630,55.880665
88.930887,55.843641
88.973579,55.799815
89.033881,55.789452
89.045300,55.791801
89.146927,55.819032
89.146933,55.819032
89.273455,55.812403
89.273461,55.812401
89.344490,55.785134
89.025605,55.232808
89.372017,55.232808
89.604300,55.635134
89.663430,55.587252
89.732436,55.480992
89.732438,55.480989
89.765232,55.358598
89.765232,55.358592
89.758602,55.232067
89.758601,55.232063
89.724615,55.143529
89.724610,55.143518
89.675125,55.057809
89.372017,55.232808
89.025605,55.232808
89.011708,55.208737
88.998987,55.148889
89.023874,55.092993
89.047945,55.073500
89.222017,54.973000
89.525124,54.798000
89.475635,54.712282
89.415952,54.638579
89.309692,54.569573
89.309684,54.569569
89.308914,54.569363
89.308246,54.568929
89.302572,54.566403
89.302972,54.565503
89.257604,54.536033
89.243680,54.513032
89.237639,54.499060
89.237635,54.499053
89.237630,54.499043
88.975274,54.044633
88.970244,54.037864
88.960186,54.024328
88.960184,54.024327
88.960184,54.024326
88.869502,53.958014
88.869501,53.958013
88.869500,53.958013
88.760981,53.928935
88.760979,53.928935
88.760978,53.928935
88.694816,53.936095
88.634929,53.923558
88.593848,53.878215
88.586012,53.850591
88.585044,53.843241
88.585044,53.843238
88.552701,53.765156
88.524537,53.697161
88.524537,53.697160
88.428286,53.571723
88.428285,53.571722
88.428282,53.571718
88.428277,53.571714
88.428276,53.571713
88.302838,53.475462
88.156766,53.414957
88.156758,53.414955
88.000001,53.394318
87.999999,53.394318
87.843241,53.414955
87.843233,53.414957
87.697161,53.475462
87.697160,53.475462
87.571723,53.571713
87.571713,53.571723
87.475462,53.697160
87.475462,53.697161
87.460600,53.733040
87.420862,53.779565
87.361367,53.793847
87.304840,53.770431
87.299133,53.765156
85.664746,52.130769
85.636969,52.076252
85.641003,52.028945
85.658896,51.976237
85.656196,51.935045
85.671257,51.875743
85.718298,51.836618
85.729361,51.832943
85.830989,51.805712
85.830992,51.805710
85.937252,51.736704
85.985135,51.677573
85.408738,51.344790
85.367797,51.299321
85.361401,51.238471
85.372501,51.209554
85.386400,51.185481
85.732809,51.185481
86.135134,51.417764
86.162401,51.346735
86.162403,51.346729
86.169032,51.220207
86.169032,51.220201
86.136238,51.097810
86.136236,51.097807
86.067231,50.991549
85.993524,50.931862
85.907808,50.882374
85.732809,51.185481
85.386400,51.185481
85.473001,51.035483
85.647999,50.732375
85.647999,50.732374
85.562284,50.682886
85.473746,50.648898
85.473739,50.648896
85.347218,50.642267
85.347207,50.642268
85.346439,50.642474
85.345646,50.642432
85.339466,50.643082
85.339363,50.642102
85.285338,50.639264
85.261776,50.626305
85.249560,50.617226
85.249557,50.617224
85.249554,50.617222
84.957195,50.448430
84.795131,50.354863
84.795128,50.354862
84.795127,50.354861
84.795117,50.354856
84.771915,50.344823
84.771911,50.344822
84.660220,50.332735
84.660219,50.332735
84.551700,50.361813
84.551698,50.361813
84.551698,50.361814
84.497978,50.401097
84.439846,50.420183
84.381597,50.401454
84.361002,50.381453
84.356485,50.375566
84.356480,50.375562
84.356479,50.375561
84.285307,50.320949
84.231044,50.279312
84.231043,50.279311
84.231041,50.279310
84.084969,50.218805
84.084961,50.218803
83.928204,50.198166
83.928202,50.198166
83.771444,50.218803
83.771436,50.218805
83.625364,50.279310
83.625363,50.279310
83.499926,50.375561
83.499916,50.375571
83.403665,50.501008
83.403665,50.501009
83.343160,50.647081
83.343158,50.647089
83.322521,50.803847
83.322521,50.803848
83.343158,50.960606
83.343160,50.960614
83.403665,51.106686
83.403665,51.106687
83.499916,51.232124
83.499921,51.232130
83.499925,51.232133
83.499926,51.232134
83.529285,51.254661
83.625362,51.328384
83.625363,51.328384
83.625364,51.328385
83.771436,51.388890
83.771441,51.388892
83.773591,51.389175
83.774990,51.389842
83.777709,51.390571
83.777574,51.391074
83.828816,51.415515
83.858012,51.469286
83.850026,51.529948
83.846407,51.536826
83.810271,51.599416
83.801708,51.624644
83.765098,51.673668
83.706665,51.691812
83.648727,51.672143
83.637958,51.662824
82.306548,50.331414
82.303629,50.328229
82.277263,50.296806
82.246962,50.279312
82.241725,50.276288
82.238095,50.273975
82.204491,50.250446
82.204486,50.250443
82.203031,50.250054
82.179155,50.240164
82.177852,50.239411
82.137459,50.232289
82.133243,50.231354
82.097469,50.221769
82.093614,50.220736
82.093613,50.220736
82.089188,50.221123
82.052733,50.224312
82.048433,50.224500
80.955193,50.224500
80.897002,50.205593
80.861038,50.156093
80.861038,50.094907
80.885189,50.055496
80.940680,50.000004
88.644341,50.000004
88.664935,50.235400
88.664936,50.235407
88.664937,50.235408
88.698807,50.361813
88.726098,50.463667
88.825959,50.677818
88.825963,50.677826
88.950673,50.855932
88.961505,50.871401
89.128599,51.038495
89.128602,51.038497
89.128603,51.038498
89.152168,51.054998
89.322171,51.174035
89.322172,51.174035
89.322173,51.174036
89.322181,51.174040
89.536333,51.273901
89.536337,51.273903
89.764592,51.335063
89.764596,51.335063
89.764599,51.335064
89.941026,51.350500
89.941034,51.350500
90.058974,51.350500
90.235400,51.335064
90.235401,51.335063
90.235408,51.335063
90.463663,51.273903
90.677829,51.174035
90.871401,51.038495
91.038495,50.871401
91.174035,50.677830
91.273903,50.463663
91.335063,50.235408
91.335662,50.228563
91.355659,50.000004
91.355659,49.999995
91.335064,49.764599
91.335063,49.764596
91.335063,49.764592
91.273903,49.536337
91.256959,49.500000
91.174040,49.322181
91.174036,49.322173
91.166881,49.311955
91.038495,49.128599
90.871401,48.961505
90.871397,48.961502
90.871396,48.961501
90.678167,48.826202
90.677829,48.825965
90.677828,48.825964
90.677826,48.825963
90.677818,48.825959
90.463666,48.726098
90.463667,48.726098
90.387578,48.705710
90.235408,48.664937
90.235407,48.664936
90.235400,48.664935
90.058974,48.649500
90.058966,48.649500
89.941034,48.649500
89.941026,48.649500
89.764599,48.664935
89.536332,48.726098
89.322181,48.825959
89.322173,48.825963
89.128603,48.961501
88.961501,49.128603
88.825964,49.322171
88.726097,49.536337
88.664935,49.764599
88.644341,49.999995
88.644341,50.000004
80.940680,50.000004
80.952641,49.988043
81.010163,49.875151
81.010164,49.875147
81.022067,49.800000
80.356500,49.800000
80.298309,49.781093
80.262345,49.731593
80.257500,49.701000
80.257500,49.499999
80.557500,49.499999
80.557501,49.500000
81.022065,49.500000
81.022066,49.499999
81.010166,49.424857
81.010165,49.424854
80.952640,49.311955
80.863043,49.222358
80.750151,49.164836
80.750147,49.164835
80.656484,49.150000
80.557501,49.150000
80.557500,49.150001
80.557500,49.499999
80.257500,49.499999
80.257500,49.150000
80.158517,49.150000
80.158514,49.150001
80.064858,49.164833
80.064848,49.164836
79.951950,49.222361
79.951390,49.222922
79.950683,49.223281
79.945645,49.226942
79.945065,49.226143
79.896871,49.250695
79.869985,49.251254
79.864021,49.250562
79.854865,49.249500
79.854863,49.249500
79.330139,49.249500
79.330136,49.249501
79.305009,49.252414
79.202234,49.297794
79.202232,49.297795
79.192966,49.307062
79.140159,49.334551
79.112606,49.339410
79.112593,49.339414
79.111285,49.340170
79.087431,49.350051
79.085969,49.350442
79.085961,49.350446
79.052361,49.373972
79.048725,49.376288
79.040520,49.381025
79.013190,49.396805
78.986826,49.428224
78.983908,49.431408
78.966814,49.448503
78.912297,49.476280
78.883888,49.476652
78.803849,49.466115
78.803847,49.466115
78.647089,49.486752
78.647081,49.486754
78.501009,49.547259
78.501008,49.547259
78.375571,49.643510
78.375561,49.643520
78.279310,49.768957
78.279310,49.768958
78.218805,49.915030
78.218803,49.915038
78.198166,50.071796
78.198166,50.071797
78.218803,50.228555
78.218805,50.228563
78.279310,50.374635
78.279310,50.374636
78.375561,50.500073
78.375566,50.500079
78.375570,50.500082
78.375571,50.500083
78.376778,50.501009
78.501007,50.596333
78.501008,50.596333
78.501009,50.596334
78.627905,50.648896
78.647086,50.656841
78.803848,50.677479
78.883890,50.666940
78.944048,50.678089
78.966813,50.695089
79.040325,50.768601
79.043233,50.771776
79.069595,50.803193
79.074867,50.807617
79.107291,50.859505
79.108329,50.864138
79.111132,50.878229
79.111133,50.878232
79.155745,50.944997
79.172354,51.003885
79.155747,51.054998
79.138709,51.080499
79.090661,51.118380
79.056392,51.124500
75.958083,51.124500
75.899892,51.105593
75.883650,51.090774
75.880665,51.087370
75.843641,51.069112
75.799814,51.026418
75.789452,50.966117
75.791801,50.954698
75.819032,50.853070
75.819032,50.853066
75.812402,50.726541
75.785135,50.655508
75.208737,50.988291
75.148889,51.001012
75.092993,50.976125
75.073500,50.952054
74.798000,50.474874
74.712280,50.524366
74.638579,50.584047
74.569573,50.690307
74.569568,50.690317
74.569363,50.691085
74.568930,50.691750
74.566402,50.697430
74.565501,50.697029
74.536033,50.742395
74.513034,50.756319
74.499057,50.762362
74.499043,50.762369
74.044633,51.024725
74.024326,51.039815
73.958014,51.130497
73.958014,51.130498
73.958013,51.130500
73.933976,51.220207
73.928935,51.239020
73.928935,51.239021
73.936095,51.305183
73.923558,51.365070
73.878215,51.406151
73.850598,51.413986
73.843241,51.414954
73.843237,51.414956
73.697161,51.475462
73.697160,51.475462
73.571723,51.571713
73.571713,51.571723
73.475462,51.697160
73.475462,51.697161
73.414957,51.843233
73.414955,51.843241
73.394318,51.999999
73.414955,52.156758
73.414957,52.156766
73.475462,52.302838
73.475462,52.302839
73.569495,52.425385
73.571718,52.428282
73.571722,52.428285
73.571723,52.428286
73.658643,52.494982
73.697159,52.524536
73.733037,52.539397
73.779563,52.579132
73.793847,52.638627
73.770433,52.695155
73.765156,52.700865
72.130769,54.335252
72.076252,54.363029
72.028944,54.358995
72.002828,54.350130
71.976237,54.341104
71.976235,54.341104
71.976234,54.341104
71.948572,54.342917
71.935045,54.343803
71.875743,54.328743
71.836618,54.281702
71.832943,54.270639
71.805712,54.169010
71.805710,54.169007
71.736705,54.062749
71.677572,54.014864
71.344790,54.591261
71.299321,54.632202
71.238471,54.638598
71.209554,54.627498
71.058456,54.540262
70.732375,54.351999
70.732374,54.351999
70.682884,54.437720
70.682884,54.437721
70.648898,54.526253
70.648896,54.526260
70.642267,54.652782
70.642268,54.652793
70.642472,54.653554
70.642430,54.654339
70.643082,54.660535
70.642100,54.660638
70.639266,54.714656
70.626307,54.738220
70.617224,54.750443
70.354861,55.204872
70.354856,55.204882
70.344823,55.228084
70.344822,55.228088
70.332735,55.339779
70.332735,55.339781
70.361813,55.448300
70.361814,55.448301
70.361814,55.448302
70.401096,55.502020
70.420183,55.560152
70.401454,55.618401
70.381455,55.638995
70.375573,55.643508
70.375561,55.643520
70.279310,55.768957
70.279310,55.768958
70.218805,55.915030
70.218803,55.915038
70.198166,56.071796
70.198166,56.071797
70.218803,56.228555
70.218805,56.228563
70.279310,56.374635
70.279310,56.374636
70.375561,56.500073
70.375566,56.500079
70.501007,56.596333
70.501008,56.596333
70.501009,56.596334
70.599111,56.636969
70.647086,56.656841
70.764657,56.672319
70.803847,56.677479
70.803848,56.677479
70.803849,56.677479
70.835200,56.673351
70.960610,56.656841
71.106689,56.596333
71.232130,56.500079
71.328384,56.374638
71.388892,56.228559
71.389175,56.226407
71.389843,56.225006
71.390571,56.222291
71.391074,56.222425
71.415513,56.171184
71.469283,56.141987
71.529945,56.149970
71.536828,56.153592
71.599419,56.189729
71.599421,56.189730
71.624641,56.198291
71.673666,56.234899
71.691811,56.293332
71.672144,56.351271
71.662823,56.362041
70.331413,57.693451
70.328229,57.696369
70.296807,57.722735
70.296806,57.722737
70.276292,57.758268
70.273972,57.761909
70.250446,57.795509
70.250442,57.795517
70.250051,57.796979
70.240170,57.820833
70.239414,57.822141
70.239410,57.822153
70.232287,57.862542
70.231353,57.866757
70.220736,57.906380
70.220736,57.906386
70.224312,57.947265
70.224500,57.951566
70.224500,59.044807
70.205593,59.102998
70.156093,59.138962
70.094907,59.138962
70.055496,59.114811
69.988043,59.047358
69.875151,58.989836
69.875147,58.989835
69.800000,58.977932
69.800000,59.643500
69.781093,59.701691
69.731593,59.737655
69.701000,59.742500
69.150001,59.742500
69.150001,59.841485
68.000500,59.841485
68.000500,59.442498
69.150000,59.442498
69.150001,59.442500
69.499999,59.442500
69.500000,59.442499
69.500000,58.977932
69.424852,58.989835
69.424848,58.989836
69.311956,59.047358
69.222358,59.136956
69.164836,59.249848
69.164835,59.249852
69.150000,59.343515
69.150000,59.442498
68.000500,59.442498
68.000500,54.092190
70.882374,54.092190
71.185481,54.267189
71.417764,53.864863
71.346737,53.837598
71.346732,53.837597
71.220207,53.830967
71.220201,53.830967
71.097810,53.863761
71.097807,53.863763
70.991549,53.932768
70.931864,54.006473
70.882374,54.092190
68.000500,54.092190
68.000500,50.000004
68.644341,50.000004
68.664935,50.235400
68.664936,50.235407
68.664937,50.235408
68.698807,50.361813
68.726098,50.463667
68.825959,50.677818
68.825963,50.677826
68.950673,50.855932
68.961505,50.871401
69.128599,51.038495
69.128602,51.038497
69.128603,51.038498
69.152168,51.054998
69.322171,51.174035
69.322172,51.174035
69.322173,51.174036
69.322181,51.174040
69.536333,51.273901
69.536337,51.273903
69.764592,51.335063
69.764596,51.335063
69.764599,51.335064
69.941026,51.350500
69.941034,51.350500
70.058974,51.350500
70.235400,51.335064
70.235401,51.335063
70.235408,51.335063
70.463663,51.273903
70.677829,51.174035
70.871401,51.038495
71.038495,50.871401
71.174035,50.677830
71.273903,50.463663
71.311091,50.324874
75.057809,50.324874
75.232808,50.627981
75.635133,50.395698
75.587252,50.336569
75.480992,50.267563
75.480989,50.267561
75.358598,50.234767
75.358592,50.234767
75.232067,50.241397
75.232063,50.241398
75.143528,50.275384
75.057809,50.324873
75.057809,50.324874
71.311091,50.324874
71.335063,50.235408
71.335662,50.228563
71.355659,50.000004
71.355659,49.999995
71.335064,49.764599
71.335063,49.764596
71.335063,49.764592
71.273903,49.536337
71.256959,49.500000
71.174040,49.322181
71.174036,49.322173
71.166881,49.311955
71.038495,49.128599
70.871401,48.961505
70.871397,48.961502
70.871396,48.961501
70.678167,48.826202
70.677829,48.825965
70.677828,48.825964
70.677826,48.825963
70.677818,48.825959
70.463666,48.726098
70.463667,48.726098
70.387578,48.705710
70.235408,48.664937
70.235407,48.664936
70.235400,48.664935
70.058974,48.649500
70.058966,48.649500
69.941034,48.649500
69.941026,48.649500
69.764599,48.664935
69.536332,48.726098
69.322181,48.825959
69.322173,48.825963
69.128603,48.961501
68.961501,49.128603
68.825964,49.322171
68.726097,49.536337
68.664935,49.764599
68.644341,49.999995
68.644341,50.000004
68.000500,50.000004
68.000500,49.002158
68.000687,48.997860
68.004483,48.954465
68.017120,48.826179
68.020007,48.810307
68.038218,48.742342
68.038603,48.740995
68.067199,48.646725
68.072207,48.633639
68.099292,48.575555
68.104551,48.564276
68.105718,48.561943
68.151123,48.476994
68.154212,48.471965
68.201271,48.404759
68.203528,48.401784
68.263508,48.328698
68.266741,48.325131
68.325131,48.266741
68.328698,48.263508
68.401784,48.203528
68.404759,48.201271
68.471965,48.154212
68.476994,48.151123
68.561943,48.105718
68.564276,48.104551
68.633641,48.072205
68.646725,48.067199
68.740995,48.038603
68.742342,48.038218
68.810307,48.020007
68.826179,48.017120
68.954484,48.004482
68.997859,48.000687
69.002159,48.000500
93.997840,48.000500
Z" /> 
</g>
</g>
</g> 
</svg>
