<?xml version="1.0" standalone="no"?>
 <!DOCTYPE svg PUBLIC "-//W3C//DTD SVG 1.1//EN" 
 "http://www.w3.org/Graphics/SVG/1.1/DTD/svg11.dtd"> 
<svg
  xmlns:svg="http://www.w3.org/2000/svg"
  xmlns="http://www.w3.org/2000/svg"
  xmlns:xlink="http://www.w3.org/1999/xlink"
  version="1.1"
  width="3.8100000000000005cm" height="3.0100000000000002cm" viewBox="64.95 44.95 38.1 30.1">
<title>SVG Image created as pedalboard-led-ring-F_Cu.svg date 2023/05/26 10:47:20 </title>
  <desc>Image generated by PCBNEW </desc>
<g style="fill:#000000; fill-opacity:1.000000;stroke:#000000; stroke-opacity:1.000000;
stroke-linecap:round; stroke-linejoin:round;"
 transform="translate(0 0) scale(1 1)">
</g>
<g style="fill:#000000; fill-opacity:0.0; 
stroke:#000000; stroke-width:0.000000; stroke-opacity:1; 
stroke-linecap:round; stroke-linejoin:round;">
<g >
</g>
<g style="fill:#000000; fill-opacity:0.0; 
stroke:#000000; stroke-width:0.000000; stroke-opacity:1; 
stroke-linecap:round; stroke-linejoin:round;">
</g>
<g style="fill:#000000; fill-opacity:1.000000; 
stroke:#000000; stroke-width:0.000000; stroke-opacity:1; 
stroke-linecap:round; stroke-linejoin:round;">
<path style="fill:#000000; fill-opacity:1.000000; 
stroke:#000000; stroke-width:0.000000; stroke-opacity:1; 
stroke-linecap:round; stroke-linejoin:round;fill-rule:evenodd;"
d="M 87.819890,54.716439
88.469410,54.341439
88.884410,55.060241
88.234890,55.435241
Z" /> 
<path style="fill:#000000; fill-opacity:1.000000; 
stroke:#000000; stroke-width:0.000000; stroke-opacity:1; 
stroke-linecap:round; stroke-linejoin:round;fill-rule:evenodd;"
d="M 87.230994,55.056439
87.664006,54.806439
88.079006,55.525241
87.645994,55.775241
Z" /> 
<path style="fill:#000000; fill-opacity:1.000000; 
stroke:#000000; stroke-width:0.000000; stroke-opacity:1; 
stroke-linecap:round; stroke-linejoin:round;fill-rule:evenodd;"
d="M 86.425590,55.521439
87.075110,55.146439
87.490110,55.865241
86.840590,56.240241
Z" /> 
<path style="fill:#000000; fill-opacity:1.000000; 
stroke:#000000; stroke-width:0.000000; stroke-opacity:1; 
stroke-linecap:round; stroke-linejoin:round;fill-rule:evenodd;"
d="M 87.215590,56.889759
87.865110,56.514759
88.280110,57.233561
87.630590,57.608561
Z" /> 
<path style="fill:#000000; fill-opacity:1.000000; 
stroke:#000000; stroke-width:0.000000; stroke-opacity:1; 
stroke-linecap:round; stroke-linejoin:round;fill-rule:evenodd;"
d="M 88.020994,56.424759
88.454006,56.174759
88.869006,56.893561
88.435994,57.143561
Z" /> 
<path style="fill:#000000; fill-opacity:1.000000; 
stroke:#000000; stroke-width:0.000000; stroke-opacity:1; 
stroke-linecap:round; stroke-linejoin:round;fill-rule:evenodd;"
d="M 88.609890,56.084759
89.259410,55.709759
89.674410,56.428561
89.024890,56.803561
Z" /> 
</g>
<g >
</g>
<g style="fill:#000000; fill-opacity:1.000000; 
stroke:#000000; stroke-width:0.000000; stroke-opacity:1; 
stroke-linecap:round; stroke-linejoin:round;">
<path style="fill:#000000; fill-opacity:1.000000; 
stroke:#000000; stroke-width:0.000000; stroke-opacity:1; 
stroke-linecap:round; stroke-linejoin:round;fill-rule:evenodd;"
d="M 81.205000,69.430000
81.205000,70.180000
80.375000,70.180000
80.375000,69.430000
Z" /> 
<path style="fill:#000000; fill-opacity:1.000000; 
stroke:#000000; stroke-width:0.000000; stroke-opacity:1; 
stroke-linecap:round; stroke-linejoin:round;fill-rule:evenodd;"
d="M 81.205000,68.750000
81.205000,69.250000
80.375000,69.250000
80.375000,68.750000
Z" /> 
<path style="fill:#000000; fill-opacity:1.000000; 
stroke:#000000; stroke-width:0.000000; stroke-opacity:1; 
stroke-linecap:round; stroke-linejoin:round;fill-rule:evenodd;"
d="M 81.205000,67.820000
81.205000,68.570000
80.375000,68.570000
80.375000,67.820000
Z" /> 
<path style="fill:#000000; fill-opacity:1.000000; 
stroke:#000000; stroke-width:0.000000; stroke-opacity:1; 
stroke-linecap:round; stroke-linejoin:round;fill-rule:evenodd;"
d="M 79.625000,67.820000
79.625000,68.570000
78.795000,68.570000
78.795000,67.820000
Z" /> 
<path style="fill:#000000; fill-opacity:1.000000; 
stroke:#000000; stroke-width:0.000000; stroke-opacity:1; 
stroke-linecap:round; stroke-linejoin:round;fill-rule:evenodd;"
d="M 79.625000,68.750000
79.625000,69.250000
78.795000,69.250000
78.795000,68.750000
Z" /> 
<path style="fill:#000000; fill-opacity:1.000000; 
stroke:#000000; stroke-width:0.000000; stroke-opacity:1; 
stroke-linecap:round; stroke-linejoin:round;fill-rule:evenodd;"
d="M 79.625000,69.430000
79.625000,70.180000
78.795000,70.180000
78.795000,69.430000
Z" /> 
</g>
<g >
</g>
<g style="fill:#000000; fill-opacity:1.000000; 
stroke:#000000; stroke-width:0.000000; stroke-opacity:1; 
stroke-linecap:round; stroke-linejoin:round;">
<path style="fill:#000000; fill-opacity:1.000000; 
stroke:#000000; stroke-width:0.000000; stroke-opacity:1; 
stroke-linecap:round; stroke-linejoin:round;fill-rule:evenodd;"
d="M 78.795000,50.570000
78.795000,49.820000
79.625000,49.820000
79.625000,50.570000
Z" /> 
<path style="fill:#000000; fill-opacity:1.000000; 
stroke:#000000; stroke-width:0.000000; stroke-opacity:1; 
stroke-linecap:round; stroke-linejoin:round;fill-rule:evenodd;"
d="M 78.795000,51.250000
78.795000,50.750000
79.625000,50.750000
79.625000,51.250000
Z" /> 
<path style="fill:#000000; fill-opacity:1.000000; 
stroke:#000000; stroke-width:0.000000; stroke-opacity:1; 
stroke-linecap:round; stroke-linejoin:round;fill-rule:evenodd;"
d="M 78.795000,52.180000
78.795000,51.430000
79.625000,51.430000
79.625000,52.180000
Z" /> 
<path style="fill:#000000; fill-opacity:1.000000; 
stroke:#000000; stroke-width:0.000000; stroke-opacity:1; 
stroke-linecap:round; stroke-linejoin:round;fill-rule:evenodd;"
d="M 80.375000,52.180000
80.375000,51.430000
81.205000,51.430000
81.205000,52.180000
Z" /> 
<path style="fill:#000000; fill-opacity:1.000000; 
stroke:#000000; stroke-width:0.000000; stroke-opacity:1; 
stroke-linecap:round; stroke-linejoin:round;fill-rule:evenodd;"
d="M 80.375000,51.250000
80.375000,50.750000
81.205000,50.750000
81.205000,51.250000
Z" /> 
<path style="fill:#000000; fill-opacity:1.000000; 
stroke:#000000; stroke-width:0.000000; stroke-opacity:1; 
stroke-linecap:round; stroke-linejoin:round;fill-rule:evenodd;"
d="M 80.375000,50.570000
80.375000,49.820000
81.205000,49.820000
81.205000,50.570000
Z" /> 
</g>
<g >
</g>
<g style="fill:#000000; fill-opacity:1.000000; 
stroke:#000000; stroke-width:0.000000; stroke-opacity:1; 
stroke-linecap:round; stroke-linejoin:round;">
<path style="fill:#000000; fill-opacity:1.000000; 
stroke:#000000; stroke-width:0.000000; stroke-opacity:1; 
stroke-linecap:round; stroke-linejoin:round;fill-rule:evenodd;"
d="M 72.180110,65.283561
71.530590,65.658561
71.115590,64.939759
71.765110,64.564759
Z" /> 
<path style="fill:#000000; fill-opacity:1.000000; 
stroke:#000000; stroke-width:0.000000; stroke-opacity:1; 
stroke-linecap:round; stroke-linejoin:round;fill-rule:evenodd;"
d="M 72.769006,64.943561
72.335994,65.193561
71.920994,64.474759
72.354006,64.224759
Z" /> 
<path style="fill:#000000; fill-opacity:1.000000; 
stroke:#000000; stroke-width:0.000000; stroke-opacity:1; 
stroke-linecap:round; stroke-linejoin:round;fill-rule:evenodd;"
d="M 73.574410,64.478561
72.924890,64.853561
72.509890,64.134759
73.159410,63.759759
Z" /> 
<path style="fill:#000000; fill-opacity:1.000000; 
stroke:#000000; stroke-width:0.000000; stroke-opacity:1; 
stroke-linecap:round; stroke-linejoin:round;fill-rule:evenodd;"
d="M 72.784410,63.110241
72.134890,63.485241
71.719890,62.766439
72.369410,62.391439
Z" /> 
<path style="fill:#000000; fill-opacity:1.000000; 
stroke:#000000; stroke-width:0.000000; stroke-opacity:1; 
stroke-linecap:round; stroke-linejoin:round;fill-rule:evenodd;"
d="M 71.979006,63.575241
71.545994,63.825241
71.130994,63.106439
71.564006,62.856439
Z" /> 
<path style="fill:#000000; fill-opacity:1.000000; 
stroke:#000000; stroke-width:0.000000; stroke-opacity:1; 
stroke-linecap:round; stroke-linejoin:round;fill-rule:evenodd;"
d="M 71.390110,63.915241
70.740590,64.290241
70.325590,63.571439
70.975110,63.196439
Z" /> 
</g>
<g >
</g>
<g style="fill:#000000; fill-opacity:1.000000; 
stroke:#000000; stroke-width:0.000000; stroke-opacity:1; 
stroke-linecap:round; stroke-linejoin:round;">
<path style="fill:#000000; fill-opacity:1.000000; 
stroke:#000000; stroke-width:0.000000; stroke-opacity:1; 
stroke-linecap:round; stroke-linejoin:round;fill-rule:evenodd;"
d="M 70.975110,56.803561
70.325590,56.428561
70.740590,55.709759
71.390110,56.084759
Z" /> 
<path style="fill:#000000; fill-opacity:1.000000; 
stroke:#000000; stroke-width:0.000000; stroke-opacity:1; 
stroke-linecap:round; stroke-linejoin:round;fill-rule:evenodd;"
d="M 71.564006,57.143561
71.130994,56.893561
71.545994,56.174759
71.979006,56.424759
Z" /> 
<path style="fill:#000000; fill-opacity:1.000000; 
stroke:#000000; stroke-width:0.000000; stroke-opacity:1; 
stroke-linecap:round; stroke-linejoin:round;fill-rule:evenodd;"
d="M 72.369410,57.608561
71.719890,57.233561
72.134890,56.514759
72.784410,56.889759
Z" /> 
<path style="fill:#000000; fill-opacity:1.000000; 
stroke:#000000; stroke-width:0.000000; stroke-opacity:1; 
stroke-linecap:round; stroke-linejoin:round;fill-rule:evenodd;"
d="M 73.159410,56.240241
72.509890,55.865241
72.924890,55.146439
73.574410,55.521439
Z" /> 
<path style="fill:#000000; fill-opacity:1.000000; 
stroke:#000000; stroke-width:0.000000; stroke-opacity:1; 
stroke-linecap:round; stroke-linejoin:round;fill-rule:evenodd;"
d="M 72.354006,55.775241
71.920994,55.525241
72.335994,54.806439
72.769006,55.056439
Z" /> 
<path style="fill:#000000; fill-opacity:1.000000; 
stroke:#000000; stroke-width:0.000000; stroke-opacity:1; 
stroke-linecap:round; stroke-linejoin:round;fill-rule:evenodd;"
d="M 71.765110,55.435241
71.115590,55.060241
71.530590,54.341439
72.180110,54.716439
Z" /> 
</g>
<g >
</g>
<g style="fill:#000000; fill-opacity:1.000000; 
stroke:#000000; stroke-width:0.000000; stroke-opacity:1; 
stroke-linecap:round; stroke-linejoin:round;">
<path style="fill:#000000; fill-opacity:1.000000; 
stroke:#000000; stroke-width:0.000000; stroke-opacity:1; 
stroke-linecap:round; stroke-linejoin:round;fill-rule:evenodd;"
d="M 89.024890,63.196439
89.674410,63.571439
89.259410,64.290241
88.609890,63.915241
Z" /> 
<path style="fill:#000000; fill-opacity:1.000000; 
stroke:#000000; stroke-width:0.000000; stroke-opacity:1; 
stroke-linecap:round; stroke-linejoin:round;fill-rule:evenodd;"
d="M 88.435994,62.856439
88.869006,63.106439
88.454006,63.825241
88.020994,63.575241
Z" /> 
<path style="fill:#000000; fill-opacity:1.000000; 
stroke:#000000; stroke-width:0.000000; stroke-opacity:1; 
stroke-linecap:round; stroke-linejoin:round;fill-rule:evenodd;"
d="M 87.630590,62.391439
88.280110,62.766439
87.865110,63.485241
87.215590,63.110241
Z" /> 
<path style="fill:#000000; fill-opacity:1.000000; 
stroke:#000000; stroke-width:0.000000; stroke-opacity:1; 
stroke-linecap:round; stroke-linejoin:round;fill-rule:evenodd;"
d="M 86.840590,63.759759
87.490110,64.134759
87.075110,64.853561
86.425590,64.478561
Z" /> 
<path style="fill:#000000; fill-opacity:1.000000; 
stroke:#000000; stroke-width:0.000000; stroke-opacity:1; 
stroke-linecap:round; stroke-linejoin:round;fill-rule:evenodd;"
d="M 87.645994,64.224759
88.079006,64.474759
87.664006,65.193561
87.230994,64.943561
Z" /> 
<path style="fill:#000000; fill-opacity:1.000000; 
stroke:#000000; stroke-width:0.000000; stroke-opacity:1; 
stroke-linecap:round; stroke-linejoin:round;fill-rule:evenodd;"
d="M 88.234890,64.564759
88.884410,64.939759
88.469410,65.658561
87.819890,65.283561
Z" /> 
</g>
<g >
</g>
<g >
</g>
<g >
</g>
<g >
</g>
<g >
</g>
<g >
</g>
<g >
</g>
<g >
</g>
<g >
</g>
<g >
</g>
<g >
</g>
<g style="fill:#000000; fill-opacity:1.000000; 
stroke:#000000; stroke-width:0.000000; stroke-opacity:1; 
stroke-linecap:round; stroke-linejoin:round;">
<circle cx="89.500000" cy="61.400000" r="0.400000" /> 
</g>
<g style="fill:#000000; fill-opacity:1.000000; 
stroke:#000000; stroke-width:0.021200; stroke-opacity:1; 
stroke-linecap:round; stroke-linejoin:round;">
</g>
<g style="fill:#000000; fill-opacity:1.000000; 
stroke:#000000; stroke-width:0.000000; stroke-opacity:1; 
stroke-linecap:round; stroke-linejoin:round;">
<circle cx="90.500000" cy="61.400000" r="0.400000" /> 
</g>
<g style="fill:#000000; fill-opacity:1.000000; 
stroke:#000000; stroke-width:0.021200; stroke-opacity:1; 
stroke-linecap:round; stroke-linejoin:round;">
</g>
<g style="fill:#000000; fill-opacity:1.000000; 
stroke:#000000; stroke-width:0.000000; stroke-opacity:1; 
stroke-linecap:round; stroke-linejoin:round;">
<circle cx="82.700000" cy="71.100000" r="0.400000" /> 
</g>
<g style="fill:#000000; fill-opacity:1.000000; 
stroke:#000000; stroke-width:0.021200; stroke-opacity:1; 
stroke-linecap:round; stroke-linejoin:round;">
</g>
<g style="fill:#000000; fill-opacity:1.000000; 
stroke:#000000; stroke-width:0.000000; stroke-opacity:1; 
stroke-linecap:round; stroke-linejoin:round;">
<circle cx="98.140000" cy="72.540000" r="0.400000" /> 
</g>
<g style="fill:#000000; fill-opacity:1.000000; 
stroke:#000000; stroke-width:0.021200; stroke-opacity:1; 
stroke-linecap:round; stroke-linejoin:round;">
</g>
<g style="fill:#000000; fill-opacity:1.000000; 
stroke:#000000; stroke-width:0.000000; stroke-opacity:1; 
stroke-linecap:round; stroke-linejoin:round;">
<circle cx="99.200000" cy="55.200000" r="0.400000" /> 
</g>
<g style="fill:#000000; fill-opacity:1.000000; 
stroke:#000000; stroke-width:0.021200; stroke-opacity:1; 
stroke-linecap:round; stroke-linejoin:round;">
</g>
<g style="fill:#000000; fill-opacity:1.000000; 
stroke:#000000; stroke-width:0.000000; stroke-opacity:1; 
stroke-linecap:round; stroke-linejoin:round;">
<circle cx="92.400000" cy="55.500000" r="0.400000" /> 
</g>
<g style="fill:#000000; fill-opacity:1.000000; 
stroke:#000000; stroke-width:0.021200; stroke-opacity:1; 
stroke-linecap:round; stroke-linejoin:round;">
</g>
<g style="fill:#000000; fill-opacity:1.000000; 
stroke:#000000; stroke-width:0.000000; stroke-opacity:1; 
stroke-linecap:round; stroke-linejoin:round;">
<circle cx="90.800000" cy="53.400000" r="0.400000" /> 
</g>
<g style="fill:#000000; fill-opacity:1.000000; 
stroke:#000000; stroke-width:0.021200; stroke-opacity:1; 
stroke-linecap:round; stroke-linejoin:round;">
</g>
<g style="fill:#000000; fill-opacity:1.000000; 
stroke:#000000; stroke-width:0.000000; stroke-opacity:1; 
stroke-linecap:round; stroke-linejoin:round;">
<circle cx="90.800000" cy="52.200000" r="0.400000" /> 
</g>
<g style="fill:#000000; fill-opacity:1.000000; 
stroke:#000000; stroke-width:0.021200; stroke-opacity:1; 
stroke-linecap:round; stroke-linejoin:round;">
</g>
<g >
</g>
<g style="fill:#000000; fill-opacity:1.000000; 
stroke:#000000; stroke-width:0.021200; stroke-opacity:1; 
stroke-linecap:round; stroke-linejoin:round;">
</g>
<g style="fill:#000000; fill-opacity:1.000000; 
stroke:#000000; stroke-width:0.250000; stroke-opacity:1; 
stroke-linecap:round; stroke-linejoin:round;">
</g>
<g style="fill:#000000; fill-opacity:0.0; 
stroke:#000000; stroke-width:0.250000; stroke-opacity:1; 
stroke-linecap:round; stroke-linejoin:round;">
<path d="M83.105000 68.195000
L80.790000 68.195000
" />
<path d="M86.957850 64.306660
L86.957850 64.342150
" />
<path d="M86.957850 64.342150
L83.105000 68.195000
" />
<path d="M87.655000 64.745000
L83.400000 69.000000
" />
<path d="M87.655000 64.709160
L87.655000 64.745000
" />
<path d="M83.400000 69.000000
L80.790000 69.000000
" />
<path d="M88.352150 65.111660
L83.658810 69.805000
" />
<path d="M83.658810 69.805000
L80.790000 69.805000
" />
<path d="M76.795000 68.195000
L73.042150 64.442150
" />
<path d="M79.210000 68.195000
L76.795000 68.195000
" />
<path d="M73.042150 64.442150
L73.042150 64.306660
" />
<path d="M76.500000 69.000000
L72.345000 64.845000
" />
<path d="M72.345000 64.845000
L72.345000 64.709160
" />
<path d="M79.210000 69.000000
L76.500000 69.000000
" />
<path d="M79.210000 69.805000
L76.341190 69.805000
" />
<path d="M76.341190 69.805000
L71.647850 65.111660
" />
<path d="M72.252150 62.938340
L72.100000 62.786190
" />
<path d="M72.100000 57.213810
L72.252150 57.061660
" />
<path d="M72.100000 62.786190
L72.100000 57.213810
" />
<path d="M71.300000 63.085840
L71.300000 56.914160
" />
<path d="M71.555000 63.340840
L71.300000 63.085840
" />
<path d="M71.300000 56.914160
L71.555000 56.659160
" />
<path d="M70.857850 63.743340
L70.600000 63.485490
" />
<path d="M70.600000 63.485490
L70.600000 56.514510
" />
<path d="M70.600000 56.514510
L70.857850 56.256660
" />
<path d="M76.930490 51.805000
L79.210000 51.805000
" />
<path d="M73.042150 55.693340
L76.930490 51.805000
" />
<path d="M76.611709 51.000000
L72.332934 55.278775
" />
<path d="M79.210000 51.000000
L76.611709 51.000000
" />
<path d="M79.210000 50.195000
L76.341190 50.195000
" />
<path d="M76.341190 50.195000
L71.647850 54.888340
" />
<path d="M80.790000 51.805000
L83.069510 51.805000
" />
<path d="M83.069510 51.805000
L86.957850 55.693340
" />
<path d="M85.600000 53.200000
L85.600000 53.211709
" />
<path d="M83.400000 51.000000
L85.600000 53.200000
" />
<path d="M80.790000 51.000000
L83.400000 51.000000
" />
<path d="M85.600000 53.211709
L87.667066 55.278775
" />
<path d="M83.658810 50.195000
L88.352150 54.888340
" />
<path d="M80.790000 50.195000
L83.658810 50.195000
" />
<path d="M87.747850 57.061660
L88.250000 57.563810
" />
<path d="M88.300000 57.800000
L88.250000 57.750000
" />
<path d="M88.250000 57.563810
L88.250000 57.750000
" />
<path d="M92.400000 55.500000
L90.100000 57.800000
" />
<path d="M90.100000 57.800000
L88.300000 57.800000
" />
<path d="M90.800000 53.400000
L90.800000 56.100000
" />
<path d="M90.800000 56.100000
L89.600000 57.300000
" />
<path d="M89.061709 57.300000
L88.432934 56.671225
" />
<path d="M89.600000 57.300000
L89.061709 57.300000
" />
<path d="M90.100000 55.500000
L90.075000 55.475000
" />
<path d="M89.600000 56.000000
L90.100000 55.500000
" />
<path d="M89.398810 56.000000
L89.600000 56.000000
" />
<path d="M90.075000 55.475000
L90.075000 52.925000
" />
<path d="M90.075000 52.925000
L90.800000 52.200000
" />
<path d="M89.142150 56.256660
L89.398810 56.000000
" />
</g>
<g >
</g>
<g style="fill:#000000; fill-opacity:0.0; 
stroke:#000000; stroke-width:0.250000; stroke-opacity:1; 
stroke-linecap:round; stroke-linejoin:round;">
<g >
</g>
<g style="fill:#000000; fill-opacity:1.000000; 
stroke:#000000; stroke-width:0.000000; stroke-opacity:1; 
stroke-linecap:round; stroke-linejoin:round;">
<path style="fill:#000000; fill-opacity:1.000000; 
stroke:#000000; stroke-width:0.000000; stroke-opacity:1; 
stroke-linecap:round; stroke-linejoin:round;fill-rule:evenodd;"
d="M 91.143039,60.619685
91.188794,60.672489
91.200000,60.724000
91.200000,65.500000
89.200000,65.400000
89.300000,64.900000
89.299999,64.899999
89.078348,64.773341
89.058110,64.758907
89.031027,64.735156
88.338771,64.335482
88.299057,64.322001
88.257157,64.297810
88.225625,64.270157
87.749874,63.995482
87.710160,63.982001
87.705390,63.979247
88.220753,63.979247
88.350329,64.054058
88.390091,64.067555
88.431994,64.091748
88.463565,64.119435
89.155733,64.519058
89.226139,64.542958
89.325381,64.536453
89.414582,64.492463
89.463606,64.436563
89.620915,64.164092
89.620915,64.164091
89.187903,63.914093
88.812902,63.697586
89.312902,63.697586
89.745915,63.947585
89.745916,63.947585
89.903227,63.675115
89.927127,63.604709
89.920622,63.505467
89.876633,63.416267
89.820734,63.367245
89.582902,63.229932
89.582901,63.229932
89.312902,63.697585
89.312902,63.697586
88.812902,63.697586
88.490752,63.511593
88.490751,63.511593
88.220753,63.979246
88.220753,63.979247
87.705390,63.979247
87.668260,63.957810
87.636728,63.930157
86.944470,63.530481
86.854465,63.499929
86.832802,63.490172
86.600335,63.357334
86.551895,63.306982
86.538366,63.238435
86.550132,63.195879
86.559602,63.176212
86.607386,63.076969
86.962872,63.076969
86.969377,63.176212
87.013366,63.265412
87.069265,63.314434
87.761435,63.714059
87.801196,63.727556
87.843097,63.751747
87.874669,63.779435
88.004246,63.854246
88.004247,63.854246
88.274246,63.386592
88.274246,63.386591
88.113894,63.294012
88.613889,63.294012
89.096395,63.572586
89.096396,63.572586
89.366395,63.104932
89.366395,63.104931
89.128567,62.967622
89.088799,62.954122
89.046902,62.929932
89.015329,62.902244
88.885752,62.827432
88.885751,62.827432
88.651547,63.233087
88.622322,63.260952
88.622706,63.268995
88.621976,63.271854
88.619977,63.279315
88.613889,63.294012
88.113894,63.294012
87.793603,63.109093
87.418601,62.892586
87.918602,62.892586
88.399246,63.170085
88.404281,63.168736
88.419259,63.154453
88.419114,63.153440
88.434465,63.109087
88.669245,62.702432
88.669245,62.702431
88.539671,62.627622
88.499903,62.614122
88.458005,62.589931
88.426434,62.562244
88.188602,62.424932
88.188601,62.424932
87.918602,62.892585
87.918602,62.892586
87.418601,62.892586
87.144083,62.734093
87.144082,62.734093
86.986771,63.006566
86.962872,63.076969
86.607386,63.076969
86.876718,62.517587
87.269083,62.517587
87.702095,62.767586
87.702096,62.767586
87.972095,62.299932
87.972095,62.299931
87.734264,62.162620
87.663861,62.138721
87.564618,62.145226
87.475418,62.189215
87.426396,62.245114
87.269083,62.517586
87.269083,62.517587
86.876718,62.517587
86.937866,62.390586
86.940618,62.391911
86.941096,62.390283
86.938592,62.389077
87.435155,61.357754
87.766197,60.670207
87.813015,60.618344
87.877921,60.600000
91.076000,60.600000
Z" /> 
</g>
</g>
<g style="fill:#000000; fill-opacity:1.000000; 
stroke:#000000; stroke-width:0.000000; stroke-opacity:1; 
stroke-linecap:round; stroke-linejoin:round;">
<g >
<path style="fill:#000000; fill-opacity:1.000000; 
stroke:#000000; stroke-width:0.000000; stroke-opacity:1; 
stroke-linecap:round; stroke-linejoin:round;fill-rule:evenodd;"
d="M 101.942539,54.719685
101.988294,54.772489
101.999500,54.824000
101.999500,72.994583
101.999028,73.005393
101.995523,73.045445
101.983082,73.171764
101.979455,73.191696
101.962123,73.256382
101.961008,73.260285
101.933319,73.351562
101.927041,73.367971
101.896328,73.433835
101.893304,73.439884
101.850990,73.519046
101.843207,73.531715
101.800373,73.592889
101.794652,73.600430
101.738826,73.668455
101.730653,73.677472
101.677472,73.730653
101.668455,73.738826
101.600430,73.794652
101.592889,73.800373
101.531715,73.843207
101.519046,73.850990
101.439884,73.893304
101.433835,73.896328
101.367971,73.927041
101.351561,73.933320
101.260285,73.961008
101.256383,73.962122
101.193479,73.978977
101.158907,73.983177
97.122155,73.902443
97.055522,73.881422
97.010832,73.827714
97.000636,73.777822
97.001005,73.707107
97.042403,65.758623
97.099358,54.823354
97.119391,54.756418
97.172433,54.710939
97.223356,54.700000
101.875500,54.700000
Z" /> 
</g>
</g>
<g style="fill:#000000; fill-opacity:1.000000; 
stroke:#000000; stroke-width:0.000000; stroke-opacity:1; 
stroke-linecap:round; stroke-linejoin:round;">
<g >
<path style="fill:#000000; fill-opacity:1.000000; 
stroke:#000000; stroke-width:0.000000; stroke-opacity:1; 
stroke-linecap:round; stroke-linejoin:round;fill-rule:evenodd;"
d="M 91.200000,65.500000
91.200000,71.701000
91.181093,71.759191
91.131593,71.795155
91.101000,71.800000
82.099000,71.800000
82.040809,71.781093
82.004845,71.731593
82.000000,71.701000
82.000000,70.229500
82.018907,70.171309
82.068407,70.135345
82.099000,70.130500
83.640276,70.130500
83.648903,70.130876
83.662167,70.132037
83.687615,70.134264
83.687615,70.134263
83.687617,70.134264
83.725169,70.124201
83.733587,70.122335
83.771855,70.115588
83.773156,70.114836
83.797042,70.104942
83.798494,70.104554
83.830339,70.082254
83.837595,70.077632
83.871265,70.058194
83.896252,70.028414
83.902064,70.022070
87.453741,66.470393
87.472103,66.455936
88.424738,65.873770
88.469881,65.859459
88.522319,65.856022
88.593858,65.820744
88.633174,65.775913
88.646905,65.752129
88.681016,65.717156
89.008795,65.516847
89.199999,65.400001
89.199999,65.400000
89.200000,65.400000
Z" /> 
</g>
</g>
</g> 
</svg>
