<?xml version="1.0" standalone="no"?>
 <!DOCTYPE svg PUBLIC "-//W3C//DTD SVG 1.1//EN" 
 "http://www.w3.org/Graphics/SVG/1.1/DTD/svg11.dtd"> 
<svg
  xmlns:svg="http://www.w3.org/2000/svg"
  xmlns="http://www.w3.org/2000/svg"
  xmlns:xlink="http://www.w3.org/1999/xlink"
  version="1.1"
  width="3.0100000000000002cm" height="3.0100000000000002cm" viewBox="64.95 44.95 30.1 30.1">
<title>SVG Image created as pedalboard-led-ring-F_Mask.svg date 2023/05/31 21:03:05 </title>
  <desc>Image generated by PCBNEW </desc>
<g style="fill:#000000; fill-opacity:1.000000;stroke:#000000; stroke-opacity:1.000000;
stroke-linecap:round; stroke-linejoin:round;"
 transform="translate(0 0) scale(1 1)">
</g>
<g style="fill:#000000; fill-opacity:0.0; 
stroke:#000000; stroke-width:0.000000; stroke-opacity:1; 
stroke-linecap:round; stroke-linejoin:round;">
<g >
</g>
<g style="fill:#000000; fill-opacity:0.0; 
stroke:#000000; stroke-width:0.000000; stroke-opacity:1; 
stroke-linecap:round; stroke-linejoin:round;">
</g>
<g style="fill:#000000; fill-opacity:1.000000; 
stroke:#000000; stroke-width:0.000000; stroke-opacity:1; 
stroke-linecap:round; stroke-linejoin:round;">
<path style="fill:#000000; fill-opacity:1.000000; 
stroke:#000000; stroke-width:0.000000; stroke-opacity:1; 
stroke-linecap:round; stroke-linejoin:round;fill-rule:evenodd;"
d="M 71.312534,65.852868
71.275587,65.865410
71.236652,65.862859
71.201658,65.845601
71.175932,65.816266
70.958432,65.439544
70.945890,65.402597
70.948441,65.363662
70.965699,65.328668
70.995034,65.302942
71.168240,65.202942
71.205187,65.190400
71.244122,65.192951
71.279116,65.210209
71.304842,65.239544
71.522342,65.616266
71.534884,65.653213
71.532333,65.692148
71.515075,65.727142
71.485740,65.752868
Z" /> 
<path style="fill:#000000; fill-opacity:1.000000; 
stroke:#000000; stroke-width:0.000000; stroke-opacity:1; 
stroke-linecap:round; stroke-linejoin:round;fill-rule:evenodd;"
d="M 70.905034,65.147058
70.868087,65.159600
70.829152,65.157049
70.794158,65.139791
70.768432,65.110456
70.550932,64.733734
70.538390,64.696787
70.540941,64.657852
70.558199,64.622858
70.587534,64.597132
70.760740,64.497132
70.797687,64.484590
70.836622,64.487141
70.871616,64.504399
70.897342,64.533734
71.114842,64.910456
71.127384,64.947403
71.124833,64.986338
71.107575,65.021332
71.078240,65.047058
Z" /> 
</g>
<g >
</g>
<g style="fill:#000000; fill-opacity:1.000000; 
stroke:#000000; stroke-width:0.000000; stroke-opacity:1; 
stroke-linecap:round; stroke-linejoin:round;">
<path style="fill:#000000; fill-opacity:1.000000; 
stroke:#000000; stroke-width:0.000000; stroke-opacity:1; 
stroke-linecap:round; stroke-linejoin:round;fill-rule:evenodd;"
d="M 84.323205,67.088012
84.756217,66.838012
85.006217,67.271024
84.573205,67.521024
Z" /> 
<path style="fill:#000000; fill-opacity:1.000000; 
stroke:#000000; stroke-width:0.000000; stroke-opacity:1; 
stroke-linecap:round; stroke-linejoin:round;fill-rule:evenodd;"
d="M 83.543783,67.538012
83.976795,67.288012
84.226795,67.721024
83.793783,67.971024
Z" /> 
<path style="fill:#000000; fill-opacity:1.000000; 
stroke:#000000; stroke-width:0.000000; stroke-opacity:1; 
stroke-linecap:round; stroke-linejoin:round;fill-rule:evenodd;"
d="M 83.993783,68.317434
84.426795,68.067434
84.676795,68.500446
84.243783,68.750446
Z" /> 
<path style="fill:#000000; fill-opacity:1.000000; 
stroke:#000000; stroke-width:0.000000; stroke-opacity:1; 
stroke-linecap:round; stroke-linejoin:round;fill-rule:evenodd;"
d="M 84.773205,67.867434
85.206217,67.617434
85.456217,68.050446
85.023205,68.300446
Z" /> 
</g>
<g >
</g>
<g style="fill:#000000; fill-opacity:1.000000; 
stroke:#000000; stroke-width:0.000000; stroke-opacity:1; 
stroke-linecap:round; stroke-linejoin:round;">
<path style="fill:#000000; fill-opacity:1.000000; 
stroke:#000000; stroke-width:0.000000; stroke-opacity:1; 
stroke-linecap:round; stroke-linejoin:round;fill-rule:evenodd;"
d="M 88.300000,59.800000
88.300000,59.300000
88.800000,59.300000
88.800000,59.800000
Z" /> 
<path style="fill:#000000; fill-opacity:1.000000; 
stroke:#000000; stroke-width:0.000000; stroke-opacity:1; 
stroke-linecap:round; stroke-linejoin:round;fill-rule:evenodd;"
d="M 88.300000,60.700000
88.300000,60.200000
88.800000,60.200000
88.800000,60.700000
Z" /> 
<path style="fill:#000000; fill-opacity:1.000000; 
stroke:#000000; stroke-width:0.000000; stroke-opacity:1; 
stroke-linecap:round; stroke-linejoin:round;fill-rule:evenodd;"
d="M 89.200000,60.700000
89.200000,60.200000
89.700000,60.200000
89.700000,60.700000
Z" /> 
<path style="fill:#000000; fill-opacity:1.000000; 
stroke:#000000; stroke-width:0.000000; stroke-opacity:1; 
stroke-linecap:round; stroke-linejoin:round;fill-rule:evenodd;"
d="M 89.200000,59.800000
89.200000,59.300000
89.700000,59.300000
89.700000,59.800000
Z" /> 
</g>
<g >
</g>
<g style="fill:#000000; fill-opacity:1.000000; 
stroke:#000000; stroke-width:0.000000; stroke-opacity:1; 
stroke-linecap:round; stroke-linejoin:round;">
<path style="fill:#000000; fill-opacity:1.000000; 
stroke:#000000; stroke-width:0.000000; stroke-opacity:1; 
stroke-linecap:round; stroke-linejoin:round;fill-rule:evenodd;"
d="M 79.800000,51.700000
79.300000,51.700000
79.300000,51.200000
79.800000,51.200000
Z" /> 
<path style="fill:#000000; fill-opacity:1.000000; 
stroke:#000000; stroke-width:0.000000; stroke-opacity:1; 
stroke-linecap:round; stroke-linejoin:round;fill-rule:evenodd;"
d="M 80.700000,51.700000
80.200000,51.700000
80.200000,51.200000
80.700000,51.200000
Z" /> 
<path style="fill:#000000; fill-opacity:1.000000; 
stroke:#000000; stroke-width:0.000000; stroke-opacity:1; 
stroke-linecap:round; stroke-linejoin:round;fill-rule:evenodd;"
d="M 80.700000,50.800000
80.200000,50.800000
80.200000,50.300000
80.700000,50.300000
Z" /> 
<path style="fill:#000000; fill-opacity:1.000000; 
stroke:#000000; stroke-width:0.000000; stroke-opacity:1; 
stroke-linecap:round; stroke-linejoin:round;fill-rule:evenodd;"
d="M 79.800000,50.800000
79.300000,50.800000
79.300000,50.300000
79.800000,50.300000
Z" /> 
</g>
<g >
</g>
<g style="fill:#000000; fill-opacity:1.000000; 
stroke:#000000; stroke-width:0.000000; stroke-opacity:1; 
stroke-linecap:round; stroke-linejoin:round;">
<path style="fill:#000000; fill-opacity:1.000000; 
stroke:#000000; stroke-width:0.000000; stroke-opacity:1; 
stroke-linecap:round; stroke-linejoin:round;fill-rule:evenodd;"
d="M 87.288012,63.976795
87.538012,63.543783
87.971024,63.793783
87.721024,64.226795
Z" /> 
<path style="fill:#000000; fill-opacity:1.000000; 
stroke:#000000; stroke-width:0.000000; stroke-opacity:1; 
stroke-linecap:round; stroke-linejoin:round;fill-rule:evenodd;"
d="M 86.838012,64.756217
87.088012,64.323205
87.521024,64.573205
87.271024,65.006217
Z" /> 
<path style="fill:#000000; fill-opacity:1.000000; 
stroke:#000000; stroke-width:0.000000; stroke-opacity:1; 
stroke-linecap:round; stroke-linejoin:round;fill-rule:evenodd;"
d="M 87.617434,65.206217
87.867434,64.773205
88.300446,65.023205
88.050446,65.456217
Z" /> 
<path style="fill:#000000; fill-opacity:1.000000; 
stroke:#000000; stroke-width:0.000000; stroke-opacity:1; 
stroke-linecap:round; stroke-linejoin:round;fill-rule:evenodd;"
d="M 88.067434,64.426795
88.317434,63.993783
88.750446,64.243783
88.500446,64.676795
Z" /> 
</g>
<g >
</g>
<g style="fill:#000000; fill-opacity:1.000000; 
stroke:#000000; stroke-width:0.000000; stroke-opacity:1; 
stroke-linecap:round; stroke-linejoin:round;">
<path style="fill:#000000; fill-opacity:1.000000; 
stroke:#000000; stroke-width:0.000000; stroke-opacity:1; 
stroke-linecap:round; stroke-linejoin:round;fill-rule:evenodd;"
d="M 72.911988,64.323205
73.161988,64.756217
72.728976,65.006217
72.478976,64.573205
Z" /> 
<path style="fill:#000000; fill-opacity:1.000000; 
stroke:#000000; stroke-width:0.000000; stroke-opacity:1; 
stroke-linecap:round; stroke-linejoin:round;fill-rule:evenodd;"
d="M 72.461988,63.543783
72.711988,63.976795
72.278976,64.226795
72.028976,63.793783
Z" /> 
<path style="fill:#000000; fill-opacity:1.000000; 
stroke:#000000; stroke-width:0.000000; stroke-opacity:1; 
stroke-linecap:round; stroke-linejoin:round;fill-rule:evenodd;"
d="M 71.682566,63.993783
71.932566,64.426795
71.499554,64.676795
71.249554,64.243783
Z" /> 
<path style="fill:#000000; fill-opacity:1.000000; 
stroke:#000000; stroke-width:0.000000; stroke-opacity:1; 
stroke-linecap:round; stroke-linejoin:round;fill-rule:evenodd;"
d="M 72.132566,64.773205
72.382566,65.206217
71.949554,65.456217
71.699554,65.023205
Z" /> 
</g>
<g >
</g>
<g style="fill:#000000; fill-opacity:1.000000; 
stroke:#000000; stroke-width:0.000000; stroke-opacity:1; 
stroke-linecap:round; stroke-linejoin:round;">
<path style="fill:#000000; fill-opacity:1.000000; 
stroke:#000000; stroke-width:0.000000; stroke-opacity:1; 
stroke-linecap:round; stroke-linejoin:round;fill-rule:evenodd;"
d="M 80.200000,68.300000
80.700000,68.300000
80.700000,68.800000
80.200000,68.800000
Z" /> 
<path style="fill:#000000; fill-opacity:1.000000; 
stroke:#000000; stroke-width:0.000000; stroke-opacity:1; 
stroke-linecap:round; stroke-linejoin:round;fill-rule:evenodd;"
d="M 79.300000,68.300000
79.800000,68.300000
79.800000,68.800000
79.300000,68.800000
Z" /> 
<path style="fill:#000000; fill-opacity:1.000000; 
stroke:#000000; stroke-width:0.000000; stroke-opacity:1; 
stroke-linecap:round; stroke-linejoin:round;fill-rule:evenodd;"
d="M 79.300000,69.200000
79.800000,69.200000
79.800000,69.700000
79.300000,69.700000
Z" /> 
<path style="fill:#000000; fill-opacity:1.000000; 
stroke:#000000; stroke-width:0.000000; stroke-opacity:1; 
stroke-linecap:round; stroke-linejoin:round;fill-rule:evenodd;"
d="M 80.200000,69.200000
80.700000,69.200000
80.700000,69.700000
80.200000,69.700000
Z" /> 
</g>
<g >
</g>
<g style="fill:#000000; fill-opacity:1.000000; 
stroke:#000000; stroke-width:0.000000; stroke-opacity:1; 
stroke-linecap:round; stroke-linejoin:round;">
<path style="fill:#000000; fill-opacity:1.000000; 
stroke:#000000; stroke-width:0.000000; stroke-opacity:1; 
stroke-linecap:round; stroke-linejoin:round;fill-rule:evenodd;"
d="M 85.852868,68.687466
85.865410,68.724413
85.862859,68.763348
85.845601,68.798342
85.816266,68.824068
85.439544,69.041568
85.402597,69.054110
85.363662,69.051559
85.328668,69.034301
85.302942,69.004966
85.202942,68.831760
85.190400,68.794813
85.192951,68.755878
85.210209,68.720884
85.239544,68.695158
85.616266,68.477658
85.653213,68.465116
85.692148,68.467667
85.727142,68.484925
85.752868,68.514260
Z" /> 
<path style="fill:#000000; fill-opacity:1.000000; 
stroke:#000000; stroke-width:0.000000; stroke-opacity:1; 
stroke-linecap:round; stroke-linejoin:round;fill-rule:evenodd;"
d="M 85.147058,69.094966
85.159600,69.131913
85.157049,69.170848
85.139791,69.205842
85.110456,69.231568
84.733734,69.449068
84.696787,69.461610
84.657852,69.459059
84.622858,69.441801
84.597132,69.412466
84.497132,69.239260
84.484590,69.202313
84.487141,69.163378
84.504399,69.128384
84.533734,69.102658
84.910456,68.885158
84.947403,68.872616
84.986338,68.875167
85.021332,68.892425
85.047058,68.921760
Z" /> 
</g>
<g >
</g>
<g style="fill:#000000; fill-opacity:1.000000; 
stroke:#000000; stroke-width:0.000000; stroke-opacity:1; 
stroke-linecap:round; stroke-linejoin:round;">
<path style="fill:#000000; fill-opacity:1.000000; 
stroke:#000000; stroke-width:0.000000; stroke-opacity:1; 
stroke-linecap:round; stroke-linejoin:round;fill-rule:evenodd;"
d="M 71.700000,60.200000
71.700000,60.700000
71.200000,60.700000
71.200000,60.200000
Z" /> 
<path style="fill:#000000; fill-opacity:1.000000; 
stroke:#000000; stroke-width:0.000000; stroke-opacity:1; 
stroke-linecap:round; stroke-linejoin:round;fill-rule:evenodd;"
d="M 71.700000,59.300000
71.700000,59.800000
71.200000,59.800000
71.200000,59.300000
Z" /> 
<path style="fill:#000000; fill-opacity:1.000000; 
stroke:#000000; stroke-width:0.000000; stroke-opacity:1; 
stroke-linecap:round; stroke-linejoin:round;fill-rule:evenodd;"
d="M 70.800000,59.300000
70.800000,59.800000
70.300000,59.800000
70.300000,59.300000
Z" /> 
<path style="fill:#000000; fill-opacity:1.000000; 
stroke:#000000; stroke-width:0.000000; stroke-opacity:1; 
stroke-linecap:round; stroke-linejoin:round;fill-rule:evenodd;"
d="M 70.800000,60.200000
70.800000,60.700000
70.300000,60.700000
70.300000,60.200000
Z" /> 
</g>
<g >
</g>
<g style="fill:#000000; fill-opacity:1.000000; 
stroke:#000000; stroke-width:0.000000; stroke-opacity:1; 
stroke-linecap:round; stroke-linejoin:round;">
<path style="fill:#000000; fill-opacity:1.000000; 
stroke:#000000; stroke-width:0.000000; stroke-opacity:1; 
stroke-linecap:round; stroke-linejoin:round;fill-rule:evenodd;"
d="M 72.711988,56.023205
72.461988,56.456217
72.028976,56.206217
72.278976,55.773205
Z" /> 
<path style="fill:#000000; fill-opacity:1.000000; 
stroke:#000000; stroke-width:0.000000; stroke-opacity:1; 
stroke-linecap:round; stroke-linejoin:round;fill-rule:evenodd;"
d="M 73.161988,55.243783
72.911988,55.676795
72.478976,55.426795
72.728976,54.993783
Z" /> 
<path style="fill:#000000; fill-opacity:1.000000; 
stroke:#000000; stroke-width:0.000000; stroke-opacity:1; 
stroke-linecap:round; stroke-linejoin:round;fill-rule:evenodd;"
d="M 72.382566,54.793783
72.132566,55.226795
71.699554,54.976795
71.949554,54.543783
Z" /> 
<path style="fill:#000000; fill-opacity:1.000000; 
stroke:#000000; stroke-width:0.000000; stroke-opacity:1; 
stroke-linecap:round; stroke-linejoin:round;fill-rule:evenodd;"
d="M 71.932566,55.573205
71.682566,56.006217
71.249554,55.756217
71.499554,55.323205
Z" /> 
</g>
<g >
</g>
<g style="fill:#000000; fill-opacity:1.000000; 
stroke:#000000; stroke-width:0.000000; stroke-opacity:1; 
stroke-linecap:round; stroke-linejoin:round;">
<path style="fill:#000000; fill-opacity:1.000000; 
stroke:#000000; stroke-width:0.000000; stroke-opacity:1; 
stroke-linecap:round; stroke-linejoin:round;fill-rule:evenodd;"
d="M 89.412466,64.597132
89.441801,64.622858
89.459059,64.657852
89.461610,64.696787
89.449068,64.733734
89.231568,65.110456
89.205842,65.139791
89.170848,65.157049
89.131913,65.159600
89.094966,65.147058
88.921760,65.047058
88.892425,65.021332
88.875167,64.986338
88.872616,64.947403
88.885158,64.910456
89.102658,64.533734
89.128384,64.504399
89.163378,64.487141
89.202313,64.484590
89.239260,64.497132
Z" /> 
<path style="fill:#000000; fill-opacity:1.000000; 
stroke:#000000; stroke-width:0.000000; stroke-opacity:1; 
stroke-linecap:round; stroke-linejoin:round;fill-rule:evenodd;"
d="M 89.004966,65.302942
89.034301,65.328668
89.051559,65.363662
89.054110,65.402597
89.041568,65.439544
88.824068,65.816266
88.798342,65.845601
88.763348,65.862859
88.724413,65.865410
88.687466,65.852868
88.514260,65.752868
88.484925,65.727142
88.467667,65.692148
88.465116,65.653213
88.477658,65.616266
88.695158,65.239544
88.720884,65.210209
88.755878,65.192951
88.794813,65.190400
88.831760,65.202942
Z" /> 
</g>
<g >
</g>
<g style="fill:#000000; fill-opacity:1.000000; 
stroke:#000000; stroke-width:0.000000; stroke-opacity:1; 
stroke-linecap:round; stroke-linejoin:round;">
<path style="fill:#000000; fill-opacity:1.000000; 
stroke:#000000; stroke-width:0.000000; stroke-opacity:1; 
stroke-linecap:round; stroke-linejoin:round;fill-rule:evenodd;"
d="M 70.587534,55.402868
70.558199,55.377142
70.540941,55.342148
70.538390,55.303213
70.550932,55.266266
70.768432,54.889544
70.794158,54.860209
70.829152,54.842951
70.868087,54.840400
70.905034,54.852942
71.078240,54.952942
71.107575,54.978668
71.124833,55.013662
71.127384,55.052597
71.114842,55.089544
70.897342,55.466266
70.871616,55.495601
70.836622,55.512859
70.797687,55.515410
70.760740,55.502868
Z" /> 
<path style="fill:#000000; fill-opacity:1.000000; 
stroke:#000000; stroke-width:0.000000; stroke-opacity:1; 
stroke-linecap:round; stroke-linejoin:round;fill-rule:evenodd;"
d="M 70.995034,54.697058
70.965699,54.671332
70.948441,54.636338
70.945890,54.597403
70.958432,54.560456
71.175932,54.183734
71.201658,54.154399
71.236652,54.137141
71.275587,54.134590
71.312534,54.147132
71.485740,54.247132
71.515075,54.272858
71.532333,54.307852
71.534884,54.346787
71.522342,54.383734
71.304842,54.760456
71.279116,54.789791
71.244122,54.807049
71.205187,54.809600
71.168240,54.797058
Z" /> 
</g>
<g >
</g>
<g style="fill:#000000; fill-opacity:1.000000; 
stroke:#000000; stroke-width:0.000000; stroke-opacity:1; 
stroke-linecap:round; stroke-linejoin:round;">
<path style="fill:#000000; fill-opacity:1.000000; 
stroke:#000000; stroke-width:0.000000; stroke-opacity:1; 
stroke-linecap:round; stroke-linejoin:round;fill-rule:evenodd;"
d="M 75.402868,69.412466
75.377142,69.441801
75.342148,69.459059
75.303213,69.461610
75.266266,69.449068
74.889544,69.231568
74.860209,69.205842
74.842951,69.170848
74.840400,69.131913
74.852942,69.094966
74.952942,68.921760
74.978668,68.892425
75.013662,68.875167
75.052597,68.872616
75.089544,68.885158
75.466266,69.102658
75.495601,69.128384
75.512859,69.163378
75.515410,69.202313
75.502868,69.239260
Z" /> 
<path style="fill:#000000; fill-opacity:1.000000; 
stroke:#000000; stroke-width:0.000000; stroke-opacity:1; 
stroke-linecap:round; stroke-linejoin:round;fill-rule:evenodd;"
d="M 74.697058,69.004966
74.671332,69.034301
74.636338,69.051559
74.597403,69.054110
74.560456,69.041568
74.183734,68.824068
74.154399,68.798342
74.137141,68.763348
74.134590,68.724413
74.147132,68.687466
74.247132,68.514260
74.272858,68.484925
74.307852,68.467667
74.346787,68.465116
74.383734,68.477658
74.760456,68.695158
74.789791,68.720884
74.807049,68.755878
74.809600,68.794813
74.797058,68.831760
Z" /> 
</g>
<g >
</g>
<g style="fill:#000000; fill-opacity:1.000000; 
stroke:#000000; stroke-width:0.000000; stroke-opacity:1; 
stroke-linecap:round; stroke-linejoin:round;">
<path style="fill:#000000; fill-opacity:1.000000; 
stroke:#000000; stroke-width:0.000000; stroke-opacity:1; 
stroke-linecap:round; stroke-linejoin:round;fill-rule:evenodd;"
d="M 69.550000,60.725000
69.511732,60.717388
69.479289,60.695711
69.457612,60.663268
69.450000,60.625000
69.450000,60.190000
69.457612,60.151732
69.479289,60.119289
69.511732,60.097612
69.550000,60.090000
69.750000,60.090000
69.788268,60.097612
69.820711,60.119289
69.842388,60.151732
69.850000,60.190000
69.850000,60.625000
69.842388,60.663268
69.820711,60.695711
69.788268,60.717388
69.750000,60.725000
Z" /> 
<path style="fill:#000000; fill-opacity:1.000000; 
stroke:#000000; stroke-width:0.000000; stroke-opacity:1; 
stroke-linecap:round; stroke-linejoin:round;fill-rule:evenodd;"
d="M 69.550000,59.910000
69.511732,59.902388
69.479289,59.880711
69.457612,59.848268
69.450000,59.810000
69.450000,59.375000
69.457612,59.336732
69.479289,59.304289
69.511732,59.282612
69.550000,59.275000
69.750000,59.275000
69.788268,59.282612
69.820711,59.304289
69.842388,59.336732
69.850000,59.375000
69.850000,59.810000
69.842388,59.848268
69.820711,59.880711
69.788268,59.902388
69.750000,59.910000
Z" /> 
</g>
<g >
</g>
<g style="fill:#000000; fill-opacity:1.000000; 
stroke:#000000; stroke-width:0.000000; stroke-opacity:1; 
stroke-linecap:round; stroke-linejoin:round;">
<path style="fill:#000000; fill-opacity:1.000000; 
stroke:#000000; stroke-width:0.000000; stroke-opacity:1; 
stroke-linecap:round; stroke-linejoin:round;fill-rule:evenodd;"
d="M 80.725000,70.450000
80.717388,70.488268
80.695711,70.520711
80.663268,70.542388
80.625000,70.550000
80.190000,70.550000
80.151732,70.542388
80.119289,70.520711
80.097612,70.488268
80.090000,70.450000
80.090000,70.250000
80.097612,70.211732
80.119289,70.179289
80.151732,70.157612
80.190000,70.150000
80.625000,70.150000
80.663268,70.157612
80.695711,70.179289
80.717388,70.211732
80.725000,70.250000
Z" /> 
<path style="fill:#000000; fill-opacity:1.000000; 
stroke:#000000; stroke-width:0.000000; stroke-opacity:1; 
stroke-linecap:round; stroke-linejoin:round;fill-rule:evenodd;"
d="M 79.910000,70.450000
79.902388,70.488268
79.880711,70.520711
79.848268,70.542388
79.810000,70.550000
79.375000,70.550000
79.336732,70.542388
79.304289,70.520711
79.282612,70.488268
79.275000,70.450000
79.275000,70.250000
79.282612,70.211732
79.304289,70.179289
79.336732,70.157612
79.375000,70.150000
79.810000,70.150000
79.848268,70.157612
79.880711,70.179289
79.902388,70.211732
79.910000,70.250000
Z" /> 
</g>
<g >
</g>
<g style="fill:#000000; fill-opacity:1.000000; 
stroke:#000000; stroke-width:0.000000; stroke-opacity:1; 
stroke-linecap:round; stroke-linejoin:round;">
<path style="fill:#000000; fill-opacity:1.000000; 
stroke:#000000; stroke-width:0.000000; stroke-opacity:1; 
stroke-linecap:round; stroke-linejoin:round;fill-rule:evenodd;"
d="M 84.597132,50.587534
84.622858,50.558199
84.657852,50.540941
84.696787,50.538390
84.733734,50.550932
85.110456,50.768432
85.139791,50.794158
85.157049,50.829152
85.159600,50.868087
85.147058,50.905034
85.047058,51.078240
85.021332,51.107575
84.986338,51.124833
84.947403,51.127384
84.910456,51.114842
84.533734,50.897342
84.504399,50.871616
84.487141,50.836622
84.484590,50.797687
84.497132,50.760740
Z" /> 
<path style="fill:#000000; fill-opacity:1.000000; 
stroke:#000000; stroke-width:0.000000; stroke-opacity:1; 
stroke-linecap:round; stroke-linejoin:round;fill-rule:evenodd;"
d="M 85.302942,50.995034
85.328668,50.965699
85.363662,50.948441
85.402597,50.945890
85.439544,50.958432
85.816266,51.175932
85.845601,51.201658
85.862859,51.236652
85.865410,51.275587
85.852868,51.312534
85.752868,51.485740
85.727142,51.515075
85.692148,51.532333
85.653213,51.534884
85.616266,51.522342
85.239544,51.304842
85.210209,51.279116
85.192951,51.244122
85.190400,51.205187
85.202942,51.168240
Z" /> 
</g>
<g >
</g>
<g style="fill:#000000; fill-opacity:1.000000; 
stroke:#000000; stroke-width:0.000000; stroke-opacity:1; 
stroke-linecap:round; stroke-linejoin:round;">
<path style="fill:#000000; fill-opacity:1.000000; 
stroke:#000000; stroke-width:0.000000; stroke-opacity:1; 
stroke-linecap:round; stroke-linejoin:round;fill-rule:evenodd;"
d="M 88.687466,54.147132
88.724413,54.134590
88.763348,54.137141
88.798342,54.154399
88.824068,54.183734
89.041568,54.560456
89.054110,54.597403
89.051559,54.636338
89.034301,54.671332
89.004966,54.697058
88.831760,54.797058
88.794813,54.809600
88.755878,54.807049
88.720884,54.789791
88.695158,54.760456
88.477658,54.383734
88.465116,54.346787
88.467667,54.307852
88.484925,54.272858
88.514260,54.247132
Z" /> 
<path style="fill:#000000; fill-opacity:1.000000; 
stroke:#000000; stroke-width:0.000000; stroke-opacity:1; 
stroke-linecap:round; stroke-linejoin:round;fill-rule:evenodd;"
d="M 89.094966,54.852942
89.131913,54.840400
89.170848,54.842951
89.205842,54.860209
89.231568,54.889544
89.449068,55.266266
89.461610,55.303213
89.459059,55.342148
89.441801,55.377142
89.412466,55.402868
89.239260,55.502868
89.202313,55.515410
89.163378,55.512859
89.128384,55.495601
89.102658,55.466266
88.885158,55.089544
88.872616,55.052597
88.875167,55.013662
88.892425,54.978668
88.921760,54.952942
Z" /> 
</g>
<g >
</g>
<g style="fill:#000000; fill-opacity:1.000000; 
stroke:#000000; stroke-width:0.000000; stroke-opacity:1; 
stroke-linecap:round; stroke-linejoin:round;">
<path style="fill:#000000; fill-opacity:1.000000; 
stroke:#000000; stroke-width:0.000000; stroke-opacity:1; 
stroke-linecap:round; stroke-linejoin:round;fill-rule:evenodd;"
d="M 74.147132,51.312534
74.134590,51.275587
74.137141,51.236652
74.154399,51.201658
74.183734,51.175932
74.560456,50.958432
74.597403,50.945890
74.636338,50.948441
74.671332,50.965699
74.697058,50.995034
74.797058,51.168240
74.809600,51.205187
74.807049,51.244122
74.789791,51.279116
74.760456,51.304842
74.383734,51.522342
74.346787,51.534884
74.307852,51.532333
74.272858,51.515075
74.247132,51.485740
Z" /> 
<path style="fill:#000000; fill-opacity:1.000000; 
stroke:#000000; stroke-width:0.000000; stroke-opacity:1; 
stroke-linecap:round; stroke-linejoin:round;fill-rule:evenodd;"
d="M 74.852942,50.905034
74.840400,50.868087
74.842951,50.829152
74.860209,50.794158
74.889544,50.768432
75.266266,50.550932
75.303213,50.538390
75.342148,50.540941
75.377142,50.558199
75.402868,50.587534
75.502868,50.760740
75.515410,50.797687
75.512859,50.836622
75.495601,50.871616
75.466266,50.897342
75.089544,51.114842
75.052597,51.127384
75.013662,51.124833
74.978668,51.107575
74.952942,51.078240
Z" /> 
</g>
<g >
</g>
<g style="fill:#000000; fill-opacity:1.000000; 
stroke:#000000; stroke-width:0.000000; stroke-opacity:1; 
stroke-linecap:round; stroke-linejoin:round;">
<path style="fill:#000000; fill-opacity:1.000000; 
stroke:#000000; stroke-width:0.000000; stroke-opacity:1; 
stroke-linecap:round; stroke-linejoin:round;fill-rule:evenodd;"
d="M 87.088012,55.676795
86.838012,55.243783
87.271024,54.993783
87.521024,55.426795
Z" /> 
<path style="fill:#000000; fill-opacity:1.000000; 
stroke:#000000; stroke-width:0.000000; stroke-opacity:1; 
stroke-linecap:round; stroke-linejoin:round;fill-rule:evenodd;"
d="M 87.538012,56.456217
87.288012,56.023205
87.721024,55.773205
87.971024,56.206217
Z" /> 
<path style="fill:#000000; fill-opacity:1.000000; 
stroke:#000000; stroke-width:0.000000; stroke-opacity:1; 
stroke-linecap:round; stroke-linejoin:round;fill-rule:evenodd;"
d="M 88.317434,56.006217
88.067434,55.573205
88.500446,55.323205
88.750446,55.756217
Z" /> 
<path style="fill:#000000; fill-opacity:1.000000; 
stroke:#000000; stroke-width:0.000000; stroke-opacity:1; 
stroke-linecap:round; stroke-linejoin:round;fill-rule:evenodd;"
d="M 87.867434,55.226795
87.617434,54.793783
88.050446,54.543783
88.300446,54.976795
Z" /> 
</g>
<g >
</g>
<g style="fill:#000000; fill-opacity:1.000000; 
stroke:#000000; stroke-width:0.000000; stroke-opacity:1; 
stroke-linecap:round; stroke-linejoin:round;">
<path style="fill:#000000; fill-opacity:1.000000; 
stroke:#000000; stroke-width:0.000000; stroke-opacity:1; 
stroke-linecap:round; stroke-linejoin:round;fill-rule:evenodd;"
d="M 90.450000,59.275000
90.488268,59.282612
90.520711,59.304289
90.542388,59.336732
90.550000,59.375000
90.550000,59.810000
90.542388,59.848268
90.520711,59.880711
90.488268,59.902388
90.450000,59.910000
90.250000,59.910000
90.211732,59.902388
90.179289,59.880711
90.157612,59.848268
90.150000,59.810000
90.150000,59.375000
90.157612,59.336732
90.179289,59.304289
90.211732,59.282612
90.250000,59.275000
Z" /> 
<path style="fill:#000000; fill-opacity:1.000000; 
stroke:#000000; stroke-width:0.000000; stroke-opacity:1; 
stroke-linecap:round; stroke-linejoin:round;fill-rule:evenodd;"
d="M 90.450000,60.090000
90.488268,60.097612
90.520711,60.119289
90.542388,60.151732
90.550000,60.190000
90.550000,60.625000
90.542388,60.663268
90.520711,60.695711
90.488268,60.717388
90.450000,60.725000
90.250000,60.725000
90.211732,60.717388
90.179289,60.695711
90.157612,60.663268
90.150000,60.625000
90.150000,60.190000
90.157612,60.151732
90.179289,60.119289
90.211732,60.097612
90.250000,60.090000
Z" /> 
</g>
<g >
</g>
<g style="fill:#000000; fill-opacity:1.000000; 
stroke:#000000; stroke-width:0.000000; stroke-opacity:1; 
stroke-linecap:round; stroke-linejoin:round;">
<path style="fill:#000000; fill-opacity:1.000000; 
stroke:#000000; stroke-width:0.000000; stroke-opacity:1; 
stroke-linecap:round; stroke-linejoin:round;fill-rule:evenodd;"
d="M 75.676795,52.911988
75.243783,53.161988
74.993783,52.728976
75.426795,52.478976
Z" /> 
<path style="fill:#000000; fill-opacity:1.000000; 
stroke:#000000; stroke-width:0.000000; stroke-opacity:1; 
stroke-linecap:round; stroke-linejoin:round;fill-rule:evenodd;"
d="M 76.456217,52.461988
76.023205,52.711988
75.773205,52.278976
76.206217,52.028976
Z" /> 
<path style="fill:#000000; fill-opacity:1.000000; 
stroke:#000000; stroke-width:0.000000; stroke-opacity:1; 
stroke-linecap:round; stroke-linejoin:round;fill-rule:evenodd;"
d="M 76.006217,51.682566
75.573205,51.932566
75.323205,51.499554
75.756217,51.249554
Z" /> 
<path style="fill:#000000; fill-opacity:1.000000; 
stroke:#000000; stroke-width:0.000000; stroke-opacity:1; 
stroke-linecap:round; stroke-linejoin:round;fill-rule:evenodd;"
d="M 75.226795,52.132566
74.793783,52.382566
74.543783,51.949554
74.976795,51.699554
Z" /> 
</g>
<g >
</g>
<g style="fill:#000000; fill-opacity:1.000000; 
stroke:#000000; stroke-width:0.000000; stroke-opacity:1; 
stroke-linecap:round; stroke-linejoin:round;">
<path style="fill:#000000; fill-opacity:1.000000; 
stroke:#000000; stroke-width:0.000000; stroke-opacity:1; 
stroke-linecap:round; stroke-linejoin:round;fill-rule:evenodd;"
d="M 76.023205,67.288012
76.456217,67.538012
76.206217,67.971024
75.773205,67.721024
Z" /> 
<path style="fill:#000000; fill-opacity:1.000000; 
stroke:#000000; stroke-width:0.000000; stroke-opacity:1; 
stroke-linecap:round; stroke-linejoin:round;fill-rule:evenodd;"
d="M 75.243783,66.838012
75.676795,67.088012
75.426795,67.521024
74.993783,67.271024
Z" /> 
<path style="fill:#000000; fill-opacity:1.000000; 
stroke:#000000; stroke-width:0.000000; stroke-opacity:1; 
stroke-linecap:round; stroke-linejoin:round;fill-rule:evenodd;"
d="M 74.793783,67.617434
75.226795,67.867434
74.976795,68.300446
74.543783,68.050446
Z" /> 
<path style="fill:#000000; fill-opacity:1.000000; 
stroke:#000000; stroke-width:0.000000; stroke-opacity:1; 
stroke-linecap:round; stroke-linejoin:round;fill-rule:evenodd;"
d="M 75.573205,68.067434
76.006217,68.317434
75.756217,68.750446
75.323205,68.500446
Z" /> 
</g>
<g >
</g>
<g style="fill:#000000; fill-opacity:1.000000; 
stroke:#000000; stroke-width:0.000000; stroke-opacity:1; 
stroke-linecap:round; stroke-linejoin:round;">
<path style="fill:#000000; fill-opacity:1.000000; 
stroke:#000000; stroke-width:0.000000; stroke-opacity:1; 
stroke-linecap:round; stroke-linejoin:round;fill-rule:evenodd;"
d="M 83.976795,52.711988
83.543783,52.461988
83.793783,52.028976
84.226795,52.278976
Z" /> 
<path style="fill:#000000; fill-opacity:1.000000; 
stroke:#000000; stroke-width:0.000000; stroke-opacity:1; 
stroke-linecap:round; stroke-linejoin:round;fill-rule:evenodd;"
d="M 84.756217,53.161988
84.323205,52.911988
84.573205,52.478976
85.006217,52.728976
Z" /> 
<path style="fill:#000000; fill-opacity:1.000000; 
stroke:#000000; stroke-width:0.000000; stroke-opacity:1; 
stroke-linecap:round; stroke-linejoin:round;fill-rule:evenodd;"
d="M 85.206217,52.382566
84.773205,52.132566
85.023205,51.699554
85.456217,51.949554
Z" /> 
<path style="fill:#000000; fill-opacity:1.000000; 
stroke:#000000; stroke-width:0.000000; stroke-opacity:1; 
stroke-linecap:round; stroke-linejoin:round;fill-rule:evenodd;"
d="M 84.426795,51.932566
83.993783,51.682566
84.243783,51.249554
84.676795,51.499554
Z" /> 
</g>
<g >
</g>
<g style="fill:#000000; fill-opacity:1.000000; 
stroke:#000000; stroke-width:0.000000; stroke-opacity:1; 
stroke-linecap:round; stroke-linejoin:round;">
<path style="fill:#000000; fill-opacity:1.000000; 
stroke:#000000; stroke-width:0.000000; stroke-opacity:1; 
stroke-linecap:round; stroke-linejoin:round;fill-rule:evenodd;"
d="M 79.275000,49.550000
79.282612,49.511732
79.304289,49.479289
79.336732,49.457612
79.375000,49.450000
79.810000,49.450000
79.848268,49.457612
79.880711,49.479289
79.902388,49.511732
79.910000,49.550000
79.910000,49.750000
79.902388,49.788268
79.880711,49.820711
79.848268,49.842388
79.810000,49.850000
79.375000,49.850000
79.336732,49.842388
79.304289,49.820711
79.282612,49.788268
79.275000,49.750000
Z" /> 
<path style="fill:#000000; fill-opacity:1.000000; 
stroke:#000000; stroke-width:0.000000; stroke-opacity:1; 
stroke-linecap:round; stroke-linejoin:round;fill-rule:evenodd;"
d="M 80.090000,49.550000
80.097612,49.511732
80.119289,49.479289
80.151732,49.457612
80.190000,49.450000
80.625000,49.450000
80.663268,49.457612
80.695711,49.479289
80.717388,49.511732
80.725000,49.550000
80.725000,49.750000
80.717388,49.788268
80.695711,49.820711
80.663268,49.842388
80.625000,49.850000
80.190000,49.850000
80.151732,49.842388
80.119289,49.820711
80.097612,49.788268
80.090000,49.750000
Z" /> 
</g>
<g >
</g>
<g >
</g>
<g >
</g>
<g >
</g>
</g> 
</svg>
