<?xml version="1.0" standalone="no"?>
 <!DOCTYPE svg PUBLIC "-//W3C//DTD SVG 1.1//EN" 
 "http://www.w3.org/Graphics/SVG/1.1/DTD/svg11.dtd"> 
<svg
  xmlns:svg="http://www.w3.org/2000/svg"
  xmlns="http://www.w3.org/2000/svg"
  xmlns:xlink="http://www.w3.org/1999/xlink"
  version="1.1"
  width="2.6100000000000003cm" height="2.6100000000000003cm" viewBox="66.95 46.95 26.1 26.1">
<title>SVG Image created as pedalboard-led-ring-F_Mask.svg date 2023/07/26 12:07:54 </title>
  <desc>Image generated by PCBNEW </desc>
<g style="fill:#000000; fill-opacity:1.000000;stroke:#000000; stroke-opacity:1.000000;
stroke-linecap:round; stroke-linejoin:round;"
 transform="translate(0 0) scale(1 1)">
</g>
<g style="fill:#000000; fill-opacity:0.0; 
stroke:#000000; stroke-width:0.000000; stroke-opacity:1; 
stroke-linecap:round; stroke-linejoin:round;">
<g >
</g>
<g style="fill:#000000; fill-opacity:0.0; 
stroke:#000000; stroke-width:0.000000; stroke-opacity:1; 
stroke-linecap:round; stroke-linejoin:round;">
</g>
<g style="fill:#000000; fill-opacity:1.000000; 
stroke:#000000; stroke-width:0.000000; stroke-opacity:1; 
stroke-linecap:round; stroke-linejoin:round;">
<path style="fill:#000000; fill-opacity:1.000000; 
stroke:#000000; stroke-width:0.000000; stroke-opacity:1; 
stroke-linecap:round; stroke-linejoin:round;fill-rule:evenodd;"
d="M 84.676795,68.500446
84.243783,68.750446
83.993783,68.317434
84.426795,68.067434
Z" /> 
<path style="fill:#000000; fill-opacity:1.000000; 
stroke:#000000; stroke-width:0.000000; stroke-opacity:1; 
stroke-linecap:round; stroke-linejoin:round;fill-rule:evenodd;"
d="M 85.456217,68.050446
85.023205,68.300446
84.773205,67.867434
85.206217,67.617434
Z" /> 
<path style="fill:#000000; fill-opacity:1.000000; 
stroke:#000000; stroke-width:0.000000; stroke-opacity:1; 
stroke-linecap:round; stroke-linejoin:round;fill-rule:evenodd;"
d="M 85.006217,67.271024
84.573205,67.521024
84.323205,67.088012
84.756217,66.838012
Z" /> 
<path style="fill:#000000; fill-opacity:1.000000; 
stroke:#000000; stroke-width:0.000000; stroke-opacity:1; 
stroke-linecap:round; stroke-linejoin:round;fill-rule:evenodd;"
d="M 84.226795,67.721024
83.793783,67.971024
83.543783,67.538012
83.976795,67.288012
Z" /> 
</g>
<g >
</g>
<g style="fill:#000000; fill-opacity:1.000000; 
stroke:#000000; stroke-width:0.000000; stroke-opacity:1; 
stroke-linecap:round; stroke-linejoin:round;">
<path style="fill:#000000; fill-opacity:1.000000; 
stroke:#000000; stroke-width:0.000000; stroke-opacity:1; 
stroke-linecap:round; stroke-linejoin:round;fill-rule:evenodd;"
d="M 78.750000,50.335000
78.788268,50.342612
78.820711,50.364289
78.842388,50.396732
78.850000,50.435000
78.850000,50.870000
78.842388,50.908268
78.820711,50.940711
78.788268,50.962388
78.750000,50.970000
78.550000,50.970000
78.511732,50.962388
78.479289,50.940711
78.457612,50.908268
78.450000,50.870000
78.450000,50.435000
78.457612,50.396732
78.479289,50.364289
78.511732,50.342612
78.550000,50.335000
Z" /> 
<path style="fill:#000000; fill-opacity:1.000000; 
stroke:#000000; stroke-width:0.000000; stroke-opacity:1; 
stroke-linecap:round; stroke-linejoin:round;fill-rule:evenodd;"
d="M 78.750000,51.150000
78.788268,51.157612
78.820711,51.179289
78.842388,51.211732
78.850000,51.250000
78.850000,51.685000
78.842388,51.723268
78.820711,51.755711
78.788268,51.777388
78.750000,51.785000
78.550000,51.785000
78.511732,51.777388
78.479289,51.755711
78.457612,51.723268
78.450000,51.685000
78.450000,51.250000
78.457612,51.211732
78.479289,51.179289
78.511732,51.157612
78.550000,51.150000
Z" /> 
</g>
<g >
</g>
<g style="fill:#000000; fill-opacity:1.000000; 
stroke:#000000; stroke-width:0.000000; stroke-opacity:1; 
stroke-linecap:round; stroke-linejoin:round;">
<path style="fill:#000000; fill-opacity:1.000000; 
stroke:#000000; stroke-width:0.000000; stroke-opacity:1; 
stroke-linecap:round; stroke-linejoin:round;fill-rule:evenodd;"
d="M 74.084969,52.254865
74.121916,52.242323
74.160851,52.244874
74.195845,52.262132
74.221571,52.291467
74.439071,52.668189
74.451613,52.705136
74.449062,52.744071
74.431804,52.779065
74.402469,52.804791
74.229263,52.904791
74.192316,52.917333
74.153381,52.914782
74.118387,52.897524
74.092661,52.868189
73.875161,52.491467
73.862619,52.454520
73.865170,52.415585
73.882428,52.380591
73.911763,52.354865
Z" /> 
<path style="fill:#000000; fill-opacity:1.000000; 
stroke:#000000; stroke-width:0.000000; stroke-opacity:1; 
stroke-linecap:round; stroke-linejoin:round;fill-rule:evenodd;"
d="M 74.492469,52.960675
74.529416,52.948133
74.568351,52.950684
74.603345,52.967942
74.629071,52.997277
74.846571,53.373999
74.859113,53.410946
74.856562,53.449881
74.839304,53.484875
74.809969,53.510601
74.636763,53.610601
74.599816,53.623143
74.560881,53.620592
74.525887,53.603334
74.500161,53.573999
74.282661,53.197277
74.270119,53.160330
74.272670,53.121395
74.289928,53.086401
74.319263,53.060675
Z" /> 
</g>
<g >
</g>
<g style="fill:#000000; fill-opacity:1.000000; 
stroke:#000000; stroke-width:0.000000; stroke-opacity:1; 
stroke-linecap:round; stroke-linejoin:round;">
<path style="fill:#000000; fill-opacity:1.000000; 
stroke:#000000; stroke-width:0.000000; stroke-opacity:1; 
stroke-linecap:round; stroke-linejoin:round;fill-rule:evenodd;"
d="M 89.700000,60.200000
89.700000,60.700000
89.200000,60.700000
89.200000,60.200000
Z" /> 
<path style="fill:#000000; fill-opacity:1.000000; 
stroke:#000000; stroke-width:0.000000; stroke-opacity:1; 
stroke-linecap:round; stroke-linejoin:round;fill-rule:evenodd;"
d="M 89.700000,59.300000
89.700000,59.800000
89.200000,59.800000
89.200000,59.300000
Z" /> 
<path style="fill:#000000; fill-opacity:1.000000; 
stroke:#000000; stroke-width:0.000000; stroke-opacity:1; 
stroke-linecap:round; stroke-linejoin:round;fill-rule:evenodd;"
d="M 88.800000,59.300000
88.800000,59.800000
88.300000,59.800000
88.300000,59.300000
Z" /> 
<path style="fill:#000000; fill-opacity:1.000000; 
stroke:#000000; stroke-width:0.000000; stroke-opacity:1; 
stroke-linecap:round; stroke-linejoin:round;fill-rule:evenodd;"
d="M 88.800000,60.200000
88.800000,60.700000
88.300000,60.700000
88.300000,60.200000
Z" /> 
</g>
<g >
</g>
<g style="fill:#000000; fill-opacity:1.000000; 
stroke:#000000; stroke-width:0.000000; stroke-opacity:1; 
stroke-linecap:round; stroke-linejoin:round;">
<path style="fill:#000000; fill-opacity:1.000000; 
stroke:#000000; stroke-width:0.000000; stroke-opacity:1; 
stroke-linecap:round; stroke-linejoin:round;fill-rule:evenodd;"
d="M 80.200000,50.300000
80.700000,50.300000
80.700000,50.800000
80.200000,50.800000
Z" /> 
<path style="fill:#000000; fill-opacity:1.000000; 
stroke:#000000; stroke-width:0.000000; stroke-opacity:1; 
stroke-linecap:round; stroke-linejoin:round;fill-rule:evenodd;"
d="M 79.300000,50.300000
79.800000,50.300000
79.800000,50.800000
79.300000,50.800000
Z" /> 
<path style="fill:#000000; fill-opacity:1.000000; 
stroke:#000000; stroke-width:0.000000; stroke-opacity:1; 
stroke-linecap:round; stroke-linejoin:round;fill-rule:evenodd;"
d="M 79.300000,51.200000
79.800000,51.200000
79.800000,51.700000
79.300000,51.700000
Z" /> 
<path style="fill:#000000; fill-opacity:1.000000; 
stroke:#000000; stroke-width:0.000000; stroke-opacity:1; 
stroke-linecap:round; stroke-linejoin:round;fill-rule:evenodd;"
d="M 80.200000,51.200000
80.700000,51.200000
80.700000,51.700000
80.200000,51.700000
Z" /> 
</g>
<g >
</g>
<g style="fill:#000000; fill-opacity:1.000000; 
stroke:#000000; stroke-width:0.000000; stroke-opacity:1; 
stroke-linecap:round; stroke-linejoin:round;">
<path style="fill:#000000; fill-opacity:1.000000; 
stroke:#000000; stroke-width:0.000000; stroke-opacity:1; 
stroke-linecap:round; stroke-linejoin:round;fill-rule:evenodd;"
d="M 88.300446,65.023205
88.050446,65.456217
87.617434,65.206217
87.867434,64.773205
Z" /> 
<path style="fill:#000000; fill-opacity:1.000000; 
stroke:#000000; stroke-width:0.000000; stroke-opacity:1; 
stroke-linecap:round; stroke-linejoin:round;fill-rule:evenodd;"
d="M 88.750446,64.243783
88.500446,64.676795
88.067434,64.426795
88.317434,63.993783
Z" /> 
<path style="fill:#000000; fill-opacity:1.000000; 
stroke:#000000; stroke-width:0.000000; stroke-opacity:1; 
stroke-linecap:round; stroke-linejoin:round;fill-rule:evenodd;"
d="M 87.971024,63.793783
87.721024,64.226795
87.288012,63.976795
87.538012,63.543783
Z" /> 
<path style="fill:#000000; fill-opacity:1.000000; 
stroke:#000000; stroke-width:0.000000; stroke-opacity:1; 
stroke-linecap:round; stroke-linejoin:round;fill-rule:evenodd;"
d="M 87.521024,64.573205
87.271024,65.006217
86.838012,64.756217
87.088012,64.323205
Z" /> 
</g>
<g >
</g>
<g style="fill:#000000; fill-opacity:1.000000; 
stroke:#000000; stroke-width:0.000000; stroke-opacity:1; 
stroke-linecap:round; stroke-linejoin:round;">
<path style="fill:#000000; fill-opacity:1.000000; 
stroke:#000000; stroke-width:0.000000; stroke-opacity:1; 
stroke-linecap:round; stroke-linejoin:round;fill-rule:evenodd;"
d="M 71.499554,64.676795
71.249554,64.243783
71.682566,63.993783
71.932566,64.426795
Z" /> 
<path style="fill:#000000; fill-opacity:1.000000; 
stroke:#000000; stroke-width:0.000000; stroke-opacity:1; 
stroke-linecap:round; stroke-linejoin:round;fill-rule:evenodd;"
d="M 71.949554,65.456217
71.699554,65.023205
72.132566,64.773205
72.382566,65.206217
Z" /> 
<path style="fill:#000000; fill-opacity:1.000000; 
stroke:#000000; stroke-width:0.000000; stroke-opacity:1; 
stroke-linecap:round; stroke-linejoin:round;fill-rule:evenodd;"
d="M 72.728976,65.006217
72.478976,64.573205
72.911988,64.323205
73.161988,64.756217
Z" /> 
<path style="fill:#000000; fill-opacity:1.000000; 
stroke:#000000; stroke-width:0.000000; stroke-opacity:1; 
stroke-linecap:round; stroke-linejoin:round;fill-rule:evenodd;"
d="M 72.278976,64.226795
72.028976,63.793783
72.461988,63.543783
72.711988,63.976795
Z" /> 
</g>
<g >
</g>
<g style="fill:#000000; fill-opacity:1.000000; 
stroke:#000000; stroke-width:0.000000; stroke-opacity:1; 
stroke-linecap:round; stroke-linejoin:round;">
<path style="fill:#000000; fill-opacity:1.000000; 
stroke:#000000; stroke-width:0.000000; stroke-opacity:1; 
stroke-linecap:round; stroke-linejoin:round;fill-rule:evenodd;"
d="M 79.800000,69.700000
79.300000,69.700000
79.300000,69.200000
79.800000,69.200000
Z" /> 
<path style="fill:#000000; fill-opacity:1.000000; 
stroke:#000000; stroke-width:0.000000; stroke-opacity:1; 
stroke-linecap:round; stroke-linejoin:round;fill-rule:evenodd;"
d="M 80.700000,69.700000
80.200000,69.700000
80.200000,69.200000
80.700000,69.200000
Z" /> 
<path style="fill:#000000; fill-opacity:1.000000; 
stroke:#000000; stroke-width:0.000000; stroke-opacity:1; 
stroke-linecap:round; stroke-linejoin:round;fill-rule:evenodd;"
d="M 80.700000,68.800000
80.200000,68.800000
80.200000,68.300000
80.700000,68.300000
Z" /> 
<path style="fill:#000000; fill-opacity:1.000000; 
stroke:#000000; stroke-width:0.000000; stroke-opacity:1; 
stroke-linecap:round; stroke-linejoin:round;fill-rule:evenodd;"
d="M 79.800000,68.800000
79.300000,68.800000
79.300000,68.300000
79.800000,68.300000
Z" /> 
</g>
<g >
</g>
<g style="fill:#000000; fill-opacity:1.000000; 
stroke:#000000; stroke-width:0.000000; stroke-opacity:1; 
stroke-linecap:round; stroke-linejoin:round;">
<path style="fill:#000000; fill-opacity:1.000000; 
stroke:#000000; stroke-width:0.000000; stroke-opacity:1; 
stroke-linecap:round; stroke-linejoin:round;fill-rule:evenodd;"
d="M 70.300000,59.800000
70.300000,59.300000
70.800000,59.300000
70.800000,59.800000
Z" /> 
<path style="fill:#000000; fill-opacity:1.000000; 
stroke:#000000; stroke-width:0.000000; stroke-opacity:1; 
stroke-linecap:round; stroke-linejoin:round;fill-rule:evenodd;"
d="M 70.300000,60.700000
70.300000,60.200000
70.800000,60.200000
70.800000,60.700000
Z" /> 
<path style="fill:#000000; fill-opacity:1.000000; 
stroke:#000000; stroke-width:0.000000; stroke-opacity:1; 
stroke-linecap:round; stroke-linejoin:round;fill-rule:evenodd;"
d="M 71.200000,60.700000
71.200000,60.200000
71.700000,60.200000
71.700000,60.700000
Z" /> 
<path style="fill:#000000; fill-opacity:1.000000; 
stroke:#000000; stroke-width:0.000000; stroke-opacity:1; 
stroke-linecap:round; stroke-linejoin:round;fill-rule:evenodd;"
d="M 71.200000,59.800000
71.200000,59.300000
71.700000,59.300000
71.700000,59.800000
Z" /> 
</g>
<g >
</g>
<g style="fill:#000000; fill-opacity:1.000000; 
stroke:#000000; stroke-width:0.000000; stroke-opacity:1; 
stroke-linecap:round; stroke-linejoin:round;">
<path style="fill:#000000; fill-opacity:1.000000; 
stroke:#000000; stroke-width:0.000000; stroke-opacity:1; 
stroke-linecap:round; stroke-linejoin:round;fill-rule:evenodd;"
d="M 71.699554,54.976795
71.949554,54.543783
72.382566,54.793783
72.132566,55.226795
Z" /> 
<path style="fill:#000000; fill-opacity:1.000000; 
stroke:#000000; stroke-width:0.000000; stroke-opacity:1; 
stroke-linecap:round; stroke-linejoin:round;fill-rule:evenodd;"
d="M 71.249554,55.756217
71.499554,55.323205
71.932566,55.573205
71.682566,56.006217
Z" /> 
<path style="fill:#000000; fill-opacity:1.000000; 
stroke:#000000; stroke-width:0.000000; stroke-opacity:1; 
stroke-linecap:round; stroke-linejoin:round;fill-rule:evenodd;"
d="M 72.028976,56.206217
72.278976,55.773205
72.711988,56.023205
72.461988,56.456217
Z" /> 
<path style="fill:#000000; fill-opacity:1.000000; 
stroke:#000000; stroke-width:0.000000; stroke-opacity:1; 
stroke-linecap:round; stroke-linejoin:round;fill-rule:evenodd;"
d="M 72.478976,55.426795
72.728976,54.993783
73.161988,55.243783
72.911988,55.676795
Z" /> 
</g>
<g >
</g>
<g style="fill:#000000; fill-opacity:1.000000; 
stroke:#000000; stroke-width:0.000000; stroke-opacity:1; 
stroke-linecap:round; stroke-linejoin:round;">
<circle cx="90.000000" cy="50.000000" r="1.100000" /> 
</g>
<g style="fill:#000000; fill-opacity:1.000000; 
stroke:#000000; stroke-width:0.021200; stroke-opacity:1; 
stroke-linecap:round; stroke-linejoin:round;">
</g>
<g >
</g>
<g style="fill:#000000; fill-opacity:1.000000; 
stroke:#000000; stroke-width:0.021200; stroke-opacity:1; 
stroke-linecap:round; stroke-linejoin:round;">
</g>
<g style="fill:#000000; fill-opacity:1.000000; 
stroke:#000000; stroke-width:0.000000; stroke-opacity:1; 
stroke-linecap:round; stroke-linejoin:round;">
<path style="fill:#000000; fill-opacity:1.000000; 
stroke:#000000; stroke-width:0.000000; stroke-opacity:1; 
stroke-linecap:round; stroke-linejoin:round;fill-rule:evenodd;"
d="M 89.725000,58.050000
89.717388,58.088268
89.695711,58.120711
89.663268,58.142388
89.625000,58.150000
89.190000,58.150000
89.151732,58.142388
89.119289,58.120711
89.097612,58.088268
89.090000,58.050000
89.090000,57.850000
89.097612,57.811732
89.119289,57.779289
89.151732,57.757612
89.190000,57.750000
89.625000,57.750000
89.663268,57.757612
89.695711,57.779289
89.717388,57.811732
89.725000,57.850000
Z" /> 
<path style="fill:#000000; fill-opacity:1.000000; 
stroke:#000000; stroke-width:0.000000; stroke-opacity:1; 
stroke-linecap:round; stroke-linejoin:round;fill-rule:evenodd;"
d="M 88.910000,58.050000
88.902388,58.088268
88.880711,58.120711
88.848268,58.142388
88.810000,58.150000
88.375000,58.150000
88.336732,58.142388
88.304289,58.120711
88.282612,58.088268
88.275000,58.050000
88.275000,57.850000
88.282612,57.811732
88.304289,57.779289
88.336732,57.757612
88.375000,57.750000
88.810000,57.750000
88.848268,57.757612
88.880711,57.779289
88.902388,57.811732
88.910000,57.850000
Z" /> 
</g>
<g >
</g>
<g style="fill:#000000; fill-opacity:1.000000; 
stroke:#000000; stroke-width:0.000000; stroke-opacity:1; 
stroke-linecap:round; stroke-linejoin:round;">
<path style="fill:#000000; fill-opacity:1.000000; 
stroke:#000000; stroke-width:0.000000; stroke-opacity:1; 
stroke-linecap:round; stroke-linejoin:round;fill-rule:evenodd;"
d="M 70.335000,61.250000
70.342612,61.211732
70.364289,61.179289
70.396732,61.157612
70.435000,61.150000
70.870000,61.150000
70.908268,61.157612
70.940711,61.179289
70.962388,61.211732
70.970000,61.250000
70.970000,61.450000
70.962388,61.488268
70.940711,61.520711
70.908268,61.542388
70.870000,61.550000
70.435000,61.550000
70.396732,61.542388
70.364289,61.520711
70.342612,61.488268
70.335000,61.450000
Z" /> 
<path style="fill:#000000; fill-opacity:1.000000; 
stroke:#000000; stroke-width:0.000000; stroke-opacity:1; 
stroke-linecap:round; stroke-linejoin:round;fill-rule:evenodd;"
d="M 71.150000,61.250000
71.157612,61.211732
71.179289,61.179289
71.211732,61.157612
71.250000,61.150000
71.685000,61.150000
71.723268,61.157612
71.755711,61.179289
71.777388,61.211732
71.785000,61.250000
71.785000,61.450000
71.777388,61.488268
71.755711,61.520711
71.723268,61.542388
71.685000,61.550000
71.250000,61.550000
71.211732,61.542388
71.179289,61.520711
71.157612,61.488268
71.150000,61.450000
Z" /> 
</g>
<g >
</g>
<g style="fill:#000000; fill-opacity:1.000000; 
stroke:#000000; stroke-width:0.000000; stroke-opacity:1; 
stroke-linecap:round; stroke-linejoin:round;">
<path style="fill:#000000; fill-opacity:1.000000; 
stroke:#000000; stroke-width:0.000000; stroke-opacity:1; 
stroke-linecap:round; stroke-linejoin:round;fill-rule:evenodd;"
d="M 88.532500,57.212500
88.527742,57.236418
88.514194,57.256694
88.493918,57.270242
88.470000,57.275000
88.235000,57.275000
88.211082,57.270242
88.190806,57.256694
88.177258,57.236418
88.172500,57.212500
88.172500,57.087500
88.177258,57.063582
88.190806,57.043306
88.211082,57.029758
88.235000,57.025000
88.470000,57.025000
88.493918,57.029758
88.514194,57.043306
88.527742,57.063582
88.532500,57.087500
Z" /> 
<path style="fill:#000000; fill-opacity:1.000000; 
stroke:#000000; stroke-width:0.000000; stroke-opacity:1; 
stroke-linecap:round; stroke-linejoin:round;fill-rule:evenodd;"
d="M 89.372500,57.212500
89.367742,57.236418
89.354194,57.256694
89.333918,57.270242
89.310000,57.275000
89.075000,57.275000
89.051082,57.270242
89.030806,57.256694
89.017258,57.236418
89.012500,57.212500
89.012500,57.087500
89.017258,57.063582
89.030806,57.043306
89.051082,57.029758
89.075000,57.025000
89.310000,57.025000
89.333918,57.029758
89.354194,57.043306
89.367742,57.063582
89.372500,57.087500
Z" /> 
</g>
<g >
</g>
<g style="fill:#000000; fill-opacity:1.000000; 
stroke:#000000; stroke-width:0.000000; stroke-opacity:1; 
stroke-linecap:round; stroke-linejoin:round;">
<path style="fill:#000000; fill-opacity:1.000000; 
stroke:#000000; stroke-width:0.000000; stroke-opacity:1; 
stroke-linecap:round; stroke-linejoin:round;fill-rule:evenodd;"
d="M 72.254865,65.915031
72.242323,65.878084
72.244874,65.839149
72.262132,65.804155
72.291467,65.778429
72.668189,65.560929
72.705136,65.548387
72.744071,65.550938
72.779065,65.568196
72.804791,65.597531
72.904791,65.770737
72.917333,65.807684
72.914782,65.846619
72.897524,65.881613
72.868189,65.907339
72.491467,66.124839
72.454520,66.137381
72.415585,66.134830
72.380591,66.117572
72.354865,66.088237
Z" /> 
<path style="fill:#000000; fill-opacity:1.000000; 
stroke:#000000; stroke-width:0.000000; stroke-opacity:1; 
stroke-linecap:round; stroke-linejoin:round;fill-rule:evenodd;"
d="M 72.960675,65.507531
72.948133,65.470584
72.950684,65.431649
72.967942,65.396655
72.997277,65.370929
73.373999,65.153429
73.410946,65.140887
73.449881,65.143438
73.484875,65.160696
73.510601,65.190031
73.610601,65.363237
73.623143,65.400184
73.620592,65.439119
73.603334,65.474113
73.573999,65.499839
73.197277,65.717339
73.160330,65.729881
73.121395,65.727330
73.086401,65.710072
73.060675,65.680737
Z" /> 
</g>
<g >
</g>
<g style="fill:#000000; fill-opacity:1.000000; 
stroke:#000000; stroke-width:0.000000; stroke-opacity:1; 
stroke-linecap:round; stroke-linejoin:round;">
<path style="fill:#000000; fill-opacity:1.000000; 
stroke:#000000; stroke-width:0.000000; stroke-opacity:1; 
stroke-linecap:round; stroke-linejoin:round;fill-rule:evenodd;"
d="M 76.250031,68.995135
76.220696,68.969409
76.203438,68.934415
76.200887,68.895480
76.213429,68.858533
76.430929,68.481811
76.456655,68.452476
76.491649,68.435218
76.530584,68.432667
76.567531,68.445209
76.740737,68.545209
76.770072,68.570935
76.787330,68.605929
76.789881,68.644864
76.777339,68.681811
76.559839,69.058533
76.534113,69.087868
76.499119,69.105126
76.460184,69.107677
76.423237,69.095135
Z" /> 
<path style="fill:#000000; fill-opacity:1.000000; 
stroke:#000000; stroke-width:0.000000; stroke-opacity:1; 
stroke-linecap:round; stroke-linejoin:round;fill-rule:evenodd;"
d="M 76.657531,68.289325
76.628196,68.263599
76.610938,68.228605
76.608387,68.189670
76.620929,68.152723
76.838429,67.776001
76.864155,67.746666
76.899149,67.729408
76.938084,67.726857
76.975031,67.739399
77.148237,67.839399
77.177572,67.865125
77.194830,67.900119
77.197381,67.939054
77.184839,67.976001
76.967339,68.352723
76.941613,68.382058
76.906619,68.399316
76.867684,68.401867
76.830737,68.389325
Z" /> 
</g>
<g >
</g>
<g >
</g>
<g style="fill:#000000; fill-opacity:1.000000; 
stroke:#000000; stroke-width:0.000000; stroke-opacity:1; 
stroke-linecap:round; stroke-linejoin:round;">
<circle cx="70.000000" cy="50.000000" r="1.100000" /> 
</g>
<g style="fill:#000000; fill-opacity:1.000000; 
stroke:#000000; stroke-width:0.021200; stroke-opacity:1; 
stroke-linecap:round; stroke-linejoin:round;">
</g>
<g >
</g>
<g style="fill:#000000; fill-opacity:1.000000; 
stroke:#000000; stroke-width:0.021200; stroke-opacity:1; 
stroke-linecap:round; stroke-linejoin:round;">
</g>
<g style="fill:#000000; fill-opacity:1.000000; 
stroke:#000000; stroke-width:0.000000; stroke-opacity:1; 
stroke-linecap:round; stroke-linejoin:round;">
<path style="fill:#000000; fill-opacity:1.000000; 
stroke:#000000; stroke-width:0.000000; stroke-opacity:1; 
stroke-linecap:round; stroke-linejoin:round;fill-rule:evenodd;"
d="M 85.915031,67.745135
85.878084,67.757677
85.839149,67.755126
85.804155,67.737868
85.778429,67.708533
85.560929,67.331811
85.548387,67.294864
85.550938,67.255929
85.568196,67.220935
85.597531,67.195209
85.770737,67.095209
85.807684,67.082667
85.846619,67.085218
85.881613,67.102476
85.907339,67.131811
86.124839,67.508533
86.137381,67.545480
86.134830,67.584415
86.117572,67.619409
86.088237,67.645135
Z" /> 
<path style="fill:#000000; fill-opacity:1.000000; 
stroke:#000000; stroke-width:0.000000; stroke-opacity:1; 
stroke-linecap:round; stroke-linejoin:round;fill-rule:evenodd;"
d="M 85.507531,67.039325
85.470584,67.051867
85.431649,67.049316
85.396655,67.032058
85.370929,67.002723
85.153429,66.626001
85.140887,66.589054
85.143438,66.550119
85.160696,66.515125
85.190031,66.489399
85.363237,66.389399
85.400184,66.376857
85.439119,66.379408
85.474113,66.396666
85.499839,66.426001
85.717339,66.802723
85.729881,66.839670
85.727330,66.878605
85.710072,66.913599
85.680737,66.939325
Z" /> 
</g>
<g >
</g>
<g style="fill:#000000; fill-opacity:1.000000; 
stroke:#000000; stroke-width:0.000000; stroke-opacity:1; 
stroke-linecap:round; stroke-linejoin:round;">
<path style="fill:#000000; fill-opacity:1.000000; 
stroke:#000000; stroke-width:0.000000; stroke-opacity:1; 
stroke-linecap:round; stroke-linejoin:round;fill-rule:evenodd;"
d="M 71.004865,56.250031
71.030591,56.220696
71.065585,56.203438
71.104520,56.200887
71.141467,56.213429
71.518189,56.430929
71.547524,56.456655
71.564782,56.491649
71.567333,56.530584
71.554791,56.567531
71.454791,56.740737
71.429065,56.770072
71.394071,56.787330
71.355136,56.789881
71.318189,56.777339
70.941467,56.559839
70.912132,56.534113
70.894874,56.499119
70.892323,56.460184
70.904865,56.423237
Z" /> 
<path style="fill:#000000; fill-opacity:1.000000; 
stroke:#000000; stroke-width:0.000000; stroke-opacity:1; 
stroke-linecap:round; stroke-linejoin:round;fill-rule:evenodd;"
d="M 71.710675,56.657531
71.736401,56.628196
71.771395,56.610938
71.810330,56.608387
71.847277,56.620929
72.223999,56.838429
72.253334,56.864155
72.270592,56.899149
72.273143,56.938084
72.260601,56.975031
72.160601,57.148237
72.134875,57.177572
72.099881,57.194830
72.060946,57.197381
72.023999,57.184839
71.647277,56.967339
71.617942,56.941613
71.600684,56.906619
71.598133,56.867684
71.610675,56.830737
Z" /> 
</g>
<g >
</g>
<g style="fill:#000000; fill-opacity:1.000000; 
stroke:#000000; stroke-width:0.000000; stroke-opacity:1; 
stroke-linecap:round; stroke-linejoin:round;">
<path style="fill:#000000; fill-opacity:1.000000; 
stroke:#000000; stroke-width:0.000000; stroke-opacity:1; 
stroke-linecap:round; stroke-linejoin:round;fill-rule:evenodd;"
d="M 81.250000,69.665000
81.211732,69.657388
81.179289,69.635711
81.157612,69.603268
81.150000,69.565000
81.150000,69.130000
81.157612,69.091732
81.179289,69.059289
81.211732,69.037612
81.250000,69.030000
81.450000,69.030000
81.488268,69.037612
81.520711,69.059289
81.542388,69.091732
81.550000,69.130000
81.550000,69.565000
81.542388,69.603268
81.520711,69.635711
81.488268,69.657388
81.450000,69.665000
Z" /> 
<path style="fill:#000000; fill-opacity:1.000000; 
stroke:#000000; stroke-width:0.000000; stroke-opacity:1; 
stroke-linecap:round; stroke-linejoin:round;fill-rule:evenodd;"
d="M 81.250000,68.850000
81.211732,68.842388
81.179289,68.820711
81.157612,68.788268
81.150000,68.750000
81.150000,68.315000
81.157612,68.276732
81.179289,68.244289
81.211732,68.222612
81.250000,68.215000
81.450000,68.215000
81.488268,68.222612
81.520711,68.244289
81.542388,68.276732
81.550000,68.315000
81.550000,68.750000
81.542388,68.788268
81.520711,68.820711
81.488268,68.842388
81.450000,68.850000
Z" /> 
</g>
<g >
</g>
<g style="fill:#000000; fill-opacity:1.000000; 
stroke:#000000; stroke-width:0.000000; stroke-opacity:1; 
stroke-linecap:round; stroke-linejoin:round;">
<path style="fill:#000000; fill-opacity:1.000000; 
stroke:#000000; stroke-width:0.000000; stroke-opacity:1; 
stroke-linecap:round; stroke-linejoin:round;fill-rule:evenodd;"
d="M 88.500446,55.323205
88.750446,55.756217
88.317434,56.006217
88.067434,55.573205
Z" /> 
<path style="fill:#000000; fill-opacity:1.000000; 
stroke:#000000; stroke-width:0.000000; stroke-opacity:1; 
stroke-linecap:round; stroke-linejoin:round;fill-rule:evenodd;"
d="M 88.050446,54.543783
88.300446,54.976795
87.867434,55.226795
87.617434,54.793783
Z" /> 
<path style="fill:#000000; fill-opacity:1.000000; 
stroke:#000000; stroke-width:0.000000; stroke-opacity:1; 
stroke-linecap:round; stroke-linejoin:round;fill-rule:evenodd;"
d="M 87.271024,54.993783
87.521024,55.426795
87.088012,55.676795
86.838012,55.243783
Z" /> 
<path style="fill:#000000; fill-opacity:1.000000; 
stroke:#000000; stroke-width:0.000000; stroke-opacity:1; 
stroke-linecap:round; stroke-linejoin:round;fill-rule:evenodd;"
d="M 87.721024,55.773205
87.971024,56.206217
87.538012,56.456217
87.288012,56.023205
Z" /> 
</g>
<g >
</g>
<g style="fill:#000000; fill-opacity:1.000000; 
stroke:#000000; stroke-width:0.000000; stroke-opacity:1; 
stroke-linecap:round; stroke-linejoin:round;">
<path style="fill:#000000; fill-opacity:1.000000; 
stroke:#000000; stroke-width:0.000000; stroke-opacity:1; 
stroke-linecap:round; stroke-linejoin:round;fill-rule:evenodd;"
d="M 88.425000,58.550000
88.432612,58.511732
88.454289,58.479289
88.486732,58.457612
88.525000,58.450000
88.960000,58.450000
88.998268,58.457612
89.030711,58.479289
89.052388,58.511732
89.060000,58.550000
89.060000,58.750000
89.052388,58.788268
89.030711,58.820711
88.998268,58.842388
88.960000,58.850000
88.525000,58.850000
88.486732,58.842388
88.454289,58.820711
88.432612,58.788268
88.425000,58.750000
Z" /> 
<path style="fill:#000000; fill-opacity:1.000000; 
stroke:#000000; stroke-width:0.000000; stroke-opacity:1; 
stroke-linecap:round; stroke-linejoin:round;fill-rule:evenodd;"
d="M 89.240000,58.550000
89.247612,58.511732
89.269289,58.479289
89.301732,58.457612
89.340000,58.450000
89.775000,58.450000
89.813268,58.457612
89.845711,58.479289
89.867388,58.511732
89.875000,58.550000
89.875000,58.750000
89.867388,58.788268
89.845711,58.820711
89.813268,58.842388
89.775000,58.850000
89.340000,58.850000
89.301732,58.842388
89.269289,58.820711
89.247612,58.788268
89.240000,58.750000
Z" /> 
</g>
<g >
</g>
<g style="fill:#000000; fill-opacity:1.000000; 
stroke:#000000; stroke-width:0.000000; stroke-opacity:1; 
stroke-linecap:round; stroke-linejoin:round;">
<path style="fill:#000000; fill-opacity:1.000000; 
stroke:#000000; stroke-width:0.000000; stroke-opacity:1; 
stroke-linecap:round; stroke-linejoin:round;fill-rule:evenodd;"
d="M 87.745135,54.084969
87.757677,54.121916
87.755126,54.160851
87.737868,54.195845
87.708533,54.221571
87.331811,54.439071
87.294864,54.451613
87.255929,54.449062
87.220935,54.431804
87.195209,54.402469
87.095209,54.229263
87.082667,54.192316
87.085218,54.153381
87.102476,54.118387
87.131811,54.092661
87.508533,53.875161
87.545480,53.862619
87.584415,53.865170
87.619409,53.882428
87.645135,53.911763
Z" /> 
<path style="fill:#000000; fill-opacity:1.000000; 
stroke:#000000; stroke-width:0.000000; stroke-opacity:1; 
stroke-linecap:round; stroke-linejoin:round;fill-rule:evenodd;"
d="M 87.039325,54.492469
87.051867,54.529416
87.049316,54.568351
87.032058,54.603345
87.002723,54.629071
86.626001,54.846571
86.589054,54.859113
86.550119,54.856562
86.515125,54.839304
86.489399,54.809969
86.389399,54.636763
86.376857,54.599816
86.379408,54.560881
86.396666,54.525887
86.426001,54.500161
86.802723,54.282661
86.839670,54.270119
86.878605,54.272670
86.913599,54.289928
86.939325,54.319263
Z" /> 
</g>
<g >
</g>
<g style="fill:#000000; fill-opacity:1.000000; 
stroke:#000000; stroke-width:0.000000; stroke-opacity:1; 
stroke-linecap:round; stroke-linejoin:round;">
<path style="fill:#000000; fill-opacity:1.000000; 
stroke:#000000; stroke-width:0.000000; stroke-opacity:1; 
stroke-linecap:round; stroke-linejoin:round;fill-rule:evenodd;"
d="M 75.323205,51.499554
75.756217,51.249554
76.006217,51.682566
75.573205,51.932566
Z" /> 
<path style="fill:#000000; fill-opacity:1.000000; 
stroke:#000000; stroke-width:0.000000; stroke-opacity:1; 
stroke-linecap:round; stroke-linejoin:round;fill-rule:evenodd;"
d="M 74.543783,51.949554
74.976795,51.699554
75.226795,52.132566
74.793783,52.382566
Z" /> 
<path style="fill:#000000; fill-opacity:1.000000; 
stroke:#000000; stroke-width:0.000000; stroke-opacity:1; 
stroke-linecap:round; stroke-linejoin:round;fill-rule:evenodd;"
d="M 74.993783,52.728976
75.426795,52.478976
75.676795,52.911988
75.243783,53.161988
Z" /> 
<path style="fill:#000000; fill-opacity:1.000000; 
stroke:#000000; stroke-width:0.000000; stroke-opacity:1; 
stroke-linecap:round; stroke-linejoin:round;fill-rule:evenodd;"
d="M 75.773205,52.278976
76.206217,52.028976
76.456217,52.461988
76.023205,52.711988
Z" /> 
</g>
<g >
</g>
<g style="fill:#000000; fill-opacity:1.000000; 
stroke:#000000; stroke-width:0.000000; stroke-opacity:1; 
stroke-linecap:round; stroke-linejoin:round;">
<path style="fill:#000000; fill-opacity:1.000000; 
stroke:#000000; stroke-width:0.000000; stroke-opacity:1; 
stroke-linecap:round; stroke-linejoin:round;fill-rule:evenodd;"
d="M 88.995135,63.749969
88.969409,63.779304
88.934415,63.796562
88.895480,63.799113
88.858533,63.786571
88.481811,63.569071
88.452476,63.543345
88.435218,63.508351
88.432667,63.469416
88.445209,63.432469
88.545209,63.259263
88.570935,63.229928
88.605929,63.212670
88.644864,63.210119
88.681811,63.222661
89.058533,63.440161
89.087868,63.465887
89.105126,63.500881
89.107677,63.539816
89.095135,63.576763
Z" /> 
<path style="fill:#000000; fill-opacity:1.000000; 
stroke:#000000; stroke-width:0.000000; stroke-opacity:1; 
stroke-linecap:round; stroke-linejoin:round;fill-rule:evenodd;"
d="M 88.289325,63.342469
88.263599,63.371804
88.228605,63.389062
88.189670,63.391613
88.152723,63.379071
87.776001,63.161571
87.746666,63.135845
87.729408,63.100851
87.726857,63.061916
87.739399,63.024969
87.839399,62.851763
87.865125,62.822428
87.900119,62.805170
87.939054,62.802619
87.976001,62.815161
88.352723,63.032661
88.382058,63.058387
88.399316,63.093381
88.401867,63.132316
88.389325,63.169263
Z" /> 
</g>
<g >
</g>
<g style="fill:#000000; fill-opacity:1.000000; 
stroke:#000000; stroke-width:0.000000; stroke-opacity:1; 
stroke-linecap:round; stroke-linejoin:round;">
<path style="fill:#000000; fill-opacity:1.000000; 
stroke:#000000; stroke-width:0.000000; stroke-opacity:1; 
stroke-linecap:round; stroke-linejoin:round;fill-rule:evenodd;"
d="M 74.976795,68.300446
74.543783,68.050446
74.793783,67.617434
75.226795,67.867434
Z" /> 
<path style="fill:#000000; fill-opacity:1.000000; 
stroke:#000000; stroke-width:0.000000; stroke-opacity:1; 
stroke-linecap:round; stroke-linejoin:round;fill-rule:evenodd;"
d="M 75.756217,68.750446
75.323205,68.500446
75.573205,68.067434
76.006217,68.317434
Z" /> 
<path style="fill:#000000; fill-opacity:1.000000; 
stroke:#000000; stroke-width:0.000000; stroke-opacity:1; 
stroke-linecap:round; stroke-linejoin:round;fill-rule:evenodd;"
d="M 76.206217,67.971024
75.773205,67.721024
76.023205,67.288012
76.456217,67.538012
Z" /> 
<path style="fill:#000000; fill-opacity:1.000000; 
stroke:#000000; stroke-width:0.000000; stroke-opacity:1; 
stroke-linecap:round; stroke-linejoin:round;fill-rule:evenodd;"
d="M 75.426795,67.521024
74.993783,67.271024
75.243783,66.838012
75.676795,67.088012
Z" /> 
</g>
<g >
</g>
<g style="fill:#000000; fill-opacity:1.000000; 
stroke:#000000; stroke-width:0.000000; stroke-opacity:1; 
stroke-linecap:round; stroke-linejoin:round;">
<path style="fill:#000000; fill-opacity:1.000000; 
stroke:#000000; stroke-width:0.000000; stroke-opacity:1; 
stroke-linecap:round; stroke-linejoin:round;fill-rule:evenodd;"
d="M 85.023205,51.699554
85.456217,51.949554
85.206217,52.382566
84.773205,52.132566
Z" /> 
<path style="fill:#000000; fill-opacity:1.000000; 
stroke:#000000; stroke-width:0.000000; stroke-opacity:1; 
stroke-linecap:round; stroke-linejoin:round;fill-rule:evenodd;"
d="M 84.243783,51.249554
84.676795,51.499554
84.426795,51.932566
83.993783,51.682566
Z" /> 
<path style="fill:#000000; fill-opacity:1.000000; 
stroke:#000000; stroke-width:0.000000; stroke-opacity:1; 
stroke-linecap:round; stroke-linejoin:round;fill-rule:evenodd;"
d="M 83.793783,52.028976
84.226795,52.278976
83.976795,52.711988
83.543783,52.461988
Z" /> 
<path style="fill:#000000; fill-opacity:1.000000; 
stroke:#000000; stroke-width:0.000000; stroke-opacity:1; 
stroke-linecap:round; stroke-linejoin:round;fill-rule:evenodd;"
d="M 84.573205,52.478976
85.006217,52.728976
84.756217,53.161988
84.323205,52.911988
Z" /> 
</g>
<g >
</g>
<g style="fill:#000000; fill-opacity:1.000000; 
stroke:#000000; stroke-width:0.000000; stroke-opacity:1; 
stroke-linecap:round; stroke-linejoin:round;">
<path style="fill:#000000; fill-opacity:1.000000; 
stroke:#000000; stroke-width:0.000000; stroke-opacity:1; 
stroke-linecap:round; stroke-linejoin:round;fill-rule:evenodd;"
d="M 89.635000,61.780000
89.627388,61.818268
89.605711,61.850711
89.573268,61.872388
89.535000,61.880000
89.100000,61.880000
89.061732,61.872388
89.029289,61.850711
89.007612,61.818268
89.000000,61.780000
89.000000,61.580000
89.007612,61.541732
89.029289,61.509289
89.061732,61.487612
89.100000,61.480000
89.535000,61.480000
89.573268,61.487612
89.605711,61.509289
89.627388,61.541732
89.635000,61.580000
Z" /> 
<path style="fill:#000000; fill-opacity:1.000000; 
stroke:#000000; stroke-width:0.000000; stroke-opacity:1; 
stroke-linecap:round; stroke-linejoin:round;fill-rule:evenodd;"
d="M 88.820000,61.780000
88.812388,61.818268
88.790711,61.850711
88.758268,61.872388
88.720000,61.880000
88.285000,61.880000
88.246732,61.872388
88.214289,61.850711
88.192612,61.818268
88.185000,61.780000
88.185000,61.580000
88.192612,61.541732
88.214289,61.509289
88.246732,61.487612
88.285000,61.480000
88.720000,61.480000
88.758268,61.487612
88.790711,61.509289
88.812388,61.541732
88.820000,61.580000
Z" /> 
</g>
<g >
</g>
<g style="fill:#000000; fill-opacity:1.000000; 
stroke:#000000; stroke-width:0.000000; stroke-opacity:1; 
stroke-linecap:round; stroke-linejoin:round;">
<circle cx="70.000000" cy="70.000000" r="1.100000" /> 
</g>
<g style="fill:#000000; fill-opacity:1.000000; 
stroke:#000000; stroke-width:0.021200; stroke-opacity:1; 
stroke-linecap:round; stroke-linejoin:round;">
</g>
<g >
</g>
<g style="fill:#000000; fill-opacity:1.000000; 
stroke:#000000; stroke-width:0.021200; stroke-opacity:1; 
stroke-linecap:round; stroke-linejoin:round;">
</g>
<g style="fill:#000000; fill-opacity:1.000000; 
stroke:#000000; stroke-width:0.000000; stroke-opacity:1; 
stroke-linecap:round; stroke-linejoin:round;">
<path style="fill:#000000; fill-opacity:1.000000; 
stroke:#000000; stroke-width:0.000000; stroke-opacity:1; 
stroke-linecap:round; stroke-linejoin:round;fill-rule:evenodd;"
d="M 83.749969,51.004865
83.779304,51.030591
83.796562,51.065585
83.799113,51.104520
83.786571,51.141467
83.569071,51.518189
83.543345,51.547524
83.508351,51.564782
83.469416,51.567333
83.432469,51.554791
83.259263,51.454791
83.229928,51.429065
83.212670,51.394071
83.210119,51.355136
83.222661,51.318189
83.440161,50.941467
83.465887,50.912132
83.500881,50.894874
83.539816,50.892323
83.576763,50.904865
Z" /> 
<path style="fill:#000000; fill-opacity:1.000000; 
stroke:#000000; stroke-width:0.000000; stroke-opacity:1; 
stroke-linecap:round; stroke-linejoin:round;fill-rule:evenodd;"
d="M 83.342469,51.710675
83.371804,51.736401
83.389062,51.771395
83.391613,51.810330
83.379071,51.847277
83.161571,52.223999
83.135845,52.253334
83.100851,52.270592
83.061916,52.273143
83.024969,52.260601
82.851763,52.160601
82.822428,52.134875
82.805170,52.099881
82.802619,52.060946
82.815161,52.023999
83.032661,51.647277
83.058387,51.617942
83.093381,51.600684
83.132316,51.598133
83.169263,51.610675
Z" /> 
</g>
<g >
</g>
<g >
</g>
<g >
</g>
<g >
</g>
<g >
</g>
</g> 
</svg>
