<?xml version="1.0" standalone="no"?>
 <!DOCTYPE svg PUBLIC "-//W3C//DTD SVG 1.1//EN" 
 "http://www.w3.org/Graphics/SVG/1.1/DTD/svg11.dtd"> 
<svg
  xmlns:svg="http://www.w3.org/2000/svg"
  xmlns="http://www.w3.org/2000/svg"
  xmlns:xlink="http://www.w3.org/1999/xlink"
  version="1.1"
  width="3.8100000000000005cm" height="3.0100000000000002cm" viewBox="64.95 44.95 38.1 30.1">
<title>SVG Image created as pedalboard-led-ring-F_Mask.svg date 2023/05/26 11:31:04 </title>
  <desc>Image generated by PCBNEW </desc>
<g style="fill:#000000; fill-opacity:1.000000;stroke:#000000; stroke-opacity:1.000000;
stroke-linecap:round; stroke-linejoin:round;"
 transform="translate(0 0) scale(1 1)">
</g>
<g style="fill:#000000; fill-opacity:0.0; 
stroke:#000000; stroke-width:0.000000; stroke-opacity:1; 
stroke-linecap:round; stroke-linejoin:round;">
<g >
</g>
<g style="fill:#000000; fill-opacity:0.0; 
stroke:#000000; stroke-width:0.000000; stroke-opacity:1; 
stroke-linecap:round; stroke-linejoin:round;">
</g>
<g style="fill:#000000; fill-opacity:1.000000; 
stroke:#000000; stroke-width:0.000000; stroke-opacity:1; 
stroke-linecap:round; stroke-linejoin:round;">
<path style="fill:#000000; fill-opacity:1.000000; 
stroke:#000000; stroke-width:0.000000; stroke-opacity:1; 
stroke-linecap:round; stroke-linejoin:round;fill-rule:evenodd;"
d="M 87.819890,54.716439
88.469410,54.341439
88.884410,55.060241
88.234890,55.435241
Z" /> 
<path style="fill:#000000; fill-opacity:1.000000; 
stroke:#000000; stroke-width:0.000000; stroke-opacity:1; 
stroke-linecap:round; stroke-linejoin:round;fill-rule:evenodd;"
d="M 87.230994,55.056439
87.664006,54.806439
88.079006,55.525241
87.645994,55.775241
Z" /> 
<path style="fill:#000000; fill-opacity:1.000000; 
stroke:#000000; stroke-width:0.000000; stroke-opacity:1; 
stroke-linecap:round; stroke-linejoin:round;fill-rule:evenodd;"
d="M 86.425590,55.521439
87.075110,55.146439
87.490110,55.865241
86.840590,56.240241
Z" /> 
<path style="fill:#000000; fill-opacity:1.000000; 
stroke:#000000; stroke-width:0.000000; stroke-opacity:1; 
stroke-linecap:round; stroke-linejoin:round;fill-rule:evenodd;"
d="M 87.215590,56.889759
87.865110,56.514759
88.280110,57.233561
87.630590,57.608561
Z" /> 
<path style="fill:#000000; fill-opacity:1.000000; 
stroke:#000000; stroke-width:0.000000; stroke-opacity:1; 
stroke-linecap:round; stroke-linejoin:round;fill-rule:evenodd;"
d="M 88.020994,56.424759
88.454006,56.174759
88.869006,56.893561
88.435994,57.143561
Z" /> 
<path style="fill:#000000; fill-opacity:1.000000; 
stroke:#000000; stroke-width:0.000000; stroke-opacity:1; 
stroke-linecap:round; stroke-linejoin:round;fill-rule:evenodd;"
d="M 88.609890,56.084759
89.259410,55.709759
89.674410,56.428561
89.024890,56.803561
Z" /> 
</g>
<g >
</g>
<g style="fill:#000000; fill-opacity:1.000000; 
stroke:#000000; stroke-width:0.000000; stroke-opacity:1; 
stroke-linecap:round; stroke-linejoin:round;">
<path style="fill:#000000; fill-opacity:1.000000; 
stroke:#000000; stroke-width:0.000000; stroke-opacity:1; 
stroke-linecap:round; stroke-linejoin:round;fill-rule:evenodd;"
d="M 81.205000,69.430000
81.205000,70.180000
80.375000,70.180000
80.375000,69.430000
Z" /> 
<path style="fill:#000000; fill-opacity:1.000000; 
stroke:#000000; stroke-width:0.000000; stroke-opacity:1; 
stroke-linecap:round; stroke-linejoin:round;fill-rule:evenodd;"
d="M 81.205000,68.750000
81.205000,69.250000
80.375000,69.250000
80.375000,68.750000
Z" /> 
<path style="fill:#000000; fill-opacity:1.000000; 
stroke:#000000; stroke-width:0.000000; stroke-opacity:1; 
stroke-linecap:round; stroke-linejoin:round;fill-rule:evenodd;"
d="M 81.205000,67.820000
81.205000,68.570000
80.375000,68.570000
80.375000,67.820000
Z" /> 
<path style="fill:#000000; fill-opacity:1.000000; 
stroke:#000000; stroke-width:0.000000; stroke-opacity:1; 
stroke-linecap:round; stroke-linejoin:round;fill-rule:evenodd;"
d="M 79.625000,67.820000
79.625000,68.570000
78.795000,68.570000
78.795000,67.820000
Z" /> 
<path style="fill:#000000; fill-opacity:1.000000; 
stroke:#000000; stroke-width:0.000000; stroke-opacity:1; 
stroke-linecap:round; stroke-linejoin:round;fill-rule:evenodd;"
d="M 79.625000,68.750000
79.625000,69.250000
78.795000,69.250000
78.795000,68.750000
Z" /> 
<path style="fill:#000000; fill-opacity:1.000000; 
stroke:#000000; stroke-width:0.000000; stroke-opacity:1; 
stroke-linecap:round; stroke-linejoin:round;fill-rule:evenodd;"
d="M 79.625000,69.430000
79.625000,70.180000
78.795000,70.180000
78.795000,69.430000
Z" /> 
</g>
<g >
</g>
<g style="fill:#000000; fill-opacity:1.000000; 
stroke:#000000; stroke-width:0.000000; stroke-opacity:1; 
stroke-linecap:round; stroke-linejoin:round;">
<path style="fill:#000000; fill-opacity:1.000000; 
stroke:#000000; stroke-width:0.000000; stroke-opacity:1; 
stroke-linecap:round; stroke-linejoin:round;fill-rule:evenodd;"
d="M 78.795000,50.570000
78.795000,49.820000
79.625000,49.820000
79.625000,50.570000
Z" /> 
<path style="fill:#000000; fill-opacity:1.000000; 
stroke:#000000; stroke-width:0.000000; stroke-opacity:1; 
stroke-linecap:round; stroke-linejoin:round;fill-rule:evenodd;"
d="M 78.795000,51.250000
78.795000,50.750000
79.625000,50.750000
79.625000,51.250000
Z" /> 
<path style="fill:#000000; fill-opacity:1.000000; 
stroke:#000000; stroke-width:0.000000; stroke-opacity:1; 
stroke-linecap:round; stroke-linejoin:round;fill-rule:evenodd;"
d="M 78.795000,52.180000
78.795000,51.430000
79.625000,51.430000
79.625000,52.180000
Z" /> 
<path style="fill:#000000; fill-opacity:1.000000; 
stroke:#000000; stroke-width:0.000000; stroke-opacity:1; 
stroke-linecap:round; stroke-linejoin:round;fill-rule:evenodd;"
d="M 80.375000,52.180000
80.375000,51.430000
81.205000,51.430000
81.205000,52.180000
Z" /> 
<path style="fill:#000000; fill-opacity:1.000000; 
stroke:#000000; stroke-width:0.000000; stroke-opacity:1; 
stroke-linecap:round; stroke-linejoin:round;fill-rule:evenodd;"
d="M 80.375000,51.250000
80.375000,50.750000
81.205000,50.750000
81.205000,51.250000
Z" /> 
<path style="fill:#000000; fill-opacity:1.000000; 
stroke:#000000; stroke-width:0.000000; stroke-opacity:1; 
stroke-linecap:round; stroke-linejoin:round;fill-rule:evenodd;"
d="M 80.375000,50.570000
80.375000,49.820000
81.205000,49.820000
81.205000,50.570000
Z" /> 
</g>
<g >
</g>
<g style="fill:#000000; fill-opacity:1.000000; 
stroke:#000000; stroke-width:0.000000; stroke-opacity:1; 
stroke-linecap:round; stroke-linejoin:round;">
<path style="fill:#000000; fill-opacity:1.000000; 
stroke:#000000; stroke-width:0.000000; stroke-opacity:1; 
stroke-linecap:round; stroke-linejoin:round;fill-rule:evenodd;"
d="M 72.180110,65.283561
71.530590,65.658561
71.115590,64.939759
71.765110,64.564759
Z" /> 
<path style="fill:#000000; fill-opacity:1.000000; 
stroke:#000000; stroke-width:0.000000; stroke-opacity:1; 
stroke-linecap:round; stroke-linejoin:round;fill-rule:evenodd;"
d="M 72.769006,64.943561
72.335994,65.193561
71.920994,64.474759
72.354006,64.224759
Z" /> 
<path style="fill:#000000; fill-opacity:1.000000; 
stroke:#000000; stroke-width:0.000000; stroke-opacity:1; 
stroke-linecap:round; stroke-linejoin:round;fill-rule:evenodd;"
d="M 73.574410,64.478561
72.924890,64.853561
72.509890,64.134759
73.159410,63.759759
Z" /> 
<path style="fill:#000000; fill-opacity:1.000000; 
stroke:#000000; stroke-width:0.000000; stroke-opacity:1; 
stroke-linecap:round; stroke-linejoin:round;fill-rule:evenodd;"
d="M 72.784410,63.110241
72.134890,63.485241
71.719890,62.766439
72.369410,62.391439
Z" /> 
<path style="fill:#000000; fill-opacity:1.000000; 
stroke:#000000; stroke-width:0.000000; stroke-opacity:1; 
stroke-linecap:round; stroke-linejoin:round;fill-rule:evenodd;"
d="M 71.979006,63.575241
71.545994,63.825241
71.130994,63.106439
71.564006,62.856439
Z" /> 
<path style="fill:#000000; fill-opacity:1.000000; 
stroke:#000000; stroke-width:0.000000; stroke-opacity:1; 
stroke-linecap:round; stroke-linejoin:round;fill-rule:evenodd;"
d="M 71.390110,63.915241
70.740590,64.290241
70.325590,63.571439
70.975110,63.196439
Z" /> 
</g>
<g >
</g>
<g style="fill:#000000; fill-opacity:1.000000; 
stroke:#000000; stroke-width:0.000000; stroke-opacity:1; 
stroke-linecap:round; stroke-linejoin:round;">
<path style="fill:#000000; fill-opacity:1.000000; 
stroke:#000000; stroke-width:0.000000; stroke-opacity:1; 
stroke-linecap:round; stroke-linejoin:round;fill-rule:evenodd;"
d="M 70.975110,56.803561
70.325590,56.428561
70.740590,55.709759
71.390110,56.084759
Z" /> 
<path style="fill:#000000; fill-opacity:1.000000; 
stroke:#000000; stroke-width:0.000000; stroke-opacity:1; 
stroke-linecap:round; stroke-linejoin:round;fill-rule:evenodd;"
d="M 71.564006,57.143561
71.130994,56.893561
71.545994,56.174759
71.979006,56.424759
Z" /> 
<path style="fill:#000000; fill-opacity:1.000000; 
stroke:#000000; stroke-width:0.000000; stroke-opacity:1; 
stroke-linecap:round; stroke-linejoin:round;fill-rule:evenodd;"
d="M 72.369410,57.608561
71.719890,57.233561
72.134890,56.514759
72.784410,56.889759
Z" /> 
<path style="fill:#000000; fill-opacity:1.000000; 
stroke:#000000; stroke-width:0.000000; stroke-opacity:1; 
stroke-linecap:round; stroke-linejoin:round;fill-rule:evenodd;"
d="M 73.159410,56.240241
72.509890,55.865241
72.924890,55.146439
73.574410,55.521439
Z" /> 
<path style="fill:#000000; fill-opacity:1.000000; 
stroke:#000000; stroke-width:0.000000; stroke-opacity:1; 
stroke-linecap:round; stroke-linejoin:round;fill-rule:evenodd;"
d="M 72.354006,55.775241
71.920994,55.525241
72.335994,54.806439
72.769006,55.056439
Z" /> 
<path style="fill:#000000; fill-opacity:1.000000; 
stroke:#000000; stroke-width:0.000000; stroke-opacity:1; 
stroke-linecap:round; stroke-linejoin:round;fill-rule:evenodd;"
d="M 71.765110,55.435241
71.115590,55.060241
71.530590,54.341439
72.180110,54.716439
Z" /> 
</g>
<g >
</g>
<g style="fill:#000000; fill-opacity:1.000000; 
stroke:#000000; stroke-width:0.000000; stroke-opacity:1; 
stroke-linecap:round; stroke-linejoin:round;">
<path style="fill:#000000; fill-opacity:1.000000; 
stroke:#000000; stroke-width:0.000000; stroke-opacity:1; 
stroke-linecap:round; stroke-linejoin:round;fill-rule:evenodd;"
d="M 89.024890,63.196439
89.674410,63.571439
89.259410,64.290241
88.609890,63.915241
Z" /> 
<path style="fill:#000000; fill-opacity:1.000000; 
stroke:#000000; stroke-width:0.000000; stroke-opacity:1; 
stroke-linecap:round; stroke-linejoin:round;fill-rule:evenodd;"
d="M 88.435994,62.856439
88.869006,63.106439
88.454006,63.825241
88.020994,63.575241
Z" /> 
<path style="fill:#000000; fill-opacity:1.000000; 
stroke:#000000; stroke-width:0.000000; stroke-opacity:1; 
stroke-linecap:round; stroke-linejoin:round;fill-rule:evenodd;"
d="M 87.630590,62.391439
88.280110,62.766439
87.865110,63.485241
87.215590,63.110241
Z" /> 
<path style="fill:#000000; fill-opacity:1.000000; 
stroke:#000000; stroke-width:0.000000; stroke-opacity:1; 
stroke-linecap:round; stroke-linejoin:round;fill-rule:evenodd;"
d="M 86.840590,63.759759
87.490110,64.134759
87.075110,64.853561
86.425590,64.478561
Z" /> 
<path style="fill:#000000; fill-opacity:1.000000; 
stroke:#000000; stroke-width:0.000000; stroke-opacity:1; 
stroke-linecap:round; stroke-linejoin:round;fill-rule:evenodd;"
d="M 87.645994,64.224759
88.079006,64.474759
87.664006,65.193561
87.230994,64.943561
Z" /> 
<path style="fill:#000000; fill-opacity:1.000000; 
stroke:#000000; stroke-width:0.000000; stroke-opacity:1; 
stroke-linecap:round; stroke-linejoin:round;fill-rule:evenodd;"
d="M 88.234890,64.564759
88.884410,64.939759
88.469410,65.658561
87.819890,65.283561
Z" /> 
</g>
<g >
</g>
<g >
</g>
<g >
</g>
<g >
</g>
<g >
</g>
<g >
</g>
<g >
</g>
<g >
</g>
<g >
</g>
<g >
</g>
<g >
</g>
<g >
</g>
<g >
</g>
</g> 
</svg>
