<?xml version="1.0" standalone="no"?>
 <!DOCTYPE svg PUBLIC "-//W3C//DTD SVG 1.1//EN" 
 "http://www.w3.org/Graphics/SVG/1.1/DTD/svg11.dtd"> 
<svg
  xmlns:svg="http://www.w3.org/2000/svg"
  xmlns="http://www.w3.org/2000/svg"
  xmlns:xlink="http://www.w3.org/1999/xlink"
  version="1.1"
  width="3.2100000000000004cm" height="3.2100000000000004cm" viewBox="63.95 43.95 32.1 32.1">
<title>SVG Image created as pedalboard-led-ring-F_Paste.svg date 2023/06/02 14:33:15 </title>
  <desc>Image generated by PCBNEW </desc>
<g style="fill:#000000; fill-opacity:1.000000;stroke:#000000; stroke-opacity:1.000000;
stroke-linecap:round; stroke-linejoin:round;"
 transform="translate(0 0) scale(1 1)">
</g>
<g style="fill:#000000; fill-opacity:0.0; 
stroke:#000000; stroke-width:0.000000; stroke-opacity:1; 
stroke-linecap:round; stroke-linejoin:round;">
<g >
</g>
<g style="fill:#000000; fill-opacity:0.0; 
stroke:#000000; stroke-width:0.000000; stroke-opacity:1; 
stroke-linecap:round; stroke-linejoin:round;">
</g>
<g style="fill:#000000; fill-opacity:1.000000; 
stroke:#000000; stroke-width:0.000000; stroke-opacity:1; 
stroke-linecap:round; stroke-linejoin:round;">
<path style="fill:#000000; fill-opacity:1.000000; 
stroke:#000000; stroke-width:0.000000; stroke-opacity:1; 
stroke-linecap:round; stroke-linejoin:round;fill-rule:evenodd;"
d="M 71.289445,65.792876
71.256192,65.804164
71.221151,65.801867
71.189657,65.786336
71.166502,65.759934
71.027502,65.519178
71.016215,65.485925
71.018511,65.450885
71.034043,65.419390
71.060445,65.396236
71.216329,65.306236
71.249582,65.294948
71.284623,65.297245
71.316117,65.312776
71.339272,65.339178
71.478272,65.579934
71.489559,65.613187
71.487263,65.648227
71.471731,65.679722
71.445329,65.702876
Z" /> 
<path style="fill:#000000; fill-opacity:1.000000; 
stroke:#000000; stroke-width:0.000000; stroke-opacity:1; 
stroke-linecap:round; stroke-linejoin:round;fill-rule:evenodd;"
d="M 70.856945,65.043764
70.823692,65.055052
70.788651,65.052755
70.757157,65.037224
70.734002,65.010822
70.595002,64.770066
70.583715,64.736813
70.586011,64.701773
70.601543,64.670278
70.627945,64.647124
70.783829,64.557124
70.817082,64.545836
70.852123,64.548133
70.883617,64.563664
70.906772,64.590066
71.045772,64.830822
71.057059,64.864075
71.054763,64.899115
71.039231,64.930610
71.012829,64.953764
Z" /> 
</g>
<g >
</g>
<g style="fill:#000000; fill-opacity:1.000000; 
stroke:#000000; stroke-width:0.000000; stroke-opacity:1; 
stroke-linecap:round; stroke-linejoin:round;">
<path style="fill:#000000; fill-opacity:1.000000; 
stroke:#000000; stroke-width:0.000000; stroke-opacity:1; 
stroke-linecap:round; stroke-linejoin:round;fill-rule:evenodd;"
d="M 84.323205,67.088012
84.756217,66.838012
85.006217,67.271024
84.573205,67.521024
Z" /> 
<path style="fill:#000000; fill-opacity:1.000000; 
stroke:#000000; stroke-width:0.000000; stroke-opacity:1; 
stroke-linecap:round; stroke-linejoin:round;fill-rule:evenodd;"
d="M 83.543783,67.538012
83.976795,67.288012
84.226795,67.721024
83.793783,67.971024
Z" /> 
<path style="fill:#000000; fill-opacity:1.000000; 
stroke:#000000; stroke-width:0.000000; stroke-opacity:1; 
stroke-linecap:round; stroke-linejoin:round;fill-rule:evenodd;"
d="M 83.993783,68.317434
84.426795,68.067434
84.676795,68.500446
84.243783,68.750446
Z" /> 
<path style="fill:#000000; fill-opacity:1.000000; 
stroke:#000000; stroke-width:0.000000; stroke-opacity:1; 
stroke-linecap:round; stroke-linejoin:round;fill-rule:evenodd;"
d="M 84.773205,67.867434
85.206217,67.617434
85.456217,68.050446
85.023205,68.300446
Z" /> 
</g>
<g >
</g>
<g style="fill:#000000; fill-opacity:1.000000; 
stroke:#000000; stroke-width:0.000000; stroke-opacity:1; 
stroke-linecap:round; stroke-linejoin:round;">
<path style="fill:#000000; fill-opacity:1.000000; 
stroke:#000000; stroke-width:0.000000; stroke-opacity:1; 
stroke-linecap:round; stroke-linejoin:round;fill-rule:evenodd;"
d="M 88.300000,59.800000
88.300000,59.300000
88.800000,59.300000
88.800000,59.800000
Z" /> 
<path style="fill:#000000; fill-opacity:1.000000; 
stroke:#000000; stroke-width:0.000000; stroke-opacity:1; 
stroke-linecap:round; stroke-linejoin:round;fill-rule:evenodd;"
d="M 88.300000,60.700000
88.300000,60.200000
88.800000,60.200000
88.800000,60.700000
Z" /> 
<path style="fill:#000000; fill-opacity:1.000000; 
stroke:#000000; stroke-width:0.000000; stroke-opacity:1; 
stroke-linecap:round; stroke-linejoin:round;fill-rule:evenodd;"
d="M 89.200000,60.700000
89.200000,60.200000
89.700000,60.200000
89.700000,60.700000
Z" /> 
<path style="fill:#000000; fill-opacity:1.000000; 
stroke:#000000; stroke-width:0.000000; stroke-opacity:1; 
stroke-linecap:round; stroke-linejoin:round;fill-rule:evenodd;"
d="M 89.200000,59.800000
89.200000,59.300000
89.700000,59.300000
89.700000,59.800000
Z" /> 
</g>
<g >
</g>
<g style="fill:#000000; fill-opacity:1.000000; 
stroke:#000000; stroke-width:0.000000; stroke-opacity:1; 
stroke-linecap:round; stroke-linejoin:round;">
<path style="fill:#000000; fill-opacity:1.000000; 
stroke:#000000; stroke-width:0.000000; stroke-opacity:1; 
stroke-linecap:round; stroke-linejoin:round;fill-rule:evenodd;"
d="M 79.800000,51.700000
79.300000,51.700000
79.300000,51.200000
79.800000,51.200000
Z" /> 
<path style="fill:#000000; fill-opacity:1.000000; 
stroke:#000000; stroke-width:0.000000; stroke-opacity:1; 
stroke-linecap:round; stroke-linejoin:round;fill-rule:evenodd;"
d="M 80.700000,51.700000
80.200000,51.700000
80.200000,51.200000
80.700000,51.200000
Z" /> 
<path style="fill:#000000; fill-opacity:1.000000; 
stroke:#000000; stroke-width:0.000000; stroke-opacity:1; 
stroke-linecap:round; stroke-linejoin:round;fill-rule:evenodd;"
d="M 80.700000,50.800000
80.200000,50.800000
80.200000,50.300000
80.700000,50.300000
Z" /> 
<path style="fill:#000000; fill-opacity:1.000000; 
stroke:#000000; stroke-width:0.000000; stroke-opacity:1; 
stroke-linecap:round; stroke-linejoin:round;fill-rule:evenodd;"
d="M 79.800000,50.800000
79.300000,50.800000
79.300000,50.300000
79.800000,50.300000
Z" /> 
</g>
<g >
</g>
<g style="fill:#000000; fill-opacity:1.000000; 
stroke:#000000; stroke-width:0.000000; stroke-opacity:1; 
stroke-linecap:round; stroke-linejoin:round;">
<path style="fill:#000000; fill-opacity:1.000000; 
stroke:#000000; stroke-width:0.000000; stroke-opacity:1; 
stroke-linecap:round; stroke-linejoin:round;fill-rule:evenodd;"
d="M 87.288012,63.976795
87.538012,63.543783
87.971024,63.793783
87.721024,64.226795
Z" /> 
<path style="fill:#000000; fill-opacity:1.000000; 
stroke:#000000; stroke-width:0.000000; stroke-opacity:1; 
stroke-linecap:round; stroke-linejoin:round;fill-rule:evenodd;"
d="M 86.838012,64.756217
87.088012,64.323205
87.521024,64.573205
87.271024,65.006217
Z" /> 
<path style="fill:#000000; fill-opacity:1.000000; 
stroke:#000000; stroke-width:0.000000; stroke-opacity:1; 
stroke-linecap:round; stroke-linejoin:round;fill-rule:evenodd;"
d="M 87.617434,65.206217
87.867434,64.773205
88.300446,65.023205
88.050446,65.456217
Z" /> 
<path style="fill:#000000; fill-opacity:1.000000; 
stroke:#000000; stroke-width:0.000000; stroke-opacity:1; 
stroke-linecap:round; stroke-linejoin:round;fill-rule:evenodd;"
d="M 88.067434,64.426795
88.317434,63.993783
88.750446,64.243783
88.500446,64.676795
Z" /> 
</g>
<g >
</g>
<g style="fill:#000000; fill-opacity:1.000000; 
stroke:#000000; stroke-width:0.000000; stroke-opacity:1; 
stroke-linecap:round; stroke-linejoin:round;">
<path style="fill:#000000; fill-opacity:1.000000; 
stroke:#000000; stroke-width:0.000000; stroke-opacity:1; 
stroke-linecap:round; stroke-linejoin:round;fill-rule:evenodd;"
d="M 72.911988,64.323205
73.161988,64.756217
72.728976,65.006217
72.478976,64.573205
Z" /> 
<path style="fill:#000000; fill-opacity:1.000000; 
stroke:#000000; stroke-width:0.000000; stroke-opacity:1; 
stroke-linecap:round; stroke-linejoin:round;fill-rule:evenodd;"
d="M 72.461988,63.543783
72.711988,63.976795
72.278976,64.226795
72.028976,63.793783
Z" /> 
<path style="fill:#000000; fill-opacity:1.000000; 
stroke:#000000; stroke-width:0.000000; stroke-opacity:1; 
stroke-linecap:round; stroke-linejoin:round;fill-rule:evenodd;"
d="M 71.682566,63.993783
71.932566,64.426795
71.499554,64.676795
71.249554,64.243783
Z" /> 
<path style="fill:#000000; fill-opacity:1.000000; 
stroke:#000000; stroke-width:0.000000; stroke-opacity:1; 
stroke-linecap:round; stroke-linejoin:round;fill-rule:evenodd;"
d="M 72.132566,64.773205
72.382566,65.206217
71.949554,65.456217
71.699554,65.023205
Z" /> 
</g>
<g >
</g>
<g style="fill:#000000; fill-opacity:1.000000; 
stroke:#000000; stroke-width:0.000000; stroke-opacity:1; 
stroke-linecap:round; stroke-linejoin:round;">
<path style="fill:#000000; fill-opacity:1.000000; 
stroke:#000000; stroke-width:0.000000; stroke-opacity:1; 
stroke-linecap:round; stroke-linejoin:round;fill-rule:evenodd;"
d="M 80.200000,68.300000
80.700000,68.300000
80.700000,68.800000
80.200000,68.800000
Z" /> 
<path style="fill:#000000; fill-opacity:1.000000; 
stroke:#000000; stroke-width:0.000000; stroke-opacity:1; 
stroke-linecap:round; stroke-linejoin:round;fill-rule:evenodd;"
d="M 79.300000,68.300000
79.800000,68.300000
79.800000,68.800000
79.300000,68.800000
Z" /> 
<path style="fill:#000000; fill-opacity:1.000000; 
stroke:#000000; stroke-width:0.000000; stroke-opacity:1; 
stroke-linecap:round; stroke-linejoin:round;fill-rule:evenodd;"
d="M 79.300000,69.200000
79.800000,69.200000
79.800000,69.700000
79.300000,69.700000
Z" /> 
<path style="fill:#000000; fill-opacity:1.000000; 
stroke:#000000; stroke-width:0.000000; stroke-opacity:1; 
stroke-linecap:round; stroke-linejoin:round;fill-rule:evenodd;"
d="M 80.200000,69.200000
80.700000,69.200000
80.700000,69.700000
80.200000,69.700000
Z" /> 
</g>
<g >
</g>
<g style="fill:#000000; fill-opacity:1.000000; 
stroke:#000000; stroke-width:0.000000; stroke-opacity:1; 
stroke-linecap:round; stroke-linejoin:round;">
<path style="fill:#000000; fill-opacity:1.000000; 
stroke:#000000; stroke-width:0.000000; stroke-opacity:1; 
stroke-linecap:round; stroke-linejoin:round;fill-rule:evenodd;"
d="M 85.792876,68.710555
85.804164,68.743808
85.801867,68.778849
85.786336,68.810343
85.759934,68.833498
85.519178,68.972498
85.485925,68.983785
85.450885,68.981489
85.419390,68.965957
85.396236,68.939555
85.306236,68.783671
85.294948,68.750418
85.297245,68.715377
85.312776,68.683883
85.339178,68.660728
85.579934,68.521728
85.613187,68.510441
85.648227,68.512737
85.679722,68.528269
85.702876,68.554671
Z" /> 
<path style="fill:#000000; fill-opacity:1.000000; 
stroke:#000000; stroke-width:0.000000; stroke-opacity:1; 
stroke-linecap:round; stroke-linejoin:round;fill-rule:evenodd;"
d="M 85.043764,69.143055
85.055052,69.176308
85.052755,69.211349
85.037224,69.242843
85.010822,69.265998
84.770066,69.404998
84.736813,69.416285
84.701773,69.413989
84.670278,69.398457
84.647124,69.372055
84.557124,69.216171
84.545836,69.182918
84.548133,69.147877
84.563664,69.116383
84.590066,69.093228
84.830822,68.954228
84.864075,68.942941
84.899115,68.945237
84.930610,68.960769
84.953764,68.987171
Z" /> 
</g>
<g >
</g>
<g style="fill:#000000; fill-opacity:1.000000; 
stroke:#000000; stroke-width:0.000000; stroke-opacity:1; 
stroke-linecap:round; stroke-linejoin:round;">
<path style="fill:#000000; fill-opacity:1.000000; 
stroke:#000000; stroke-width:0.000000; stroke-opacity:1; 
stroke-linecap:round; stroke-linejoin:round;fill-rule:evenodd;"
d="M 71.700000,60.200000
71.700000,60.700000
71.200000,60.700000
71.200000,60.200000
Z" /> 
<path style="fill:#000000; fill-opacity:1.000000; 
stroke:#000000; stroke-width:0.000000; stroke-opacity:1; 
stroke-linecap:round; stroke-linejoin:round;fill-rule:evenodd;"
d="M 71.700000,59.300000
71.700000,59.800000
71.200000,59.800000
71.200000,59.300000
Z" /> 
<path style="fill:#000000; fill-opacity:1.000000; 
stroke:#000000; stroke-width:0.000000; stroke-opacity:1; 
stroke-linecap:round; stroke-linejoin:round;fill-rule:evenodd;"
d="M 70.800000,59.300000
70.800000,59.800000
70.300000,59.800000
70.300000,59.300000
Z" /> 
<path style="fill:#000000; fill-opacity:1.000000; 
stroke:#000000; stroke-width:0.000000; stroke-opacity:1; 
stroke-linecap:round; stroke-linejoin:round;fill-rule:evenodd;"
d="M 70.800000,60.200000
70.800000,60.700000
70.300000,60.700000
70.300000,60.200000
Z" /> 
</g>
<g >
</g>
<g style="fill:#000000; fill-opacity:1.000000; 
stroke:#000000; stroke-width:0.000000; stroke-opacity:1; 
stroke-linecap:round; stroke-linejoin:round;">
<path style="fill:#000000; fill-opacity:1.000000; 
stroke:#000000; stroke-width:0.000000; stroke-opacity:1; 
stroke-linecap:round; stroke-linejoin:round;fill-rule:evenodd;"
d="M 72.711988,56.023205
72.461988,56.456217
72.028976,56.206217
72.278976,55.773205
Z" /> 
<path style="fill:#000000; fill-opacity:1.000000; 
stroke:#000000; stroke-width:0.000000; stroke-opacity:1; 
stroke-linecap:round; stroke-linejoin:round;fill-rule:evenodd;"
d="M 73.161988,55.243783
72.911988,55.676795
72.478976,55.426795
72.728976,54.993783
Z" /> 
<path style="fill:#000000; fill-opacity:1.000000; 
stroke:#000000; stroke-width:0.000000; stroke-opacity:1; 
stroke-linecap:round; stroke-linejoin:round;fill-rule:evenodd;"
d="M 72.382566,54.793783
72.132566,55.226795
71.699554,54.976795
71.949554,54.543783
Z" /> 
<path style="fill:#000000; fill-opacity:1.000000; 
stroke:#000000; stroke-width:0.000000; stroke-opacity:1; 
stroke-linecap:round; stroke-linejoin:round;fill-rule:evenodd;"
d="M 71.932566,55.573205
71.682566,56.006217
71.249554,55.756217
71.499554,55.323205
Z" /> 
</g>
<g >
</g>
<g style="fill:#000000; fill-opacity:1.000000; 
stroke:#000000; stroke-width:0.000000; stroke-opacity:1; 
stroke-linecap:round; stroke-linejoin:round;">
<path style="fill:#000000; fill-opacity:1.000000; 
stroke:#000000; stroke-width:0.000000; stroke-opacity:1; 
stroke-linecap:round; stroke-linejoin:round;fill-rule:evenodd;"
d="M 88.661308,65.527876
88.634906,65.504722
88.619374,65.473227
88.617078,65.438187
88.628365,65.404934
88.767365,65.164178
88.790520,65.137776
88.822014,65.122245
88.857055,65.119948
88.890308,65.131236
89.046192,65.221236
89.072594,65.244390
89.088126,65.275885
89.090422,65.310925
89.079135,65.344178
88.940135,65.584934
88.916980,65.611336
88.885486,65.626867
88.850445,65.629164
88.817192,65.617876
Z" /> 
<path style="fill:#000000; fill-opacity:1.000000; 
stroke:#000000; stroke-width:0.000000; stroke-opacity:1; 
stroke-linecap:round; stroke-linejoin:round;fill-rule:evenodd;"
d="M 89.093808,64.778764
89.067406,64.755610
89.051874,64.724115
89.049578,64.689075
89.060865,64.655822
89.199865,64.415066
89.223020,64.388664
89.254514,64.373133
89.289555,64.370836
89.322808,64.382124
89.478692,64.472124
89.505094,64.495278
89.520626,64.526773
89.522922,64.561813
89.511635,64.595066
89.372635,64.835822
89.349480,64.862224
89.317986,64.877755
89.282945,64.880052
89.249692,64.868764
Z" /> 
</g>
<g >
</g>
<g style="fill:#000000; fill-opacity:1.000000; 
stroke:#000000; stroke-width:0.000000; stroke-opacity:1; 
stroke-linecap:round; stroke-linejoin:round;">
<path style="fill:#000000; fill-opacity:1.000000; 
stroke:#000000; stroke-width:0.000000; stroke-opacity:1; 
stroke-linecap:round; stroke-linejoin:round;fill-rule:evenodd;"
d="M 70.627945,55.352876
70.601543,55.329722
70.586011,55.298227
70.583715,55.263187
70.595002,55.229934
70.734002,54.989178
70.757157,54.962776
70.788651,54.947245
70.823692,54.944948
70.856945,54.956236
71.012829,55.046236
71.039231,55.069390
71.054763,55.100885
71.057059,55.135925
71.045772,55.169178
70.906772,55.409934
70.883617,55.436336
70.852123,55.451867
70.817082,55.454164
70.783829,55.442876
Z" /> 
<path style="fill:#000000; fill-opacity:1.000000; 
stroke:#000000; stroke-width:0.000000; stroke-opacity:1; 
stroke-linecap:round; stroke-linejoin:round;fill-rule:evenodd;"
d="M 71.060445,54.603764
71.034043,54.580610
71.018511,54.549115
71.016215,54.514075
71.027502,54.480822
71.166502,54.240066
71.189657,54.213664
71.221151,54.198133
71.256192,54.195836
71.289445,54.207124
71.445329,54.297124
71.471731,54.320278
71.487263,54.351773
71.489559,54.386813
71.478272,54.420066
71.339272,54.660822
71.316117,54.687224
71.284623,54.702755
71.249582,54.705052
71.216329,54.693764
Z" /> 
</g>
<g >
</g>
<g style="fill:#000000; fill-opacity:1.000000; 
stroke:#000000; stroke-width:0.000000; stroke-opacity:1; 
stroke-linecap:round; stroke-linejoin:round;">
<path style="fill:#000000; fill-opacity:1.000000; 
stroke:#000000; stroke-width:0.000000; stroke-opacity:1; 
stroke-linecap:round; stroke-linejoin:round;fill-rule:evenodd;"
d="M 75.352876,69.372055
75.329722,69.398457
75.298227,69.413989
75.263187,69.416285
75.229934,69.404998
74.989178,69.265998
74.962776,69.242843
74.947245,69.211349
74.944948,69.176308
74.956236,69.143055
75.046236,68.987171
75.069390,68.960769
75.100885,68.945237
75.135925,68.942941
75.169178,68.954228
75.409934,69.093228
75.436336,69.116383
75.451867,69.147877
75.454164,69.182918
75.442876,69.216171
Z" /> 
<path style="fill:#000000; fill-opacity:1.000000; 
stroke:#000000; stroke-width:0.000000; stroke-opacity:1; 
stroke-linecap:round; stroke-linejoin:round;fill-rule:evenodd;"
d="M 74.603764,68.939555
74.580610,68.965957
74.549115,68.981489
74.514075,68.983785
74.480822,68.972498
74.240066,68.833498
74.213664,68.810343
74.198133,68.778849
74.195836,68.743808
74.207124,68.710555
74.297124,68.554671
74.320278,68.528269
74.351773,68.512737
74.386813,68.510441
74.420066,68.521728
74.660822,68.660728
74.687224,68.683883
74.702755,68.715377
74.705052,68.750418
74.693764,68.783671
Z" /> 
</g>
<g >
</g>
<g style="fill:#000000; fill-opacity:1.000000; 
stroke:#000000; stroke-width:0.000000; stroke-opacity:1; 
stroke-linecap:round; stroke-linejoin:round;">
<path style="fill:#000000; fill-opacity:1.000000; 
stroke:#000000; stroke-width:0.000000; stroke-opacity:1; 
stroke-linecap:round; stroke-linejoin:round;fill-rule:evenodd;"
d="M 69.560000,60.661500
69.525558,60.654649
69.496360,60.635140
69.476851,60.605942
69.470000,60.571500
69.470000,60.293500
69.476851,60.259058
69.496360,60.229860
69.525558,60.210351
69.560000,60.203500
69.740000,60.203500
69.774442,60.210351
69.803640,60.229860
69.823149,60.259058
69.830000,60.293500
69.830000,60.571500
69.823149,60.605942
69.803640,60.635140
69.774442,60.654649
69.740000,60.661500
Z" /> 
<path style="fill:#000000; fill-opacity:1.000000; 
stroke:#000000; stroke-width:0.000000; stroke-opacity:1; 
stroke-linecap:round; stroke-linejoin:round;fill-rule:evenodd;"
d="M 69.560000,59.796500
69.525558,59.789649
69.496360,59.770140
69.476851,59.740942
69.470000,59.706500
69.470000,59.428500
69.476851,59.394058
69.496360,59.364860
69.525558,59.345351
69.560000,59.338500
69.740000,59.338500
69.774442,59.345351
69.803640,59.364860
69.823149,59.394058
69.830000,59.428500
69.830000,59.706500
69.823149,59.740942
69.803640,59.770140
69.774442,59.789649
69.740000,59.796500
Z" /> 
</g>
<g >
</g>
<g style="fill:#000000; fill-opacity:1.000000; 
stroke:#000000; stroke-width:0.000000; stroke-opacity:1; 
stroke-linecap:round; stroke-linejoin:round;">
<path style="fill:#000000; fill-opacity:1.000000; 
stroke:#000000; stroke-width:0.000000; stroke-opacity:1; 
stroke-linecap:round; stroke-linejoin:round;fill-rule:evenodd;"
d="M 80.661500,70.440000
80.654649,70.474442
80.635140,70.503640
80.605942,70.523149
80.571500,70.530000
80.293500,70.530000
80.259058,70.523149
80.229860,70.503640
80.210351,70.474442
80.203500,70.440000
80.203500,70.260000
80.210351,70.225558
80.229860,70.196360
80.259058,70.176851
80.293500,70.170000
80.571500,70.170000
80.605942,70.176851
80.635140,70.196360
80.654649,70.225558
80.661500,70.260000
Z" /> 
<path style="fill:#000000; fill-opacity:1.000000; 
stroke:#000000; stroke-width:0.000000; stroke-opacity:1; 
stroke-linecap:round; stroke-linejoin:round;fill-rule:evenodd;"
d="M 79.796500,70.440000
79.789649,70.474442
79.770140,70.503640
79.740942,70.523149
79.706500,70.530000
79.428500,70.530000
79.394058,70.523149
79.364860,70.503640
79.345351,70.474442
79.338500,70.440000
79.338500,70.260000
79.345351,70.225558
79.364860,70.196360
79.394058,70.176851
79.428500,70.170000
79.706500,70.170000
79.740942,70.176851
79.770140,70.196360
79.789649,70.225558
79.796500,70.260000
Z" /> 
</g>
<g >
</g>
<g style="fill:#000000; fill-opacity:1.000000; 
stroke:#000000; stroke-width:0.000000; stroke-opacity:1; 
stroke-linecap:round; stroke-linejoin:round;">
<path style="fill:#000000; fill-opacity:1.000000; 
stroke:#000000; stroke-width:0.000000; stroke-opacity:1; 
stroke-linecap:round; stroke-linejoin:round;fill-rule:evenodd;"
d="M 84.647124,50.627945
84.670278,50.601543
84.701773,50.586011
84.736813,50.583715
84.770066,50.595002
85.010822,50.734002
85.037224,50.757157
85.052755,50.788651
85.055052,50.823692
85.043764,50.856945
84.953764,51.012829
84.930610,51.039231
84.899115,51.054763
84.864075,51.057059
84.830822,51.045772
84.590066,50.906772
84.563664,50.883617
84.548133,50.852123
84.545836,50.817082
84.557124,50.783829
Z" /> 
<path style="fill:#000000; fill-opacity:1.000000; 
stroke:#000000; stroke-width:0.000000; stroke-opacity:1; 
stroke-linecap:round; stroke-linejoin:round;fill-rule:evenodd;"
d="M 85.396236,51.060445
85.419390,51.034043
85.450885,51.018511
85.485925,51.016215
85.519178,51.027502
85.759934,51.166502
85.786336,51.189657
85.801867,51.221151
85.804164,51.256192
85.792876,51.289445
85.702876,51.445329
85.679722,51.471731
85.648227,51.487263
85.613187,51.489559
85.579934,51.478272
85.339178,51.339272
85.312776,51.316117
85.297245,51.284623
85.294948,51.249582
85.306236,51.216329
Z" /> 
</g>
<g >
</g>
<g style="fill:#000000; fill-opacity:1.000000; 
stroke:#000000; stroke-width:0.000000; stroke-opacity:1; 
stroke-linecap:round; stroke-linejoin:round;">
<path style="fill:#000000; fill-opacity:1.000000; 
stroke:#000000; stroke-width:0.000000; stroke-opacity:1; 
stroke-linecap:round; stroke-linejoin:round;fill-rule:evenodd;"
d="M 88.710555,54.207124
88.743808,54.195836
88.778849,54.198133
88.810343,54.213664
88.833498,54.240066
88.972498,54.480822
88.983785,54.514075
88.981489,54.549115
88.965957,54.580610
88.939555,54.603764
88.783671,54.693764
88.750418,54.705052
88.715377,54.702755
88.683883,54.687224
88.660728,54.660822
88.521728,54.420066
88.510441,54.386813
88.512737,54.351773
88.528269,54.320278
88.554671,54.297124
Z" /> 
<path style="fill:#000000; fill-opacity:1.000000; 
stroke:#000000; stroke-width:0.000000; stroke-opacity:1; 
stroke-linecap:round; stroke-linejoin:round;fill-rule:evenodd;"
d="M 89.143055,54.956236
89.176308,54.944948
89.211349,54.947245
89.242843,54.962776
89.265998,54.989178
89.404998,55.229934
89.416285,55.263187
89.413989,55.298227
89.398457,55.329722
89.372055,55.352876
89.216171,55.442876
89.182918,55.454164
89.147877,55.451867
89.116383,55.436336
89.093228,55.409934
88.954228,55.169178
88.942941,55.135925
88.945237,55.100885
88.960769,55.069390
88.987171,55.046236
Z" /> 
</g>
<g >
</g>
<g style="fill:#000000; fill-opacity:1.000000; 
stroke:#000000; stroke-width:0.000000; stroke-opacity:1; 
stroke-linecap:round; stroke-linejoin:round;">
<path style="fill:#000000; fill-opacity:1.000000; 
stroke:#000000; stroke-width:0.000000; stroke-opacity:1; 
stroke-linecap:round; stroke-linejoin:round;fill-rule:evenodd;"
d="M 74.207124,51.289445
74.195836,51.256192
74.198133,51.221151
74.213664,51.189657
74.240066,51.166502
74.480822,51.027502
74.514075,51.016215
74.549115,51.018511
74.580610,51.034043
74.603764,51.060445
74.693764,51.216329
74.705052,51.249582
74.702755,51.284623
74.687224,51.316117
74.660822,51.339272
74.420066,51.478272
74.386813,51.489559
74.351773,51.487263
74.320278,51.471731
74.297124,51.445329
Z" /> 
<path style="fill:#000000; fill-opacity:1.000000; 
stroke:#000000; stroke-width:0.000000; stroke-opacity:1; 
stroke-linecap:round; stroke-linejoin:round;fill-rule:evenodd;"
d="M 74.956236,50.856945
74.944948,50.823692
74.947245,50.788651
74.962776,50.757157
74.989178,50.734002
75.229934,50.595002
75.263187,50.583715
75.298227,50.586011
75.329722,50.601543
75.352876,50.627945
75.442876,50.783829
75.454164,50.817082
75.451867,50.852123
75.436336,50.883617
75.409934,50.906772
75.169178,51.045772
75.135925,51.057059
75.100885,51.054763
75.069390,51.039231
75.046236,51.012829
Z" /> 
</g>
<g >
</g>
<g style="fill:#000000; fill-opacity:1.000000; 
stroke:#000000; stroke-width:0.000000; stroke-opacity:1; 
stroke-linecap:round; stroke-linejoin:round;">
<path style="fill:#000000; fill-opacity:1.000000; 
stroke:#000000; stroke-width:0.000000; stroke-opacity:1; 
stroke-linecap:round; stroke-linejoin:round;fill-rule:evenodd;"
d="M 87.088012,55.676795
86.838012,55.243783
87.271024,54.993783
87.521024,55.426795
Z" /> 
<path style="fill:#000000; fill-opacity:1.000000; 
stroke:#000000; stroke-width:0.000000; stroke-opacity:1; 
stroke-linecap:round; stroke-linejoin:round;fill-rule:evenodd;"
d="M 87.538012,56.456217
87.288012,56.023205
87.721024,55.773205
87.971024,56.206217
Z" /> 
<path style="fill:#000000; fill-opacity:1.000000; 
stroke:#000000; stroke-width:0.000000; stroke-opacity:1; 
stroke-linecap:round; stroke-linejoin:round;fill-rule:evenodd;"
d="M 88.317434,56.006217
88.067434,55.573205
88.500446,55.323205
88.750446,55.756217
Z" /> 
<path style="fill:#000000; fill-opacity:1.000000; 
stroke:#000000; stroke-width:0.000000; stroke-opacity:1; 
stroke-linecap:round; stroke-linejoin:round;fill-rule:evenodd;"
d="M 87.867434,55.226795
87.617434,54.793783
88.050446,54.543783
88.300446,54.976795
Z" /> 
</g>
<g >
</g>
<g style="fill:#000000; fill-opacity:1.000000; 
stroke:#000000; stroke-width:0.000000; stroke-opacity:1; 
stroke-linecap:round; stroke-linejoin:round;">
<path style="fill:#000000; fill-opacity:1.000000; 
stroke:#000000; stroke-width:0.000000; stroke-opacity:1; 
stroke-linecap:round; stroke-linejoin:round;fill-rule:evenodd;"
d="M 90.440000,59.338500
90.474442,59.345351
90.503640,59.364860
90.523149,59.394058
90.530000,59.428500
90.530000,59.706500
90.523149,59.740942
90.503640,59.770140
90.474442,59.789649
90.440000,59.796500
90.260000,59.796500
90.225558,59.789649
90.196360,59.770140
90.176851,59.740942
90.170000,59.706500
90.170000,59.428500
90.176851,59.394058
90.196360,59.364860
90.225558,59.345351
90.260000,59.338500
Z" /> 
<path style="fill:#000000; fill-opacity:1.000000; 
stroke:#000000; stroke-width:0.000000; stroke-opacity:1; 
stroke-linecap:round; stroke-linejoin:round;fill-rule:evenodd;"
d="M 90.440000,60.203500
90.474442,60.210351
90.503640,60.229860
90.523149,60.259058
90.530000,60.293500
90.530000,60.571500
90.523149,60.605942
90.503640,60.635140
90.474442,60.654649
90.440000,60.661500
90.260000,60.661500
90.225558,60.654649
90.196360,60.635140
90.176851,60.605942
90.170000,60.571500
90.170000,60.293500
90.176851,60.259058
90.196360,60.229860
90.225558,60.210351
90.260000,60.203500
Z" /> 
</g>
<g >
</g>
<g style="fill:#000000; fill-opacity:1.000000; 
stroke:#000000; stroke-width:0.000000; stroke-opacity:1; 
stroke-linecap:round; stroke-linejoin:round;">
<path style="fill:#000000; fill-opacity:1.000000; 
stroke:#000000; stroke-width:0.000000; stroke-opacity:1; 
stroke-linecap:round; stroke-linejoin:round;fill-rule:evenodd;"
d="M 75.676795,52.911988
75.243783,53.161988
74.993783,52.728976
75.426795,52.478976
Z" /> 
<path style="fill:#000000; fill-opacity:1.000000; 
stroke:#000000; stroke-width:0.000000; stroke-opacity:1; 
stroke-linecap:round; stroke-linejoin:round;fill-rule:evenodd;"
d="M 76.456217,52.461988
76.023205,52.711988
75.773205,52.278976
76.206217,52.028976
Z" /> 
<path style="fill:#000000; fill-opacity:1.000000; 
stroke:#000000; stroke-width:0.000000; stroke-opacity:1; 
stroke-linecap:round; stroke-linejoin:round;fill-rule:evenodd;"
d="M 76.006217,51.682566
75.573205,51.932566
75.323205,51.499554
75.756217,51.249554
Z" /> 
<path style="fill:#000000; fill-opacity:1.000000; 
stroke:#000000; stroke-width:0.000000; stroke-opacity:1; 
stroke-linecap:round; stroke-linejoin:round;fill-rule:evenodd;"
d="M 75.226795,52.132566
74.793783,52.382566
74.543783,51.949554
74.976795,51.699554
Z" /> 
</g>
<g >
</g>
<g style="fill:#000000; fill-opacity:1.000000; 
stroke:#000000; stroke-width:0.000000; stroke-opacity:1; 
stroke-linecap:round; stroke-linejoin:round;">
<path style="fill:#000000; fill-opacity:1.000000; 
stroke:#000000; stroke-width:0.000000; stroke-opacity:1; 
stroke-linecap:round; stroke-linejoin:round;fill-rule:evenodd;"
d="M 76.023205,67.288012
76.456217,67.538012
76.206217,67.971024
75.773205,67.721024
Z" /> 
<path style="fill:#000000; fill-opacity:1.000000; 
stroke:#000000; stroke-width:0.000000; stroke-opacity:1; 
stroke-linecap:round; stroke-linejoin:round;fill-rule:evenodd;"
d="M 75.243783,66.838012
75.676795,67.088012
75.426795,67.521024
74.993783,67.271024
Z" /> 
<path style="fill:#000000; fill-opacity:1.000000; 
stroke:#000000; stroke-width:0.000000; stroke-opacity:1; 
stroke-linecap:round; stroke-linejoin:round;fill-rule:evenodd;"
d="M 74.793783,67.617434
75.226795,67.867434
74.976795,68.300446
74.543783,68.050446
Z" /> 
<path style="fill:#000000; fill-opacity:1.000000; 
stroke:#000000; stroke-width:0.000000; stroke-opacity:1; 
stroke-linecap:round; stroke-linejoin:round;fill-rule:evenodd;"
d="M 75.573205,68.067434
76.006217,68.317434
75.756217,68.750446
75.323205,68.500446
Z" /> 
</g>
<g >
</g>
<g style="fill:#000000; fill-opacity:1.000000; 
stroke:#000000; stroke-width:0.000000; stroke-opacity:1; 
stroke-linecap:round; stroke-linejoin:round;">
<path style="fill:#000000; fill-opacity:1.000000; 
stroke:#000000; stroke-width:0.000000; stroke-opacity:1; 
stroke-linecap:round; stroke-linejoin:round;fill-rule:evenodd;"
d="M 83.976795,52.711988
83.543783,52.461988
83.793783,52.028976
84.226795,52.278976
Z" /> 
<path style="fill:#000000; fill-opacity:1.000000; 
stroke:#000000; stroke-width:0.000000; stroke-opacity:1; 
stroke-linecap:round; stroke-linejoin:round;fill-rule:evenodd;"
d="M 84.756217,53.161988
84.323205,52.911988
84.573205,52.478976
85.006217,52.728976
Z" /> 
<path style="fill:#000000; fill-opacity:1.000000; 
stroke:#000000; stroke-width:0.000000; stroke-opacity:1; 
stroke-linecap:round; stroke-linejoin:round;fill-rule:evenodd;"
d="M 85.206217,52.382566
84.773205,52.132566
85.023205,51.699554
85.456217,51.949554
Z" /> 
<path style="fill:#000000; fill-opacity:1.000000; 
stroke:#000000; stroke-width:0.000000; stroke-opacity:1; 
stroke-linecap:round; stroke-linejoin:round;fill-rule:evenodd;"
d="M 84.426795,51.932566
83.993783,51.682566
84.243783,51.249554
84.676795,51.499554
Z" /> 
</g>
<g >
</g>
<g style="fill:#000000; fill-opacity:1.000000; 
stroke:#000000; stroke-width:0.000000; stroke-opacity:1; 
stroke-linecap:round; stroke-linejoin:round;">
<path style="fill:#000000; fill-opacity:1.000000; 
stroke:#000000; stroke-width:0.000000; stroke-opacity:1; 
stroke-linecap:round; stroke-linejoin:round;fill-rule:evenodd;"
d="M 89.571500,61.770000
89.564649,61.804442
89.545140,61.833640
89.515942,61.853149
89.481500,61.860000
89.203500,61.860000
89.169058,61.853149
89.139860,61.833640
89.120351,61.804442
89.113500,61.770000
89.113500,61.590000
89.120351,61.555558
89.139860,61.526360
89.169058,61.506851
89.203500,61.500000
89.481500,61.500000
89.515942,61.506851
89.545140,61.526360
89.564649,61.555558
89.571500,61.590000
Z" /> 
<path style="fill:#000000; fill-opacity:1.000000; 
stroke:#000000; stroke-width:0.000000; stroke-opacity:1; 
stroke-linecap:round; stroke-linejoin:round;fill-rule:evenodd;"
d="M 88.706500,61.770000
88.699649,61.804442
88.680140,61.833640
88.650942,61.853149
88.616500,61.860000
88.338500,61.860000
88.304058,61.853149
88.274860,61.833640
88.255351,61.804442
88.248500,61.770000
88.248500,61.590000
88.255351,61.555558
88.274860,61.526360
88.304058,61.506851
88.338500,61.500000
88.616500,61.500000
88.650942,61.506851
88.680140,61.526360
88.699649,61.555558
88.706500,61.590000
Z" /> 
</g>
<g >
</g>
<g style="fill:#000000; fill-opacity:1.000000; 
stroke:#000000; stroke-width:0.000000; stroke-opacity:1; 
stroke-linecap:round; stroke-linejoin:round;">
<path style="fill:#000000; fill-opacity:1.000000; 
stroke:#000000; stroke-width:0.000000; stroke-opacity:1; 
stroke-linecap:round; stroke-linejoin:round;fill-rule:evenodd;"
d="M 79.338500,49.560000
79.345351,49.525558
79.364860,49.496360
79.394058,49.476851
79.428500,49.470000
79.706500,49.470000
79.740942,49.476851
79.770140,49.496360
79.789649,49.525558
79.796500,49.560000
79.796500,49.740000
79.789649,49.774442
79.770140,49.803640
79.740942,49.823149
79.706500,49.830000
79.428500,49.830000
79.394058,49.823149
79.364860,49.803640
79.345351,49.774442
79.338500,49.740000
Z" /> 
<path style="fill:#000000; fill-opacity:1.000000; 
stroke:#000000; stroke-width:0.000000; stroke-opacity:1; 
stroke-linecap:round; stroke-linejoin:round;fill-rule:evenodd;"
d="M 80.203500,49.560000
80.210351,49.525558
80.229860,49.496360
80.259058,49.476851
80.293500,49.470000
80.571500,49.470000
80.605942,49.476851
80.635140,49.496360
80.654649,49.525558
80.661500,49.560000
80.661500,49.740000
80.654649,49.774442
80.635140,49.803640
80.605942,49.823149
80.571500,49.830000
80.293500,49.830000
80.259058,49.823149
80.229860,49.803640
80.210351,49.774442
80.203500,49.740000
Z" /> 
</g>
<g >
</g>
<g >
</g>
<g >
</g>
<g >
</g>
<g >
</g>
</g> 
</svg>
