<?xml version="1.0" standalone="no"?>
 <!DOCTYPE svg PUBLIC "-//W3C//DTD SVG 1.1//EN" 
 "http://www.w3.org/Graphics/SVG/1.1/DTD/svg11.dtd"> 
<svg
  xmlns:svg="http://www.w3.org/2000/svg"
  xmlns="http://www.w3.org/2000/svg"
  xmlns:xlink="http://www.w3.org/1999/xlink"
  version="1.1"
  width="3.8100000000000005cm" height="3.0100000000000002cm" viewBox="64.95 44.95 38.1 30.1">
<title>SVG Image created as pedalboard-led-ring-F_SilkS.svg date 2023/05/22 19:36:47 </title>
  <desc>Image generated by PCBNEW </desc>
<g style="fill:#000000; fill-opacity:1.000000;stroke:#000000; stroke-opacity:1.000000;
stroke-linecap:round; stroke-linejoin:round;"
 transform="translate(0 0) scale(1 1)">
</g>
<g style="fill:#000000; fill-opacity:0.0; 
stroke:#000000; stroke-width:0.000000; stroke-opacity:1; 
stroke-linecap:round; stroke-linejoin:round;">
</g>
<g style="fill:#000000; fill-opacity:0.0; 
stroke:#000000; stroke-width:0.050000; stroke-opacity:1; 
stroke-linecap:round; stroke-linejoin:round;">
<g transform="rotate(60.000000 89.942820 57.653461)">
<text x="89.942820" y="57.903461"
textLength="1.001190" font-size="0.666666" lengthAdjust="spacingAndGlyphs"
text-anchor="middle" opacity="0">D6</text>
</g>
<g class="stroked-text"><desc>D6</desc>
<path d="M89.557976 57.449511
L89.990989 57.199511
" />
<path d="M89.990989 57.199511
L90.050512 57.302609
" />
<path d="M90.050512 57.302609
L90.065607 57.376373
" />
<path d="M90.065607 57.376373
L90.048177 57.441422
" />
<path d="M90.048177 57.441422
L90.018843 57.485851
" />
<path d="M90.018843 57.485851
L89.948269 57.554090
" />
<path d="M89.948269 57.554090
L89.886410 57.589804
" />
<path d="M89.886410 57.589804
L89.792027 57.616803
" />
<path d="M89.792027 57.616803
L89.738882 57.619993
" />
<path d="M89.738882 57.619993
L89.673834 57.602563
" />
<path d="M89.673834 57.602563
L89.617500 57.552609
" />
<path d="M89.617500 57.552609
L89.557976 57.449511
" />
<path d="M90.348131 57.818100
L90.300512 57.735622
" />
<path d="M90.300512 57.735622
L90.256083 57.706287
" />
<path d="M90.256083 57.706287
L90.223559 57.697572
" />
<path d="M90.223559 57.697572
L90.137890 57.692047
" />
<path d="M90.137890 57.692047
L90.043507 57.719047
" />
<path d="M90.043507 57.719047
L89.878550 57.814285
" />
<path d="M89.878550 57.814285
L89.849215 57.858714
" />
<path d="M89.849215 57.858714
L89.840500 57.891238
" />
<path d="M89.840500 57.891238
L89.843690 57.944383
" />
<path d="M89.843690 57.944383
L89.891309 58.026861
" />
<path d="M89.891309 58.026861
L89.935738 58.056196
" />
<path d="M89.935738 58.056196
L89.968263 58.064911
" />
<path d="M89.968263 58.064911
L90.021407 58.061721
" />
<path d="M90.021407 58.061721
L90.124505 58.002197
" />
<path d="M90.124505 58.002197
L90.153840 57.957768
" />
<path d="M90.153840 57.957768
L90.162555 57.925243
" />
<path d="M90.162555 57.925243
L90.159365 57.872099
" />
<path d="M90.159365 57.872099
L90.111746 57.789621
" />
<path d="M90.111746 57.789621
L90.067316 57.760286
" />
<path d="M90.067316 57.760286
L90.034792 57.751571
" />
<path d="M90.034792 57.751571
L89.981648 57.754761
" />
</g><text x="77.600000" y="70.050000"
textLength="1.001190" font-size="0.666666" lengthAdjust="spacingAndGlyphs"
text-anchor="middle" opacity="0">D2</text>
<g class="stroked-text"><desc>D2</desc>
<path d="M77.230952 70.031309
L77.230952 69.531309
" />
<path d="M77.230952 69.531309
L77.350000 69.531309
" />
<path d="M77.350000 69.531309
L77.421428 69.555119
" />
<path d="M77.421428 69.555119
L77.469047 69.602738
" />
<path d="M77.469047 69.602738
L77.492857 69.650357
" />
<path d="M77.492857 69.650357
L77.516666 69.745595
" />
<path d="M77.516666 69.745595
L77.516666 69.817023
" />
<path d="M77.516666 69.817023
L77.492857 69.912261
" />
<path d="M77.492857 69.912261
L77.469047 69.959880
" />
<path d="M77.469047 69.959880
L77.421428 70.007500
" />
<path d="M77.421428 70.007500
L77.350000 70.031309
" />
<path d="M77.350000 70.031309
L77.230952 70.031309
" />
<path d="M77.707143 69.578928
L77.730952 69.555119
" />
<path d="M77.730952 69.555119
L77.778571 69.531309
" />
<path d="M77.778571 69.531309
L77.897619 69.531309
" />
<path d="M77.897619 69.531309
L77.945238 69.555119
" />
<path d="M77.945238 69.555119
L77.969047 69.578928
" />
<path d="M77.969047 69.578928
L77.992857 69.626547
" />
<path d="M77.992857 69.626547
L77.992857 69.674166
" />
<path d="M77.992857 69.674166
L77.969047 69.745595
" />
<path d="M77.969047 69.745595
L77.683333 70.031309
" />
<path d="M77.683333 70.031309
L77.992857 70.031309
" />
</g><text x="82.210000" y="50.565000"
textLength="1.001190" font-size="0.666666" lengthAdjust="spacingAndGlyphs"
text-anchor="middle" opacity="0">D5</text>
<g class="stroked-text"><desc>D5</desc>
<path d="M81.840952 50.546309
L81.840952 50.046309
" />
<path d="M81.840952 50.046309
L81.960000 50.046309
" />
<path d="M81.960000 50.046309
L82.031428 50.070119
" />
<path d="M82.031428 50.070119
L82.079047 50.117738
" />
<path d="M82.079047 50.117738
L82.102857 50.165357
" />
<path d="M82.102857 50.165357
L82.126666 50.260595
" />
<path d="M82.126666 50.260595
L82.126666 50.332023
" />
<path d="M82.126666 50.332023
L82.102857 50.427261
" />
<path d="M82.102857 50.427261
L82.079047 50.474880
" />
<path d="M82.079047 50.474880
L82.031428 50.522500
" />
<path d="M82.031428 50.522500
L81.960000 50.546309
" />
<path d="M81.960000 50.546309
L81.840952 50.546309
" />
<path d="M82.579047 50.046309
L82.340952 50.046309
" />
<path d="M82.340952 50.046309
L82.317143 50.284404
" />
<path d="M82.317143 50.284404
L82.340952 50.260595
" />
<path d="M82.340952 50.260595
L82.388571 50.236785
" />
<path d="M82.388571 50.236785
L82.507619 50.236785
" />
<path d="M82.507619 50.236785
L82.555238 50.260595
" />
<path d="M82.555238 50.260595
L82.579047 50.284404
" />
<path d="M82.579047 50.284404
L82.602857 50.332023
" />
<path d="M82.602857 50.332023
L82.602857 50.451071
" />
<path d="M82.602857 50.451071
L82.579047 50.498690
" />
<path d="M82.579047 50.498690
L82.555238 50.522500
" />
<path d="M82.555238 50.522500
L82.507619 50.546309
" />
<path d="M82.507619 50.546309
L82.388571 50.546309
" />
<path d="M82.388571 50.546309
L82.340952 50.522500
" />
<path d="M82.340952 50.522500
L82.317143 50.498690
" />
</g><g transform="rotate(60.000000 70.057180 62.346539)">
<text x="70.057180" y="62.596539"
textLength="1.001190" font-size="0.666666" lengthAdjust="spacingAndGlyphs"
text-anchor="middle" opacity="0">D3</text>
</g>
<g class="stroked-text"><desc>D3</desc>
<path d="M69.672336 62.142589
L70.105349 61.892589
" />
<path d="M70.105349 61.892589
L70.164872 61.995687
" />
<path d="M70.164872 61.995687
L70.179967 62.069451
" />
<path d="M70.179967 62.069451
L70.162537 62.134500
" />
<path d="M70.162537 62.134500
L70.133203 62.178929
" />
<path d="M70.133203 62.178929
L70.062629 62.247168
" />
<path d="M70.062629 62.247168
L70.000770 62.282882
" />
<path d="M70.000770 62.282882
L69.906387 62.309881
" />
<path d="M69.906387 62.309881
L69.853242 62.313071
" />
<path d="M69.853242 62.313071
L69.788194 62.295641
" />
<path d="M69.788194 62.295641
L69.731860 62.245687
" />
<path d="M69.731860 62.245687
L69.672336 62.142589
" />
<path d="M70.331539 62.284362
L70.486301 62.552418
" />
<path d="M70.486301 62.552418
L70.238010 62.503318
" />
<path d="M70.238010 62.503318
L70.273725 62.565177
" />
<path d="M70.273725 62.565177
L70.276915 62.618321
" />
<path d="M70.276915 62.618321
L70.268200 62.650846
" />
<path d="M70.268200 62.650846
L70.238865 62.695275
" />
<path d="M70.238865 62.695275
L70.135767 62.754799
" />
<path d="M70.135767 62.754799
L70.082623 62.757989
" />
<path d="M70.082623 62.757989
L70.050098 62.749274
" />
<path d="M70.050098 62.749274
L70.005669 62.719939
" />
<path d="M70.005669 62.719939
L69.934241 62.596221
" />
<path d="M69.934241 62.596221
L69.931051 62.543077
" />
<path d="M69.931051 62.543077
L69.939766 62.510553
" />
</g><g transform="rotate(-60.000000 72.457180 53.496539)">
<text x="72.457180" y="53.746539"
textLength="1.001190" font-size="0.666666" lengthAdjust="spacingAndGlyphs"
text-anchor="middle" opacity="0">D4</text>
</g>
<g class="stroked-text"><desc>D4</desc>
<path d="M72.472976 53.931798
L72.039963 53.681798
" />
<path d="M72.039963 53.681798
L72.099487 53.578699
" />
<path d="M72.099487 53.578699
L72.155821 53.528745
" />
<path d="M72.155821 53.528745
L72.220870 53.511315
" />
<path d="M72.220870 53.511315
L72.274014 53.514505
" />
<path d="M72.274014 53.514505
L72.368397 53.541505
" />
<path d="M72.368397 53.541505
L72.430256 53.577219
" />
<path d="M72.430256 53.577219
L72.500830 53.645458
" />
<path d="M72.500830 53.645458
L72.530164 53.689887
" />
<path d="M72.530164 53.689887
L72.547594 53.754936
" />
<path d="M72.547594 53.754936
L72.532500 53.828699
" />
<path d="M72.532500 53.828699
L72.472976 53.931798
" />
<path d="M72.541443 53.146541
L72.830119 53.313208
" />
<path d="M72.316962 53.154402
L72.566733 53.436071
" />
<path d="M72.566733 53.436071
L72.721495 53.168016
" />
</g><g transform="rotate(-60.000000 87.542820 66.503461)">
<text x="87.542820" y="66.753461"
textLength="1.001190" font-size="0.666666" lengthAdjust="spacingAndGlyphs"
text-anchor="middle" opacity="0">D1</text>
</g>
<g class="stroked-text"><desc>D1</desc>
<path d="M87.558616 66.938720
L87.125603 66.688720
" />
<path d="M87.125603 66.688720
L87.185127 66.585621
" />
<path d="M87.185127 66.585621
L87.241461 66.535667
" />
<path d="M87.241461 66.535667
L87.306510 66.518237
" />
<path d="M87.306510 66.518237
L87.359654 66.521427
" />
<path d="M87.359654 66.521427
L87.454037 66.548427
" />
<path d="M87.454037 66.548427
L87.515896 66.584141
" />
<path d="M87.515896 66.584141
L87.586470 66.652380
" />
<path d="M87.586470 66.652380
L87.615804 66.696809
" />
<path d="M87.615804 66.696809
L87.633234 66.761858
" />
<path d="M87.633234 66.761858
L87.618140 66.835621
" />
<path d="M87.618140 66.835621
L87.558616 66.938720
" />
<path d="M87.939568 66.278891
L87.796711 66.526327
" />
<path d="M87.868140 66.402609
L87.435127 66.152609
" />
<path d="M87.435127 66.152609
L87.473176 66.229562
" />
<path d="M87.473176 66.229562
L87.490606 66.294611
" />
<path d="M87.490606 66.294611
L87.487416 66.347755
" />
</g></g>
<g style="fill:#000000; fill-opacity:0.0; 
stroke:#000000; stroke-width:0.120000; stroke-opacity:1; 
stroke-linecap:round; stroke-linejoin:round;">
<path d="M86.447372 55.399167
L88.352628 54.299167
" />
<path d="M88.007180 57.500833
L89.392820 56.700833
" />
<path d="M81.300000 67.900000
L81.300000 70.100000
" />
<path d="M78.700000 68.200000
L78.700000 69.800000
" />
<path d="M78.700000 52.100000
L78.700000 49.900000
" />
<path d="M81.300000 51.800000
L81.300000 50.200000
" />
<path d="M73.552628 64.600833
L71.647372 65.700833
" />
<path d="M71.992820 62.499167
L70.607180 63.299167
" />
<path d="M72.252628 57.650833
L70.347372 56.550833
" />
<path d="M73.292820 55.249167
L71.907180 54.449167
" />
<path d="M87.747372 62.349167
L89.652628 63.449167
" />
<path d="M86.707180 64.750833
L88.092820 65.550833
" />
<g >
</g>
<g >
</g>
<g >
</g>
<g >
</g>
<g >
</g>
<g >
</g>
<g >
</g>
<g >
</g>
<g >
</g>
<g >
</g>
<g >
</g>
<g >
</g>
<g >
</g>
<g >
</g>
</g> 
</svg>
