<?xml version="1.0" standalone="no"?>
 <!DOCTYPE svg PUBLIC "-//W3C//DTD SVG 1.1//EN" 
 "http://www.w3.org/Graphics/SVG/1.1/DTD/svg11.dtd"> 
<svg
  xmlns:svg="http://www.w3.org/2000/svg"
  xmlns="http://www.w3.org/2000/svg"
  xmlns:xlink="http://www.w3.org/1999/xlink"
  version="1.1"
  width="3.2100000000000004cm" height="3.2100000000000004cm" viewBox="63.95 43.95 32.1 32.1">
<title>SVG Image created as pedalboard-led-ring-F_SilkS.svg date 2023/06/03 10:30:33 </title>
  <desc>Image generated by PCBNEW </desc>
<g style="fill:#000000; fill-opacity:1.000000;stroke:#000000; stroke-opacity:1.000000;
stroke-linecap:round; stroke-linejoin:round;"
 transform="translate(0 0) scale(1 1)">
</g>
<g style="fill:#000000; fill-opacity:0.0; 
stroke:#000000; stroke-width:0.000000; stroke-opacity:1; 
stroke-linecap:round; stroke-linejoin:round;">
</g>
<g style="fill:#000000; fill-opacity:0.0; 
stroke:#000000; stroke-width:0.100000; stroke-opacity:1; 
stroke-linecap:round; stroke-linejoin:round;">
<text x="80.000000" y="60.000000"
textLength="2.050000" font-size="1.333333" lengthAdjust="spacingAndGlyphs"
text-anchor="middle" opacity="0">H4</text>
<g class="stroked-text"><desc>H4</desc>
<path d="M79.238095 59.957419
L79.238095 58.957419
" />
<path d="M79.238095 59.433609
L79.809523 59.433609
" />
<path d="M79.809523 59.957419
L79.809523 58.957419
" />
<path d="M80.714285 59.290752
L80.714285 59.957419
" />
<path d="M80.476190 58.909800
L80.238095 59.624085
" />
<path d="M80.238095 59.624085
L80.857142 59.624085
" />
</g><path d="M85.661122 68.105351
L85.336122 67.542434
" />
<path d="M85.098205 68.430351
L85.661122 68.105351
" />
<path d="M89.850000 59.150000
L89.200000 59.150000
" />
<path d="M89.850000 59.800000
L89.850000 59.150000
" />
<path d="M79.150000 50.150000
L79.150000 50.800000
" />
<path d="M79.800000 50.150000
L79.150000 50.150000
" />
<path d="M88.955351 64.188878
L88.392434 63.863878
" />
<path d="M88.630351 64.751795
L88.955351 64.188878
" />
<path d="M71.894649 65.661122
L72.457566 65.336122
" />
<path d="M71.569649 65.098205
L71.894649 65.661122
" />
<path d="M80.850000 69.850000
L80.850000 69.200000
" />
<path d="M80.200000 69.850000
L80.850000 69.850000
" />
<path d="M70.150000 60.850000
L70.800000 60.850000
" />
<path d="M70.150000 60.200000
L70.150000 60.850000
" />
<path d="M71.044649 55.811122
L71.607566 56.136122
" />
<path d="M71.369649 55.248205
L71.044649 55.811122
" />
<path d="M88.105351 54.338878
L87.542434 54.663878
" />
<path d="M88.430351 54.901795
L88.105351 54.338878
" />
<path d="M74.338878 51.894649
L74.663878 52.457566
" />
<path d="M74.901795 51.569649
L74.338878 51.894649
" />
<path d="M75.811122 68.955351
L76.136122 68.392434
" />
<path d="M75.248205 68.630351
L75.811122 68.955351
" />
<path d="M84.188878 51.044649
L83.863878 51.607566
" />
<path d="M84.751795 51.369649
L84.188878 51.044649
" />
<g >
</g>
<g >
</g>
<g >
</g>
<g >
</g>
<g >
</g>
<g >
</g>
<g >
</g>
<g >
</g>
<g >
</g>
<g >
</g>
<g >
</g>
<g >
</g>
<g >
</g>
<g >
</g>
<g >
</g>
<g >
</g>
<g >
</g>
<g >
</g>
<g >
</g>
<g >
</g>
<g >
</g>
<g >
</g>
<g >
</g>
<g >
</g>
<g >
</g>
<g >
</g>
<g >
</g>
<g >
</g>
<g >
</g>
<g >
</g>
<g >
</g>
<g >
</g>
<g >
</g>
<g >
</g>
</g> 
</svg>
