<?xml version="1.0" standalone="no"?>
 <!DOCTYPE svg PUBLIC "-//W3C//DTD SVG 1.1//EN" 
 "http://www.w3.org/Graphics/SVG/1.1/DTD/svg11.dtd"> 
<svg
  xmlns:svg="http://www.w3.org/2000/svg"
  xmlns="http://www.w3.org/2000/svg"
  xmlns:xlink="http://www.w3.org/1999/xlink"
  version="1.1"
  width="3.0100000000000002cm" height="3.0100000000000002cm" viewBox="64.95 44.95 30.1 30.1">
<title>SVG Image created as pedalboard-led-ring-F_SilkS.svg date 2023/05/31 21:03:05 </title>
  <desc>Image generated by PCBNEW </desc>
<g style="fill:#000000; fill-opacity:1.000000;stroke:#000000; stroke-opacity:1.000000;
stroke-linecap:round; stroke-linejoin:round;"
 transform="translate(0 0) scale(1 1)">
</g>
<g style="fill:#000000; fill-opacity:0.0; 
stroke:#000000; stroke-width:0.000000; stroke-opacity:1; 
stroke-linecap:round; stroke-linejoin:round;">
</g>
<g style="fill:#000000; fill-opacity:0.0; 
stroke:#000000; stroke-width:0.150000; stroke-opacity:1; 
stroke-linecap:round; stroke-linejoin:round;">
<g transform="rotate(60.000000 86.015544 66.919229)">
<text x="86.015544" y="67.419229"
textLength="3.079762" font-size="1.333333" lengthAdjust="spacingAndGlyphs"
text-anchor="middle" opacity="0">D11</text>
</g>
<g class="stroked-text"><desc>D11</desc>
<path d="M85.014516 66.095036
L85.880541 65.595036
" />
<path d="M85.880541 65.595036
L85.999589 65.801232
" />
<path d="M85.999589 65.801232
L86.029778 65.948760
" />
<path d="M86.029778 65.948760
L85.994918 66.078857
" />
<path d="M85.994918 66.078857
L85.936249 66.167716
" />
<path d="M85.936249 66.167716
L85.795102 66.304193
" />
<path d="M85.795102 66.304193
L85.671384 66.375622
" />
<path d="M85.671384 66.375622
L85.482617 66.429620
" />
<path d="M85.482617 66.429620
L85.376329 66.436000
" />
<path d="M85.376329 66.436000
L85.246231 66.401141
" />
<path d="M85.246231 66.401141
L85.133563 66.301232
" />
<path d="M85.133563 66.301232
L85.014516 66.095036
" />
<path d="M85.776421 67.414693
L85.490706 66.919822
" />
<path d="M85.633563 67.167258
L86.499589 66.667258
" />
<path d="M86.499589 66.667258
L86.328252 66.656208
" />
<path d="M86.328252 66.656208
L86.198154 66.621348
" />
<path d="M86.198154 66.621348
L86.109296 66.562679
" />
<path d="M86.252611 68.239480
L85.966897 67.744608
" />
<path d="M86.109754 67.992044
L86.975779 67.492044
" />
<path d="M86.975779 67.492044
L86.804442 67.480994
" />
<path d="M86.804442 67.480994
L86.674345 67.446134
" />
<path d="M86.674345 67.446134
L86.585486 67.387465
" />
</g></g>
<g style="fill:#000000; fill-opacity:0.0; 
stroke:#000000; stroke-width:0.075000; stroke-opacity:1; 
stroke-linecap:round; stroke-linejoin:round;">
<g transform="rotate(60.000000 84.427211 66.768156)">
<text x="84.427211" y="66.918156"
textLength="0.413214" font-size="0.400000" lengthAdjust="spacingAndGlyphs"
text-anchor="middle" opacity="0">1</text>
</g>
<g class="stroked-text"><desc>1</desc>
<path d="M84.353253 66.909829
L84.267539 66.761368
" />
<path d="M84.310396 66.835598
L84.570204 66.685598
" />
<path d="M84.570204 66.685598
L84.518803 66.682283
" />
<path d="M84.518803 66.682283
L84.479773 66.671826
" />
<path d="M84.479773 66.671826
L84.453116 66.654225
" />
</g></g>
<g style="fill:#000000; fill-opacity:0.0; 
stroke:#000000; stroke-width:0.150000; stroke-opacity:1; 
stroke-linecap:round; stroke-linejoin:round;">
<text x="89.000000" y="58.750000"
textLength="2.127381" font-size="1.333333" lengthAdjust="spacingAndGlyphs"
text-anchor="middle" opacity="0">D1</text>
<g class="stroked-text"><desc>D1</desc>
<path d="M88.261905 58.704819
L88.261905 57.704819
" />
<path d="M88.261905 57.704819
L88.500000 57.704819
" />
<path d="M88.500000 57.704819
L88.642857 57.752438
" />
<path d="M88.642857 57.752438
L88.738095 57.847676
" />
<path d="M88.738095 57.847676
L88.785714 57.942914
" />
<path d="M88.785714 57.942914
L88.833333 58.133390
" />
<path d="M88.833333 58.133390
L88.833333 58.276247
" />
<path d="M88.833333 58.276247
L88.785714 58.466723
" />
<path d="M88.785714 58.466723
L88.738095 58.561961
" />
<path d="M88.738095 58.561961
L88.642857 58.657200
" />
<path d="M88.642857 58.657200
L88.500000 58.704819
" />
<path d="M88.500000 58.704819
L88.261905 58.704819
" />
<path d="M89.785714 58.704819
L89.214286 58.704819
" />
<path d="M89.500000 58.704819
L89.500000 57.704819
" />
<path d="M89.500000 57.704819
L89.404762 57.847676
" />
<path d="M89.404762 57.847676
L89.309524 57.942914
" />
<path d="M89.309524 57.942914
L89.214286 57.990533
" />
</g></g>
<g style="fill:#000000; fill-opacity:0.0; 
stroke:#000000; stroke-width:0.075000; stroke-opacity:1; 
stroke-linecap:round; stroke-linejoin:round;">
<text x="88.075000" y="59.700000"
textLength="0.413214" font-size="0.400000" lengthAdjust="spacingAndGlyphs"
text-anchor="middle" opacity="0">1</text>
<g class="stroked-text"><desc>1</desc>
<path d="M88.160714 59.684885
L87.989285 59.684885
" />
<path d="M88.075000 59.684885
L88.075000 59.384885
" />
<path d="M88.075000 59.384885
L88.046428 59.427742
" />
<path d="M88.046428 59.427742
L88.017857 59.456314
" />
<path d="M88.017857 59.456314
L87.989285 59.470600
" />
</g></g>
<g style="fill:#000000; fill-opacity:0.0; 
stroke:#000000; stroke-width:0.150000; stroke-opacity:1; 
stroke-linecap:round; stroke-linejoin:round;">
<g transform="rotate(-90.000000 78.250000 51.000000)">
<text x="78.250000" y="51.500000"
textLength="2.127381" font-size="1.333333" lengthAdjust="spacingAndGlyphs"
text-anchor="middle" opacity="0">D4</text>
</g>
<g class="stroked-text"><desc>D4</desc>
<path d="M78.704819 51.738094
L77.704819 51.738094
" />
<path d="M77.704819 51.738094
L77.704819 51.499999
" />
<path d="M77.704819 51.499999
L77.752438 51.357142
" />
<path d="M77.752438 51.357142
L77.847676 51.261904
" />
<path d="M77.847676 51.261904
L77.942914 51.214285
" />
<path d="M77.942914 51.214285
L78.133390 51.166666
" />
<path d="M78.133390 51.166666
L78.276247 51.166666
" />
<path d="M78.276247 51.166666
L78.466723 51.214285
" />
<path d="M78.466723 51.214285
L78.561961 51.261904
" />
<path d="M78.561961 51.261904
L78.657200 51.357142
" />
<path d="M78.657200 51.357142
L78.704819 51.499999
" />
<path d="M78.704819 51.499999
L78.704819 51.738094
" />
<path d="M78.038152 50.309523
L78.704819 50.309523
" />
<path d="M77.657200 50.547618
L78.371485 50.785713
" />
<path d="M78.371485 50.785713
L78.371485 50.166666
" />
</g></g>
<g style="fill:#000000; fill-opacity:0.0; 
stroke:#000000; stroke-width:0.075000; stroke-opacity:1; 
stroke-linecap:round; stroke-linejoin:round;">
<g transform="rotate(-90.000000 79.550000 51.925000)">
<text x="79.550000" y="52.075000"
textLength="0.413214" font-size="0.400000" lengthAdjust="spacingAndGlyphs"
text-anchor="middle" opacity="0">1</text>
</g>
<g class="stroked-text"><desc>1</desc>
<path d="M79.684885 51.839285
L79.684885 52.010714
" />
<path d="M79.684885 51.924999
L79.384885 51.924999
" />
<path d="M79.384885 51.924999
L79.427742 51.953571
" />
<path d="M79.427742 51.953571
L79.456314 51.982142
" />
<path d="M79.456314 51.982142
L79.470600 52.010714
" />
</g></g>
<g style="fill:#000000; fill-opacity:0.0; 
stroke:#000000; stroke-width:0.150000; stroke-opacity:1; 
stroke-linecap:round; stroke-linejoin:round;">
<g transform="rotate(30.000000 88.669229 62.984456)">
<text x="88.669229" y="63.484456"
textLength="3.079762" font-size="1.333333" lengthAdjust="spacingAndGlyphs"
text-anchor="middle" opacity="0">D12</text>
</g>
<g class="stroked-text"><desc>D12</desc>
<path d="M87.390217 62.771197
L87.890217 61.905172
" />
<path d="M87.890217 61.905172
L88.096413 62.024220
" />
<path d="M88.096413 62.024220
L88.196322 62.136888
" />
<path d="M88.196322 62.136888
L88.231181 62.266985
" />
<path d="M88.231181 62.266985
L88.224801 62.373273
" />
<path d="M88.224801 62.373273
L88.170803 62.562040
" />
<path d="M88.170803 62.562040
L88.099374 62.685758
" />
<path d="M88.099374 62.685758
L87.962897 62.826906
" />
<path d="M87.962897 62.826906
L87.874038 62.885575
" />
<path d="M87.874038 62.885575
L87.743941 62.920434
" />
<path d="M87.743941 62.920434
L87.596413 62.890245
" />
<path d="M87.596413 62.890245
L87.390217 62.771197
" />
<path d="M88.709874 63.533102
L88.215003 63.247388
" />
<path d="M88.462439 63.390245
L88.962439 62.524220
" />
<path d="M88.962439 62.524220
L88.808531 62.600319
" />
<path d="M88.808531 62.600319
L88.678434 62.635178
" />
<path d="M88.678434 62.635178
L88.572146 62.628798
" />
<path d="M89.492170 62.940032
L89.557219 62.922602
" />
<path d="M89.557219 62.922602
L89.663507 62.928982
" />
<path d="M89.663507 62.928982
L89.869703 63.048029
" />
<path d="M89.869703 63.048029
L89.928372 63.136888
" />
<path d="M89.928372 63.136888
L89.945802 63.201936
" />
<path d="M89.945802 63.201936
L89.939422 63.308225
" />
<path d="M89.939422 63.308225
L89.891803 63.390703
" />
<path d="M89.891803 63.390703
L89.779136 63.490612
" />
<path d="M89.779136 63.490612
L88.998550 63.699769
" />
<path d="M88.998550 63.699769
L89.534661 64.009293
" />
</g></g>
<g style="fill:#000000; fill-opacity:0.0; 
stroke:#000000; stroke-width:0.075000; stroke-opacity:1; 
stroke-linecap:round; stroke-linejoin:round;">
<g transform="rotate(30.000000 87.218156 63.647789)">
<text x="87.218156" y="63.797789"
textLength="0.413214" font-size="0.400000" lengthAdjust="spacingAndGlyphs"
text-anchor="middle" opacity="0">1</text>
</g>
<g class="stroked-text"><desc>1</desc>
<path d="M87.224944 63.807460
L87.076482 63.721746
" />
<path d="M87.150713 63.764603
L87.300713 63.504795
" />
<path d="M87.300713 63.504795
L87.254541 63.527625
" />
<path d="M87.254541 63.527625
L87.215511 63.538083
" />
<path d="M87.215511 63.538083
L87.183625 63.536169
" />
</g></g>
<g style="fill:#000000; fill-opacity:0.0; 
stroke:#000000; stroke-width:0.150000; stroke-opacity:1; 
stroke-linecap:round; stroke-linejoin:round;">
<g transform="rotate(-30.000000 73.080771 66.015544)">
<text x="73.080771" y="66.515544"
textLength="2.127381" font-size="1.333333" lengthAdjust="spacingAndGlyphs"
text-anchor="middle" opacity="0">D8</text>
</g>
<g class="stroked-text"><desc>D8</desc>
<path d="M72.668971 66.778476
L72.168971 65.912450
" />
<path d="M72.168971 65.912450
L72.375168 65.793403
" />
<path d="M72.375168 65.793403
L72.522695 65.763213
" />
<path d="M72.522695 65.763213
L72.652793 65.798073
" />
<path d="M72.652793 65.798073
L72.741651 65.856742
" />
<path d="M72.741651 65.856742
L72.878129 65.997890
" />
<path d="M72.878129 65.997890
L72.949557 66.121608
" />
<path d="M72.949557 66.121608
L73.003556 66.310374
" />
<path d="M73.003556 66.310374
L73.009936 66.416663
" />
<path d="M73.009936 66.416663
L72.975076 66.546760
" />
<path d="M72.975076 66.546760
L72.875168 66.659428
" />
<path d="M72.875168 66.659428
L72.668971 66.778476
" />
<path d="M73.373000 65.712175
L73.266712 65.718555
" />
<path d="M73.266712 65.718555
L73.201663 65.701125
" />
<path d="M73.201663 65.701125
L73.112805 65.642456
" />
<path d="M73.112805 65.642456
L73.088995 65.601217
" />
<path d="M73.088995 65.601217
L73.082616 65.494929
" />
<path d="M73.082616 65.494929
L73.100045 65.429880
" />
<path d="M73.100045 65.429880
L73.158715 65.341022
" />
<path d="M73.158715 65.341022
L73.323672 65.245784
" />
<path d="M73.323672 65.245784
L73.429960 65.239404
" />
<path d="M73.429960 65.239404
L73.495009 65.256834
" />
<path d="M73.495009 65.256834
L73.583867 65.315503
" />
<path d="M73.583867 65.315503
L73.607677 65.356742
" />
<path d="M73.607677 65.356742
L73.614056 65.463030
" />
<path d="M73.614056 65.463030
L73.596627 65.528079
" />
<path d="M73.596627 65.528079
L73.537957 65.616937
" />
<path d="M73.537957 65.616937
L73.373000 65.712175
" />
<path d="M73.373000 65.712175
L73.314331 65.801034
" />
<path d="M73.314331 65.801034
L73.296901 65.866083
" />
<path d="M73.296901 65.866083
L73.303281 65.972371
" />
<path d="M73.303281 65.972371
L73.398519 66.137328
" />
<path d="M73.398519 66.137328
L73.487378 66.195997
" />
<path d="M73.487378 66.195997
L73.552426 66.213427
" />
<path d="M73.552426 66.213427
L73.658715 66.207047
" />
<path d="M73.658715 66.207047
L73.823672 66.111809
" />
<path d="M73.823672 66.111809
L73.882341 66.022951
" />
<path d="M73.882341 66.022951
L73.899771 65.957902
" />
<path d="M73.899771 65.957902
L73.893391 65.851614
" />
<path d="M73.893391 65.851614
L73.798153 65.686657
" />
<path d="M73.798153 65.686657
L73.709294 65.627987
" />
<path d="M73.709294 65.627987
L73.644246 65.610558
" />
<path d="M73.644246 65.610558
L73.537957 65.616937
" />
</g></g>
<g style="fill:#000000; fill-opacity:0.0; 
stroke:#000000; stroke-width:0.075000; stroke-opacity:1; 
stroke-linecap:round; stroke-linejoin:round;">
<g transform="rotate(-30.000000 73.231844 64.427211)">
<text x="73.231844" y="64.577211"
textLength="0.413214" font-size="0.400000" lengthAdjust="spacingAndGlyphs"
text-anchor="middle" opacity="0">1</text>
</g>
<g class="stroked-text"><desc>1</desc>
<path d="M73.373517 64.501168
L73.225056 64.586882
" />
<path d="M73.299286 64.544025
L73.149286 64.284217
" />
<path d="M73.149286 64.284217
L73.145971 64.335618
" />
<path d="M73.145971 64.335618
L73.135514 64.374648
" />
<path d="M73.135514 64.374648
L73.117913 64.401305
" />
</g></g>
<g style="fill:#000000; fill-opacity:0.0; 
stroke:#000000; stroke-width:0.150000; stroke-opacity:1; 
stroke-linecap:round; stroke-linejoin:round;">
<g transform="rotate(-90.000000 81.750000 69.000000)">
<text x="81.750000" y="69.500000"
textLength="3.079762" font-size="1.333333" lengthAdjust="spacingAndGlyphs"
text-anchor="middle" opacity="0">D10</text>
</g>
<g class="stroked-text"><desc>D10</desc>
<path d="M82.204819 70.214285
L81.204819 70.214285
" />
<path d="M81.204819 70.214285
L81.204819 69.976190
" />
<path d="M81.204819 69.976190
L81.252438 69.833333
" />
<path d="M81.252438 69.833333
L81.347676 69.738095
" />
<path d="M81.347676 69.738095
L81.442914 69.690476
" />
<path d="M81.442914 69.690476
L81.633390 69.642857
" />
<path d="M81.633390 69.642857
L81.776247 69.642857
" />
<path d="M81.776247 69.642857
L81.966723 69.690476
" />
<path d="M81.966723 69.690476
L82.061961 69.738095
" />
<path d="M82.061961 69.738095
L82.157200 69.833333
" />
<path d="M82.157200 69.833333
L82.204819 69.976190
" />
<path d="M82.204819 69.976190
L82.204819 70.214285
" />
<path d="M82.204819 68.690476
L82.204819 69.261904
" />
<path d="M82.204819 68.976190
L81.204819 68.976190
" />
<path d="M81.204819 68.976190
L81.347676 69.071428
" />
<path d="M81.347676 69.071428
L81.442914 69.166666
" />
<path d="M81.442914 69.166666
L81.490533 69.261904
" />
<path d="M81.204819 68.071428
L81.204819 67.976190
" />
<path d="M81.204819 67.976190
L81.252438 67.880952
" />
<path d="M81.252438 67.880952
L81.300057 67.833333
" />
<path d="M81.300057 67.833333
L81.395295 67.785714
" />
<path d="M81.395295 67.785714
L81.585771 67.738095
" />
<path d="M81.585771 67.738095
L81.823866 67.738095
" />
<path d="M81.823866 67.738095
L82.014342 67.785714
" />
<path d="M82.014342 67.785714
L82.109580 67.833333
" />
<path d="M82.109580 67.833333
L82.157200 67.880952
" />
<path d="M82.157200 67.880952
L82.204819 67.976190
" />
<path d="M82.204819 67.976190
L82.204819 68.071428
" />
<path d="M82.204819 68.071428
L82.157200 68.166666
" />
<path d="M82.157200 68.166666
L82.109580 68.214285
" />
<path d="M82.109580 68.214285
L82.014342 68.261904
" />
<path d="M82.014342 68.261904
L81.823866 68.309523
" />
<path d="M81.823866 68.309523
L81.585771 68.309523
" />
<path d="M81.585771 68.309523
L81.395295 68.261904
" />
<path d="M81.395295 68.261904
L81.300057 68.214285
" />
<path d="M81.300057 68.214285
L81.252438 68.166666
" />
<path d="M81.252438 68.166666
L81.204819 68.071428
" />
</g></g>
<g style="fill:#000000; fill-opacity:0.0; 
stroke:#000000; stroke-width:0.075000; stroke-opacity:1; 
stroke-linecap:round; stroke-linejoin:round;">
<g transform="rotate(-90.000000 80.450000 68.075000)">
<text x="80.450000" y="68.225000"
textLength="0.413214" font-size="0.400000" lengthAdjust="spacingAndGlyphs"
text-anchor="middle" opacity="0">1</text>
</g>
<g class="stroked-text"><desc>1</desc>
<path d="M80.584885 67.989285
L80.584885 68.160714
" />
<path d="M80.584885 68.074999
L80.284885 68.074999
" />
<path d="M80.284885 68.074999
L80.327742 68.103571
" />
<path d="M80.327742 68.103571
L80.356314 68.132142
" />
<path d="M80.356314 68.132142
L80.370600 68.160714
" />
</g></g>
<g style="fill:#000000; fill-opacity:0.0; 
stroke:#000000; stroke-width:0.150000; stroke-opacity:1; 
stroke-linecap:round; stroke-linejoin:round;">
<text x="71.000000" y="62.250000"
textLength="2.127381" font-size="1.333333" lengthAdjust="spacingAndGlyphs"
text-anchor="middle" opacity="0">D7</text>
<g class="stroked-text"><desc>D7</desc>
<path d="M70.261905 62.204819
L70.261905 61.204819
" />
<path d="M70.261905 61.204819
L70.500000 61.204819
" />
<path d="M70.500000 61.204819
L70.642857 61.252438
" />
<path d="M70.642857 61.252438
L70.738095 61.347676
" />
<path d="M70.738095 61.347676
L70.785714 61.442914
" />
<path d="M70.785714 61.442914
L70.833333 61.633390
" />
<path d="M70.833333 61.633390
L70.833333 61.776247
" />
<path d="M70.833333 61.776247
L70.785714 61.966723
" />
<path d="M70.785714 61.966723
L70.738095 62.061961
" />
<path d="M70.738095 62.061961
L70.642857 62.157200
" />
<path d="M70.642857 62.157200
L70.500000 62.204819
" />
<path d="M70.500000 62.204819
L70.261905 62.204819
" />
<path d="M71.166667 61.204819
L71.833333 61.204819
" />
<path d="M71.833333 61.204819
L71.404762 62.204819
" />
</g></g>
<g style="fill:#000000; fill-opacity:0.0; 
stroke:#000000; stroke-width:0.075000; stroke-opacity:1; 
stroke-linecap:round; stroke-linejoin:round;">
<text x="71.925000" y="60.600000"
textLength="0.413214" font-size="0.400000" lengthAdjust="spacingAndGlyphs"
text-anchor="middle" opacity="0">1</text>
<g class="stroked-text"><desc>1</desc>
<path d="M72.010714 60.584885
L71.839285 60.584885
" />
<path d="M71.925000 60.584885
L71.925000 60.284885
" />
<path d="M71.925000 60.284885
L71.896428 60.327742
" />
<path d="M71.896428 60.327742
L71.867857 60.356314
" />
<path d="M71.867857 60.356314
L71.839285 60.370600
" />
</g></g>
<g style="fill:#000000; fill-opacity:0.0; 
stroke:#000000; stroke-width:0.150000; stroke-opacity:1; 
stroke-linecap:round; stroke-linejoin:round;">
<g transform="rotate(30.000000 71.330771 57.015544)">
<text x="71.330771" y="57.515544"
textLength="2.127381" font-size="1.333333" lengthAdjust="spacingAndGlyphs"
text-anchor="middle" opacity="0">D6</text>
</g>
<g class="stroked-text"><desc>D6</desc>
<path d="M70.464152 57.040381
L70.964152 56.174356
" />
<path d="M70.964152 56.174356
L71.170349 56.293403
" />
<path d="M71.170349 56.293403
L71.270257 56.406071
" />
<path d="M71.270257 56.406071
L71.305117 56.536169
" />
<path d="M71.305117 56.536169
L71.298737 56.642457
" />
<path d="M71.298737 56.642457
L71.244738 56.831224
" />
<path d="M71.244738 56.831224
L71.173310 56.954942
" />
<path d="M71.173310 56.954942
L71.036832 57.096089
" />
<path d="M71.036832 57.096089
L70.947974 57.154758
" />
<path d="M70.947974 57.154758
L70.817876 57.189618
" />
<path d="M70.817876 57.189618
L70.670349 57.159429
" />
<path d="M70.670349 57.159429
L70.464152 57.040381
" />
<path d="M72.201331 56.888641
L72.036374 56.793403
" />
<path d="M72.036374 56.793403
L71.930086 56.787023
" />
<path d="M71.930086 56.787023
L71.865037 56.804453
" />
<path d="M71.865037 56.804453
L71.711130 56.880552
" />
<path d="M71.711130 56.880552
L71.574653 57.021700
" />
<path d="M71.574653 57.021700
L71.384176 57.351614
" />
<path d="M71.384176 57.351614
L71.377797 57.457902
" />
<path d="M71.377797 57.457902
L71.395226 57.522951
" />
<path d="M71.395226 57.522951
L71.453895 57.611810
" />
<path d="M71.453895 57.611810
L71.618853 57.707048
" />
<path d="M71.618853 57.707048
L71.725141 57.713427
" />
<path d="M71.725141 57.713427
L71.790190 57.695998
" />
<path d="M71.790190 57.695998
L71.879048 57.637329
" />
<path d="M71.879048 57.637329
L71.998096 57.431132
" />
<path d="M71.998096 57.431132
L72.004475 57.324844
" />
<path d="M72.004475 57.324844
L71.987046 57.259795
" />
<path d="M71.987046 57.259795
L71.928377 57.170937
" />
<path d="M71.928377 57.170937
L71.763419 57.075699
" />
<path d="M71.763419 57.075699
L71.657131 57.069319
" />
<path d="M71.657131 57.069319
L71.592082 57.086749
" />
<path d="M71.592082 57.086749
L71.503224 57.145418
" />
</g></g>
<g style="fill:#000000; fill-opacity:0.0; 
stroke:#000000; stroke-width:0.075000; stroke-opacity:1; 
stroke-linecap:round; stroke-linejoin:round;">
<g transform="rotate(30.000000 72.781844 56.352211)">
<text x="72.781844" y="56.502211"
textLength="0.413214" font-size="0.400000" lengthAdjust="spacingAndGlyphs"
text-anchor="middle" opacity="0">1</text>
</g>
<g class="stroked-text"><desc>1</desc>
<path d="M72.788632 56.511882
L72.640170 56.426168
" />
<path d="M72.714401 56.469025
L72.864401 56.209217
" />
<path d="M72.864401 56.209217
L72.818229 56.232047
" />
<path d="M72.818229 56.232047
L72.779199 56.242505
" />
<path d="M72.779199 56.242505
L72.747313 56.240591
" />
</g></g>
<g style="fill:#000000; fill-opacity:0.0; 
stroke:#000000; stroke-width:0.150000; stroke-opacity:1; 
stroke-linecap:round; stroke-linejoin:round;">
<g transform="rotate(-30.000000 86.919229 53.984456)">
<text x="86.919229" y="54.484456"
textLength="2.127381" font-size="1.333333" lengthAdjust="spacingAndGlyphs"
text-anchor="middle" opacity="0">D2</text>
</g>
<g class="stroked-text"><desc>D2</desc>
<path d="M86.507429 54.747388
L86.007429 53.881362
" />
<path d="M86.007429 53.881362
L86.213626 53.762315
" />
<path d="M86.213626 53.762315
L86.361153 53.732125
" />
<path d="M86.361153 53.732125
L86.491251 53.766985
" />
<path d="M86.491251 53.766985
L86.580109 53.825654
" />
<path d="M86.580109 53.825654
L86.716587 53.966802
" />
<path d="M86.716587 53.966802
L86.788015 54.090520
" />
<path d="M86.788015 54.090520
L86.842014 54.279286
" />
<path d="M86.842014 54.279286
L86.848394 54.385575
" />
<path d="M86.848394 54.385575
L86.813534 54.515672
" />
<path d="M86.813534 54.515672
L86.713626 54.628340
" />
<path d="M86.713626 54.628340
L86.507429 54.747388
" />
<path d="M86.879834 53.487650
L86.897264 53.422602
" />
<path d="M86.897264 53.422602
L86.955933 53.333743
" />
<path d="M86.955933 53.333743
L87.162130 53.214696
" />
<path d="M87.162130 53.214696
L87.268418 53.208316
" />
<path d="M87.268418 53.208316
L87.333467 53.225746
" />
<path d="M87.333467 53.225746
L87.422325 53.284415
" />
<path d="M87.422325 53.284415
L87.469944 53.366893
" />
<path d="M87.469944 53.366893
L87.500133 53.514421
" />
<path d="M87.500133 53.514421
L87.290976 54.295007
" />
<path d="M87.290976 54.295007
L87.827087 53.985483
" />
</g></g>
<g style="fill:#000000; fill-opacity:0.0; 
stroke:#000000; stroke-width:0.075000; stroke-opacity:1; 
stroke-linecap:round; stroke-linejoin:round;">
<g transform="rotate(-30.000000 86.768156 55.572789)">
<text x="86.768156" y="55.722789"
textLength="0.413214" font-size="0.400000" lengthAdjust="spacingAndGlyphs"
text-anchor="middle" opacity="0">1</text>
</g>
<g class="stroked-text"><desc>1</desc>
<path d="M86.909829 55.646746
L86.761368 55.732460
" />
<path d="M86.835598 55.689603
L86.685598 55.429795
" />
<path d="M86.685598 55.429795
L86.682283 55.481196
" />
<path d="M86.682283 55.481196
L86.671826 55.520226
" />
<path d="M86.671826 55.520226
L86.654225 55.546883
" />
</g></g>
<g style="fill:#000000; fill-opacity:0.0; 
stroke:#000000; stroke-width:0.150000; stroke-opacity:1; 
stroke-linecap:round; stroke-linejoin:round;">
<g transform="rotate(60.000000 73.984456 53.080771)">
<text x="73.984456" y="53.580771"
textLength="2.127381" font-size="1.333333" lengthAdjust="spacingAndGlyphs"
text-anchor="middle" opacity="0">D5</text>
</g>
<g class="stroked-text"><desc>D5</desc>
<path d="M73.221523 52.668971
L74.087549 52.168971
" />
<path d="M74.087549 52.168971
L74.206596 52.375168
" />
<path d="M74.206596 52.375168
L74.236786 52.522695
" />
<path d="M74.236786 52.522695
L74.201926 52.652793
" />
<path d="M74.201926 52.652793
L74.143257 52.741651
" />
<path d="M74.143257 52.741651
L74.002109 52.878129
" />
<path d="M74.002109 52.878129
L73.878391 52.949557
" />
<path d="M73.878391 52.949557
L73.689625 53.003556
" />
<path d="M73.689625 53.003556
L73.583336 53.009936
" />
<path d="M73.583336 53.009936
L73.453239 52.975076
" />
<path d="M73.453239 52.975076
L73.340571 52.875168
" />
<path d="M73.340571 52.875168
L73.221523 52.668971
" />
<path d="M74.825644 53.447390
L74.587549 53.034997
" />
<path d="M74.587549 53.034997
L74.151346 53.231853
" />
<path d="M74.151346 53.231853
L74.216395 53.249282
" />
<path d="M74.216395 53.249282
L74.305253 53.307951
" />
<path d="M74.305253 53.307951
L74.424301 53.514148
" />
<path d="M74.424301 53.514148
L74.430681 53.620436
" />
<path d="M74.430681 53.620436
L74.413251 53.685485
" />
<path d="M74.413251 53.685485
L74.354582 53.774343
" />
<path d="M74.354582 53.774343
L74.148385 53.893391
" />
<path d="M74.148385 53.893391
L74.042097 53.899771
" />
<path d="M74.042097 53.899771
L73.977048 53.882341
" />
<path d="M73.977048 53.882341
L73.888190 53.823672
" />
<path d="M73.888190 53.823672
L73.769142 53.617475
" />
<path d="M73.769142 53.617475
L73.762763 53.511187
" />
<path d="M73.762763 53.511187
L73.780192 53.446138
" />
</g></g>
<g style="fill:#000000; fill-opacity:0.0; 
stroke:#000000; stroke-width:0.075000; stroke-opacity:1; 
stroke-linecap:round; stroke-linejoin:round;">
<g transform="rotate(60.000000 75.572789 53.231844)">
<text x="75.572789" y="53.381844"
textLength="0.413214" font-size="0.400000" lengthAdjust="spacingAndGlyphs"
text-anchor="middle" opacity="0">1</text>
</g>
<g class="stroked-text"><desc>1</desc>
<path d="M75.498831 53.373517
L75.413117 53.225056
" />
<path d="M75.455974 53.299286
L75.715782 53.149286
" />
<path d="M75.715782 53.149286
L75.664381 53.145971
" />
<path d="M75.664381 53.145971
L75.625351 53.135514
" />
<path d="M75.625351 53.135514
L75.598694 53.117913
" />
</g></g>
<g style="fill:#000000; fill-opacity:0.0; 
stroke:#000000; stroke-width:0.150000; stroke-opacity:1; 
stroke-linecap:round; stroke-linejoin:round;">
<g transform="rotate(-60.000000 77.015544 68.669229)">
<text x="77.015544" y="69.169229"
textLength="2.127381" font-size="1.333333" lengthAdjust="spacingAndGlyphs"
text-anchor="middle" opacity="0">D9</text>
</g>
<g class="stroked-text"><desc>D9</desc>
<path d="M77.040381 69.535847
L76.174356 69.035847
" />
<path d="M76.174356 69.035847
L76.293403 68.829650
" />
<path d="M76.293403 68.829650
L76.406071 68.729742
" />
<path d="M76.406071 68.729742
L76.536169 68.694882
" />
<path d="M76.536169 68.694882
L76.642457 68.701262
" />
<path d="M76.642457 68.701262
L76.831224 68.755261
" />
<path d="M76.831224 68.755261
L76.954942 68.826689
" />
<path d="M76.954942 68.826689
L77.096089 68.963167
" />
<path d="M77.096089 68.963167
L77.154758 69.052025
" />
<path d="M77.154758 69.052025
L77.189618 69.182123
" />
<path d="M77.189618 69.182123
L77.159429 69.329650
" />
<path d="M77.159429 69.329650
L77.040381 69.535847
" />
<path d="M77.564190 68.628582
L77.659429 68.463625
" />
<path d="M77.659429 68.463625
L77.665808 68.357337
" />
<path d="M77.665808 68.357337
L77.648379 68.292288
" />
<path d="M77.648379 68.292288
L77.572280 68.138381
" />
<path d="M77.572280 68.138381
L77.431132 68.001903
" />
<path d="M77.431132 68.001903
L77.101218 67.811427
" />
<path d="M77.101218 67.811427
L76.994929 67.805047
" />
<path d="M76.994929 67.805047
L76.929881 67.822477
" />
<path d="M76.929881 67.822477
L76.841022 67.881146
" />
<path d="M76.841022 67.881146
L76.745784 68.046104
" />
<path d="M76.745784 68.046104
L76.739404 68.152392
" />
<path d="M76.739404 68.152392
L76.756834 68.217440
" />
<path d="M76.756834 68.217440
L76.815503 68.306299
" />
<path d="M76.815503 68.306299
L77.021700 68.425346
" />
<path d="M77.021700 68.425346
L77.127988 68.431726
" />
<path d="M77.127988 68.431726
L77.193037 68.414296
" />
<path d="M77.193037 68.414296
L77.281895 68.355627
" />
<path d="M77.281895 68.355627
L77.377133 68.190670
" />
<path d="M77.377133 68.190670
L77.383513 68.084382
" />
<path d="M77.383513 68.084382
L77.366083 68.019333
" />
<path d="M77.366083 68.019333
L77.307414 67.930475
" />
</g></g>
<g style="fill:#000000; fill-opacity:0.0; 
stroke:#000000; stroke-width:0.075000; stroke-opacity:1; 
stroke-linecap:round; stroke-linejoin:round;">
<g transform="rotate(-60.000000 76.352211 67.218156)">
<text x="76.352211" y="67.368156"
textLength="0.413214" font-size="0.400000" lengthAdjust="spacingAndGlyphs"
text-anchor="middle" opacity="0">1</text>
</g>
<g class="stroked-text"><desc>1</desc>
<path d="M76.511882 67.211367
L76.426168 67.359829
" />
<path d="M76.469025 67.285598
L76.209217 67.135598
" />
<path d="M76.209217 67.135598
L76.232047 67.181770
" />
<path d="M76.232047 67.181770
L76.242505 67.220800
" />
<path d="M76.242505 67.220800
L76.240591 67.252686
" />
</g></g>
<g style="fill:#000000; fill-opacity:0.0; 
stroke:#000000; stroke-width:0.150000; stroke-opacity:1; 
stroke-linecap:round; stroke-linejoin:round;">
<g transform="rotate(-60.000000 82.984456 51.330771)">
<text x="82.984456" y="51.830771"
textLength="2.127381" font-size="1.333333" lengthAdjust="spacingAndGlyphs"
text-anchor="middle" opacity="0">D3</text>
</g>
<g class="stroked-text"><desc>D3</desc>
<path d="M83.009293 52.197389
L82.143268 51.697389
" />
<path d="M82.143268 51.697389
L82.262315 51.491192
" />
<path d="M82.262315 51.491192
L82.374983 51.391284
" />
<path d="M82.374983 51.391284
L82.505081 51.356424
" />
<path d="M82.505081 51.356424
L82.611369 51.362804
" />
<path d="M82.611369 51.362804
L82.800136 51.416803
" />
<path d="M82.800136 51.416803
L82.923854 51.488231
" />
<path d="M82.923854 51.488231
L83.065001 51.624709
" />
<path d="M83.065001 51.624709
L83.123670 51.713567
" />
<path d="M83.123670 51.713567
L83.158530 51.843665
" />
<path d="M83.158530 51.843665
L83.128341 51.991192
" />
<path d="M83.128341 51.991192
L83.009293 52.197389
" />
<path d="M82.595649 50.913842
L82.905172 50.377731
" />
<path d="M82.905172 50.377731
L83.068420 50.856882
" />
<path d="M83.068420 50.856882
L83.139849 50.733164
" />
<path d="M83.139849 50.733164
L83.228707 50.674495
" />
<path d="M83.228707 50.674495
L83.293756 50.657066
" />
<path d="M83.293756 50.657066
L83.400044 50.663445
" />
<path d="M83.400044 50.663445
L83.606241 50.782493
" />
<path d="M83.606241 50.782493
L83.664910 50.871351
" />
<path d="M83.664910 50.871351
L83.682339 50.936400
" />
<path d="M83.682339 50.936400
L83.675960 51.042688
" />
<path d="M83.675960 51.042688
L83.533102 51.290124
" />
<path d="M83.533102 51.290124
L83.444244 51.348793
" />
<path d="M83.444244 51.348793
L83.379195 51.366223
" />
</g></g>
<g style="fill:#000000; fill-opacity:0.0; 
stroke:#000000; stroke-width:0.075000; stroke-opacity:1; 
stroke-linecap:round; stroke-linejoin:round;">
<g transform="rotate(-60.000000 83.647789 52.781844)">
<text x="83.647789" y="52.931844"
textLength="0.413214" font-size="0.400000" lengthAdjust="spacingAndGlyphs"
text-anchor="middle" opacity="0">1</text>
</g>
<g class="stroked-text"><desc>1</desc>
<path d="M83.807460 52.775055
L83.721746 52.923517
" />
<path d="M83.764603 52.849286
L83.504795 52.699286
" />
<path d="M83.504795 52.699286
L83.527625 52.745458
" />
<path d="M83.527625 52.745458
L83.538083 52.784488
" />
<path d="M83.538083 52.784488
L83.536169 52.816374
" />
</g></g>
<g style="fill:#000000; fill-opacity:0.0; 
stroke:#000000; stroke-width:0.100000; stroke-opacity:1; 
stroke-linecap:round; stroke-linejoin:round;">
<path d="M85.661122 68.105351
L85.336122 67.542434
" />
<path d="M85.098205 68.430351
L85.661122 68.105351
" />
<path d="M89.850000 59.150000
L89.200000 59.150000
" />
<path d="M89.850000 59.800000
L89.850000 59.150000
" />
<path d="M79.150000 50.150000
L79.150000 50.800000
" />
<path d="M79.800000 50.150000
L79.150000 50.150000
" />
<path d="M88.955351 64.188878
L88.392434 63.863878
" />
<path d="M88.630351 64.751795
L88.955351 64.188878
" />
<path d="M71.894649 65.661122
L72.457566 65.336122
" />
<path d="M71.569649 65.098205
L71.894649 65.661122
" />
<path d="M80.850000 69.850000
L80.850000 69.200000
" />
<path d="M80.200000 69.850000
L80.850000 69.850000
" />
<path d="M70.150000 60.850000
L70.800000 60.850000
" />
<path d="M70.150000 60.200000
L70.150000 60.850000
" />
<path d="M71.044649 55.811122
L71.607566 56.136122
" />
<path d="M71.369649 55.248205
L71.044649 55.811122
" />
<path d="M88.105351 54.338878
L87.542434 54.663878
" />
<path d="M88.430351 54.901795
L88.105351 54.338878
" />
<path d="M74.338878 51.894649
L74.663878 52.457566
" />
<path d="M74.901795 51.569649
L74.338878 51.894649
" />
<path d="M75.811122 68.955351
L76.136122 68.392434
" />
<path d="M75.248205 68.630351
L75.811122 68.955351
" />
<path d="M84.188878 51.044649
L83.863878 51.607566
" />
<path d="M84.751795 51.369649
L84.188878 51.044649
" />
<g >
</g>
<g >
</g>
<g >
</g>
<g >
</g>
<g >
</g>
<g >
</g>
<g >
</g>
<g >
</g>
<g >
</g>
<g >
</g>
<g >
</g>
<g >
</g>
<g >
</g>
<g >
</g>
<g >
</g>
<g >
</g>
<g >
</g>
<g >
</g>
<g >
</g>
<g >
</g>
<g >
</g>
<g >
</g>
<g >
</g>
<g >
</g>
<g >
</g>
<g >
</g>
<g >
</g>
<g >
</g>
</g> 
</svg>
