<?xml version="1.0" standalone="no"?>
 <!DOCTYPE svg PUBLIC "-//W3C//DTD SVG 1.1//EN" 
 "http://www.w3.org/Graphics/SVG/1.1/DTD/svg11.dtd"> 
<svg
  xmlns:svg="http://www.w3.org/2000/svg"
  xmlns="http://www.w3.org/2000/svg"
  xmlns:xlink="http://www.w3.org/1999/xlink"
  version="1.1"
  width="3.2100000000000004cm" height="3.2100000000000004cm" viewBox="63.95 43.95 32.1 32.1">
<title>SVG Image created as pedalboard-led-ring-F_SilkS.svg date 2023/06/03 13:09:00 </title>
  <desc>Image generated by PCBNEW </desc>
<g style="fill:#000000; fill-opacity:1.000000;stroke:#000000; stroke-opacity:1.000000;
stroke-linecap:round; stroke-linejoin:round;"
 transform="translate(0 0) scale(1 1)">
</g>
<g style="fill:#000000; fill-opacity:0.0; 
stroke:#000000; stroke-width:0.000000; stroke-opacity:1; 
stroke-linecap:round; stroke-linejoin:round;">
</g>
<g style="fill:#000000; fill-opacity:0.0; 
stroke:#000000; stroke-width:0.100000; stroke-opacity:1; 
stroke-linecap:round; stroke-linejoin:round;">
<g transform="rotate(60.000000 85.712436 67.094229)">
<text x="85.712436" y="67.344229"
textLength="1.602380" font-size="0.666666" lengthAdjust="spacingAndGlyphs"
text-anchor="middle" opacity="0">D11</text>
</g>
<g class="stroked-text"><desc>D11</desc>
<path d="M85.213048 66.681483
L85.646060 66.431483
" />
<path d="M85.646060 66.431483
L85.705584 66.534581
" />
<path d="M85.705584 66.534581
L85.720679 66.608345
" />
<path d="M85.720679 66.608345
L85.703249 66.673393
" />
<path d="M85.703249 66.673393
L85.673915 66.717823
" />
<path d="M85.673915 66.717823
L85.603341 66.786061
" />
<path d="M85.603341 66.786061
L85.541482 66.821776
" />
<path d="M85.541482 66.821776
L85.447098 66.848775
" />
<path d="M85.447098 66.848775
L85.393954 66.851965
" />
<path d="M85.393954 66.851965
L85.328905 66.834535
" />
<path d="M85.328905 66.834535
L85.272572 66.784581
" />
<path d="M85.272572 66.784581
L85.213048 66.681483
" />
<path d="M85.594000 67.341311
L85.451143 67.093876
" />
<path d="M85.522572 67.217594
L85.955584 66.967594
" />
<path d="M85.955584 66.967594
L85.869916 66.962068
" />
<path d="M85.869916 66.962068
L85.804867 66.944639
" />
<path d="M85.804867 66.944639
L85.760438 66.915304
" />
<path d="M85.832095 67.753704
L85.689238 67.506268
" />
<path d="M85.760667 67.629986
L86.193679 67.379986
" />
<path d="M86.193679 67.379986
L86.108011 67.374461
" />
<path d="M86.108011 67.374461
L86.042962 67.357031
" />
<path d="M86.042962 67.357031
L85.998533 67.327697
" />
</g></g>
<g style="fill:#000000; fill-opacity:0.0; 
stroke:#000000; stroke-width:0.075000; stroke-opacity:1; 
stroke-linecap:round; stroke-linejoin:round;">
<g transform="rotate(60.000000 84.427211 66.768156)">
<text x="84.427211" y="66.918156"
textLength="0.413214" font-size="0.400000" lengthAdjust="spacingAndGlyphs"
text-anchor="middle" opacity="0">1</text>
</g>
<g class="stroked-text"><desc>1</desc>
<path d="M84.353253 66.909829
L84.267539 66.761368
" />
<path d="M84.310396 66.835598
L84.570204 66.685598
" />
<path d="M84.570204 66.685598
L84.518803 66.682283
" />
<path d="M84.518803 66.682283
L84.479773 66.671826
" />
<path d="M84.479773 66.671826
L84.453116 66.654225
" />
</g></g>
<g style="fill:#000000; fill-opacity:0.0; 
stroke:#000000; stroke-width:0.100000; stroke-opacity:1; 
stroke-linecap:round; stroke-linejoin:round;">
<text x="89.000000" y="58.850000"
textLength="1.126190" font-size="0.666666" lengthAdjust="spacingAndGlyphs"
text-anchor="middle" opacity="0">D1</text>
<g class="stroked-text"><desc>D1</desc>
<path d="M88.630952 58.826109
L88.630952 58.326109
" />
<path d="M88.630952 58.326109
L88.750000 58.326109
" />
<path d="M88.750000 58.326109
L88.821428 58.349919
" />
<path d="M88.821428 58.349919
L88.869047 58.397538
" />
<path d="M88.869047 58.397538
L88.892857 58.445157
" />
<path d="M88.892857 58.445157
L88.916666 58.540395
" />
<path d="M88.916666 58.540395
L88.916666 58.611823
" />
<path d="M88.916666 58.611823
L88.892857 58.707061
" />
<path d="M88.892857 58.707061
L88.869047 58.754680
" />
<path d="M88.869047 58.754680
L88.821428 58.802300
" />
<path d="M88.821428 58.802300
L88.750000 58.826109
" />
<path d="M88.750000 58.826109
L88.630952 58.826109
" />
<path d="M89.392857 58.826109
L89.107143 58.826109
" />
<path d="M89.250000 58.826109
L89.250000 58.326109
" />
<path d="M89.250000 58.326109
L89.202381 58.397538
" />
<path d="M89.202381 58.397538
L89.154762 58.445157
" />
<path d="M89.154762 58.445157
L89.107143 58.468966
" />
</g></g>
<g style="fill:#000000; fill-opacity:0.0; 
stroke:#000000; stroke-width:0.075000; stroke-opacity:1; 
stroke-linecap:round; stroke-linejoin:round;">
<text x="88.075000" y="59.700000"
textLength="0.413214" font-size="0.400000" lengthAdjust="spacingAndGlyphs"
text-anchor="middle" opacity="0">1</text>
<g class="stroked-text"><desc>1</desc>
<path d="M88.160714 59.684885
L87.989285 59.684885
" />
<path d="M88.075000 59.684885
L88.075000 59.384885
" />
<path d="M88.075000 59.384885
L88.046428 59.427742
" />
<path d="M88.046428 59.427742
L88.017857 59.456314
" />
<path d="M88.017857 59.456314
L87.989285 59.470600
" />
</g></g>
<g style="fill:#000000; fill-opacity:0.0; 
stroke:#000000; stroke-width:0.100000; stroke-opacity:1; 
stroke-linecap:round; stroke-linejoin:round;">
<g transform="rotate(-90.000000 78.600000 51.000000)">
<text x="78.600000" y="51.250000"
textLength="1.126190" font-size="0.666666" lengthAdjust="spacingAndGlyphs"
text-anchor="middle" opacity="0">D4</text>
</g>
<g class="stroked-text"><desc>D4</desc>
<path d="M78.826109 51.369047
L78.326109 51.369047
" />
<path d="M78.326109 51.369047
L78.326109 51.249999
" />
<path d="M78.326109 51.249999
L78.349919 51.178571
" />
<path d="M78.349919 51.178571
L78.397538 51.130952
" />
<path d="M78.397538 51.130952
L78.445157 51.107142
" />
<path d="M78.445157 51.107142
L78.540395 51.083333
" />
<path d="M78.540395 51.083333
L78.611823 51.083333
" />
<path d="M78.611823 51.083333
L78.707061 51.107142
" />
<path d="M78.707061 51.107142
L78.754680 51.130952
" />
<path d="M78.754680 51.130952
L78.802300 51.178571
" />
<path d="M78.802300 51.178571
L78.826109 51.249999
" />
<path d="M78.826109 51.249999
L78.826109 51.369047
" />
<path d="M78.492776 50.654761
L78.826109 50.654761
" />
<path d="M78.302300 50.773809
L78.659442 50.892856
" />
<path d="M78.659442 50.892856
L78.659442 50.583333
" />
</g></g>
<g style="fill:#000000; fill-opacity:0.0; 
stroke:#000000; stroke-width:0.075000; stroke-opacity:1; 
stroke-linecap:round; stroke-linejoin:round;">
<g transform="rotate(-90.000000 79.550000 51.925000)">
<text x="79.550000" y="52.075000"
textLength="0.413214" font-size="0.400000" lengthAdjust="spacingAndGlyphs"
text-anchor="middle" opacity="0">1</text>
</g>
<g class="stroked-text"><desc>1</desc>
<path d="M79.684885 51.839285
L79.684885 52.010714
" />
<path d="M79.684885 51.924999
L79.384885 51.924999
" />
<path d="M79.384885 51.924999
L79.427742 51.953571
" />
<path d="M79.427742 51.953571
L79.456314 51.982142
" />
<path d="M79.456314 51.982142
L79.470600 52.010714
" />
</g></g>
<g style="fill:#000000; fill-opacity:0.0; 
stroke:#000000; stroke-width:0.100000; stroke-opacity:1; 
stroke-linecap:round; stroke-linejoin:round;">
<g transform="rotate(30.000000 88.494229 63.287564)">
<text x="88.494229" y="63.537564"
textLength="1.602380" font-size="0.666666" lengthAdjust="spacingAndGlyphs"
text-anchor="middle" opacity="0">D12</text>
</g>
<g class="stroked-text"><desc>D12</desc>
<path d="M87.855373 63.179809
L88.105373 62.746796
" />
<path d="M88.105373 62.746796
L88.208471 62.806320
" />
<path d="M88.208471 62.806320
L88.258425 62.862654
" />
<path d="M88.258425 62.862654
L88.275855 62.927703
" />
<path d="M88.275855 62.927703
L88.272665 62.980847
" />
<path d="M88.272665 62.980847
L88.245666 63.075230
" />
<path d="M88.245666 63.075230
L88.209952 63.137089
" />
<path d="M88.209952 63.137089
L88.141713 63.207663
" />
<path d="M88.141713 63.207663
L88.097284 63.236998
" />
<path d="M88.097284 63.236998
L88.032235 63.254427
" />
<path d="M88.032235 63.254427
L87.958471 63.239333
" />
<path d="M87.958471 63.239333
L87.855373 63.179809
" />
<path d="M88.515202 63.560761
L88.267766 63.417904
" />
<path d="M88.391484 63.489333
L88.641484 63.056320
" />
<path d="M88.641484 63.056320
L88.564530 63.094369
" />
<path d="M88.564530 63.094369
L88.499482 63.111799
" />
<path d="M88.499482 63.111799
L88.446337 63.108609
" />
<path d="M88.906349 63.264226
L88.938874 63.255511
" />
<path d="M88.938874 63.255511
L88.992018 63.258701
" />
<path d="M88.992018 63.258701
L89.095116 63.318225
" />
<path d="M89.095116 63.318225
L89.124450 63.362654
" />
<path d="M89.124450 63.362654
L89.133165 63.395178
" />
<path d="M89.133165 63.395178
L89.129975 63.448322
" />
<path d="M89.129975 63.448322
L89.106166 63.489561
" />
<path d="M89.106166 63.489561
L89.049832 63.539516
" />
<path d="M89.049832 63.539516
L88.659539 63.644094
" />
<path d="M88.659539 63.644094
L88.927595 63.798856
" />
</g></g>
<g style="fill:#000000; fill-opacity:0.0; 
stroke:#000000; stroke-width:0.075000; stroke-opacity:1; 
stroke-linecap:round; stroke-linejoin:round;">
<g transform="rotate(30.000000 87.218156 63.647789)">
<text x="87.218156" y="63.797789"
textLength="0.413214" font-size="0.400000" lengthAdjust="spacingAndGlyphs"
text-anchor="middle" opacity="0">1</text>
</g>
<g class="stroked-text"><desc>1</desc>
<path d="M87.224944 63.807460
L87.076482 63.721746
" />
<path d="M87.150713 63.764603
L87.300713 63.504795
" />
<path d="M87.300713 63.504795
L87.254541 63.527625
" />
<path d="M87.254541 63.527625
L87.215511 63.538083
" />
<path d="M87.215511 63.538083
L87.183625 63.536169
" />
</g></g>
<g style="fill:#000000; fill-opacity:0.0; 
stroke:#000000; stroke-width:0.100000; stroke-opacity:1; 
stroke-linecap:round; stroke-linejoin:round;">
<g transform="rotate(-30.000000 72.905771 65.712436)">
<text x="72.905771" y="65.962436"
textLength="1.126190" font-size="0.666666" lengthAdjust="spacingAndGlyphs"
text-anchor="middle" opacity="0">D8</text>
</g>
<g class="stroked-text"><desc>D8</desc>
<path d="M72.699221 66.092776
L72.449221 65.659763
" />
<path d="M72.449221 65.659763
L72.552319 65.600239
" />
<path d="M72.552319 65.600239
L72.626083 65.585145
" />
<path d="M72.626083 65.585145
L72.691132 65.602574
" />
<path d="M72.691132 65.602574
L72.735561 65.631909
" />
<path d="M72.735561 65.631909
L72.803800 65.702483
" />
<path d="M72.803800 65.702483
L72.839514 65.764342
" />
<path d="M72.839514 65.764342
L72.866513 65.858725
" />
<path d="M72.866513 65.858725
L72.869703 65.911869
" />
<path d="M72.869703 65.911869
L72.852273 65.976918
" />
<path d="M72.852273 65.976918
L72.802319 66.033252
" />
<path d="M72.802319 66.033252
L72.699221 66.092776
" />
<path d="M73.051235 65.559626
L72.998091 65.562816
" />
<path d="M72.998091 65.562816
L72.965567 65.554101
" />
<path d="M72.965567 65.554101
L72.921138 65.524766
" />
<path d="M72.921138 65.524766
L72.909233 65.504146
" />
<path d="M72.909233 65.504146
L72.906043 65.451002
" />
<path d="M72.906043 65.451002
L72.914758 65.418478
" />
<path d="M72.914758 65.418478
L72.944093 65.374049
" />
<path d="M72.944093 65.374049
L73.026571 65.326430
" />
<path d="M73.026571 65.326430
L73.079715 65.323240
" />
<path d="M73.079715 65.323240
L73.112240 65.331955
" />
<path d="M73.112240 65.331955
L73.156669 65.361289
" />
<path d="M73.156669 65.361289
L73.168574 65.381909
" />
<path d="M73.168574 65.381909
L73.171763 65.435053
" />
<path d="M73.171763 65.435053
L73.163049 65.467577
" />
<path d="M73.163049 65.467577
L73.133714 65.512007
" />
<path d="M73.133714 65.512007
L73.051235 65.559626
" />
<path d="M73.051235 65.559626
L73.021901 65.604055
" />
<path d="M73.021901 65.604055
L73.013186 65.636579
" />
<path d="M73.013186 65.636579
L73.016376 65.689723
" />
<path d="M73.016376 65.689723
L73.063995 65.772202
" />
<path d="M73.063995 65.772202
L73.108424 65.801536
" />
<path d="M73.108424 65.801536
L73.140948 65.810251
" />
<path d="M73.140948 65.810251
L73.194093 65.807061
" />
<path d="M73.194093 65.807061
L73.276571 65.759442
" />
<path d="M73.276571 65.759442
L73.305906 65.715013
" />
<path d="M73.305906 65.715013
L73.314621 65.682489
" />
<path d="M73.314621 65.682489
L73.311431 65.629345
" />
<path d="M73.311431 65.629345
L73.263812 65.546866
" />
<path d="M73.263812 65.546866
L73.219382 65.517532
" />
<path d="M73.219382 65.517532
L73.186858 65.508817
" />
<path d="M73.186858 65.508817
L73.133714 65.512007
" />
</g></g>
<g style="fill:#000000; fill-opacity:0.0; 
stroke:#000000; stroke-width:0.075000; stroke-opacity:1; 
stroke-linecap:round; stroke-linejoin:round;">
<g transform="rotate(-30.000000 73.231844 64.427211)">
<text x="73.231844" y="64.577211"
textLength="0.413214" font-size="0.400000" lengthAdjust="spacingAndGlyphs"
text-anchor="middle" opacity="0">1</text>
</g>
<g class="stroked-text"><desc>1</desc>
<path d="M73.373517 64.501168
L73.225056 64.586882
" />
<path d="M73.299286 64.544025
L73.149286 64.284217
" />
<path d="M73.149286 64.284217
L73.145971 64.335618
" />
<path d="M73.145971 64.335618
L73.135514 64.374648
" />
<path d="M73.135514 64.374648
L73.117913 64.401305
" />
</g></g>
<g style="fill:#000000; fill-opacity:0.0; 
stroke:#000000; stroke-width:0.100000; stroke-opacity:1; 
stroke-linecap:round; stroke-linejoin:round;">
<g transform="rotate(-90.000000 81.400000 69.000000)">
<text x="81.400000" y="69.250000"
textLength="1.602380" font-size="0.666666" lengthAdjust="spacingAndGlyphs"
text-anchor="middle" opacity="0">D10</text>
</g>
<g class="stroked-text"><desc>D10</desc>
<path d="M81.626109 69.607142
L81.126109 69.607142
" />
<path d="M81.126109 69.607142
L81.126109 69.488094
" />
<path d="M81.126109 69.488094
L81.149919 69.416666
" />
<path d="M81.149919 69.416666
L81.197538 69.369047
" />
<path d="M81.197538 69.369047
L81.245157 69.345237
" />
<path d="M81.245157 69.345237
L81.340395 69.321428
" />
<path d="M81.340395 69.321428
L81.411823 69.321428
" />
<path d="M81.411823 69.321428
L81.507061 69.345237
" />
<path d="M81.507061 69.345237
L81.554680 69.369047
" />
<path d="M81.554680 69.369047
L81.602300 69.416666
" />
<path d="M81.602300 69.416666
L81.626109 69.488094
" />
<path d="M81.626109 69.488094
L81.626109 69.607142
" />
<path d="M81.626109 68.845237
L81.626109 69.130951
" />
<path d="M81.626109 68.988094
L81.126109 68.988094
" />
<path d="M81.126109 68.988094
L81.197538 69.035713
" />
<path d="M81.197538 69.035713
L81.245157 69.083332
" />
<path d="M81.245157 69.083332
L81.268966 69.130951
" />
<path d="M81.126109 68.535714
L81.126109 68.488095
" />
<path d="M81.126109 68.488095
L81.149919 68.440476
" />
<path d="M81.149919 68.440476
L81.173728 68.416666
" />
<path d="M81.173728 68.416666
L81.221347 68.392857
" />
<path d="M81.221347 68.392857
L81.316585 68.369047
" />
<path d="M81.316585 68.369047
L81.435633 68.369047
" />
<path d="M81.435633 68.369047
L81.530871 68.392857
" />
<path d="M81.530871 68.392857
L81.578490 68.416666
" />
<path d="M81.578490 68.416666
L81.602300 68.440476
" />
<path d="M81.602300 68.440476
L81.626109 68.488095
" />
<path d="M81.626109 68.488095
L81.626109 68.535714
" />
<path d="M81.626109 68.535714
L81.602300 68.583333
" />
<path d="M81.602300 68.583333
L81.578490 68.607142
" />
<path d="M81.578490 68.607142
L81.530871 68.630952
" />
<path d="M81.530871 68.630952
L81.435633 68.654761
" />
<path d="M81.435633 68.654761
L81.316585 68.654761
" />
<path d="M81.316585 68.654761
L81.221347 68.630952
" />
<path d="M81.221347 68.630952
L81.173728 68.607142
" />
<path d="M81.173728 68.607142
L81.149919 68.583333
" />
<path d="M81.149919 68.583333
L81.126109 68.535714
" />
</g></g>
<g style="fill:#000000; fill-opacity:0.0; 
stroke:#000000; stroke-width:0.075000; stroke-opacity:1; 
stroke-linecap:round; stroke-linejoin:round;">
<g transform="rotate(-90.000000 80.450000 68.075000)">
<text x="80.450000" y="68.225000"
textLength="0.413214" font-size="0.400000" lengthAdjust="spacingAndGlyphs"
text-anchor="middle" opacity="0">1</text>
</g>
<g class="stroked-text"><desc>1</desc>
<path d="M80.584885 67.989285
L80.584885 68.160714
" />
<path d="M80.584885 68.074999
L80.284885 68.074999
" />
<path d="M80.284885 68.074999
L80.327742 68.103571
" />
<path d="M80.327742 68.103571
L80.356314 68.132142
" />
<path d="M80.356314 68.132142
L80.370600 68.160714
" />
</g></g>
<g style="fill:#000000; fill-opacity:0.0; 
stroke:#000000; stroke-width:0.100000; stroke-opacity:1; 
stroke-linecap:round; stroke-linejoin:round;">
<text x="71.000000" y="61.650000"
textLength="1.126190" font-size="0.666666" lengthAdjust="spacingAndGlyphs"
text-anchor="middle" opacity="0">D7</text>
<g class="stroked-text"><desc>D7</desc>
<path d="M70.630952 61.626109
L70.630952 61.126109
" />
<path d="M70.630952 61.126109
L70.750000 61.126109
" />
<path d="M70.750000 61.126109
L70.821428 61.149919
" />
<path d="M70.821428 61.149919
L70.869047 61.197538
" />
<path d="M70.869047 61.197538
L70.892857 61.245157
" />
<path d="M70.892857 61.245157
L70.916666 61.340395
" />
<path d="M70.916666 61.340395
L70.916666 61.411823
" />
<path d="M70.916666 61.411823
L70.892857 61.507061
" />
<path d="M70.892857 61.507061
L70.869047 61.554680
" />
<path d="M70.869047 61.554680
L70.821428 61.602300
" />
<path d="M70.821428 61.602300
L70.750000 61.626109
" />
<path d="M70.750000 61.626109
L70.630952 61.626109
" />
<path d="M71.083333 61.126109
L71.416666 61.126109
" />
<path d="M71.416666 61.126109
L71.202381 61.626109
" />
</g></g>
<g style="fill:#000000; fill-opacity:0.0; 
stroke:#000000; stroke-width:0.075000; stroke-opacity:1; 
stroke-linecap:round; stroke-linejoin:round;">
<text x="71.925000" y="60.600000"
textLength="0.413214" font-size="0.400000" lengthAdjust="spacingAndGlyphs"
text-anchor="middle" opacity="0">1</text>
<g class="stroked-text"><desc>1</desc>
<path d="M72.010714 60.584885
L71.839285 60.584885
" />
<path d="M71.925000 60.584885
L71.925000 60.284885
" />
<path d="M71.925000 60.284885
L71.896428 60.327742
" />
<path d="M71.896428 60.327742
L71.867857 60.356314
" />
<path d="M71.867857 60.356314
L71.839285 60.370600
" />
</g></g>
<g style="fill:#000000; fill-opacity:0.0; 
stroke:#000000; stroke-width:0.100000; stroke-opacity:1; 
stroke-linecap:round; stroke-linejoin:round;">
<g transform="rotate(30.000000 71.505771 56.712436)">
<text x="71.505771" y="56.962436"
textLength="1.126190" font-size="0.666666" lengthAdjust="spacingAndGlyphs"
text-anchor="middle" opacity="0">D6</text>
</g>
<g class="stroked-text"><desc>D6</desc>
<path d="M71.073111 56.723728
L71.323111 56.290716
" />
<path d="M71.323111 56.290716
L71.426210 56.350240
" />
<path d="M71.426210 56.350240
L71.476164 56.406573
" />
<path d="M71.476164 56.406573
L71.493594 56.471622
" />
<path d="M71.493594 56.471622
L71.490404 56.524766
" />
<path d="M71.490404 56.524766
L71.463404 56.619150
" />
<path d="M71.463404 56.619150
L71.427690 56.681009
" />
<path d="M71.427690 56.681009
L71.359451 56.751583
" />
<path d="M71.359451 56.751583
L71.315022 56.780917
" />
<path d="M71.315022 56.780917
L71.249973 56.798347
" />
<path d="M71.249973 56.798347
L71.176210 56.783252
" />
<path d="M71.176210 56.783252
L71.073111 56.723728
" />
<path d="M71.941701 56.647859
L71.859222 56.600240
" />
<path d="M71.859222 56.600240
L71.806078 56.597050
" />
<path d="M71.806078 56.597050
L71.773554 56.605765
" />
<path d="M71.773554 56.605765
L71.696600 56.643814
" />
<path d="M71.696600 56.643814
L71.628362 56.714388
" />
<path d="M71.628362 56.714388
L71.533123 56.879345
" />
<path d="M71.533123 56.879345
L71.529934 56.932489
" />
<path d="M71.529934 56.932489
L71.538648 56.965014
" />
<path d="M71.538648 56.965014
L71.567983 57.009443
" />
<path d="M71.567983 57.009443
L71.650462 57.057062
" />
<path d="M71.650462 57.057062
L71.703606 57.060252
" />
<path d="M71.703606 57.060252
L71.736130 57.051537
" />
<path d="M71.736130 57.051537
L71.780559 57.022202
" />
<path d="M71.780559 57.022202
L71.840083 56.919104
" />
<path d="M71.840083 56.919104
L71.843273 56.865960
" />
<path d="M71.843273 56.865960
L71.834558 56.833435
" />
<path d="M71.834558 56.833435
L71.805224 56.789006
" />
<path d="M71.805224 56.789006
L71.722745 56.741387
" />
<path d="M71.722745 56.741387
L71.669601 56.738197
" />
<path d="M71.669601 56.738197
L71.637076 56.746912
" />
<path d="M71.637076 56.746912
L71.592647 56.776247
" />
</g></g>
<g style="fill:#000000; fill-opacity:0.0; 
stroke:#000000; stroke-width:0.075000; stroke-opacity:1; 
stroke-linecap:round; stroke-linejoin:round;">
<g transform="rotate(30.000000 72.781844 56.352211)">
<text x="72.781844" y="56.502211"
textLength="0.413214" font-size="0.400000" lengthAdjust="spacingAndGlyphs"
text-anchor="middle" opacity="0">1</text>
</g>
<g class="stroked-text"><desc>1</desc>
<path d="M72.788632 56.511882
L72.640170 56.426168
" />
<path d="M72.714401 56.469025
L72.864401 56.209217
" />
<path d="M72.864401 56.209217
L72.818229 56.232047
" />
<path d="M72.818229 56.232047
L72.779199 56.242505
" />
<path d="M72.779199 56.242505
L72.747313 56.240591
" />
</g></g>
<g style="fill:#000000; fill-opacity:0.0; 
stroke:#000000; stroke-width:0.100000; stroke-opacity:1; 
stroke-linecap:round; stroke-linejoin:round;">
<text x="80.000000" y="60.000000"
textLength="2.050000" font-size="1.333333" lengthAdjust="spacingAndGlyphs"
text-anchor="middle" opacity="0">H4</text>
<g class="stroked-text"><desc>H4</desc>
<path d="M79.238095 59.957419
L79.238095 58.957419
" />
<path d="M79.238095 59.433609
L79.809523 59.433609
" />
<path d="M79.809523 59.957419
L79.809523 58.957419
" />
<path d="M80.714285 59.290752
L80.714285 59.957419
" />
<path d="M80.476190 58.909800
L80.238095 59.624085
" />
<path d="M80.238095 59.624085
L80.857142 59.624085
" />
</g><g transform="rotate(-30.000000 87.094229 54.287564)">
<text x="87.094229" y="54.537564"
textLength="1.126190" font-size="0.666666" lengthAdjust="spacingAndGlyphs"
text-anchor="middle" opacity="0">D2</text>
</g>
<g class="stroked-text"><desc>D2</desc>
<path d="M86.887679 54.667904
L86.637679 54.234891
" />
<path d="M86.637679 54.234891
L86.740777 54.175367
" />
<path d="M86.740777 54.175367
L86.814541 54.160273
" />
<path d="M86.814541 54.160273
L86.879590 54.177702
" />
<path d="M86.879590 54.177702
L86.924019 54.207037
" />
<path d="M86.924019 54.207037
L86.992258 54.277611
" />
<path d="M86.992258 54.277611
L87.027972 54.339470
" />
<path d="M87.027972 54.339470
L87.054971 54.433853
" />
<path d="M87.054971 54.433853
L87.058161 54.486997
" />
<path d="M87.058161 54.486997
L87.040731 54.552046
" />
<path d="M87.040731 54.552046
L86.990777 54.608380
" />
<path d="M86.990777 54.608380
L86.887679 54.667904
" />
<path d="M87.073881 54.038035
L87.082596 54.005511
" />
<path d="M87.082596 54.005511
L87.111931 53.961082
" />
<path d="M87.111931 53.961082
L87.215029 53.901558
" />
<path d="M87.215029 53.901558
L87.268173 53.898368
" />
<path d="M87.268173 53.898368
L87.300698 53.907083
" />
<path d="M87.300698 53.907083
L87.345127 53.936417
" />
<path d="M87.345127 53.936417
L87.368936 53.977657
" />
<path d="M87.368936 53.977657
L87.384031 54.051420
" />
<path d="M87.384031 54.051420
L87.279452 54.441713
" />
<path d="M87.279452 54.441713
L87.547508 54.286951
" />
</g></g>
<g style="fill:#000000; fill-opacity:0.0; 
stroke:#000000; stroke-width:0.075000; stroke-opacity:1; 
stroke-linecap:round; stroke-linejoin:round;">
<g transform="rotate(-30.000000 86.768156 55.572789)">
<text x="86.768156" y="55.722789"
textLength="0.413214" font-size="0.400000" lengthAdjust="spacingAndGlyphs"
text-anchor="middle" opacity="0">1</text>
</g>
<g class="stroked-text"><desc>1</desc>
<path d="M86.909829 55.646746
L86.761368 55.732460
" />
<path d="M86.835598 55.689603
L86.685598 55.429795
" />
<path d="M86.685598 55.429795
L86.682283 55.481196
" />
<path d="M86.682283 55.481196
L86.671826 55.520226
" />
<path d="M86.671826 55.520226
L86.654225 55.546883
" />
</g></g>
<g style="fill:#000000; fill-opacity:0.0; 
stroke:#000000; stroke-width:0.100000; stroke-opacity:1; 
stroke-linecap:round; stroke-linejoin:round;">
<g transform="rotate(60.000000 74.287564 52.905771)">
<text x="74.287564" y="53.155771"
textLength="1.126190" font-size="0.666666" lengthAdjust="spacingAndGlyphs"
text-anchor="middle" opacity="0">D5</text>
</g>
<g class="stroked-text"><desc>D5</desc>
<path d="M73.907223 52.699221
L74.340236 52.449221
" />
<path d="M74.340236 52.449221
L74.399760 52.552319
" />
<path d="M74.399760 52.552319
L74.414854 52.626083
" />
<path d="M74.414854 52.626083
L74.397425 52.691132
" />
<path d="M74.397425 52.691132
L74.368090 52.735561
" />
<path d="M74.368090 52.735561
L74.297516 52.803800
" />
<path d="M74.297516 52.803800
L74.235657 52.839514
" />
<path d="M74.235657 52.839514
L74.141274 52.866513
" />
<path d="M74.141274 52.866513
L74.088130 52.869703
" />
<path d="M74.088130 52.869703
L74.023081 52.852273
" />
<path d="M74.023081 52.852273
L73.966747 52.802319
" />
<path d="M73.966747 52.802319
L73.907223 52.699221
" />
<path d="M74.709284 53.088430
L74.590236 52.882234
" />
<path d="M74.590236 52.882234
L74.372135 52.980662
" />
<path d="M74.372135 52.980662
L74.404659 52.989376
" />
<path d="M74.404659 52.989376
L74.449088 53.018711
" />
<path d="M74.449088 53.018711
L74.508612 53.121809
" />
<path d="M74.508612 53.121809
L74.511802 53.174953
" />
<path d="M74.511802 53.174953
L74.503087 53.207478
" />
<path d="M74.503087 53.207478
L74.473752 53.251907
" />
<path d="M74.473752 53.251907
L74.370654 53.311431
" />
<path d="M74.370654 53.311431
L74.317510 53.314621
" />
<path d="M74.317510 53.314621
L74.284986 53.305906
" />
<path d="M74.284986 53.305906
L74.240557 53.276571
" />
<path d="M74.240557 53.276571
L74.181033 53.173473
" />
<path d="M74.181033 53.173473
L74.177843 53.120329
" />
<path d="M74.177843 53.120329
L74.186558 53.087804
" />
</g></g>
<g style="fill:#000000; fill-opacity:0.0; 
stroke:#000000; stroke-width:0.075000; stroke-opacity:1; 
stroke-linecap:round; stroke-linejoin:round;">
<g transform="rotate(60.000000 75.572789 53.231844)">
<text x="75.572789" y="53.381844"
textLength="0.413214" font-size="0.400000" lengthAdjust="spacingAndGlyphs"
text-anchor="middle" opacity="0">1</text>
</g>
<g class="stroked-text"><desc>1</desc>
<path d="M75.498831 53.373517
L75.413117 53.225056
" />
<path d="M75.455974 53.299286
L75.715782 53.149286
" />
<path d="M75.715782 53.149286
L75.664381 53.145971
" />
<path d="M75.664381 53.145971
L75.625351 53.135514
" />
<path d="M75.625351 53.135514
L75.598694 53.117913
" />
</g></g>
<g style="fill:#000000; fill-opacity:0.0; 
stroke:#000000; stroke-width:0.100000; stroke-opacity:1; 
stroke-linecap:round; stroke-linejoin:round;">
<g transform="rotate(-60.000000 76.712436 68.494229)">
<text x="76.712436" y="68.744229"
textLength="1.126190" font-size="0.666666" lengthAdjust="spacingAndGlyphs"
text-anchor="middle" opacity="0">D9</text>
</g>
<g class="stroked-text"><desc>D9</desc>
<path d="M76.723728 68.926888
L76.290716 68.676888
" />
<path d="M76.290716 68.676888
L76.350240 68.573789
" />
<path d="M76.350240 68.573789
L76.406573 68.523835
" />
<path d="M76.406573 68.523835
L76.471622 68.506405
" />
<path d="M76.471622 68.506405
L76.524766 68.509595
" />
<path d="M76.524766 68.509595
L76.619150 68.536595
" />
<path d="M76.619150 68.536595
L76.681009 68.572309
" />
<path d="M76.681009 68.572309
L76.751583 68.640548
" />
<path d="M76.751583 68.640548
L76.780917 68.684977
" />
<path d="M76.780917 68.684977
L76.798347 68.750026
" />
<path d="M76.798347 68.750026
L76.783252 68.823789
" />
<path d="M76.783252 68.823789
L76.723728 68.926888
" />
<path d="M76.985633 68.473255
L77.033252 68.390777
" />
<path d="M77.033252 68.390777
L77.036442 68.337633
" />
<path d="M77.036442 68.337633
L77.027727 68.305108
" />
<path d="M77.027727 68.305108
L76.989678 68.228155
" />
<path d="M76.989678 68.228155
L76.919104 68.159916
" />
<path d="M76.919104 68.159916
L76.754147 68.064678
" />
<path d="M76.754147 68.064678
L76.701003 68.061488
" />
<path d="M76.701003 68.061488
L76.668478 68.070203
" />
<path d="M76.668478 68.070203
L76.624049 68.099537
" />
<path d="M76.624049 68.099537
L76.576430 68.182016
" />
<path d="M76.576430 68.182016
L76.573240 68.235160
" />
<path d="M76.573240 68.235160
L76.581955 68.267684
" />
<path d="M76.581955 68.267684
L76.611290 68.312114
" />
<path d="M76.611290 68.312114
L76.714388 68.371637
" />
<path d="M76.714388 68.371637
L76.767532 68.374827
" />
<path d="M76.767532 68.374827
L76.800056 68.366112
" />
<path d="M76.800056 68.366112
L76.844485 68.336778
" />
<path d="M76.844485 68.336778
L76.892105 68.254299
" />
<path d="M76.892105 68.254299
L76.895294 68.201155
" />
<path d="M76.895294 68.201155
L76.886579 68.168631
" />
<path d="M76.886579 68.168631
L76.857245 68.124202
" />
</g></g>
<g style="fill:#000000; fill-opacity:0.0; 
stroke:#000000; stroke-width:0.075000; stroke-opacity:1; 
stroke-linecap:round; stroke-linejoin:round;">
<g transform="rotate(-60.000000 76.352211 67.218156)">
<text x="76.352211" y="67.368156"
textLength="0.413214" font-size="0.400000" lengthAdjust="spacingAndGlyphs"
text-anchor="middle" opacity="0">1</text>
</g>
<g class="stroked-text"><desc>1</desc>
<path d="M76.511882 67.211367
L76.426168 67.359829
" />
<path d="M76.469025 67.285598
L76.209217 67.135598
" />
<path d="M76.209217 67.135598
L76.232047 67.181770
" />
<path d="M76.232047 67.181770
L76.242505 67.220800
" />
<path d="M76.242505 67.220800
L76.240591 67.252686
" />
</g></g>
<g style="fill:#000000; fill-opacity:0.0; 
stroke:#000000; stroke-width:0.100000; stroke-opacity:1; 
stroke-linecap:round; stroke-linejoin:round;">
<g transform="rotate(-60.000000 83.287564 51.505771)">
<text x="83.287564" y="51.755771"
textLength="1.126190" font-size="0.666666" lengthAdjust="spacingAndGlyphs"
text-anchor="middle" opacity="0">D3</text>
</g>
<g class="stroked-text"><desc>D3</desc>
<path d="M83.298856 51.938430
L82.865844 51.688430
" />
<path d="M82.865844 51.688430
L82.925368 51.585331
" />
<path d="M82.925368 51.585331
L82.981701 51.535377
" />
<path d="M82.981701 51.535377
L83.046750 51.517947
" />
<path d="M83.046750 51.517947
L83.099894 51.521137
" />
<path d="M83.099894 51.521137
L83.194278 51.548137
" />
<path d="M83.194278 51.548137
L83.256137 51.583851
" />
<path d="M83.256137 51.583851
L83.326711 51.652090
" />
<path d="M83.326711 51.652090
L83.356045 51.696519
" />
<path d="M83.356045 51.696519
L83.373475 51.761568
" />
<path d="M83.373475 51.761568
L83.358380 51.835331
" />
<path d="M83.358380 51.835331
L83.298856 51.938430
" />
<path d="M83.092034 51.296656
L83.246796 51.028601
" />
<path d="M83.246796 51.028601
L83.328420 51.268176
" />
<path d="M83.328420 51.268176
L83.364134 51.206317
" />
<path d="M83.364134 51.206317
L83.408563 51.176983
" />
<path d="M83.408563 51.176983
L83.441088 51.168268
" />
<path d="M83.441088 51.168268
L83.494232 51.171458
" />
<path d="M83.494232 51.171458
L83.597330 51.230982
" />
<path d="M83.597330 51.230982
L83.626665 51.275411
" />
<path d="M83.626665 51.275411
L83.635380 51.307935
" />
<path d="M83.635380 51.307935
L83.632190 51.361079
" />
<path d="M83.632190 51.361079
L83.560761 51.484797
" />
<path d="M83.560761 51.484797
L83.516332 51.514132
" />
<path d="M83.516332 51.514132
L83.483808 51.522847
" />
</g></g>
<g style="fill:#000000; fill-opacity:0.0; 
stroke:#000000; stroke-width:0.075000; stroke-opacity:1; 
stroke-linecap:round; stroke-linejoin:round;">
<g transform="rotate(-60.000000 83.647789 52.781844)">
<text x="83.647789" y="52.931844"
textLength="0.413214" font-size="0.400000" lengthAdjust="spacingAndGlyphs"
text-anchor="middle" opacity="0">1</text>
</g>
<g class="stroked-text"><desc>1</desc>
<path d="M83.807460 52.775055
L83.721746 52.923517
" />
<path d="M83.764603 52.849286
L83.504795 52.699286
" />
<path d="M83.504795 52.699286
L83.527625 52.745458
" />
<path d="M83.527625 52.745458
L83.538083 52.784488
" />
<path d="M83.538083 52.784488
L83.536169 52.816374
" />
</g></g>
<g style="fill:#000000; fill-opacity:0.0; 
stroke:#000000; stroke-width:0.100000; stroke-opacity:1; 
stroke-linecap:round; stroke-linejoin:round;">
<path d="M85.661122 68.105351
L85.336122 67.542434
" />
<path d="M85.098205 68.430351
L85.661122 68.105351
" />
<path d="M89.850000 59.150000
L89.200000 59.150000
" />
<path d="M89.850000 59.800000
L89.850000 59.150000
" />
<path d="M79.150000 50.150000
L79.150000 50.800000
" />
<path d="M79.800000 50.150000
L79.150000 50.150000
" />
<path d="M88.955351 64.188878
L88.392434 63.863878
" />
<path d="M88.630351 64.751795
L88.955351 64.188878
" />
<path d="M71.894649 65.661122
L72.457566 65.336122
" />
<path d="M71.569649 65.098205
L71.894649 65.661122
" />
<path d="M80.850000 69.850000
L80.850000 69.200000
" />
<path d="M80.200000 69.850000
L80.850000 69.850000
" />
<path d="M70.150000 60.850000
L70.800000 60.850000
" />
<path d="M70.150000 60.200000
L70.150000 60.850000
" />
<path d="M71.044649 55.811122
L71.607566 56.136122
" />
<path d="M71.369649 55.248205
L71.044649 55.811122
" />
<path d="M88.105351 54.338878
L87.542434 54.663878
" />
<path d="M88.430351 54.901795
L88.105351 54.338878
" />
<path d="M74.338878 51.894649
L74.663878 52.457566
" />
<path d="M74.901795 51.569649
L74.338878 51.894649
" />
<path d="M75.811122 68.955351
L76.136122 68.392434
" />
<path d="M75.248205 68.630351
L75.811122 68.955351
" />
<path d="M84.188878 51.044649
L83.863878 51.607566
" />
<path d="M84.751795 51.369649
L84.188878 51.044649
" />
<g >
</g>
<g >
</g>
<g >
</g>
<g >
</g>
<g >
</g>
<g >
</g>
<g >
</g>
<g >
</g>
<g >
</g>
<g >
</g>
<g >
</g>
<g >
</g>
<g >
</g>
<g >
</g>
<g >
</g>
<g >
</g>
<g >
</g>
<g >
</g>
<g >
</g>
<g >
</g>
<g >
</g>
<g >
</g>
<g >
</g>
<g >
</g>
<g >
</g>
<g >
</g>
<g >
</g>
<g >
</g>
<g >
</g>
<g >
</g>
<g >
</g>
<g >
</g>
<g >
</g>
<g >
</g>
</g> 
</svg>
