<?xml version="1.0" standalone="no"?>
 <!DOCTYPE svg PUBLIC "-//W3C//DTD SVG 1.1//EN" 
 "http://www.w3.org/Graphics/SVG/1.1/DTD/svg11.dtd"> 
<svg
  xmlns:svg="http://www.w3.org/2000/svg"
  xmlns="http://www.w3.org/2000/svg"
  xmlns:xlink="http://www.w3.org/1999/xlink"
  version="1.1"
  width="3.8100000000000005cm" height="3.0100000000000002cm" viewBox="64.95 44.95 38.1 30.1">
<title>SVG Image created as pedalboard-led-ring-F_SilkS.svg date 2023/05/29 10:56:05 </title>
  <desc>Image generated by PCBNEW </desc>
<g style="fill:#000000; fill-opacity:1.000000;stroke:#000000; stroke-opacity:1.000000;
stroke-linecap:round; stroke-linejoin:round;"
 transform="translate(0 0) scale(1 1)">
</g>
<g style="fill:#000000; fill-opacity:0.0; 
stroke:#000000; stroke-width:0.000000; stroke-opacity:1; 
stroke-linecap:round; stroke-linejoin:round;">
</g>
<g style="fill:#000000; fill-opacity:0.0; 
stroke:#000000; stroke-width:0.150000; stroke-opacity:1; 
stroke-linecap:round; stroke-linejoin:round;">
<g transform="rotate(60.000000 90.292820 58.259679)">
<text x="90.292820" y="58.659679"
textLength="1.776905" font-size="1.066666" lengthAdjust="spacingAndGlyphs"
text-anchor="middle" opacity="0">D6</text>
</g>
<g class="stroked-text"><desc>D6</desc>
<path d="M89.677070 57.933359
L90.369890 57.533359
" />
<path d="M90.369890 57.533359
L90.465128 57.698316
" />
<path d="M90.465128 57.698316
L90.489280 57.816338
" />
<path d="M90.489280 57.816338
L90.461392 57.920416
" />
<path d="M90.461392 57.920416
L90.414457 57.991503
" />
<path d="M90.414457 57.991503
L90.301538 58.100685
" />
<path d="M90.301538 58.100685
L90.202564 58.157828
" />
<path d="M90.202564 58.157828
L90.051551 58.201027
" />
<path d="M90.051551 58.201027
L89.966520 58.206131
" />
<path d="M89.966520 58.206131
L89.862442 58.178243
" />
<path d="M89.862442 58.178243
L89.772308 58.098316
" />
<path d="M89.772308 58.098316
L89.677070 57.933359
" />
<path d="M90.941319 58.523102
L90.865128 58.391137
" />
<path d="M90.865128 58.391137
L90.794041 58.344201
" />
<path d="M90.794041 58.344201
L90.742002 58.330258
" />
<path d="M90.742002 58.330258
L90.604933 58.321417
" />
<path d="M90.604933 58.321417
L90.453919 58.364617
" />
<path d="M90.453919 58.364617
L90.189988 58.516997
" />
<path d="M90.189988 58.516997
L90.143053 58.588084
" />
<path d="M90.143053 58.588084
L90.129109 58.640123
" />
<path d="M90.129109 58.640123
L90.134213 58.725154
" />
<path d="M90.134213 58.725154
L90.210403 58.857119
" />
<path d="M90.210403 58.857119
L90.281490 58.904055
" />
<path d="M90.281490 58.904055
L90.333529 58.917999
" />
<path d="M90.333529 58.917999
L90.418559 58.912895
" />
<path d="M90.418559 58.912895
L90.583517 58.817657
" />
<path d="M90.583517 58.817657
L90.630452 58.746570
" />
<path d="M90.630452 58.746570
L90.644396 58.694531
" />
<path d="M90.644396 58.694531
L90.639292 58.609500
" />
<path d="M90.639292 58.609500
L90.563101 58.477535
" />
<path d="M90.563101 58.477535
L90.492015 58.430599
" />
<path d="M90.492015 58.430599
L90.439976 58.416656
" />
<path d="M90.439976 58.416656
L90.354945 58.421759
" />
</g><text x="76.900000" y="70.200000"
textLength="1.776905" font-size="1.066666" lengthAdjust="spacingAndGlyphs"
text-anchor="middle" opacity="0">D2</text>
<g class="stroked-text"><desc>D2</desc>
<path d="M76.309524 70.170095
L76.309524 69.370095
" />
<path d="M76.309524 69.370095
L76.500000 69.370095
" />
<path d="M76.500000 69.370095
L76.614286 69.408190
" />
<path d="M76.614286 69.408190
L76.690476 69.484380
" />
<path d="M76.690476 69.484380
L76.728571 69.560571
" />
<path d="M76.728571 69.560571
L76.766667 69.712952
" />
<path d="M76.766667 69.712952
L76.766667 69.827238
" />
<path d="M76.766667 69.827238
L76.728571 69.979619
" />
<path d="M76.728571 69.979619
L76.690476 70.055809
" />
<path d="M76.690476 70.055809
L76.614286 70.132000
" />
<path d="M76.614286 70.132000
L76.500000 70.170095
" />
<path d="M76.500000 70.170095
L76.309524 70.170095
" />
<path d="M77.071428 69.446285
L77.109524 69.408190
" />
<path d="M77.109524 69.408190
L77.185714 69.370095
" />
<path d="M77.185714 69.370095
L77.376190 69.370095
" />
<path d="M77.376190 69.370095
L77.452381 69.408190
" />
<path d="M77.452381 69.408190
L77.490476 69.446285
" />
<path d="M77.490476 69.446285
L77.528571 69.522476
" />
<path d="M77.528571 69.522476
L77.528571 69.598666
" />
<path d="M77.528571 69.598666
L77.490476 69.712952
" />
<path d="M77.490476 69.712952
L77.033333 70.170095
" />
<path d="M77.033333 70.170095
L77.528571 70.170095
" />
</g><text x="83.100000" y="50.600000"
textLength="1.776905" font-size="1.066666" lengthAdjust="spacingAndGlyphs"
text-anchor="middle" opacity="0">D5</text>
<g class="stroked-text"><desc>D5</desc>
<path d="M82.509524 50.570095
L82.509524 49.770095
" />
<path d="M82.509524 49.770095
L82.700000 49.770095
" />
<path d="M82.700000 49.770095
L82.814286 49.808190
" />
<path d="M82.814286 49.808190
L82.890476 49.884380
" />
<path d="M82.890476 49.884380
L82.928571 49.960571
" />
<path d="M82.928571 49.960571
L82.966667 50.112952
" />
<path d="M82.966667 50.112952
L82.966667 50.227238
" />
<path d="M82.966667 50.227238
L82.928571 50.379619
" />
<path d="M82.928571 50.379619
L82.890476 50.455809
" />
<path d="M82.890476 50.455809
L82.814286 50.532000
" />
<path d="M82.814286 50.532000
L82.700000 50.570095
" />
<path d="M82.700000 50.570095
L82.509524 50.570095
" />
<path d="M83.690476 49.770095
L83.309524 49.770095
" />
<path d="M83.309524 49.770095
L83.271428 50.151047
" />
<path d="M83.271428 50.151047
L83.309524 50.112952
" />
<path d="M83.309524 50.112952
L83.385714 50.074857
" />
<path d="M83.385714 50.074857
L83.576190 50.074857
" />
<path d="M83.576190 50.074857
L83.652381 50.112952
" />
<path d="M83.652381 50.112952
L83.690476 50.151047
" />
<path d="M83.690476 50.151047
L83.728571 50.227238
" />
<path d="M83.728571 50.227238
L83.728571 50.417714
" />
<path d="M83.728571 50.417714
L83.690476 50.493904
" />
<path d="M83.690476 50.493904
L83.652381 50.532000
" />
<path d="M83.652381 50.532000
L83.576190 50.570095
" />
<path d="M83.576190 50.570095
L83.385714 50.570095
" />
<path d="M83.385714 50.570095
L83.309524 50.532000
" />
<path d="M83.309524 50.532000
L83.271428 50.493904
" />
</g><g transform="rotate(60.000000 69.707180 61.740321)">
<text x="69.707180" y="62.140321"
textLength="1.776905" font-size="1.066666" lengthAdjust="spacingAndGlyphs"
text-anchor="middle" opacity="0">D3</text>
</g>
<g class="stroked-text"><desc>D3</desc>
<path d="M69.091430 61.414001
L69.784250 61.014001
" />
<path d="M69.784250 61.014001
L69.879488 61.178958
" />
<path d="M69.879488 61.178958
L69.903640 61.296980
" />
<path d="M69.903640 61.296980
L69.875752 61.401058
" />
<path d="M69.875752 61.401058
L69.828817 61.472145
" />
<path d="M69.828817 61.472145
L69.715898 61.581327
" />
<path d="M69.715898 61.581327
L69.616924 61.638470
" />
<path d="M69.616924 61.638470
L69.465911 61.681669
" />
<path d="M69.465911 61.681669
L69.380880 61.686773
" />
<path d="M69.380880 61.686773
L69.276802 61.658885
" />
<path d="M69.276802 61.658885
L69.186668 61.578958
" />
<path d="M69.186668 61.578958
L69.091430 61.414001
" />
<path d="M70.146155 61.640839
L70.393774 62.069727
" />
<path d="M70.393774 62.069727
L69.996509 61.991168
" />
<path d="M69.996509 61.991168
L70.053652 62.090142
" />
<path d="M70.053652 62.090142
L70.058756 62.175173
" />
<path d="M70.058756 62.175173
L70.044812 62.227212
" />
<path d="M70.044812 62.227212
L69.997877 62.298299
" />
<path d="M69.997877 62.298299
L69.832919 62.393537
" />
<path d="M69.832919 62.393537
L69.747889 62.398641
" />
<path d="M69.747889 62.398641
L69.695850 62.384697
" />
<path d="M69.695850 62.384697
L69.624763 62.337761
" />
<path d="M69.624763 62.337761
L69.510477 62.139813
" />
<path d="M69.510477 62.139813
L69.505374 62.054782
" />
<path d="M69.505374 62.054782
L69.519317 62.002743
" />
</g><g transform="rotate(-60.000000 72.807180 52.890321)">
<text x="72.807180" y="53.290321"
textLength="1.776905" font-size="1.066666" lengthAdjust="spacingAndGlyphs"
text-anchor="middle" opacity="0">D4</text>
</g>
<g class="stroked-text"><desc>D4</desc>
<path d="M72.832453 53.586735
L72.139633 53.186735
" />
<path d="M72.139633 53.186735
L72.234871 53.021778
" />
<path d="M72.234871 53.021778
L72.325006 52.941851
" />
<path d="M72.325006 52.941851
L72.429084 52.913964
" />
<path d="M72.429084 52.913964
L72.514114 52.919067
" />
<path d="M72.514114 52.919067
L72.665128 52.962266
" />
<path d="M72.665128 52.962266
L72.764102 53.019409
" />
<path d="M72.764102 53.019409
L72.877020 53.128591
" />
<path d="M72.877020 53.128591
L72.923955 53.199678
" />
<path d="M72.923955 53.199678
L72.951843 53.303756
" />
<path d="M72.951843 53.303756
L72.927692 53.421778
" />
<path d="M72.927692 53.421778
L72.832453 53.586735
" />
<path d="M72.942002 52.330325
L73.403882 52.596992
" />
<path d="M72.582832 52.342901
L72.982466 52.793573
" />
<path d="M72.982466 52.793573
L73.230085 52.364684
" />
</g><g transform="rotate(-60.000000 87.192820 67.109679)">
<text x="87.192820" y="67.509679"
textLength="1.776905" font-size="1.066666" lengthAdjust="spacingAndGlyphs"
text-anchor="middle" opacity="0">D1</text>
</g>
<g class="stroked-text"><desc>D1</desc>
<path d="M87.218093 67.806093
L86.525273 67.406093
" />
<path d="M86.525273 67.406093
L86.620511 67.241136
" />
<path d="M86.620511 67.241136
L86.710646 67.161209
" />
<path d="M86.710646 67.161209
L86.814724 67.133322
" />
<path d="M86.814724 67.133322
L86.899754 67.138425
" />
<path d="M86.899754 67.138425
L87.050768 67.181624
" />
<path d="M87.050768 67.181624
L87.149742 67.238767
" />
<path d="M87.149742 67.238767
L87.262660 67.347949
" />
<path d="M87.262660 67.347949
L87.309595 67.419036
" />
<path d="M87.309595 67.419036
L87.337483 67.523114
" />
<path d="M87.337483 67.523114
L87.313332 67.641136
" />
<path d="M87.313332 67.641136
L87.218093 67.806093
" />
<path d="M87.827617 66.750367
L87.599046 67.146264
" />
<path d="M87.713332 66.948316
L87.020511 66.548316
" />
<path d="M87.020511 66.548316
L87.081390 66.671441
" />
<path d="M87.081390 66.671441
L87.109278 66.775519
" />
<path d="M87.109278 66.775519
L87.104174 66.860550
" />
</g></g>
<g style="fill:#000000; fill-opacity:0.0; 
stroke:#000000; stroke-width:0.120000; stroke-opacity:1; 
stroke-linecap:round; stroke-linejoin:round;">
<path d="M86.447372 55.399167
L88.352628 54.299167
" />
<path d="M88.007180 57.500833
L89.392820 56.700833
" />
<path d="M81.300000 67.900000
L81.300000 70.100000
" />
<path d="M78.700000 68.200000
L78.700000 69.800000
" />
<path d="M78.700000 52.100000
L78.700000 49.900000
" />
<path d="M81.300000 51.800000
L81.300000 50.200000
" />
<path d="M73.552628 64.600833
L71.647372 65.700833
" />
<path d="M71.992820 62.499167
L70.607180 63.299167
" />
<path d="M72.252628 57.650833
L70.347372 56.550833
" />
<path d="M73.292820 55.249167
L71.907180 54.449167
" />
<path d="M87.747372 62.349167
L89.652628 63.449167
" />
<path d="M86.707180 64.750833
L88.092820 65.550833
" />
<g >
</g>
<g >
</g>
<g >
</g>
<g >
</g>
<g >
</g>
<g >
</g>
<g >
</g>
<g >
</g>
<g >
</g>
<g >
</g>
<g >
</g>
<g >
</g>
<g >
</g>
<g >
</g>
<g >
</g>
<g >
</g>
<g >
</g>
<g >
</g>
<g >
</g>
</g> 
</svg>
