<?xml version="1.0" standalone="no"?>
 <!DOCTYPE svg PUBLIC "-//W3C//DTD SVG 1.1//EN" 
 "http://www.w3.org/Graphics/SVG/1.1/DTD/svg11.dtd"> 
<svg
  xmlns:svg="http://www.w3.org/2000/svg"
  xmlns="http://www.w3.org/2000/svg"
  xmlns:xlink="http://www.w3.org/1999/xlink"
  version="1.1"
  width="297.0022mm" height="210.0072mm" viewBox="0.0000 0.0000 297.0022 210.0072">
<title>SVG Image created as pedalboard-led-ring-F_Courtyard.svg date 2023/06/02 15:48:07 </title>
  <desc>Image generated by PCBNEW </desc>
<g style="fill:#000000; fill-opacity:1.0000;stroke:#000000; stroke-opacity:1.0000;
stroke-linecap:round; stroke-linejoin:round;"
 transform="translate(0 0) scale(1 1)">
</g>
<g style="fill:#000000; fill-opacity:0.0; 
stroke:#000000; stroke-width:0.0000; stroke-opacity:1; 
stroke-linecap:round; stroke-linejoin:round;">
</g>
<g style="fill:#000000; fill-opacity:0.0; 
stroke:#000000; stroke-width:0.0500; stroke-opacity:1; 
stroke-linecap:round; stroke-linejoin:round;">
<path d="M71.1735 66.1121
L70.2935 64.5879
" />
<path d="M71.7797 65.7621
L71.1735 66.1121
" />
<path d="M70.2935 64.5879
L70.8997 64.2379
" />
<path d="M70.8997 64.2379
L71.7797 65.7621
" />
<path d="M84.8660 66.4282
L85.8660 68.1603
" />
<path d="M83.1340 67.4282
L84.8660 66.4282
" />
<path d="M85.8660 68.1603
L84.1340 69.1603
" />
<path d="M84.1340 69.1603
L83.1340 67.4282
" />
<path d="M88.0000 59.0000
L90.0000 59.0000
" />
<path d="M88.0000 61.0000
L88.0000 59.0000
" />
<path d="M90.0000 59.0000
L90.0000 61.0000
" />
<path d="M90.0000 61.0000
L88.0000 61.0000
" />
<path d="M79.0000 52.0000
L79.0000 50.0000
" />
<path d="M81.0000 52.0000
L79.0000 52.0000
" />
<path d="M79.0000 50.0000
L81.0000 50.0000
" />
<path d="M81.0000 50.0000
L81.0000 52.0000
" />
<path d="M87.4282 63.1340
L89.1603 64.1340
" />
<path d="M86.4282 64.8660
L87.4282 63.1340
" />
<path d="M89.1603 64.1340
L88.1603 65.8660
" />
<path d="M88.1603 65.8660
L86.4282 64.8660
" />
<path d="M73.5718 64.8660
L71.8397 65.8660
" />
<path d="M72.5718 63.1340
L73.5718 64.8660
" />
<path d="M71.8397 65.8660
L70.8397 64.1340
" />
<path d="M70.8397 64.1340
L72.5718 63.1340
" />
<circle cx="68.0000" cy="48.0000" r="2.4500" /> 
<path d="M81.0000 68.0000
L81.0000 70.0000
" />
<path d="M79.0000 68.0000
L81.0000 68.0000
" />
<path d="M81.0000 70.0000
L79.0000 70.0000
" />
<path d="M79.0000 70.0000
L79.0000 68.0000
" />
<path d="M86.1121 68.8265
L84.5879 69.7065
" />
<path d="M85.7621 68.2203
L86.1121 68.8265
" />
<path d="M84.5879 69.7065
L84.2379 69.1003
" />
<path d="M84.2379 69.1003
L85.7621 68.2203
" />
<path d="M72.0000 61.0000
L70.0000 61.0000
" />
<path d="M72.0000 59.0000
L72.0000 61.0000
" />
<path d="M70.0000 61.0000
L70.0000 59.0000
" />
<path d="M70.0000 59.0000
L72.0000 59.0000
" />
<path d="M72.5718 56.8660
L70.8397 55.8660
" />
<path d="M73.5718 55.1340
L72.5718 56.8660
" />
<path d="M70.8397 55.8660
L71.8397 54.1340
" />
<path d="M71.8397 54.1340
L73.5718 55.1340
" />
<path d="M88.3269 65.5871
L89.2069 64.0629
" />
<path d="M88.9331 65.9371
L88.3269 65.5871
" />
<path d="M89.2069 64.0629
L89.8131 64.4129
" />
<path d="M89.8131 64.4129
L88.9331 65.9371
" />
<circle cx="92.0000" cy="48.0000" r="2.4500" /> 
<path d="M70.2935 55.4121
L71.1735 53.8879
" />
<path d="M70.8997 55.7621
L70.2935 55.4121
" />
<path d="M71.1735 53.8879
L71.7797 54.2379
" />
<path d="M71.7797 54.2379
L70.8997 55.7621
" />
<path d="M75.4121 69.7065
L73.8879 68.8265
" />
<path d="M75.7621 69.1003
L75.4121 69.7065
" />
<path d="M73.8879 68.8265
L74.2379 68.2203
" />
<path d="M74.2379 68.2203
L75.7621 69.1003
" />
<path d="M69.3000 60.8800
L69.3000 59.1200
" />
<path d="M70.0000 60.8800
L69.3000 60.8800
" />
<path d="M69.3000 59.1200
L70.0000 59.1200
" />
<path d="M70.0000 59.1200
L70.0000 60.8800
" />
<path d="M80.8800 70.7000
L79.1200 70.7000
" />
<path d="M80.8800 70.0000
L80.8800 70.7000
" />
<path d="M79.1200 70.7000
L79.1200 70.0000
" />
<path d="M79.1200 70.0000
L80.8800 70.0000
" />
<path d="M84.5879 50.2935
L86.1121 51.1735
" />
<path d="M84.2379 50.8997
L84.5879 50.2935
" />
<path d="M86.1121 51.1735
L85.7621 51.7797
" />
<path d="M85.7621 51.7797
L84.2379 50.8997
" />
<path d="M88.8265 53.8879
L89.7065 55.4121
" />
<path d="M88.2203 54.2379
L88.8265 53.8879
" />
<path d="M89.7065 55.4121
L89.1003 55.7621
" />
<path d="M89.1003 55.7621
L88.2203 54.2379
" />
<path d="M73.8879 51.1735
L75.4121 50.2935
" />
<path d="M74.2379 51.7797
L73.8879 51.1735
" />
<path d="M75.4121 50.2935
L75.7621 50.8997
" />
<path d="M75.7621 50.8997
L74.2379 51.7797
" />
<circle cx="68.0000" cy="72.0000" r="2.4500" /> 
<path d="M86.4282 55.1340
L88.1603 54.1340
" />
<path d="M87.4282 56.8660
L86.4282 55.1340
" />
<path d="M88.1603 54.1340
L89.1603 55.8660
" />
<path d="M89.1603 55.8660
L87.4282 56.8660
" />
<path d="M90.7000 59.1200
L90.7000 60.8800
" />
<path d="M90.0000 59.1200
L90.7000 59.1200
" />
<path d="M90.7000 60.8800
L90.0000 60.8800
" />
<path d="M90.0000 60.8800
L90.0000 59.1200
" />
<path d="M75.1340 53.5718
L74.1340 51.8397
" />
<path d="M76.8660 52.5718
L75.1340 53.5718
" />
<path d="M74.1340 51.8397
L75.8660 50.8397
" />
<path d="M75.8660 50.8397
L76.8660 52.5718
" />
<path d="M76.8660 67.4282
L75.8660 69.1603
" />
<path d="M75.1340 66.4282
L76.8660 67.4282
" />
<path d="M75.8660 69.1603
L74.1340 68.1603
" />
<path d="M74.1340 68.1603
L75.1340 66.4282
" />
<path d="M83.1340 52.5718
L84.1340 50.8397
" />
<path d="M84.8660 53.5718
L83.1340 52.5718
" />
<path d="M84.1340 50.8397
L85.8660 51.8397
" />
<path d="M85.8660 51.8397
L84.8660 53.5718
" />
<path d="M89.7900 62.0300
L88.0300 62.0300
" />
<path d="M89.7900 61.3300
L89.7900 62.0300
" />
<path d="M88.0300 62.0300
L88.0300 61.3300
" />
<path d="M88.0300 61.3300
L89.7900 61.3300
" />
<path d="M79.1200 49.3000
L80.8800 49.3000
" />
<path d="M79.1200 50.0000
L79.1200 49.3000
" />
<path d="M80.8800 49.3000
L80.8800 50.0000
" />
<path d="M80.8800 50.0000
L79.1200 50.0000
" />
<g >
</g>
<g >
</g>
<g >
</g>
<g >
</g>
<g >
</g>
<g >
</g>
<g >
</g>
<g >
</g>
<g >
</g>
<g >
</g>
<g >
</g>
<g >
</g>
<g >
</g>
<g >
</g>
<g >
</g>
<g >
</g>
<g >
</g>
<g >
</g>
<g >
</g>
<g >
</g>
<g >
</g>
<g >
</g>
<g >
</g>
<g >
</g>
<g >
</g>
<g >
</g>
<g >
</g>
<g >
</g>
<g >
</g>
<g >
</g>
<g >
</g>
<g >
</g>
<g >
</g>
</g> 
</svg>
