<?xml version="1.0" standalone="no"?>
 <!DOCTYPE svg PUBLIC "-//W3C//DTD SVG 1.1//EN" 
 "http://www.w3.org/Graphics/SVG/1.1/DTD/svg11.dtd"> 
<svg
  xmlns:svg="http://www.w3.org/2000/svg"
  xmlns="http://www.w3.org/2000/svg"
  xmlns:xlink="http://www.w3.org/1999/xlink"
  version="1.1"
  width="297.0022mm" height="210.0072mm" viewBox="0.0000 0.0000 297.0022 210.0072">
<title>SVG Image created as pedalboard-led-ring-F_Courtyard.svg date 2023/06/05 16:16:06 </title>
  <desc>Image generated by PCBNEW </desc>
<g style="fill:#000000; fill-opacity:1.0000;stroke:#000000; stroke-opacity:1.0000;
stroke-linecap:round; stroke-linejoin:round;"
 transform="translate(0 0) scale(1 1)">
</g>
<g style="fill:#000000; fill-opacity:0.0; 
stroke:#000000; stroke-width:0.0000; stroke-opacity:1; 
stroke-linecap:round; stroke-linejoin:round;">
</g>
<g style="fill:#000000; fill-opacity:0.0; 
stroke:#000000; stroke-width:0.0500; stroke-opacity:1; 
stroke-linecap:round; stroke-linejoin:round;">
<path d="M84.1340 69.1603
L83.1340 67.4282
" />
<path d="M85.8660 68.1603
L84.1340 69.1603
" />
<path d="M83.1340 67.4282
L84.8660 66.4282
" />
<path d="M84.8660 66.4282
L85.8660 68.1603
" />
<path d="M79.0000 50.1800
L79.0000 51.9400
" />
<path d="M78.3000 50.1800
L79.0000 50.1800
" />
<path d="M79.0000 51.9400
L78.3000 51.9400
" />
<path d="M78.3000 51.9400
L78.3000 50.1800
" />
<path d="M74.2240 51.9956
L75.1040 53.5198
" />
<path d="M73.6178 52.3456
L74.2240 51.9956
" />
<path d="M75.1040 53.5198
L74.4978 53.8698
" />
<path d="M74.4978 53.8698
L73.6178 52.3456
" />
<path d="M90.0000 61.0000
L88.0000 61.0000
" />
<path d="M90.0000 59.0000
L90.0000 61.0000
" />
<path d="M88.0000 61.0000
L88.0000 59.0000
" />
<path d="M88.0000 59.0000
L90.0000 59.0000
" />
<path d="M81.0000 50.0000
L81.0000 52.0000
" />
<path d="M79.0000 50.0000
L81.0000 50.0000
" />
<path d="M81.0000 52.0000
L79.0000 52.0000
" />
<path d="M79.0000 52.0000
L79.0000 50.0000
" />
<path d="M88.1603 65.8660
L86.4282 64.8660
" />
<path d="M89.1603 64.1340
L88.1603 65.8660
" />
<path d="M86.4282 64.8660
L87.4282 63.1340
" />
<path d="M87.4282 63.1340
L89.1603 64.1340
" />
<path d="M70.8397 64.1340
L72.5718 63.1340
" />
<path d="M71.8397 65.8660
L70.8397 64.1340
" />
<path d="M72.5718 63.1340
L73.5718 64.8660
" />
<path d="M73.5718 64.8660
L71.8397 65.8660
" />
<path d="M79.0000 70.0000
L79.0000 68.0000
" />
<path d="M81.0000 70.0000
L79.0000 70.0000
" />
<path d="M79.0000 68.0000
L81.0000 68.0000
" />
<path d="M81.0000 68.0000
L81.0000 70.0000
" />
<path d="M70.0000 59.0000
L72.0000 59.0000
" />
<path d="M70.0000 61.0000
L70.0000 59.0000
" />
<path d="M72.0000 59.0000
L72.0000 61.0000
" />
<path d="M72.0000 61.0000
L70.0000 61.0000
" />
<path d="M71.8397 54.1340
L73.5718 55.1340
" />
<path d="M70.8397 55.8660
L71.8397 54.1340
" />
<path d="M73.5718 55.1340
L72.5718 56.8660
" />
<path d="M72.5718 56.8660
L70.8397 55.8660
" />
<circle cx="90.0000" cy="50.0000" r="2.4500" /> 
<path d="M70.1800 61.0000
L71.9400 61.0000
" />
<path d="M70.1800 61.7000
L70.1800 61.0000
" />
<path d="M71.9400 61.0000
L71.9400 61.7000
" />
<path d="M71.9400 61.7000
L70.1800 61.7000
" />
<path d="M71.9956 65.7760
L73.5198 64.8960
" />
<path d="M72.3456 66.3822
L71.9956 65.7760
" />
<path d="M73.5198 64.8960
L73.8698 65.5022
" />
<path d="M73.8698 65.5022
L72.3456 66.3822
" />
<path d="M75.9560 69.0044
L76.8360 67.4802
" />
<path d="M76.5622 69.3544
L75.9560 69.0044
" />
<path d="M76.8360 67.4802
L77.4422 67.8302
" />
<path d="M77.4422 67.8302
L76.5622 69.3544
" />
<circle cx="70.0000" cy="50.0000" r="2.4500" /> 
<path d="M85.7760 68.0044
L84.8960 66.4802
" />
<path d="M86.3822 67.6544
L85.7760 68.0044
" />
<path d="M84.8960 66.4802
L85.5022 66.1302
" />
<path d="M85.5022 66.1302
L86.3822 67.6544
" />
<path d="M70.9956 55.9560
L72.5198 56.8360
" />
<path d="M70.6456 56.5622
L70.9956 55.9560
" />
<path d="M72.5198 56.8360
L72.1698 57.4422
" />
<path d="M72.1698 57.4422
L70.6456 56.5622
" />
<path d="M81.0000 69.8200
L81.0000 68.0600
" />
<path d="M81.7000 69.8200
L81.0000 69.8200
" />
<path d="M81.0000 68.0600
L81.7000 68.0600
" />
<path d="M81.7000 68.0600
L81.7000 69.8200
" />
<path d="M89.1603 55.8660
L87.4282 56.8660
" />
<path d="M88.1603 54.1340
L89.1603 55.8660
" />
<path d="M87.4282 56.8660
L86.4282 55.1340
" />
<path d="M86.4282 55.1340
L88.1603 54.1340
" />
<path d="M89.8200 59.0000
L88.0600 59.0000
" />
<path d="M89.8200 58.3000
L89.8200 59.0000
" />
<path d="M88.0600 59.0000
L88.0600 58.3000
" />
<path d="M88.0600 58.3000
L89.8200 58.3000
" />
<path d="M88.0044 54.2240
L86.4802 55.1040
" />
<path d="M87.6544 53.6178
L88.0044 54.2240
" />
<path d="M86.4802 55.1040
L86.1302 54.4978
" />
<path d="M86.1302 54.4978
L87.6544 53.6178
" />
<path d="M75.8660 50.8397
L76.8660 52.5718
" />
<path d="M74.1340 51.8397
L75.8660 50.8397
" />
<path d="M76.8660 52.5718
L75.1340 53.5718
" />
<path d="M75.1340 53.5718
L74.1340 51.8397
" />
<path d="M89.0044 64.0440
L87.4802 63.1640
" />
<path d="M89.3544 63.4378
L89.0044 64.0440
" />
<path d="M87.4802 63.1640
L87.8302 62.5578
" />
<path d="M87.8302 62.5578
L89.3544 63.4378
" />
<path d="M74.1340 68.1603
L75.1340 66.4282
" />
<path d="M75.8660 69.1603
L74.1340 68.1603
" />
<path d="M75.1340 66.4282
L76.8660 67.4282
" />
<path d="M76.8660 67.4282
L75.8660 69.1603
" />
<path d="M85.8660 51.8397
L84.8660 53.5718
" />
<path d="M84.1340 50.8397
L85.8660 51.8397
" />
<path d="M84.8660 53.5718
L83.1340 52.5718
" />
<path d="M83.1340 52.5718
L84.1340 50.8397
" />
<path d="M89.7900 62.0300
L88.0300 62.0300
" />
<path d="M89.7900 61.3300
L89.7900 62.0300
" />
<path d="M88.0300 62.0300
L88.0300 61.3300
" />
<path d="M88.0300 61.3300
L89.7900 61.3300
" />
<circle cx="70.0000" cy="70.0000" r="2.4500" /> 
<path d="M84.0440 50.9956
L83.1640 52.5198
" />
<path d="M83.4378 50.6456
L84.0440 50.9956
" />
<path d="M83.1640 52.5198
L82.5578 52.1698
" />
<path d="M82.5578 52.1698
L83.4378 50.6456
" />
<g >
</g>
<g >
</g>
<g >
</g>
<g >
</g>
<g >
</g>
<g >
</g>
<g >
</g>
<g >
</g>
<g >
</g>
<g >
</g>
<g >
</g>
<g >
</g>
<g >
</g>
<g >
</g>
<g >
</g>
<g >
</g>
<g >
</g>
<g >
</g>
<g >
</g>
<g >
</g>
<g >
</g>
<g >
</g>
<g >
</g>
<g >
</g>
<g >
</g>
<g >
</g>
<g >
</g>
<g >
</g>
<g >
</g>
<g >
</g>
<g >
</g>
<g >
</g>
<g >
</g>
<g >
</g>
</g> 
</svg>
