G04 #@! TF.GenerationSoftware,KiCad,Pcbnew,7.0.2.1-36-g582732918d-dirty-deb11*
G04 #@! TF.CreationDate,2023-05-26T11:33:27+00:00*
G04 #@! TF.ProjectId,pedalboard-led-ring,70656461-6c62-46f6-9172-642d6c65642d,rev?*
G04 #@! TF.SameCoordinates,Original*
G04 #@! TF.FileFunction,Legend,Bot*
G04 #@! TF.FilePolarity,Positive*
%FSLAX46Y46*%
G04 Gerber Fmt 4.6, Leading zero omitted, Abs format (unit mm)*
G04 Created by KiCad (PCBNEW 7.0.2.1-36-g582732918d-dirty-deb11) date 2023-05-26 11:33:27*
%MOMM*%
%LPD*%
G01*
G04 APERTURE LIST*
%ADD10C,0.100000*%
%ADD11C,0.150000*%
%ADD12C,0.120000*%
%ADD13C,0.127000*%
%ADD14C,0.010000*%
%ADD15R,1.000000X3.000000*%
%ADD16R,1.000000X1.000000*%
%ADD17R,0.700000X0.250000*%
%ADD18R,0.610000X2.200000*%
G04 APERTURE END LIST*
D10*
X87050000Y-60000000D02*
G75*
G03*
X87050000Y-60000000I-7050000J0D01*
G01*
D11*
X92861904Y-48762619D02*
X92861904Y-49572142D01*
X92861904Y-49572142D02*
X92814285Y-49667380D01*
X92814285Y-49667380D02*
X92766666Y-49715000D01*
X92766666Y-49715000D02*
X92671428Y-49762619D01*
X92671428Y-49762619D02*
X92480952Y-49762619D01*
X92480952Y-49762619D02*
X92385714Y-49715000D01*
X92385714Y-49715000D02*
X92338095Y-49667380D01*
X92338095Y-49667380D02*
X92290476Y-49572142D01*
X92290476Y-49572142D02*
X92290476Y-48762619D01*
X91290476Y-49762619D02*
X91861904Y-49762619D01*
X91576190Y-49762619D02*
X91576190Y-48762619D01*
X91576190Y-48762619D02*
X91671428Y-48905476D01*
X91671428Y-48905476D02*
X91766666Y-49000714D01*
X91766666Y-49000714D02*
X91861904Y-49048333D01*
X88816666Y-64862619D02*
X89292856Y-64862619D01*
X89292856Y-64862619D02*
X89292856Y-63862619D01*
X87959523Y-64862619D02*
X88530951Y-64862619D01*
X88245237Y-64862619D02*
X88245237Y-63862619D01*
X88245237Y-63862619D02*
X88340475Y-64005476D01*
X88340475Y-64005476D02*
X88435713Y-64100714D01*
X88435713Y-64100714D02*
X88530951Y-64148333D01*
X92066666Y-61817380D02*
X92114285Y-61865000D01*
X92114285Y-61865000D02*
X92257142Y-61912619D01*
X92257142Y-61912619D02*
X92352380Y-61912619D01*
X92352380Y-61912619D02*
X92495237Y-61865000D01*
X92495237Y-61865000D02*
X92590475Y-61769761D01*
X92590475Y-61769761D02*
X92638094Y-61674523D01*
X92638094Y-61674523D02*
X92685713Y-61484047D01*
X92685713Y-61484047D02*
X92685713Y-61341190D01*
X92685713Y-61341190D02*
X92638094Y-61150714D01*
X92638094Y-61150714D02*
X92590475Y-61055476D01*
X92590475Y-61055476D02*
X92495237Y-60960238D01*
X92495237Y-60960238D02*
X92352380Y-60912619D01*
X92352380Y-60912619D02*
X92257142Y-60912619D01*
X92257142Y-60912619D02*
X92114285Y-60960238D01*
X92114285Y-60960238D02*
X92066666Y-61007857D01*
X91114285Y-61912619D02*
X91685713Y-61912619D01*
X91399999Y-61912619D02*
X91399999Y-60912619D01*
X91399999Y-60912619D02*
X91495237Y-61055476D01*
X91495237Y-61055476D02*
X91590475Y-61150714D01*
X91590475Y-61150714D02*
X91685713Y-61198333D01*
X89752619Y-67666666D02*
X90466904Y-67666666D01*
X90466904Y-67666666D02*
X90609761Y-67619047D01*
X90609761Y-67619047D02*
X90705000Y-67523809D01*
X90705000Y-67523809D02*
X90752619Y-67380952D01*
X90752619Y-67380952D02*
X90752619Y-67285714D01*
X90752619Y-68666666D02*
X90752619Y-68095238D01*
X90752619Y-68380952D02*
X89752619Y-68380952D01*
X89752619Y-68380952D02*
X89895476Y-68285714D01*
X89895476Y-68285714D02*
X89990714Y-68190476D01*
X89990714Y-68190476D02*
X90038333Y-68095238D01*
X83000702Y-72691666D02*
X82691178Y-72474999D01*
X83000702Y-72320237D02*
X82350702Y-72320237D01*
X82350702Y-72320237D02*
X82350702Y-72567856D01*
X82350702Y-72567856D02*
X82381654Y-72629761D01*
X82381654Y-72629761D02*
X82412607Y-72660714D01*
X82412607Y-72660714D02*
X82474511Y-72691666D01*
X82474511Y-72691666D02*
X82567369Y-72691666D01*
X82567369Y-72691666D02*
X82629273Y-72660714D01*
X82629273Y-72660714D02*
X82660226Y-72629761D01*
X82660226Y-72629761D02*
X82691178Y-72567856D01*
X82691178Y-72567856D02*
X82691178Y-72320237D01*
X82412607Y-72939285D02*
X82381654Y-72970237D01*
X82381654Y-72970237D02*
X82350702Y-73032142D01*
X82350702Y-73032142D02*
X82350702Y-73186904D01*
X82350702Y-73186904D02*
X82381654Y-73248809D01*
X82381654Y-73248809D02*
X82412607Y-73279761D01*
X82412607Y-73279761D02*
X82474511Y-73310714D01*
X82474511Y-73310714D02*
X82536416Y-73310714D01*
X82536416Y-73310714D02*
X82629273Y-73279761D01*
X82629273Y-73279761D02*
X83000702Y-72908333D01*
X83000702Y-72908333D02*
X83000702Y-73310714D01*
X101600702Y-52991666D02*
X101291178Y-52774999D01*
X101600702Y-52620237D02*
X100950702Y-52620237D01*
X100950702Y-52620237D02*
X100950702Y-52867856D01*
X100950702Y-52867856D02*
X100981654Y-52929761D01*
X100981654Y-52929761D02*
X101012607Y-52960714D01*
X101012607Y-52960714D02*
X101074511Y-52991666D01*
X101074511Y-52991666D02*
X101167369Y-52991666D01*
X101167369Y-52991666D02*
X101229273Y-52960714D01*
X101229273Y-52960714D02*
X101260226Y-52929761D01*
X101260226Y-52929761D02*
X101291178Y-52867856D01*
X101291178Y-52867856D02*
X101291178Y-52620237D01*
X101600702Y-53610714D02*
X101600702Y-53239285D01*
X101600702Y-53424999D02*
X100950702Y-53424999D01*
X100950702Y-53424999D02*
X101043559Y-53363095D01*
X101043559Y-53363095D02*
X101105464Y-53301190D01*
X101105464Y-53301190D02*
X101136416Y-53239285D01*
X87161904Y-68912619D02*
X87161904Y-69722142D01*
X87161904Y-69722142D02*
X87114285Y-69817380D01*
X87114285Y-69817380D02*
X87066666Y-69865000D01*
X87066666Y-69865000D02*
X86971428Y-69912619D01*
X86971428Y-69912619D02*
X86780952Y-69912619D01*
X86780952Y-69912619D02*
X86685714Y-69865000D01*
X86685714Y-69865000D02*
X86638095Y-69817380D01*
X86638095Y-69817380D02*
X86590476Y-69722142D01*
X86590476Y-69722142D02*
X86590476Y-68912619D01*
X86161904Y-69007857D02*
X86114285Y-68960238D01*
X86114285Y-68960238D02*
X86019047Y-68912619D01*
X86019047Y-68912619D02*
X85780952Y-68912619D01*
X85780952Y-68912619D02*
X85685714Y-68960238D01*
X85685714Y-68960238D02*
X85638095Y-69007857D01*
X85638095Y-69007857D02*
X85590476Y-69103095D01*
X85590476Y-69103095D02*
X85590476Y-69198333D01*
X85590476Y-69198333D02*
X85638095Y-69341190D01*
X85638095Y-69341190D02*
X86209523Y-69912619D01*
X86209523Y-69912619D02*
X85590476Y-69912619D01*
X96487380Y-57333333D02*
X96535000Y-57285714D01*
X96535000Y-57285714D02*
X96582619Y-57142857D01*
X96582619Y-57142857D02*
X96582619Y-57047619D01*
X96582619Y-57047619D02*
X96535000Y-56904762D01*
X96535000Y-56904762D02*
X96439761Y-56809524D01*
X96439761Y-56809524D02*
X96344523Y-56761905D01*
X96344523Y-56761905D02*
X96154047Y-56714286D01*
X96154047Y-56714286D02*
X96011190Y-56714286D01*
X96011190Y-56714286D02*
X95820714Y-56761905D01*
X95820714Y-56761905D02*
X95725476Y-56809524D01*
X95725476Y-56809524D02*
X95630238Y-56904762D01*
X95630238Y-56904762D02*
X95582619Y-57047619D01*
X95582619Y-57047619D02*
X95582619Y-57142857D01*
X95582619Y-57142857D02*
X95630238Y-57285714D01*
X95630238Y-57285714D02*
X95677857Y-57333333D01*
X95677857Y-57714286D02*
X95630238Y-57761905D01*
X95630238Y-57761905D02*
X95582619Y-57857143D01*
X95582619Y-57857143D02*
X95582619Y-58095238D01*
X95582619Y-58095238D02*
X95630238Y-58190476D01*
X95630238Y-58190476D02*
X95677857Y-58238095D01*
X95677857Y-58238095D02*
X95773095Y-58285714D01*
X95773095Y-58285714D02*
X95868333Y-58285714D01*
X95868333Y-58285714D02*
X96011190Y-58238095D01*
X96011190Y-58238095D02*
X96582619Y-57666667D01*
X96582619Y-57666667D02*
X96582619Y-58285714D01*
X83366666Y-67867380D02*
X83414285Y-67915000D01*
X83414285Y-67915000D02*
X83557142Y-67962619D01*
X83557142Y-67962619D02*
X83652380Y-67962619D01*
X83652380Y-67962619D02*
X83795237Y-67915000D01*
X83795237Y-67915000D02*
X83890475Y-67819761D01*
X83890475Y-67819761D02*
X83938094Y-67724523D01*
X83938094Y-67724523D02*
X83985713Y-67534047D01*
X83985713Y-67534047D02*
X83985713Y-67391190D01*
X83985713Y-67391190D02*
X83938094Y-67200714D01*
X83938094Y-67200714D02*
X83890475Y-67105476D01*
X83890475Y-67105476D02*
X83795237Y-67010238D01*
X83795237Y-67010238D02*
X83652380Y-66962619D01*
X83652380Y-66962619D02*
X83557142Y-66962619D01*
X83557142Y-66962619D02*
X83414285Y-67010238D01*
X83414285Y-67010238D02*
X83366666Y-67057857D01*
X82509523Y-67295952D02*
X82509523Y-67962619D01*
X82747618Y-66915000D02*
X82985713Y-67629285D01*
X82985713Y-67629285D02*
X82366666Y-67629285D01*
X92267380Y-72733333D02*
X92315000Y-72685714D01*
X92315000Y-72685714D02*
X92362619Y-72542857D01*
X92362619Y-72542857D02*
X92362619Y-72447619D01*
X92362619Y-72447619D02*
X92315000Y-72304762D01*
X92315000Y-72304762D02*
X92219761Y-72209524D01*
X92219761Y-72209524D02*
X92124523Y-72161905D01*
X92124523Y-72161905D02*
X91934047Y-72114286D01*
X91934047Y-72114286D02*
X91791190Y-72114286D01*
X91791190Y-72114286D02*
X91600714Y-72161905D01*
X91600714Y-72161905D02*
X91505476Y-72209524D01*
X91505476Y-72209524D02*
X91410238Y-72304762D01*
X91410238Y-72304762D02*
X91362619Y-72447619D01*
X91362619Y-72447619D02*
X91362619Y-72542857D01*
X91362619Y-72542857D02*
X91410238Y-72685714D01*
X91410238Y-72685714D02*
X91457857Y-72733333D01*
X91362619Y-73066667D02*
X91362619Y-73685714D01*
X91362619Y-73685714D02*
X91743571Y-73352381D01*
X91743571Y-73352381D02*
X91743571Y-73495238D01*
X91743571Y-73495238D02*
X91791190Y-73590476D01*
X91791190Y-73590476D02*
X91838809Y-73638095D01*
X91838809Y-73638095D02*
X91934047Y-73685714D01*
X91934047Y-73685714D02*
X92172142Y-73685714D01*
X92172142Y-73685714D02*
X92267380Y-73638095D01*
X92267380Y-73638095D02*
X92315000Y-73590476D01*
X92315000Y-73590476D02*
X92362619Y-73495238D01*
X92362619Y-73495238D02*
X92362619Y-73209524D01*
X92362619Y-73209524D02*
X92315000Y-73114286D01*
X92315000Y-73114286D02*
X92267380Y-73066667D01*
D12*
X94900000Y-50240000D02*
X92950000Y-50240000D01*
X94900000Y-50240000D02*
X96850000Y-50240000D01*
X94900000Y-55360000D02*
X91450000Y-55360000D01*
X94900000Y-55360000D02*
X96850000Y-55360000D01*
D13*
X86650000Y-67913500D02*
X89850000Y-67913500D01*
X89850000Y-65286500D02*
X86650000Y-65286500D01*
D12*
X91188748Y-58690000D02*
X92611252Y-58690000D01*
X91188748Y-60510000D02*
X92611252Y-60510000D01*
X99470000Y-65400000D02*
X99470000Y-70600000D01*
X98900000Y-65400000D02*
X99470000Y-65400000D01*
X96360000Y-65400000D02*
X97380000Y-65400000D01*
X93820000Y-65400000D02*
X94840000Y-65400000D01*
X91730000Y-65400000D02*
X92300000Y-65400000D01*
X91730000Y-65400000D02*
X91730000Y-70600000D01*
X98900000Y-70600000D02*
X99470000Y-70600000D01*
X96360000Y-70600000D02*
X97380000Y-70600000D01*
X93820000Y-70600000D02*
X94840000Y-70600000D01*
X92300000Y-70600000D02*
X92300000Y-71960000D01*
X91730000Y-70600000D02*
X92300000Y-70600000D01*
D11*
X83300000Y-71150000D02*
X83300000Y-72850000D01*
X84700000Y-72850000D02*
X84700000Y-71150000D01*
X100500000Y-53450000D02*
X100500000Y-51750000D01*
X99100000Y-51750000D02*
X99100000Y-53450000D01*
X87400000Y-73625000D02*
X85400000Y-73625000D01*
X86400000Y-70375000D02*
X85400000Y-70375000D01*
D12*
X98535000Y-57238748D02*
X98535000Y-57761252D01*
X97065000Y-57238748D02*
X97065000Y-57761252D01*
X83261252Y-70035000D02*
X82738748Y-70035000D01*
X83261252Y-68565000D02*
X82738748Y-68565000D01*
X89090000Y-72211252D02*
X89090000Y-70788748D01*
X90910000Y-72211252D02*
X90910000Y-70788748D01*
%LPC*%
D14*
X87700000Y-67700000D02*
X86500000Y-67700000D01*
X86500000Y-67200000D01*
X85400000Y-67200000D01*
X85400000Y-66000000D01*
X86500000Y-66000000D01*
X86500000Y-65500000D01*
X87700000Y-65500000D01*
X87700000Y-67700000D01*
G36*
X87700000Y-67700000D02*
G01*
X86500000Y-67700000D01*
X86500000Y-67200000D01*
X85400000Y-67200000D01*
X85400000Y-66000000D01*
X86500000Y-66000000D01*
X86500000Y-65500000D01*
X87700000Y-65500000D01*
X87700000Y-67700000D01*
G37*
X90000000Y-66000000D02*
X91100000Y-66000000D01*
X91100000Y-67200000D01*
X90000000Y-67200000D01*
X90000000Y-67700000D01*
X88800000Y-67700000D01*
X88800000Y-65500000D01*
X90000000Y-65500000D01*
X90000000Y-66000000D01*
G36*
X90000000Y-66000000D02*
G01*
X91100000Y-66000000D01*
X91100000Y-67200000D01*
X90000000Y-67200000D01*
X90000000Y-67700000D01*
X88800000Y-67700000D01*
X88800000Y-65500000D01*
X90000000Y-65500000D01*
X90000000Y-66000000D01*
G37*
G36*
G01*
X91450000Y-54855000D02*
X91450000Y-54555000D01*
G75*
G02*
X91600000Y-54405000I150000J0D01*
G01*
X93250000Y-54405000D01*
G75*
G02*
X93400000Y-54555000I0J-150000D01*
G01*
X93400000Y-54855000D01*
G75*
G02*
X93250000Y-55005000I-150000J0D01*
G01*
X91600000Y-55005000D01*
G75*
G02*
X91450000Y-54855000I0J150000D01*
G01*
G37*
G36*
G01*
X91450000Y-53585000D02*
X91450000Y-53285000D01*
G75*
G02*
X91600000Y-53135000I150000J0D01*
G01*
X93250000Y-53135000D01*
G75*
G02*
X93400000Y-53285000I0J-150000D01*
G01*
X93400000Y-53585000D01*
G75*
G02*
X93250000Y-53735000I-150000J0D01*
G01*
X91600000Y-53735000D01*
G75*
G02*
X91450000Y-53585000I0J150000D01*
G01*
G37*
G36*
G01*
X91450000Y-52315000D02*
X91450000Y-52015000D01*
G75*
G02*
X91600000Y-51865000I150000J0D01*
G01*
X93250000Y-51865000D01*
G75*
G02*
X93400000Y-52015000I0J-150000D01*
G01*
X93400000Y-52315000D01*
G75*
G02*
X93250000Y-52465000I-150000J0D01*
G01*
X91600000Y-52465000D01*
G75*
G02*
X91450000Y-52315000I0J150000D01*
G01*
G37*
G36*
G01*
X91450000Y-51045000D02*
X91450000Y-50745000D01*
G75*
G02*
X91600000Y-50595000I150000J0D01*
G01*
X93250000Y-50595000D01*
G75*
G02*
X93400000Y-50745000I0J-150000D01*
G01*
X93400000Y-51045000D01*
G75*
G02*
X93250000Y-51195000I-150000J0D01*
G01*
X91600000Y-51195000D01*
G75*
G02*
X91450000Y-51045000I0J150000D01*
G01*
G37*
G36*
G01*
X96400000Y-51045000D02*
X96400000Y-50745000D01*
G75*
G02*
X96550000Y-50595000I150000J0D01*
G01*
X98200000Y-50595000D01*
G75*
G02*
X98350000Y-50745000I0J-150000D01*
G01*
X98350000Y-51045000D01*
G75*
G02*
X98200000Y-51195000I-150000J0D01*
G01*
X96550000Y-51195000D01*
G75*
G02*
X96400000Y-51045000I0J150000D01*
G01*
G37*
G36*
G01*
X96400000Y-52315000D02*
X96400000Y-52015000D01*
G75*
G02*
X96550000Y-51865000I150000J0D01*
G01*
X98200000Y-51865000D01*
G75*
G02*
X98350000Y-52015000I0J-150000D01*
G01*
X98350000Y-52315000D01*
G75*
G02*
X98200000Y-52465000I-150000J0D01*
G01*
X96550000Y-52465000D01*
G75*
G02*
X96400000Y-52315000I0J150000D01*
G01*
G37*
G36*
G01*
X96400000Y-53585000D02*
X96400000Y-53285000D01*
G75*
G02*
X96550000Y-53135000I150000J0D01*
G01*
X98200000Y-53135000D01*
G75*
G02*
X98350000Y-53285000I0J-150000D01*
G01*
X98350000Y-53585000D01*
G75*
G02*
X98200000Y-53735000I-150000J0D01*
G01*
X96550000Y-53735000D01*
G75*
G02*
X96400000Y-53585000I0J150000D01*
G01*
G37*
G36*
G01*
X96400000Y-54855000D02*
X96400000Y-54555000D01*
G75*
G02*
X96550000Y-54405000I150000J0D01*
G01*
X98200000Y-54405000D01*
G75*
G02*
X98350000Y-54555000I0J-150000D01*
G01*
X98350000Y-54855000D01*
G75*
G02*
X98200000Y-55005000I-150000J0D01*
G01*
X96550000Y-55005000D01*
G75*
G02*
X96400000Y-54855000I0J150000D01*
G01*
G37*
G36*
G01*
X89675000Y-60250000D02*
X89675000Y-58950000D01*
G75*
G02*
X89925000Y-58700000I250000J0D01*
G01*
X90750000Y-58700000D01*
G75*
G02*
X91000000Y-58950000I0J-250000D01*
G01*
X91000000Y-60250000D01*
G75*
G02*
X90750000Y-60500000I-250000J0D01*
G01*
X89925000Y-60500000D01*
G75*
G02*
X89675000Y-60250000I0J250000D01*
G01*
G37*
G36*
G01*
X92800000Y-60250000D02*
X92800000Y-58950000D01*
G75*
G02*
X93050000Y-58700000I250000J0D01*
G01*
X93875000Y-58700000D01*
G75*
G02*
X94125000Y-58950000I0J-250000D01*
G01*
X94125000Y-60250000D01*
G75*
G02*
X93875000Y-60500000I-250000J0D01*
G01*
X93050000Y-60500000D01*
G75*
G02*
X92800000Y-60250000I0J250000D01*
G01*
G37*
D15*
X93060000Y-70520000D03*
X93060000Y-65480000D03*
X95600000Y-70520000D03*
X95600000Y-65480000D03*
X98140000Y-70520000D03*
X98140000Y-65480000D03*
D16*
X84000000Y-71150000D03*
X84000000Y-72850000D03*
X99800000Y-53450000D03*
X99800000Y-51750000D03*
D17*
X87325000Y-71250000D03*
X87325000Y-71750000D03*
X87325000Y-72250000D03*
X87325000Y-72750000D03*
X85475000Y-72750000D03*
X85475000Y-72250000D03*
X85475000Y-71750000D03*
X85475000Y-71250000D03*
D18*
X86400000Y-72000000D03*
G36*
G01*
X97325000Y-55875000D02*
X98275000Y-55875000D01*
G75*
G02*
X98525000Y-56125000I0J-250000D01*
G01*
X98525000Y-56800000D01*
G75*
G02*
X98275000Y-57050000I-250000J0D01*
G01*
X97325000Y-57050000D01*
G75*
G02*
X97075000Y-56800000I0J250000D01*
G01*
X97075000Y-56125000D01*
G75*
G02*
X97325000Y-55875000I250000J0D01*
G01*
G37*
G36*
G01*
X97325000Y-57950000D02*
X98275000Y-57950000D01*
G75*
G02*
X98525000Y-58200000I0J-250000D01*
G01*
X98525000Y-58875000D01*
G75*
G02*
X98275000Y-59125000I-250000J0D01*
G01*
X97325000Y-59125000D01*
G75*
G02*
X97075000Y-58875000I0J250000D01*
G01*
X97075000Y-58200000D01*
G75*
G02*
X97325000Y-57950000I250000J0D01*
G01*
G37*
G36*
G01*
X84625000Y-68825000D02*
X84625000Y-69775000D01*
G75*
G02*
X84375000Y-70025000I-250000J0D01*
G01*
X83700000Y-70025000D01*
G75*
G02*
X83450000Y-69775000I0J250000D01*
G01*
X83450000Y-68825000D01*
G75*
G02*
X83700000Y-68575000I250000J0D01*
G01*
X84375000Y-68575000D01*
G75*
G02*
X84625000Y-68825000I0J-250000D01*
G01*
G37*
G36*
G01*
X82550000Y-68825000D02*
X82550000Y-69775000D01*
G75*
G02*
X82300000Y-70025000I-250000J0D01*
G01*
X81625000Y-70025000D01*
G75*
G02*
X81375000Y-69775000I0J250000D01*
G01*
X81375000Y-68825000D01*
G75*
G02*
X81625000Y-68575000I250000J0D01*
G01*
X82300000Y-68575000D01*
G75*
G02*
X82550000Y-68825000I0J-250000D01*
G01*
G37*
G36*
G01*
X90650000Y-73725000D02*
X89350000Y-73725000D01*
G75*
G02*
X89100000Y-73475000I0J250000D01*
G01*
X89100000Y-72650000D01*
G75*
G02*
X89350000Y-72400000I250000J0D01*
G01*
X90650000Y-72400000D01*
G75*
G02*
X90900000Y-72650000I0J-250000D01*
G01*
X90900000Y-73475000D01*
G75*
G02*
X90650000Y-73725000I-250000J0D01*
G01*
G37*
G36*
G01*
X90650000Y-70600000D02*
X89350000Y-70600000D01*
G75*
G02*
X89100000Y-70350000I0J250000D01*
G01*
X89100000Y-69525000D01*
G75*
G02*
X89350000Y-69275000I250000J0D01*
G01*
X90650000Y-69275000D01*
G75*
G02*
X90900000Y-69525000I0J-250000D01*
G01*
X90900000Y-70350000D01*
G75*
G02*
X90650000Y-70600000I-250000J0D01*
G01*
G37*
%LPD*%
M02*
