G04 #@! TF.GenerationSoftware,KiCad,Pcbnew,7.0.5.1-1-g8f565ef7f0-dirty-deb11*
G04 #@! TF.CreationDate,2023-06-02T13:43:08+00:00*
G04 #@! TF.ProjectId,pedalboard-led-ring,70656461-6c62-46f6-9172-642d6c65642d,1.0.0*
G04 #@! TF.SameCoordinates,Original*
G04 #@! TF.FileFunction,Copper,L2,Bot*
G04 #@! TF.FilePolarity,Positive*
%FSLAX46Y46*%
G04 Gerber Fmt 4.6, Leading zero omitted, Abs format (unit mm)*
G04 Created by KiCad (PCBNEW 7.0.5.1-1-g8f565ef7f0-dirty-deb11) date 2023-06-02 13:43:08*
%MOMM*%
%LPD*%
G01*
G04 APERTURE LIST*
G04 #@! TA.AperFunction,SMDPad,CuDef*
%ADD10R,1.000000X2.750000*%
G04 #@! TD*
G04 #@! TA.AperFunction,SMDPad,CuDef*
%ADD11R,2.750000X1.000000*%
G04 #@! TD*
G04 #@! TA.AperFunction,ViaPad*
%ADD12C,0.800000*%
G04 #@! TD*
G04 #@! TA.AperFunction,Conductor*
%ADD13C,0.250000*%
G04 #@! TD*
G04 APERTURE END LIST*
D10*
X91000000Y-56875000D03*
X91000000Y-63125000D03*
X89000000Y-56875000D03*
X89000000Y-63125000D03*
D11*
X93125000Y-71000000D03*
X86875000Y-71000000D03*
X93125000Y-69000000D03*
X86875000Y-69000000D03*
D12*
X86400000Y-63500000D03*
X89726279Y-65153590D03*
X69000000Y-60400000D03*
X80400000Y-71000000D03*
X85153590Y-50273721D03*
X74153590Y-50673721D03*
X79600000Y-49000000D03*
X70273721Y-54846410D03*
X89326279Y-54153590D03*
X86400000Y-67800000D03*
X74846410Y-69726279D03*
X91000000Y-59600000D03*
X70673721Y-65846410D03*
X92000000Y-62100000D03*
X85900000Y-72000000D03*
X92000000Y-63100000D03*
X92000000Y-64100000D03*
X87900000Y-72000000D03*
X86900000Y-72000000D03*
X87910000Y-61820000D03*
D13*
X86400000Y-63500000D02*
X86775000Y-63125000D01*
X86400000Y-63500000D02*
X86400000Y-65500000D01*
X86775000Y-63125000D02*
X89000000Y-63125000D01*
X86400000Y-65500000D02*
X84800000Y-67100000D01*
X84800000Y-67100000D02*
X84800000Y-68400000D01*
X84800000Y-68400000D02*
X85400000Y-69000000D01*
X85400000Y-69000000D02*
X86875000Y-69000000D01*
X91000000Y-63125000D02*
X91025000Y-63125000D01*
X86875000Y-71000000D02*
X86875000Y-71025000D01*
X86875000Y-71000000D02*
X86875000Y-71975000D01*
X91000000Y-63125000D02*
X91975000Y-63125000D01*
X91000000Y-63100000D02*
X92000000Y-62100000D01*
X86875000Y-71000000D02*
X86900000Y-71000000D01*
X86875000Y-71975000D02*
X86900000Y-72000000D01*
X86900000Y-71000000D02*
X87900000Y-72000000D01*
X86875000Y-71025000D02*
X85900000Y-72000000D01*
X91000000Y-63125000D02*
X91000000Y-63100000D01*
X91025000Y-63125000D02*
X92000000Y-64100000D01*
X91975000Y-63125000D02*
X92000000Y-63100000D01*
X88000000Y-57000000D02*
X88000000Y-61730000D01*
X92800000Y-61300000D02*
X92800000Y-68675000D01*
X88430000Y-61300000D02*
X92800000Y-61300000D01*
X92800000Y-68675000D02*
X93125000Y-69000000D01*
X88000000Y-61730000D02*
X87910000Y-61820000D01*
X89000000Y-56875000D02*
X88125000Y-56875000D01*
X88125000Y-56875000D02*
X88000000Y-57000000D01*
X87910000Y-61820000D02*
X88430000Y-61300000D01*
G04 #@! TA.AperFunction,Conductor*
G36*
X94002697Y-45000736D02*
G01*
X94045491Y-45004480D01*
X94171776Y-45016918D01*
X94191685Y-45020541D01*
X94257426Y-45038156D01*
X94259208Y-45038664D01*
X94351570Y-45066682D01*
X94367959Y-45072952D01*
X94435396Y-45104399D01*
X94438375Y-45105888D01*
X94475969Y-45125982D01*
X94522327Y-45150762D01*
X94528667Y-45154657D01*
X94594828Y-45200983D01*
X94598600Y-45203844D01*
X94670808Y-45263103D01*
X94675309Y-45267182D01*
X94732815Y-45324688D01*
X94736895Y-45329190D01*
X94796154Y-45401398D01*
X94799015Y-45405170D01*
X94845341Y-45471331D01*
X94849236Y-45477671D01*
X94894101Y-45561605D01*
X94895613Y-45564630D01*
X94927041Y-45632027D01*
X94933319Y-45648436D01*
X94961303Y-45740684D01*
X94961860Y-45742636D01*
X94979454Y-45808298D01*
X94983082Y-45828238D01*
X94995522Y-45954552D01*
X94999264Y-45997300D01*
X94999500Y-46002709D01*
X94999500Y-70001622D01*
X94979815Y-70068661D01*
X94927011Y-70114416D01*
X94857853Y-70124360D01*
X94801189Y-70100889D01*
X94742089Y-70056647D01*
X94742086Y-70056645D01*
X94607379Y-70006403D01*
X94607372Y-70006401D01*
X94547844Y-70000000D01*
X93375000Y-70000000D01*
X93375000Y-72000000D01*
X94547828Y-72000000D01*
X94547844Y-71999999D01*
X94607372Y-71993598D01*
X94607379Y-71993596D01*
X94742086Y-71943354D01*
X94742089Y-71943352D01*
X94801188Y-71899111D01*
X94866652Y-71874693D01*
X94934926Y-71889544D01*
X94984331Y-71938949D01*
X94999500Y-71998377D01*
X94999500Y-73997290D01*
X94999264Y-74002699D01*
X94995522Y-74045446D01*
X94983082Y-74171760D01*
X94979454Y-74191700D01*
X94961860Y-74257362D01*
X94961303Y-74259314D01*
X94933319Y-74351562D01*
X94927041Y-74367971D01*
X94895613Y-74435368D01*
X94894101Y-74438393D01*
X94849236Y-74522327D01*
X94845341Y-74528667D01*
X94799015Y-74594828D01*
X94796154Y-74598600D01*
X94736895Y-74670808D01*
X94732806Y-74675320D01*
X94675320Y-74732806D01*
X94670808Y-74736895D01*
X94598600Y-74796154D01*
X94594828Y-74799015D01*
X94528667Y-74845341D01*
X94522327Y-74849236D01*
X94438393Y-74894101D01*
X94435368Y-74895613D01*
X94367971Y-74927041D01*
X94351562Y-74933319D01*
X94259314Y-74961303D01*
X94257362Y-74961860D01*
X94191700Y-74979454D01*
X94171760Y-74983082D01*
X94045446Y-74995522D01*
X94007251Y-74998865D01*
X94002694Y-74999264D01*
X93997291Y-74999500D01*
X66002709Y-74999500D01*
X65997305Y-74999264D01*
X65992337Y-74998829D01*
X65954552Y-74995522D01*
X65828238Y-74983082D01*
X65808298Y-74979454D01*
X65742636Y-74961860D01*
X65740711Y-74961310D01*
X65703113Y-74949905D01*
X65648436Y-74933319D01*
X65632027Y-74927041D01*
X65564630Y-74895613D01*
X65561605Y-74894101D01*
X65477671Y-74849236D01*
X65471331Y-74845341D01*
X65405170Y-74799015D01*
X65401398Y-74796154D01*
X65329190Y-74736895D01*
X65324688Y-74732815D01*
X65267182Y-74675309D01*
X65263103Y-74670808D01*
X65203844Y-74598600D01*
X65200983Y-74594828D01*
X65154657Y-74528667D01*
X65150762Y-74522327D01*
X65125982Y-74475969D01*
X65105888Y-74438375D01*
X65104399Y-74435396D01*
X65072952Y-74367959D01*
X65066682Y-74351570D01*
X65038664Y-74259208D01*
X65038156Y-74257426D01*
X65020541Y-74191685D01*
X65016918Y-74171776D01*
X65004476Y-74045446D01*
X65000736Y-74002696D01*
X65000500Y-73997291D01*
X65000500Y-72000000D01*
X85244722Y-72000000D01*
X85263762Y-72156818D01*
X85319780Y-72304523D01*
X85409517Y-72434530D01*
X85527760Y-72539283D01*
X85527762Y-72539284D01*
X85667634Y-72612696D01*
X85821014Y-72650500D01*
X85821015Y-72650500D01*
X85978985Y-72650500D01*
X86132365Y-72612696D01*
X86272237Y-72539285D01*
X86272238Y-72539283D01*
X86272240Y-72539283D01*
X86317774Y-72498943D01*
X86381006Y-72469223D01*
X86450270Y-72478407D01*
X86482224Y-72498942D01*
X86516890Y-72529653D01*
X86527762Y-72539285D01*
X86667634Y-72612696D01*
X86821014Y-72650500D01*
X86821015Y-72650500D01*
X86978985Y-72650500D01*
X87132365Y-72612696D01*
X87272237Y-72539285D01*
X87272238Y-72539283D01*
X87272240Y-72539283D01*
X87317774Y-72498943D01*
X87381006Y-72469223D01*
X87450270Y-72478407D01*
X87482224Y-72498942D01*
X87516890Y-72529653D01*
X87527762Y-72539285D01*
X87667634Y-72612696D01*
X87821014Y-72650500D01*
X87821015Y-72650500D01*
X87978985Y-72650500D01*
X88132365Y-72612696D01*
X88132364Y-72612695D01*
X88272240Y-72539283D01*
X88390483Y-72434530D01*
X88480220Y-72304523D01*
X88536237Y-72156818D01*
X88555278Y-72000000D01*
X88554500Y-71993596D01*
X88536237Y-71843182D01*
X88536237Y-71843181D01*
X88481055Y-71697680D01*
X88475689Y-71628020D01*
X88482438Y-71606256D01*
X88485963Y-71597744D01*
X88485966Y-71597740D01*
X88500500Y-71524674D01*
X88500500Y-71250000D01*
X91250000Y-71250000D01*
X91250000Y-71547844D01*
X91256401Y-71607372D01*
X91256403Y-71607379D01*
X91306645Y-71742086D01*
X91306649Y-71742093D01*
X91392809Y-71857187D01*
X91392812Y-71857190D01*
X91507906Y-71943350D01*
X91507913Y-71943354D01*
X91642620Y-71993596D01*
X91642627Y-71993598D01*
X91702155Y-71999999D01*
X91702172Y-72000000D01*
X92875000Y-72000000D01*
X92875000Y-71250000D01*
X91250000Y-71250000D01*
X88500500Y-71250000D01*
X88500500Y-70750000D01*
X91250000Y-70750000D01*
X92875000Y-70750000D01*
X92875000Y-70000000D01*
X91702155Y-70000000D01*
X91642627Y-70006401D01*
X91642620Y-70006403D01*
X91507913Y-70056645D01*
X91507906Y-70056649D01*
X91392812Y-70142809D01*
X91392809Y-70142812D01*
X91306649Y-70257906D01*
X91306645Y-70257913D01*
X91256403Y-70392620D01*
X91256401Y-70392627D01*
X91250000Y-70452155D01*
X91250000Y-70750000D01*
X88500500Y-70750000D01*
X88500500Y-70475326D01*
X88500500Y-70475323D01*
X88500499Y-70475321D01*
X88485967Y-70402264D01*
X88485966Y-70402260D01*
X88485965Y-70402259D01*
X88430601Y-70319399D01*
X88347740Y-70264034D01*
X88347739Y-70264033D01*
X88347735Y-70264032D01*
X88274677Y-70249500D01*
X88274674Y-70249500D01*
X85475326Y-70249500D01*
X85475323Y-70249500D01*
X85402264Y-70264032D01*
X85402260Y-70264033D01*
X85319399Y-70319399D01*
X85264033Y-70402260D01*
X85264032Y-70402264D01*
X85249500Y-70475321D01*
X85249500Y-71524678D01*
X85264032Y-71597735D01*
X85264033Y-71597739D01*
X85287746Y-71633228D01*
X85308623Y-71699906D01*
X85300585Y-71746089D01*
X85263763Y-71843181D01*
X85244722Y-71999999D01*
X85244722Y-72000000D01*
X65000500Y-72000000D01*
X65000500Y-68384271D01*
X84419633Y-68384271D01*
X84424023Y-68419491D01*
X84424500Y-68427167D01*
X84424500Y-68431116D01*
X84428129Y-68452865D01*
X84428498Y-68455399D01*
X84435134Y-68508626D01*
X84437373Y-68516147D01*
X84439935Y-68523611D01*
X84452677Y-68547157D01*
X84465447Y-68570754D01*
X84466609Y-68573011D01*
X84490172Y-68621208D01*
X84494742Y-68627609D01*
X84499581Y-68633826D01*
X84539053Y-68670163D01*
X84540874Y-68671911D01*
X85097849Y-69228886D01*
X85113977Y-69248745D01*
X85119916Y-69257836D01*
X85147932Y-69279641D01*
X85153693Y-69284730D01*
X85156482Y-69287519D01*
X85174432Y-69300335D01*
X85176488Y-69301867D01*
X85201663Y-69321462D01*
X85242476Y-69378173D01*
X85249500Y-69419315D01*
X85249500Y-69524678D01*
X85264032Y-69597735D01*
X85264033Y-69597739D01*
X85264034Y-69597740D01*
X85319399Y-69680601D01*
X85402260Y-69735966D01*
X85402264Y-69735967D01*
X85475321Y-69750499D01*
X85475324Y-69750500D01*
X85475326Y-69750500D01*
X88274676Y-69750500D01*
X88274677Y-69750499D01*
X88347740Y-69735966D01*
X88430601Y-69680601D01*
X88485966Y-69597740D01*
X88500500Y-69524674D01*
X88500500Y-68475326D01*
X88500500Y-68475325D01*
X88500500Y-68475323D01*
X88500499Y-68475321D01*
X88485967Y-68402264D01*
X88485966Y-68402260D01*
X88466843Y-68373640D01*
X88430601Y-68319399D01*
X88347740Y-68264034D01*
X88347739Y-68264033D01*
X88347735Y-68264032D01*
X88274677Y-68249500D01*
X88274674Y-68249500D01*
X85475326Y-68249500D01*
X85475323Y-68249500D01*
X85402264Y-68264032D01*
X85402258Y-68264034D01*
X85368388Y-68286665D01*
X85301710Y-68307541D01*
X85234331Y-68289055D01*
X85187642Y-68237075D01*
X85175500Y-68183561D01*
X85175500Y-67306898D01*
X85195185Y-67239859D01*
X85211814Y-67219222D01*
X86628889Y-65802146D01*
X86648746Y-65786022D01*
X86657836Y-65780084D01*
X86679651Y-65752054D01*
X86684719Y-65746316D01*
X86687520Y-65743517D01*
X86700368Y-65725521D01*
X86701853Y-65723529D01*
X86734809Y-65681189D01*
X86734810Y-65681183D01*
X86738542Y-65674289D01*
X86742006Y-65667203D01*
X86742010Y-65667199D01*
X86757319Y-65615772D01*
X86758073Y-65613419D01*
X86775500Y-65562660D01*
X86775500Y-65562656D01*
X86776790Y-65554924D01*
X86777768Y-65547085D01*
X86775553Y-65493527D01*
X86775500Y-65490964D01*
X86775500Y-64092202D01*
X86795185Y-64025163D01*
X86817274Y-63999386D01*
X86890482Y-63934531D01*
X86890483Y-63934530D01*
X86980220Y-63804523D01*
X87036237Y-63656818D01*
X87041975Y-63609553D01*
X87069598Y-63545375D01*
X87127532Y-63506319D01*
X87165072Y-63500500D01*
X88125500Y-63500500D01*
X88192539Y-63520185D01*
X88238294Y-63572989D01*
X88249500Y-63624500D01*
X88249500Y-64524678D01*
X88264032Y-64597735D01*
X88264033Y-64597739D01*
X88264034Y-64597740D01*
X88319399Y-64680601D01*
X88392303Y-64729313D01*
X88402260Y-64735966D01*
X88402264Y-64735967D01*
X88475321Y-64750499D01*
X88475324Y-64750500D01*
X88475326Y-64750500D01*
X89524676Y-64750500D01*
X89524677Y-64750499D01*
X89597740Y-64735966D01*
X89680601Y-64680601D01*
X89735966Y-64597740D01*
X89750500Y-64524674D01*
X89750500Y-61799500D01*
X89770185Y-61732461D01*
X89822989Y-61686706D01*
X89874500Y-61675500D01*
X90125500Y-61675500D01*
X90192539Y-61695185D01*
X90238294Y-61747989D01*
X90249500Y-61799500D01*
X90249500Y-64524678D01*
X90264032Y-64597735D01*
X90264033Y-64597739D01*
X90264034Y-64597740D01*
X90319399Y-64680601D01*
X90392303Y-64729313D01*
X90402260Y-64735966D01*
X90402264Y-64735967D01*
X90475321Y-64750499D01*
X90475324Y-64750500D01*
X90475326Y-64750500D01*
X91524676Y-64750500D01*
X91524677Y-64750499D01*
X91597740Y-64735966D01*
X91630719Y-64713930D01*
X91697394Y-64693053D01*
X91757234Y-64707237D01*
X91767635Y-64712696D01*
X91862043Y-64735965D01*
X91921014Y-64750500D01*
X91921015Y-64750500D01*
X92078985Y-64750500D01*
X92232365Y-64712696D01*
X92242872Y-64707181D01*
X92311377Y-64693454D01*
X92376431Y-64718943D01*
X92417378Y-64775557D01*
X92424500Y-64816976D01*
X92424500Y-68125500D01*
X92404815Y-68192539D01*
X92352011Y-68238294D01*
X92300500Y-68249500D01*
X91725323Y-68249500D01*
X91652264Y-68264032D01*
X91652260Y-68264033D01*
X91569399Y-68319399D01*
X91514033Y-68402260D01*
X91514032Y-68402264D01*
X91499500Y-68475321D01*
X91499500Y-69524678D01*
X91514032Y-69597735D01*
X91514033Y-69597739D01*
X91514034Y-69597740D01*
X91569399Y-69680601D01*
X91652259Y-69735966D01*
X91652260Y-69735966D01*
X91652264Y-69735967D01*
X91725321Y-69750499D01*
X91725324Y-69750500D01*
X91725326Y-69750500D01*
X94524676Y-69750500D01*
X94524677Y-69750499D01*
X94597740Y-69735966D01*
X94680601Y-69680601D01*
X94735966Y-69597740D01*
X94750500Y-69524674D01*
X94750500Y-68475326D01*
X94750500Y-68475325D01*
X94750500Y-68475323D01*
X94750499Y-68475321D01*
X94735967Y-68402264D01*
X94735966Y-68402260D01*
X94716843Y-68373640D01*
X94680601Y-68319399D01*
X94597740Y-68264034D01*
X94597739Y-68264033D01*
X94597735Y-68264032D01*
X94524677Y-68249500D01*
X94524674Y-68249500D01*
X93299500Y-68249500D01*
X93232461Y-68229815D01*
X93186706Y-68177011D01*
X93175500Y-68125500D01*
X93175500Y-61318090D01*
X93175712Y-61312968D01*
X93179392Y-61268563D01*
X93168449Y-61225352D01*
X93167401Y-61220357D01*
X93160065Y-61176390D01*
X93159874Y-61176038D01*
X93148726Y-61147463D01*
X93148628Y-61147079D01*
X93148628Y-61147078D01*
X93124252Y-61109768D01*
X93121627Y-61105364D01*
X93100419Y-61066174D01*
X93100129Y-61065907D01*
X93080297Y-61042491D01*
X93080084Y-61042164D01*
X93080082Y-61042162D01*
X93044913Y-61014789D01*
X93041006Y-61011480D01*
X93030215Y-61001546D01*
X93008217Y-60981294D01*
X93007848Y-60981133D01*
X92981505Y-60965437D01*
X92981189Y-60965191D01*
X92939038Y-60950720D01*
X92934263Y-60948857D01*
X92893458Y-60930958D01*
X92893446Y-60930955D01*
X92893044Y-60930922D01*
X92863042Y-60924631D01*
X92862660Y-60924500D01*
X92818091Y-60924500D01*
X92812976Y-60924288D01*
X92803881Y-60923534D01*
X92768565Y-60920607D01*
X92768373Y-60920655D01*
X92768174Y-60920706D01*
X92737737Y-60924500D01*
X88499500Y-60924500D01*
X88432461Y-60904815D01*
X88386706Y-60852011D01*
X88375500Y-60800500D01*
X88375500Y-58624500D01*
X88395185Y-58557461D01*
X88447989Y-58511706D01*
X88499500Y-58500500D01*
X89524676Y-58500500D01*
X89524677Y-58500499D01*
X89597740Y-58485966D01*
X89680601Y-58430601D01*
X89735966Y-58347740D01*
X89750500Y-58274674D01*
X89750500Y-57125000D01*
X90000000Y-57125000D01*
X90000000Y-58297844D01*
X90006401Y-58357372D01*
X90006403Y-58357379D01*
X90056645Y-58492086D01*
X90056649Y-58492093D01*
X90142809Y-58607187D01*
X90142812Y-58607190D01*
X90257906Y-58693350D01*
X90257913Y-58693354D01*
X90392620Y-58743596D01*
X90392627Y-58743598D01*
X90452155Y-58749999D01*
X90452172Y-58750000D01*
X90750000Y-58750000D01*
X90750000Y-57125000D01*
X91250000Y-57125000D01*
X91250000Y-58750000D01*
X91547828Y-58750000D01*
X91547844Y-58749999D01*
X91607372Y-58743598D01*
X91607379Y-58743596D01*
X91742086Y-58693354D01*
X91742093Y-58693350D01*
X91857187Y-58607190D01*
X91857190Y-58607187D01*
X91943350Y-58492093D01*
X91943354Y-58492086D01*
X91993596Y-58357379D01*
X91993598Y-58357372D01*
X91999999Y-58297844D01*
X92000000Y-58297827D01*
X92000000Y-57125000D01*
X91250000Y-57125000D01*
X90750000Y-57125000D01*
X90000000Y-57125000D01*
X89750500Y-57125000D01*
X89750500Y-56625000D01*
X90000000Y-56625000D01*
X90750000Y-56625000D01*
X90750000Y-55000000D01*
X91250000Y-55000000D01*
X91250000Y-56625000D01*
X92000000Y-56625000D01*
X92000000Y-55452172D01*
X91999999Y-55452155D01*
X91993598Y-55392627D01*
X91993596Y-55392620D01*
X91943354Y-55257913D01*
X91943350Y-55257906D01*
X91857190Y-55142812D01*
X91857187Y-55142809D01*
X91742093Y-55056649D01*
X91742086Y-55056645D01*
X91607379Y-55006403D01*
X91607372Y-55006401D01*
X91547844Y-55000000D01*
X91250000Y-55000000D01*
X90750000Y-55000000D01*
X90452155Y-55000000D01*
X90392627Y-55006401D01*
X90392620Y-55006403D01*
X90257913Y-55056645D01*
X90257906Y-55056649D01*
X90142812Y-55142809D01*
X90142809Y-55142812D01*
X90056649Y-55257906D01*
X90056645Y-55257913D01*
X90006403Y-55392620D01*
X90006401Y-55392627D01*
X90000000Y-55452155D01*
X90000000Y-56625000D01*
X89750500Y-56625000D01*
X89750500Y-55475326D01*
X89750500Y-55475323D01*
X89750499Y-55475321D01*
X89735967Y-55402264D01*
X89735966Y-55402260D01*
X89735965Y-55402259D01*
X89680601Y-55319399D01*
X89597740Y-55264034D01*
X89597739Y-55264033D01*
X89597735Y-55264032D01*
X89524677Y-55249500D01*
X89524674Y-55249500D01*
X88475326Y-55249500D01*
X88475323Y-55249500D01*
X88402264Y-55264032D01*
X88402260Y-55264033D01*
X88319399Y-55319399D01*
X88264033Y-55402260D01*
X88264032Y-55402264D01*
X88249500Y-55475321D01*
X88249500Y-56371571D01*
X88229815Y-56438610D01*
X88177011Y-56484365D01*
X88140840Y-56494618D01*
X88105509Y-56499023D01*
X88097831Y-56499500D01*
X88093886Y-56499500D01*
X88072126Y-56503130D01*
X88069603Y-56503498D01*
X88016371Y-56510134D01*
X88008857Y-56512371D01*
X88001387Y-56514935D01*
X87954246Y-56540447D01*
X87951970Y-56541618D01*
X87903792Y-56565171D01*
X87897382Y-56569748D01*
X87891175Y-56574580D01*
X87854865Y-56614020D01*
X87853093Y-56615868D01*
X87771108Y-56697852D01*
X87751254Y-56713976D01*
X87742165Y-56719914D01*
X87742164Y-56719915D01*
X87720363Y-56747923D01*
X87715286Y-56753674D01*
X87712484Y-56756477D01*
X87712474Y-56756489D01*
X87699658Y-56774439D01*
X87698127Y-56776492D01*
X87665192Y-56818808D01*
X87661447Y-56825729D01*
X87657988Y-56832804D01*
X87642692Y-56884182D01*
X87641911Y-56886621D01*
X87624500Y-56937338D01*
X87623206Y-56945092D01*
X87622231Y-56952911D01*
X87624447Y-57006472D01*
X87624500Y-57009034D01*
X87624500Y-61160231D01*
X87604815Y-61227270D01*
X87558129Y-61270026D01*
X87537760Y-61280716D01*
X87537760Y-61280717D01*
X87419516Y-61385471D01*
X87329781Y-61515475D01*
X87329780Y-61515476D01*
X87273762Y-61663181D01*
X87254722Y-61819999D01*
X87254722Y-61820000D01*
X87273762Y-61976818D01*
X87329779Y-62124523D01*
X87329780Y-62124523D01*
X87419517Y-62254530D01*
X87537760Y-62359283D01*
X87537762Y-62359284D01*
X87677634Y-62432696D01*
X87831014Y-62470500D01*
X87831015Y-62470500D01*
X87988985Y-62470500D01*
X88095827Y-62444166D01*
X88165627Y-62447235D01*
X88222689Y-62487555D01*
X88248895Y-62552324D01*
X88249500Y-62564563D01*
X88249500Y-62625500D01*
X88229815Y-62692539D01*
X88177011Y-62738294D01*
X88125500Y-62749500D01*
X86826804Y-62749500D01*
X86801359Y-62746861D01*
X86790733Y-62744633D01*
X86790730Y-62744633D01*
X86755508Y-62749023D01*
X86747832Y-62749500D01*
X86743886Y-62749500D01*
X86722126Y-62753130D01*
X86719603Y-62753498D01*
X86666371Y-62760134D01*
X86658857Y-62762371D01*
X86651387Y-62764935D01*
X86604246Y-62790447D01*
X86601970Y-62791618D01*
X86553792Y-62815171D01*
X86547382Y-62819748D01*
X86542757Y-62823349D01*
X86538226Y-62825136D01*
X86533162Y-62828912D01*
X86533017Y-62828992D01*
X86532201Y-62827514D01*
X86477765Y-62848995D01*
X86466589Y-62849500D01*
X86321014Y-62849500D01*
X86167634Y-62887303D01*
X86027762Y-62960715D01*
X85909516Y-63065471D01*
X85819781Y-63195475D01*
X85819780Y-63195476D01*
X85763762Y-63343181D01*
X85744722Y-63499999D01*
X85744722Y-63500000D01*
X85763762Y-63656818D01*
X85819780Y-63804523D01*
X85819781Y-63804524D01*
X85909517Y-63934531D01*
X85982726Y-63999386D01*
X86019853Y-64058574D01*
X86024500Y-64092202D01*
X86024500Y-65293099D01*
X86004815Y-65360138D01*
X85988181Y-65380780D01*
X84571108Y-66797852D01*
X84551254Y-66813976D01*
X84542165Y-66819914D01*
X84542164Y-66819915D01*
X84520363Y-66847923D01*
X84515286Y-66853674D01*
X84512484Y-66856477D01*
X84512474Y-66856489D01*
X84499658Y-66874439D01*
X84498127Y-66876492D01*
X84465192Y-66918808D01*
X84461447Y-66925729D01*
X84457988Y-66932804D01*
X84442692Y-66984182D01*
X84441911Y-66986621D01*
X84424500Y-67037338D01*
X84423206Y-67045092D01*
X84422231Y-67052911D01*
X84424447Y-67106472D01*
X84424500Y-67109034D01*
X84424500Y-68348196D01*
X84421862Y-68373634D01*
X84419633Y-68384268D01*
X84419633Y-68384269D01*
X84419633Y-68384271D01*
X65000500Y-68384271D01*
X65000500Y-60000010D01*
X73894548Y-60000010D01*
X73914344Y-60491268D01*
X73914346Y-60491284D01*
X73973612Y-60979388D01*
X74071962Y-61461136D01*
X74208757Y-61933407D01*
X74383114Y-62393143D01*
X74493369Y-62625500D01*
X74589927Y-62828992D01*
X74593894Y-62837351D01*
X74839734Y-63263158D01*
X74839739Y-63263164D01*
X74935431Y-63401798D01*
X75111459Y-63656819D01*
X75119049Y-63667814D01*
X75429991Y-64048649D01*
X75430007Y-64048667D01*
X75770607Y-64403269D01*
X75770612Y-64403274D01*
X76138630Y-64729310D01*
X76255293Y-64816976D01*
X76531708Y-65024688D01*
X76947274Y-65287477D01*
X76947277Y-65287479D01*
X76947281Y-65287481D01*
X77055850Y-65344462D01*
X77382638Y-65515973D01*
X77834977Y-65708697D01*
X78301357Y-65864397D01*
X78778753Y-65982065D01*
X78778767Y-65982067D01*
X78778774Y-65982069D01*
X79227715Y-66055028D01*
X79264069Y-66060936D01*
X79754158Y-66100500D01*
X79754168Y-66100500D01*
X80245832Y-66100500D01*
X80245842Y-66100500D01*
X80735931Y-66060936D01*
X80884532Y-66036786D01*
X81221225Y-65982069D01*
X81221229Y-65982067D01*
X81221247Y-65982065D01*
X81698643Y-65864397D01*
X82165023Y-65708697D01*
X82617362Y-65515973D01*
X83052726Y-65287477D01*
X83468292Y-65024688D01*
X83861365Y-64729313D01*
X83861364Y-64729313D01*
X83861369Y-64729310D01*
X84229387Y-64403274D01*
X84229386Y-64403274D01*
X84229395Y-64403267D01*
X84569996Y-64048664D01*
X84880959Y-63667803D01*
X85160267Y-63263155D01*
X85406109Y-62837345D01*
X85616890Y-62393133D01*
X85791244Y-61933401D01*
X85928039Y-61461130D01*
X86026388Y-60979383D01*
X86085654Y-60491285D01*
X86085655Y-60491268D01*
X86105452Y-60000010D01*
X86105452Y-59999989D01*
X86085655Y-59508731D01*
X86085654Y-59508726D01*
X86085654Y-59508715D01*
X86026388Y-59020617D01*
X85928039Y-58538870D01*
X85896679Y-58430601D01*
X85791242Y-58066592D01*
X85714261Y-57863613D01*
X85616890Y-57606867D01*
X85406109Y-57162655D01*
X85276022Y-56937338D01*
X85160265Y-56736841D01*
X85160260Y-56736835D01*
X85144482Y-56713976D01*
X84880959Y-56332197D01*
X84880954Y-56332191D01*
X84880950Y-56332185D01*
X84570008Y-55951350D01*
X84569992Y-55951332D01*
X84229392Y-55596730D01*
X84229387Y-55596725D01*
X83861369Y-55270689D01*
X83664828Y-55122999D01*
X83468292Y-54975312D01*
X83052726Y-54712523D01*
X83052725Y-54712522D01*
X83052718Y-54712518D01*
X82617356Y-54484024D01*
X82439815Y-54408381D01*
X82165023Y-54291303D01*
X82165015Y-54291300D01*
X82165012Y-54291299D01*
X81934540Y-54214356D01*
X81698643Y-54135603D01*
X81698639Y-54135602D01*
X81698632Y-54135600D01*
X81515704Y-54090512D01*
X81221247Y-54017935D01*
X81221241Y-54017934D01*
X81221237Y-54017933D01*
X81221225Y-54017930D01*
X80735936Y-53939064D01*
X80245851Y-53899500D01*
X80245842Y-53899500D01*
X79754158Y-53899500D01*
X79754148Y-53899500D01*
X79264063Y-53939064D01*
X78778774Y-54017930D01*
X78778762Y-54017933D01*
X78778755Y-54017934D01*
X78778753Y-54017935D01*
X78755092Y-54023767D01*
X78301367Y-54135600D01*
X78301360Y-54135602D01*
X77834987Y-54291299D01*
X77834979Y-54291302D01*
X77834977Y-54291303D01*
X77730691Y-54335734D01*
X77382643Y-54484024D01*
X76947281Y-54712518D01*
X76531713Y-54975308D01*
X76531711Y-54975310D01*
X76138630Y-55270689D01*
X75770612Y-55596725D01*
X75770607Y-55596730D01*
X75430007Y-55951332D01*
X75429991Y-55951350D01*
X75119049Y-56332185D01*
X74839739Y-56736835D01*
X74839734Y-56736841D01*
X74593894Y-57162648D01*
X74383114Y-57606856D01*
X74208757Y-58066592D01*
X74071962Y-58538863D01*
X73973612Y-59020611D01*
X73914346Y-59508715D01*
X73914344Y-59508731D01*
X73894548Y-59999989D01*
X73894548Y-60000010D01*
X65000500Y-60000010D01*
X65000500Y-46002704D01*
X65000736Y-45997299D01*
X65004477Y-45954532D01*
X65016918Y-45828221D01*
X65020541Y-45808314D01*
X65038165Y-45742540D01*
X65038655Y-45740822D01*
X65066685Y-45648419D01*
X65072948Y-45632049D01*
X65104413Y-45564573D01*
X65105872Y-45561653D01*
X65150764Y-45477666D01*
X65154657Y-45471331D01*
X65187837Y-45423945D01*
X65200994Y-45405155D01*
X65203827Y-45401420D01*
X65263122Y-45329168D01*
X65267162Y-45324710D01*
X65324710Y-45267162D01*
X65329168Y-45263122D01*
X65401420Y-45203827D01*
X65405155Y-45200994D01*
X65471334Y-45154654D01*
X65477666Y-45150764D01*
X65561653Y-45105872D01*
X65564573Y-45104413D01*
X65632049Y-45072948D01*
X65648419Y-45066685D01*
X65740822Y-45038655D01*
X65742540Y-45038165D01*
X65808318Y-45020540D01*
X65828221Y-45016918D01*
X65941812Y-45005731D01*
X65954568Y-45004474D01*
X65997305Y-45000735D01*
X66002706Y-45000500D01*
X93997292Y-45000500D01*
X94002697Y-45000736D01*
G37*
G04 #@! TD.AperFunction*
M02*
