G04 #@! TF.GenerationSoftware,KiCad,Pcbnew,7.0.5.1-1-g8f565ef7f0-dirty-deb11*
G04 #@! TF.CreationDate,2023-06-02T11:31:36+00:00*
G04 #@! TF.ProjectId,pedalboard-led-ring,70656461-6c62-46f6-9172-642d6c65642d,1.0.0*
G04 #@! TF.SameCoordinates,Original*
G04 #@! TF.FileFunction,Legend,Top*
G04 #@! TF.FilePolarity,Positive*
%FSLAX46Y46*%
G04 Gerber Fmt 4.6, Leading zero omitted, Abs format (unit mm)*
G04 Created by KiCad (PCBNEW 7.0.5.1-1-g8f565ef7f0-dirty-deb11) date 2023-06-02 11:31:36*
%MOMM*%
%LPD*%
G01*
G04 APERTURE LIST*
%ADD10C,0.150000*%
%ADD11C,0.075000*%
%ADD12C,0.100000*%
%ADD13R,0.500000X0.500000*%
G04 APERTURE END LIST*
D10*
X85014516Y-66095036D02*
X85880541Y-65595036D01*
X85880541Y-65595036D02*
X85999589Y-65801232D01*
X85999589Y-65801232D02*
X86029778Y-65948760D01*
X86029778Y-65948760D02*
X85994918Y-66078857D01*
X85994918Y-66078857D02*
X85936249Y-66167716D01*
X85936249Y-66167716D02*
X85795102Y-66304193D01*
X85795102Y-66304193D02*
X85671384Y-66375622D01*
X85671384Y-66375622D02*
X85482617Y-66429620D01*
X85482617Y-66429620D02*
X85376329Y-66436000D01*
X85376329Y-66436000D02*
X85246231Y-66401141D01*
X85246231Y-66401141D02*
X85133563Y-66301232D01*
X85133563Y-66301232D02*
X85014516Y-66095036D01*
X85776421Y-67414693D02*
X85490706Y-66919822D01*
X85633563Y-67167258D02*
X86499589Y-66667258D01*
X86499589Y-66667258D02*
X86328252Y-66656208D01*
X86328252Y-66656208D02*
X86198154Y-66621348D01*
X86198154Y-66621348D02*
X86109296Y-66562679D01*
X86252611Y-68239480D02*
X85966897Y-67744608D01*
X86109754Y-67992044D02*
X86975779Y-67492044D01*
X86975779Y-67492044D02*
X86804442Y-67480994D01*
X86804442Y-67480994D02*
X86674345Y-67446134D01*
X86674345Y-67446134D02*
X86585486Y-67387465D01*
D11*
X84353253Y-66909829D02*
X84267539Y-66761368D01*
X84310396Y-66835598D02*
X84570204Y-66685598D01*
X84570204Y-66685598D02*
X84518803Y-66682283D01*
X84518803Y-66682283D02*
X84479773Y-66671826D01*
X84479773Y-66671826D02*
X84453116Y-66654225D01*
D10*
X88261905Y-58704819D02*
X88261905Y-57704819D01*
X88261905Y-57704819D02*
X88500000Y-57704819D01*
X88500000Y-57704819D02*
X88642857Y-57752438D01*
X88642857Y-57752438D02*
X88738095Y-57847676D01*
X88738095Y-57847676D02*
X88785714Y-57942914D01*
X88785714Y-57942914D02*
X88833333Y-58133390D01*
X88833333Y-58133390D02*
X88833333Y-58276247D01*
X88833333Y-58276247D02*
X88785714Y-58466723D01*
X88785714Y-58466723D02*
X88738095Y-58561961D01*
X88738095Y-58561961D02*
X88642857Y-58657200D01*
X88642857Y-58657200D02*
X88500000Y-58704819D01*
X88500000Y-58704819D02*
X88261905Y-58704819D01*
X89785714Y-58704819D02*
X89214286Y-58704819D01*
X89500000Y-58704819D02*
X89500000Y-57704819D01*
X89500000Y-57704819D02*
X89404762Y-57847676D01*
X89404762Y-57847676D02*
X89309524Y-57942914D01*
X89309524Y-57942914D02*
X89214286Y-57990533D01*
D11*
X88160714Y-59684885D02*
X87989285Y-59684885D01*
X88075000Y-59684885D02*
X88075000Y-59384885D01*
X88075000Y-59384885D02*
X88046428Y-59427742D01*
X88046428Y-59427742D02*
X88017857Y-59456314D01*
X88017857Y-59456314D02*
X87989285Y-59470600D01*
D10*
X78704819Y-51738094D02*
X77704819Y-51738094D01*
X77704819Y-51738094D02*
X77704819Y-51499999D01*
X77704819Y-51499999D02*
X77752438Y-51357142D01*
X77752438Y-51357142D02*
X77847676Y-51261904D01*
X77847676Y-51261904D02*
X77942914Y-51214285D01*
X77942914Y-51214285D02*
X78133390Y-51166666D01*
X78133390Y-51166666D02*
X78276247Y-51166666D01*
X78276247Y-51166666D02*
X78466723Y-51214285D01*
X78466723Y-51214285D02*
X78561961Y-51261904D01*
X78561961Y-51261904D02*
X78657200Y-51357142D01*
X78657200Y-51357142D02*
X78704819Y-51499999D01*
X78704819Y-51499999D02*
X78704819Y-51738094D01*
X78038152Y-50309523D02*
X78704819Y-50309523D01*
X77657200Y-50547618D02*
X78371485Y-50785713D01*
X78371485Y-50785713D02*
X78371485Y-50166666D01*
D11*
X79684885Y-51839285D02*
X79684885Y-52010714D01*
X79684885Y-51924999D02*
X79384885Y-51924999D01*
X79384885Y-51924999D02*
X79427742Y-51953571D01*
X79427742Y-51953571D02*
X79456314Y-51982142D01*
X79456314Y-51982142D02*
X79470600Y-52010714D01*
D10*
X87390217Y-62771197D02*
X87890217Y-61905172D01*
X87890217Y-61905172D02*
X88096413Y-62024220D01*
X88096413Y-62024220D02*
X88196322Y-62136888D01*
X88196322Y-62136888D02*
X88231181Y-62266985D01*
X88231181Y-62266985D02*
X88224801Y-62373273D01*
X88224801Y-62373273D02*
X88170803Y-62562040D01*
X88170803Y-62562040D02*
X88099374Y-62685758D01*
X88099374Y-62685758D02*
X87962897Y-62826906D01*
X87962897Y-62826906D02*
X87874038Y-62885575D01*
X87874038Y-62885575D02*
X87743941Y-62920434D01*
X87743941Y-62920434D02*
X87596413Y-62890245D01*
X87596413Y-62890245D02*
X87390217Y-62771197D01*
X88709874Y-63533102D02*
X88215003Y-63247388D01*
X88462439Y-63390245D02*
X88962439Y-62524220D01*
X88962439Y-62524220D02*
X88808531Y-62600319D01*
X88808531Y-62600319D02*
X88678434Y-62635178D01*
X88678434Y-62635178D02*
X88572146Y-62628798D01*
X89492170Y-62940032D02*
X89557219Y-62922602D01*
X89557219Y-62922602D02*
X89663507Y-62928982D01*
X89663507Y-62928982D02*
X89869703Y-63048029D01*
X89869703Y-63048029D02*
X89928372Y-63136888D01*
X89928372Y-63136888D02*
X89945802Y-63201936D01*
X89945802Y-63201936D02*
X89939422Y-63308225D01*
X89939422Y-63308225D02*
X89891803Y-63390703D01*
X89891803Y-63390703D02*
X89779136Y-63490612D01*
X89779136Y-63490612D02*
X88998550Y-63699769D01*
X88998550Y-63699769D02*
X89534661Y-64009293D01*
D11*
X87224944Y-63807460D02*
X87076482Y-63721746D01*
X87150713Y-63764603D02*
X87300713Y-63504795D01*
X87300713Y-63504795D02*
X87254541Y-63527625D01*
X87254541Y-63527625D02*
X87215511Y-63538083D01*
X87215511Y-63538083D02*
X87183625Y-63536169D01*
D10*
X72668971Y-66778476D02*
X72168971Y-65912450D01*
X72168971Y-65912450D02*
X72375168Y-65793403D01*
X72375168Y-65793403D02*
X72522695Y-65763213D01*
X72522695Y-65763213D02*
X72652793Y-65798073D01*
X72652793Y-65798073D02*
X72741651Y-65856742D01*
X72741651Y-65856742D02*
X72878129Y-65997890D01*
X72878129Y-65997890D02*
X72949557Y-66121608D01*
X72949557Y-66121608D02*
X73003556Y-66310374D01*
X73003556Y-66310374D02*
X73009936Y-66416663D01*
X73009936Y-66416663D02*
X72975076Y-66546760D01*
X72975076Y-66546760D02*
X72875168Y-66659428D01*
X72875168Y-66659428D02*
X72668971Y-66778476D01*
X73373000Y-65712175D02*
X73266712Y-65718555D01*
X73266712Y-65718555D02*
X73201663Y-65701125D01*
X73201663Y-65701125D02*
X73112805Y-65642456D01*
X73112805Y-65642456D02*
X73088995Y-65601217D01*
X73088995Y-65601217D02*
X73082616Y-65494929D01*
X73082616Y-65494929D02*
X73100045Y-65429880D01*
X73100045Y-65429880D02*
X73158715Y-65341022D01*
X73158715Y-65341022D02*
X73323672Y-65245784D01*
X73323672Y-65245784D02*
X73429960Y-65239404D01*
X73429960Y-65239404D02*
X73495009Y-65256834D01*
X73495009Y-65256834D02*
X73583867Y-65315503D01*
X73583867Y-65315503D02*
X73607677Y-65356742D01*
X73607677Y-65356742D02*
X73614056Y-65463030D01*
X73614056Y-65463030D02*
X73596627Y-65528079D01*
X73596627Y-65528079D02*
X73537957Y-65616937D01*
X73537957Y-65616937D02*
X73373000Y-65712175D01*
X73373000Y-65712175D02*
X73314331Y-65801034D01*
X73314331Y-65801034D02*
X73296901Y-65866083D01*
X73296901Y-65866083D02*
X73303281Y-65972371D01*
X73303281Y-65972371D02*
X73398519Y-66137328D01*
X73398519Y-66137328D02*
X73487378Y-66195997D01*
X73487378Y-66195997D02*
X73552426Y-66213427D01*
X73552426Y-66213427D02*
X73658715Y-66207047D01*
X73658715Y-66207047D02*
X73823672Y-66111809D01*
X73823672Y-66111809D02*
X73882341Y-66022951D01*
X73882341Y-66022951D02*
X73899771Y-65957902D01*
X73899771Y-65957902D02*
X73893391Y-65851614D01*
X73893391Y-65851614D02*
X73798153Y-65686657D01*
X73798153Y-65686657D02*
X73709294Y-65627987D01*
X73709294Y-65627987D02*
X73644246Y-65610558D01*
X73644246Y-65610558D02*
X73537957Y-65616937D01*
D11*
X73373517Y-64501168D02*
X73225056Y-64586882D01*
X73299286Y-64544025D02*
X73149286Y-64284217D01*
X73149286Y-64284217D02*
X73145971Y-64335618D01*
X73145971Y-64335618D02*
X73135514Y-64374648D01*
X73135514Y-64374648D02*
X73117913Y-64401305D01*
D10*
X82204819Y-70214285D02*
X81204819Y-70214285D01*
X81204819Y-70214285D02*
X81204819Y-69976190D01*
X81204819Y-69976190D02*
X81252438Y-69833333D01*
X81252438Y-69833333D02*
X81347676Y-69738095D01*
X81347676Y-69738095D02*
X81442914Y-69690476D01*
X81442914Y-69690476D02*
X81633390Y-69642857D01*
X81633390Y-69642857D02*
X81776247Y-69642857D01*
X81776247Y-69642857D02*
X81966723Y-69690476D01*
X81966723Y-69690476D02*
X82061961Y-69738095D01*
X82061961Y-69738095D02*
X82157200Y-69833333D01*
X82157200Y-69833333D02*
X82204819Y-69976190D01*
X82204819Y-69976190D02*
X82204819Y-70214285D01*
X82204819Y-68690476D02*
X82204819Y-69261904D01*
X82204819Y-68976190D02*
X81204819Y-68976190D01*
X81204819Y-68976190D02*
X81347676Y-69071428D01*
X81347676Y-69071428D02*
X81442914Y-69166666D01*
X81442914Y-69166666D02*
X81490533Y-69261904D01*
X81204819Y-68071428D02*
X81204819Y-67976190D01*
X81204819Y-67976190D02*
X81252438Y-67880952D01*
X81252438Y-67880952D02*
X81300057Y-67833333D01*
X81300057Y-67833333D02*
X81395295Y-67785714D01*
X81395295Y-67785714D02*
X81585771Y-67738095D01*
X81585771Y-67738095D02*
X81823866Y-67738095D01*
X81823866Y-67738095D02*
X82014342Y-67785714D01*
X82014342Y-67785714D02*
X82109580Y-67833333D01*
X82109580Y-67833333D02*
X82157200Y-67880952D01*
X82157200Y-67880952D02*
X82204819Y-67976190D01*
X82204819Y-67976190D02*
X82204819Y-68071428D01*
X82204819Y-68071428D02*
X82157200Y-68166666D01*
X82157200Y-68166666D02*
X82109580Y-68214285D01*
X82109580Y-68214285D02*
X82014342Y-68261904D01*
X82014342Y-68261904D02*
X81823866Y-68309523D01*
X81823866Y-68309523D02*
X81585771Y-68309523D01*
X81585771Y-68309523D02*
X81395295Y-68261904D01*
X81395295Y-68261904D02*
X81300057Y-68214285D01*
X81300057Y-68214285D02*
X81252438Y-68166666D01*
X81252438Y-68166666D02*
X81204819Y-68071428D01*
D11*
X80584885Y-67989285D02*
X80584885Y-68160714D01*
X80584885Y-68074999D02*
X80284885Y-68074999D01*
X80284885Y-68074999D02*
X80327742Y-68103571D01*
X80327742Y-68103571D02*
X80356314Y-68132142D01*
X80356314Y-68132142D02*
X80370600Y-68160714D01*
D10*
X70261905Y-62204819D02*
X70261905Y-61204819D01*
X70261905Y-61204819D02*
X70500000Y-61204819D01*
X70500000Y-61204819D02*
X70642857Y-61252438D01*
X70642857Y-61252438D02*
X70738095Y-61347676D01*
X70738095Y-61347676D02*
X70785714Y-61442914D01*
X70785714Y-61442914D02*
X70833333Y-61633390D01*
X70833333Y-61633390D02*
X70833333Y-61776247D01*
X70833333Y-61776247D02*
X70785714Y-61966723D01*
X70785714Y-61966723D02*
X70738095Y-62061961D01*
X70738095Y-62061961D02*
X70642857Y-62157200D01*
X70642857Y-62157200D02*
X70500000Y-62204819D01*
X70500000Y-62204819D02*
X70261905Y-62204819D01*
X71166667Y-61204819D02*
X71833333Y-61204819D01*
X71833333Y-61204819D02*
X71404762Y-62204819D01*
D11*
X72010714Y-60584885D02*
X71839285Y-60584885D01*
X71925000Y-60584885D02*
X71925000Y-60284885D01*
X71925000Y-60284885D02*
X71896428Y-60327742D01*
X71896428Y-60327742D02*
X71867857Y-60356314D01*
X71867857Y-60356314D02*
X71839285Y-60370600D01*
D10*
X70464152Y-57040381D02*
X70964152Y-56174356D01*
X70964152Y-56174356D02*
X71170349Y-56293403D01*
X71170349Y-56293403D02*
X71270257Y-56406071D01*
X71270257Y-56406071D02*
X71305117Y-56536169D01*
X71305117Y-56536169D02*
X71298737Y-56642457D01*
X71298737Y-56642457D02*
X71244738Y-56831224D01*
X71244738Y-56831224D02*
X71173310Y-56954942D01*
X71173310Y-56954942D02*
X71036832Y-57096089D01*
X71036832Y-57096089D02*
X70947974Y-57154758D01*
X70947974Y-57154758D02*
X70817876Y-57189618D01*
X70817876Y-57189618D02*
X70670349Y-57159429D01*
X70670349Y-57159429D02*
X70464152Y-57040381D01*
X72201331Y-56888641D02*
X72036374Y-56793403D01*
X72036374Y-56793403D02*
X71930086Y-56787023D01*
X71930086Y-56787023D02*
X71865037Y-56804453D01*
X71865037Y-56804453D02*
X71711130Y-56880552D01*
X71711130Y-56880552D02*
X71574653Y-57021700D01*
X71574653Y-57021700D02*
X71384176Y-57351614D01*
X71384176Y-57351614D02*
X71377797Y-57457902D01*
X71377797Y-57457902D02*
X71395226Y-57522951D01*
X71395226Y-57522951D02*
X71453895Y-57611810D01*
X71453895Y-57611810D02*
X71618853Y-57707048D01*
X71618853Y-57707048D02*
X71725141Y-57713427D01*
X71725141Y-57713427D02*
X71790190Y-57695998D01*
X71790190Y-57695998D02*
X71879048Y-57637329D01*
X71879048Y-57637329D02*
X71998096Y-57431132D01*
X71998096Y-57431132D02*
X72004475Y-57324844D01*
X72004475Y-57324844D02*
X71987046Y-57259795D01*
X71987046Y-57259795D02*
X71928377Y-57170937D01*
X71928377Y-57170937D02*
X71763419Y-57075699D01*
X71763419Y-57075699D02*
X71657131Y-57069319D01*
X71657131Y-57069319D02*
X71592082Y-57086749D01*
X71592082Y-57086749D02*
X71503224Y-57145418D01*
D11*
X72788632Y-56511882D02*
X72640170Y-56426168D01*
X72714401Y-56469025D02*
X72864401Y-56209217D01*
X72864401Y-56209217D02*
X72818229Y-56232047D01*
X72818229Y-56232047D02*
X72779199Y-56242505D01*
X72779199Y-56242505D02*
X72747313Y-56240591D01*
D10*
X86507429Y-54747388D02*
X86007429Y-53881362D01*
X86007429Y-53881362D02*
X86213626Y-53762315D01*
X86213626Y-53762315D02*
X86361153Y-53732125D01*
X86361153Y-53732125D02*
X86491251Y-53766985D01*
X86491251Y-53766985D02*
X86580109Y-53825654D01*
X86580109Y-53825654D02*
X86716587Y-53966802D01*
X86716587Y-53966802D02*
X86788015Y-54090520D01*
X86788015Y-54090520D02*
X86842014Y-54279286D01*
X86842014Y-54279286D02*
X86848394Y-54385575D01*
X86848394Y-54385575D02*
X86813534Y-54515672D01*
X86813534Y-54515672D02*
X86713626Y-54628340D01*
X86713626Y-54628340D02*
X86507429Y-54747388D01*
X86879834Y-53487650D02*
X86897264Y-53422602D01*
X86897264Y-53422602D02*
X86955933Y-53333743D01*
X86955933Y-53333743D02*
X87162130Y-53214696D01*
X87162130Y-53214696D02*
X87268418Y-53208316D01*
X87268418Y-53208316D02*
X87333467Y-53225746D01*
X87333467Y-53225746D02*
X87422325Y-53284415D01*
X87422325Y-53284415D02*
X87469944Y-53366893D01*
X87469944Y-53366893D02*
X87500133Y-53514421D01*
X87500133Y-53514421D02*
X87290976Y-54295007D01*
X87290976Y-54295007D02*
X87827087Y-53985483D01*
D11*
X86909829Y-55646746D02*
X86761368Y-55732460D01*
X86835598Y-55689603D02*
X86685598Y-55429795D01*
X86685598Y-55429795D02*
X86682283Y-55481196D01*
X86682283Y-55481196D02*
X86671826Y-55520226D01*
X86671826Y-55520226D02*
X86654225Y-55546883D01*
D10*
X73221523Y-52668971D02*
X74087549Y-52168971D01*
X74087549Y-52168971D02*
X74206596Y-52375168D01*
X74206596Y-52375168D02*
X74236786Y-52522695D01*
X74236786Y-52522695D02*
X74201926Y-52652793D01*
X74201926Y-52652793D02*
X74143257Y-52741651D01*
X74143257Y-52741651D02*
X74002109Y-52878129D01*
X74002109Y-52878129D02*
X73878391Y-52949557D01*
X73878391Y-52949557D02*
X73689625Y-53003556D01*
X73689625Y-53003556D02*
X73583336Y-53009936D01*
X73583336Y-53009936D02*
X73453239Y-52975076D01*
X73453239Y-52975076D02*
X73340571Y-52875168D01*
X73340571Y-52875168D02*
X73221523Y-52668971D01*
X74825644Y-53447390D02*
X74587549Y-53034997D01*
X74587549Y-53034997D02*
X74151346Y-53231853D01*
X74151346Y-53231853D02*
X74216395Y-53249282D01*
X74216395Y-53249282D02*
X74305253Y-53307951D01*
X74305253Y-53307951D02*
X74424301Y-53514148D01*
X74424301Y-53514148D02*
X74430681Y-53620436D01*
X74430681Y-53620436D02*
X74413251Y-53685485D01*
X74413251Y-53685485D02*
X74354582Y-53774343D01*
X74354582Y-53774343D02*
X74148385Y-53893391D01*
X74148385Y-53893391D02*
X74042097Y-53899771D01*
X74042097Y-53899771D02*
X73977048Y-53882341D01*
X73977048Y-53882341D02*
X73888190Y-53823672D01*
X73888190Y-53823672D02*
X73769142Y-53617475D01*
X73769142Y-53617475D02*
X73762763Y-53511187D01*
X73762763Y-53511187D02*
X73780192Y-53446138D01*
D11*
X75498831Y-53373517D02*
X75413117Y-53225056D01*
X75455974Y-53299286D02*
X75715782Y-53149286D01*
X75715782Y-53149286D02*
X75664381Y-53145971D01*
X75664381Y-53145971D02*
X75625351Y-53135514D01*
X75625351Y-53135514D02*
X75598694Y-53117913D01*
D10*
X77040381Y-69535847D02*
X76174356Y-69035847D01*
X76174356Y-69035847D02*
X76293403Y-68829650D01*
X76293403Y-68829650D02*
X76406071Y-68729742D01*
X76406071Y-68729742D02*
X76536169Y-68694882D01*
X76536169Y-68694882D02*
X76642457Y-68701262D01*
X76642457Y-68701262D02*
X76831224Y-68755261D01*
X76831224Y-68755261D02*
X76954942Y-68826689D01*
X76954942Y-68826689D02*
X77096089Y-68963167D01*
X77096089Y-68963167D02*
X77154758Y-69052025D01*
X77154758Y-69052025D02*
X77189618Y-69182123D01*
X77189618Y-69182123D02*
X77159429Y-69329650D01*
X77159429Y-69329650D02*
X77040381Y-69535847D01*
X77564190Y-68628582D02*
X77659429Y-68463625D01*
X77659429Y-68463625D02*
X77665808Y-68357337D01*
X77665808Y-68357337D02*
X77648379Y-68292288D01*
X77648379Y-68292288D02*
X77572280Y-68138381D01*
X77572280Y-68138381D02*
X77431132Y-68001903D01*
X77431132Y-68001903D02*
X77101218Y-67811427D01*
X77101218Y-67811427D02*
X76994929Y-67805047D01*
X76994929Y-67805047D02*
X76929881Y-67822477D01*
X76929881Y-67822477D02*
X76841022Y-67881146D01*
X76841022Y-67881146D02*
X76745784Y-68046104D01*
X76745784Y-68046104D02*
X76739404Y-68152392D01*
X76739404Y-68152392D02*
X76756834Y-68217440D01*
X76756834Y-68217440D02*
X76815503Y-68306299D01*
X76815503Y-68306299D02*
X77021700Y-68425346D01*
X77021700Y-68425346D02*
X77127988Y-68431726D01*
X77127988Y-68431726D02*
X77193037Y-68414296D01*
X77193037Y-68414296D02*
X77281895Y-68355627D01*
X77281895Y-68355627D02*
X77377133Y-68190670D01*
X77377133Y-68190670D02*
X77383513Y-68084382D01*
X77383513Y-68084382D02*
X77366083Y-68019333D01*
X77366083Y-68019333D02*
X77307414Y-67930475D01*
D11*
X76511882Y-67211367D02*
X76426168Y-67359829D01*
X76469025Y-67285598D02*
X76209217Y-67135598D01*
X76209217Y-67135598D02*
X76232047Y-67181770D01*
X76232047Y-67181770D02*
X76242505Y-67220800D01*
X76242505Y-67220800D02*
X76240591Y-67252686D01*
D10*
X83009293Y-52197389D02*
X82143268Y-51697389D01*
X82143268Y-51697389D02*
X82262315Y-51491192D01*
X82262315Y-51491192D02*
X82374983Y-51391284D01*
X82374983Y-51391284D02*
X82505081Y-51356424D01*
X82505081Y-51356424D02*
X82611369Y-51362804D01*
X82611369Y-51362804D02*
X82800136Y-51416803D01*
X82800136Y-51416803D02*
X82923854Y-51488231D01*
X82923854Y-51488231D02*
X83065001Y-51624709D01*
X83065001Y-51624709D02*
X83123670Y-51713567D01*
X83123670Y-51713567D02*
X83158530Y-51843665D01*
X83158530Y-51843665D02*
X83128341Y-51991192D01*
X83128341Y-51991192D02*
X83009293Y-52197389D01*
X82595649Y-50913842D02*
X82905172Y-50377731D01*
X82905172Y-50377731D02*
X83068420Y-50856882D01*
X83068420Y-50856882D02*
X83139849Y-50733164D01*
X83139849Y-50733164D02*
X83228707Y-50674495D01*
X83228707Y-50674495D02*
X83293756Y-50657066D01*
X83293756Y-50657066D02*
X83400044Y-50663445D01*
X83400044Y-50663445D02*
X83606241Y-50782493D01*
X83606241Y-50782493D02*
X83664910Y-50871351D01*
X83664910Y-50871351D02*
X83682339Y-50936400D01*
X83682339Y-50936400D02*
X83675960Y-51042688D01*
X83675960Y-51042688D02*
X83533102Y-51290124D01*
X83533102Y-51290124D02*
X83444244Y-51348793D01*
X83444244Y-51348793D02*
X83379195Y-51366223D01*
D11*
X83807460Y-52775055D02*
X83721746Y-52923517D01*
X83764603Y-52849286D02*
X83504795Y-52699286D01*
X83504795Y-52699286D02*
X83527625Y-52745458D01*
X83527625Y-52745458D02*
X83538083Y-52784488D01*
X83538083Y-52784488D02*
X83536169Y-52816374D01*
D12*
X85661122Y-68105351D02*
X85336122Y-67542434D01*
X85098205Y-68430351D02*
X85661122Y-68105351D01*
X89850000Y-59150000D02*
X89200000Y-59150000D01*
X89850000Y-59800000D02*
X89850000Y-59150000D01*
X79150000Y-50150000D02*
X79150000Y-50800000D01*
X79800000Y-50150000D02*
X79150000Y-50150000D01*
X88955351Y-64188878D02*
X88392434Y-63863878D01*
X88630351Y-64751795D02*
X88955351Y-64188878D01*
X71894649Y-65661122D02*
X72457566Y-65336122D01*
X71569649Y-65098205D02*
X71894649Y-65661122D01*
X80850000Y-69850000D02*
X80850000Y-69200000D01*
X80200000Y-69850000D02*
X80850000Y-69850000D01*
X70150000Y-60850000D02*
X70800000Y-60850000D01*
X70150000Y-60200000D02*
X70150000Y-60850000D01*
X71044649Y-55811122D02*
X71607566Y-56136122D01*
X71369649Y-55248205D02*
X71044649Y-55811122D01*
X88105351Y-54338878D02*
X87542434Y-54663878D01*
X88430351Y-54901795D02*
X88105351Y-54338878D01*
X74338878Y-51894649D02*
X74663878Y-52457566D01*
X74901795Y-51569649D02*
X74338878Y-51894649D01*
X75811122Y-68955351D02*
X76136122Y-68392434D01*
X75248205Y-68630351D02*
X75811122Y-68955351D01*
X84188878Y-51044649D02*
X83863878Y-51607566D01*
X84751795Y-51369649D02*
X84188878Y-51044649D01*
%LPC*%
G36*
G01*
X71485740Y-65752869D02*
X71312534Y-65852869D01*
G75*
G02*
X71175931Y-65816266I-50000J86603D01*
G01*
X70958431Y-65439544D01*
G75*
G02*
X70995034Y-65302941I86603J50000D01*
G01*
X71168240Y-65202941D01*
G75*
G02*
X71304843Y-65239544I50000J-86603D01*
G01*
X71522343Y-65616266D01*
G75*
G02*
X71485740Y-65752869I-86603J-50000D01*
G01*
G37*
G36*
G01*
X71078240Y-65047059D02*
X70905034Y-65147059D01*
G75*
G02*
X70768431Y-65110456I-50000J86603D01*
G01*
X70550931Y-64733734D01*
G75*
G02*
X70587534Y-64597131I86603J50000D01*
G01*
X70760740Y-64497131D01*
G75*
G02*
X70897343Y-64533734I50000J-86603D01*
G01*
X71114843Y-64910456D01*
G75*
G02*
X71078240Y-65047059I-86603J-50000D01*
G01*
G37*
G36*
X84323205Y-67088012D02*
G01*
X84756217Y-66838012D01*
X85006217Y-67271024D01*
X84573205Y-67521024D01*
X84323205Y-67088012D01*
G37*
G36*
X83543783Y-67538012D02*
G01*
X83976795Y-67288012D01*
X84226795Y-67721024D01*
X83793783Y-67971024D01*
X83543783Y-67538012D01*
G37*
G36*
X83993783Y-68317434D02*
G01*
X84426795Y-68067434D01*
X84676795Y-68500446D01*
X84243783Y-68750446D01*
X83993783Y-68317434D01*
G37*
G36*
X84773205Y-67867434D02*
G01*
X85206217Y-67617434D01*
X85456217Y-68050446D01*
X85023205Y-68300446D01*
X84773205Y-67867434D01*
G37*
D13*
X88550000Y-59550000D03*
X88550000Y-60450000D03*
X89450000Y-60450000D03*
X89450000Y-59550000D03*
X79550000Y-51450000D03*
X80450000Y-51450000D03*
X80450000Y-50550000D03*
X79550000Y-50550000D03*
G36*
X87288012Y-63976795D02*
G01*
X87538012Y-63543783D01*
X87971024Y-63793783D01*
X87721024Y-64226795D01*
X87288012Y-63976795D01*
G37*
G36*
X86838012Y-64756217D02*
G01*
X87088012Y-64323205D01*
X87521024Y-64573205D01*
X87271024Y-65006217D01*
X86838012Y-64756217D01*
G37*
G36*
X87617434Y-65206217D02*
G01*
X87867434Y-64773205D01*
X88300446Y-65023205D01*
X88050446Y-65456217D01*
X87617434Y-65206217D01*
G37*
G36*
X88067434Y-64426795D02*
G01*
X88317434Y-63993783D01*
X88750446Y-64243783D01*
X88500446Y-64676795D01*
X88067434Y-64426795D01*
G37*
G36*
X72911988Y-64323205D02*
G01*
X73161988Y-64756217D01*
X72728976Y-65006217D01*
X72478976Y-64573205D01*
X72911988Y-64323205D01*
G37*
G36*
X72461988Y-63543783D02*
G01*
X72711988Y-63976795D01*
X72278976Y-64226795D01*
X72028976Y-63793783D01*
X72461988Y-63543783D01*
G37*
G36*
X71682566Y-63993783D02*
G01*
X71932566Y-64426795D01*
X71499554Y-64676795D01*
X71249554Y-64243783D01*
X71682566Y-63993783D01*
G37*
G36*
X72132566Y-64773205D02*
G01*
X72382566Y-65206217D01*
X71949554Y-65456217D01*
X71699554Y-65023205D01*
X72132566Y-64773205D01*
G37*
X80450000Y-68550000D03*
X79550000Y-68550000D03*
X79550000Y-69450000D03*
X80450000Y-69450000D03*
G36*
G01*
X85752869Y-68514260D02*
X85852869Y-68687466D01*
G75*
G02*
X85816266Y-68824069I-86603J-50000D01*
G01*
X85439544Y-69041569D01*
G75*
G02*
X85302941Y-69004966I-50000J86603D01*
G01*
X85202941Y-68831760D01*
G75*
G02*
X85239544Y-68695157I86603J50000D01*
G01*
X85616266Y-68477657D01*
G75*
G02*
X85752869Y-68514260I50000J-86603D01*
G01*
G37*
G36*
G01*
X85047059Y-68921760D02*
X85147059Y-69094966D01*
G75*
G02*
X85110456Y-69231569I-86603J-50000D01*
G01*
X84733734Y-69449069D01*
G75*
G02*
X84597131Y-69412466I-50000J86603D01*
G01*
X84497131Y-69239260D01*
G75*
G02*
X84533734Y-69102657I86603J50000D01*
G01*
X84910456Y-68885157D01*
G75*
G02*
X85047059Y-68921760I50000J-86603D01*
G01*
G37*
X71450000Y-60450000D03*
X71450000Y-59550000D03*
X70550000Y-59550000D03*
X70550000Y-60450000D03*
G36*
X72711988Y-56023205D02*
G01*
X72461988Y-56456217D01*
X72028976Y-56206217D01*
X72278976Y-55773205D01*
X72711988Y-56023205D01*
G37*
G36*
X73161988Y-55243783D02*
G01*
X72911988Y-55676795D01*
X72478976Y-55426795D01*
X72728976Y-54993783D01*
X73161988Y-55243783D01*
G37*
G36*
X72382566Y-54793783D02*
G01*
X72132566Y-55226795D01*
X71699554Y-54976795D01*
X71949554Y-54543783D01*
X72382566Y-54793783D01*
G37*
G36*
X71932566Y-55573205D02*
G01*
X71682566Y-56006217D01*
X71249554Y-55756217D01*
X71499554Y-55323205D01*
X71932566Y-55573205D01*
G37*
G36*
G01*
X89239260Y-64497131D02*
X89412466Y-64597131D01*
G75*
G02*
X89449069Y-64733734I-50000J-86603D01*
G01*
X89231569Y-65110456D01*
G75*
G02*
X89094966Y-65147059I-86603J50000D01*
G01*
X88921760Y-65047059D01*
G75*
G02*
X88885157Y-64910456I50000J86603D01*
G01*
X89102657Y-64533734D01*
G75*
G02*
X89239260Y-64497131I86603J-50000D01*
G01*
G37*
G36*
G01*
X88831760Y-65202941D02*
X89004966Y-65302941D01*
G75*
G02*
X89041569Y-65439544I-50000J-86603D01*
G01*
X88824069Y-65816266D01*
G75*
G02*
X88687466Y-65852869I-86603J50000D01*
G01*
X88514260Y-65752869D01*
G75*
G02*
X88477657Y-65616266I50000J86603D01*
G01*
X88695157Y-65239544D01*
G75*
G02*
X88831760Y-65202941I86603J-50000D01*
G01*
G37*
G36*
G01*
X70760740Y-55502869D02*
X70587534Y-55402869D01*
G75*
G02*
X70550931Y-55266266I50000J86603D01*
G01*
X70768431Y-54889544D01*
G75*
G02*
X70905034Y-54852941I86603J-50000D01*
G01*
X71078240Y-54952941D01*
G75*
G02*
X71114843Y-55089544I-50000J-86603D01*
G01*
X70897343Y-55466266D01*
G75*
G02*
X70760740Y-55502869I-86603J50000D01*
G01*
G37*
G36*
G01*
X71168240Y-54797059D02*
X70995034Y-54697059D01*
G75*
G02*
X70958431Y-54560456I50000J86603D01*
G01*
X71175931Y-54183734D01*
G75*
G02*
X71312534Y-54147131I86603J-50000D01*
G01*
X71485740Y-54247131D01*
G75*
G02*
X71522343Y-54383734I-50000J-86603D01*
G01*
X71304843Y-54760456D01*
G75*
G02*
X71168240Y-54797059I-86603J50000D01*
G01*
G37*
G36*
G01*
X75502869Y-69239260D02*
X75402869Y-69412466D01*
G75*
G02*
X75266266Y-69449069I-86603J50000D01*
G01*
X74889544Y-69231569D01*
G75*
G02*
X74852941Y-69094966I50000J86603D01*
G01*
X74952941Y-68921760D01*
G75*
G02*
X75089544Y-68885157I86603J-50000D01*
G01*
X75466266Y-69102657D01*
G75*
G02*
X75502869Y-69239260I-50000J-86603D01*
G01*
G37*
G36*
G01*
X74797059Y-68831760D02*
X74697059Y-69004966D01*
G75*
G02*
X74560456Y-69041569I-86603J50000D01*
G01*
X74183734Y-68824069D01*
G75*
G02*
X74147131Y-68687466I50000J86603D01*
G01*
X74247131Y-68514260D01*
G75*
G02*
X74383734Y-68477657I86603J-50000D01*
G01*
X74760456Y-68695157D01*
G75*
G02*
X74797059Y-68831760I-50000J-86603D01*
G01*
G37*
G36*
G01*
X69750000Y-60725000D02*
X69550000Y-60725000D01*
G75*
G02*
X69450000Y-60625000I0J100000D01*
G01*
X69450000Y-60190000D01*
G75*
G02*
X69550000Y-60090000I100000J0D01*
G01*
X69750000Y-60090000D01*
G75*
G02*
X69850000Y-60190000I0J-100000D01*
G01*
X69850000Y-60625000D01*
G75*
G02*
X69750000Y-60725000I-100000J0D01*
G01*
G37*
G36*
G01*
X69750000Y-59910000D02*
X69550000Y-59910000D01*
G75*
G02*
X69450000Y-59810000I0J100000D01*
G01*
X69450000Y-59375000D01*
G75*
G02*
X69550000Y-59275000I100000J0D01*
G01*
X69750000Y-59275000D01*
G75*
G02*
X69850000Y-59375000I0J-100000D01*
G01*
X69850000Y-59810000D01*
G75*
G02*
X69750000Y-59910000I-100000J0D01*
G01*
G37*
G36*
G01*
X80725000Y-70250000D02*
X80725000Y-70450000D01*
G75*
G02*
X80625000Y-70550000I-100000J0D01*
G01*
X80190000Y-70550000D01*
G75*
G02*
X80090000Y-70450000I0J100000D01*
G01*
X80090000Y-70250000D01*
G75*
G02*
X80190000Y-70150000I100000J0D01*
G01*
X80625000Y-70150000D01*
G75*
G02*
X80725000Y-70250000I0J-100000D01*
G01*
G37*
G36*
G01*
X79910000Y-70250000D02*
X79910000Y-70450000D01*
G75*
G02*
X79810000Y-70550000I-100000J0D01*
G01*
X79375000Y-70550000D01*
G75*
G02*
X79275000Y-70450000I0J100000D01*
G01*
X79275000Y-70250000D01*
G75*
G02*
X79375000Y-70150000I100000J0D01*
G01*
X79810000Y-70150000D01*
G75*
G02*
X79910000Y-70250000I0J-100000D01*
G01*
G37*
G36*
G01*
X84497131Y-50760740D02*
X84597131Y-50587534D01*
G75*
G02*
X84733734Y-50550931I86603J-50000D01*
G01*
X85110456Y-50768431D01*
G75*
G02*
X85147059Y-50905034I-50000J-86603D01*
G01*
X85047059Y-51078240D01*
G75*
G02*
X84910456Y-51114843I-86603J50000D01*
G01*
X84533734Y-50897343D01*
G75*
G02*
X84497131Y-50760740I50000J86603D01*
G01*
G37*
G36*
G01*
X85202941Y-51168240D02*
X85302941Y-50995034D01*
G75*
G02*
X85439544Y-50958431I86603J-50000D01*
G01*
X85816266Y-51175931D01*
G75*
G02*
X85852869Y-51312534I-50000J-86603D01*
G01*
X85752869Y-51485740D01*
G75*
G02*
X85616266Y-51522343I-86603J50000D01*
G01*
X85239544Y-51304843D01*
G75*
G02*
X85202941Y-51168240I50000J86603D01*
G01*
G37*
G36*
G01*
X88514260Y-54247131D02*
X88687466Y-54147131D01*
G75*
G02*
X88824069Y-54183734I50000J-86603D01*
G01*
X89041569Y-54560456D01*
G75*
G02*
X89004966Y-54697059I-86603J-50000D01*
G01*
X88831760Y-54797059D01*
G75*
G02*
X88695157Y-54760456I-50000J86603D01*
G01*
X88477657Y-54383734D01*
G75*
G02*
X88514260Y-54247131I86603J50000D01*
G01*
G37*
G36*
G01*
X88921760Y-54952941D02*
X89094966Y-54852941D01*
G75*
G02*
X89231569Y-54889544I50000J-86603D01*
G01*
X89449069Y-55266266D01*
G75*
G02*
X89412466Y-55402869I-86603J-50000D01*
G01*
X89239260Y-55502869D01*
G75*
G02*
X89102657Y-55466266I-50000J86603D01*
G01*
X88885157Y-55089544D01*
G75*
G02*
X88921760Y-54952941I86603J50000D01*
G01*
G37*
G36*
G01*
X74247131Y-51485740D02*
X74147131Y-51312534D01*
G75*
G02*
X74183734Y-51175931I86603J50000D01*
G01*
X74560456Y-50958431D01*
G75*
G02*
X74697059Y-50995034I50000J-86603D01*
G01*
X74797059Y-51168240D01*
G75*
G02*
X74760456Y-51304843I-86603J-50000D01*
G01*
X74383734Y-51522343D01*
G75*
G02*
X74247131Y-51485740I-50000J86603D01*
G01*
G37*
G36*
G01*
X74952941Y-51078240D02*
X74852941Y-50905034D01*
G75*
G02*
X74889544Y-50768431I86603J50000D01*
G01*
X75266266Y-50550931D01*
G75*
G02*
X75402869Y-50587534I50000J-86603D01*
G01*
X75502869Y-50760740D01*
G75*
G02*
X75466266Y-50897343I-86603J-50000D01*
G01*
X75089544Y-51114843D01*
G75*
G02*
X74952941Y-51078240I-50000J86603D01*
G01*
G37*
G36*
X87088012Y-55676795D02*
G01*
X86838012Y-55243783D01*
X87271024Y-54993783D01*
X87521024Y-55426795D01*
X87088012Y-55676795D01*
G37*
G36*
X87538012Y-56456217D02*
G01*
X87288012Y-56023205D01*
X87721024Y-55773205D01*
X87971024Y-56206217D01*
X87538012Y-56456217D01*
G37*
G36*
X88317434Y-56006217D02*
G01*
X88067434Y-55573205D01*
X88500446Y-55323205D01*
X88750446Y-55756217D01*
X88317434Y-56006217D01*
G37*
G36*
X87867434Y-55226795D02*
G01*
X87617434Y-54793783D01*
X88050446Y-54543783D01*
X88300446Y-54976795D01*
X87867434Y-55226795D01*
G37*
G36*
G01*
X90250000Y-59275000D02*
X90450000Y-59275000D01*
G75*
G02*
X90550000Y-59375000I0J-100000D01*
G01*
X90550000Y-59810000D01*
G75*
G02*
X90450000Y-59910000I-100000J0D01*
G01*
X90250000Y-59910000D01*
G75*
G02*
X90150000Y-59810000I0J100000D01*
G01*
X90150000Y-59375000D01*
G75*
G02*
X90250000Y-59275000I100000J0D01*
G01*
G37*
G36*
G01*
X90250000Y-60090000D02*
X90450000Y-60090000D01*
G75*
G02*
X90550000Y-60190000I0J-100000D01*
G01*
X90550000Y-60625000D01*
G75*
G02*
X90450000Y-60725000I-100000J0D01*
G01*
X90250000Y-60725000D01*
G75*
G02*
X90150000Y-60625000I0J100000D01*
G01*
X90150000Y-60190000D01*
G75*
G02*
X90250000Y-60090000I100000J0D01*
G01*
G37*
G36*
X75676795Y-52911988D02*
G01*
X75243783Y-53161988D01*
X74993783Y-52728976D01*
X75426795Y-52478976D01*
X75676795Y-52911988D01*
G37*
G36*
X76456217Y-52461988D02*
G01*
X76023205Y-52711988D01*
X75773205Y-52278976D01*
X76206217Y-52028976D01*
X76456217Y-52461988D01*
G37*
G36*
X76006217Y-51682566D02*
G01*
X75573205Y-51932566D01*
X75323205Y-51499554D01*
X75756217Y-51249554D01*
X76006217Y-51682566D01*
G37*
G36*
X75226795Y-52132566D02*
G01*
X74793783Y-52382566D01*
X74543783Y-51949554D01*
X74976795Y-51699554D01*
X75226795Y-52132566D01*
G37*
G36*
X76023205Y-67288012D02*
G01*
X76456217Y-67538012D01*
X76206217Y-67971024D01*
X75773205Y-67721024D01*
X76023205Y-67288012D01*
G37*
G36*
X75243783Y-66838012D02*
G01*
X75676795Y-67088012D01*
X75426795Y-67521024D01*
X74993783Y-67271024D01*
X75243783Y-66838012D01*
G37*
G36*
X74793783Y-67617434D02*
G01*
X75226795Y-67867434D01*
X74976795Y-68300446D01*
X74543783Y-68050446D01*
X74793783Y-67617434D01*
G37*
G36*
X75573205Y-68067434D02*
G01*
X76006217Y-68317434D01*
X75756217Y-68750446D01*
X75323205Y-68500446D01*
X75573205Y-68067434D01*
G37*
G36*
X83976795Y-52711988D02*
G01*
X83543783Y-52461988D01*
X83793783Y-52028976D01*
X84226795Y-52278976D01*
X83976795Y-52711988D01*
G37*
G36*
X84756217Y-53161988D02*
G01*
X84323205Y-52911988D01*
X84573205Y-52478976D01*
X85006217Y-52728976D01*
X84756217Y-53161988D01*
G37*
G36*
X85206217Y-52382566D02*
G01*
X84773205Y-52132566D01*
X85023205Y-51699554D01*
X85456217Y-51949554D01*
X85206217Y-52382566D01*
G37*
G36*
X84426795Y-51932566D02*
G01*
X83993783Y-51682566D01*
X84243783Y-51249554D01*
X84676795Y-51499554D01*
X84426795Y-51932566D01*
G37*
G36*
G01*
X79275000Y-49750000D02*
X79275000Y-49550000D01*
G75*
G02*
X79375000Y-49450000I100000J0D01*
G01*
X79810000Y-49450000D01*
G75*
G02*
X79910000Y-49550000I0J-100000D01*
G01*
X79910000Y-49750000D01*
G75*
G02*
X79810000Y-49850000I-100000J0D01*
G01*
X79375000Y-49850000D01*
G75*
G02*
X79275000Y-49750000I0J100000D01*
G01*
G37*
G36*
G01*
X80090000Y-49750000D02*
X80090000Y-49550000D01*
G75*
G02*
X80190000Y-49450000I100000J0D01*
G01*
X80625000Y-49450000D01*
G75*
G02*
X80725000Y-49550000I0J-100000D01*
G01*
X80725000Y-49750000D01*
G75*
G02*
X80625000Y-49850000I-100000J0D01*
G01*
X80190000Y-49850000D01*
G75*
G02*
X80090000Y-49750000I0J100000D01*
G01*
G37*
%LPD*%
M02*
