G04 #@! TF.GenerationSoftware,KiCad,Pcbnew,7.0.5.1-1-g8f565ef7f0-dirty-deb11*
G04 #@! TF.CreationDate,2023-06-03T12:41:16+00:00*
G04 #@! TF.ProjectId,pedalboard-led-ring,70656461-6c62-46f6-9172-642d6c65642d,1.0.0*
G04 #@! TF.SameCoordinates,Original*
G04 #@! TF.FileFunction,Legend,Top*
G04 #@! TF.FilePolarity,Positive*
%FSLAX46Y46*%
G04 Gerber Fmt 4.6, Leading zero omitted, Abs format (unit mm)*
G04 Created by KiCad (PCBNEW 7.0.5.1-1-g8f565ef7f0-dirty-deb11) date 2023-06-03 12:41:16*
%MOMM*%
%LPD*%
G01*
G04 APERTURE LIST*
%ADD10C,0.100000*%
%ADD11C,0.075000*%
%ADD12R,0.500000X0.500000*%
%ADD13C,2.200000*%
G04 APERTURE END LIST*
D10*
X85213048Y-66681483D02*
X85646060Y-66431483D01*
X85646060Y-66431483D02*
X85705584Y-66534581D01*
X85705584Y-66534581D02*
X85720679Y-66608345D01*
X85720679Y-66608345D02*
X85703249Y-66673393D01*
X85703249Y-66673393D02*
X85673915Y-66717823D01*
X85673915Y-66717823D02*
X85603341Y-66786061D01*
X85603341Y-66786061D02*
X85541482Y-66821776D01*
X85541482Y-66821776D02*
X85447098Y-66848775D01*
X85447098Y-66848775D02*
X85393954Y-66851965D01*
X85393954Y-66851965D02*
X85328905Y-66834535D01*
X85328905Y-66834535D02*
X85272572Y-66784581D01*
X85272572Y-66784581D02*
X85213048Y-66681483D01*
X85594000Y-67341311D02*
X85451143Y-67093876D01*
X85522572Y-67217594D02*
X85955584Y-66967594D01*
X85955584Y-66967594D02*
X85869916Y-66962068D01*
X85869916Y-66962068D02*
X85804867Y-66944639D01*
X85804867Y-66944639D02*
X85760438Y-66915304D01*
X85832095Y-67753704D02*
X85689238Y-67506268D01*
X85760667Y-67629986D02*
X86193679Y-67379986D01*
X86193679Y-67379986D02*
X86108011Y-67374461D01*
X86108011Y-67374461D02*
X86042962Y-67357031D01*
X86042962Y-67357031D02*
X85998533Y-67327697D01*
D11*
X84353253Y-66909829D02*
X84267539Y-66761368D01*
X84310396Y-66835598D02*
X84570204Y-66685598D01*
X84570204Y-66685598D02*
X84518803Y-66682283D01*
X84518803Y-66682283D02*
X84479773Y-66671826D01*
X84479773Y-66671826D02*
X84453116Y-66654225D01*
D10*
X88630952Y-58826109D02*
X88630952Y-58326109D01*
X88630952Y-58326109D02*
X88750000Y-58326109D01*
X88750000Y-58326109D02*
X88821428Y-58349919D01*
X88821428Y-58349919D02*
X88869047Y-58397538D01*
X88869047Y-58397538D02*
X88892857Y-58445157D01*
X88892857Y-58445157D02*
X88916666Y-58540395D01*
X88916666Y-58540395D02*
X88916666Y-58611823D01*
X88916666Y-58611823D02*
X88892857Y-58707061D01*
X88892857Y-58707061D02*
X88869047Y-58754680D01*
X88869047Y-58754680D02*
X88821428Y-58802300D01*
X88821428Y-58802300D02*
X88750000Y-58826109D01*
X88750000Y-58826109D02*
X88630952Y-58826109D01*
X89392857Y-58826109D02*
X89107143Y-58826109D01*
X89250000Y-58826109D02*
X89250000Y-58326109D01*
X89250000Y-58326109D02*
X89202381Y-58397538D01*
X89202381Y-58397538D02*
X89154762Y-58445157D01*
X89154762Y-58445157D02*
X89107143Y-58468966D01*
D11*
X88160714Y-59684885D02*
X87989285Y-59684885D01*
X88075000Y-59684885D02*
X88075000Y-59384885D01*
X88075000Y-59384885D02*
X88046428Y-59427742D01*
X88046428Y-59427742D02*
X88017857Y-59456314D01*
X88017857Y-59456314D02*
X87989285Y-59470600D01*
D10*
X78826109Y-51369047D02*
X78326109Y-51369047D01*
X78326109Y-51369047D02*
X78326109Y-51249999D01*
X78326109Y-51249999D02*
X78349919Y-51178571D01*
X78349919Y-51178571D02*
X78397538Y-51130952D01*
X78397538Y-51130952D02*
X78445157Y-51107142D01*
X78445157Y-51107142D02*
X78540395Y-51083333D01*
X78540395Y-51083333D02*
X78611823Y-51083333D01*
X78611823Y-51083333D02*
X78707061Y-51107142D01*
X78707061Y-51107142D02*
X78754680Y-51130952D01*
X78754680Y-51130952D02*
X78802300Y-51178571D01*
X78802300Y-51178571D02*
X78826109Y-51249999D01*
X78826109Y-51249999D02*
X78826109Y-51369047D01*
X78492776Y-50654761D02*
X78826109Y-50654761D01*
X78302300Y-50773809D02*
X78659442Y-50892856D01*
X78659442Y-50892856D02*
X78659442Y-50583333D01*
D11*
X79684885Y-51839285D02*
X79684885Y-52010714D01*
X79684885Y-51924999D02*
X79384885Y-51924999D01*
X79384885Y-51924999D02*
X79427742Y-51953571D01*
X79427742Y-51953571D02*
X79456314Y-51982142D01*
X79456314Y-51982142D02*
X79470600Y-52010714D01*
D10*
X87855373Y-63179809D02*
X88105373Y-62746796D01*
X88105373Y-62746796D02*
X88208471Y-62806320D01*
X88208471Y-62806320D02*
X88258425Y-62862654D01*
X88258425Y-62862654D02*
X88275855Y-62927703D01*
X88275855Y-62927703D02*
X88272665Y-62980847D01*
X88272665Y-62980847D02*
X88245666Y-63075230D01*
X88245666Y-63075230D02*
X88209952Y-63137089D01*
X88209952Y-63137089D02*
X88141713Y-63207663D01*
X88141713Y-63207663D02*
X88097284Y-63236998D01*
X88097284Y-63236998D02*
X88032235Y-63254427D01*
X88032235Y-63254427D02*
X87958471Y-63239333D01*
X87958471Y-63239333D02*
X87855373Y-63179809D01*
X88515202Y-63560761D02*
X88267766Y-63417904D01*
X88391484Y-63489333D02*
X88641484Y-63056320D01*
X88641484Y-63056320D02*
X88564530Y-63094369D01*
X88564530Y-63094369D02*
X88499482Y-63111799D01*
X88499482Y-63111799D02*
X88446337Y-63108609D01*
X88906349Y-63264226D02*
X88938874Y-63255511D01*
X88938874Y-63255511D02*
X88992018Y-63258701D01*
X88992018Y-63258701D02*
X89095116Y-63318225D01*
X89095116Y-63318225D02*
X89124450Y-63362654D01*
X89124450Y-63362654D02*
X89133165Y-63395178D01*
X89133165Y-63395178D02*
X89129975Y-63448322D01*
X89129975Y-63448322D02*
X89106166Y-63489561D01*
X89106166Y-63489561D02*
X89049832Y-63539516D01*
X89049832Y-63539516D02*
X88659539Y-63644094D01*
X88659539Y-63644094D02*
X88927595Y-63798856D01*
D11*
X87224944Y-63807460D02*
X87076482Y-63721746D01*
X87150713Y-63764603D02*
X87300713Y-63504795D01*
X87300713Y-63504795D02*
X87254541Y-63527625D01*
X87254541Y-63527625D02*
X87215511Y-63538083D01*
X87215511Y-63538083D02*
X87183625Y-63536169D01*
D10*
X72699221Y-66092776D02*
X72449221Y-65659763D01*
X72449221Y-65659763D02*
X72552319Y-65600239D01*
X72552319Y-65600239D02*
X72626083Y-65585145D01*
X72626083Y-65585145D02*
X72691132Y-65602574D01*
X72691132Y-65602574D02*
X72735561Y-65631909D01*
X72735561Y-65631909D02*
X72803800Y-65702483D01*
X72803800Y-65702483D02*
X72839514Y-65764342D01*
X72839514Y-65764342D02*
X72866513Y-65858725D01*
X72866513Y-65858725D02*
X72869703Y-65911869D01*
X72869703Y-65911869D02*
X72852273Y-65976918D01*
X72852273Y-65976918D02*
X72802319Y-66033252D01*
X72802319Y-66033252D02*
X72699221Y-66092776D01*
X73051235Y-65559626D02*
X72998091Y-65562816D01*
X72998091Y-65562816D02*
X72965567Y-65554101D01*
X72965567Y-65554101D02*
X72921138Y-65524766D01*
X72921138Y-65524766D02*
X72909233Y-65504146D01*
X72909233Y-65504146D02*
X72906043Y-65451002D01*
X72906043Y-65451002D02*
X72914758Y-65418478D01*
X72914758Y-65418478D02*
X72944093Y-65374049D01*
X72944093Y-65374049D02*
X73026571Y-65326430D01*
X73026571Y-65326430D02*
X73079715Y-65323240D01*
X73079715Y-65323240D02*
X73112240Y-65331955D01*
X73112240Y-65331955D02*
X73156669Y-65361289D01*
X73156669Y-65361289D02*
X73168574Y-65381909D01*
X73168574Y-65381909D02*
X73171763Y-65435053D01*
X73171763Y-65435053D02*
X73163049Y-65467577D01*
X73163049Y-65467577D02*
X73133714Y-65512007D01*
X73133714Y-65512007D02*
X73051235Y-65559626D01*
X73051235Y-65559626D02*
X73021901Y-65604055D01*
X73021901Y-65604055D02*
X73013186Y-65636579D01*
X73013186Y-65636579D02*
X73016376Y-65689723D01*
X73016376Y-65689723D02*
X73063995Y-65772202D01*
X73063995Y-65772202D02*
X73108424Y-65801536D01*
X73108424Y-65801536D02*
X73140948Y-65810251D01*
X73140948Y-65810251D02*
X73194093Y-65807061D01*
X73194093Y-65807061D02*
X73276571Y-65759442D01*
X73276571Y-65759442D02*
X73305906Y-65715013D01*
X73305906Y-65715013D02*
X73314621Y-65682489D01*
X73314621Y-65682489D02*
X73311431Y-65629345D01*
X73311431Y-65629345D02*
X73263812Y-65546866D01*
X73263812Y-65546866D02*
X73219382Y-65517532D01*
X73219382Y-65517532D02*
X73186858Y-65508817D01*
X73186858Y-65508817D02*
X73133714Y-65512007D01*
D11*
X73373517Y-64501168D02*
X73225056Y-64586882D01*
X73299286Y-64544025D02*
X73149286Y-64284217D01*
X73149286Y-64284217D02*
X73145971Y-64335618D01*
X73145971Y-64335618D02*
X73135514Y-64374648D01*
X73135514Y-64374648D02*
X73117913Y-64401305D01*
D10*
X81626109Y-69607142D02*
X81126109Y-69607142D01*
X81126109Y-69607142D02*
X81126109Y-69488094D01*
X81126109Y-69488094D02*
X81149919Y-69416666D01*
X81149919Y-69416666D02*
X81197538Y-69369047D01*
X81197538Y-69369047D02*
X81245157Y-69345237D01*
X81245157Y-69345237D02*
X81340395Y-69321428D01*
X81340395Y-69321428D02*
X81411823Y-69321428D01*
X81411823Y-69321428D02*
X81507061Y-69345237D01*
X81507061Y-69345237D02*
X81554680Y-69369047D01*
X81554680Y-69369047D02*
X81602300Y-69416666D01*
X81602300Y-69416666D02*
X81626109Y-69488094D01*
X81626109Y-69488094D02*
X81626109Y-69607142D01*
X81626109Y-68845237D02*
X81626109Y-69130951D01*
X81626109Y-68988094D02*
X81126109Y-68988094D01*
X81126109Y-68988094D02*
X81197538Y-69035713D01*
X81197538Y-69035713D02*
X81245157Y-69083332D01*
X81245157Y-69083332D02*
X81268966Y-69130951D01*
X81126109Y-68535714D02*
X81126109Y-68488095D01*
X81126109Y-68488095D02*
X81149919Y-68440476D01*
X81149919Y-68440476D02*
X81173728Y-68416666D01*
X81173728Y-68416666D02*
X81221347Y-68392857D01*
X81221347Y-68392857D02*
X81316585Y-68369047D01*
X81316585Y-68369047D02*
X81435633Y-68369047D01*
X81435633Y-68369047D02*
X81530871Y-68392857D01*
X81530871Y-68392857D02*
X81578490Y-68416666D01*
X81578490Y-68416666D02*
X81602300Y-68440476D01*
X81602300Y-68440476D02*
X81626109Y-68488095D01*
X81626109Y-68488095D02*
X81626109Y-68535714D01*
X81626109Y-68535714D02*
X81602300Y-68583333D01*
X81602300Y-68583333D02*
X81578490Y-68607142D01*
X81578490Y-68607142D02*
X81530871Y-68630952D01*
X81530871Y-68630952D02*
X81435633Y-68654761D01*
X81435633Y-68654761D02*
X81316585Y-68654761D01*
X81316585Y-68654761D02*
X81221347Y-68630952D01*
X81221347Y-68630952D02*
X81173728Y-68607142D01*
X81173728Y-68607142D02*
X81149919Y-68583333D01*
X81149919Y-68583333D02*
X81126109Y-68535714D01*
D11*
X80584885Y-67989285D02*
X80584885Y-68160714D01*
X80584885Y-68074999D02*
X80284885Y-68074999D01*
X80284885Y-68074999D02*
X80327742Y-68103571D01*
X80327742Y-68103571D02*
X80356314Y-68132142D01*
X80356314Y-68132142D02*
X80370600Y-68160714D01*
D10*
X70630952Y-61626109D02*
X70630952Y-61126109D01*
X70630952Y-61126109D02*
X70750000Y-61126109D01*
X70750000Y-61126109D02*
X70821428Y-61149919D01*
X70821428Y-61149919D02*
X70869047Y-61197538D01*
X70869047Y-61197538D02*
X70892857Y-61245157D01*
X70892857Y-61245157D02*
X70916666Y-61340395D01*
X70916666Y-61340395D02*
X70916666Y-61411823D01*
X70916666Y-61411823D02*
X70892857Y-61507061D01*
X70892857Y-61507061D02*
X70869047Y-61554680D01*
X70869047Y-61554680D02*
X70821428Y-61602300D01*
X70821428Y-61602300D02*
X70750000Y-61626109D01*
X70750000Y-61626109D02*
X70630952Y-61626109D01*
X71083333Y-61126109D02*
X71416666Y-61126109D01*
X71416666Y-61126109D02*
X71202381Y-61626109D01*
D11*
X72010714Y-60584885D02*
X71839285Y-60584885D01*
X71925000Y-60584885D02*
X71925000Y-60284885D01*
X71925000Y-60284885D02*
X71896428Y-60327742D01*
X71896428Y-60327742D02*
X71867857Y-60356314D01*
X71867857Y-60356314D02*
X71839285Y-60370600D01*
D10*
X71073111Y-56723728D02*
X71323111Y-56290716D01*
X71323111Y-56290716D02*
X71426210Y-56350240D01*
X71426210Y-56350240D02*
X71476164Y-56406573D01*
X71476164Y-56406573D02*
X71493594Y-56471622D01*
X71493594Y-56471622D02*
X71490404Y-56524766D01*
X71490404Y-56524766D02*
X71463404Y-56619150D01*
X71463404Y-56619150D02*
X71427690Y-56681009D01*
X71427690Y-56681009D02*
X71359451Y-56751583D01*
X71359451Y-56751583D02*
X71315022Y-56780917D01*
X71315022Y-56780917D02*
X71249973Y-56798347D01*
X71249973Y-56798347D02*
X71176210Y-56783252D01*
X71176210Y-56783252D02*
X71073111Y-56723728D01*
X71941701Y-56647859D02*
X71859222Y-56600240D01*
X71859222Y-56600240D02*
X71806078Y-56597050D01*
X71806078Y-56597050D02*
X71773554Y-56605765D01*
X71773554Y-56605765D02*
X71696600Y-56643814D01*
X71696600Y-56643814D02*
X71628362Y-56714388D01*
X71628362Y-56714388D02*
X71533123Y-56879345D01*
X71533123Y-56879345D02*
X71529934Y-56932489D01*
X71529934Y-56932489D02*
X71538648Y-56965014D01*
X71538648Y-56965014D02*
X71567983Y-57009443D01*
X71567983Y-57009443D02*
X71650462Y-57057062D01*
X71650462Y-57057062D02*
X71703606Y-57060252D01*
X71703606Y-57060252D02*
X71736130Y-57051537D01*
X71736130Y-57051537D02*
X71780559Y-57022202D01*
X71780559Y-57022202D02*
X71840083Y-56919104D01*
X71840083Y-56919104D02*
X71843273Y-56865960D01*
X71843273Y-56865960D02*
X71834558Y-56833435D01*
X71834558Y-56833435D02*
X71805224Y-56789006D01*
X71805224Y-56789006D02*
X71722745Y-56741387D01*
X71722745Y-56741387D02*
X71669601Y-56738197D01*
X71669601Y-56738197D02*
X71637076Y-56746912D01*
X71637076Y-56746912D02*
X71592647Y-56776247D01*
D11*
X72788632Y-56511882D02*
X72640170Y-56426168D01*
X72714401Y-56469025D02*
X72864401Y-56209217D01*
X72864401Y-56209217D02*
X72818229Y-56232047D01*
X72818229Y-56232047D02*
X72779199Y-56242505D01*
X72779199Y-56242505D02*
X72747313Y-56240591D01*
D10*
X79238095Y-59957419D02*
X79238095Y-58957419D01*
X79238095Y-59433609D02*
X79809523Y-59433609D01*
X79809523Y-59957419D02*
X79809523Y-58957419D01*
X80714285Y-59290752D02*
X80714285Y-59957419D01*
X80476190Y-58909800D02*
X80238095Y-59624085D01*
X80238095Y-59624085D02*
X80857142Y-59624085D01*
X86887679Y-54667904D02*
X86637679Y-54234891D01*
X86637679Y-54234891D02*
X86740777Y-54175367D01*
X86740777Y-54175367D02*
X86814541Y-54160273D01*
X86814541Y-54160273D02*
X86879590Y-54177702D01*
X86879590Y-54177702D02*
X86924019Y-54207037D01*
X86924019Y-54207037D02*
X86992258Y-54277611D01*
X86992258Y-54277611D02*
X87027972Y-54339470D01*
X87027972Y-54339470D02*
X87054971Y-54433853D01*
X87054971Y-54433853D02*
X87058161Y-54486997D01*
X87058161Y-54486997D02*
X87040731Y-54552046D01*
X87040731Y-54552046D02*
X86990777Y-54608380D01*
X86990777Y-54608380D02*
X86887679Y-54667904D01*
X87073881Y-54038035D02*
X87082596Y-54005511D01*
X87082596Y-54005511D02*
X87111931Y-53961082D01*
X87111931Y-53961082D02*
X87215029Y-53901558D01*
X87215029Y-53901558D02*
X87268173Y-53898368D01*
X87268173Y-53898368D02*
X87300698Y-53907083D01*
X87300698Y-53907083D02*
X87345127Y-53936417D01*
X87345127Y-53936417D02*
X87368936Y-53977657D01*
X87368936Y-53977657D02*
X87384031Y-54051420D01*
X87384031Y-54051420D02*
X87279452Y-54441713D01*
X87279452Y-54441713D02*
X87547508Y-54286951D01*
D11*
X86909829Y-55646746D02*
X86761368Y-55732460D01*
X86835598Y-55689603D02*
X86685598Y-55429795D01*
X86685598Y-55429795D02*
X86682283Y-55481196D01*
X86682283Y-55481196D02*
X86671826Y-55520226D01*
X86671826Y-55520226D02*
X86654225Y-55546883D01*
D10*
X73907223Y-52699221D02*
X74340236Y-52449221D01*
X74340236Y-52449221D02*
X74399760Y-52552319D01*
X74399760Y-52552319D02*
X74414854Y-52626083D01*
X74414854Y-52626083D02*
X74397425Y-52691132D01*
X74397425Y-52691132D02*
X74368090Y-52735561D01*
X74368090Y-52735561D02*
X74297516Y-52803800D01*
X74297516Y-52803800D02*
X74235657Y-52839514D01*
X74235657Y-52839514D02*
X74141274Y-52866513D01*
X74141274Y-52866513D02*
X74088130Y-52869703D01*
X74088130Y-52869703D02*
X74023081Y-52852273D01*
X74023081Y-52852273D02*
X73966747Y-52802319D01*
X73966747Y-52802319D02*
X73907223Y-52699221D01*
X74709284Y-53088430D02*
X74590236Y-52882234D01*
X74590236Y-52882234D02*
X74372135Y-52980662D01*
X74372135Y-52980662D02*
X74404659Y-52989376D01*
X74404659Y-52989376D02*
X74449088Y-53018711D01*
X74449088Y-53018711D02*
X74508612Y-53121809D01*
X74508612Y-53121809D02*
X74511802Y-53174953D01*
X74511802Y-53174953D02*
X74503087Y-53207478D01*
X74503087Y-53207478D02*
X74473752Y-53251907D01*
X74473752Y-53251907D02*
X74370654Y-53311431D01*
X74370654Y-53311431D02*
X74317510Y-53314621D01*
X74317510Y-53314621D02*
X74284986Y-53305906D01*
X74284986Y-53305906D02*
X74240557Y-53276571D01*
X74240557Y-53276571D02*
X74181033Y-53173473D01*
X74181033Y-53173473D02*
X74177843Y-53120329D01*
X74177843Y-53120329D02*
X74186558Y-53087804D01*
D11*
X75498831Y-53373517D02*
X75413117Y-53225056D01*
X75455974Y-53299286D02*
X75715782Y-53149286D01*
X75715782Y-53149286D02*
X75664381Y-53145971D01*
X75664381Y-53145971D02*
X75625351Y-53135514D01*
X75625351Y-53135514D02*
X75598694Y-53117913D01*
D10*
X76723728Y-68926888D02*
X76290716Y-68676888D01*
X76290716Y-68676888D02*
X76350240Y-68573789D01*
X76350240Y-68573789D02*
X76406573Y-68523835D01*
X76406573Y-68523835D02*
X76471622Y-68506405D01*
X76471622Y-68506405D02*
X76524766Y-68509595D01*
X76524766Y-68509595D02*
X76619150Y-68536595D01*
X76619150Y-68536595D02*
X76681009Y-68572309D01*
X76681009Y-68572309D02*
X76751583Y-68640548D01*
X76751583Y-68640548D02*
X76780917Y-68684977D01*
X76780917Y-68684977D02*
X76798347Y-68750026D01*
X76798347Y-68750026D02*
X76783252Y-68823789D01*
X76783252Y-68823789D02*
X76723728Y-68926888D01*
X76985633Y-68473255D02*
X77033252Y-68390777D01*
X77033252Y-68390777D02*
X77036442Y-68337633D01*
X77036442Y-68337633D02*
X77027727Y-68305108D01*
X77027727Y-68305108D02*
X76989678Y-68228155D01*
X76989678Y-68228155D02*
X76919104Y-68159916D01*
X76919104Y-68159916D02*
X76754147Y-68064678D01*
X76754147Y-68064678D02*
X76701003Y-68061488D01*
X76701003Y-68061488D02*
X76668478Y-68070203D01*
X76668478Y-68070203D02*
X76624049Y-68099537D01*
X76624049Y-68099537D02*
X76576430Y-68182016D01*
X76576430Y-68182016D02*
X76573240Y-68235160D01*
X76573240Y-68235160D02*
X76581955Y-68267684D01*
X76581955Y-68267684D02*
X76611290Y-68312114D01*
X76611290Y-68312114D02*
X76714388Y-68371637D01*
X76714388Y-68371637D02*
X76767532Y-68374827D01*
X76767532Y-68374827D02*
X76800056Y-68366112D01*
X76800056Y-68366112D02*
X76844485Y-68336778D01*
X76844485Y-68336778D02*
X76892105Y-68254299D01*
X76892105Y-68254299D02*
X76895294Y-68201155D01*
X76895294Y-68201155D02*
X76886579Y-68168631D01*
X76886579Y-68168631D02*
X76857245Y-68124202D01*
D11*
X76511882Y-67211367D02*
X76426168Y-67359829D01*
X76469025Y-67285598D02*
X76209217Y-67135598D01*
X76209217Y-67135598D02*
X76232047Y-67181770D01*
X76232047Y-67181770D02*
X76242505Y-67220800D01*
X76242505Y-67220800D02*
X76240591Y-67252686D01*
D10*
X83298856Y-51938430D02*
X82865844Y-51688430D01*
X82865844Y-51688430D02*
X82925368Y-51585331D01*
X82925368Y-51585331D02*
X82981701Y-51535377D01*
X82981701Y-51535377D02*
X83046750Y-51517947D01*
X83046750Y-51517947D02*
X83099894Y-51521137D01*
X83099894Y-51521137D02*
X83194278Y-51548137D01*
X83194278Y-51548137D02*
X83256137Y-51583851D01*
X83256137Y-51583851D02*
X83326711Y-51652090D01*
X83326711Y-51652090D02*
X83356045Y-51696519D01*
X83356045Y-51696519D02*
X83373475Y-51761568D01*
X83373475Y-51761568D02*
X83358380Y-51835331D01*
X83358380Y-51835331D02*
X83298856Y-51938430D01*
X83092034Y-51296656D02*
X83246796Y-51028601D01*
X83246796Y-51028601D02*
X83328420Y-51268176D01*
X83328420Y-51268176D02*
X83364134Y-51206317D01*
X83364134Y-51206317D02*
X83408563Y-51176983D01*
X83408563Y-51176983D02*
X83441088Y-51168268D01*
X83441088Y-51168268D02*
X83494232Y-51171458D01*
X83494232Y-51171458D02*
X83597330Y-51230982D01*
X83597330Y-51230982D02*
X83626665Y-51275411D01*
X83626665Y-51275411D02*
X83635380Y-51307935D01*
X83635380Y-51307935D02*
X83632190Y-51361079D01*
X83632190Y-51361079D02*
X83560761Y-51484797D01*
X83560761Y-51484797D02*
X83516332Y-51514132D01*
X83516332Y-51514132D02*
X83483808Y-51522847D01*
D11*
X83807460Y-52775055D02*
X83721746Y-52923517D01*
X83764603Y-52849286D02*
X83504795Y-52699286D01*
X83504795Y-52699286D02*
X83527625Y-52745458D01*
X83527625Y-52745458D02*
X83538083Y-52784488D01*
X83538083Y-52784488D02*
X83536169Y-52816374D01*
D10*
X85661122Y-68105351D02*
X85336122Y-67542434D01*
X85098205Y-68430351D02*
X85661122Y-68105351D01*
X89850000Y-59150000D02*
X89200000Y-59150000D01*
X89850000Y-59800000D02*
X89850000Y-59150000D01*
X79150000Y-50150000D02*
X79150000Y-50800000D01*
X79800000Y-50150000D02*
X79150000Y-50150000D01*
X88955351Y-64188878D02*
X88392434Y-63863878D01*
X88630351Y-64751795D02*
X88955351Y-64188878D01*
X71894649Y-65661122D02*
X72457566Y-65336122D01*
X71569649Y-65098205D02*
X71894649Y-65661122D01*
X80850000Y-69850000D02*
X80850000Y-69200000D01*
X80200000Y-69850000D02*
X80850000Y-69850000D01*
X70150000Y-60850000D02*
X70800000Y-60850000D01*
X70150000Y-60200000D02*
X70150000Y-60850000D01*
X71044649Y-55811122D02*
X71607566Y-56136122D01*
X71369649Y-55248205D02*
X71044649Y-55811122D01*
X88105351Y-54338878D02*
X87542434Y-54663878D01*
X88430351Y-54901795D02*
X88105351Y-54338878D01*
X74338878Y-51894649D02*
X74663878Y-52457566D01*
X74901795Y-51569649D02*
X74338878Y-51894649D01*
X75811122Y-68955351D02*
X76136122Y-68392434D01*
X75248205Y-68630351D02*
X75811122Y-68955351D01*
X84188878Y-51044649D02*
X83863878Y-51607566D01*
X84751795Y-51369649D02*
X84188878Y-51044649D01*
%LPC*%
G36*
G01*
X71485740Y-65752869D02*
X71312534Y-65852869D01*
G75*
G02*
X71175931Y-65816266I-50000J86603D01*
G01*
X70958431Y-65439544D01*
G75*
G02*
X70995034Y-65302941I86603J50000D01*
G01*
X71168240Y-65202941D01*
G75*
G02*
X71304843Y-65239544I50000J-86603D01*
G01*
X71522343Y-65616266D01*
G75*
G02*
X71485740Y-65752869I-86603J-50000D01*
G01*
G37*
G36*
G01*
X71078240Y-65047059D02*
X70905034Y-65147059D01*
G75*
G02*
X70768431Y-65110456I-50000J86603D01*
G01*
X70550931Y-64733734D01*
G75*
G02*
X70587534Y-64597131I86603J50000D01*
G01*
X70760740Y-64497131D01*
G75*
G02*
X70897343Y-64533734I50000J-86603D01*
G01*
X71114843Y-64910456D01*
G75*
G02*
X71078240Y-65047059I-86603J-50000D01*
G01*
G37*
G36*
X84323205Y-67088012D02*
G01*
X84756217Y-66838012D01*
X85006217Y-67271024D01*
X84573205Y-67521024D01*
X84323205Y-67088012D01*
G37*
G36*
X83543783Y-67538012D02*
G01*
X83976795Y-67288012D01*
X84226795Y-67721024D01*
X83793783Y-67971024D01*
X83543783Y-67538012D01*
G37*
G36*
X83993783Y-68317434D02*
G01*
X84426795Y-68067434D01*
X84676795Y-68500446D01*
X84243783Y-68750446D01*
X83993783Y-68317434D01*
G37*
G36*
X84773205Y-67867434D02*
G01*
X85206217Y-67617434D01*
X85456217Y-68050446D01*
X85023205Y-68300446D01*
X84773205Y-67867434D01*
G37*
D12*
X88550000Y-59550000D03*
X88550000Y-60450000D03*
X89450000Y-60450000D03*
X89450000Y-59550000D03*
X79550000Y-51450000D03*
X80450000Y-51450000D03*
X80450000Y-50550000D03*
X79550000Y-50550000D03*
G36*
X87288012Y-63976795D02*
G01*
X87538012Y-63543783D01*
X87971024Y-63793783D01*
X87721024Y-64226795D01*
X87288012Y-63976795D01*
G37*
G36*
X86838012Y-64756217D02*
G01*
X87088012Y-64323205D01*
X87521024Y-64573205D01*
X87271024Y-65006217D01*
X86838012Y-64756217D01*
G37*
G36*
X87617434Y-65206217D02*
G01*
X87867434Y-64773205D01*
X88300446Y-65023205D01*
X88050446Y-65456217D01*
X87617434Y-65206217D01*
G37*
G36*
X88067434Y-64426795D02*
G01*
X88317434Y-63993783D01*
X88750446Y-64243783D01*
X88500446Y-64676795D01*
X88067434Y-64426795D01*
G37*
G36*
X72911988Y-64323205D02*
G01*
X73161988Y-64756217D01*
X72728976Y-65006217D01*
X72478976Y-64573205D01*
X72911988Y-64323205D01*
G37*
G36*
X72461988Y-63543783D02*
G01*
X72711988Y-63976795D01*
X72278976Y-64226795D01*
X72028976Y-63793783D01*
X72461988Y-63543783D01*
G37*
G36*
X71682566Y-63993783D02*
G01*
X71932566Y-64426795D01*
X71499554Y-64676795D01*
X71249554Y-64243783D01*
X71682566Y-63993783D01*
G37*
G36*
X72132566Y-64773205D02*
G01*
X72382566Y-65206217D01*
X71949554Y-65456217D01*
X71699554Y-65023205D01*
X72132566Y-64773205D01*
G37*
D13*
X68000000Y-48000000D03*
D12*
X80450000Y-68550000D03*
X79550000Y-68550000D03*
X79550000Y-69450000D03*
X80450000Y-69450000D03*
G36*
G01*
X85752869Y-68514260D02*
X85852869Y-68687466D01*
G75*
G02*
X85816266Y-68824069I-86603J-50000D01*
G01*
X85439544Y-69041569D01*
G75*
G02*
X85302941Y-69004966I-50000J86603D01*
G01*
X85202941Y-68831760D01*
G75*
G02*
X85239544Y-68695157I86603J50000D01*
G01*
X85616266Y-68477657D01*
G75*
G02*
X85752869Y-68514260I50000J-86603D01*
G01*
G37*
G36*
G01*
X85047059Y-68921760D02*
X85147059Y-69094966D01*
G75*
G02*
X85110456Y-69231569I-86603J-50000D01*
G01*
X84733734Y-69449069D01*
G75*
G02*
X84597131Y-69412466I-50000J86603D01*
G01*
X84497131Y-69239260D01*
G75*
G02*
X84533734Y-69102657I86603J50000D01*
G01*
X84910456Y-68885157D01*
G75*
G02*
X85047059Y-68921760I50000J-86603D01*
G01*
G37*
X71450000Y-60450000D03*
X71450000Y-59550000D03*
X70550000Y-59550000D03*
X70550000Y-60450000D03*
G36*
X72711988Y-56023205D02*
G01*
X72461988Y-56456217D01*
X72028976Y-56206217D01*
X72278976Y-55773205D01*
X72711988Y-56023205D01*
G37*
G36*
X73161988Y-55243783D02*
G01*
X72911988Y-55676795D01*
X72478976Y-55426795D01*
X72728976Y-54993783D01*
X73161988Y-55243783D01*
G37*
G36*
X72382566Y-54793783D02*
G01*
X72132566Y-55226795D01*
X71699554Y-54976795D01*
X71949554Y-54543783D01*
X72382566Y-54793783D01*
G37*
G36*
X71932566Y-55573205D02*
G01*
X71682566Y-56006217D01*
X71249554Y-55756217D01*
X71499554Y-55323205D01*
X71932566Y-55573205D01*
G37*
G36*
G01*
X88794103Y-65677869D02*
X88620897Y-65577869D01*
G75*
G02*
X88584294Y-65441266I50000J86603D01*
G01*
X88801794Y-65064544D01*
G75*
G02*
X88938397Y-65027941I86603J-50000D01*
G01*
X89111603Y-65127941D01*
G75*
G02*
X89148206Y-65264544I-50000J-86603D01*
G01*
X88930706Y-65641266D01*
G75*
G02*
X88794103Y-65677869I-86603J50000D01*
G01*
G37*
G36*
G01*
X89201603Y-64972059D02*
X89028397Y-64872059D01*
G75*
G02*
X88991794Y-64735456I50000J86603D01*
G01*
X89209294Y-64358734D01*
G75*
G02*
X89345897Y-64322131I86603J-50000D01*
G01*
X89519103Y-64422131D01*
G75*
G02*
X89555706Y-64558734I-50000J-86603D01*
G01*
X89338206Y-64935456D01*
G75*
G02*
X89201603Y-64972059I-86603J50000D01*
G01*
G37*
D13*
X92000000Y-48000000D03*
G36*
G01*
X70760740Y-55502869D02*
X70587534Y-55402869D01*
G75*
G02*
X70550931Y-55266266I50000J86603D01*
G01*
X70768431Y-54889544D01*
G75*
G02*
X70905034Y-54852941I86603J-50000D01*
G01*
X71078240Y-54952941D01*
G75*
G02*
X71114843Y-55089544I-50000J-86603D01*
G01*
X70897343Y-55466266D01*
G75*
G02*
X70760740Y-55502869I-86603J50000D01*
G01*
G37*
G36*
G01*
X71168240Y-54797059D02*
X70995034Y-54697059D01*
G75*
G02*
X70958431Y-54560456I50000J86603D01*
G01*
X71175931Y-54183734D01*
G75*
G02*
X71312534Y-54147131I86603J-50000D01*
G01*
X71485740Y-54247131D01*
G75*
G02*
X71522343Y-54383734I-50000J-86603D01*
G01*
X71304843Y-54760456D01*
G75*
G02*
X71168240Y-54797059I-86603J50000D01*
G01*
G37*
G36*
G01*
X75502869Y-69239260D02*
X75402869Y-69412466D01*
G75*
G02*
X75266266Y-69449069I-86603J50000D01*
G01*
X74889544Y-69231569D01*
G75*
G02*
X74852941Y-69094966I50000J86603D01*
G01*
X74952941Y-68921760D01*
G75*
G02*
X75089544Y-68885157I86603J-50000D01*
G01*
X75466266Y-69102657D01*
G75*
G02*
X75502869Y-69239260I-50000J-86603D01*
G01*
G37*
G36*
G01*
X74797059Y-68831760D02*
X74697059Y-69004966D01*
G75*
G02*
X74560456Y-69041569I-86603J50000D01*
G01*
X74183734Y-68824069D01*
G75*
G02*
X74147131Y-68687466I50000J86603D01*
G01*
X74247131Y-68514260D01*
G75*
G02*
X74383734Y-68477657I86603J-50000D01*
G01*
X74760456Y-68695157D01*
G75*
G02*
X74797059Y-68831760I-50000J-86603D01*
G01*
G37*
G36*
G01*
X69750000Y-60725000D02*
X69550000Y-60725000D01*
G75*
G02*
X69450000Y-60625000I0J100000D01*
G01*
X69450000Y-60190000D01*
G75*
G02*
X69550000Y-60090000I100000J0D01*
G01*
X69750000Y-60090000D01*
G75*
G02*
X69850000Y-60190000I0J-100000D01*
G01*
X69850000Y-60625000D01*
G75*
G02*
X69750000Y-60725000I-100000J0D01*
G01*
G37*
G36*
G01*
X69750000Y-59910000D02*
X69550000Y-59910000D01*
G75*
G02*
X69450000Y-59810000I0J100000D01*
G01*
X69450000Y-59375000D01*
G75*
G02*
X69550000Y-59275000I100000J0D01*
G01*
X69750000Y-59275000D01*
G75*
G02*
X69850000Y-59375000I0J-100000D01*
G01*
X69850000Y-59810000D01*
G75*
G02*
X69750000Y-59910000I-100000J0D01*
G01*
G37*
G36*
G01*
X80725000Y-70250000D02*
X80725000Y-70450000D01*
G75*
G02*
X80625000Y-70550000I-100000J0D01*
G01*
X80190000Y-70550000D01*
G75*
G02*
X80090000Y-70450000I0J100000D01*
G01*
X80090000Y-70250000D01*
G75*
G02*
X80190000Y-70150000I100000J0D01*
G01*
X80625000Y-70150000D01*
G75*
G02*
X80725000Y-70250000I0J-100000D01*
G01*
G37*
G36*
G01*
X79910000Y-70250000D02*
X79910000Y-70450000D01*
G75*
G02*
X79810000Y-70550000I-100000J0D01*
G01*
X79375000Y-70550000D01*
G75*
G02*
X79275000Y-70450000I0J100000D01*
G01*
X79275000Y-70250000D01*
G75*
G02*
X79375000Y-70150000I100000J0D01*
G01*
X79810000Y-70150000D01*
G75*
G02*
X79910000Y-70250000I0J-100000D01*
G01*
G37*
G36*
G01*
X84497131Y-50760740D02*
X84597131Y-50587534D01*
G75*
G02*
X84733734Y-50550931I86603J-50000D01*
G01*
X85110456Y-50768431D01*
G75*
G02*
X85147059Y-50905034I-50000J-86603D01*
G01*
X85047059Y-51078240D01*
G75*
G02*
X84910456Y-51114843I-86603J50000D01*
G01*
X84533734Y-50897343D01*
G75*
G02*
X84497131Y-50760740I50000J86603D01*
G01*
G37*
G36*
G01*
X85202941Y-51168240D02*
X85302941Y-50995034D01*
G75*
G02*
X85439544Y-50958431I86603J-50000D01*
G01*
X85816266Y-51175931D01*
G75*
G02*
X85852869Y-51312534I-50000J-86603D01*
G01*
X85752869Y-51485740D01*
G75*
G02*
X85616266Y-51522343I-86603J50000D01*
G01*
X85239544Y-51304843D01*
G75*
G02*
X85202941Y-51168240I50000J86603D01*
G01*
G37*
G36*
G01*
X88514260Y-54247131D02*
X88687466Y-54147131D01*
G75*
G02*
X88824069Y-54183734I50000J-86603D01*
G01*
X89041569Y-54560456D01*
G75*
G02*
X89004966Y-54697059I-86603J-50000D01*
G01*
X88831760Y-54797059D01*
G75*
G02*
X88695157Y-54760456I-50000J86603D01*
G01*
X88477657Y-54383734D01*
G75*
G02*
X88514260Y-54247131I86603J50000D01*
G01*
G37*
G36*
G01*
X88921760Y-54952941D02*
X89094966Y-54852941D01*
G75*
G02*
X89231569Y-54889544I50000J-86603D01*
G01*
X89449069Y-55266266D01*
G75*
G02*
X89412466Y-55402869I-86603J-50000D01*
G01*
X89239260Y-55502869D01*
G75*
G02*
X89102657Y-55466266I-50000J86603D01*
G01*
X88885157Y-55089544D01*
G75*
G02*
X88921760Y-54952941I86603J50000D01*
G01*
G37*
G36*
G01*
X74247131Y-51485740D02*
X74147131Y-51312534D01*
G75*
G02*
X74183734Y-51175931I86603J50000D01*
G01*
X74560456Y-50958431D01*
G75*
G02*
X74697059Y-50995034I50000J-86603D01*
G01*
X74797059Y-51168240D01*
G75*
G02*
X74760456Y-51304843I-86603J-50000D01*
G01*
X74383734Y-51522343D01*
G75*
G02*
X74247131Y-51485740I-50000J86603D01*
G01*
G37*
G36*
G01*
X74952941Y-51078240D02*
X74852941Y-50905034D01*
G75*
G02*
X74889544Y-50768431I86603J50000D01*
G01*
X75266266Y-50550931D01*
G75*
G02*
X75402869Y-50587534I50000J-86603D01*
G01*
X75502869Y-50760740D01*
G75*
G02*
X75466266Y-50897343I-86603J-50000D01*
G01*
X75089544Y-51114843D01*
G75*
G02*
X74952941Y-51078240I-50000J86603D01*
G01*
G37*
X68000000Y-72000000D03*
G36*
X87088012Y-55676795D02*
G01*
X86838012Y-55243783D01*
X87271024Y-54993783D01*
X87521024Y-55426795D01*
X87088012Y-55676795D01*
G37*
G36*
X87538012Y-56456217D02*
G01*
X87288012Y-56023205D01*
X87721024Y-55773205D01*
X87971024Y-56206217D01*
X87538012Y-56456217D01*
G37*
G36*
X88317434Y-56006217D02*
G01*
X88067434Y-55573205D01*
X88500446Y-55323205D01*
X88750446Y-55756217D01*
X88317434Y-56006217D01*
G37*
G36*
X87867434Y-55226795D02*
G01*
X87617434Y-54793783D01*
X88050446Y-54543783D01*
X88300446Y-54976795D01*
X87867434Y-55226795D01*
G37*
G36*
G01*
X90250000Y-59275000D02*
X90450000Y-59275000D01*
G75*
G02*
X90550000Y-59375000I0J-100000D01*
G01*
X90550000Y-59810000D01*
G75*
G02*
X90450000Y-59910000I-100000J0D01*
G01*
X90250000Y-59910000D01*
G75*
G02*
X90150000Y-59810000I0J100000D01*
G01*
X90150000Y-59375000D01*
G75*
G02*
X90250000Y-59275000I100000J0D01*
G01*
G37*
G36*
G01*
X90250000Y-60090000D02*
X90450000Y-60090000D01*
G75*
G02*
X90550000Y-60190000I0J-100000D01*
G01*
X90550000Y-60625000D01*
G75*
G02*
X90450000Y-60725000I-100000J0D01*
G01*
X90250000Y-60725000D01*
G75*
G02*
X90150000Y-60625000I0J100000D01*
G01*
X90150000Y-60190000D01*
G75*
G02*
X90250000Y-60090000I100000J0D01*
G01*
G37*
G36*
X75676795Y-52911988D02*
G01*
X75243783Y-53161988D01*
X74993783Y-52728976D01*
X75426795Y-52478976D01*
X75676795Y-52911988D01*
G37*
G36*
X76456217Y-52461988D02*
G01*
X76023205Y-52711988D01*
X75773205Y-52278976D01*
X76206217Y-52028976D01*
X76456217Y-52461988D01*
G37*
G36*
X76006217Y-51682566D02*
G01*
X75573205Y-51932566D01*
X75323205Y-51499554D01*
X75756217Y-51249554D01*
X76006217Y-51682566D01*
G37*
G36*
X75226795Y-52132566D02*
G01*
X74793783Y-52382566D01*
X74543783Y-51949554D01*
X74976795Y-51699554D01*
X75226795Y-52132566D01*
G37*
G36*
X76023205Y-67288012D02*
G01*
X76456217Y-67538012D01*
X76206217Y-67971024D01*
X75773205Y-67721024D01*
X76023205Y-67288012D01*
G37*
G36*
X75243783Y-66838012D02*
G01*
X75676795Y-67088012D01*
X75426795Y-67521024D01*
X74993783Y-67271024D01*
X75243783Y-66838012D01*
G37*
G36*
X74793783Y-67617434D02*
G01*
X75226795Y-67867434D01*
X74976795Y-68300446D01*
X74543783Y-68050446D01*
X74793783Y-67617434D01*
G37*
G36*
X75573205Y-68067434D02*
G01*
X76006217Y-68317434D01*
X75756217Y-68750446D01*
X75323205Y-68500446D01*
X75573205Y-68067434D01*
G37*
G36*
X83976795Y-52711988D02*
G01*
X83543783Y-52461988D01*
X83793783Y-52028976D01*
X84226795Y-52278976D01*
X83976795Y-52711988D01*
G37*
G36*
X84756217Y-53161988D02*
G01*
X84323205Y-52911988D01*
X84573205Y-52478976D01*
X85006217Y-52728976D01*
X84756217Y-53161988D01*
G37*
G36*
X85206217Y-52382566D02*
G01*
X84773205Y-52132566D01*
X85023205Y-51699554D01*
X85456217Y-51949554D01*
X85206217Y-52382566D01*
G37*
G36*
X84426795Y-51932566D02*
G01*
X83993783Y-51682566D01*
X84243783Y-51249554D01*
X84676795Y-51499554D01*
X84426795Y-51932566D01*
G37*
G36*
G01*
X89635000Y-61580000D02*
X89635000Y-61780000D01*
G75*
G02*
X89535000Y-61880000I-100000J0D01*
G01*
X89100000Y-61880000D01*
G75*
G02*
X89000000Y-61780000I0J100000D01*
G01*
X89000000Y-61580000D01*
G75*
G02*
X89100000Y-61480000I100000J0D01*
G01*
X89535000Y-61480000D01*
G75*
G02*
X89635000Y-61580000I0J-100000D01*
G01*
G37*
G36*
G01*
X88820000Y-61580000D02*
X88820000Y-61780000D01*
G75*
G02*
X88720000Y-61880000I-100000J0D01*
G01*
X88285000Y-61880000D01*
G75*
G02*
X88185000Y-61780000I0J100000D01*
G01*
X88185000Y-61580000D01*
G75*
G02*
X88285000Y-61480000I100000J0D01*
G01*
X88720000Y-61480000D01*
G75*
G02*
X88820000Y-61580000I0J-100000D01*
G01*
G37*
G36*
G01*
X79275000Y-49750000D02*
X79275000Y-49550000D01*
G75*
G02*
X79375000Y-49450000I100000J0D01*
G01*
X79810000Y-49450000D01*
G75*
G02*
X79910000Y-49550000I0J-100000D01*
G01*
X79910000Y-49750000D01*
G75*
G02*
X79810000Y-49850000I-100000J0D01*
G01*
X79375000Y-49850000D01*
G75*
G02*
X79275000Y-49750000I0J100000D01*
G01*
G37*
G36*
G01*
X80090000Y-49750000D02*
X80090000Y-49550000D01*
G75*
G02*
X80190000Y-49450000I100000J0D01*
G01*
X80625000Y-49450000D01*
G75*
G02*
X80725000Y-49550000I0J-100000D01*
G01*
X80725000Y-49750000D01*
G75*
G02*
X80625000Y-49850000I-100000J0D01*
G01*
X80190000Y-49850000D01*
G75*
G02*
X80090000Y-49750000I0J100000D01*
G01*
G37*
%LPD*%
M02*
