G04 #@! TF.GenerationSoftware,KiCad,Pcbnew,7.0.2.1-36-g582732918d-dirty-deb11*
G04 #@! TF.CreationDate,2023-05-26T11:20:27+00:00*
G04 #@! TF.ProjectId,pedalboard-led-ring,70656461-6c62-46f6-9172-642d6c65642d,rev?*
G04 #@! TF.SameCoordinates,Original*
G04 #@! TF.FileFunction,Soldermask,Bot*
G04 #@! TF.FilePolarity,Negative*
%FSLAX46Y46*%
G04 Gerber Fmt 4.6, Leading zero omitted, Abs format (unit mm)*
G04 Created by KiCad (PCBNEW 7.0.2.1-36-g582732918d-dirty-deb11) date 2023-05-26 11:20:27*
%MOMM*%
%LPD*%
G01*
G04 APERTURE LIST*
%ADD10C,0.010000*%
%ADD11R,1.000000X3.000000*%
%ADD12R,1.000000X1.000000*%
%ADD13R,0.700000X0.250000*%
%ADD14R,0.610000X2.200000*%
G04 APERTURE END LIST*
D10*
X87700000Y-67700000D02*
X86500000Y-67700000D01*
X86500000Y-67200000D01*
X85400000Y-67200000D01*
X85400000Y-66000000D01*
X86500000Y-66000000D01*
X86500000Y-65500000D01*
X87700000Y-65500000D01*
X87700000Y-67700000D01*
G36*
X87700000Y-67700000D02*
G01*
X86500000Y-67700000D01*
X86500000Y-67200000D01*
X85400000Y-67200000D01*
X85400000Y-66000000D01*
X86500000Y-66000000D01*
X86500000Y-65500000D01*
X87700000Y-65500000D01*
X87700000Y-67700000D01*
G37*
X90000000Y-66000000D02*
X91100000Y-66000000D01*
X91100000Y-67200000D01*
X90000000Y-67200000D01*
X90000000Y-67700000D01*
X88800000Y-67700000D01*
X88800000Y-65500000D01*
X90000000Y-65500000D01*
X90000000Y-66000000D01*
G36*
X90000000Y-66000000D02*
G01*
X91100000Y-66000000D01*
X91100000Y-67200000D01*
X90000000Y-67200000D01*
X90000000Y-67700000D01*
X88800000Y-67700000D01*
X88800000Y-65500000D01*
X90000000Y-65500000D01*
X90000000Y-66000000D01*
G37*
G36*
G01*
X91450000Y-54855000D02*
X91450000Y-54555000D01*
G75*
G02*
X91600000Y-54405000I150000J0D01*
G01*
X93250000Y-54405000D01*
G75*
G02*
X93400000Y-54555000I0J-150000D01*
G01*
X93400000Y-54855000D01*
G75*
G02*
X93250000Y-55005000I-150000J0D01*
G01*
X91600000Y-55005000D01*
G75*
G02*
X91450000Y-54855000I0J150000D01*
G01*
G37*
G36*
G01*
X91450000Y-53585000D02*
X91450000Y-53285000D01*
G75*
G02*
X91600000Y-53135000I150000J0D01*
G01*
X93250000Y-53135000D01*
G75*
G02*
X93400000Y-53285000I0J-150000D01*
G01*
X93400000Y-53585000D01*
G75*
G02*
X93250000Y-53735000I-150000J0D01*
G01*
X91600000Y-53735000D01*
G75*
G02*
X91450000Y-53585000I0J150000D01*
G01*
G37*
G36*
G01*
X91450000Y-52315000D02*
X91450000Y-52015000D01*
G75*
G02*
X91600000Y-51865000I150000J0D01*
G01*
X93250000Y-51865000D01*
G75*
G02*
X93400000Y-52015000I0J-150000D01*
G01*
X93400000Y-52315000D01*
G75*
G02*
X93250000Y-52465000I-150000J0D01*
G01*
X91600000Y-52465000D01*
G75*
G02*
X91450000Y-52315000I0J150000D01*
G01*
G37*
G36*
G01*
X91450000Y-51045000D02*
X91450000Y-50745000D01*
G75*
G02*
X91600000Y-50595000I150000J0D01*
G01*
X93250000Y-50595000D01*
G75*
G02*
X93400000Y-50745000I0J-150000D01*
G01*
X93400000Y-51045000D01*
G75*
G02*
X93250000Y-51195000I-150000J0D01*
G01*
X91600000Y-51195000D01*
G75*
G02*
X91450000Y-51045000I0J150000D01*
G01*
G37*
G36*
G01*
X96400000Y-51045000D02*
X96400000Y-50745000D01*
G75*
G02*
X96550000Y-50595000I150000J0D01*
G01*
X98200000Y-50595000D01*
G75*
G02*
X98350000Y-50745000I0J-150000D01*
G01*
X98350000Y-51045000D01*
G75*
G02*
X98200000Y-51195000I-150000J0D01*
G01*
X96550000Y-51195000D01*
G75*
G02*
X96400000Y-51045000I0J150000D01*
G01*
G37*
G36*
G01*
X96400000Y-52315000D02*
X96400000Y-52015000D01*
G75*
G02*
X96550000Y-51865000I150000J0D01*
G01*
X98200000Y-51865000D01*
G75*
G02*
X98350000Y-52015000I0J-150000D01*
G01*
X98350000Y-52315000D01*
G75*
G02*
X98200000Y-52465000I-150000J0D01*
G01*
X96550000Y-52465000D01*
G75*
G02*
X96400000Y-52315000I0J150000D01*
G01*
G37*
G36*
G01*
X96400000Y-53585000D02*
X96400000Y-53285000D01*
G75*
G02*
X96550000Y-53135000I150000J0D01*
G01*
X98200000Y-53135000D01*
G75*
G02*
X98350000Y-53285000I0J-150000D01*
G01*
X98350000Y-53585000D01*
G75*
G02*
X98200000Y-53735000I-150000J0D01*
G01*
X96550000Y-53735000D01*
G75*
G02*
X96400000Y-53585000I0J150000D01*
G01*
G37*
G36*
G01*
X96400000Y-54855000D02*
X96400000Y-54555000D01*
G75*
G02*
X96550000Y-54405000I150000J0D01*
G01*
X98200000Y-54405000D01*
G75*
G02*
X98350000Y-54555000I0J-150000D01*
G01*
X98350000Y-54855000D01*
G75*
G02*
X98200000Y-55005000I-150000J0D01*
G01*
X96550000Y-55005000D01*
G75*
G02*
X96400000Y-54855000I0J150000D01*
G01*
G37*
G36*
G01*
X89675000Y-60250000D02*
X89675000Y-58950000D01*
G75*
G02*
X89925000Y-58700000I250000J0D01*
G01*
X90750000Y-58700000D01*
G75*
G02*
X91000000Y-58950000I0J-250000D01*
G01*
X91000000Y-60250000D01*
G75*
G02*
X90750000Y-60500000I-250000J0D01*
G01*
X89925000Y-60500000D01*
G75*
G02*
X89675000Y-60250000I0J250000D01*
G01*
G37*
G36*
G01*
X92800000Y-60250000D02*
X92800000Y-58950000D01*
G75*
G02*
X93050000Y-58700000I250000J0D01*
G01*
X93875000Y-58700000D01*
G75*
G02*
X94125000Y-58950000I0J-250000D01*
G01*
X94125000Y-60250000D01*
G75*
G02*
X93875000Y-60500000I-250000J0D01*
G01*
X93050000Y-60500000D01*
G75*
G02*
X92800000Y-60250000I0J250000D01*
G01*
G37*
D11*
X93060000Y-70520000D03*
X93060000Y-65480000D03*
X95600000Y-70520000D03*
X95600000Y-65480000D03*
X98140000Y-70520000D03*
X98140000Y-65480000D03*
D12*
X84000000Y-71150000D03*
X84000000Y-72850000D03*
X99800000Y-53450000D03*
X99800000Y-51750000D03*
D13*
X87325000Y-71250000D03*
X87325000Y-71750000D03*
X87325000Y-72250000D03*
X87325000Y-72750000D03*
X85475000Y-72750000D03*
X85475000Y-72250000D03*
X85475000Y-71750000D03*
X85475000Y-71250000D03*
D14*
X86400000Y-72000000D03*
G36*
G01*
X97325000Y-55875000D02*
X98275000Y-55875000D01*
G75*
G02*
X98525000Y-56125000I0J-250000D01*
G01*
X98525000Y-56800000D01*
G75*
G02*
X98275000Y-57050000I-250000J0D01*
G01*
X97325000Y-57050000D01*
G75*
G02*
X97075000Y-56800000I0J250000D01*
G01*
X97075000Y-56125000D01*
G75*
G02*
X97325000Y-55875000I250000J0D01*
G01*
G37*
G36*
G01*
X97325000Y-57950000D02*
X98275000Y-57950000D01*
G75*
G02*
X98525000Y-58200000I0J-250000D01*
G01*
X98525000Y-58875000D01*
G75*
G02*
X98275000Y-59125000I-250000J0D01*
G01*
X97325000Y-59125000D01*
G75*
G02*
X97075000Y-58875000I0J250000D01*
G01*
X97075000Y-58200000D01*
G75*
G02*
X97325000Y-57950000I250000J0D01*
G01*
G37*
G36*
G01*
X84625000Y-68825000D02*
X84625000Y-69775000D01*
G75*
G02*
X84375000Y-70025000I-250000J0D01*
G01*
X83700000Y-70025000D01*
G75*
G02*
X83450000Y-69775000I0J250000D01*
G01*
X83450000Y-68825000D01*
G75*
G02*
X83700000Y-68575000I250000J0D01*
G01*
X84375000Y-68575000D01*
G75*
G02*
X84625000Y-68825000I0J-250000D01*
G01*
G37*
G36*
G01*
X82550000Y-68825000D02*
X82550000Y-69775000D01*
G75*
G02*
X82300000Y-70025000I-250000J0D01*
G01*
X81625000Y-70025000D01*
G75*
G02*
X81375000Y-69775000I0J250000D01*
G01*
X81375000Y-68825000D01*
G75*
G02*
X81625000Y-68575000I250000J0D01*
G01*
X82300000Y-68575000D01*
G75*
G02*
X82550000Y-68825000I0J-250000D01*
G01*
G37*
G36*
G01*
X90650000Y-73725000D02*
X89350000Y-73725000D01*
G75*
G02*
X89100000Y-73475000I0J250000D01*
G01*
X89100000Y-72650000D01*
G75*
G02*
X89350000Y-72400000I250000J0D01*
G01*
X90650000Y-72400000D01*
G75*
G02*
X90900000Y-72650000I0J-250000D01*
G01*
X90900000Y-73475000D01*
G75*
G02*
X90650000Y-73725000I-250000J0D01*
G01*
G37*
G36*
G01*
X90650000Y-70600000D02*
X89350000Y-70600000D01*
G75*
G02*
X89100000Y-70350000I0J250000D01*
G01*
X89100000Y-69525000D01*
G75*
G02*
X89350000Y-69275000I250000J0D01*
G01*
X90650000Y-69275000D01*
G75*
G02*
X90900000Y-69525000I0J-250000D01*
G01*
X90900000Y-70350000D01*
G75*
G02*
X90650000Y-70600000I-250000J0D01*
G01*
G37*
M02*
