<?xml version="1.0" standalone="no"?>
 <!DOCTYPE svg PUBLIC "-//W3C//DTD SVG 1.1//EN" 
 "http://www.w3.org/Graphics/SVG/1.1/DTD/svg11.dtd"> 
<svg
  xmlns:svg="http://www.w3.org/2000/svg"
  xmlns="http://www.w3.org/2000/svg"
  xmlns:xlink="http://www.w3.org/1999/xlink"
  version="1.1"
  width="297.0022mm" height="210.0072mm" viewBox="0.0000 0.0000 297.0022 210.0072">
<title>SVG Image created as pedalboard-led-ring-B_Fab.svg date 2023/05/26 12:49:38 </title>
  <desc>Image generated by PCBNEW </desc>
<g style="fill:#000000; fill-opacity:1.0000;stroke:#000000; stroke-opacity:1.0000;
stroke-linecap:round; stroke-linejoin:round;"
 transform="translate(0 0) scale(1 1)">
</g>
<g style="fill:#000000; fill-opacity:0.0; 
stroke:#000000; stroke-width:0.0000; stroke-opacity:1; 
stroke-linecap:round; stroke-linejoin:round;">
</g>
<g style="fill:#000000; fill-opacity:0.0; 
stroke:#000000; stroke-width:0.1500; stroke-opacity:1; 
stroke-linecap:round; stroke-linejoin:round;">
<text x="202.1022" y="49.9000"
transform="scale(-1 1) translate(-404.204400 0)"
textLength="6.5560" font-size="1.3333" lengthAdjust="spacingAndGlyphs"
text-anchor="middle" opacity="0">TLC5973</text>
<g class="stroked-text"><desc>TLC5973</desc>
<path d="M199.0070 48.8626
L199.5784 48.8626
" />
<path d="M199.2927 49.8626
L199.2927 48.8626
" />
<path d="M200.3879 49.8626
L199.9117 49.8626
" />
<path d="M199.9117 49.8626
L199.9117 48.8626
" />
<path d="M201.2927 49.7674
L201.2451 49.8150
" />
<path d="M201.2451 49.8150
L201.1022 49.8626
" />
<path d="M201.1022 49.8626
L201.0070 49.8626
" />
<path d="M201.0070 49.8626
L200.8641 49.8150
" />
<path d="M200.8641 49.8150
L200.7689 49.7198
" />
<path d="M200.7689 49.7198
L200.7212 49.6245
" />
<path d="M200.7212 49.6245
L200.6736 49.4340
" />
<path d="M200.6736 49.4340
L200.6736 49.2912
" />
<path d="M200.6736 49.2912
L200.7212 49.1007
" />
<path d="M200.7212 49.1007
L200.7689 49.0055
" />
<path d="M200.7689 49.0055
L200.8641 48.9102
" />
<path d="M200.8641 48.9102
L201.0070 48.8626
" />
<path d="M201.0070 48.8626
L201.1022 48.8626
" />
<path d="M201.1022 48.8626
L201.2451 48.9102
" />
<path d="M201.2451 48.9102
L201.2927 48.9579
" />
<path d="M202.1974 48.8626
L201.7212 48.8626
" />
<path d="M201.7212 48.8626
L201.6736 49.3388
" />
<path d="M201.6736 49.3388
L201.7212 49.2912
" />
<path d="M201.7212 49.2912
L201.8165 49.2436
" />
<path d="M201.8165 49.2436
L202.0546 49.2436
" />
<path d="M202.0546 49.2436
L202.1498 49.2912
" />
<path d="M202.1498 49.2912
L202.1974 49.3388
" />
<path d="M202.1974 49.3388
L202.2451 49.4340
" />
<path d="M202.2451 49.4340
L202.2451 49.6721
" />
<path d="M202.2451 49.6721
L202.1974 49.7674
" />
<path d="M202.1974 49.7674
L202.1498 49.8150
" />
<path d="M202.1498 49.8150
L202.0546 49.8626
" />
<path d="M202.0546 49.8626
L201.8165 49.8626
" />
<path d="M201.8165 49.8626
L201.7212 49.8150
" />
<path d="M201.7212 49.8150
L201.6736 49.7674
" />
<path d="M202.7212 49.8626
L202.9117 49.8626
" />
<path d="M202.9117 49.8626
L203.0070 49.8150
" />
<path d="M203.0070 49.8150
L203.0546 49.7674
" />
<path d="M203.0546 49.7674
L203.1498 49.6245
" />
<path d="M203.1498 49.6245
L203.1974 49.4340
" />
<path d="M203.1974 49.4340
L203.1974 49.0531
" />
<path d="M203.1974 49.0531
L203.1498 48.9579
" />
<path d="M203.1498 48.9579
L203.1022 48.9102
" />
<path d="M203.1022 48.9102
L203.0070 48.8626
" />
<path d="M203.0070 48.8626
L202.8165 48.8626
" />
<path d="M202.8165 48.8626
L202.7212 48.9102
" />
<path d="M202.7212 48.9102
L202.6736 48.9579
" />
<path d="M202.6736 48.9579
L202.6260 49.0531
" />
<path d="M202.6260 49.0531
L202.6260 49.2912
" />
<path d="M202.6260 49.2912
L202.6736 49.3864
" />
<path d="M202.6736 49.3864
L202.7212 49.4340
" />
<path d="M202.7212 49.4340
L202.8165 49.4817
" />
<path d="M202.8165 49.4817
L203.0070 49.4817
" />
<path d="M203.0070 49.4817
L203.1022 49.4340
" />
<path d="M203.1022 49.4340
L203.1498 49.3864
" />
<path d="M203.1498 49.3864
L203.1974 49.2912
" />
<path d="M203.5308 48.8626
L204.1974 48.8626
" />
<path d="M204.1974 48.8626
L203.7689 49.8626
" />
<path d="M204.4832 48.8626
L205.1022 48.8626
" />
<path d="M205.1022 48.8626
L204.7689 49.2436
" />
<path d="M204.7689 49.2436
L204.9117 49.2436
" />
<path d="M204.9117 49.2436
L205.0070 49.2912
" />
<path d="M205.0070 49.2912
L205.0546 49.3388
" />
<path d="M205.0546 49.3388
L205.1022 49.4340
" />
<path d="M205.1022 49.4340
L205.1022 49.6721
" />
<path d="M205.1022 49.6721
L205.0546 49.7674
" />
<path d="M205.0546 49.7674
L205.0070 49.8150
" />
<path d="M205.0070 49.8150
L204.9117 49.8626
" />
<path d="M204.9117 49.8626
L204.6260 49.8626
" />
<path d="M204.6260 49.8626
L204.5308 49.8150
" />
<path d="M204.5308 49.8150
L204.4832 49.7674
" />
</g><text x="202.1022" y="53.2900"
transform="scale(-1 1) translate(-404.204400 0)"
textLength="2.1390" font-size="1.3067" lengthAdjust="spacingAndGlyphs"
text-anchor="middle" opacity="0">U1</text>
<g class="stroked-text"><desc>U1</desc>
<path d="M201.3555 52.2734
L201.3555 53.0667
" />
<path d="M201.3555 53.0667
L201.4022 53.1600
" />
<path d="M201.4022 53.1600
L201.4489 53.2067
" />
<path d="M201.4489 53.2067
L201.5422 53.2534
" />
<path d="M201.5422 53.2534
L201.7289 53.2534
" />
<path d="M201.7289 53.2534
L201.8222 53.2067
" />
<path d="M201.8222 53.2067
L201.8689 53.1600
" />
<path d="M201.8689 53.1600
L201.9155 53.0667
" />
<path d="M201.9155 53.0667
L201.9155 52.2734
" />
<path d="M202.8955 53.2534
L202.3355 53.2534
" />
<path d="M202.6155 53.2534
L202.6155 52.2734
" />
<path d="M202.6155 52.2734
L202.5222 52.4134
" />
<path d="M202.5222 52.4134
L202.4289 52.5067
" />
<path d="M202.4289 52.5067
L202.3355 52.5534
" />
</g><text x="200.3622" y="64.6950"
transform="scale(-1 1) translate(-400.724400 0)"
textLength="4.0321" font-size="1.3333" lengthAdjust="spacingAndGlyphs"
text-anchor="middle" opacity="0">10uH</text>
<g class="stroked-text"><desc>10uH</desc>
<path d="M199.1955 64.6576
L198.6241 64.6576
" />
<path d="M198.9098 64.6576
L198.9098 63.6576
" />
<path d="M198.9098 63.6576
L198.8146 63.8005
" />
<path d="M198.8146 63.8005
L198.7193 63.8957
" />
<path d="M198.7193 63.8957
L198.6241 63.9433
" />
<path d="M199.8146 63.6576
L199.9098 63.6576
" />
<path d="M199.9098 63.6576
L200.0051 63.7052
" />
<path d="M200.0051 63.7052
L200.0527 63.7529
" />
<path d="M200.0527 63.7529
L200.1003 63.8481
" />
<path d="M200.1003 63.8481
L200.1479 64.0386
" />
<path d="M200.1479 64.0386
L200.1479 64.2767
" />
<path d="M200.1479 64.2767
L200.1003 64.4671
" />
<path d="M200.1003 64.4671
L200.0527 64.5624
" />
<path d="M200.0527 64.5624
L200.0051 64.6100
" />
<path d="M200.0051 64.6100
L199.9098 64.6576
" />
<path d="M199.9098 64.6576
L199.8146 64.6576
" />
<path d="M199.8146 64.6576
L199.7193 64.6100
" />
<path d="M199.7193 64.6100
L199.6717 64.5624
" />
<path d="M199.6717 64.5624
L199.6241 64.4671
" />
<path d="M199.6241 64.4671
L199.5765 64.2767
" />
<path d="M199.5765 64.2767
L199.5765 64.0386
" />
<path d="M199.5765 64.0386
L199.6241 63.8481
" />
<path d="M199.6241 63.8481
L199.6717 63.7529
" />
<path d="M199.6717 63.7529
L199.7193 63.7052
" />
<path d="M199.7193 63.7052
L199.8146 63.6576
" />
<path d="M201.0051 63.9910
L201.0051 64.6576
" />
<path d="M200.5765 63.9910
L200.5765 64.5148
" />
<path d="M200.5765 64.5148
L200.6241 64.6100
" />
<path d="M200.6241 64.6100
L200.7193 64.6576
" />
<path d="M200.7193 64.6576
L200.8622 64.6576
" />
<path d="M200.8622 64.6576
L200.9574 64.6100
" />
<path d="M200.9574 64.6100
L201.0051 64.5624
" />
<path d="M201.4812 64.6576
L201.4812 63.6576
" />
<path d="M201.4812 64.1338
L202.0527 64.1338
" />
<path d="M202.0527 64.6576
L202.0527 63.6576
" />
</g><text x="205.1022" y="58.2500"
transform="scale(-1 1) translate(-410.204400 0)"
textLength="12.4131" font-size="1.3333" lengthAdjust="spacingAndGlyphs"
text-anchor="middle" opacity="0">2.2uF_0603_25V</text>
<g class="stroked-text"><desc>2.2uF_0603_25V</desc>
<path d="M199.1736 57.3079
L199.2212 57.2602
" />
<path d="M199.2212 57.2602
L199.3165 57.2126
" />
<path d="M199.3165 57.2126
L199.5546 57.2126
" />
<path d="M199.5546 57.2126
L199.6498 57.2602
" />
<path d="M199.6498 57.2602
L199.6974 57.3079
" />
<path d="M199.6974 57.3079
L199.7451 57.4031
" />
<path d="M199.7451 57.4031
L199.7451 57.4983
" />
<path d="M199.7451 57.4983
L199.6974 57.6412
" />
<path d="M199.6974 57.6412
L199.1260 58.2126
" />
<path d="M199.1260 58.2126
L199.7451 58.2126
" />
<path d="M200.1736 58.1174
L200.2212 58.1650
" />
<path d="M200.2212 58.1650
L200.1736 58.2126
" />
<path d="M200.1736 58.2126
L200.1260 58.1650
" />
<path d="M200.1260 58.1650
L200.1736 58.1174
" />
<path d="M200.1736 58.1174
L200.1736 58.2126
" />
<path d="M200.6022 57.3079
L200.6498 57.2602
" />
<path d="M200.6498 57.2602
L200.7451 57.2126
" />
<path d="M200.7451 57.2126
L200.9832 57.2126
" />
<path d="M200.9832 57.2126
L201.0784 57.2602
" />
<path d="M201.0784 57.2602
L201.1260 57.3079
" />
<path d="M201.1260 57.3079
L201.1736 57.4031
" />
<path d="M201.1736 57.4031
L201.1736 57.4983
" />
<path d="M201.1736 57.4983
L201.1260 57.6412
" />
<path d="M201.1260 57.6412
L200.5546 58.2126
" />
<path d="M200.5546 58.2126
L201.1736 58.2126
" />
<path d="M202.0308 57.5460
L202.0308 58.2126
" />
<path d="M201.6022 57.5460
L201.6022 58.0698
" />
<path d="M201.6022 58.0698
L201.6498 58.1650
" />
<path d="M201.6498 58.1650
L201.7451 58.2126
" />
<path d="M201.7451 58.2126
L201.8879 58.2126
" />
<path d="M201.8879 58.2126
L201.9832 58.1650
" />
<path d="M201.9832 58.1650
L202.0308 58.1174
" />
<path d="M202.8403 57.6888
L202.5070 57.6888
" />
<path d="M202.5070 58.2126
L202.5070 57.2126
" />
<path d="M202.5070 57.2126
L202.9832 57.2126
" />
<path d="M203.1260 58.3079
L203.8879 58.3079
" />
<path d="M204.3165 57.2126
L204.4117 57.2126
" />
<path d="M204.4117 57.2126
L204.5070 57.2602
" />
<path d="M204.5070 57.2602
L204.5546 57.3079
" />
<path d="M204.5546 57.3079
L204.6022 57.4031
" />
<path d="M204.6022 57.4031
L204.6498 57.5936
" />
<path d="M204.6498 57.5936
L204.6498 57.8317
" />
<path d="M204.6498 57.8317
L204.6022 58.0221
" />
<path d="M204.6022 58.0221
L204.5546 58.1174
" />
<path d="M204.5546 58.1174
L204.5070 58.1650
" />
<path d="M204.5070 58.1650
L204.4117 58.2126
" />
<path d="M204.4117 58.2126
L204.3165 58.2126
" />
<path d="M204.3165 58.2126
L204.2212 58.1650
" />
<path d="M204.2212 58.1650
L204.1736 58.1174
" />
<path d="M204.1736 58.1174
L204.1260 58.0221
" />
<path d="M204.1260 58.0221
L204.0784 57.8317
" />
<path d="M204.0784 57.8317
L204.0784 57.5936
" />
<path d="M204.0784 57.5936
L204.1260 57.4031
" />
<path d="M204.1260 57.4031
L204.1736 57.3079
" />
<path d="M204.1736 57.3079
L204.2212 57.2602
" />
<path d="M204.2212 57.2602
L204.3165 57.2126
" />
<path d="M205.5070 57.2126
L205.3165 57.2126
" />
<path d="M205.3165 57.2126
L205.2212 57.2602
" />
<path d="M205.2212 57.2602
L205.1736 57.3079
" />
<path d="M205.1736 57.3079
L205.0784 57.4507
" />
<path d="M205.0784 57.4507
L205.0308 57.6412
" />
<path d="M205.0308 57.6412
L205.0308 58.0221
" />
<path d="M205.0308 58.0221
L205.0784 58.1174
" />
<path d="M205.0784 58.1174
L205.1260 58.1650
" />
<path d="M205.1260 58.1650
L205.2212 58.2126
" />
<path d="M205.2212 58.2126
L205.4117 58.2126
" />
<path d="M205.4117 58.2126
L205.5070 58.1650
" />
<path d="M205.5070 58.1650
L205.5546 58.1174
" />
<path d="M205.5546 58.1174
L205.6022 58.0221
" />
<path d="M205.6022 58.0221
L205.6022 57.7840
" />
<path d="M205.6022 57.7840
L205.5546 57.6888
" />
<path d="M205.5546 57.6888
L205.5070 57.6412
" />
<path d="M205.5070 57.6412
L205.4117 57.5936
" />
<path d="M205.4117 57.5936
L205.2212 57.5936
" />
<path d="M205.2212 57.5936
L205.1260 57.6412
" />
<path d="M205.1260 57.6412
L205.0784 57.6888
" />
<path d="M205.0784 57.6888
L205.0308 57.7840
" />
<path d="M206.2212 57.2126
L206.3165 57.2126
" />
<path d="M206.3165 57.2126
L206.4117 57.2602
" />
<path d="M206.4117 57.2602
L206.4593 57.3079
" />
<path d="M206.4593 57.3079
L206.5070 57.4031
" />
<path d="M206.5070 57.4031
L206.5546 57.5936
" />
<path d="M206.5546 57.5936
L206.5546 57.8317
" />
<path d="M206.5546 57.8317
L206.5070 58.0221
" />
<path d="M206.5070 58.0221
L206.4593 58.1174
" />
<path d="M206.4593 58.1174
L206.4117 58.1650
" />
<path d="M206.4117 58.1650
L206.3165 58.2126
" />
<path d="M206.3165 58.2126
L206.2212 58.2126
" />
<path d="M206.2212 58.2126
L206.1260 58.1650
" />
<path d="M206.1260 58.1650
L206.0784 58.1174
" />
<path d="M206.0784 58.1174
L206.0308 58.0221
" />
<path d="M206.0308 58.0221
L205.9832 57.8317
" />
<path d="M205.9832 57.8317
L205.9832 57.5936
" />
<path d="M205.9832 57.5936
L206.0308 57.4031
" />
<path d="M206.0308 57.4031
L206.0784 57.3079
" />
<path d="M206.0784 57.3079
L206.1260 57.2602
" />
<path d="M206.1260 57.2602
L206.2212 57.2126
" />
<path d="M206.8879 57.2126
L207.5070 57.2126
" />
<path d="M207.5070 57.2126
L207.1736 57.5936
" />
<path d="M207.1736 57.5936
L207.3165 57.5936
" />
<path d="M207.3165 57.5936
L207.4117 57.6412
" />
<path d="M207.4117 57.6412
L207.4593 57.6888
" />
<path d="M207.4593 57.6888
L207.5070 57.7840
" />
<path d="M207.5070 57.7840
L207.5070 58.0221
" />
<path d="M207.5070 58.0221
L207.4593 58.1174
" />
<path d="M207.4593 58.1174
L207.4117 58.1650
" />
<path d="M207.4117 58.1650
L207.3165 58.2126
" />
<path d="M207.3165 58.2126
L207.0308 58.2126
" />
<path d="M207.0308 58.2126
L206.9355 58.1650
" />
<path d="M206.9355 58.1650
L206.8879 58.1174
" />
<path d="M207.6974 58.3079
L208.4593 58.3079
" />
<path d="M208.6498 57.3079
L208.6974 57.2602
" />
<path d="M208.6974 57.2602
L208.7927 57.2126
" />
<path d="M208.7927 57.2126
L209.0308 57.2126
" />
<path d="M209.0308 57.2126
L209.1260 57.2602
" />
<path d="M209.1260 57.2602
L209.1736 57.3079
" />
<path d="M209.1736 57.3079
L209.2212 57.4031
" />
<path d="M209.2212 57.4031
L209.2212 57.4983
" />
<path d="M209.2212 57.4983
L209.1736 57.6412
" />
<path d="M209.1736 57.6412
L208.6022 58.2126
" />
<path d="M208.6022 58.2126
L209.2212 58.2126
" />
<path d="M210.1260 57.2126
L209.6498 57.2126
" />
<path d="M209.6498 57.2126
L209.6022 57.6888
" />
<path d="M209.6022 57.6888
L209.6498 57.6412
" />
<path d="M209.6498 57.6412
L209.7451 57.5936
" />
<path d="M209.7451 57.5936
L209.9832 57.5936
" />
<path d="M209.9832 57.5936
L210.0784 57.6412
" />
<path d="M210.0784 57.6412
L210.1260 57.6888
" />
<path d="M210.1260 57.6888
L210.1736 57.7840
" />
<path d="M210.1736 57.7840
L210.1736 58.0221
" />
<path d="M210.1736 58.0221
L210.1260 58.1174
" />
<path d="M210.1260 58.1174
L210.0784 58.1650
" />
<path d="M210.0784 58.1650
L209.9832 58.2126
" />
<path d="M209.9832 58.2126
L209.7451 58.2126
" />
<path d="M209.7451 58.2126
L209.6498 58.1650
" />
<path d="M209.6498 58.1650
L209.6022 58.1174
" />
<path d="M210.4593 57.2126
L210.7927 58.2126
" />
<path d="M210.7927 58.2126
L211.1260 57.2126
" />
</g></g>
<g style="fill:#000000; fill-opacity:0.0; 
stroke:#000000; stroke-width:0.1200; stroke-opacity:1; 
stroke-linecap:round; stroke-linejoin:round;">
<text x="205.1022" y="60.0000"
transform="scale(-1 1) translate(-410.204400 0)"
textLength="1.7019" font-size="1.0667" lengthAdjust="spacingAndGlyphs"
text-anchor="middle" opacity="0">C1</text>
<g class="stroked-text"><desc>C1</desc>
<path d="M204.9689 59.8939
L204.9308 59.9320
" />
<path d="M204.9308 59.9320
L204.8165 59.9701
" />
<path d="M204.8165 59.9701
L204.7403 59.9701
" />
<path d="M204.7403 59.9701
L204.6260 59.9320
" />
<path d="M204.6260 59.9320
L204.5498 59.8558
" />
<path d="M204.5498 59.8558
L204.5117 59.7796
" />
<path d="M204.5117 59.7796
L204.4736 59.6272
" />
<path d="M204.4736 59.6272
L204.4736 59.5130
" />
<path d="M204.4736 59.5130
L204.5117 59.3606
" />
<path d="M204.5117 59.3606
L204.5498 59.2844
" />
<path d="M204.5498 59.2844
L204.6260 59.2082
" />
<path d="M204.6260 59.2082
L204.7403 59.1701
" />
<path d="M204.7403 59.1701
L204.8165 59.1701
" />
<path d="M204.8165 59.1701
L204.9308 59.2082
" />
<path d="M204.9308 59.2082
L204.9689 59.2463
" />
<path d="M205.7308 59.9701
L205.2736 59.9701
" />
<path d="M205.5022 59.9701
L205.5022 59.1701
" />
<path d="M205.5022 59.1701
L205.4260 59.2844
" />
<path d="M205.4260 59.2844
L205.3498 59.3606
" />
<path d="M205.3498 59.3606
L205.2736 59.3987
" />
</g></g>
<g style="fill:#000000; fill-opacity:0.0; 
stroke:#000000; stroke-width:0.1500; stroke-opacity:1; 
stroke-linecap:round; stroke-linejoin:round;">
<g transform="rotate(-90.000000 196.0922 68.0000)">
<text x="196.0922" y="68.5000"
transform="scale(-1 1) translate(-392.184400 0)"
textLength="9.2702" font-size="1.3333" lengthAdjust="spacingAndGlyphs"
text-anchor="middle" opacity="0">Conn_02x03</text>
</g>
<g class="stroked-text"><desc>Conn_02x03</desc>
<path d="M195.7248 64.2619
L195.6772 64.2143
" />
<path d="M195.6772 64.2143
L195.6296 64.0714
" />
<path d="M195.6296 64.0714
L195.6296 63.9762
" />
<path d="M195.6296 63.9762
L195.6772 63.8333
" />
<path d="M195.6772 63.8333
L195.7724 63.7381
" />
<path d="M195.7724 63.7381
L195.8677 63.6905
" />
<path d="M195.8677 63.6905
L196.0582 63.6429
" />
<path d="M196.0582 63.6429
L196.2010 63.6429
" />
<path d="M196.2010 63.6429
L196.3915 63.6905
" />
<path d="M196.3915 63.6905
L196.4867 63.7381
" />
<path d="M196.4867 63.7381
L196.5820 63.8333
" />
<path d="M196.5820 63.8333
L196.6296 63.9762
" />
<path d="M196.6296 63.9762
L196.6296 64.0714
" />
<path d="M196.6296 64.0714
L196.5820 64.2143
" />
<path d="M196.5820 64.2143
L196.5343 64.2619
" />
<path d="M195.6296 64.8333
L195.6772 64.7381
" />
<path d="M195.6772 64.7381
L195.7248 64.6905
" />
<path d="M195.7248 64.6905
L195.8201 64.6429
" />
<path d="M195.8201 64.6429
L196.1058 64.6429
" />
<path d="M196.1058 64.6429
L196.2010 64.6905
" />
<path d="M196.2010 64.6905
L196.2486 64.7381
" />
<path d="M196.2486 64.7381
L196.2962 64.8333
" />
<path d="M196.2962 64.8333
L196.2962 64.9762
" />
<path d="M196.2962 64.9762
L196.2486 65.0714
" />
<path d="M196.2486 65.0714
L196.2010 65.1190
" />
<path d="M196.2010 65.1190
L196.1058 65.1667
" />
<path d="M196.1058 65.1667
L195.8201 65.1667
" />
<path d="M195.8201 65.1667
L195.7248 65.1190
" />
<path d="M195.7248 65.1190
L195.6772 65.0714
" />
<path d="M195.6772 65.0714
L195.6296 64.9762
" />
<path d="M195.6296 64.9762
L195.6296 64.8333
" />
<path d="M196.2962 65.5952
L195.6296 65.5952
" />
<path d="M196.2010 65.5952
L196.2486 65.6429
" />
<path d="M196.2486 65.6429
L196.2962 65.7381
" />
<path d="M196.2962 65.7381
L196.2962 65.8810
" />
<path d="M196.2962 65.8810
L196.2486 65.9762
" />
<path d="M196.2486 65.9762
L196.1534 66.0238
" />
<path d="M196.1534 66.0238
L195.6296 66.0238
" />
<path d="M196.2962 66.5000
L195.6296 66.5000
" />
<path d="M196.2010 66.5000
L196.2486 66.5476
" />
<path d="M196.2486 66.5476
L196.2962 66.6429
" />
<path d="M196.2962 66.6429
L196.2962 66.7857
" />
<path d="M196.2962 66.7857
L196.2486 66.8810
" />
<path d="M196.2486 66.8810
L196.1534 66.9286
" />
<path d="M196.1534 66.9286
L195.6296 66.9286
" />
<path d="M195.5343 67.1667
L195.5343 67.9286
" />
<path d="M196.6296 68.3571
L196.6296 68.4524
" />
<path d="M196.6296 68.4524
L196.5820 68.5476
" />
<path d="M196.5820 68.5476
L196.5343 68.5952
" />
<path d="M196.5343 68.5952
L196.4391 68.6429
" />
<path d="M196.4391 68.6429
L196.2486 68.6905
" />
<path d="M196.2486 68.6905
L196.0105 68.6905
" />
<path d="M196.0105 68.6905
L195.8201 68.6429
" />
<path d="M195.8201 68.6429
L195.7248 68.5952
" />
<path d="M195.7248 68.5952
L195.6772 68.5476
" />
<path d="M195.6772 68.5476
L195.6296 68.4524
" />
<path d="M195.6296 68.4524
L195.6296 68.3571
" />
<path d="M195.6296 68.3571
L195.6772 68.2619
" />
<path d="M195.6772 68.2619
L195.7248 68.2143
" />
<path d="M195.7248 68.2143
L195.8201 68.1667
" />
<path d="M195.8201 68.1667
L196.0105 68.1190
" />
<path d="M196.0105 68.1190
L196.2486 68.1190
" />
<path d="M196.2486 68.1190
L196.4391 68.1667
" />
<path d="M196.4391 68.1667
L196.5343 68.2143
" />
<path d="M196.5343 68.2143
L196.5820 68.2619
" />
<path d="M196.5820 68.2619
L196.6296 68.3571
" />
<path d="M196.5343 69.0714
L196.5820 69.1190
" />
<path d="M196.5820 69.1190
L196.6296 69.2143
" />
<path d="M196.6296 69.2143
L196.6296 69.4524
" />
<path d="M196.6296 69.4524
L196.5820 69.5476
" />
<path d="M196.5820 69.5476
L196.5343 69.5952
" />
<path d="M196.5343 69.5952
L196.4391 69.6429
" />
<path d="M196.4391 69.6429
L196.3439 69.6429
" />
<path d="M196.3439 69.6429
L196.2010 69.5952
" />
<path d="M196.2010 69.5952
L195.6296 69.0238
" />
<path d="M195.6296 69.0238
L195.6296 69.6429
" />
<path d="M195.6296 69.9762
L196.2962 70.5000
" />
<path d="M196.2962 69.9762
L195.6296 70.5000
" />
<path d="M196.6296 71.0714
L196.6296 71.1667
" />
<path d="M196.6296 71.1667
L196.5820 71.2619
" />
<path d="M196.5820 71.2619
L196.5343 71.3095
" />
<path d="M196.5343 71.3095
L196.4391 71.3571
" />
<path d="M196.4391 71.3571
L196.2486 71.4048
" />
<path d="M196.2486 71.4048
L196.0105 71.4048
" />
<path d="M196.0105 71.4048
L195.8201 71.3571
" />
<path d="M195.8201 71.3571
L195.7248 71.3095
" />
<path d="M195.7248 71.3095
L195.6772 71.2619
" />
<path d="M195.6772 71.2619
L195.6296 71.1667
" />
<path d="M195.6296 71.1667
L195.6296 71.0714
" />
<path d="M195.6296 71.0714
L195.6772 70.9762
" />
<path d="M195.6772 70.9762
L195.7248 70.9286
" />
<path d="M195.7248 70.9286
L195.8201 70.8810
" />
<path d="M195.8201 70.8810
L196.0105 70.8333
" />
<path d="M196.0105 70.8333
L196.2486 70.8333
" />
<path d="M196.2486 70.8333
L196.4391 70.8810
" />
<path d="M196.4391 70.8810
L196.5343 70.9286
" />
<path d="M196.5343 70.9286
L196.5820 70.9762
" />
<path d="M196.5820 70.9762
L196.6296 71.0714
" />
<path d="M196.6296 71.7381
L196.6296 72.3571
" />
<path d="M196.6296 72.3571
L196.2486 72.0238
" />
<path d="M196.2486 72.0238
L196.2486 72.1667
" />
<path d="M196.2486 72.1667
L196.2010 72.2619
" />
<path d="M196.2010 72.2619
L196.1534 72.3095
" />
<path d="M196.1534 72.3095
L196.0582 72.3571
" />
<path d="M196.0582 72.3571
L195.8201 72.3571
" />
<path d="M195.8201 72.3571
L195.7248 72.3095
" />
<path d="M195.7248 72.3095
L195.6772 72.2619
" />
<path d="M195.6772 72.2619
L195.6296 72.1667
" />
<path d="M195.6296 72.1667
L195.6296 71.8810
" />
<path d="M195.6296 71.8810
L195.6772 71.7857
" />
<path d="M195.6772 71.7857
L195.7248 71.7381
" />
</g><text x="201.4022" y="68.5000"
transform="scale(-1 1) translate(-402.804400 0)"
textLength="1.8893" font-size="1.3333" lengthAdjust="spacingAndGlyphs"
text-anchor="middle" opacity="0">J1</text>
<g class="stroked-text"><desc>J1</desc>
<path d="M201.0689 67.4626
L201.0689 68.1769
" />
<path d="M201.0689 68.1769
L201.0212 68.3198
" />
<path d="M201.0212 68.3198
L200.9260 68.4150
" />
<path d="M200.9260 68.4150
L200.7832 68.4626
" />
<path d="M200.7832 68.4626
L200.6879 68.4626
" />
<path d="M202.0689 68.4626
L201.4974 68.4626
" />
<path d="M201.7832 68.4626
L201.7832 67.4626
" />
<path d="M201.7832 67.4626
L201.6879 67.6055
" />
<path d="M201.6879 67.6055
L201.5927 67.7007
" />
<path d="M201.5927 67.7007
L201.4974 67.7483
" />
</g><text x="210.6022" y="75.0500"
transform="scale(-1 1) translate(-421.204400 0)"
textLength="13.1750" font-size="1.3333" lengthAdjust="spacingAndGlyphs"
text-anchor="middle" opacity="0">LT3494AEDDBPBF</text>
<g class="stroked-text"><desc>LT3494AEDDBPBF</desc>
<path d="M204.8165 75.0126
L204.3403 75.0126
" />
<path d="M204.3403 75.0126
L204.3403 74.0126
" />
<path d="M205.0070 74.0126
L205.5784 74.0126
" />
<path d="M205.2927 75.0126
L205.2927 74.0126
" />
<path d="M205.8165 74.0126
L206.4355 74.0126
" />
<path d="M206.4355 74.0126
L206.1022 74.3936
" />
<path d="M206.1022 74.3936
L206.2451 74.3936
" />
<path d="M206.2451 74.3936
L206.3403 74.4412
" />
<path d="M206.3403 74.4412
L206.3879 74.4888
" />
<path d="M206.3879 74.4888
L206.4355 74.5840
" />
<path d="M206.4355 74.5840
L206.4355 74.8221
" />
<path d="M206.4355 74.8221
L206.3879 74.9174
" />
<path d="M206.3879 74.9174
L206.3403 74.9650
" />
<path d="M206.3403 74.9650
L206.2451 75.0126
" />
<path d="M206.2451 75.0126
L205.9593 75.0126
" />
<path d="M205.9593 75.0126
L205.8641 74.9650
" />
<path d="M205.8641 74.9650
L205.8165 74.9174
" />
<path d="M207.2927 74.3460
L207.2927 75.0126
" />
<path d="M207.0546 73.9650
L206.8165 74.6793
" />
<path d="M206.8165 74.6793
L207.4355 74.6793
" />
<path d="M207.8641 75.0126
L208.0546 75.0126
" />
<path d="M208.0546 75.0126
L208.1498 74.9650
" />
<path d="M208.1498 74.9650
L208.1974 74.9174
" />
<path d="M208.1974 74.9174
L208.2927 74.7745
" />
<path d="M208.2927 74.7745
L208.3403 74.5840
" />
<path d="M208.3403 74.5840
L208.3403 74.2031
" />
<path d="M208.3403 74.2031
L208.2927 74.1079
" />
<path d="M208.2927 74.1079
L208.2451 74.0602
" />
<path d="M208.2451 74.0602
L208.1498 74.0126
" />
<path d="M208.1498 74.0126
L207.9593 74.0126
" />
<path d="M207.9593 74.0126
L207.8641 74.0602
" />
<path d="M207.8641 74.0602
L207.8165 74.1079
" />
<path d="M207.8165 74.1079
L207.7689 74.2031
" />
<path d="M207.7689 74.2031
L207.7689 74.4412
" />
<path d="M207.7689 74.4412
L207.8165 74.5364
" />
<path d="M207.8165 74.5364
L207.8641 74.5840
" />
<path d="M207.8641 74.5840
L207.9593 74.6317
" />
<path d="M207.9593 74.6317
L208.1498 74.6317
" />
<path d="M208.1498 74.6317
L208.2451 74.5840
" />
<path d="M208.2451 74.5840
L208.2927 74.5364
" />
<path d="M208.2927 74.5364
L208.3403 74.4412
" />
<path d="M209.1974 74.3460
L209.1974 75.0126
" />
<path d="M208.9593 73.9650
L208.7212 74.6793
" />
<path d="M208.7212 74.6793
L209.3403 74.6793
" />
<path d="M209.6736 74.7269
L210.1498 74.7269
" />
<path d="M209.5784 75.0126
L209.9117 74.0126
" />
<path d="M209.9117 74.0126
L210.2451 75.0126
" />
<path d="M210.5784 74.4888
L210.9117 74.4888
" />
<path d="M211.0546 75.0126
L210.5784 75.0126
" />
<path d="M210.5784 75.0126
L210.5784 74.0126
" />
<path d="M210.5784 74.0126
L211.0546 74.0126
" />
<path d="M211.4832 75.0126
L211.4832 74.0126
" />
<path d="M211.4832 74.0126
L211.7212 74.0126
" />
<path d="M211.7212 74.0126
L211.8641 74.0602
" />
<path d="M211.8641 74.0602
L211.9593 74.1555
" />
<path d="M211.9593 74.1555
L212.0070 74.2507
" />
<path d="M212.0070 74.2507
L212.0546 74.4412
" />
<path d="M212.0546 74.4412
L212.0546 74.5840
" />
<path d="M212.0546 74.5840
L212.0070 74.7745
" />
<path d="M212.0070 74.7745
L211.9593 74.8698
" />
<path d="M211.9593 74.8698
L211.8641 74.9650
" />
<path d="M211.8641 74.9650
L211.7212 75.0126
" />
<path d="M211.7212 75.0126
L211.4832 75.0126
" />
<path d="M212.4832 75.0126
L212.4832 74.0126
" />
<path d="M212.4832 74.0126
L212.7212 74.0126
" />
<path d="M212.7212 74.0126
L212.8641 74.0602
" />
<path d="M212.8641 74.0602
L212.9593 74.1555
" />
<path d="M212.9593 74.1555
L213.0070 74.2507
" />
<path d="M213.0070 74.2507
L213.0546 74.4412
" />
<path d="M213.0546 74.4412
L213.0546 74.5840
" />
<path d="M213.0546 74.5840
L213.0070 74.7745
" />
<path d="M213.0070 74.7745
L212.9593 74.8698
" />
<path d="M212.9593 74.8698
L212.8641 74.9650
" />
<path d="M212.8641 74.9650
L212.7212 75.0126
" />
<path d="M212.7212 75.0126
L212.4832 75.0126
" />
<path d="M213.8165 74.4888
L213.9593 74.5364
" />
<path d="M213.9593 74.5364
L214.0070 74.5840
" />
<path d="M214.0070 74.5840
L214.0546 74.6793
" />
<path d="M214.0546 74.6793
L214.0546 74.8221
" />
<path d="M214.0546 74.8221
L214.0070 74.9174
" />
<path d="M214.0070 74.9174
L213.9593 74.9650
" />
<path d="M213.9593 74.9650
L213.8641 75.0126
" />
<path d="M213.8641 75.0126
L213.4832 75.0126
" />
<path d="M213.4832 75.0126
L213.4832 74.0126
" />
<path d="M213.4832 74.0126
L213.8165 74.0126
" />
<path d="M213.8165 74.0126
L213.9117 74.0602
" />
<path d="M213.9117 74.0602
L213.9593 74.1079
" />
<path d="M213.9593 74.1079
L214.0070 74.2031
" />
<path d="M214.0070 74.2031
L214.0070 74.2983
" />
<path d="M214.0070 74.2983
L213.9593 74.3936
" />
<path d="M213.9593 74.3936
L213.9117 74.4412
" />
<path d="M213.9117 74.4412
L213.8165 74.4888
" />
<path d="M213.8165 74.4888
L213.4832 74.4888
" />
<path d="M214.4832 75.0126
L214.4832 74.0126
" />
<path d="M214.4832 74.0126
L214.8641 74.0126
" />
<path d="M214.8641 74.0126
L214.9593 74.0602
" />
<path d="M214.9593 74.0602
L215.0070 74.1079
" />
<path d="M215.0070 74.1079
L215.0546 74.2031
" />
<path d="M215.0546 74.2031
L215.0546 74.3460
" />
<path d="M215.0546 74.3460
L215.0070 74.4412
" />
<path d="M215.0070 74.4412
L214.9593 74.4888
" />
<path d="M214.9593 74.4888
L214.8641 74.5364
" />
<path d="M214.8641 74.5364
L214.4832 74.5364
" />
<path d="M215.8165 74.4888
L215.9593 74.5364
" />
<path d="M215.9593 74.5364
L216.0070 74.5840
" />
<path d="M216.0070 74.5840
L216.0546 74.6793
" />
<path d="M216.0546 74.6793
L216.0546 74.8221
" />
<path d="M216.0546 74.8221
L216.0070 74.9174
" />
<path d="M216.0070 74.9174
L215.9593 74.9650
" />
<path d="M215.9593 74.9650
L215.8641 75.0126
" />
<path d="M215.8641 75.0126
L215.4832 75.0126
" />
<path d="M215.4832 75.0126
L215.4832 74.0126
" />
<path d="M215.4832 74.0126
L215.8165 74.0126
" />
<path d="M215.8165 74.0126
L215.9117 74.0602
" />
<path d="M215.9117 74.0602
L215.9593 74.1079
" />
<path d="M215.9593 74.1079
L216.0070 74.2031
" />
<path d="M216.0070 74.2031
L216.0070 74.2983
" />
<path d="M216.0070 74.2983
L215.9593 74.3936
" />
<path d="M215.9593 74.3936
L215.9117 74.4412
" />
<path d="M215.9117 74.4412
L215.8165 74.4888
" />
<path d="M215.8165 74.4888
L215.4832 74.4888
" />
<path d="M216.8165 74.4888
L216.4832 74.4888
" />
<path d="M216.4832 75.0126
L216.4832 74.0126
" />
<path d="M216.4832 74.0126
L216.9593 74.0126
" />
</g></g>
<g style="fill:#000000; fill-opacity:0.0; 
stroke:#000000; stroke-width:0.0750; stroke-opacity:1; 
stroke-linecap:round; stroke-linejoin:round;">
<g transform="rotate(-90.000000 210.6022 72.0000)">
<text x="210.6022" y="72.2500"
transform="scale(-1 1) translate(-421.204400 0)"
textLength="1.0875" font-size="0.6667" lengthAdjust="spacingAndGlyphs"
text-anchor="middle" opacity="0">U2</text>
</g>
<g class="stroked-text"><desc>U2</desc>
<path d="M210.8709 71.6190
L210.4661 71.6190
" />
<path d="M210.4661 71.6190
L210.4185 71.6429
" />
<path d="M210.4185 71.6429
L210.3947 71.6667
" />
<path d="M210.3947 71.6667
L210.3709 71.7143
" />
<path d="M210.3709 71.7143
L210.3709 71.8095
" />
<path d="M210.3709 71.8095
L210.3947 71.8571
" />
<path d="M210.3947 71.8571
L210.4185 71.8810
" />
<path d="M210.4185 71.8810
L210.4661 71.9048
" />
<path d="M210.4661 71.9048
L210.8709 71.9048
" />
<path d="M210.8233 72.1190
L210.8471 72.1429
" />
<path d="M210.8471 72.1429
L210.8709 72.1905
" />
<path d="M210.8709 72.1905
L210.8709 72.3095
" />
<path d="M210.8709 72.3095
L210.8471 72.3571
" />
<path d="M210.8471 72.3571
L210.8233 72.3810
" />
<path d="M210.8233 72.3810
L210.7757 72.4048
" />
<path d="M210.7757 72.4048
L210.7280 72.4048
" />
<path d="M210.7280 72.4048
L210.6566 72.3810
" />
<path d="M210.6566 72.3810
L210.3709 72.0952
" />
<path d="M210.3709 72.0952
L210.3709 72.4048
" />
</g></g>
<g style="fill:#000000; fill-opacity:0.0; 
stroke:#000000; stroke-width:0.1500; stroke-opacity:1; 
stroke-linecap:round; stroke-linejoin:round;">
<g transform="rotate(-90.000000 197.5222 57.5000)">
<text x="197.5222" y="58.0000"
transform="scale(-1 1) translate(-395.044400 0)"
textLength="4.7940" font-size="1.3333" lengthAdjust="spacingAndGlyphs"
text-anchor="middle" opacity="0">100nF</text>
</g>
<g class="stroked-text"><desc>100nF</desc>
<path d="M197.0596 55.9524
L197.0596 55.3810
" />
<path d="M197.0596 55.6667
L198.0596 55.6667
" />
<path d="M198.0596 55.6667
L197.9167 55.5714
" />
<path d="M197.9167 55.5714
L197.8215 55.4762
" />
<path d="M197.8215 55.4762
L197.7739 55.3810
" />
<path d="M198.0596 56.5714
L198.0596 56.6667
" />
<path d="M198.0596 56.6667
L198.0120 56.7619
" />
<path d="M198.0120 56.7619
L197.9643 56.8095
" />
<path d="M197.9643 56.8095
L197.8691 56.8571
" />
<path d="M197.8691 56.8571
L197.6786 56.9048
" />
<path d="M197.6786 56.9048
L197.4405 56.9048
" />
<path d="M197.4405 56.9048
L197.2501 56.8571
" />
<path d="M197.2501 56.8571
L197.1548 56.8095
" />
<path d="M197.1548 56.8095
L197.1072 56.7619
" />
<path d="M197.1072 56.7619
L197.0596 56.6667
" />
<path d="M197.0596 56.6667
L197.0596 56.5714
" />
<path d="M197.0596 56.5714
L197.1072 56.4762
" />
<path d="M197.1072 56.4762
L197.1548 56.4286
" />
<path d="M197.1548 56.4286
L197.2501 56.3810
" />
<path d="M197.2501 56.3810
L197.4405 56.3333
" />
<path d="M197.4405 56.3333
L197.6786 56.3333
" />
<path d="M197.6786 56.3333
L197.8691 56.3810
" />
<path d="M197.8691 56.3810
L197.9643 56.4286
" />
<path d="M197.9643 56.4286
L198.0120 56.4762
" />
<path d="M198.0120 56.4762
L198.0596 56.5714
" />
<path d="M198.0596 57.5238
L198.0596 57.6190
" />
<path d="M198.0596 57.6190
L198.0120 57.7143
" />
<path d="M198.0120 57.7143
L197.9643 57.7619
" />
<path d="M197.9643 57.7619
L197.8691 57.8095
" />
<path d="M197.8691 57.8095
L197.6786 57.8571
" />
<path d="M197.6786 57.8571
L197.4405 57.8571
" />
<path d="M197.4405 57.8571
L197.2501 57.8095
" />
<path d="M197.2501 57.8095
L197.1548 57.7619
" />
<path d="M197.1548 57.7619
L197.1072 57.7143
" />
<path d="M197.1072 57.7143
L197.0596 57.6190
" />
<path d="M197.0596 57.6190
L197.0596 57.5238
" />
<path d="M197.0596 57.5238
L197.1072 57.4286
" />
<path d="M197.1072 57.4286
L197.1548 57.3810
" />
<path d="M197.1548 57.3810
L197.2501 57.3333
" />
<path d="M197.2501 57.3333
L197.4405 57.2857
" />
<path d="M197.4405 57.2857
L197.6786 57.2857
" />
<path d="M197.6786 57.2857
L197.8691 57.3333
" />
<path d="M197.8691 57.3333
L197.9643 57.3810
" />
<path d="M197.9643 57.3810
L198.0120 57.4286
" />
<path d="M198.0120 57.4286
L198.0596 57.5238
" />
<path d="M197.7262 58.2857
L197.0596 58.2857
" />
<path d="M197.6310 58.2857
L197.6786 58.3333
" />
<path d="M197.6786 58.3333
L197.7262 58.4286
" />
<path d="M197.7262 58.4286
L197.7262 58.5714
" />
<path d="M197.7262 58.5714
L197.6786 58.6667
" />
<path d="M197.6786 58.6667
L197.5834 58.7143
" />
<path d="M197.5834 58.7143
L197.0596 58.7143
" />
<path d="M197.5834 59.5238
L197.5834 59.1905
" />
<path d="M197.0596 59.1905
L198.0596 59.1905
" />
<path d="M198.0596 59.1905
L198.0596 59.6667
" />
</g></g>
<g style="fill:#000000; fill-opacity:0.0; 
stroke:#000000; stroke-width:0.0800; stroke-opacity:1; 
stroke-linecap:round; stroke-linejoin:round;">
<g transform="rotate(-90.000000 199.2022 57.5000)">
<text x="199.2022" y="57.7500"
transform="scale(-1 1) translate(-398.404400 0)"
textLength="1.0762" font-size="0.6667" lengthAdjust="spacingAndGlyphs"
text-anchor="middle" opacity="0">C2</text>
</g>
<g class="stroked-text"><desc>C2</desc>
<path d="M199.0185 57.4167
L198.9947 57.3929
" />
<path d="M198.9947 57.3929
L198.9709 57.3214
" />
<path d="M198.9709 57.3214
L198.9709 57.2738
" />
<path d="M198.9709 57.2738
L198.9947 57.2024
" />
<path d="M198.9947 57.2024
L199.0423 57.1548
" />
<path d="M199.0423 57.1548
L199.0899 57.1310
" />
<path d="M199.0899 57.1310
L199.1852 57.1071
" />
<path d="M199.1852 57.1071
L199.2566 57.1071
" />
<path d="M199.2566 57.1071
L199.3518 57.1310
" />
<path d="M199.3518 57.1310
L199.3995 57.1548
" />
<path d="M199.3995 57.1548
L199.4471 57.2024
" />
<path d="M199.4471 57.2024
L199.4709 57.2738
" />
<path d="M199.4709 57.2738
L199.4709 57.3214
" />
<path d="M199.4709 57.3214
L199.4471 57.3929
" />
<path d="M199.4471 57.3929
L199.4233 57.4167
" />
<path d="M199.4233 57.6071
L199.4471 57.6310
" />
<path d="M199.4471 57.6310
L199.4709 57.6786
" />
<path d="M199.4709 57.6786
L199.4709 57.7976
" />
<path d="M199.4709 57.7976
L199.4471 57.8452
" />
<path d="M199.4471 57.8452
L199.4233 57.8690
" />
<path d="M199.4233 57.8690
L199.3757 57.8929
" />
<path d="M199.3757 57.8929
L199.3280 57.8929
" />
<path d="M199.3280 57.8929
L199.2566 57.8690
" />
<path d="M199.2566 57.8690
L198.9709 57.5833
" />
<path d="M198.9709 57.5833
L198.9709 57.8929
" />
</g></g>
<g style="fill:#000000; fill-opacity:0.0; 
stroke:#000000; stroke-width:0.1500; stroke-opacity:1; 
stroke-linecap:round; stroke-linejoin:round;">
<text x="214.0022" y="71.4800"
transform="scale(-1 1) translate(-428.004400 0)"
textLength="13.3655" font-size="1.3333" lengthAdjust="spacingAndGlyphs"
text-anchor="middle" opacity="0">0.22uF_0603_25V</text>
<g class="stroked-text"><desc>0.22uF_0603_25V</desc>
<path d="M207.8355 70.4426
L207.9308 70.4426
" />
<path d="M207.9308 70.4426
L208.0260 70.4902
" />
<path d="M208.0260 70.4902
L208.0736 70.5379
" />
<path d="M208.0736 70.5379
L208.1212 70.6331
" />
<path d="M208.1212 70.6331
L208.1689 70.8236
" />
<path d="M208.1689 70.8236
L208.1689 71.0617
" />
<path d="M208.1689 71.0617
L208.1212 71.2521
" />
<path d="M208.1212 71.2521
L208.0736 71.3474
" />
<path d="M208.0736 71.3474
L208.0260 71.3950
" />
<path d="M208.0260 71.3950
L207.9308 71.4426
" />
<path d="M207.9308 71.4426
L207.8355 71.4426
" />
<path d="M207.8355 71.4426
L207.7403 71.3950
" />
<path d="M207.7403 71.3950
L207.6927 71.3474
" />
<path d="M207.6927 71.3474
L207.6451 71.2521
" />
<path d="M207.6451 71.2521
L207.5974 71.0617
" />
<path d="M207.5974 71.0617
L207.5974 70.8236
" />
<path d="M207.5974 70.8236
L207.6451 70.6331
" />
<path d="M207.6451 70.6331
L207.6927 70.5379
" />
<path d="M207.6927 70.5379
L207.7403 70.4902
" />
<path d="M207.7403 70.4902
L207.8355 70.4426
" />
<path d="M208.5974 71.3474
L208.6451 71.3950
" />
<path d="M208.6451 71.3950
L208.5974 71.4426
" />
<path d="M208.5974 71.4426
L208.5498 71.3950
" />
<path d="M208.5498 71.3950
L208.5974 71.3474
" />
<path d="M208.5974 71.3474
L208.5974 71.4426
" />
<path d="M209.0260 70.5379
L209.0736 70.4902
" />
<path d="M209.0736 70.4902
L209.1689 70.4426
" />
<path d="M209.1689 70.4426
L209.4070 70.4426
" />
<path d="M209.4070 70.4426
L209.5022 70.4902
" />
<path d="M209.5022 70.4902
L209.5498 70.5379
" />
<path d="M209.5498 70.5379
L209.5974 70.6331
" />
<path d="M209.5974 70.6331
L209.5974 70.7283
" />
<path d="M209.5974 70.7283
L209.5498 70.8712
" />
<path d="M209.5498 70.8712
L208.9784 71.4426
" />
<path d="M208.9784 71.4426
L209.5974 71.4426
" />
<path d="M209.9784 70.5379
L210.0260 70.4902
" />
<path d="M210.0260 70.4902
L210.1212 70.4426
" />
<path d="M210.1212 70.4426
L210.3593 70.4426
" />
<path d="M210.3593 70.4426
L210.4546 70.4902
" />
<path d="M210.4546 70.4902
L210.5022 70.5379
" />
<path d="M210.5022 70.5379
L210.5498 70.6331
" />
<path d="M210.5498 70.6331
L210.5498 70.7283
" />
<path d="M210.5498 70.7283
L210.5022 70.8712
" />
<path d="M210.5022 70.8712
L209.9308 71.4426
" />
<path d="M209.9308 71.4426
L210.5498 71.4426
" />
<path d="M211.4070 70.7760
L211.4070 71.4426
" />
<path d="M210.9784 70.7760
L210.9784 71.2998
" />
<path d="M210.9784 71.2998
L211.0260 71.3950
" />
<path d="M211.0260 71.3950
L211.1212 71.4426
" />
<path d="M211.1212 71.4426
L211.2641 71.4426
" />
<path d="M211.2641 71.4426
L211.3593 71.3950
" />
<path d="M211.3593 71.3950
L211.4070 71.3474
" />
<path d="M212.2165 70.9188
L211.8832 70.9188
" />
<path d="M211.8832 71.4426
L211.8832 70.4426
" />
<path d="M211.8832 70.4426
L212.3593 70.4426
" />
<path d="M212.5022 71.5379
L213.2641 71.5379
" />
<path d="M213.6927 70.4426
L213.7879 70.4426
" />
<path d="M213.7879 70.4426
L213.8832 70.4902
" />
<path d="M213.8832 70.4902
L213.9308 70.5379
" />
<path d="M213.9308 70.5379
L213.9784 70.6331
" />
<path d="M213.9784 70.6331
L214.0260 70.8236
" />
<path d="M214.0260 70.8236
L214.0260 71.0617
" />
<path d="M214.0260 71.0617
L213.9784 71.2521
" />
<path d="M213.9784 71.2521
L213.9308 71.3474
" />
<path d="M213.9308 71.3474
L213.8832 71.3950
" />
<path d="M213.8832 71.3950
L213.7879 71.4426
" />
<path d="M213.7879 71.4426
L213.6927 71.4426
" />
<path d="M213.6927 71.4426
L213.5974 71.3950
" />
<path d="M213.5974 71.3950
L213.5498 71.3474
" />
<path d="M213.5498 71.3474
L213.5022 71.2521
" />
<path d="M213.5022 71.2521
L213.4546 71.0617
" />
<path d="M213.4546 71.0617
L213.4546 70.8236
" />
<path d="M213.4546 70.8236
L213.5022 70.6331
" />
<path d="M213.5022 70.6331
L213.5498 70.5379
" />
<path d="M213.5498 70.5379
L213.5974 70.4902
" />
<path d="M213.5974 70.4902
L213.6927 70.4426
" />
<path d="M214.8832 70.4426
L214.6927 70.4426
" />
<path d="M214.6927 70.4426
L214.5974 70.4902
" />
<path d="M214.5974 70.4902
L214.5498 70.5379
" />
<path d="M214.5498 70.5379
L214.4546 70.6807
" />
<path d="M214.4546 70.6807
L214.4070 70.8712
" />
<path d="M214.4070 70.8712
L214.4070 71.2521
" />
<path d="M214.4070 71.2521
L214.4546 71.3474
" />
<path d="M214.4546 71.3474
L214.5022 71.3950
" />
<path d="M214.5022 71.3950
L214.5974 71.4426
" />
<path d="M214.5974 71.4426
L214.7879 71.4426
" />
<path d="M214.7879 71.4426
L214.8832 71.3950
" />
<path d="M214.8832 71.3950
L214.9308 71.3474
" />
<path d="M214.9308 71.3474
L214.9784 71.2521
" />
<path d="M214.9784 71.2521
L214.9784 71.0140
" />
<path d="M214.9784 71.0140
L214.9308 70.9188
" />
<path d="M214.9308 70.9188
L214.8832 70.8712
" />
<path d="M214.8832 70.8712
L214.7879 70.8236
" />
<path d="M214.7879 70.8236
L214.5974 70.8236
" />
<path d="M214.5974 70.8236
L214.5022 70.8712
" />
<path d="M214.5022 70.8712
L214.4546 70.9188
" />
<path d="M214.4546 70.9188
L214.4070 71.0140
" />
<path d="M215.5974 70.4426
L215.6927 70.4426
" />
<path d="M215.6927 70.4426
L215.7879 70.4902
" />
<path d="M215.7879 70.4902
L215.8355 70.5379
" />
<path d="M215.8355 70.5379
L215.8832 70.6331
" />
<path d="M215.8832 70.6331
L215.9308 70.8236
" />
<path d="M215.9308 70.8236
L215.9308 71.0617
" />
<path d="M215.9308 71.0617
L215.8832 71.2521
" />
<path d="M215.8832 71.2521
L215.8355 71.3474
" />
<path d="M215.8355 71.3474
L215.7879 71.3950
" />
<path d="M215.7879 71.3950
L215.6927 71.4426
" />
<path d="M215.6927 71.4426
L215.5974 71.4426
" />
<path d="M215.5974 71.4426
L215.5022 71.3950
" />
<path d="M215.5022 71.3950
L215.4546 71.3474
" />
<path d="M215.4546 71.3474
L215.4070 71.2521
" />
<path d="M215.4070 71.2521
L215.3593 71.0617
" />
<path d="M215.3593 71.0617
L215.3593 70.8236
" />
<path d="M215.3593 70.8236
L215.4070 70.6331
" />
<path d="M215.4070 70.6331
L215.4546 70.5379
" />
<path d="M215.4546 70.5379
L215.5022 70.4902
" />
<path d="M215.5022 70.4902
L215.5974 70.4426
" />
<path d="M216.2641 70.4426
L216.8832 70.4426
" />
<path d="M216.8832 70.4426
L216.5498 70.8236
" />
<path d="M216.5498 70.8236
L216.6927 70.8236
" />
<path d="M216.6927 70.8236
L216.7879 70.8712
" />
<path d="M216.7879 70.8712
L216.8355 70.9188
" />
<path d="M216.8355 70.9188
L216.8832 71.0140
" />
<path d="M216.8832 71.0140
L216.8832 71.2521
" />
<path d="M216.8832 71.2521
L216.8355 71.3474
" />
<path d="M216.8355 71.3474
L216.7879 71.3950
" />
<path d="M216.7879 71.3950
L216.6927 71.4426
" />
<path d="M216.6927 71.4426
L216.4070 71.4426
" />
<path d="M216.4070 71.4426
L216.3117 71.3950
" />
<path d="M216.3117 71.3950
L216.2641 71.3474
" />
<path d="M217.0736 71.5379
L217.8355 71.5379
" />
<path d="M218.0260 70.5379
L218.0736 70.4902
" />
<path d="M218.0736 70.4902
L218.1689 70.4426
" />
<path d="M218.1689 70.4426
L218.4070 70.4426
" />
<path d="M218.4070 70.4426
L218.5022 70.4902
" />
<path d="M218.5022 70.4902
L218.5498 70.5379
" />
<path d="M218.5498 70.5379
L218.5974 70.6331
" />
<path d="M218.5974 70.6331
L218.5974 70.7283
" />
<path d="M218.5974 70.7283
L218.5498 70.8712
" />
<path d="M218.5498 70.8712
L217.9784 71.4426
" />
<path d="M217.9784 71.4426
L218.5974 71.4426
" />
<path d="M219.5022 70.4426
L219.0260 70.4426
" />
<path d="M219.0260 70.4426
L218.9784 70.9188
" />
<path d="M218.9784 70.9188
L219.0260 70.8712
" />
<path d="M219.0260 70.8712
L219.1212 70.8236
" />
<path d="M219.1212 70.8236
L219.3593 70.8236
" />
<path d="M219.3593 70.8236
L219.4546 70.8712
" />
<path d="M219.4546 70.8712
L219.5022 70.9188
" />
<path d="M219.5022 70.9188
L219.5498 71.0140
" />
<path d="M219.5498 71.0140
L219.5498 71.2521
" />
<path d="M219.5498 71.2521
L219.5022 71.3474
" />
<path d="M219.5022 71.3474
L219.4546 71.3950
" />
<path d="M219.4546 71.3950
L219.3593 71.4426
" />
<path d="M219.3593 71.4426
L219.1212 71.4426
" />
<path d="M219.1212 71.4426
L219.0260 71.3950
" />
<path d="M219.0260 71.3950
L218.9784 71.3474
" />
<path d="M219.8355 70.4426
L220.1689 71.4426
" />
<path d="M220.1689 71.4426
L220.5022 70.4426
" />
</g></g>
<g style="fill:#000000; fill-opacity:0.0; 
stroke:#000000; stroke-width:0.0800; stroke-opacity:1; 
stroke-linecap:round; stroke-linejoin:round;">
<text x="214.0022" y="69.5500"
transform="scale(-1 1) translate(-428.004400 0)"
textLength="1.0762" font-size="0.6667" lengthAdjust="spacingAndGlyphs"
text-anchor="middle" opacity="0">C4</text>
<g class="stroked-text"><desc>C4</desc>
<path d="M213.9189 69.4837
L213.8951 69.5075
" />
<path d="M213.8951 69.5075
L213.8236 69.5313
" />
<path d="M213.8236 69.5313
L213.7760 69.5313
" />
<path d="M213.7760 69.5313
L213.7046 69.5075
" />
<path d="M213.7046 69.5075
L213.6570 69.4599
" />
<path d="M213.6570 69.4599
L213.6332 69.4123
" />
<path d="M213.6332 69.4123
L213.6093 69.3170
" />
<path d="M213.6093 69.3170
L213.6093 69.2456
" />
<path d="M213.6093 69.2456
L213.6332 69.1504
" />
<path d="M213.6332 69.1504
L213.6570 69.1027
" />
<path d="M213.6570 69.1027
L213.7046 69.0551
" />
<path d="M213.7046 69.0551
L213.7760 69.0313
" />
<path d="M213.7760 69.0313
L213.8236 69.0313
" />
<path d="M213.8236 69.0313
L213.8951 69.0551
" />
<path d="M213.8951 69.0551
L213.9189 69.0789
" />
<path d="M214.3474 69.1980
L214.3474 69.5313
" />
<path d="M214.2284 69.0075
L214.1093 69.3646
" />
<path d="M214.1093 69.3646
L214.4189 69.3646
" />
</g></g>
<g style="fill:#000000; fill-opacity:0.0; 
stroke:#000000; stroke-width:0.1500; stroke-opacity:1; 
stroke-linecap:round; stroke-linejoin:round;">
<g transform="rotate(-90.000000 208.8522 71.5000)">
<text x="208.8522" y="72.0000"
transform="scale(-1 1) translate(-417.704400 0)"
textLength="11.9369" font-size="1.3333" lengthAdjust="spacingAndGlyphs"
text-anchor="middle" opacity="0">10uF_0805_25V</text>
</g>
<g class="stroked-text"><desc>10uF_0805_25V</desc>
<path d="M208.3896 66.3810
L208.3896 65.8095
" />
<path d="M208.3896 66.0952
L209.3896 66.0952
" />
<path d="M209.3896 66.0952
L209.2467 66.0000
" />
<path d="M209.2467 66.0000
L209.1515 65.9048
" />
<path d="M209.1515 65.9048
L209.1039 65.8095
" />
<path d="M209.3896 67.0000
L209.3896 67.0952
" />
<path d="M209.3896 67.0952
L209.3420 67.1905
" />
<path d="M209.3420 67.1905
L209.2943 67.2381
" />
<path d="M209.2943 67.2381
L209.1991 67.2857
" />
<path d="M209.1991 67.2857
L209.0086 67.3333
" />
<path d="M209.0086 67.3333
L208.7705 67.3333
" />
<path d="M208.7705 67.3333
L208.5801 67.2857
" />
<path d="M208.5801 67.2857
L208.4848 67.2381
" />
<path d="M208.4848 67.2381
L208.4372 67.1905
" />
<path d="M208.4372 67.1905
L208.3896 67.0952
" />
<path d="M208.3896 67.0952
L208.3896 67.0000
" />
<path d="M208.3896 67.0000
L208.4372 66.9048
" />
<path d="M208.4372 66.9048
L208.4848 66.8571
" />
<path d="M208.4848 66.8571
L208.5801 66.8095
" />
<path d="M208.5801 66.8095
L208.7705 66.7619
" />
<path d="M208.7705 66.7619
L209.0086 66.7619
" />
<path d="M209.0086 66.7619
L209.1991 66.8095
" />
<path d="M209.1991 66.8095
L209.2943 66.8571
" />
<path d="M209.2943 66.8571
L209.3420 66.9048
" />
<path d="M209.3420 66.9048
L209.3896 67.0000
" />
<path d="M209.0562 68.1905
L208.3896 68.1905
" />
<path d="M209.0562 67.7619
L208.5324 67.7619
" />
<path d="M208.5324 67.7619
L208.4372 67.8095
" />
<path d="M208.4372 67.8095
L208.3896 67.9048
" />
<path d="M208.3896 67.9048
L208.3896 68.0476
" />
<path d="M208.3896 68.0476
L208.4372 68.1429
" />
<path d="M208.4372 68.1429
L208.4848 68.1905
" />
<path d="M208.9134 69.0000
L208.9134 68.6667
" />
<path d="M208.3896 68.6667
L209.3896 68.6667
" />
<path d="M209.3896 68.6667
L209.3896 69.1429
" />
<path d="M208.2943 69.2857
L208.2943 70.0476
" />
<path d="M209.3896 70.4762
L209.3896 70.5714
" />
<path d="M209.3896 70.5714
L209.3420 70.6667
" />
<path d="M209.3420 70.6667
L209.2943 70.7143
" />
<path d="M209.2943 70.7143
L209.1991 70.7619
" />
<path d="M209.1991 70.7619
L209.0086 70.8095
" />
<path d="M209.0086 70.8095
L208.7705 70.8095
" />
<path d="M208.7705 70.8095
L208.5801 70.7619
" />
<path d="M208.5801 70.7619
L208.4848 70.7143
" />
<path d="M208.4848 70.7143
L208.4372 70.6667
" />
<path d="M208.4372 70.6667
L208.3896 70.5714
" />
<path d="M208.3896 70.5714
L208.3896 70.4762
" />
<path d="M208.3896 70.4762
L208.4372 70.3810
" />
<path d="M208.4372 70.3810
L208.4848 70.3333
" />
<path d="M208.4848 70.3333
L208.5801 70.2857
" />
<path d="M208.5801 70.2857
L208.7705 70.2381
" />
<path d="M208.7705 70.2381
L209.0086 70.2381
" />
<path d="M209.0086 70.2381
L209.1991 70.2857
" />
<path d="M209.1991 70.2857
L209.2943 70.3333
" />
<path d="M209.2943 70.3333
L209.3420 70.3810
" />
<path d="M209.3420 70.3810
L209.3896 70.4762
" />
<path d="M208.9610 71.3810
L209.0086 71.2857
" />
<path d="M209.0086 71.2857
L209.0562 71.2381
" />
<path d="M209.0562 71.2381
L209.1515 71.1905
" />
<path d="M209.1515 71.1905
L209.1991 71.1905
" />
<path d="M209.1991 71.1905
L209.2943 71.2381
" />
<path d="M209.2943 71.2381
L209.3420 71.2857
" />
<path d="M209.3420 71.2857
L209.3896 71.3810
" />
<path d="M209.3896 71.3810
L209.3896 71.5714
" />
<path d="M209.3896 71.5714
L209.3420 71.6667
" />
<path d="M209.3420 71.6667
L209.2943 71.7143
" />
<path d="M209.2943 71.7143
L209.1991 71.7619
" />
<path d="M209.1991 71.7619
L209.1515 71.7619
" />
<path d="M209.1515 71.7619
L209.0562 71.7143
" />
<path d="M209.0562 71.7143
L209.0086 71.6667
" />
<path d="M209.0086 71.6667
L208.9610 71.5714
" />
<path d="M208.9610 71.5714
L208.9610 71.3810
" />
<path d="M208.9610 71.3810
L208.9134 71.2857
" />
<path d="M208.9134 71.2857
L208.8658 71.2381
" />
<path d="M208.8658 71.2381
L208.7705 71.1905
" />
<path d="M208.7705 71.1905
L208.5801 71.1905
" />
<path d="M208.5801 71.1905
L208.4848 71.2381
" />
<path d="M208.4848 71.2381
L208.4372 71.2857
" />
<path d="M208.4372 71.2857
L208.3896 71.3810
" />
<path d="M208.3896 71.3810
L208.3896 71.5714
" />
<path d="M208.3896 71.5714
L208.4372 71.6667
" />
<path d="M208.4372 71.6667
L208.4848 71.7143
" />
<path d="M208.4848 71.7143
L208.5801 71.7619
" />
<path d="M208.5801 71.7619
L208.7705 71.7619
" />
<path d="M208.7705 71.7619
L208.8658 71.7143
" />
<path d="M208.8658 71.7143
L208.9134 71.6667
" />
<path d="M208.9134 71.6667
L208.9610 71.5714
" />
<path d="M209.3896 72.3810
L209.3896 72.4762
" />
<path d="M209.3896 72.4762
L209.3420 72.5714
" />
<path d="M209.3420 72.5714
L209.2943 72.6190
" />
<path d="M209.2943 72.6190
L209.1991 72.6667
" />
<path d="M209.1991 72.6667
L209.0086 72.7143
" />
<path d="M209.0086 72.7143
L208.7705 72.7143
" />
<path d="M208.7705 72.7143
L208.5801 72.6667
" />
<path d="M208.5801 72.6667
L208.4848 72.6190
" />
<path d="M208.4848 72.6190
L208.4372 72.5714
" />
<path d="M208.4372 72.5714
L208.3896 72.4762
" />
<path d="M208.3896 72.4762
L208.3896 72.3810
" />
<path d="M208.3896 72.3810
L208.4372 72.2857
" />
<path d="M208.4372 72.2857
L208.4848 72.2381
" />
<path d="M208.4848 72.2381
L208.5801 72.1905
" />
<path d="M208.5801 72.1905
L208.7705 72.1429
" />
<path d="M208.7705 72.1429
L209.0086 72.1429
" />
<path d="M209.0086 72.1429
L209.1991 72.1905
" />
<path d="M209.1991 72.1905
L209.2943 72.2381
" />
<path d="M209.2943 72.2381
L209.3420 72.2857
" />
<path d="M209.3420 72.2857
L209.3896 72.3810
" />
<path d="M209.3896 73.6190
L209.3896 73.1429
" />
<path d="M209.3896 73.1429
L208.9134 73.0952
" />
<path d="M208.9134 73.0952
L208.9610 73.1429
" />
<path d="M208.9610 73.1429
L209.0086 73.2381
" />
<path d="M209.0086 73.2381
L209.0086 73.4762
" />
<path d="M209.0086 73.4762
L208.9610 73.5714
" />
<path d="M208.9610 73.5714
L208.9134 73.6190
" />
<path d="M208.9134 73.6190
L208.8182 73.6667
" />
<path d="M208.8182 73.6667
L208.5801 73.6667
" />
<path d="M208.5801 73.6667
L208.4848 73.6190
" />
<path d="M208.4848 73.6190
L208.4372 73.5714
" />
<path d="M208.4372 73.5714
L208.3896 73.4762
" />
<path d="M208.3896 73.4762
L208.3896 73.2381
" />
<path d="M208.3896 73.2381
L208.4372 73.1429
" />
<path d="M208.4372 73.1429
L208.4848 73.0952
" />
<path d="M208.2943 73.8571
L208.2943 74.6190
" />
<path d="M209.2943 74.8095
L209.3420 74.8571
" />
<path d="M209.3420 74.8571
L209.3896 74.9524
" />
<path d="M209.3896 74.9524
L209.3896 75.1905
" />
<path d="M209.3896 75.1905
L209.3420 75.2857
" />
<path d="M209.3420 75.2857
L209.2943 75.3333
" />
<path d="M209.2943 75.3333
L209.1991 75.3810
" />
<path d="M209.1991 75.3810
L209.1039 75.3810
" />
<path d="M209.1039 75.3810
L208.9610 75.3333
" />
<path d="M208.9610 75.3333
L208.3896 74.7619
" />
<path d="M208.3896 74.7619
L208.3896 75.3810
" />
<path d="M209.3896 76.2857
L209.3896 75.8095
" />
<path d="M209.3896 75.8095
L208.9134 75.7619
" />
<path d="M208.9134 75.7619
L208.9610 75.8095
" />
<path d="M208.9610 75.8095
L209.0086 75.9048
" />
<path d="M209.0086 75.9048
L209.0086 76.1429
" />
<path d="M209.0086 76.1429
L208.9610 76.2381
" />
<path d="M208.9610 76.2381
L208.9134 76.2857
" />
<path d="M208.9134 76.2857
L208.8182 76.3333
" />
<path d="M208.8182 76.3333
L208.5801 76.3333
" />
<path d="M208.5801 76.3333
L208.4848 76.2857
" />
<path d="M208.4848 76.2857
L208.4372 76.2381
" />
<path d="M208.4372 76.2381
L208.3896 76.1429
" />
<path d="M208.3896 76.1429
L208.3896 75.9048
" />
<path d="M208.3896 75.9048
L208.4372 75.8095
" />
<path d="M208.4372 75.8095
L208.4848 75.7619
" />
<path d="M209.3896 76.6190
L208.3896 76.9524
" />
<path d="M208.3896 76.9524
L209.3896 77.2857
" />
</g></g>
<g style="fill:#000000; fill-opacity:0.0; 
stroke:#000000; stroke-width:0.1200; stroke-opacity:1; 
stroke-linecap:round; stroke-linejoin:round;">
<g transform="rotate(-90.000000 207.0022 71.5000)">
<text x="207.0022" y="71.9000"
transform="scale(-1 1) translate(-414.004400 0)"
textLength="1.7019" font-size="1.0667" lengthAdjust="spacingAndGlyphs"
text-anchor="middle" opacity="0">C3</text>
</g>
<g class="stroked-text"><desc>C3</desc>
<path d="M206.7083 71.3667
L206.6702 71.3286
" />
<path d="M206.6702 71.3286
L206.6321 71.2143
" />
<path d="M206.6321 71.2143
L206.6321 71.1381
" />
<path d="M206.6321 71.1381
L206.6702 71.0238
" />
<path d="M206.6702 71.0238
L206.7464 70.9476
" />
<path d="M206.7464 70.9476
L206.8226 70.9095
" />
<path d="M206.8226 70.9095
L206.9750 70.8714
" />
<path d="M206.9750 70.8714
L207.0892 70.8714
" />
<path d="M207.0892 70.8714
L207.2416 70.9095
" />
<path d="M207.2416 70.9095
L207.3178 70.9476
" />
<path d="M207.3178 70.9476
L207.3940 71.0238
" />
<path d="M207.3940 71.0238
L207.4321 71.1381
" />
<path d="M207.4321 71.1381
L207.4321 71.2143
" />
<path d="M207.4321 71.2143
L207.3940 71.3286
" />
<path d="M207.3940 71.3286
L207.3559 71.3667
" />
<path d="M207.4321 71.6333
L207.4321 72.1286
" />
<path d="M207.4321 72.1286
L207.1273 71.8619
" />
<path d="M207.1273 71.8619
L207.1273 71.9762
" />
<path d="M207.1273 71.9762
L207.0892 72.0524
" />
<path d="M207.0892 72.0524
L207.0512 72.0905
" />
<path d="M207.0512 72.0905
L206.9750 72.1286
" />
<path d="M206.9750 72.1286
L206.7845 72.1286
" />
<path d="M206.7845 72.1286
L206.7083 72.0905
" />
<path d="M206.7083 72.0905
L206.6702 72.0524
" />
<path d="M206.6702 72.0524
L206.6321 71.9762
" />
<path d="M206.6321 71.9762
L206.6321 71.7476
" />
<path d="M206.6321 71.7476
L206.6702 71.6714
" />
<path d="M206.6702 71.6714
L206.7083 71.6333
" />
</g></g>
<g style="fill:#000000; fill-opacity:0.0; 
stroke:#000000; stroke-width:0.1000; stroke-opacity:1; 
stroke-linecap:round; stroke-linejoin:round;">
<path d="M204.0522 50.3500
L204.0522 54.2750
" />
<path d="M204.0522 54.2750
L203.0772 55.2500
" />
<path d="M203.0772 55.2500
L200.1522 55.2500
" />
<path d="M200.1522 50.3500
L204.0522 50.3500
" />
<path d="M200.1522 55.2500
L200.1522 50.3500
" />
</g>
<g style="fill:#000000; fill-opacity:0.0; 
stroke:#000000; stroke-width:0.1270; stroke-opacity:1; 
stroke-linecap:round; stroke-linejoin:round;">
<path d="M210.3522 65.3500
L210.3522 67.8500
" />
<path d="M210.3522 67.8500
L207.1522 67.8500
" />
<path d="M207.1522 65.3500
L210.3522 65.3500
" />
<path d="M207.1522 67.8500
L207.1522 65.3500
" />
</g>
<g style="fill:#000000; fill-opacity:0.0; 
stroke:#000000; stroke-width:0.1000; stroke-opacity:1; 
stroke-linecap:round; stroke-linejoin:round;">
<path d="M206.7022 58.8000
L206.7022 60.4000
" />
<path d="M206.7022 60.4000
L203.5022 60.4000
" />
<path d="M203.5022 58.8000
L206.7022 58.8000
" />
<path d="M203.5022 60.4000
L203.5022 58.8000
" />
<path d="M198.5422 64.0800
L199.1822 64.0800
" />
<path d="M199.1822 64.0800
L199.1822 65.4600
" />
<path d="M201.0822 64.0800
L201.7222 64.0800
" />
<path d="M201.7222 64.0800
L201.7222 65.4600
" />
<path d="M203.6222 64.0800
L204.2622 64.0800
" />
<path d="M204.2622 64.0800
L204.2622 65.4600
" />
<path d="M197.5922 65.4600
L205.2122 65.4600
" />
<path d="M198.5422 65.4600
L198.5422 64.0800
" />
<path d="M201.0822 65.4600
L201.0822 64.0800
" />
<path d="M203.6222 65.4600
L203.6222 64.0800
" />
<path d="M205.2122 65.4600
L205.2122 69.5400
" />
<path d="M205.2122 69.5400
L204.2122 70.5400
" />
<path d="M197.5922 70.5400
L197.5922 65.4600
" />
<path d="M199.1822 70.5400
L199.1822 71.9200
" />
<path d="M201.7222 70.5400
L201.7222 71.9200
" />
<path d="M204.2122 70.5400
L197.5922 70.5400
" />
<path d="M204.2622 70.5400
L204.2622 71.9200
" />
<path d="M198.5422 71.9200
L198.5422 70.5400
" />
<path d="M199.1822 71.9200
L198.5422 71.9200
" />
<path d="M201.0822 71.9200
L201.0822 70.5400
" />
<path d="M201.7222 71.9200
L201.0822 71.9200
" />
<path d="M203.6222 71.9200
L203.6222 70.5400
" />
<path d="M204.2622 71.9200
L203.6222 71.9200
" />
</g>
<g style="fill:#000000; fill-opacity:0.0; 
stroke:#000000; stroke-width:0.1500; stroke-opacity:1; 
stroke-linecap:round; stroke-linejoin:round;">
<path d="M209.6022 73.5000
L209.6022 71.0000
" />
<path d="M209.6022 71.0000
L210.1022 70.5000
" />
<path d="M210.1022 70.5000
L211.6022 70.5000
" />
<path d="M211.6022 73.5000
L209.6022 73.5000
" />
<path d="M211.6022 70.5000
L211.6022 73.5000
" />
</g>
<g style="fill:#000000; fill-opacity:0.0; 
stroke:#000000; stroke-width:0.1000; stroke-opacity:1; 
stroke-linecap:round; stroke-linejoin:round;">
<path d="M198.5772 56.5000
L199.8272 56.5000
" />
<path d="M199.8272 56.5000
L199.8272 58.5000
" />
<path d="M198.5772 58.5000
L198.5772 56.5000
" />
<path d="M199.8272 58.5000
L198.5772 58.5000
" />
<path d="M213.0022 69.9250
L213.0022 68.6750
" />
<path d="M213.0022 68.6750
L215.0022 68.6750
" />
<path d="M215.0022 69.9250
L213.0022 69.9250
" />
<path d="M215.0022 68.6750
L215.0022 69.9250
" />
<path d="M207.8022 73.1000
L206.2022 73.1000
" />
<path d="M206.2022 73.1000
L206.2022 69.9000
" />
<path d="M207.8022 69.9000
L207.8022 73.1000
" />
<path d="M206.2022 69.9000
L207.8022 69.9000
" />
<g >
</g>
<g >
</g>
<g >
</g>
<g >
</g>
<g >
</g>
<g >
</g>
<g >
</g>
<g >
</g>
<g >
</g>
<g >
</g>
<g >
</g>
<g >
</g>
<g >
</g>
<g >
</g>
<g >
</g>
<g >
</g>
<g >
</g>
<g >
</g>
<g >
</g>
</g> 
</svg>
