<?xml version="1.0" standalone="no"?>
 <!DOCTYPE svg PUBLIC "-//W3C//DTD SVG 1.1//EN" 
 "http://www.w3.org/Graphics/SVG/1.1/DTD/svg11.dtd"> 
<svg
  xmlns:svg="http://www.w3.org/2000/svg"
  xmlns="http://www.w3.org/2000/svg"
  xmlns:xlink="http://www.w3.org/1999/xlink"
  version="1.1"
  width="297.0022mm" height="210.0072mm" viewBox="0.0000 0.0000 297.0022 210.0072">
<title>SVG Image created as pedalboard-led-ring-F_Silkscreen.svg date 2023/05/28 08:24:16 </title>
  <desc>Image generated by PCBNEW </desc>
<g style="fill:#000000; fill-opacity:1.0000;stroke:#000000; stroke-opacity:1.0000;
stroke-linecap:round; stroke-linejoin:round;"
 transform="translate(0 0) scale(1 1)">
</g>
<g style="fill:#000000; fill-opacity:0.0; 
stroke:#000000; stroke-width:0.0000; stroke-opacity:1; 
stroke-linecap:round; stroke-linejoin:round;">
</g>
<g style="fill:#000000; fill-opacity:0.0; 
stroke:#000000; stroke-width:0.1500; stroke-opacity:1; 
stroke-linecap:round; stroke-linejoin:round;">
<g transform="rotate(60.000000 90.2928 58.2597)">
<text x="90.2928" y="58.6597"
textLength="1.7769" font-size="1.0667" lengthAdjust="spacingAndGlyphs"
text-anchor="middle" opacity="0">D6</text>
</g>
<g class="stroked-text"><desc>D6</desc>
<path d="M89.6771 57.9334
L90.3699 57.5334
" />
<path d="M90.3699 57.5334
L90.4651 57.6983
" />
<path d="M90.4651 57.6983
L90.4893 57.8163
" />
<path d="M90.4893 57.8163
L90.4614 57.9204
" />
<path d="M90.4614 57.9204
L90.4145 57.9915
" />
<path d="M90.4145 57.9915
L90.3015 58.1007
" />
<path d="M90.3015 58.1007
L90.2026 58.1578
" />
<path d="M90.2026 58.1578
L90.0516 58.2010
" />
<path d="M90.0516 58.2010
L89.9665 58.2061
" />
<path d="M89.9665 58.2061
L89.8624 58.1782
" />
<path d="M89.8624 58.1782
L89.7723 58.0983
" />
<path d="M89.7723 58.0983
L89.6771 57.9334
" />
<path d="M90.9413 58.5231
L90.8651 58.3911
" />
<path d="M90.8651 58.3911
L90.7940 58.3442
" />
<path d="M90.7940 58.3442
L90.7420 58.3303
" />
<path d="M90.7420 58.3303
L90.6049 58.3214
" />
<path d="M90.6049 58.3214
L90.4539 58.3646
" />
<path d="M90.4539 58.3646
L90.1900 58.5170
" />
<path d="M90.1900 58.5170
L90.1431 58.5881
" />
<path d="M90.1431 58.5881
L90.1291 58.6401
" />
<path d="M90.1291 58.6401
L90.1342 58.7252
" />
<path d="M90.1342 58.7252
L90.2104 58.8571
" />
<path d="M90.2104 58.8571
L90.2815 58.9041
" />
<path d="M90.2815 58.9041
L90.3335 58.9180
" />
<path d="M90.3335 58.9180
L90.4186 58.9129
" />
<path d="M90.4186 58.9129
L90.5835 58.8177
" />
<path d="M90.5835 58.8177
L90.6305 58.7466
" />
<path d="M90.6305 58.7466
L90.6444 58.6945
" />
<path d="M90.6444 58.6945
L90.6393 58.6095
" />
<path d="M90.6393 58.6095
L90.5631 58.4775
" />
<path d="M90.5631 58.4775
L90.4920 58.4306
" />
<path d="M90.4920 58.4306
L90.4400 58.4167
" />
<path d="M90.4400 58.4167
L90.3549 58.4218
" />
</g><text x="76.9000" y="70.2000"
textLength="1.7769" font-size="1.0667" lengthAdjust="spacingAndGlyphs"
text-anchor="middle" opacity="0">D2</text>
<g class="stroked-text"><desc>D2</desc>
<path d="M76.3095 70.1701
L76.3095 69.3701
" />
<path d="M76.3095 69.3701
L76.5000 69.3701
" />
<path d="M76.5000 69.3701
L76.6143 69.4082
" />
<path d="M76.6143 69.4082
L76.6905 69.4844
" />
<path d="M76.6905 69.4844
L76.7286 69.5606
" />
<path d="M76.7286 69.5606
L76.7667 69.7130
" />
<path d="M76.7667 69.7130
L76.7667 69.8272
" />
<path d="M76.7667 69.8272
L76.7286 69.9796
" />
<path d="M76.7286 69.9796
L76.6905 70.0558
" />
<path d="M76.6905 70.0558
L76.6143 70.1320
" />
<path d="M76.6143 70.1320
L76.5000 70.1701
" />
<path d="M76.5000 70.1701
L76.3095 70.1701
" />
<path d="M77.0714 69.4463
L77.1095 69.4082
" />
<path d="M77.1095 69.4082
L77.1857 69.3701
" />
<path d="M77.1857 69.3701
L77.3762 69.3701
" />
<path d="M77.3762 69.3701
L77.4524 69.4082
" />
<path d="M77.4524 69.4082
L77.4905 69.4463
" />
<path d="M77.4905 69.4463
L77.5286 69.5225
" />
<path d="M77.5286 69.5225
L77.5286 69.5987
" />
<path d="M77.5286 69.5987
L77.4905 69.7130
" />
<path d="M77.4905 69.7130
L77.0333 70.1701
" />
<path d="M77.0333 70.1701
L77.5286 70.1701
" />
</g><text x="83.1000" y="50.6000"
textLength="1.7769" font-size="1.0667" lengthAdjust="spacingAndGlyphs"
text-anchor="middle" opacity="0">D5</text>
<g class="stroked-text"><desc>D5</desc>
<path d="M82.5095 50.5701
L82.5095 49.7701
" />
<path d="M82.5095 49.7701
L82.7000 49.7701
" />
<path d="M82.7000 49.7701
L82.8143 49.8082
" />
<path d="M82.8143 49.8082
L82.8905 49.8844
" />
<path d="M82.8905 49.8844
L82.9286 49.9606
" />
<path d="M82.9286 49.9606
L82.9667 50.1130
" />
<path d="M82.9667 50.1130
L82.9667 50.2272
" />
<path d="M82.9667 50.2272
L82.9286 50.3796
" />
<path d="M82.9286 50.3796
L82.8905 50.4558
" />
<path d="M82.8905 50.4558
L82.8143 50.5320
" />
<path d="M82.8143 50.5320
L82.7000 50.5701
" />
<path d="M82.7000 50.5701
L82.5095 50.5701
" />
<path d="M83.6905 49.7701
L83.3095 49.7701
" />
<path d="M83.3095 49.7701
L83.2714 50.1510
" />
<path d="M83.2714 50.1510
L83.3095 50.1130
" />
<path d="M83.3095 50.1130
L83.3857 50.0749
" />
<path d="M83.3857 50.0749
L83.5762 50.0749
" />
<path d="M83.5762 50.0749
L83.6524 50.1130
" />
<path d="M83.6524 50.1130
L83.6905 50.1510
" />
<path d="M83.6905 50.1510
L83.7286 50.2272
" />
<path d="M83.7286 50.2272
L83.7286 50.4177
" />
<path d="M83.7286 50.4177
L83.6905 50.4939
" />
<path d="M83.6905 50.4939
L83.6524 50.5320
" />
<path d="M83.6524 50.5320
L83.5762 50.5701
" />
<path d="M83.5762 50.5701
L83.3857 50.5701
" />
<path d="M83.3857 50.5701
L83.3095 50.5320
" />
<path d="M83.3095 50.5320
L83.2714 50.4939
" />
</g><g transform="rotate(60.000000 69.7072 61.7403)">
<text x="69.7072" y="62.1403"
textLength="1.7769" font-size="1.0667" lengthAdjust="spacingAndGlyphs"
text-anchor="middle" opacity="0">D3</text>
</g>
<g class="stroked-text"><desc>D3</desc>
<path d="M69.0914 61.4140
L69.7843 61.0140
" />
<path d="M69.7843 61.0140
L69.8795 61.1790
" />
<path d="M69.8795 61.1790
L69.9036 61.2970
" />
<path d="M69.9036 61.2970
L69.8758 61.4011
" />
<path d="M69.8758 61.4011
L69.8288 61.4721
" />
<path d="M69.8288 61.4721
L69.7159 61.5813
" />
<path d="M69.7159 61.5813
L69.6169 61.6385
" />
<path d="M69.6169 61.6385
L69.4659 61.6817
" />
<path d="M69.4659 61.6817
L69.3809 61.6868
" />
<path d="M69.3809 61.6868
L69.2768 61.6589
" />
<path d="M69.2768 61.6589
L69.1867 61.5790
" />
<path d="M69.1867 61.5790
L69.0914 61.4140
" />
<path d="M70.1462 61.6408
L70.3938 62.0697
" />
<path d="M70.3938 62.0697
L69.9965 61.9912
" />
<path d="M69.9965 61.9912
L70.0537 62.0901
" />
<path d="M70.0537 62.0901
L70.0588 62.1752
" />
<path d="M70.0588 62.1752
L70.0448 62.2272
" />
<path d="M70.0448 62.2272
L69.9979 62.2983
" />
<path d="M69.9979 62.2983
L69.8329 62.3935
" />
<path d="M69.8329 62.3935
L69.7479 62.3986
" />
<path d="M69.7479 62.3986
L69.6958 62.3847
" />
<path d="M69.6958 62.3847
L69.6248 62.3378
" />
<path d="M69.6248 62.3378
L69.5105 62.1398
" />
<path d="M69.5105 62.1398
L69.5054 62.0548
" />
<path d="M69.5054 62.0548
L69.5193 62.0027
" />
</g><g transform="rotate(-60.000000 72.8072 52.8903)">
<text x="72.8072" y="53.2903"
textLength="1.7769" font-size="1.0667" lengthAdjust="spacingAndGlyphs"
text-anchor="middle" opacity="0">D4</text>
</g>
<g class="stroked-text"><desc>D4</desc>
<path d="M72.8325 53.5867
L72.1396 53.1867
" />
<path d="M72.1396 53.1867
L72.2349 53.0218
" />
<path d="M72.2349 53.0218
L72.3250 52.9419
" />
<path d="M72.3250 52.9419
L72.4291 52.9140
" />
<path d="M72.4291 52.9140
L72.5141 52.9191
" />
<path d="M72.5141 52.9191
L72.6651 52.9623
" />
<path d="M72.6651 52.9623
L72.7641 53.0194
" />
<path d="M72.7641 53.0194
L72.8770 53.1286
" />
<path d="M72.8770 53.1286
L72.9240 53.1997
" />
<path d="M72.9240 53.1997
L72.9518 53.3038
" />
<path d="M72.9518 53.3038
L72.9277 53.4218
" />
<path d="M72.9277 53.4218
L72.8325 53.5867
" />
<path d="M72.9420 52.3303
L73.4039 52.5970
" />
<path d="M72.5828 52.3429
L72.9825 52.7936
" />
<path d="M72.9825 52.7936
L73.2301 52.3647
" />
</g><g transform="rotate(-60.000000 87.1928 67.1097)">
<text x="87.1928" y="67.5097"
textLength="1.7769" font-size="1.0667" lengthAdjust="spacingAndGlyphs"
text-anchor="middle" opacity="0">D1</text>
</g>
<g class="stroked-text"><desc>D1</desc>
<path d="M87.2181 67.8061
L86.5253 67.4061
" />
<path d="M86.5253 67.4061
L86.6205 67.2411
" />
<path d="M86.6205 67.2411
L86.7106 67.1612
" />
<path d="M86.7106 67.1612
L86.8147 67.1333
" />
<path d="M86.8147 67.1333
L86.8998 67.1384
" />
<path d="M86.8998 67.1384
L87.0508 67.1816
" />
<path d="M87.0508 67.1816
L87.1497 67.2388
" />
<path d="M87.1497 67.2388
L87.2627 67.3479
" />
<path d="M87.2627 67.3479
L87.3096 67.4190
" />
<path d="M87.3096 67.4190
L87.3375 67.5231
" />
<path d="M87.3375 67.5231
L87.3133 67.6411
" />
<path d="M87.3133 67.6411
L87.2181 67.8061
" />
<path d="M87.8276 66.7504
L87.5990 67.1463
" />
<path d="M87.7133 66.9483
L87.0205 66.5483
" />
<path d="M87.0205 66.5483
L87.0814 66.6714
" />
<path d="M87.0814 66.6714
L87.1093 66.7755
" />
<path d="M87.1093 66.7755
L87.1042 66.8606
" />
</g></g>
<g style="fill:#000000; fill-opacity:0.0; 
stroke:#000000; stroke-width:0.1200; stroke-opacity:1; 
stroke-linecap:round; stroke-linejoin:round;">
<path d="M86.4474 55.3992
L88.3526 54.2992
" />
<path d="M88.0072 57.5008
L89.3928 56.7008
" />
<path d="M81.3000 67.9000
L81.3000 70.1000
" />
<path d="M78.7000 68.2000
L78.7000 69.8000
" />
<path d="M78.7000 52.1000
L78.7000 49.9000
" />
<path d="M81.3000 51.8000
L81.3000 50.2000
" />
<path d="M73.5526 64.6008
L71.6474 65.7008
" />
<path d="M71.9928 62.4992
L70.6072 63.2992
" />
<path d="M72.2526 57.6508
L70.3474 56.5508
" />
<path d="M73.2928 55.2492
L71.9072 54.4492
" />
<path d="M87.7474 62.3492
L89.6526 63.4492
" />
<path d="M86.7072 64.7508
L88.0928 65.5508
" />
<g >
</g>
<g >
</g>
<g >
</g>
<g >
</g>
<g >
</g>
<g >
</g>
<g >
</g>
<g >
</g>
<g >
</g>
<g >
</g>
<g >
</g>
<g >
</g>
<g >
</g>
<g >
</g>
<g >
</g>
<g >
</g>
<g >
</g>
<g >
</g>
<g >
</g>
</g> 
</svg>
