<?xml version="1.0" standalone="no"?>
 <!DOCTYPE svg PUBLIC "-//W3C//DTD SVG 1.1//EN" 
 "http://www.w3.org/Graphics/SVG/1.1/DTD/svg11.dtd"> 
<svg
  xmlns:svg="http://www.w3.org/2000/svg"
  xmlns="http://www.w3.org/2000/svg"
  xmlns:xlink="http://www.w3.org/1999/xlink"
  version="1.1"
  width="297.0022mm" height="210.0072mm" viewBox="0.0000 0.0000 297.0022 210.0072">
<title>SVG Image created as pedalboard-led-ring-frame.svg date 2023/05/28 08:24:16 </title>
  <desc>Image generated by PCBNEW </desc>
<g style="fill:#000000; fill-opacity:1.0000;stroke:#000000; stroke-opacity:1.0000;
stroke-linecap:round; stroke-linejoin:round;"
 transform="translate(0 0) scale(1 1)">
</g>
<g style="fill:#000000; fill-opacity:0.0; 
stroke:#000000; stroke-width:0.0000; stroke-opacity:1; 
stroke-linecap:round; stroke-linejoin:round;">
</g>
<g style="fill:#000000; fill-opacity:0.0; 
stroke:#000000; stroke-width:0.1500; stroke-opacity:1; 
stroke-linecap:round; stroke-linejoin:round;">
<path d="M261.0000 191.5000
L261.0000 198.0000
" />
<path d="M197.0000 191.5000
L197.0000 194.5000
" />
<text x="178.0000" y="183.7500"
textLength="22.6464" font-size="2.0000" lengthAdjust="spacingAndGlyphs"
text-anchor="start" opacity="0">Sheet: Front copper</text>
<g class="stroked-text"><desc>Sheet: Front copper</desc>
<path d="M178.2857 183.6225
L178.5000 183.6939
" />
<path d="M178.5000 183.6939
L178.8571 183.6939
" />
<path d="M178.8571 183.6939
L179.0000 183.6225
" />
<path d="M179.0000 183.6225
L179.0714 183.5511
" />
<path d="M179.0714 183.5511
L179.1429 183.4082
" />
<path d="M179.1429 183.4082
L179.1429 183.2654
" />
<path d="M179.1429 183.2654
L179.0714 183.1225
" />
<path d="M179.0714 183.1225
L179.0000 183.0511
" />
<path d="M179.0000 183.0511
L178.8571 182.9796
" />
<path d="M178.8571 182.9796
L178.5714 182.9082
" />
<path d="M178.5714 182.9082
L178.4286 182.8368
" />
<path d="M178.4286 182.8368
L178.3571 182.7654
" />
<path d="M178.3571 182.7654
L178.2857 182.6225
" />
<path d="M178.2857 182.6225
L178.2857 182.4796
" />
<path d="M178.2857 182.4796
L178.3571 182.3368
" />
<path d="M178.3571 182.3368
L178.4286 182.2654
" />
<path d="M178.4286 182.2654
L178.5714 182.1939
" />
<path d="M178.5714 182.1939
L178.9286 182.1939
" />
<path d="M178.9286 182.1939
L179.1429 182.2654
" />
<path d="M179.7857 183.6939
L179.7857 182.1939
" />
<path d="M180.4286 183.6939
L180.4286 182.9082
" />
<path d="M180.4286 182.9082
L180.3571 182.7654
" />
<path d="M180.3571 182.7654
L180.2143 182.6939
" />
<path d="M180.2143 182.6939
L180.0000 182.6939
" />
<path d="M180.0000 182.6939
L179.8571 182.7654
" />
<path d="M179.8571 182.7654
L179.7857 182.8368
" />
<path d="M181.7143 183.6225
L181.5714 183.6939
" />
<path d="M181.5714 183.6939
L181.2857 183.6939
" />
<path d="M181.2857 183.6939
L181.1429 183.6225
" />
<path d="M181.1429 183.6225
L181.0714 183.4796
" />
<path d="M181.0714 183.4796
L181.0714 182.9082
" />
<path d="M181.0714 182.9082
L181.1429 182.7654
" />
<path d="M181.1429 182.7654
L181.2857 182.6939
" />
<path d="M181.2857 182.6939
L181.5714 182.6939
" />
<path d="M181.5714 182.6939
L181.7143 182.7654
" />
<path d="M181.7143 182.7654
L181.7857 182.9082
" />
<path d="M181.7857 182.9082
L181.7857 183.0511
" />
<path d="M181.7857 183.0511
L181.0714 183.1939
" />
<path d="M183.0000 183.6225
L182.8571 183.6939
" />
<path d="M182.8571 183.6939
L182.5714 183.6939
" />
<path d="M182.5714 183.6939
L182.4286 183.6225
" />
<path d="M182.4286 183.6225
L182.3571 183.4796
" />
<path d="M182.3571 183.4796
L182.3571 182.9082
" />
<path d="M182.3571 182.9082
L182.4286 182.7654
" />
<path d="M182.4286 182.7654
L182.5714 182.6939
" />
<path d="M182.5714 182.6939
L182.8571 182.6939
" />
<path d="M182.8571 182.6939
L183.0000 182.7654
" />
<path d="M183.0000 182.7654
L183.0714 182.9082
" />
<path d="M183.0714 182.9082
L183.0714 183.0511
" />
<path d="M183.0714 183.0511
L182.3571 183.1939
" />
<path d="M183.5000 182.6939
L184.0714 182.6939
" />
<path d="M183.7143 182.1939
L183.7143 183.4796
" />
<path d="M183.7143 183.4796
L183.7857 183.6225
" />
<path d="M183.7857 183.6225
L183.9286 183.6939
" />
<path d="M183.9286 183.6939
L184.0714 183.6939
" />
<path d="M184.5714 183.5511
L184.6429 183.6225
" />
<path d="M184.6429 183.6225
L184.5714 183.6939
" />
<path d="M184.5714 183.6939
L184.5000 183.6225
" />
<path d="M184.5000 183.6225
L184.5714 183.5511
" />
<path d="M184.5714 183.5511
L184.5714 183.6939
" />
<path d="M184.5714 182.7654
L184.6429 182.8368
" />
<path d="M184.6429 182.8368
L184.5714 182.9082
" />
<path d="M184.5714 182.9082
L184.5000 182.8368
" />
<path d="M184.5000 182.8368
L184.5714 182.7654
" />
<path d="M184.5714 182.7654
L184.5714 182.9082
" />
<path d="M186.9286 182.9082
L186.4286 182.9082
" />
<path d="M186.4286 183.6939
L186.4286 182.1939
" />
<path d="M186.4286 182.1939
L187.1429 182.1939
" />
<path d="M187.7143 183.6939
L187.7143 182.6939
" />
<path d="M187.7143 182.9796
L187.7857 182.8368
" />
<path d="M187.7857 182.8368
L187.8571 182.7654
" />
<path d="M187.8571 182.7654
L188.0000 182.6939
" />
<path d="M188.0000 182.6939
L188.1429 182.6939
" />
<path d="M188.8571 183.6939
L188.7143 183.6225
" />
<path d="M188.7143 183.6225
L188.6429 183.5511
" />
<path d="M188.6429 183.5511
L188.5714 183.4082
" />
<path d="M188.5714 183.4082
L188.5714 182.9796
" />
<path d="M188.5714 182.9796
L188.6429 182.8368
" />
<path d="M188.6429 182.8368
L188.7143 182.7654
" />
<path d="M188.7143 182.7654
L188.8571 182.6939
" />
<path d="M188.8571 182.6939
L189.0714 182.6939
" />
<path d="M189.0714 182.6939
L189.2143 182.7654
" />
<path d="M189.2143 182.7654
L189.2857 182.8368
" />
<path d="M189.2857 182.8368
L189.3571 182.9796
" />
<path d="M189.3571 182.9796
L189.3571 183.4082
" />
<path d="M189.3571 183.4082
L189.2857 183.5511
" />
<path d="M189.2857 183.5511
L189.2143 183.6225
" />
<path d="M189.2143 183.6225
L189.0714 183.6939
" />
<path d="M189.0714 183.6939
L188.8571 183.6939
" />
<path d="M190.0000 182.6939
L190.0000 183.6939
" />
<path d="M190.0000 182.8368
L190.0714 182.7654
" />
<path d="M190.0714 182.7654
L190.2143 182.6939
" />
<path d="M190.2143 182.6939
L190.4286 182.6939
" />
<path d="M190.4286 182.6939
L190.5714 182.7654
" />
<path d="M190.5714 182.7654
L190.6429 182.9082
" />
<path d="M190.6429 182.9082
L190.6429 183.6939
" />
<path d="M191.1429 182.6939
L191.7143 182.6939
" />
<path d="M191.3571 182.1939
L191.3571 183.4796
" />
<path d="M191.3571 183.4796
L191.4286 183.6225
" />
<path d="M191.4286 183.6225
L191.5714 183.6939
" />
<path d="M191.5714 183.6939
L191.7143 183.6939
" />
<path d="M194.0000 183.6225
L193.8571 183.6939
" />
<path d="M193.8571 183.6939
L193.5714 183.6939
" />
<path d="M193.5714 183.6939
L193.4286 183.6225
" />
<path d="M193.4286 183.6225
L193.3571 183.5511
" />
<path d="M193.3571 183.5511
L193.2857 183.4082
" />
<path d="M193.2857 183.4082
L193.2857 182.9796
" />
<path d="M193.2857 182.9796
L193.3571 182.8368
" />
<path d="M193.3571 182.8368
L193.4286 182.7654
" />
<path d="M193.4286 182.7654
L193.5714 182.6939
" />
<path d="M193.5714 182.6939
L193.8571 182.6939
" />
<path d="M193.8571 182.6939
L194.0000 182.7654
" />
<path d="M194.8571 183.6939
L194.7143 183.6225
" />
<path d="M194.7143 183.6225
L194.6429 183.5511
" />
<path d="M194.6429 183.5511
L194.5714 183.4082
" />
<path d="M194.5714 183.4082
L194.5714 182.9796
" />
<path d="M194.5714 182.9796
L194.6429 182.8368
" />
<path d="M194.6429 182.8368
L194.7143 182.7654
" />
<path d="M194.7143 182.7654
L194.8571 182.6939
" />
<path d="M194.8571 182.6939
L195.0714 182.6939
" />
<path d="M195.0714 182.6939
L195.2143 182.7654
" />
<path d="M195.2143 182.7654
L195.2857 182.8368
" />
<path d="M195.2857 182.8368
L195.3571 182.9796
" />
<path d="M195.3571 182.9796
L195.3571 183.4082
" />
<path d="M195.3571 183.4082
L195.2857 183.5511
" />
<path d="M195.2857 183.5511
L195.2143 183.6225
" />
<path d="M195.2143 183.6225
L195.0714 183.6939
" />
<path d="M195.0714 183.6939
L194.8571 183.6939
" />
<path d="M196.0000 182.6939
L196.0000 184.1939
" />
<path d="M196.0000 182.7654
L196.1429 182.6939
" />
<path d="M196.1429 182.6939
L196.4286 182.6939
" />
<path d="M196.4286 182.6939
L196.5714 182.7654
" />
<path d="M196.5714 182.7654
L196.6429 182.8368
" />
<path d="M196.6429 182.8368
L196.7143 182.9796
" />
<path d="M196.7143 182.9796
L196.7143 183.4082
" />
<path d="M196.7143 183.4082
L196.6429 183.5511
" />
<path d="M196.6429 183.5511
L196.5714 183.6225
" />
<path d="M196.5714 183.6225
L196.4286 183.6939
" />
<path d="M196.4286 183.6939
L196.1429 183.6939
" />
<path d="M196.1429 183.6939
L196.0000 183.6225
" />
<path d="M197.3571 182.6939
L197.3571 184.1939
" />
<path d="M197.3571 182.7654
L197.5000 182.6939
" />
<path d="M197.5000 182.6939
L197.7857 182.6939
" />
<path d="M197.7857 182.6939
L197.9286 182.7654
" />
<path d="M197.9286 182.7654
L198.0000 182.8368
" />
<path d="M198.0000 182.8368
L198.0714 182.9796
" />
<path d="M198.0714 182.9796
L198.0714 183.4082
" />
<path d="M198.0714 183.4082
L198.0000 183.5511
" />
<path d="M198.0000 183.5511
L197.9286 183.6225
" />
<path d="M197.9286 183.6225
L197.7857 183.6939
" />
<path d="M197.7857 183.6939
L197.5000 183.6939
" />
<path d="M197.5000 183.6939
L197.3571 183.6225
" />
<path d="M199.2857 183.6225
L199.1429 183.6939
" />
<path d="M199.1429 183.6939
L198.8571 183.6939
" />
<path d="M198.8571 183.6939
L198.7143 183.6225
" />
<path d="M198.7143 183.6225
L198.6429 183.4796
" />
<path d="M198.6429 183.4796
L198.6429 182.9082
" />
<path d="M198.6429 182.9082
L198.7143 182.7654
" />
<path d="M198.7143 182.7654
L198.8571 182.6939
" />
<path d="M198.8571 182.6939
L199.1429 182.6939
" />
<path d="M199.1429 182.6939
L199.2857 182.7654
" />
<path d="M199.2857 182.7654
L199.3571 182.9082
" />
<path d="M199.3571 182.9082
L199.3571 183.0511
" />
<path d="M199.3571 183.0511
L198.6429 183.1939
" />
<path d="M200.0000 183.6939
L200.0000 182.6939
" />
<path d="M200.0000 182.9796
L200.0714 182.8368
" />
<path d="M200.0714 182.8368
L200.1429 182.7654
" />
<path d="M200.1429 182.7654
L200.2857 182.6939
" />
<path d="M200.2857 182.6939
L200.4286 182.6939
" />
</g><path d="M177.0000 181.5000
L285.0000 181.5000
" />
<text x="178.0000" y="186.4500"
textLength="41.7893" font-size="2.0000" lengthAdjust="spacingAndGlyphs"
text-anchor="start" opacity="0">File: pedalboard-led-ring.kicad_pcb</text>
<g class="stroked-text"><desc>File: pedalboard-led-ring.kicad_pcb</desc>
<path d="M178.8571 185.6082
L178.3571 185.6082
" />
<path d="M178.3571 186.3939
L178.3571 184.8939
" />
<path d="M178.3571 184.8939
L179.0714 184.8939
" />
<path d="M179.6429 186.3939
L179.6429 185.3939
" />
<path d="M179.6429 184.8939
L179.5714 184.9654
" />
<path d="M179.5714 184.9654
L179.6429 185.0368
" />
<path d="M179.6429 185.0368
L179.7143 184.9654
" />
<path d="M179.7143 184.9654
L179.6429 184.8939
" />
<path d="M179.6429 184.8939
L179.6429 185.0368
" />
<path d="M180.5714 186.3939
L180.4286 186.3225
" />
<path d="M180.4286 186.3225
L180.3571 186.1796
" />
<path d="M180.3571 186.1796
L180.3571 184.8939
" />
<path d="M181.7143 186.3225
L181.5714 186.3939
" />
<path d="M181.5714 186.3939
L181.2857 186.3939
" />
<path d="M181.2857 186.3939
L181.1429 186.3225
" />
<path d="M181.1429 186.3225
L181.0714 186.1796
" />
<path d="M181.0714 186.1796
L181.0714 185.6082
" />
<path d="M181.0714 185.6082
L181.1429 185.4654
" />
<path d="M181.1429 185.4654
L181.2857 185.3939
" />
<path d="M181.2857 185.3939
L181.5714 185.3939
" />
<path d="M181.5714 185.3939
L181.7143 185.4654
" />
<path d="M181.7143 185.4654
L181.7857 185.6082
" />
<path d="M181.7857 185.6082
L181.7857 185.7511
" />
<path d="M181.7857 185.7511
L181.0714 185.8939
" />
<path d="M182.4286 186.2511
L182.5000 186.3225
" />
<path d="M182.5000 186.3225
L182.4286 186.3939
" />
<path d="M182.4286 186.3939
L182.3571 186.3225
" />
<path d="M182.3571 186.3225
L182.4286 186.2511
" />
<path d="M182.4286 186.2511
L182.4286 186.3939
" />
<path d="M182.4286 185.4654
L182.5000 185.5368
" />
<path d="M182.5000 185.5368
L182.4286 185.6082
" />
<path d="M182.4286 185.6082
L182.3571 185.5368
" />
<path d="M182.3571 185.5368
L182.4286 185.4654
" />
<path d="M182.4286 185.4654
L182.4286 185.6082
" />
<path d="M184.2857 185.3939
L184.2857 186.8939
" />
<path d="M184.2857 185.4654
L184.4286 185.3939
" />
<path d="M184.4286 185.3939
L184.7143 185.3939
" />
<path d="M184.7143 185.3939
L184.8571 185.4654
" />
<path d="M184.8571 185.4654
L184.9286 185.5368
" />
<path d="M184.9286 185.5368
L185.0000 185.6796
" />
<path d="M185.0000 185.6796
L185.0000 186.1082
" />
<path d="M185.0000 186.1082
L184.9286 186.2511
" />
<path d="M184.9286 186.2511
L184.8571 186.3225
" />
<path d="M184.8571 186.3225
L184.7143 186.3939
" />
<path d="M184.7143 186.3939
L184.4286 186.3939
" />
<path d="M184.4286 186.3939
L184.2857 186.3225
" />
<path d="M186.2143 186.3225
L186.0714 186.3939
" />
<path d="M186.0714 186.3939
L185.7857 186.3939
" />
<path d="M185.7857 186.3939
L185.6429 186.3225
" />
<path d="M185.6429 186.3225
L185.5714 186.1796
" />
<path d="M185.5714 186.1796
L185.5714 185.6082
" />
<path d="M185.5714 185.6082
L185.6429 185.4654
" />
<path d="M185.6429 185.4654
L185.7857 185.3939
" />
<path d="M185.7857 185.3939
L186.0714 185.3939
" />
<path d="M186.0714 185.3939
L186.2143 185.4654
" />
<path d="M186.2143 185.4654
L186.2857 185.6082
" />
<path d="M186.2857 185.6082
L186.2857 185.7511
" />
<path d="M186.2857 185.7511
L185.5714 185.8939
" />
<path d="M187.5714 186.3939
L187.5714 184.8939
" />
<path d="M187.5714 186.3225
L187.4286 186.3939
" />
<path d="M187.4286 186.3939
L187.1429 186.3939
" />
<path d="M187.1429 186.3939
L187.0000 186.3225
" />
<path d="M187.0000 186.3225
L186.9286 186.2511
" />
<path d="M186.9286 186.2511
L186.8571 186.1082
" />
<path d="M186.8571 186.1082
L186.8571 185.6796
" />
<path d="M186.8571 185.6796
L186.9286 185.5368
" />
<path d="M186.9286 185.5368
L187.0000 185.4654
" />
<path d="M187.0000 185.4654
L187.1429 185.3939
" />
<path d="M187.1429 185.3939
L187.4286 185.3939
" />
<path d="M187.4286 185.3939
L187.5714 185.4654
" />
<path d="M188.9286 186.3939
L188.9286 185.6082
" />
<path d="M188.9286 185.6082
L188.8571 185.4654
" />
<path d="M188.8571 185.4654
L188.7143 185.3939
" />
<path d="M188.7143 185.3939
L188.4286 185.3939
" />
<path d="M188.4286 185.3939
L188.2857 185.4654
" />
<path d="M188.9286 186.3225
L188.7857 186.3939
" />
<path d="M188.7857 186.3939
L188.4286 186.3939
" />
<path d="M188.4286 186.3939
L188.2857 186.3225
" />
<path d="M188.2857 186.3225
L188.2143 186.1796
" />
<path d="M188.2143 186.1796
L188.2143 186.0368
" />
<path d="M188.2143 186.0368
L188.2857 185.8939
" />
<path d="M188.2857 185.8939
L188.4286 185.8225
" />
<path d="M188.4286 185.8225
L188.7857 185.8225
" />
<path d="M188.7857 185.8225
L188.9286 185.7511
" />
<path d="M189.8571 186.3939
L189.7143 186.3225
" />
<path d="M189.7143 186.3225
L189.6429 186.1796
" />
<path d="M189.6429 186.1796
L189.6429 184.8939
" />
<path d="M190.4286 186.3939
L190.4286 184.8939
" />
<path d="M190.4286 185.4654
L190.5714 185.3939
" />
<path d="M190.5714 185.3939
L190.8571 185.3939
" />
<path d="M190.8571 185.3939
L191.0000 185.4654
" />
<path d="M191.0000 185.4654
L191.0714 185.5368
" />
<path d="M191.0714 185.5368
L191.1429 185.6796
" />
<path d="M191.1429 185.6796
L191.1429 186.1082
" />
<path d="M191.1429 186.1082
L191.0714 186.2511
" />
<path d="M191.0714 186.2511
L191.0000 186.3225
" />
<path d="M191.0000 186.3225
L190.8571 186.3939
" />
<path d="M190.8571 186.3939
L190.5714 186.3939
" />
<path d="M190.5714 186.3939
L190.4286 186.3225
" />
<path d="M192.0000 186.3939
L191.8571 186.3225
" />
<path d="M191.8571 186.3225
L191.7857 186.2511
" />
<path d="M191.7857 186.2511
L191.7143 186.1082
" />
<path d="M191.7143 186.1082
L191.7143 185.6796
" />
<path d="M191.7143 185.6796
L191.7857 185.5368
" />
<path d="M191.7857 185.5368
L191.8571 185.4654
" />
<path d="M191.8571 185.4654
L192.0000 185.3939
" />
<path d="M192.0000 185.3939
L192.2143 185.3939
" />
<path d="M192.2143 185.3939
L192.3571 185.4654
" />
<path d="M192.3571 185.4654
L192.4286 185.5368
" />
<path d="M192.4286 185.5368
L192.5000 185.6796
" />
<path d="M192.5000 185.6796
L192.5000 186.1082
" />
<path d="M192.5000 186.1082
L192.4286 186.2511
" />
<path d="M192.4286 186.2511
L192.3571 186.3225
" />
<path d="M192.3571 186.3225
L192.2143 186.3939
" />
<path d="M192.2143 186.3939
L192.0000 186.3939
" />
<path d="M193.7857 186.3939
L193.7857 185.6082
" />
<path d="M193.7857 185.6082
L193.7143 185.4654
" />
<path d="M193.7143 185.4654
L193.5714 185.3939
" />
<path d="M193.5714 185.3939
L193.2857 185.3939
" />
<path d="M193.2857 185.3939
L193.1429 185.4654
" />
<path d="M193.7857 186.3225
L193.6429 186.3939
" />
<path d="M193.6429 186.3939
L193.2857 186.3939
" />
<path d="M193.2857 186.3939
L193.1429 186.3225
" />
<path d="M193.1429 186.3225
L193.0714 186.1796
" />
<path d="M193.0714 186.1796
L193.0714 186.0368
" />
<path d="M193.0714 186.0368
L193.1429 185.8939
" />
<path d="M193.1429 185.8939
L193.2857 185.8225
" />
<path d="M193.2857 185.8225
L193.6429 185.8225
" />
<path d="M193.6429 185.8225
L193.7857 185.7511
" />
<path d="M194.5000 186.3939
L194.5000 185.3939
" />
<path d="M194.5000 185.6796
L194.5714 185.5368
" />
<path d="M194.5714 185.5368
L194.6429 185.4654
" />
<path d="M194.6429 185.4654
L194.7857 185.3939
" />
<path d="M194.7857 185.3939
L194.9286 185.3939
" />
<path d="M196.0714 186.3939
L196.0714 184.8939
" />
<path d="M196.0714 186.3225
L195.9286 186.3939
" />
<path d="M195.9286 186.3939
L195.6429 186.3939
" />
<path d="M195.6429 186.3939
L195.5000 186.3225
" />
<path d="M195.5000 186.3225
L195.4286 186.2511
" />
<path d="M195.4286 186.2511
L195.3571 186.1082
" />
<path d="M195.3571 186.1082
L195.3571 185.6796
" />
<path d="M195.3571 185.6796
L195.4286 185.5368
" />
<path d="M195.4286 185.5368
L195.5000 185.4654
" />
<path d="M195.5000 185.4654
L195.6429 185.3939
" />
<path d="M195.6429 185.3939
L195.9286 185.3939
" />
<path d="M195.9286 185.3939
L196.0714 185.4654
" />
<path d="M196.7857 185.8225
L197.9286 185.8225
" />
<path d="M198.8571 186.3939
L198.7143 186.3225
" />
<path d="M198.7143 186.3225
L198.6429 186.1796
" />
<path d="M198.6429 186.1796
L198.6429 184.8939
" />
<path d="M200.0000 186.3225
L199.8571 186.3939
" />
<path d="M199.8571 186.3939
L199.5714 186.3939
" />
<path d="M199.5714 186.3939
L199.4286 186.3225
" />
<path d="M199.4286 186.3225
L199.3571 186.1796
" />
<path d="M199.3571 186.1796
L199.3571 185.6082
" />
<path d="M199.3571 185.6082
L199.4286 185.4654
" />
<path d="M199.4286 185.4654
L199.5714 185.3939
" />
<path d="M199.5714 185.3939
L199.8571 185.3939
" />
<path d="M199.8571 185.3939
L200.0000 185.4654
" />
<path d="M200.0000 185.4654
L200.0714 185.6082
" />
<path d="M200.0714 185.6082
L200.0714 185.7511
" />
<path d="M200.0714 185.7511
L199.3571 185.8939
" />
<path d="M201.3571 186.3939
L201.3571 184.8939
" />
<path d="M201.3571 186.3225
L201.2143 186.3939
" />
<path d="M201.2143 186.3939
L200.9286 186.3939
" />
<path d="M200.9286 186.3939
L200.7857 186.3225
" />
<path d="M200.7857 186.3225
L200.7143 186.2511
" />
<path d="M200.7143 186.2511
L200.6429 186.1082
" />
<path d="M200.6429 186.1082
L200.6429 185.6796
" />
<path d="M200.6429 185.6796
L200.7143 185.5368
" />
<path d="M200.7143 185.5368
L200.7857 185.4654
" />
<path d="M200.7857 185.4654
L200.9286 185.3939
" />
<path d="M200.9286 185.3939
L201.2143 185.3939
" />
<path d="M201.2143 185.3939
L201.3571 185.4654
" />
<path d="M202.0714 185.8225
L203.2143 185.8225
" />
<path d="M203.9286 186.3939
L203.9286 185.3939
" />
<path d="M203.9286 185.6796
L204.0000 185.5368
" />
<path d="M204.0000 185.5368
L204.0714 185.4654
" />
<path d="M204.0714 185.4654
L204.2143 185.3939
" />
<path d="M204.2143 185.3939
L204.3571 185.3939
" />
<path d="M204.8571 186.3939
L204.8571 185.3939
" />
<path d="M204.8571 184.8939
L204.7857 184.9654
" />
<path d="M204.7857 184.9654
L204.8571 185.0368
" />
<path d="M204.8571 185.0368
L204.9286 184.9654
" />
<path d="M204.9286 184.9654
L204.8571 184.8939
" />
<path d="M204.8571 184.8939
L204.8571 185.0368
" />
<path d="M205.5714 185.3939
L205.5714 186.3939
" />
<path d="M205.5714 185.5368
L205.6429 185.4654
" />
<path d="M205.6429 185.4654
L205.7857 185.3939
" />
<path d="M205.7857 185.3939
L206.0000 185.3939
" />
<path d="M206.0000 185.3939
L206.1429 185.4654
" />
<path d="M206.1429 185.4654
L206.2143 185.6082
" />
<path d="M206.2143 185.6082
L206.2143 186.3939
" />
<path d="M207.5714 185.3939
L207.5714 186.6082
" />
<path d="M207.5714 186.6082
L207.5000 186.7511
" />
<path d="M207.5000 186.7511
L207.4286 186.8225
" />
<path d="M207.4286 186.8225
L207.2857 186.8939
" />
<path d="M207.2857 186.8939
L207.0714 186.8939
" />
<path d="M207.0714 186.8939
L206.9286 186.8225
" />
<path d="M207.5714 186.3225
L207.4286 186.3939
" />
<path d="M207.4286 186.3939
L207.1429 186.3939
" />
<path d="M207.1429 186.3939
L207.0000 186.3225
" />
<path d="M207.0000 186.3225
L206.9286 186.2511
" />
<path d="M206.9286 186.2511
L206.8571 186.1082
" />
<path d="M206.8571 186.1082
L206.8571 185.6796
" />
<path d="M206.8571 185.6796
L206.9286 185.5368
" />
<path d="M206.9286 185.5368
L207.0000 185.4654
" />
<path d="M207.0000 185.4654
L207.1429 185.3939
" />
<path d="M207.1429 185.3939
L207.4286 185.3939
" />
<path d="M207.4286 185.3939
L207.5714 185.4654
" />
<path d="M208.2857 186.2511
L208.3571 186.3225
" />
<path d="M208.3571 186.3225
L208.2857 186.3939
" />
<path d="M208.2857 186.3939
L208.2143 186.3225
" />
<path d="M208.2143 186.3225
L208.2857 186.2511
" />
<path d="M208.2857 186.2511
L208.2857 186.3939
" />
<path d="M209.0000 186.3939
L209.0000 184.8939
" />
<path d="M209.1429 185.8225
L209.5714 186.3939
" />
<path d="M209.5714 185.3939
L209.0000 185.9654
" />
<path d="M210.2143 186.3939
L210.2143 185.3939
" />
<path d="M210.2143 184.8939
L210.1429 184.9654
" />
<path d="M210.1429 184.9654
L210.2143 185.0368
" />
<path d="M210.2143 185.0368
L210.2857 184.9654
" />
<path d="M210.2857 184.9654
L210.2143 184.8939
" />
<path d="M210.2143 184.8939
L210.2143 185.0368
" />
<path d="M211.5714 186.3225
L211.4286 186.3939
" />
<path d="M211.4286 186.3939
L211.1429 186.3939
" />
<path d="M211.1429 186.3939
L211.0000 186.3225
" />
<path d="M211.0000 186.3225
L210.9286 186.2511
" />
<path d="M210.9286 186.2511
L210.8571 186.1082
" />
<path d="M210.8571 186.1082
L210.8571 185.6796
" />
<path d="M210.8571 185.6796
L210.9286 185.5368
" />
<path d="M210.9286 185.5368
L211.0000 185.4654
" />
<path d="M211.0000 185.4654
L211.1429 185.3939
" />
<path d="M211.1429 185.3939
L211.4286 185.3939
" />
<path d="M211.4286 185.3939
L211.5714 185.4654
" />
<path d="M212.8571 186.3939
L212.8571 185.6082
" />
<path d="M212.8571 185.6082
L212.7857 185.4654
" />
<path d="M212.7857 185.4654
L212.6429 185.3939
" />
<path d="M212.6429 185.3939
L212.3571 185.3939
" />
<path d="M212.3571 185.3939
L212.2143 185.4654
" />
<path d="M212.8571 186.3225
L212.7143 186.3939
" />
<path d="M212.7143 186.3939
L212.3571 186.3939
" />
<path d="M212.3571 186.3939
L212.2143 186.3225
" />
<path d="M212.2143 186.3225
L212.1429 186.1796
" />
<path d="M212.1429 186.1796
L212.1429 186.0368
" />
<path d="M212.1429 186.0368
L212.2143 185.8939
" />
<path d="M212.2143 185.8939
L212.3571 185.8225
" />
<path d="M212.3571 185.8225
L212.7143 185.8225
" />
<path d="M212.7143 185.8225
L212.8571 185.7511
" />
<path d="M214.2143 186.3939
L214.2143 184.8939
" />
<path d="M214.2143 186.3225
L214.0714 186.3939
" />
<path d="M214.0714 186.3939
L213.7857 186.3939
" />
<path d="M213.7857 186.3939
L213.6429 186.3225
" />
<path d="M213.6429 186.3225
L213.5714 186.2511
" />
<path d="M213.5714 186.2511
L213.5000 186.1082
" />
<path d="M213.5000 186.1082
L213.5000 185.6796
" />
<path d="M213.5000 185.6796
L213.5714 185.5368
" />
<path d="M213.5714 185.5368
L213.6429 185.4654
" />
<path d="M213.6429 185.4654
L213.7857 185.3939
" />
<path d="M213.7857 185.3939
L214.0714 185.3939
" />
<path d="M214.0714 185.3939
L214.2143 185.4654
" />
<path d="M214.5714 186.5368
L215.7143 186.5368
" />
<path d="M216.0714 185.3939
L216.0714 186.8939
" />
<path d="M216.0714 185.4654
L216.2143 185.3939
" />
<path d="M216.2143 185.3939
L216.5000 185.3939
" />
<path d="M216.5000 185.3939
L216.6429 185.4654
" />
<path d="M216.6429 185.4654
L216.7143 185.5368
" />
<path d="M216.7143 185.5368
L216.7857 185.6796
" />
<path d="M216.7857 185.6796
L216.7857 186.1082
" />
<path d="M216.7857 186.1082
L216.7143 186.2511
" />
<path d="M216.7143 186.2511
L216.6429 186.3225
" />
<path d="M216.6429 186.3225
L216.5000 186.3939
" />
<path d="M216.5000 186.3939
L216.2143 186.3939
" />
<path d="M216.2143 186.3939
L216.0714 186.3225
" />
<path d="M218.0714 186.3225
L217.9286 186.3939
" />
<path d="M217.9286 186.3939
L217.6429 186.3939
" />
<path d="M217.6429 186.3939
L217.5000 186.3225
" />
<path d="M217.5000 186.3225
L217.4286 186.2511
" />
<path d="M217.4286 186.2511
L217.3571 186.1082
" />
<path d="M217.3571 186.1082
L217.3571 185.6796
" />
<path d="M217.3571 185.6796
L217.4286 185.5368
" />
<path d="M217.4286 185.5368
L217.5000 185.4654
" />
<path d="M217.5000 185.4654
L217.6429 185.3939
" />
<path d="M217.6429 185.3939
L217.9286 185.3939
" />
<path d="M217.9286 185.3939
L218.0714 185.4654
" />
<path d="M218.7143 186.3939
L218.7143 184.8939
" />
<path d="M218.7143 185.4654
L218.8571 185.3939
" />
<path d="M218.8571 185.3939
L219.1429 185.3939
" />
<path d="M219.1429 185.3939
L219.2857 185.4654
" />
<path d="M219.2857 185.4654
L219.3571 185.5368
" />
<path d="M219.3571 185.5368
L219.4286 185.6796
" />
<path d="M219.4286 185.6796
L219.4286 186.1082
" />
<path d="M219.4286 186.1082
L219.3571 186.2511
" />
<path d="M219.3571 186.2511
L219.2857 186.3225
" />
<path d="M219.2857 186.3225
L219.1429 186.3939
" />
<path d="M219.1429 186.3939
L218.8571 186.3939
" />
<path d="M218.8571 186.3939
L218.7143 186.3225
" />
</g></g>
<g style="fill:#000000; fill-opacity:0.0; 
stroke:#000000; stroke-width:0.3000; stroke-opacity:1; 
stroke-linecap:round; stroke-linejoin:round;">
<text x="178.0000" y="190.3000"
textLength="9.1357" font-size="2.6667" lengthAdjust="spacingAndGlyphs"
text-anchor="start" opacity="0">Title: </text>
<g class="stroked-text"><desc>Title: </desc>
<path d="M178.4286 188.2252
L179.5714 188.2252
" />
<path d="M178.7500 190.2252
L179.0000 188.2252
" />
<path d="M179.9762 190.2252
L180.1429 188.8919
" />
<path d="M180.2262 188.2252
L180.1190 188.3205
" />
<path d="M180.1190 188.3205
L180.2024 188.4157
" />
<path d="M180.2024 188.4157
L180.3095 188.3205
" />
<path d="M180.3095 188.3205
L180.2262 188.2252
" />
<path d="M180.2262 188.2252
L180.2024 188.4157
" />
<path d="M180.7976 188.8919
L181.5595 188.8919
" />
<path d="M181.1667 188.2252
L180.9524 189.9395
" />
<path d="M180.9524 189.9395
L181.0238 190.1300
" />
<path d="M181.0238 190.1300
L181.2024 190.2252
" />
<path d="M181.2024 190.2252
L181.3929 190.2252
" />
<path d="M182.3333 190.2252
L182.1548 190.1300
" />
<path d="M182.1548 190.1300
L182.0833 189.9395
" />
<path d="M182.0833 189.9395
L182.2976 188.2252
" />
<path d="M183.8571 190.1300
L183.6548 190.2252
" />
<path d="M183.6548 190.2252
L183.2738 190.2252
" />
<path d="M183.2738 190.2252
L183.0952 190.1300
" />
<path d="M183.0952 190.1300
L183.0238 189.9395
" />
<path d="M183.0238 189.9395
L183.1190 189.1776
" />
<path d="M183.1190 189.1776
L183.2381 188.9871
" />
<path d="M183.2381 188.9871
L183.4405 188.8919
" />
<path d="M183.4405 188.8919
L183.8214 188.8919
" />
<path d="M183.8214 188.8919
L184.0000 188.9871
" />
<path d="M184.0000 188.9871
L184.0714 189.1776
" />
<path d="M184.0714 189.1776
L184.0476 189.3681
" />
<path d="M184.0476 189.3681
L183.0714 189.5586
" />
<path d="M184.8095 190.0348
L184.8929 190.1300
" />
<path d="M184.8929 190.1300
L184.7857 190.2252
" />
<path d="M184.7857 190.2252
L184.7024 190.1300
" />
<path d="M184.7024 190.1300
L184.8095 190.0348
" />
<path d="M184.8095 190.0348
L184.7857 190.2252
" />
<path d="M184.9405 188.9871
L185.0238 189.0824
" />
<path d="M185.0238 189.0824
L184.9167 189.1776
" />
<path d="M184.9167 189.1776
L184.8333 189.0824
" />
<path d="M184.8333 189.0824
L184.9405 188.9871
" />
<path d="M184.9405 188.9871
L184.9167 189.1776
" />
</g></g>
<g style="fill:#000000; fill-opacity:0.0; 
stroke:#000000; stroke-width:0.1500; stroke-opacity:1; 
stroke-linecap:round; stroke-linejoin:round;">
<path d="M177.0000 187.5000
L285.0000 187.5000
" />
<text x="263.0000" y="196.6500"
textLength="8.4321" font-size="2.0000" lengthAdjust="spacingAndGlyphs"
text-anchor="start" opacity="0">Id: 1/6</text>
<g class="stroked-text"><desc>Id: 1/6</desc>
<path d="M263.3571 196.5939
L263.3571 195.0939
" />
<path d="M264.7143 196.5939
L264.7143 195.0939
" />
<path d="M264.7143 196.5225
L264.5714 196.5939
" />
<path d="M264.5714 196.5939
L264.2857 196.5939
" />
<path d="M264.2857 196.5939
L264.1429 196.5225
" />
<path d="M264.1429 196.5225
L264.0714 196.4511
" />
<path d="M264.0714 196.4511
L264.0000 196.3082
" />
<path d="M264.0000 196.3082
L264.0000 195.8796
" />
<path d="M264.0000 195.8796
L264.0714 195.7368
" />
<path d="M264.0714 195.7368
L264.1429 195.6654
" />
<path d="M264.1429 195.6654
L264.2857 195.5939
" />
<path d="M264.2857 195.5939
L264.5714 195.5939
" />
<path d="M264.5714 195.5939
L264.7143 195.6654
" />
<path d="M265.4286 196.4511
L265.5000 196.5225
" />
<path d="M265.5000 196.5225
L265.4286 196.5939
" />
<path d="M265.4286 196.5939
L265.3571 196.5225
" />
<path d="M265.3571 196.5225
L265.4286 196.4511
" />
<path d="M265.4286 196.4511
L265.4286 196.5939
" />
<path d="M265.4286 195.6654
L265.5000 195.7368
" />
<path d="M265.5000 195.7368
L265.4286 195.8082
" />
<path d="M265.4286 195.8082
L265.3571 195.7368
" />
<path d="M265.3571 195.7368
L265.4286 195.6654
" />
<path d="M265.4286 195.6654
L265.4286 195.8082
" />
<path d="M268.0714 196.5939
L267.2143 196.5939
" />
<path d="M267.6429 196.5939
L267.6429 195.0939
" />
<path d="M267.6429 195.0939
L267.5000 195.3082
" />
<path d="M267.5000 195.3082
L267.3571 195.4511
" />
<path d="M267.3571 195.4511
L267.2143 195.5225
" />
<path d="M269.7857 195.0225
L268.5000 196.9511
" />
<path d="M270.9286 195.0939
L270.6429 195.0939
" />
<path d="M270.6429 195.0939
L270.5000 195.1654
" />
<path d="M270.5000 195.1654
L270.4286 195.2368
" />
<path d="M270.4286 195.2368
L270.2857 195.4511
" />
<path d="M270.2857 195.4511
L270.2143 195.7368
" />
<path d="M270.2143 195.7368
L270.2143 196.3082
" />
<path d="M270.2143 196.3082
L270.2857 196.4511
" />
<path d="M270.2857 196.4511
L270.3571 196.5225
" />
<path d="M270.3571 196.5225
L270.5000 196.5939
" />
<path d="M270.5000 196.5939
L270.7857 196.5939
" />
<path d="M270.7857 196.5939
L270.9286 196.5225
" />
<path d="M270.9286 196.5225
L271.0000 196.4511
" />
<path d="M271.0000 196.4511
L271.0714 196.3082
" />
<path d="M271.0714 196.3082
L271.0714 195.9511
" />
<path d="M271.0714 195.9511
L271.0000 195.8082
" />
<path d="M271.0000 195.8082
L270.9286 195.7368
" />
<path d="M270.9286 195.7368
L270.7857 195.6654
" />
<path d="M270.7857 195.6654
L270.5000 195.6654
" />
<path d="M270.5000 195.6654
L270.3571 195.7368
" />
<path d="M270.3571 195.7368
L270.2857 195.8082
" />
<path d="M270.2857 195.8082
L270.2143 195.9511
" />
</g><text x="178.0000" y="193.8500"
textLength="9.2893" font-size="2.0000" lengthAdjust="spacingAndGlyphs"
text-anchor="start" opacity="0">Size: A4</text>
<g class="stroked-text"><desc>Size: A4</desc>
<path d="M178.2857 193.7225
L178.5000 193.7939
" />
<path d="M178.5000 193.7939
L178.8571 193.7939
" />
<path d="M178.8571 193.7939
L179.0000 193.7225
" />
<path d="M179.0000 193.7225
L179.0714 193.6511
" />
<path d="M179.0714 193.6511
L179.1429 193.5082
" />
<path d="M179.1429 193.5082
L179.1429 193.3654
" />
<path d="M179.1429 193.3654
L179.0714 193.2225
" />
<path d="M179.0714 193.2225
L179.0000 193.1511
" />
<path d="M179.0000 193.1511
L178.8571 193.0796
" />
<path d="M178.8571 193.0796
L178.5714 193.0082
" />
<path d="M178.5714 193.0082
L178.4286 192.9368
" />
<path d="M178.4286 192.9368
L178.3571 192.8654
" />
<path d="M178.3571 192.8654
L178.2857 192.7225
" />
<path d="M178.2857 192.7225
L178.2857 192.5796
" />
<path d="M178.2857 192.5796
L178.3571 192.4368
" />
<path d="M178.3571 192.4368
L178.4286 192.3654
" />
<path d="M178.4286 192.3654
L178.5714 192.2939
" />
<path d="M178.5714 192.2939
L178.9286 192.2939
" />
<path d="M178.9286 192.2939
L179.1429 192.3654
" />
<path d="M179.7857 193.7939
L179.7857 192.7939
" />
<path d="M179.7857 192.2939
L179.7143 192.3654
" />
<path d="M179.7143 192.3654
L179.7857 192.4368
" />
<path d="M179.7857 192.4368
L179.8571 192.3654
" />
<path d="M179.8571 192.3654
L179.7857 192.2939
" />
<path d="M179.7857 192.2939
L179.7857 192.4368
" />
<path d="M180.3571 192.7939
L181.1429 192.7939
" />
<path d="M181.1429 192.7939
L180.3571 193.7939
" />
<path d="M180.3571 193.7939
L181.1429 193.7939
" />
<path d="M182.2857 193.7225
L182.1429 193.7939
" />
<path d="M182.1429 193.7939
L181.8571 193.7939
" />
<path d="M181.8571 193.7939
L181.7143 193.7225
" />
<path d="M181.7143 193.7225
L181.6429 193.5796
" />
<path d="M181.6429 193.5796
L181.6429 193.0082
" />
<path d="M181.6429 193.0082
L181.7143 192.8654
" />
<path d="M181.7143 192.8654
L181.8571 192.7939
" />
<path d="M181.8571 192.7939
L182.1429 192.7939
" />
<path d="M182.1429 192.7939
L182.2857 192.8654
" />
<path d="M182.2857 192.8654
L182.3571 193.0082
" />
<path d="M182.3571 193.0082
L182.3571 193.1511
" />
<path d="M182.3571 193.1511
L181.6429 193.2939
" />
<path d="M183.0000 193.6511
L183.0714 193.7225
" />
<path d="M183.0714 193.7225
L183.0000 193.7939
" />
<path d="M183.0000 193.7939
L182.9286 193.7225
" />
<path d="M182.9286 193.7225
L183.0000 193.6511
" />
<path d="M183.0000 193.6511
L183.0000 193.7939
" />
<path d="M183.0000 192.8654
L183.0714 192.9368
" />
<path d="M183.0714 192.9368
L183.0000 193.0082
" />
<path d="M183.0000 193.0082
L182.9286 192.9368
" />
<path d="M182.9286 192.9368
L183.0000 192.8654
" />
<path d="M183.0000 192.8654
L183.0000 193.0082
" />
<path d="M184.7857 193.3654
L185.5000 193.3654
" />
<path d="M184.6429 193.7939
L185.1429 192.2939
" />
<path d="M185.1429 192.2939
L185.6429 193.7939
" />
<path d="M186.7857 192.7939
L186.7857 193.7939
" />
<path d="M186.4286 192.2225
L186.0714 193.2939
" />
<path d="M186.0714 193.2939
L187.0000 193.2939
" />
</g></g>
<g style="fill:#000000; fill-opacity:0.0; 
stroke:#000000; stroke-width:0.3000; stroke-opacity:1; 
stroke-linecap:round; stroke-linejoin:round;">
<text x="263.0000" y="193.8500"
textLength="6.2357" font-size="2.0000" lengthAdjust="spacingAndGlyphs"
text-anchor="start" opacity="0">Rev: </text>
<g class="stroked-text"><desc>Rev: </desc>
<path d="M264.2143 193.7939
L263.7143 193.0796
" />
<path d="M263.3571 193.7939
L263.3571 192.2939
" />
<path d="M263.3571 192.2939
L263.9286 192.2939
" />
<path d="M263.9286 192.2939
L264.0714 192.3654
" />
<path d="M264.0714 192.3654
L264.1429 192.4368
" />
<path d="M264.1429 192.4368
L264.2143 192.5796
" />
<path d="M264.2143 192.5796
L264.2143 192.7939
" />
<path d="M264.2143 192.7939
L264.1429 192.9368
" />
<path d="M264.1429 192.9368
L264.0714 193.0082
" />
<path d="M264.0714 193.0082
L263.9286 193.0796
" />
<path d="M263.9286 193.0796
L263.3571 193.0796
" />
<path d="M265.4286 193.7225
L265.2857 193.7939
" />
<path d="M265.2857 193.7939
L265.0000 193.7939
" />
<path d="M265.0000 193.7939
L264.8571 193.7225
" />
<path d="M264.8571 193.7225
L264.7857 193.5796
" />
<path d="M264.7857 193.5796
L264.7857 193.0082
" />
<path d="M264.7857 193.0082
L264.8571 192.8654
" />
<path d="M264.8571 192.8654
L265.0000 192.7939
" />
<path d="M265.0000 192.7939
L265.2857 192.7939
" />
<path d="M265.2857 192.7939
L265.4286 192.8654
" />
<path d="M265.4286 192.8654
L265.5000 193.0082
" />
<path d="M265.5000 193.0082
L265.5000 193.1511
" />
<path d="M265.5000 193.1511
L264.7857 193.2939
" />
<path d="M266.0000 192.7939
L266.3571 193.7939
" />
<path d="M266.3571 193.7939
L266.7143 192.7939
" />
<path d="M267.2857 193.6511
L267.3571 193.7225
" />
<path d="M267.3571 193.7225
L267.2857 193.7939
" />
<path d="M267.2857 193.7939
L267.2143 193.7225
" />
<path d="M267.2143 193.7225
L267.2857 193.6511
" />
<path d="M267.2857 193.6511
L267.2857 193.7939
" />
<path d="M267.2857 192.8654
L267.3571 192.9368
" />
<path d="M267.3571 192.9368
L267.2857 193.0082
" />
<path d="M267.2857 193.0082
L267.2143 192.9368
" />
<path d="M267.2143 192.9368
L267.2857 192.8654
" />
<path d="M267.2857 192.8654
L267.2857 193.0082
" />
</g></g>
<g style="fill:#000000; fill-opacity:0.0; 
stroke:#000000; stroke-width:0.1500; stroke-opacity:1; 
stroke-linecap:round; stroke-linejoin:round;">
<path d="M177.0000 191.5000
L285.0000 191.5000
" />
<text x="178.0000" y="196.6500"
textLength="78.7179" font-size="2.0000" lengthAdjust="spacingAndGlyphs"
text-anchor="start" opacity="0">KiCad E.D.A. 7.0.2.1-36-g582732918d-dirty-deb11 + KiBot v1.6.2</text>
<g class="stroked-text"><desc>KiCad E.D.A. 7.0.2.1-36-g582732918d-dirty-deb11 + KiBot v1.6.2</desc>
<path d="M178.3571 196.5939
L178.3571 195.0939
" />
<path d="M179.2143 196.5939
L178.5714 195.7368
" />
<path d="M179.2143 195.0939
L178.3571 195.9511
" />
<path d="M179.8571 196.5939
L179.8571 195.5939
" />
<path d="M179.8571 195.0939
L179.7857 195.1654
" />
<path d="M179.7857 195.1654
L179.8571 195.2368
" />
<path d="M179.8571 195.2368
L179.9286 195.1654
" />
<path d="M179.9286 195.1654
L179.8571 195.0939
" />
<path d="M179.8571 195.0939
L179.8571 195.2368
" />
<path d="M181.4286 196.4511
L181.3571 196.5225
" />
<path d="M181.3571 196.5225
L181.1429 196.5939
" />
<path d="M181.1429 196.5939
L181.0000 196.5939
" />
<path d="M181.0000 196.5939
L180.7857 196.5225
" />
<path d="M180.7857 196.5225
L180.6429 196.3796
" />
<path d="M180.6429 196.3796
L180.5714 196.2368
" />
<path d="M180.5714 196.2368
L180.5000 195.9511
" />
<path d="M180.5000 195.9511
L180.5000 195.7368
" />
<path d="M180.5000 195.7368
L180.5714 195.4511
" />
<path d="M180.5714 195.4511
L180.6429 195.3082
" />
<path d="M180.6429 195.3082
L180.7857 195.1654
" />
<path d="M180.7857 195.1654
L181.0000 195.0939
" />
<path d="M181.0000 195.0939
L181.1429 195.0939
" />
<path d="M181.1429 195.0939
L181.3571 195.1654
" />
<path d="M181.3571 195.1654
L181.4286 195.2368
" />
<path d="M182.7143 196.5939
L182.7143 195.8082
" />
<path d="M182.7143 195.8082
L182.6429 195.6654
" />
<path d="M182.6429 195.6654
L182.5000 195.5939
" />
<path d="M182.5000 195.5939
L182.2143 195.5939
" />
<path d="M182.2143 195.5939
L182.0714 195.6654
" />
<path d="M182.7143 196.5225
L182.5714 196.5939
" />
<path d="M182.5714 196.5939
L182.2143 196.5939
" />
<path d="M182.2143 196.5939
L182.0714 196.5225
" />
<path d="M182.0714 196.5225
L182.0000 196.3796
" />
<path d="M182.0000 196.3796
L182.0000 196.2368
" />
<path d="M182.0000 196.2368
L182.0714 196.0939
" />
<path d="M182.0714 196.0939
L182.2143 196.0225
" />
<path d="M182.2143 196.0225
L182.5714 196.0225
" />
<path d="M182.5714 196.0225
L182.7143 195.9511
" />
<path d="M184.0714 196.5939
L184.0714 195.0939
" />
<path d="M184.0714 196.5225
L183.9286 196.5939
" />
<path d="M183.9286 196.5939
L183.6429 196.5939
" />
<path d="M183.6429 196.5939
L183.5000 196.5225
" />
<path d="M183.5000 196.5225
L183.4286 196.4511
" />
<path d="M183.4286 196.4511
L183.3571 196.3082
" />
<path d="M183.3571 196.3082
L183.3571 195.8796
" />
<path d="M183.3571 195.8796
L183.4286 195.7368
" />
<path d="M183.4286 195.7368
L183.5000 195.6654
" />
<path d="M183.5000 195.6654
L183.6429 195.5939
" />
<path d="M183.6429 195.5939
L183.9286 195.5939
" />
<path d="M183.9286 195.5939
L184.0714 195.6654
" />
<path d="M185.9286 195.8082
L186.4286 195.8082
" />
<path d="M186.6429 196.5939
L185.9286 196.5939
" />
<path d="M185.9286 196.5939
L185.9286 195.0939
" />
<path d="M185.9286 195.0939
L186.6429 195.0939
" />
<path d="M187.2857 196.4511
L187.3571 196.5225
" />
<path d="M187.3571 196.5225
L187.2857 196.5939
" />
<path d="M187.2857 196.5939
L187.2143 196.5225
" />
<path d="M187.2143 196.5225
L187.2857 196.4511
" />
<path d="M187.2857 196.4511
L187.2857 196.5939
" />
<path d="M188.0000 196.5939
L188.0000 195.0939
" />
<path d="M188.0000 195.0939
L188.3571 195.0939
" />
<path d="M188.3571 195.0939
L188.5714 195.1654
" />
<path d="M188.5714 195.1654
L188.7143 195.3082
" />
<path d="M188.7143 195.3082
L188.7857 195.4511
" />
<path d="M188.7857 195.4511
L188.8571 195.7368
" />
<path d="M188.8571 195.7368
L188.8571 195.9511
" />
<path d="M188.8571 195.9511
L188.7857 196.2368
" />
<path d="M188.7857 196.2368
L188.7143 196.3796
" />
<path d="M188.7143 196.3796
L188.5714 196.5225
" />
<path d="M188.5714 196.5225
L188.3571 196.5939
" />
<path d="M188.3571 196.5939
L188.0000 196.5939
" />
<path d="M189.5000 196.4511
L189.5714 196.5225
" />
<path d="M189.5714 196.5225
L189.5000 196.5939
" />
<path d="M189.5000 196.5939
L189.4286 196.5225
" />
<path d="M189.4286 196.5225
L189.5000 196.4511
" />
<path d="M189.5000 196.4511
L189.5000 196.5939
" />
<path d="M190.1429 196.1654
L190.8571 196.1654
" />
<path d="M190.0000 196.5939
L190.5000 195.0939
" />
<path d="M190.5000 195.0939
L191.0000 196.5939
" />
<path d="M191.5000 196.4511
L191.5714 196.5225
" />
<path d="M191.5714 196.5225
L191.5000 196.5939
" />
<path d="M191.5000 196.5939
L191.4286 196.5225
" />
<path d="M191.4286 196.5225
L191.5000 196.4511
" />
<path d="M191.5000 196.4511
L191.5000 196.5939
" />
<path d="M193.2143 195.0939
L194.2143 195.0939
" />
<path d="M194.2143 195.0939
L193.5714 196.5939
" />
<path d="M194.7857 196.4511
L194.8571 196.5225
" />
<path d="M194.8571 196.5225
L194.7857 196.5939
" />
<path d="M194.7857 196.5939
L194.7143 196.5225
" />
<path d="M194.7143 196.5225
L194.7857 196.4511
" />
<path d="M194.7857 196.4511
L194.7857 196.5939
" />
<path d="M195.7857 195.0939
L195.9286 195.0939
" />
<path d="M195.9286 195.0939
L196.0714 195.1654
" />
<path d="M196.0714 195.1654
L196.1429 195.2368
" />
<path d="M196.1429 195.2368
L196.2143 195.3796
" />
<path d="M196.2143 195.3796
L196.2857 195.6654
" />
<path d="M196.2857 195.6654
L196.2857 196.0225
" />
<path d="M196.2857 196.0225
L196.2143 196.3082
" />
<path d="M196.2143 196.3082
L196.1429 196.4511
" />
<path d="M196.1429 196.4511
L196.0714 196.5225
" />
<path d="M196.0714 196.5225
L195.9286 196.5939
" />
<path d="M195.9286 196.5939
L195.7857 196.5939
" />
<path d="M195.7857 196.5939
L195.6429 196.5225
" />
<path d="M195.6429 196.5225
L195.5714 196.4511
" />
<path d="M195.5714 196.4511
L195.5000 196.3082
" />
<path d="M195.5000 196.3082
L195.4286 196.0225
" />
<path d="M195.4286 196.0225
L195.4286 195.6654
" />
<path d="M195.4286 195.6654
L195.5000 195.3796
" />
<path d="M195.5000 195.3796
L195.5714 195.2368
" />
<path d="M195.5714 195.2368
L195.6429 195.1654
" />
<path d="M195.6429 195.1654
L195.7857 195.0939
" />
<path d="M196.9286 196.4511
L197.0000 196.5225
" />
<path d="M197.0000 196.5225
L196.9286 196.5939
" />
<path d="M196.9286 196.5939
L196.8571 196.5225
" />
<path d="M196.8571 196.5225
L196.9286 196.4511
" />
<path d="M196.9286 196.4511
L196.9286 196.5939
" />
<path d="M197.5714 195.2368
L197.6429 195.1654
" />
<path d="M197.6429 195.1654
L197.7857 195.0939
" />
<path d="M197.7857 195.0939
L198.1429 195.0939
" />
<path d="M198.1429 195.0939
L198.2857 195.1654
" />
<path d="M198.2857 195.1654
L198.3571 195.2368
" />
<path d="M198.3571 195.2368
L198.4286 195.3796
" />
<path d="M198.4286 195.3796
L198.4286 195.5225
" />
<path d="M198.4286 195.5225
L198.3571 195.7368
" />
<path d="M198.3571 195.7368
L197.5000 196.5939
" />
<path d="M197.5000 196.5939
L198.4286 196.5939
" />
<path d="M199.0714 196.4511
L199.1429 196.5225
" />
<path d="M199.1429 196.5225
L199.0714 196.5939
" />
<path d="M199.0714 196.5939
L199.0000 196.5225
" />
<path d="M199.0000 196.5225
L199.0714 196.4511
" />
<path d="M199.0714 196.4511
L199.0714 196.5939
" />
<path d="M200.5714 196.5939
L199.7143 196.5939
" />
<path d="M200.1429 196.5939
L200.1429 195.0939
" />
<path d="M200.1429 195.0939
L200.0000 195.3082
" />
<path d="M200.0000 195.3082
L199.8571 195.4511
" />
<path d="M199.8571 195.4511
L199.7143 195.5225
" />
<path d="M201.2143 196.0225
L202.3571 196.0225
" />
<path d="M202.9286 195.0939
L203.8571 195.0939
" />
<path d="M203.8571 195.0939
L203.3571 195.6654
" />
<path d="M203.3571 195.6654
L203.5714 195.6654
" />
<path d="M203.5714 195.6654
L203.7143 195.7368
" />
<path d="M203.7143 195.7368
L203.7857 195.8082
" />
<path d="M203.7857 195.8082
L203.8571 195.9511
" />
<path d="M203.8571 195.9511
L203.8571 196.3082
" />
<path d="M203.8571 196.3082
L203.7857 196.4511
" />
<path d="M203.7857 196.4511
L203.7143 196.5225
" />
<path d="M203.7143 196.5225
L203.5714 196.5939
" />
<path d="M203.5714 196.5939
L203.1429 196.5939
" />
<path d="M203.1429 196.5939
L203.0000 196.5225
" />
<path d="M203.0000 196.5225
L202.9286 196.4511
" />
<path d="M205.1429 195.0939
L204.8571 195.0939
" />
<path d="M204.8571 195.0939
L204.7143 195.1654
" />
<path d="M204.7143 195.1654
L204.6429 195.2368
" />
<path d="M204.6429 195.2368
L204.5000 195.4511
" />
<path d="M204.5000 195.4511
L204.4286 195.7368
" />
<path d="M204.4286 195.7368
L204.4286 196.3082
" />
<path d="M204.4286 196.3082
L204.5000 196.4511
" />
<path d="M204.5000 196.4511
L204.5714 196.5225
" />
<path d="M204.5714 196.5225
L204.7143 196.5939
" />
<path d="M204.7143 196.5939
L205.0000 196.5939
" />
<path d="M205.0000 196.5939
L205.1429 196.5225
" />
<path d="M205.1429 196.5225
L205.2143 196.4511
" />
<path d="M205.2143 196.4511
L205.2857 196.3082
" />
<path d="M205.2857 196.3082
L205.2857 195.9511
" />
<path d="M205.2857 195.9511
L205.2143 195.8082
" />
<path d="M205.2143 195.8082
L205.1429 195.7368
" />
<path d="M205.1429 195.7368
L205.0000 195.6654
" />
<path d="M205.0000 195.6654
L204.7143 195.6654
" />
<path d="M204.7143 195.6654
L204.5714 195.7368
" />
<path d="M204.5714 195.7368
L204.5000 195.8082
" />
<path d="M204.5000 195.8082
L204.4286 195.9511
" />
<path d="M205.9286 196.0225
L207.0714 196.0225
" />
<path d="M208.4286 195.5939
L208.4286 196.8082
" />
<path d="M208.4286 196.8082
L208.3571 196.9511
" />
<path d="M208.3571 196.9511
L208.2857 197.0225
" />
<path d="M208.2857 197.0225
L208.1429 197.0939
" />
<path d="M208.1429 197.0939
L207.9286 197.0939
" />
<path d="M207.9286 197.0939
L207.7857 197.0225
" />
<path d="M208.4286 196.5225
L208.2857 196.5939
" />
<path d="M208.2857 196.5939
L208.0000 196.5939
" />
<path d="M208.0000 196.5939
L207.8571 196.5225
" />
<path d="M207.8571 196.5225
L207.7857 196.4511
" />
<path d="M207.7857 196.4511
L207.7143 196.3082
" />
<path d="M207.7143 196.3082
L207.7143 195.8796
" />
<path d="M207.7143 195.8796
L207.7857 195.7368
" />
<path d="M207.7857 195.7368
L207.8571 195.6654
" />
<path d="M207.8571 195.6654
L208.0000 195.5939
" />
<path d="M208.0000 195.5939
L208.2857 195.5939
" />
<path d="M208.2857 195.5939
L208.4286 195.6654
" />
<path d="M209.8571 195.0939
L209.1429 195.0939
" />
<path d="M209.1429 195.0939
L209.0714 195.8082
" />
<path d="M209.0714 195.8082
L209.1429 195.7368
" />
<path d="M209.1429 195.7368
L209.2857 195.6654
" />
<path d="M209.2857 195.6654
L209.6429 195.6654
" />
<path d="M209.6429 195.6654
L209.7857 195.7368
" />
<path d="M209.7857 195.7368
L209.8571 195.8082
" />
<path d="M209.8571 195.8082
L209.9286 195.9511
" />
<path d="M209.9286 195.9511
L209.9286 196.3082
" />
<path d="M209.9286 196.3082
L209.8571 196.4511
" />
<path d="M209.8571 196.4511
L209.7857 196.5225
" />
<path d="M209.7857 196.5225
L209.6429 196.5939
" />
<path d="M209.6429 196.5939
L209.2857 196.5939
" />
<path d="M209.2857 196.5939
L209.1429 196.5225
" />
<path d="M209.1429 196.5225
L209.0714 196.4511
" />
<path d="M210.7857 195.7368
L210.6429 195.6654
" />
<path d="M210.6429 195.6654
L210.5714 195.5939
" />
<path d="M210.5714 195.5939
L210.5000 195.4511
" />
<path d="M210.5000 195.4511
L210.5000 195.3796
" />
<path d="M210.5000 195.3796
L210.5714 195.2368
" />
<path d="M210.5714 195.2368
L210.6429 195.1654
" />
<path d="M210.6429 195.1654
L210.7857 195.0939
" />
<path d="M210.7857 195.0939
L211.0714 195.0939
" />
<path d="M211.0714 195.0939
L211.2143 195.1654
" />
<path d="M211.2143 195.1654
L211.2857 195.2368
" />
<path d="M211.2857 195.2368
L211.3571 195.3796
" />
<path d="M211.3571 195.3796
L211.3571 195.4511
" />
<path d="M211.3571 195.4511
L211.2857 195.5939
" />
<path d="M211.2857 195.5939
L211.2143 195.6654
" />
<path d="M211.2143 195.6654
L211.0714 195.7368
" />
<path d="M211.0714 195.7368
L210.7857 195.7368
" />
<path d="M210.7857 195.7368
L210.6429 195.8082
" />
<path d="M210.6429 195.8082
L210.5714 195.8796
" />
<path d="M210.5714 195.8796
L210.5000 196.0225
" />
<path d="M210.5000 196.0225
L210.5000 196.3082
" />
<path d="M210.5000 196.3082
L210.5714 196.4511
" />
<path d="M210.5714 196.4511
L210.6429 196.5225
" />
<path d="M210.6429 196.5225
L210.7857 196.5939
" />
<path d="M210.7857 196.5939
L211.0714 196.5939
" />
<path d="M211.0714 196.5939
L211.2143 196.5225
" />
<path d="M211.2143 196.5225
L211.2857 196.4511
" />
<path d="M211.2857 196.4511
L211.3571 196.3082
" />
<path d="M211.3571 196.3082
L211.3571 196.0225
" />
<path d="M211.3571 196.0225
L211.2857 195.8796
" />
<path d="M211.2857 195.8796
L211.2143 195.8082
" />
<path d="M211.2143 195.8082
L211.0714 195.7368
" />
<path d="M211.9286 195.2368
L212.0000 195.1654
" />
<path d="M212.0000 195.1654
L212.1429 195.0939
" />
<path d="M212.1429 195.0939
L212.5000 195.0939
" />
<path d="M212.5000 195.0939
L212.6429 195.1654
" />
<path d="M212.6429 195.1654
L212.7143 195.2368
" />
<path d="M212.7143 195.2368
L212.7857 195.3796
" />
<path d="M212.7857 195.3796
L212.7857 195.5225
" />
<path d="M212.7857 195.5225
L212.7143 195.7368
" />
<path d="M212.7143 195.7368
L211.8571 196.5939
" />
<path d="M211.8571 196.5939
L212.7857 196.5939
" />
<path d="M213.2857 195.0939
L214.2857 195.0939
" />
<path d="M214.2857 195.0939
L213.6429 196.5939
" />
<path d="M214.7143 195.0939
L215.6429 195.0939
" />
<path d="M215.6429 195.0939
L215.1429 195.6654
" />
<path d="M215.1429 195.6654
L215.3571 195.6654
" />
<path d="M215.3571 195.6654
L215.5000 195.7368
" />
<path d="M215.5000 195.7368
L215.5714 195.8082
" />
<path d="M215.5714 195.8082
L215.6429 195.9511
" />
<path d="M215.6429 195.9511
L215.6429 196.3082
" />
<path d="M215.6429 196.3082
L215.5714 196.4511
" />
<path d="M215.5714 196.4511
L215.5000 196.5225
" />
<path d="M215.5000 196.5225
L215.3571 196.5939
" />
<path d="M215.3571 196.5939
L214.9286 196.5939
" />
<path d="M214.9286 196.5939
L214.7857 196.5225
" />
<path d="M214.7857 196.5225
L214.7143 196.4511
" />
<path d="M216.2143 195.2368
L216.2857 195.1654
" />
<path d="M216.2857 195.1654
L216.4286 195.0939
" />
<path d="M216.4286 195.0939
L216.7857 195.0939
" />
<path d="M216.7857 195.0939
L216.9286 195.1654
" />
<path d="M216.9286 195.1654
L217.0000 195.2368
" />
<path d="M217.0000 195.2368
L217.0714 195.3796
" />
<path d="M217.0714 195.3796
L217.0714 195.5225
" />
<path d="M217.0714 195.5225
L217.0000 195.7368
" />
<path d="M217.0000 195.7368
L216.1429 196.5939
" />
<path d="M216.1429 196.5939
L217.0714 196.5939
" />
<path d="M217.7857 196.5939
L218.0714 196.5939
" />
<path d="M218.0714 196.5939
L218.2143 196.5225
" />
<path d="M218.2143 196.5225
L218.2857 196.4511
" />
<path d="M218.2857 196.4511
L218.4286 196.2368
" />
<path d="M218.4286 196.2368
L218.5000 195.9511
" />
<path d="M218.5000 195.9511
L218.5000 195.3796
" />
<path d="M218.5000 195.3796
L218.4286 195.2368
" />
<path d="M218.4286 195.2368
L218.3571 195.1654
" />
<path d="M218.3571 195.1654
L218.2143 195.0939
" />
<path d="M218.2143 195.0939
L217.9286 195.0939
" />
<path d="M217.9286 195.0939
L217.7857 195.1654
" />
<path d="M217.7857 195.1654
L217.7143 195.2368
" />
<path d="M217.7143 195.2368
L217.6429 195.3796
" />
<path d="M217.6429 195.3796
L217.6429 195.7368
" />
<path d="M217.6429 195.7368
L217.7143 195.8796
" />
<path d="M217.7143 195.8796
L217.7857 195.9511
" />
<path d="M217.7857 195.9511
L217.9286 196.0225
" />
<path d="M217.9286 196.0225
L218.2143 196.0225
" />
<path d="M218.2143 196.0225
L218.3571 195.9511
" />
<path d="M218.3571 195.9511
L218.4286 195.8796
" />
<path d="M218.4286 195.8796
L218.5000 195.7368
" />
<path d="M219.9286 196.5939
L219.0714 196.5939
" />
<path d="M219.5000 196.5939
L219.5000 195.0939
" />
<path d="M219.5000 195.0939
L219.3571 195.3082
" />
<path d="M219.3571 195.3082
L219.2143 195.4511
" />
<path d="M219.2143 195.4511
L219.0714 195.5225
" />
<path d="M220.7857 195.7368
L220.6429 195.6654
" />
<path d="M220.6429 195.6654
L220.5714 195.5939
" />
<path d="M220.5714 195.5939
L220.5000 195.4511
" />
<path d="M220.5000 195.4511
L220.5000 195.3796
" />
<path d="M220.5000 195.3796
L220.5714 195.2368
" />
<path d="M220.5714 195.2368
L220.6429 195.1654
" />
<path d="M220.6429 195.1654
L220.7857 195.0939
" />
<path d="M220.7857 195.0939
L221.0714 195.0939
" />
<path d="M221.0714 195.0939
L221.2143 195.1654
" />
<path d="M221.2143 195.1654
L221.2857 195.2368
" />
<path d="M221.2857 195.2368
L221.3571 195.3796
" />
<path d="M221.3571 195.3796
L221.3571 195.4511
" />
<path d="M221.3571 195.4511
L221.2857 195.5939
" />
<path d="M221.2857 195.5939
L221.2143 195.6654
" />
<path d="M221.2143 195.6654
L221.0714 195.7368
" />
<path d="M221.0714 195.7368
L220.7857 195.7368
" />
<path d="M220.7857 195.7368
L220.6429 195.8082
" />
<path d="M220.6429 195.8082
L220.5714 195.8796
" />
<path d="M220.5714 195.8796
L220.5000 196.0225
" />
<path d="M220.5000 196.0225
L220.5000 196.3082
" />
<path d="M220.5000 196.3082
L220.5714 196.4511
" />
<path d="M220.5714 196.4511
L220.6429 196.5225
" />
<path d="M220.6429 196.5225
L220.7857 196.5939
" />
<path d="M220.7857 196.5939
L221.0714 196.5939
" />
<path d="M221.0714 196.5939
L221.2143 196.5225
" />
<path d="M221.2143 196.5225
L221.2857 196.4511
" />
<path d="M221.2857 196.4511
L221.3571 196.3082
" />
<path d="M221.3571 196.3082
L221.3571 196.0225
" />
<path d="M221.3571 196.0225
L221.2857 195.8796
" />
<path d="M221.2857 195.8796
L221.2143 195.8082
" />
<path d="M221.2143 195.8082
L221.0714 195.7368
" />
<path d="M222.6429 196.5939
L222.6429 195.0939
" />
<path d="M222.6429 196.5225
L222.5000 196.5939
" />
<path d="M222.5000 196.5939
L222.2143 196.5939
" />
<path d="M222.2143 196.5939
L222.0714 196.5225
" />
<path d="M222.0714 196.5225
L222.0000 196.4511
" />
<path d="M222.0000 196.4511
L221.9286 196.3082
" />
<path d="M221.9286 196.3082
L221.9286 195.8796
" />
<path d="M221.9286 195.8796
L222.0000 195.7368
" />
<path d="M222.0000 195.7368
L222.0714 195.6654
" />
<path d="M222.0714 195.6654
L222.2143 195.5939
" />
<path d="M222.2143 195.5939
L222.5000 195.5939
" />
<path d="M222.5000 195.5939
L222.6429 195.6654
" />
<path d="M223.3571 196.0225
L224.5000 196.0225
" />
<path d="M225.8571 196.5939
L225.8571 195.0939
" />
<path d="M225.8571 196.5225
L225.7143 196.5939
" />
<path d="M225.7143 196.5939
L225.4286 196.5939
" />
<path d="M225.4286 196.5939
L225.2857 196.5225
" />
<path d="M225.2857 196.5225
L225.2143 196.4511
" />
<path d="M225.2143 196.4511
L225.1429 196.3082
" />
<path d="M225.1429 196.3082
L225.1429 195.8796
" />
<path d="M225.1429 195.8796
L225.2143 195.7368
" />
<path d="M225.2143 195.7368
L225.2857 195.6654
" />
<path d="M225.2857 195.6654
L225.4286 195.5939
" />
<path d="M225.4286 195.5939
L225.7143 195.5939
" />
<path d="M225.7143 195.5939
L225.8571 195.6654
" />
<path d="M226.5714 196.5939
L226.5714 195.5939
" />
<path d="M226.5714 195.0939
L226.5000 195.1654
" />
<path d="M226.5000 195.1654
L226.5714 195.2368
" />
<path d="M226.5714 195.2368
L226.6429 195.1654
" />
<path d="M226.6429 195.1654
L226.5714 195.0939
" />
<path d="M226.5714 195.0939
L226.5714 195.2368
" />
<path d="M227.2857 196.5939
L227.2857 195.5939
" />
<path d="M227.2857 195.8796
L227.3571 195.7368
" />
<path d="M227.3571 195.7368
L227.4286 195.6654
" />
<path d="M227.4286 195.6654
L227.5714 195.5939
" />
<path d="M227.5714 195.5939
L227.7143 195.5939
" />
<path d="M228.0000 195.5939
L228.5714 195.5939
" />
<path d="M228.2143 195.0939
L228.2143 196.3796
" />
<path d="M228.2143 196.3796
L228.2857 196.5225
" />
<path d="M228.2857 196.5225
L228.4286 196.5939
" />
<path d="M228.4286 196.5939
L228.5714 196.5939
" />
<path d="M228.9286 195.5939
L229.2857 196.5939
" />
<path d="M229.6429 195.5939
L229.2857 196.5939
" />
<path d="M229.2857 196.5939
L229.1429 196.9511
" />
<path d="M229.1429 196.9511
L229.0714 197.0225
" />
<path d="M229.0714 197.0225
L228.9286 197.0939
" />
<path d="M230.2143 196.0225
L231.3571 196.0225
" />
<path d="M232.7143 196.5939
L232.7143 195.0939
" />
<path d="M232.7143 196.5225
L232.5714 196.5939
" />
<path d="M232.5714 196.5939
L232.2857 196.5939
" />
<path d="M232.2857 196.5939
L232.1429 196.5225
" />
<path d="M232.1429 196.5225
L232.0714 196.4511
" />
<path d="M232.0714 196.4511
L232.0000 196.3082
" />
<path d="M232.0000 196.3082
L232.0000 195.8796
" />
<path d="M232.0000 195.8796
L232.0714 195.7368
" />
<path d="M232.0714 195.7368
L232.1429 195.6654
" />
<path d="M232.1429 195.6654
L232.2857 195.5939
" />
<path d="M232.2857 195.5939
L232.5714 195.5939
" />
<path d="M232.5714 195.5939
L232.7143 195.6654
" />
<path d="M234.0000 196.5225
L233.8571 196.5939
" />
<path d="M233.8571 196.5939
L233.5714 196.5939
" />
<path d="M233.5714 196.5939
L233.4286 196.5225
" />
<path d="M233.4286 196.5225
L233.3571 196.3796
" />
<path d="M233.3571 196.3796
L233.3571 195.8082
" />
<path d="M233.3571 195.8082
L233.4286 195.6654
" />
<path d="M233.4286 195.6654
L233.5714 195.5939
" />
<path d="M233.5714 195.5939
L233.8571 195.5939
" />
<path d="M233.8571 195.5939
L234.0000 195.6654
" />
<path d="M234.0000 195.6654
L234.0714 195.8082
" />
<path d="M234.0714 195.8082
L234.0714 195.9511
" />
<path d="M234.0714 195.9511
L233.3571 196.0939
" />
<path d="M234.7143 196.5939
L234.7143 195.0939
" />
<path d="M234.7143 195.6654
L234.8571 195.5939
" />
<path d="M234.8571 195.5939
L235.1429 195.5939
" />
<path d="M235.1429 195.5939
L235.2857 195.6654
" />
<path d="M235.2857 195.6654
L235.3571 195.7368
" />
<path d="M235.3571 195.7368
L235.4286 195.8796
" />
<path d="M235.4286 195.8796
L235.4286 196.3082
" />
<path d="M235.4286 196.3082
L235.3571 196.4511
" />
<path d="M235.3571 196.4511
L235.2857 196.5225
" />
<path d="M235.2857 196.5225
L235.1429 196.5939
" />
<path d="M235.1429 196.5939
L234.8571 196.5939
" />
<path d="M234.8571 196.5939
L234.7143 196.5225
" />
<path d="M236.8571 196.5939
L236.0000 196.5939
" />
<path d="M236.4286 196.5939
L236.4286 195.0939
" />
<path d="M236.4286 195.0939
L236.2857 195.3082
" />
<path d="M236.2857 195.3082
L236.1429 195.4511
" />
<path d="M236.1429 195.4511
L236.0000 195.5225
" />
<path d="M238.2857 196.5939
L237.4286 196.5939
" />
<path d="M237.8571 196.5939
L237.8571 195.0939
" />
<path d="M237.8571 195.0939
L237.7143 195.3082
" />
<path d="M237.7143 195.3082
L237.5714 195.4511
" />
<path d="M237.5714 195.4511
L237.4286 195.5225
" />
<path d="M240.0714 196.0225
L241.2143 196.0225
" />
<path d="M240.6429 196.5939
L240.6429 195.4511
" />
<path d="M243.0714 196.5939
L243.0714 195.0939
" />
<path d="M243.9286 196.5939
L243.2857 195.7368
" />
<path d="M243.9286 195.0939
L243.0714 195.9511
" />
<path d="M244.5714 196.5939
L244.5714 195.5939
" />
<path d="M244.5714 195.0939
L244.5000 195.1654
" />
<path d="M244.5000 195.1654
L244.5714 195.2368
" />
<path d="M244.5714 195.2368
L244.6429 195.1654
" />
<path d="M244.6429 195.1654
L244.5714 195.0939
" />
<path d="M244.5714 195.0939
L244.5714 195.2368
" />
<path d="M245.7857 195.8082
L246.0000 195.8796
" />
<path d="M246.0000 195.8796
L246.0714 195.9511
" />
<path d="M246.0714 195.9511
L246.1429 196.0939
" />
<path d="M246.1429 196.0939
L246.1429 196.3082
" />
<path d="M246.1429 196.3082
L246.0714 196.4511
" />
<path d="M246.0714 196.4511
L246.0000 196.5225
" />
<path d="M246.0000 196.5225
L245.8571 196.5939
" />
<path d="M245.8571 196.5939
L245.2857 196.5939
" />
<path d="M245.2857 196.5939
L245.2857 195.0939
" />
<path d="M245.2857 195.0939
L245.7857 195.0939
" />
<path d="M245.7857 195.0939
L245.9286 195.1654
" />
<path d="M245.9286 195.1654
L246.0000 195.2368
" />
<path d="M246.0000 195.2368
L246.0714 195.3796
" />
<path d="M246.0714 195.3796
L246.0714 195.5225
" />
<path d="M246.0714 195.5225
L246.0000 195.6654
" />
<path d="M246.0000 195.6654
L245.9286 195.7368
" />
<path d="M245.9286 195.7368
L245.7857 195.8082
" />
<path d="M245.7857 195.8082
L245.2857 195.8082
" />
<path d="M247.0000 196.5939
L246.8571 196.5225
" />
<path d="M246.8571 196.5225
L246.7857 196.4511
" />
<path d="M246.7857 196.4511
L246.7143 196.3082
" />
<path d="M246.7143 196.3082
L246.7143 195.8796
" />
<path d="M246.7143 195.8796
L246.7857 195.7368
" />
<path d="M246.7857 195.7368
L246.8571 195.6654
" />
<path d="M246.8571 195.6654
L247.0000 195.5939
" />
<path d="M247.0000 195.5939
L247.2143 195.5939
" />
<path d="M247.2143 195.5939
L247.3571 195.6654
" />
<path d="M247.3571 195.6654
L247.4286 195.7368
" />
<path d="M247.4286 195.7368
L247.5000 195.8796
" />
<path d="M247.5000 195.8796
L247.5000 196.3082
" />
<path d="M247.5000 196.3082
L247.4286 196.4511
" />
<path d="M247.4286 196.4511
L247.3571 196.5225
" />
<path d="M247.3571 196.5225
L247.2143 196.5939
" />
<path d="M247.2143 196.5939
L247.0000 196.5939
" />
<path d="M247.9286 195.5939
L248.5000 195.5939
" />
<path d="M248.1429 195.0939
L248.1429 196.3796
" />
<path d="M248.1429 196.3796
L248.2143 196.5225
" />
<path d="M248.2143 196.5225
L248.3571 196.5939
" />
<path d="M248.3571 196.5939
L248.5000 196.5939
" />
<path d="M250.0000 195.5939
L250.3571 196.5939
" />
<path d="M250.3571 196.5939
L250.7143 195.5939
" />
<path d="M252.0714 196.5939
L251.2143 196.5939
" />
<path d="M251.6429 196.5939
L251.6429 195.0939
" />
<path d="M251.6429 195.0939
L251.5000 195.3082
" />
<path d="M251.5000 195.3082
L251.3571 195.4511
" />
<path d="M251.3571 195.4511
L251.2143 195.5225
" />
<path d="M252.7143 196.4511
L252.7857 196.5225
" />
<path d="M252.7857 196.5225
L252.7143 196.5939
" />
<path d="M252.7143 196.5939
L252.6429 196.5225
" />
<path d="M252.6429 196.5225
L252.7143 196.4511
" />
<path d="M252.7143 196.4511
L252.7143 196.5939
" />
<path d="M254.0714 195.0939
L253.7857 195.0939
" />
<path d="M253.7857 195.0939
L253.6429 195.1654
" />
<path d="M253.6429 195.1654
L253.5714 195.2368
" />
<path d="M253.5714 195.2368
L253.4286 195.4511
" />
<path d="M253.4286 195.4511
L253.3571 195.7368
" />
<path d="M253.3571 195.7368
L253.3571 196.3082
" />
<path d="M253.3571 196.3082
L253.4286 196.4511
" />
<path d="M253.4286 196.4511
L253.5000 196.5225
" />
<path d="M253.5000 196.5225
L253.6429 196.5939
" />
<path d="M253.6429 196.5939
L253.9286 196.5939
" />
<path d="M253.9286 196.5939
L254.0714 196.5225
" />
<path d="M254.0714 196.5225
L254.1429 196.4511
" />
<path d="M254.1429 196.4511
L254.2143 196.3082
" />
<path d="M254.2143 196.3082
L254.2143 195.9511
" />
<path d="M254.2143 195.9511
L254.1429 195.8082
" />
<path d="M254.1429 195.8082
L254.0714 195.7368
" />
<path d="M254.0714 195.7368
L253.9286 195.6654
" />
<path d="M253.9286 195.6654
L253.6429 195.6654
" />
<path d="M253.6429 195.6654
L253.5000 195.7368
" />
<path d="M253.5000 195.7368
L253.4286 195.8082
" />
<path d="M253.4286 195.8082
L253.3571 195.9511
" />
<path d="M254.8571 196.4511
L254.9286 196.5225
" />
<path d="M254.9286 196.5225
L254.8571 196.5939
" />
<path d="M254.8571 196.5939
L254.7857 196.5225
" />
<path d="M254.7857 196.5225
L254.8571 196.4511
" />
<path d="M254.8571 196.4511
L254.8571 196.5939
" />
<path d="M255.5000 195.2368
L255.5714 195.1654
" />
<path d="M255.5714 195.1654
L255.7143 195.0939
" />
<path d="M255.7143 195.0939
L256.0714 195.0939
" />
<path d="M256.0714 195.0939
L256.2143 195.1654
" />
<path d="M256.2143 195.1654
L256.2857 195.2368
" />
<path d="M256.2857 195.2368
L256.3571 195.3796
" />
<path d="M256.3571 195.3796
L256.3571 195.5225
" />
<path d="M256.3571 195.5225
L256.2857 195.7368
" />
<path d="M256.2857 195.7368
L255.4286 196.5939
" />
<path d="M255.4286 196.5939
L256.3571 196.5939
" />
</g><path d="M177.0000 194.5000
L285.0000 194.5000
" />
<text x="200.0000" y="193.8500"
textLength="35.5036" font-size="2.0000" lengthAdjust="spacingAndGlyphs"
text-anchor="start" opacity="0">Date: 2023-05-28_08-21-26</text>
<g class="stroked-text"><desc>Date: 2023-05-28_08-21-26</desc>
<path d="M200.3571 193.7939
L200.3571 192.2939
" />
<path d="M200.3571 192.2939
L200.7143 192.2939
" />
<path d="M200.7143 192.2939
L200.9286 192.3654
" />
<path d="M200.9286 192.3654
L201.0714 192.5082
" />
<path d="M201.0714 192.5082
L201.1429 192.6511
" />
<path d="M201.1429 192.6511
L201.2143 192.9368
" />
<path d="M201.2143 192.9368
L201.2143 193.1511
" />
<path d="M201.2143 193.1511
L201.1429 193.4368
" />
<path d="M201.1429 193.4368
L201.0714 193.5796
" />
<path d="M201.0714 193.5796
L200.9286 193.7225
" />
<path d="M200.9286 193.7225
L200.7143 193.7939
" />
<path d="M200.7143 193.7939
L200.3571 193.7939
" />
<path d="M202.5000 193.7939
L202.5000 193.0082
" />
<path d="M202.5000 193.0082
L202.4286 192.8654
" />
<path d="M202.4286 192.8654
L202.2857 192.7939
" />
<path d="M202.2857 192.7939
L202.0000 192.7939
" />
<path d="M202.0000 192.7939
L201.8571 192.8654
" />
<path d="M202.5000 193.7225
L202.3571 193.7939
" />
<path d="M202.3571 193.7939
L202.0000 193.7939
" />
<path d="M202.0000 193.7939
L201.8571 193.7225
" />
<path d="M201.8571 193.7225
L201.7857 193.5796
" />
<path d="M201.7857 193.5796
L201.7857 193.4368
" />
<path d="M201.7857 193.4368
L201.8571 193.2939
" />
<path d="M201.8571 193.2939
L202.0000 193.2225
" />
<path d="M202.0000 193.2225
L202.3571 193.2225
" />
<path d="M202.3571 193.2225
L202.5000 193.1511
" />
<path d="M203.0000 192.7939
L203.5714 192.7939
" />
<path d="M203.2143 192.2939
L203.2143 193.5796
" />
<path d="M203.2143 193.5796
L203.2857 193.7225
" />
<path d="M203.2857 193.7225
L203.4286 193.7939
" />
<path d="M203.4286 193.7939
L203.5714 193.7939
" />
<path d="M204.6429 193.7225
L204.5000 193.7939
" />
<path d="M204.5000 193.7939
L204.2143 193.7939
" />
<path d="M204.2143 193.7939
L204.0714 193.7225
" />
<path d="M204.0714 193.7225
L204.0000 193.5796
" />
<path d="M204.0000 193.5796
L204.0000 193.0082
" />
<path d="M204.0000 193.0082
L204.0714 192.8654
" />
<path d="M204.0714 192.8654
L204.2143 192.7939
" />
<path d="M204.2143 192.7939
L204.5000 192.7939
" />
<path d="M204.5000 192.7939
L204.6429 192.8654
" />
<path d="M204.6429 192.8654
L204.7143 193.0082
" />
<path d="M204.7143 193.0082
L204.7143 193.1511
" />
<path d="M204.7143 193.1511
L204.0000 193.2939
" />
<path d="M205.3571 193.6511
L205.4286 193.7225
" />
<path d="M205.4286 193.7225
L205.3571 193.7939
" />
<path d="M205.3571 193.7939
L205.2857 193.7225
" />
<path d="M205.2857 193.7225
L205.3571 193.6511
" />
<path d="M205.3571 193.6511
L205.3571 193.7939
" />
<path d="M205.3571 192.8654
L205.4286 192.9368
" />
<path d="M205.4286 192.9368
L205.3571 193.0082
" />
<path d="M205.3571 193.0082
L205.2857 192.9368
" />
<path d="M205.2857 192.9368
L205.3571 192.8654
" />
<path d="M205.3571 192.8654
L205.3571 193.0082
" />
<path d="M207.1429 192.4368
L207.2143 192.3654
" />
<path d="M207.2143 192.3654
L207.3571 192.2939
" />
<path d="M207.3571 192.2939
L207.7143 192.2939
" />
<path d="M207.7143 192.2939
L207.8571 192.3654
" />
<path d="M207.8571 192.3654
L207.9286 192.4368
" />
<path d="M207.9286 192.4368
L208.0000 192.5796
" />
<path d="M208.0000 192.5796
L208.0000 192.7225
" />
<path d="M208.0000 192.7225
L207.9286 192.9368
" />
<path d="M207.9286 192.9368
L207.0714 193.7939
" />
<path d="M207.0714 193.7939
L208.0000 193.7939
" />
<path d="M208.9286 192.2939
L209.0714 192.2939
" />
<path d="M209.0714 192.2939
L209.2143 192.3654
" />
<path d="M209.2143 192.3654
L209.2857 192.4368
" />
<path d="M209.2857 192.4368
L209.3571 192.5796
" />
<path d="M209.3571 192.5796
L209.4286 192.8654
" />
<path d="M209.4286 192.8654
L209.4286 193.2225
" />
<path d="M209.4286 193.2225
L209.3571 193.5082
" />
<path d="M209.3571 193.5082
L209.2857 193.6511
" />
<path d="M209.2857 193.6511
L209.2143 193.7225
" />
<path d="M209.2143 193.7225
L209.0714 193.7939
" />
<path d="M209.0714 193.7939
L208.9286 193.7939
" />
<path d="M208.9286 193.7939
L208.7857 193.7225
" />
<path d="M208.7857 193.7225
L208.7143 193.6511
" />
<path d="M208.7143 193.6511
L208.6429 193.5082
" />
<path d="M208.6429 193.5082
L208.5714 193.2225
" />
<path d="M208.5714 193.2225
L208.5714 192.8654
" />
<path d="M208.5714 192.8654
L208.6429 192.5796
" />
<path d="M208.6429 192.5796
L208.7143 192.4368
" />
<path d="M208.7143 192.4368
L208.7857 192.3654
" />
<path d="M208.7857 192.3654
L208.9286 192.2939
" />
<path d="M210.0000 192.4368
L210.0714 192.3654
" />
<path d="M210.0714 192.3654
L210.2143 192.2939
" />
<path d="M210.2143 192.2939
L210.5714 192.2939
" />
<path d="M210.5714 192.2939
L210.7143 192.3654
" />
<path d="M210.7143 192.3654
L210.7857 192.4368
" />
<path d="M210.7857 192.4368
L210.8571 192.5796
" />
<path d="M210.8571 192.5796
L210.8571 192.7225
" />
<path d="M210.8571 192.7225
L210.7857 192.9368
" />
<path d="M210.7857 192.9368
L209.9286 193.7939
" />
<path d="M209.9286 193.7939
L210.8571 193.7939
" />
<path d="M211.3571 192.2939
L212.2857 192.2939
" />
<path d="M212.2857 192.2939
L211.7857 192.8654
" />
<path d="M211.7857 192.8654
L212.0000 192.8654
" />
<path d="M212.0000 192.8654
L212.1429 192.9368
" />
<path d="M212.1429 192.9368
L212.2143 193.0082
" />
<path d="M212.2143 193.0082
L212.2857 193.1511
" />
<path d="M212.2857 193.1511
L212.2857 193.5082
" />
<path d="M212.2857 193.5082
L212.2143 193.6511
" />
<path d="M212.2143 193.6511
L212.1429 193.7225
" />
<path d="M212.1429 193.7225
L212.0000 193.7939
" />
<path d="M212.0000 193.7939
L211.5714 193.7939
" />
<path d="M211.5714 193.7939
L211.4286 193.7225
" />
<path d="M211.4286 193.7225
L211.3571 193.6511
" />
<path d="M212.9286 193.2225
L214.0714 193.2225
" />
<path d="M215.0714 192.2939
L215.2143 192.2939
" />
<path d="M215.2143 192.2939
L215.3571 192.3654
" />
<path d="M215.3571 192.3654
L215.4286 192.4368
" />
<path d="M215.4286 192.4368
L215.5000 192.5796
" />
<path d="M215.5000 192.5796
L215.5714 192.8654
" />
<path d="M215.5714 192.8654
L215.5714 193.2225
" />
<path d="M215.5714 193.2225
L215.5000 193.5082
" />
<path d="M215.5000 193.5082
L215.4286 193.6511
" />
<path d="M215.4286 193.6511
L215.3571 193.7225
" />
<path d="M215.3571 193.7225
L215.2143 193.7939
" />
<path d="M215.2143 193.7939
L215.0714 193.7939
" />
<path d="M215.0714 193.7939
L214.9286 193.7225
" />
<path d="M214.9286 193.7225
L214.8571 193.6511
" />
<path d="M214.8571 193.6511
L214.7857 193.5082
" />
<path d="M214.7857 193.5082
L214.7143 193.2225
" />
<path d="M214.7143 193.2225
L214.7143 192.8654
" />
<path d="M214.7143 192.8654
L214.7857 192.5796
" />
<path d="M214.7857 192.5796
L214.8571 192.4368
" />
<path d="M214.8571 192.4368
L214.9286 192.3654
" />
<path d="M214.9286 192.3654
L215.0714 192.2939
" />
<path d="M216.9286 192.2939
L216.2143 192.2939
" />
<path d="M216.2143 192.2939
L216.1429 193.0082
" />
<path d="M216.1429 193.0082
L216.2143 192.9368
" />
<path d="M216.2143 192.9368
L216.3571 192.8654
" />
<path d="M216.3571 192.8654
L216.7143 192.8654
" />
<path d="M216.7143 192.8654
L216.8571 192.9368
" />
<path d="M216.8571 192.9368
L216.9286 193.0082
" />
<path d="M216.9286 193.0082
L217.0000 193.1511
" />
<path d="M217.0000 193.1511
L217.0000 193.5082
" />
<path d="M217.0000 193.5082
L216.9286 193.6511
" />
<path d="M216.9286 193.6511
L216.8571 193.7225
" />
<path d="M216.8571 193.7225
L216.7143 193.7939
" />
<path d="M216.7143 193.7939
L216.3571 193.7939
" />
<path d="M216.3571 193.7939
L216.2143 193.7225
" />
<path d="M216.2143 193.7225
L216.1429 193.6511
" />
<path d="M217.6429 193.2225
L218.7857 193.2225
" />
<path d="M219.4286 192.4368
L219.5000 192.3654
" />
<path d="M219.5000 192.3654
L219.6429 192.2939
" />
<path d="M219.6429 192.2939
L220.0000 192.2939
" />
<path d="M220.0000 192.2939
L220.1429 192.3654
" />
<path d="M220.1429 192.3654
L220.2143 192.4368
" />
<path d="M220.2143 192.4368
L220.2857 192.5796
" />
<path d="M220.2857 192.5796
L220.2857 192.7225
" />
<path d="M220.2857 192.7225
L220.2143 192.9368
" />
<path d="M220.2143 192.9368
L219.3571 193.7939
" />
<path d="M219.3571 193.7939
L220.2857 193.7939
" />
<path d="M221.1429 192.9368
L221.0000 192.8654
" />
<path d="M221.0000 192.8654
L220.9286 192.7939
" />
<path d="M220.9286 192.7939
L220.8571 192.6511
" />
<path d="M220.8571 192.6511
L220.8571 192.5796
" />
<path d="M220.8571 192.5796
L220.9286 192.4368
" />
<path d="M220.9286 192.4368
L221.0000 192.3654
" />
<path d="M221.0000 192.3654
L221.1429 192.2939
" />
<path d="M221.1429 192.2939
L221.4286 192.2939
" />
<path d="M221.4286 192.2939
L221.5714 192.3654
" />
<path d="M221.5714 192.3654
L221.6429 192.4368
" />
<path d="M221.6429 192.4368
L221.7143 192.5796
" />
<path d="M221.7143 192.5796
L221.7143 192.6511
" />
<path d="M221.7143 192.6511
L221.6429 192.7939
" />
<path d="M221.6429 192.7939
L221.5714 192.8654
" />
<path d="M221.5714 192.8654
L221.4286 192.9368
" />
<path d="M221.4286 192.9368
L221.1429 192.9368
" />
<path d="M221.1429 192.9368
L221.0000 193.0082
" />
<path d="M221.0000 193.0082
L220.9286 193.0796
" />
<path d="M220.9286 193.0796
L220.8571 193.2225
" />
<path d="M220.8571 193.2225
L220.8571 193.5082
" />
<path d="M220.8571 193.5082
L220.9286 193.6511
" />
<path d="M220.9286 193.6511
L221.0000 193.7225
" />
<path d="M221.0000 193.7225
L221.1429 193.7939
" />
<path d="M221.1429 193.7939
L221.4286 193.7939
" />
<path d="M221.4286 193.7939
L221.5714 193.7225
" />
<path d="M221.5714 193.7225
L221.6429 193.6511
" />
<path d="M221.6429 193.6511
L221.7143 193.5082
" />
<path d="M221.7143 193.5082
L221.7143 193.2225
" />
<path d="M221.7143 193.2225
L221.6429 193.0796
" />
<path d="M221.6429 193.0796
L221.5714 193.0082
" />
<path d="M221.5714 193.0082
L221.4286 192.9368
" />
<path d="M222.0000 193.9368
L223.1429 193.9368
" />
<path d="M223.7857 192.2939
L223.9286 192.2939
" />
<path d="M223.9286 192.2939
L224.0714 192.3654
" />
<path d="M224.0714 192.3654
L224.1429 192.4368
" />
<path d="M224.1429 192.4368
L224.2143 192.5796
" />
<path d="M224.2143 192.5796
L224.2857 192.8654
" />
<path d="M224.2857 192.8654
L224.2857 193.2225
" />
<path d="M224.2857 193.2225
L224.2143 193.5082
" />
<path d="M224.2143 193.5082
L224.1429 193.6511
" />
<path d="M224.1429 193.6511
L224.0714 193.7225
" />
<path d="M224.0714 193.7225
L223.9286 193.7939
" />
<path d="M223.9286 193.7939
L223.7857 193.7939
" />
<path d="M223.7857 193.7939
L223.6429 193.7225
" />
<path d="M223.6429 193.7225
L223.5714 193.6511
" />
<path d="M223.5714 193.6511
L223.5000 193.5082
" />
<path d="M223.5000 193.5082
L223.4286 193.2225
" />
<path d="M223.4286 193.2225
L223.4286 192.8654
" />
<path d="M223.4286 192.8654
L223.5000 192.5796
" />
<path d="M223.5000 192.5796
L223.5714 192.4368
" />
<path d="M223.5714 192.4368
L223.6429 192.3654
" />
<path d="M223.6429 192.3654
L223.7857 192.2939
" />
<path d="M225.1429 192.9368
L225.0000 192.8654
" />
<path d="M225.0000 192.8654
L224.9286 192.7939
" />
<path d="M224.9286 192.7939
L224.8571 192.6511
" />
<path d="M224.8571 192.6511
L224.8571 192.5796
" />
<path d="M224.8571 192.5796
L224.9286 192.4368
" />
<path d="M224.9286 192.4368
L225.0000 192.3654
" />
<path d="M225.0000 192.3654
L225.1429 192.2939
" />
<path d="M225.1429 192.2939
L225.4286 192.2939
" />
<path d="M225.4286 192.2939
L225.5714 192.3654
" />
<path d="M225.5714 192.3654
L225.6429 192.4368
" />
<path d="M225.6429 192.4368
L225.7143 192.5796
" />
<path d="M225.7143 192.5796
L225.7143 192.6511
" />
<path d="M225.7143 192.6511
L225.6429 192.7939
" />
<path d="M225.6429 192.7939
L225.5714 192.8654
" />
<path d="M225.5714 192.8654
L225.4286 192.9368
" />
<path d="M225.4286 192.9368
L225.1429 192.9368
" />
<path d="M225.1429 192.9368
L225.0000 193.0082
" />
<path d="M225.0000 193.0082
L224.9286 193.0796
" />
<path d="M224.9286 193.0796
L224.8571 193.2225
" />
<path d="M224.8571 193.2225
L224.8571 193.5082
" />
<path d="M224.8571 193.5082
L224.9286 193.6511
" />
<path d="M224.9286 193.6511
L225.0000 193.7225
" />
<path d="M225.0000 193.7225
L225.1429 193.7939
" />
<path d="M225.1429 193.7939
L225.4286 193.7939
" />
<path d="M225.4286 193.7939
L225.5714 193.7225
" />
<path d="M225.5714 193.7225
L225.6429 193.6511
" />
<path d="M225.6429 193.6511
L225.7143 193.5082
" />
<path d="M225.7143 193.5082
L225.7143 193.2225
" />
<path d="M225.7143 193.2225
L225.6429 193.0796
" />
<path d="M225.6429 193.0796
L225.5714 193.0082
" />
<path d="M225.5714 193.0082
L225.4286 192.9368
" />
<path d="M226.3571 193.2225
L227.5000 193.2225
" />
<path d="M228.1429 192.4368
L228.2143 192.3654
" />
<path d="M228.2143 192.3654
L228.3571 192.2939
" />
<path d="M228.3571 192.2939
L228.7143 192.2939
" />
<path d="M228.7143 192.2939
L228.8571 192.3654
" />
<path d="M228.8571 192.3654
L228.9286 192.4368
" />
<path d="M228.9286 192.4368
L229.0000 192.5796
" />
<path d="M229.0000 192.5796
L229.0000 192.7225
" />
<path d="M229.0000 192.7225
L228.9286 192.9368
" />
<path d="M228.9286 192.9368
L228.0714 193.7939
" />
<path d="M228.0714 193.7939
L229.0000 193.7939
" />
<path d="M230.4286 193.7939
L229.5714 193.7939
" />
<path d="M230.0000 193.7939
L230.0000 192.2939
" />
<path d="M230.0000 192.2939
L229.8571 192.5082
" />
<path d="M229.8571 192.5082
L229.7143 192.6511
" />
<path d="M229.7143 192.6511
L229.5714 192.7225
" />
<path d="M231.0714 193.2225
L232.2143 193.2225
" />
<path d="M232.8571 192.4368
L232.9286 192.3654
" />
<path d="M232.9286 192.3654
L233.0714 192.2939
" />
<path d="M233.0714 192.2939
L233.4286 192.2939
" />
<path d="M233.4286 192.2939
L233.5714 192.3654
" />
<path d="M233.5714 192.3654
L233.6429 192.4368
" />
<path d="M233.6429 192.4368
L233.7143 192.5796
" />
<path d="M233.7143 192.5796
L233.7143 192.7225
" />
<path d="M233.7143 192.7225
L233.6429 192.9368
" />
<path d="M233.6429 192.9368
L232.7857 193.7939
" />
<path d="M232.7857 193.7939
L233.7143 193.7939
" />
<path d="M235.0000 192.2939
L234.7143 192.2939
" />
<path d="M234.7143 192.2939
L234.5714 192.3654
" />
<path d="M234.5714 192.3654
L234.5000 192.4368
" />
<path d="M234.5000 192.4368
L234.3571 192.6511
" />
<path d="M234.3571 192.6511
L234.2857 192.9368
" />
<path d="M234.2857 192.9368
L234.2857 193.5082
" />
<path d="M234.2857 193.5082
L234.3571 193.6511
" />
<path d="M234.3571 193.6511
L234.4286 193.7225
" />
<path d="M234.4286 193.7225
L234.5714 193.7939
" />
<path d="M234.5714 193.7939
L234.8571 193.7939
" />
<path d="M234.8571 193.7939
L235.0000 193.7225
" />
<path d="M235.0000 193.7225
L235.0714 193.6511
" />
<path d="M235.0714 193.6511
L235.1429 193.5082
" />
<path d="M235.1429 193.5082
L235.1429 193.1511
" />
<path d="M235.1429 193.1511
L235.0714 193.0082
" />
<path d="M235.0714 193.0082
L235.0000 192.9368
" />
<path d="M235.0000 192.9368
L234.8571 192.8654
" />
<path d="M234.8571 192.8654
L234.5714 192.8654
" />
<path d="M234.5714 192.8654
L234.4286 192.9368
" />
<path d="M234.4286 192.9368
L234.3571 193.0082
" />
<path d="M234.3571 193.0082
L234.2857 193.1511
" />
</g><text x="286.0000" y="185.6500"
textLength="1.4150" font-size="1.7333" lengthAdjust="spacingAndGlyphs"
text-anchor="middle" opacity="0">D</text>
<g class="stroked-text"><desc>D</desc>
<path d="M285.6595 185.6014
L285.6595 184.3014
" />
<path d="M285.6595 184.3014
L285.9690 184.3014
" />
<path d="M285.9690 184.3014
L286.1548 184.3633
" />
<path d="M286.1548 184.3633
L286.2786 184.4871
" />
<path d="M286.2786 184.4871
L286.3405 184.6109
" />
<path d="M286.3405 184.6109
L286.4024 184.8585
" />
<path d="M286.4024 184.8585
L286.4024 185.0443
" />
<path d="M286.4024 185.0443
L286.3405 185.2919
" />
<path d="M286.3405 185.2919
L286.2786 185.4157
" />
<path d="M286.2786 185.4157
L286.1548 185.5395
" />
<path d="M286.1548 185.5395
L285.9690 185.6014
" />
<path d="M285.9690 185.6014
L285.6595 185.6014
" />
</g><text x="286.0000" y="135.6500"
textLength="1.4150" font-size="1.7333" lengthAdjust="spacingAndGlyphs"
text-anchor="middle" opacity="0">C</text>
<g class="stroked-text"><desc>C</desc>
<path d="M286.4024 135.4776
L286.3405 135.5395
" />
<path d="M286.3405 135.5395
L286.1548 135.6014
" />
<path d="M286.1548 135.6014
L286.0310 135.6014
" />
<path d="M286.0310 135.6014
L285.8452 135.5395
" />
<path d="M285.8452 135.5395
L285.7214 135.4157
" />
<path d="M285.7214 135.4157
L285.6595 135.2919
" />
<path d="M285.6595 135.2919
L285.5976 135.0443
" />
<path d="M285.5976 135.0443
L285.5976 134.8585
" />
<path d="M285.5976 134.8585
L285.6595 134.6109
" />
<path d="M285.6595 134.6109
L285.7214 134.4871
" />
<path d="M285.7214 134.4871
L285.8452 134.3633
" />
<path d="M285.8452 134.3633
L286.0310 134.3014
" />
<path d="M286.0310 134.3014
L286.1548 134.3014
" />
<path d="M286.1548 134.3014
L286.3405 134.3633
" />
<path d="M286.3405 134.3633
L286.4024 134.4252
" />
</g><text x="286.0000" y="85.6500"
textLength="1.4150" font-size="1.7333" lengthAdjust="spacingAndGlyphs"
text-anchor="middle" opacity="0">B</text>
<g class="stroked-text"><desc>B</desc>
<path d="M286.0929 84.9205
L286.2786 84.9824
" />
<path d="M286.2786 84.9824
L286.3405 85.0443
" />
<path d="M286.3405 85.0443
L286.4024 85.1681
" />
<path d="M286.4024 85.1681
L286.4024 85.3538
" />
<path d="M286.4024 85.3538
L286.3405 85.4776
" />
<path d="M286.3405 85.4776
L286.2786 85.5395
" />
<path d="M286.2786 85.5395
L286.1548 85.6014
" />
<path d="M286.1548 85.6014
L285.6595 85.6014
" />
<path d="M285.6595 85.6014
L285.6595 84.3014
" />
<path d="M285.6595 84.3014
L286.0929 84.3014
" />
<path d="M286.0929 84.3014
L286.2167 84.3633
" />
<path d="M286.2167 84.3633
L286.2786 84.4252
" />
<path d="M286.2786 84.4252
L286.3405 84.5490
" />
<path d="M286.3405 84.5490
L286.3405 84.6728
" />
<path d="M286.3405 84.6728
L286.2786 84.7966
" />
<path d="M286.2786 84.7966
L286.2167 84.8585
" />
<path d="M286.2167 84.8585
L286.0929 84.9205
" />
<path d="M286.0929 84.9205
L285.6595 84.9205
" />
</g><text x="286.0000" y="35.6500"
textLength="1.2293" font-size="1.7333" lengthAdjust="spacingAndGlyphs"
text-anchor="middle" opacity="0">A</text>
<g class="stroked-text"><desc>A</desc>
<path d="M285.6905 35.2300
L286.3095 35.2300
" />
<path d="M285.5667 35.6014
L286.0000 34.3014
" />
<path d="M286.0000 34.3014
L286.4333 35.6014
" />
</g><path d="M287.0000 160.0000
L285.0000 160.0000
" />
<path d="M287.0000 110.0000
L285.0000 110.0000
" />
<path d="M287.0000 60.0000
L285.0000 60.0000
" />
<text x="11.0000" y="185.6500"
textLength="1.4150" font-size="1.7333" lengthAdjust="spacingAndGlyphs"
text-anchor="middle" opacity="0">D</text>
<g class="stroked-text"><desc>D</desc>
<path d="M10.6595 185.6014
L10.6595 184.3014
" />
<path d="M10.6595 184.3014
L10.9690 184.3014
" />
<path d="M10.9690 184.3014
L11.1548 184.3633
" />
<path d="M11.1548 184.3633
L11.2786 184.4871
" />
<path d="M11.2786 184.4871
L11.3405 184.6109
" />
<path d="M11.3405 184.6109
L11.4024 184.8585
" />
<path d="M11.4024 184.8585
L11.4024 185.0443
" />
<path d="M11.4024 185.0443
L11.3405 185.2919
" />
<path d="M11.3405 185.2919
L11.2786 185.4157
" />
<path d="M11.2786 185.4157
L11.1548 185.5395
" />
<path d="M11.1548 185.5395
L10.9690 185.6014
" />
<path d="M10.9690 185.6014
L10.6595 185.6014
" />
</g><text x="11.0000" y="135.6500"
textLength="1.4150" font-size="1.7333" lengthAdjust="spacingAndGlyphs"
text-anchor="middle" opacity="0">C</text>
<g class="stroked-text"><desc>C</desc>
<path d="M11.4024 135.4776
L11.3405 135.5395
" />
<path d="M11.3405 135.5395
L11.1548 135.6014
" />
<path d="M11.1548 135.6014
L11.0310 135.6014
" />
<path d="M11.0310 135.6014
L10.8452 135.5395
" />
<path d="M10.8452 135.5395
L10.7214 135.4157
" />
<path d="M10.7214 135.4157
L10.6595 135.2919
" />
<path d="M10.6595 135.2919
L10.5976 135.0443
" />
<path d="M10.5976 135.0443
L10.5976 134.8585
" />
<path d="M10.5976 134.8585
L10.6595 134.6109
" />
<path d="M10.6595 134.6109
L10.7214 134.4871
" />
<path d="M10.7214 134.4871
L10.8452 134.3633
" />
<path d="M10.8452 134.3633
L11.0310 134.3014
" />
<path d="M11.0310 134.3014
L11.1548 134.3014
" />
<path d="M11.1548 134.3014
L11.3405 134.3633
" />
<path d="M11.3405 134.3633
L11.4024 134.4252
" />
</g><text x="11.0000" y="85.6500"
textLength="1.4150" font-size="1.7333" lengthAdjust="spacingAndGlyphs"
text-anchor="middle" opacity="0">B</text>
<g class="stroked-text"><desc>B</desc>
<path d="M11.0929 84.9205
L11.2786 84.9824
" />
<path d="M11.2786 84.9824
L11.3405 85.0443
" />
<path d="M11.3405 85.0443
L11.4024 85.1681
" />
<path d="M11.4024 85.1681
L11.4024 85.3538
" />
<path d="M11.4024 85.3538
L11.3405 85.4776
" />
<path d="M11.3405 85.4776
L11.2786 85.5395
" />
<path d="M11.2786 85.5395
L11.1548 85.6014
" />
<path d="M11.1548 85.6014
L10.6595 85.6014
" />
<path d="M10.6595 85.6014
L10.6595 84.3014
" />
<path d="M10.6595 84.3014
L11.0929 84.3014
" />
<path d="M11.0929 84.3014
L11.2167 84.3633
" />
<path d="M11.2167 84.3633
L11.2786 84.4252
" />
<path d="M11.2786 84.4252
L11.3405 84.5490
" />
<path d="M11.3405 84.5490
L11.3405 84.6728
" />
<path d="M11.3405 84.6728
L11.2786 84.7966
" />
<path d="M11.2786 84.7966
L11.2167 84.8585
" />
<path d="M11.2167 84.8585
L11.0929 84.9205
" />
<path d="M11.0929 84.9205
L10.6595 84.9205
" />
</g><text x="11.0000" y="35.6500"
textLength="1.2293" font-size="1.7333" lengthAdjust="spacingAndGlyphs"
text-anchor="middle" opacity="0">A</text>
<g class="stroked-text"><desc>A</desc>
<path d="M10.6905 35.2300
L11.3095 35.2300
" />
<path d="M10.5667 35.6014
L11.0000 34.3014
" />
<path d="M11.0000 34.3014
L11.4333 35.6014
" />
</g><path d="M10.0000 160.0000
L12.0000 160.0000
" />
<path d="M10.0000 110.0000
L12.0000 110.0000
" />
<path d="M10.0000 60.0000
L12.0000 60.0000
" />
<text x="285.0000" y="199.6500"
textLength="1.3531" font-size="1.7333" lengthAdjust="spacingAndGlyphs"
text-anchor="start" opacity="0">6</text>
<g class="stroked-text"><desc>6</desc>
<path d="M285.8667 198.3014
L285.6190 198.3014
" />
<path d="M285.6190 198.3014
L285.4952 198.3633
" />
<path d="M285.4952 198.3633
L285.4333 198.4252
" />
<path d="M285.4333 198.4252
L285.3095 198.6109
" />
<path d="M285.3095 198.6109
L285.2476 198.8585
" />
<path d="M285.2476 198.8585
L285.2476 199.3538
" />
<path d="M285.2476 199.3538
L285.3095 199.4776
" />
<path d="M285.3095 199.4776
L285.3714 199.5395
" />
<path d="M285.3714 199.5395
L285.4952 199.6014
" />
<path d="M285.4952 199.6014
L285.7429 199.6014
" />
<path d="M285.7429 199.6014
L285.8667 199.5395
" />
<path d="M285.8667 199.5395
L285.9286 199.4776
" />
<path d="M285.9286 199.4776
L285.9905 199.3538
" />
<path d="M285.9905 199.3538
L285.9905 199.0443
" />
<path d="M285.9905 199.0443
L285.9286 198.9205
" />
<path d="M285.9286 198.9205
L285.8667 198.8585
" />
<path d="M285.8667 198.8585
L285.7429 198.7966
" />
<path d="M285.7429 198.7966
L285.4952 198.7966
" />
<path d="M285.4952 198.7966
L285.3714 198.8585
" />
<path d="M285.3714 198.8585
L285.3095 198.9205
" />
<path d="M285.3095 198.9205
L285.2476 199.0443
" />
</g><text x="235.0000" y="199.6500"
textLength="1.3531" font-size="1.7333" lengthAdjust="spacingAndGlyphs"
text-anchor="start" opacity="0">5</text>
<g class="stroked-text"><desc>5</desc>
<path d="M235.9286 198.3014
L235.3095 198.3014
" />
<path d="M235.3095 198.3014
L235.2476 198.9205
" />
<path d="M235.2476 198.9205
L235.3095 198.8585
" />
<path d="M235.3095 198.8585
L235.4333 198.7966
" />
<path d="M235.4333 198.7966
L235.7429 198.7966
" />
<path d="M235.7429 198.7966
L235.8667 198.8585
" />
<path d="M235.8667 198.8585
L235.9286 198.9205
" />
<path d="M235.9286 198.9205
L235.9905 199.0443
" />
<path d="M235.9905 199.0443
L235.9905 199.3538
" />
<path d="M235.9905 199.3538
L235.9286 199.4776
" />
<path d="M235.9286 199.4776
L235.8667 199.5395
" />
<path d="M235.8667 199.5395
L235.7429 199.6014
" />
<path d="M235.7429 199.6014
L235.4333 199.6014
" />
<path d="M235.4333 199.6014
L235.3095 199.5395
" />
<path d="M235.3095 199.5395
L235.2476 199.4776
" />
</g><text x="185.0000" y="199.6500"
textLength="1.3531" font-size="1.7333" lengthAdjust="spacingAndGlyphs"
text-anchor="start" opacity="0">4</text>
<g class="stroked-text"><desc>4</desc>
<path d="M185.8667 198.7347
L185.8667 199.6014
" />
<path d="M185.5571 198.2395
L185.2476 199.1681
" />
<path d="M185.2476 199.1681
L186.0524 199.1681
" />
</g><text x="135.0000" y="199.6500"
textLength="1.3531" font-size="1.7333" lengthAdjust="spacingAndGlyphs"
text-anchor="start" opacity="0">3</text>
<g class="stroked-text"><desc>3</desc>
<path d="M135.1857 198.3014
L135.9905 198.3014
" />
<path d="M135.9905 198.3014
L135.5571 198.7966
" />
<path d="M135.5571 198.7966
L135.7429 198.7966
" />
<path d="M135.7429 198.7966
L135.8667 198.8585
" />
<path d="M135.8667 198.8585
L135.9286 198.9205
" />
<path d="M135.9286 198.9205
L135.9905 199.0443
" />
<path d="M135.9905 199.0443
L135.9905 199.3538
" />
<path d="M135.9905 199.3538
L135.9286 199.4776
" />
<path d="M135.9286 199.4776
L135.8667 199.5395
" />
<path d="M135.8667 199.5395
L135.7429 199.6014
" />
<path d="M135.7429 199.6014
L135.3714 199.6014
" />
<path d="M135.3714 199.6014
L135.2476 199.5395
" />
<path d="M135.2476 199.5395
L135.1857 199.4776
" />
</g><text x="85.0000" y="199.6500"
textLength="1.3531" font-size="1.7333" lengthAdjust="spacingAndGlyphs"
text-anchor="start" opacity="0">2</text>
<g class="stroked-text"><desc>2</desc>
<path d="M85.2476 198.4252
L85.3095 198.3633
" />
<path d="M85.3095 198.3633
L85.4333 198.3014
" />
<path d="M85.4333 198.3014
L85.7429 198.3014
" />
<path d="M85.7429 198.3014
L85.8667 198.3633
" />
<path d="M85.8667 198.3633
L85.9286 198.4252
" />
<path d="M85.9286 198.4252
L85.9905 198.5490
" />
<path d="M85.9905 198.5490
L85.9905 198.6728
" />
<path d="M85.9905 198.6728
L85.9286 198.8585
" />
<path d="M85.9286 198.8585
L85.1857 199.6014
" />
<path d="M85.1857 199.6014
L85.9905 199.6014
" />
</g><text x="35.0000" y="199.6500"
textLength="1.3531" font-size="1.7333" lengthAdjust="spacingAndGlyphs"
text-anchor="start" opacity="0">1</text>
<g class="stroked-text"><desc>1</desc>
<path d="M35.9905 199.6014
L35.2476 199.6014
" />
<path d="M35.6190 199.6014
L35.6190 198.3014
" />
<path d="M35.6190 198.3014
L35.4952 198.4871
" />
<path d="M35.4952 198.4871
L35.3714 198.6109
" />
<path d="M35.3714 198.6109
L35.2476 198.6728
" />
</g><path d="M260.0000 198.0000
L260.0000 200.0000
" />
<path d="M210.0000 198.0000
L210.0000 200.0000
" />
<path d="M160.0000 198.0000
L160.0000 200.0000
" />
<path d="M110.0000 198.0000
L110.0000 200.0000
" />
<path d="M60.0000 198.0000
L60.0000 200.0000
" />
<text x="285.0000" y="11.6500"
textLength="1.3531" font-size="1.7333" lengthAdjust="spacingAndGlyphs"
text-anchor="start" opacity="0">6</text>
<g class="stroked-text"><desc>6</desc>
<path d="M285.8667 10.3014
L285.6190 10.3014
" />
<path d="M285.6190 10.3014
L285.4952 10.3633
" />
<path d="M285.4952 10.3633
L285.4333 10.4252
" />
<path d="M285.4333 10.4252
L285.3095 10.6109
" />
<path d="M285.3095 10.6109
L285.2476 10.8585
" />
<path d="M285.2476 10.8585
L285.2476 11.3538
" />
<path d="M285.2476 11.3538
L285.3095 11.4776
" />
<path d="M285.3095 11.4776
L285.3714 11.5395
" />
<path d="M285.3714 11.5395
L285.4952 11.6014
" />
<path d="M285.4952 11.6014
L285.7429 11.6014
" />
<path d="M285.7429 11.6014
L285.8667 11.5395
" />
<path d="M285.8667 11.5395
L285.9286 11.4776
" />
<path d="M285.9286 11.4776
L285.9905 11.3538
" />
<path d="M285.9905 11.3538
L285.9905 11.0443
" />
<path d="M285.9905 11.0443
L285.9286 10.9205
" />
<path d="M285.9286 10.9205
L285.8667 10.8585
" />
<path d="M285.8667 10.8585
L285.7429 10.7966
" />
<path d="M285.7429 10.7966
L285.4952 10.7966
" />
<path d="M285.4952 10.7966
L285.3714 10.8585
" />
<path d="M285.3714 10.8585
L285.3095 10.9205
" />
<path d="M285.3095 10.9205
L285.2476 11.0443
" />
</g><text x="235.0000" y="11.6500"
textLength="1.3531" font-size="1.7333" lengthAdjust="spacingAndGlyphs"
text-anchor="start" opacity="0">5</text>
<g class="stroked-text"><desc>5</desc>
<path d="M235.9286 10.3014
L235.3095 10.3014
" />
<path d="M235.3095 10.3014
L235.2476 10.9205
" />
<path d="M235.2476 10.9205
L235.3095 10.8585
" />
<path d="M235.3095 10.8585
L235.4333 10.7966
" />
<path d="M235.4333 10.7966
L235.7429 10.7966
" />
<path d="M235.7429 10.7966
L235.8667 10.8585
" />
<path d="M235.8667 10.8585
L235.9286 10.9205
" />
<path d="M235.9286 10.9205
L235.9905 11.0443
" />
<path d="M235.9905 11.0443
L235.9905 11.3538
" />
<path d="M235.9905 11.3538
L235.9286 11.4776
" />
<path d="M235.9286 11.4776
L235.8667 11.5395
" />
<path d="M235.8667 11.5395
L235.7429 11.6014
" />
<path d="M235.7429 11.6014
L235.4333 11.6014
" />
<path d="M235.4333 11.6014
L235.3095 11.5395
" />
<path d="M235.3095 11.5395
L235.2476 11.4776
" />
</g><text x="185.0000" y="11.6500"
textLength="1.3531" font-size="1.7333" lengthAdjust="spacingAndGlyphs"
text-anchor="start" opacity="0">4</text>
<g class="stroked-text"><desc>4</desc>
<path d="M185.8667 10.7347
L185.8667 11.6014
" />
<path d="M185.5571 10.2395
L185.2476 11.1681
" />
<path d="M185.2476 11.1681
L186.0524 11.1681
" />
</g><text x="135.0000" y="11.6500"
textLength="1.3531" font-size="1.7333" lengthAdjust="spacingAndGlyphs"
text-anchor="start" opacity="0">3</text>
<g class="stroked-text"><desc>3</desc>
<path d="M135.1857 10.3014
L135.9905 10.3014
" />
<path d="M135.9905 10.3014
L135.5571 10.7966
" />
<path d="M135.5571 10.7966
L135.7429 10.7966
" />
<path d="M135.7429 10.7966
L135.8667 10.8585
" />
<path d="M135.8667 10.8585
L135.9286 10.9205
" />
<path d="M135.9286 10.9205
L135.9905 11.0443
" />
<path d="M135.9905 11.0443
L135.9905 11.3538
" />
<path d="M135.9905 11.3538
L135.9286 11.4776
" />
<path d="M135.9286 11.4776
L135.8667 11.5395
" />
<path d="M135.8667 11.5395
L135.7429 11.6014
" />
<path d="M135.7429 11.6014
L135.3714 11.6014
" />
<path d="M135.3714 11.6014
L135.2476 11.5395
" />
<path d="M135.2476 11.5395
L135.1857 11.4776
" />
</g><text x="85.0000" y="11.6500"
textLength="1.3531" font-size="1.7333" lengthAdjust="spacingAndGlyphs"
text-anchor="start" opacity="0">2</text>
<g class="stroked-text"><desc>2</desc>
<path d="M85.2476 10.4252
L85.3095 10.3633
" />
<path d="M85.3095 10.3633
L85.4333 10.3014
" />
<path d="M85.4333 10.3014
L85.7429 10.3014
" />
<path d="M85.7429 10.3014
L85.8667 10.3633
" />
<path d="M85.8667 10.3633
L85.9286 10.4252
" />
<path d="M85.9286 10.4252
L85.9905 10.5490
" />
<path d="M85.9905 10.5490
L85.9905 10.6728
" />
<path d="M85.9905 10.6728
L85.9286 10.8585
" />
<path d="M85.9286 10.8585
L85.1857 11.6014
" />
<path d="M85.1857 11.6014
L85.9905 11.6014
" />
</g><text x="35.0000" y="11.6500"
textLength="1.3531" font-size="1.7333" lengthAdjust="spacingAndGlyphs"
text-anchor="start" opacity="0">1</text>
<g class="stroked-text"><desc>1</desc>
<path d="M35.9905 11.6014
L35.2476 11.6014
" />
<path d="M35.6190 11.6014
L35.6190 10.3014
" />
<path d="M35.6190 10.3014
L35.4952 10.4871
" />
<path d="M35.4952 10.4871
L35.3714 10.6109
" />
<path d="M35.3714 10.6109
L35.2476 10.6728
" />
</g><path d="M260.0000 12.0000
L260.0000 10.0000
" />
<path d="M210.0000 12.0000
L210.0000 10.0000
" />
<path d="M160.0000 12.0000
L160.0000 10.0000
" />
<path d="M110.0000 12.0000
L110.0000 10.0000
" />
<path d="M60.0000 12.0000
L60.0000 10.0000
" />
<path style="fill:#000000; fill-opacity:0.0; 
stroke:#000000; stroke-width:0.1500; stroke-opacity:1; 
stroke-linecap:round; stroke-linejoin:round;fill:none"
d="M 12.0000,12.0000
285.0000,12.0000
285.0000,198.0000
12.0000,198.0000
Z" /> 
<path style="fill:#000000; fill-opacity:0.0; 
stroke:#000000; stroke-width:0.1500; stroke-opacity:1; 
stroke-linecap:round; stroke-linejoin:round;fill:none"
d="M 10.0000,10.0000
287.0000,10.0000
287.0000,200.0000
10.0000,200.0000
Z" /> 
<path style="fill:#000000; fill-opacity:0.0; 
stroke:#000000; stroke-width:0.1500; stroke-opacity:1; 
stroke-linecap:round; stroke-linejoin:round;fill:none"
d="M 177.0000,166.0000
285.0000,166.0000
285.0000,198.0000
177.0000,198.0000
Z" /> 
<g >
</g>
<g >
</g>
<g >
</g>
<g >
</g>
<g >
</g>
<g >
</g>
<g >
</g>
<g >
</g>
<g >
</g>
<g >
</g>
<g >
</g>
<g >
</g>
<g >
</g>
<g >
</g>
<g >
</g>
<g >
</g>
<g >
</g>
<g >
</g>
<g >
</g>
</g> 
</svg>
