<?xml version="1.0" standalone="no"?>
 <!DOCTYPE svg PUBLIC "-//W3C//DTD SVG 1.1//EN" 
 "http://www.w3.org/Graphics/SVG/1.1/DTD/svg11.dtd"> 
<svg
  xmlns:svg="http://www.w3.org/2000/svg"
  xmlns="http://www.w3.org/2000/svg"
  xmlns:xlink="http://www.w3.org/1999/xlink"
  version="1.1"
  width="297.0022mm" height="210.0072mm" viewBox="0.0000 0.0000 297.0022 210.0072">
<title>SVG Image created as pedalboard-led-ring-F_Silkscreen.svg date 2023/05/22 19:38:55 </title>
  <desc>Image generated by PCBNEW </desc>
<g style="fill:#000000; fill-opacity:1.0000;stroke:#000000; stroke-opacity:1.0000;
stroke-linecap:round; stroke-linejoin:round;"
 transform="translate(0 0) scale(1 1)">
</g>
<g style="fill:#000000; fill-opacity:0.0; 
stroke:#000000; stroke-width:0.0000; stroke-opacity:1; 
stroke-linecap:round; stroke-linejoin:round;">
</g>
<g style="fill:#000000; fill-opacity:0.0; 
stroke:#000000; stroke-width:0.0500; stroke-opacity:1; 
stroke-linecap:round; stroke-linejoin:round;">
<g transform="rotate(60.000000 89.9428 57.6535)">
<text x="89.9428" y="57.9035"
textLength="1.0012" font-size="0.6667" lengthAdjust="spacingAndGlyphs"
text-anchor="middle" opacity="0">D6</text>
</g>
<g class="stroked-text"><desc>D6</desc>
<path d="M89.5580 57.4495
L89.9910 57.1995
" />
<path d="M89.9910 57.1995
L90.0505 57.3026
" />
<path d="M90.0505 57.3026
L90.0656 57.3764
" />
<path d="M90.0656 57.3764
L90.0482 57.4414
" />
<path d="M90.0482 57.4414
L90.0188 57.4859
" />
<path d="M90.0188 57.4859
L89.9483 57.5541
" />
<path d="M89.9483 57.5541
L89.8864 57.5898
" />
<path d="M89.8864 57.5898
L89.7920 57.6168
" />
<path d="M89.7920 57.6168
L89.7389 57.6200
" />
<path d="M89.7389 57.6200
L89.6738 57.6026
" />
<path d="M89.6738 57.6026
L89.6175 57.5526
" />
<path d="M89.6175 57.5526
L89.5580 57.4495
" />
<path d="M90.3481 57.8181
L90.3005 57.7356
" />
<path d="M90.3005 57.7356
L90.2561 57.7063
" />
<path d="M90.2561 57.7063
L90.2236 57.6976
" />
<path d="M90.2236 57.6976
L90.1379 57.6920
" />
<path d="M90.1379 57.6920
L90.0435 57.7190
" />
<path d="M90.0435 57.7190
L89.8785 57.8143
" />
<path d="M89.8785 57.8143
L89.8492 57.8587
" />
<path d="M89.8492 57.8587
L89.8405 57.8912
" />
<path d="M89.8405 57.8912
L89.8437 57.9444
" />
<path d="M89.8437 57.9444
L89.8913 58.0269
" />
<path d="M89.8913 58.0269
L89.9357 58.0562
" />
<path d="M89.9357 58.0562
L89.9683 58.0649
" />
<path d="M89.9683 58.0649
L90.0214 58.0617
" />
<path d="M90.0214 58.0617
L90.1245 58.0022
" />
<path d="M90.1245 58.0022
L90.1538 57.9578
" />
<path d="M90.1538 57.9578
L90.1626 57.9252
" />
<path d="M90.1626 57.9252
L90.1594 57.8721
" />
<path d="M90.1594 57.8721
L90.1117 57.7896
" />
<path d="M90.1117 57.7896
L90.0673 57.7603
" />
<path d="M90.0673 57.7603
L90.0348 57.7516
" />
<path d="M90.0348 57.7516
L89.9816 57.7548
" />
</g><text x="77.6000" y="70.0500"
textLength="1.0012" font-size="0.6667" lengthAdjust="spacingAndGlyphs"
text-anchor="middle" opacity="0">D2</text>
<g class="stroked-text"><desc>D2</desc>
<path d="M77.2310 70.0313
L77.2310 69.5313
" />
<path d="M77.2310 69.5313
L77.3500 69.5313
" />
<path d="M77.3500 69.5313
L77.4214 69.5551
" />
<path d="M77.4214 69.5551
L77.4690 69.6027
" />
<path d="M77.4690 69.6027
L77.4929 69.6504
" />
<path d="M77.4929 69.6504
L77.5167 69.7456
" />
<path d="M77.5167 69.7456
L77.5167 69.8170
" />
<path d="M77.5167 69.8170
L77.4929 69.9123
" />
<path d="M77.4929 69.9123
L77.4690 69.9599
" />
<path d="M77.4690 69.9599
L77.4214 70.0075
" />
<path d="M77.4214 70.0075
L77.3500 70.0313
" />
<path d="M77.3500 70.0313
L77.2310 70.0313
" />
<path d="M77.7071 69.5789
L77.7310 69.5551
" />
<path d="M77.7310 69.5551
L77.7786 69.5313
" />
<path d="M77.7786 69.5313
L77.8976 69.5313
" />
<path d="M77.8976 69.5313
L77.9452 69.5551
" />
<path d="M77.9452 69.5551
L77.9690 69.5789
" />
<path d="M77.9690 69.5789
L77.9929 69.6265
" />
<path d="M77.9929 69.6265
L77.9929 69.6742
" />
<path d="M77.9929 69.6742
L77.9690 69.7456
" />
<path d="M77.9690 69.7456
L77.6833 70.0313
" />
<path d="M77.6833 70.0313
L77.9929 70.0313
" />
</g><text x="82.2100" y="50.5650"
textLength="1.0012" font-size="0.6667" lengthAdjust="spacingAndGlyphs"
text-anchor="middle" opacity="0">D5</text>
<g class="stroked-text"><desc>D5</desc>
<path d="M81.8410 50.5463
L81.8410 50.0463
" />
<path d="M81.8410 50.0463
L81.9600 50.0463
" />
<path d="M81.9600 50.0463
L82.0314 50.0701
" />
<path d="M82.0314 50.0701
L82.0790 50.1177
" />
<path d="M82.0790 50.1177
L82.1029 50.1654
" />
<path d="M82.1029 50.1654
L82.1267 50.2606
" />
<path d="M82.1267 50.2606
L82.1267 50.3320
" />
<path d="M82.1267 50.3320
L82.1029 50.4273
" />
<path d="M82.1029 50.4273
L82.0790 50.4749
" />
<path d="M82.0790 50.4749
L82.0314 50.5225
" />
<path d="M82.0314 50.5225
L81.9600 50.5463
" />
<path d="M81.9600 50.5463
L81.8410 50.5463
" />
<path d="M82.5790 50.0463
L82.3410 50.0463
" />
<path d="M82.3410 50.0463
L82.3171 50.2844
" />
<path d="M82.3171 50.2844
L82.3410 50.2606
" />
<path d="M82.3410 50.2606
L82.3886 50.2368
" />
<path d="M82.3886 50.2368
L82.5076 50.2368
" />
<path d="M82.5076 50.2368
L82.5552 50.2606
" />
<path d="M82.5552 50.2606
L82.5790 50.2844
" />
<path d="M82.5790 50.2844
L82.6029 50.3320
" />
<path d="M82.6029 50.3320
L82.6029 50.4511
" />
<path d="M82.6029 50.4511
L82.5790 50.4987
" />
<path d="M82.5790 50.4987
L82.5552 50.5225
" />
<path d="M82.5552 50.5225
L82.5076 50.5463
" />
<path d="M82.5076 50.5463
L82.3886 50.5463
" />
<path d="M82.3886 50.5463
L82.3410 50.5225
" />
<path d="M82.3410 50.5225
L82.3171 50.4987
" />
</g><g transform="rotate(60.000000 70.0572 62.3465)">
<text x="70.0572" y="62.5965"
textLength="1.0012" font-size="0.6667" lengthAdjust="spacingAndGlyphs"
text-anchor="middle" opacity="0">D3</text>
</g>
<g class="stroked-text"><desc>D3</desc>
<path d="M69.6723 62.1426
L70.1053 61.8926
" />
<path d="M70.1053 61.8926
L70.1649 61.9957
" />
<path d="M70.1649 61.9957
L70.1800 62.0695
" />
<path d="M70.1800 62.0695
L70.1625 62.1345
" />
<path d="M70.1625 62.1345
L70.1332 62.1789
" />
<path d="M70.1332 62.1789
L70.0626 62.2472
" />
<path d="M70.0626 62.2472
L70.0008 62.2829
" />
<path d="M70.0008 62.2829
L69.9064 62.3099
" />
<path d="M69.9064 62.3099
L69.8532 62.3131
" />
<path d="M69.8532 62.3131
L69.7882 62.2956
" />
<path d="M69.7882 62.2956
L69.7319 62.2457
" />
<path d="M69.7319 62.2457
L69.6723 62.1426
" />
<path d="M70.3315 62.2844
L70.4863 62.5524
" />
<path d="M70.4863 62.5524
L70.2380 62.5033
" />
<path d="M70.2380 62.5033
L70.2737 62.5652
" />
<path d="M70.2737 62.5652
L70.2769 62.6183
" />
<path d="M70.2769 62.6183
L70.2682 62.6508
" />
<path d="M70.2682 62.6508
L70.2389 62.6953
" />
<path d="M70.2389 62.6953
L70.1358 62.7548
" />
<path d="M70.1358 62.7548
L70.0826 62.7580
" />
<path d="M70.0826 62.7580
L70.0501 62.7493
" />
<path d="M70.0501 62.7493
L70.0057 62.7199
" />
<path d="M70.0057 62.7199
L69.9342 62.5962
" />
<path d="M69.9342 62.5962
L69.9311 62.5431
" />
<path d="M69.9311 62.5431
L69.9398 62.5106
" />
</g><g transform="rotate(-60.000000 72.4572 53.4965)">
<text x="72.4572" y="53.7465"
textLength="1.0012" font-size="0.6667" lengthAdjust="spacingAndGlyphs"
text-anchor="middle" opacity="0">D4</text>
</g>
<g class="stroked-text"><desc>D4</desc>
<path d="M72.4730 53.9318
L72.0400 53.6818
" />
<path d="M72.0400 53.6818
L72.0995 53.5787
" />
<path d="M72.0995 53.5787
L72.1558 53.5287
" />
<path d="M72.1558 53.5287
L72.2209 53.5113
" />
<path d="M72.2209 53.5113
L72.2740 53.5145
" />
<path d="M72.2740 53.5145
L72.3684 53.5415
" />
<path d="M72.3684 53.5415
L72.4303 53.5772
" />
<path d="M72.4303 53.5772
L72.5008 53.6455
" />
<path d="M72.5008 53.6455
L72.5302 53.6899
" />
<path d="M72.5302 53.6899
L72.5476 53.7549
" />
<path d="M72.5476 53.7549
L72.5325 53.8287
" />
<path d="M72.5325 53.8287
L72.4730 53.9318
" />
<path d="M72.5414 53.1465
L72.8301 53.3132
" />
<path d="M72.3170 53.1544
L72.5667 53.4361
" />
<path d="M72.5667 53.4361
L72.7215 53.1680
" />
</g><g transform="rotate(-60.000000 87.5428 66.5035)">
<text x="87.5428" y="66.7535"
textLength="1.0012" font-size="0.6667" lengthAdjust="spacingAndGlyphs"
text-anchor="middle" opacity="0">D1</text>
</g>
<g class="stroked-text"><desc>D1</desc>
<path d="M87.5586 66.9387
L87.1256 66.6887
" />
<path d="M87.1256 66.6887
L87.1851 66.5856
" />
<path d="M87.1851 66.5856
L87.2415 66.5357
" />
<path d="M87.2415 66.5357
L87.3065 66.5182
" />
<path d="M87.3065 66.5182
L87.3597 66.5214
" />
<path d="M87.3597 66.5214
L87.4540 66.5484
" />
<path d="M87.4540 66.5484
L87.5159 66.5841
" />
<path d="M87.5159 66.5841
L87.5865 66.6524
" />
<path d="M87.5865 66.6524
L87.6158 66.6968
" />
<path d="M87.6158 66.6968
L87.6332 66.7619
" />
<path d="M87.6332 66.7619
L87.6181 66.8356
" />
<path d="M87.6181 66.8356
L87.5586 66.9387
" />
<path d="M87.9396 66.2789
L87.7967 66.5263
" />
<path d="M87.8681 66.4026
L87.4351 66.1526
" />
<path d="M87.4351 66.1526
L87.4732 66.2296
" />
<path d="M87.4732 66.2296
L87.4906 66.2946
" />
<path d="M87.4906 66.2946
L87.4874 66.3478
" />
</g></g>
<g style="fill:#000000; fill-opacity:0.0; 
stroke:#000000; stroke-width:0.1200; stroke-opacity:1; 
stroke-linecap:round; stroke-linejoin:round;">
<path d="M86.4474 55.3992
L88.3526 54.2992
" />
<path d="M88.0072 57.5008
L89.3928 56.7008
" />
<path d="M81.3000 67.9000
L81.3000 70.1000
" />
<path d="M78.7000 68.2000
L78.7000 69.8000
" />
<path d="M78.7000 52.1000
L78.7000 49.9000
" />
<path d="M81.3000 51.8000
L81.3000 50.2000
" />
<path d="M73.5526 64.6008
L71.6474 65.7008
" />
<path d="M71.9928 62.4992
L70.6072 63.2992
" />
<path d="M72.2526 57.6508
L70.3474 56.5508
" />
<path d="M73.2928 55.2492
L71.9072 54.4492
" />
<path d="M87.7474 62.3492
L89.6526 63.4492
" />
<path d="M86.7072 64.7508
L88.0928 65.5508
" />
<g >
</g>
<g >
</g>
<g >
</g>
<g >
</g>
<g >
</g>
<g >
</g>
<g >
</g>
<g >
</g>
<g >
</g>
<g >
</g>
<g >
</g>
<g >
</g>
<g >
</g>
<g >
</g>
</g> 
</svg>
