<?xml version="1.0" standalone="no"?>
 <!DOCTYPE svg PUBLIC "-//W3C//DTD SVG 1.1//EN" 
 "http://www.w3.org/Graphics/SVG/1.1/DTD/svg11.dtd"> 
<svg
  xmlns:svg="http://www.w3.org/2000/svg"
  xmlns="http://www.w3.org/2000/svg"
  xmlns:xlink="http://www.w3.org/1999/xlink"
  version="1.1"
  width="297.0022mm" height="210.0072mm" viewBox="0.0000 0.0000 297.0022 210.0072">
<title>SVG Image created as pedalboard-led-ring-F_Silkscreen.svg date 2023/10/20 09:27:39 </title>
  <desc>Image generated by PCBNEW </desc>
<g style="fill:#000000; fill-opacity:1.0000;stroke:#000000; stroke-opacity:1.0000;
stroke-linecap:round; stroke-linejoin:round;"
 transform="translate(0 0) scale(1 1)">
</g>
<g style="fill:#000000; fill-opacity:0.0; 
stroke:#000000; stroke-width:0.0000; stroke-opacity:1; 
stroke-linecap:round; stroke-linejoin:round;">
</g>
<g style="fill:#000000; fill-opacity:0.0; 
stroke:#000000; stroke-width:0.1000; stroke-opacity:1; 
stroke-linecap:round; stroke-linejoin:round;">
<g transform="rotate(60.000000 83.3500 68.5585)">
<text x="83.3500" y="68.8085"
textLength="1.6524" font-size="0.6667" lengthAdjust="spacingAndGlyphs"
text-anchor="middle" opacity="0">D11</text>
</g>
<g class="stroked-text"><desc>D11</desc>
<path d="M82.8506 68.1457
L83.2836 67.8957
" />
<path d="M83.2836 67.8957
L83.3431 67.9988
" />
<path d="M83.3431 67.9988
L83.3582 68.0726
" />
<path d="M83.3582 68.0726
L83.3408 68.1376
" />
<path d="M83.3408 68.1376
L83.3115 68.1821
" />
<path d="M83.3115 68.1821
L83.2409 68.2503
" />
<path d="M83.2409 68.2503
L83.1790 68.2860
" />
<path d="M83.1790 68.2860
L83.0847 68.3130
" />
<path d="M83.0847 68.3130
L83.0315 68.3162
" />
<path d="M83.0315 68.3162
L82.9665 68.2988
" />
<path d="M82.9665 68.2988
L82.9101 68.2488
" />
<path d="M82.9101 68.2488
L82.8506 68.1457
" />
<path d="M83.2316 68.8055
L83.0887 68.5581
" />
<path d="M83.1601 68.6818
L83.5931 68.4318
" />
<path d="M83.5931 68.4318
L83.5075 68.4263
" />
<path d="M83.5075 68.4263
L83.4424 68.4089
" />
<path d="M83.4424 68.4089
L83.3980 68.3795
" />
<path d="M83.4697 69.2179
L83.3268 68.9705
" />
<path d="M83.3982 69.0942
L83.8312 68.8442
" />
<path d="M83.8312 68.8442
L83.7456 68.8387
" />
<path d="M83.7456 68.8387
L83.6805 68.8213
" />
<path d="M83.6805 68.8213
L83.6361 68.7919
" />
</g></g>
<g style="fill:#000000; fill-opacity:0.0; 
stroke:#000000; stroke-width:0.0750; stroke-opacity:1; 
stroke-linecap:round; stroke-linejoin:round;">
<g transform="rotate(60.000000 84.5728 68.8203)">
<text x="84.5728" y="68.9703"
textLength="0.4507" font-size="0.4000" lengthAdjust="spacingAndGlyphs"
text-anchor="middle" opacity="0">1</text>
</g>
<g class="stroked-text"><desc>1</desc>
<path d="M84.4988 68.9620
L84.4131 68.8135
" />
<path d="M84.4560 68.8877
L84.7158 68.7377
" />
<path d="M84.7158 68.7377
L84.6644 68.7344
" />
<path d="M84.6644 68.7344
L84.6254 68.7240
" />
<path d="M84.6254 68.7240
L84.5987 68.7064
" />
</g></g>
<g style="fill:#000000; fill-opacity:0.0; 
stroke:#000000; stroke-width:0.1000; stroke-opacity:1; 
stroke-linecap:round; stroke-linejoin:round;">
<text x="87.5800" y="60.3900"
textLength="1.1762" font-size="0.6667" lengthAdjust="spacingAndGlyphs"
text-anchor="middle" opacity="0">D1</text>
<g class="stroked-text"><desc>D1</desc>
<path d="M87.2110 60.3661
L87.2110 59.8661
" />
<path d="M87.2110 59.8661
L87.3300 59.8661
" />
<path d="M87.3300 59.8661
L87.4014 59.8899
" />
<path d="M87.4014 59.8899
L87.4490 59.9375
" />
<path d="M87.4490 59.9375
L87.4729 59.9852
" />
<path d="M87.4729 59.9852
L87.4967 60.0804
" />
<path d="M87.4967 60.0804
L87.4967 60.1518
" />
<path d="M87.4967 60.1518
L87.4729 60.2471
" />
<path d="M87.4729 60.2471
L87.4490 60.2947
" />
<path d="M87.4490 60.2947
L87.4014 60.3423
" />
<path d="M87.4014 60.3423
L87.3300 60.3661
" />
<path d="M87.3300 60.3661
L87.2110 60.3661
" />
<path d="M87.9729 60.3661
L87.6871 60.3661
" />
<path d="M87.8300 60.3661
L87.8300 59.8661
" />
<path d="M87.8300 59.8661
L87.7824 59.9375
" />
<path d="M87.7824 59.9375
L87.7348 59.9852
" />
<path d="M87.7348 59.9852
L87.6871 60.0090
" />
</g></g>
<g style="fill:#000000; fill-opacity:0.0; 
stroke:#000000; stroke-width:0.0750; stroke-opacity:1; 
stroke-linecap:round; stroke-linejoin:round;">
<text x="89.9250" y="60.6000"
textLength="0.4507" font-size="0.4000" lengthAdjust="spacingAndGlyphs"
text-anchor="middle" opacity="0">1</text>
<g class="stroked-text"><desc>1</desc>
<path d="M90.0107 60.5849
L89.8393 60.5849
" />
<path d="M89.9250 60.5849
L89.9250 60.2849
" />
<path d="M89.9250 60.2849
L89.8964 60.3277
" />
<path d="M89.8964 60.3277
L89.8679 60.3563
" />
<path d="M89.8679 60.3563
L89.8393 60.3706
" />
</g></g>
<g style="fill:#000000; fill-opacity:0.0; 
stroke:#000000; stroke-width:0.1000; stroke-opacity:1; 
stroke-linecap:round; stroke-linejoin:round;">
<g transform="rotate(-90.000000 81.4000 51.0000)">
<text x="81.4000" y="51.2500"
textLength="1.1762" font-size="0.6667" lengthAdjust="spacingAndGlyphs"
text-anchor="middle" opacity="0">D4</text>
</g>
<g class="stroked-text"><desc>D4</desc>
<path d="M81.6261 51.3690
L81.1261 51.3690
" />
<path d="M81.1261 51.3690
L81.1261 51.2500
" />
<path d="M81.1261 51.2500
L81.1499 51.1786
" />
<path d="M81.1499 51.1786
L81.1975 51.1310
" />
<path d="M81.1975 51.1310
L81.2452 51.1071
" />
<path d="M81.2452 51.1071
L81.3404 51.0833
" />
<path d="M81.3404 51.0833
L81.4118 51.0833
" />
<path d="M81.4118 51.0833
L81.5071 51.1071
" />
<path d="M81.5071 51.1071
L81.5547 51.1310
" />
<path d="M81.5547 51.1310
L81.6023 51.1786
" />
<path d="M81.6023 51.1786
L81.6261 51.2500
" />
<path d="M81.6261 51.2500
L81.6261 51.3690
" />
<path d="M81.2928 50.6548
L81.6261 50.6548
" />
<path d="M81.1023 50.7738
L81.4594 50.8929
" />
<path d="M81.4594 50.8929
L81.4594 50.5833
" />
</g></g>
<g style="fill:#000000; fill-opacity:0.0; 
stroke:#000000; stroke-width:0.0750; stroke-opacity:1; 
stroke-linecap:round; stroke-linejoin:round;">
<g transform="rotate(-90.000000 80.4500 50.0750)">
<text x="80.4500" y="50.2250"
textLength="0.4507" font-size="0.4000" lengthAdjust="spacingAndGlyphs"
text-anchor="middle" opacity="0">1</text>
</g>
<g class="stroked-text"><desc>1</desc>
<path d="M80.5849 49.9893
L80.5849 50.1607
" />
<path d="M80.5849 50.0750
L80.2849 50.0750
" />
<path d="M80.2849 50.0750
L80.3277 50.1036
" />
<path d="M80.3277 50.1036
L80.3563 50.1321
" />
<path d="M80.3563 50.1321
L80.3706 50.1607
" />
</g></g>
<g style="fill:#000000; fill-opacity:0.0; 
stroke:#000000; stroke-width:0.1000; stroke-opacity:1; 
stroke-linecap:round; stroke-linejoin:round;">
<g transform="rotate(30.000000 87.0942 65.7124)">
<text x="87.0942" y="65.9624"
textLength="1.6524" font-size="0.6667" lengthAdjust="spacingAndGlyphs"
text-anchor="middle" opacity="0">D12</text>
</g>
<g class="stroked-text"><desc>D12</desc>
<path d="M86.4554 65.6047
L86.7054 65.1717
" />
<path d="M86.7054 65.1717
L86.8085 65.2312
" />
<path d="M86.8085 65.2312
L86.8584 65.2875
" />
<path d="M86.8584 65.2875
L86.8759 65.3526
" />
<path d="M86.8759 65.3526
L86.8727 65.4057
" />
<path d="M86.8727 65.4057
L86.8457 65.5001
" />
<path d="M86.8457 65.5001
L86.8100 65.5620
" />
<path d="M86.8100 65.5620
L86.7417 65.6325
" />
<path d="M86.7417 65.6325
L86.6973 65.6619
" />
<path d="M86.6973 65.6619
L86.6322 65.6793
" />
<path d="M86.6322 65.6793
L86.5585 65.6642
" />
<path d="M86.5585 65.6642
L86.4554 65.6047
" />
<path d="M87.1152 65.9856
L86.8678 65.8428
" />
<path d="M86.9915 65.9142
L87.2415 65.4812
" />
<path d="M87.2415 65.4812
L87.1645 65.5192
" />
<path d="M87.1645 65.5192
L87.0995 65.5367
" />
<path d="M87.0995 65.5367
L87.0463 65.5335
" />
<path d="M87.5063 65.6891
L87.5389 65.6804
" />
<path d="M87.5389 65.6804
L87.5920 65.6836
" />
<path d="M87.5920 65.6836
L87.6951 65.7431
" />
<path d="M87.6951 65.7431
L87.7244 65.7875
" />
<path d="M87.7244 65.7875
L87.7332 65.8200
" />
<path d="M87.7332 65.8200
L87.7300 65.8732
" />
<path d="M87.7300 65.8732
L87.7062 65.9144
" />
<path d="M87.7062 65.9144
L87.6498 65.9644
" />
<path d="M87.6498 65.9644
L87.2595 66.0690
" />
<path d="M87.2595 66.0690
L87.5276 66.2237
" />
</g></g>
<g style="fill:#000000; fill-opacity:0.0; 
stroke:#000000; stroke-width:0.0750; stroke-opacity:1; 
stroke-linecap:round; stroke-linejoin:round;">
<g transform="rotate(30.000000 88.3703 65.3522)">
<text x="88.3703" y="65.5022"
textLength="0.4507" font-size="0.4000" lengthAdjust="spacingAndGlyphs"
text-anchor="middle" opacity="0">1</text>
</g>
<g class="stroked-text"><desc>1</desc>
<path d="M88.3771 65.5119
L88.2286 65.4262
" />
<path d="M88.3029 65.4690
L88.4529 65.2092
" />
<path d="M88.4529 65.2092
L88.4067 65.2320
" />
<path d="M88.4067 65.2320
L88.3677 65.2425
" />
<path d="M88.3677 65.2425
L88.3358 65.2406
" />
</g></g>
<g style="fill:#000000; fill-opacity:0.0; 
stroke:#000000; stroke-width:0.1000; stroke-opacity:1; 
stroke-linecap:round; stroke-linejoin:round;">
<g transform="rotate(-30.000000 71.5058 63.2876)">
<text x="71.5058" y="63.5376"
textLength="1.1762" font-size="0.6667" lengthAdjust="spacingAndGlyphs"
text-anchor="middle" opacity="0">D8</text>
</g>
<g class="stroked-text"><desc>D8</desc>
<path d="M71.2992 63.6679
L71.0492 63.2349
" />
<path d="M71.0492 63.2349
L71.1523 63.1754
" />
<path d="M71.1523 63.1754
L71.2261 63.1603
" />
<path d="M71.2261 63.1603
L71.2911 63.1777
" />
<path d="M71.2911 63.1777
L71.3356 63.2070
" />
<path d="M71.3356 63.2070
L71.4038 63.2776
" />
<path d="M71.4038 63.2776
L71.4395 63.3395
" />
<path d="M71.4395 63.3395
L71.4665 63.4339
" />
<path d="M71.4665 63.4339
L71.4697 63.4870
" />
<path d="M71.4697 63.4870
L71.4523 63.5520
" />
<path d="M71.4523 63.5520
L71.4023 63.6084
" />
<path d="M71.4023 63.6084
L71.2992 63.6679
" />
<path d="M71.6512 63.1348
L71.5981 63.1379
" />
<path d="M71.5981 63.1379
L71.5656 63.1292
" />
<path d="M71.5656 63.1292
L71.5211 63.0999
" />
<path d="M71.5211 63.0999
L71.5092 63.0793
" />
<path d="M71.5092 63.0793
L71.5060 63.0261
" />
<path d="M71.5060 63.0261
L71.5148 62.9936
" />
<path d="M71.5148 62.9936
L71.5441 62.9492
" />
<path d="M71.5441 62.9492
L71.6266 62.9016
" />
<path d="M71.6266 62.9016
L71.6797 62.8984
" />
<path d="M71.6797 62.8984
L71.7122 62.9071
" />
<path d="M71.7122 62.9071
L71.7567 62.9364
" />
<path d="M71.7567 62.9364
L71.7686 62.9570
" />
<path d="M71.7686 62.9570
L71.7718 63.0102
" />
<path d="M71.7718 63.0102
L71.7630 63.0427
" />
<path d="M71.7630 63.0427
L71.7337 63.0871
" />
<path d="M71.7337 63.0871
L71.6512 63.1348
" />
<path d="M71.6512 63.1348
L71.6219 63.1792
" />
<path d="M71.6219 63.1792
L71.6132 63.2117
" />
<path d="M71.6132 63.2117
L71.6164 63.2649
" />
<path d="M71.6164 63.2649
L71.6640 63.3473
" />
<path d="M71.6640 63.3473
L71.7084 63.3767
" />
<path d="M71.7084 63.3767
L71.7409 63.3854
" />
<path d="M71.7409 63.3854
L71.7941 63.3822
" />
<path d="M71.7941 63.3822
L71.8766 63.3346
" />
<path d="M71.8766 63.3346
L71.9059 63.2901
" />
<path d="M71.9059 63.2901
L71.9146 63.2576
" />
<path d="M71.9146 63.2576
L71.9114 63.2045
" />
<path d="M71.9114 63.2045
L71.8638 63.1220
" />
<path d="M71.8638 63.1220
L71.8194 63.0927
" />
<path d="M71.8194 63.0927
L71.7869 63.0839
" />
<path d="M71.7869 63.0839
L71.7337 63.0871
" />
</g></g>
<g style="fill:#000000; fill-opacity:0.0; 
stroke:#000000; stroke-width:0.0750; stroke-opacity:1; 
stroke-linecap:round; stroke-linejoin:round;">
<g transform="rotate(-30.000000 71.1797 64.5728)">
<text x="71.1797" y="64.7228"
textLength="0.4507" font-size="0.4000" lengthAdjust="spacingAndGlyphs"
text-anchor="middle" opacity="0">1</text>
</g>
<g class="stroked-text"><desc>1</desc>
<path d="M71.3214 64.6467
L71.1729 64.7325
" />
<path d="M71.2471 64.6896
L71.0971 64.4298
" />
<path d="M71.0971 64.4298
L71.0938 64.4812
" />
<path d="M71.0938 64.4812
L71.0834 64.5202
" />
<path d="M71.0834 64.5202
L71.0658 64.5469
" />
</g></g>
<g style="fill:#000000; fill-opacity:0.0; 
stroke:#000000; stroke-width:0.1000; stroke-opacity:1; 
stroke-linecap:round; stroke-linejoin:round;">
<g transform="rotate(-90.000000 78.5600 69.3000)">
<text x="78.5600" y="69.5500"
textLength="1.6524" font-size="0.6667" lengthAdjust="spacingAndGlyphs"
text-anchor="middle" opacity="0">D10</text>
</g>
<g class="stroked-text"><desc>D10</desc>
<path d="M78.7861 69.9071
L78.2861 69.9071
" />
<path d="M78.2861 69.9071
L78.2861 69.7881
" />
<path d="M78.2861 69.7881
L78.3099 69.7167
" />
<path d="M78.3099 69.7167
L78.3575 69.6690
" />
<path d="M78.3575 69.6690
L78.4052 69.6452
" />
<path d="M78.4052 69.6452
L78.5004 69.6214
" />
<path d="M78.5004 69.6214
L78.5718 69.6214
" />
<path d="M78.5718 69.6214
L78.6671 69.6452
" />
<path d="M78.6671 69.6452
L78.7147 69.6690
" />
<path d="M78.7147 69.6690
L78.7623 69.7167
" />
<path d="M78.7623 69.7167
L78.7861 69.7881
" />
<path d="M78.7861 69.7881
L78.7861 69.9071
" />
<path d="M78.7861 69.1452
L78.7861 69.4310
" />
<path d="M78.7861 69.2881
L78.2861 69.2881
" />
<path d="M78.2861 69.2881
L78.3575 69.3357
" />
<path d="M78.3575 69.3357
L78.4052 69.3833
" />
<path d="M78.4052 69.3833
L78.4290 69.4310
" />
<path d="M78.2861 68.8357
L78.2861 68.7881
" />
<path d="M78.2861 68.7881
L78.3099 68.7405
" />
<path d="M78.3099 68.7405
L78.3337 68.7167
" />
<path d="M78.3337 68.7167
L78.3813 68.6929
" />
<path d="M78.3813 68.6929
L78.4766 68.6690
" />
<path d="M78.4766 68.6690
L78.5956 68.6690
" />
<path d="M78.5956 68.6690
L78.6909 68.6929
" />
<path d="M78.6909 68.6929
L78.7385 68.7167
" />
<path d="M78.7385 68.7167
L78.7623 68.7405
" />
<path d="M78.7623 68.7405
L78.7861 68.7881
" />
<path d="M78.7861 68.7881
L78.7861 68.8357
" />
<path d="M78.7861 68.8357
L78.7623 68.8833
" />
<path d="M78.7623 68.8833
L78.7385 68.9071
" />
<path d="M78.7385 68.9071
L78.6909 68.9310
" />
<path d="M78.6909 68.9310
L78.5956 68.9548
" />
<path d="M78.5956 68.9548
L78.4766 68.9548
" />
<path d="M78.4766 68.9548
L78.3813 68.9310
" />
<path d="M78.3813 68.9310
L78.3337 68.9071
" />
<path d="M78.3337 68.9071
L78.3099 68.8833
" />
<path d="M78.3099 68.8833
L78.2861 68.8357
" />
</g></g>
<g style="fill:#000000; fill-opacity:0.0; 
stroke:#000000; stroke-width:0.0750; stroke-opacity:1; 
stroke-linecap:round; stroke-linejoin:round;">
<g transform="rotate(-90.000000 79.5500 69.9250)">
<text x="79.5500" y="70.0750"
textLength="0.4507" font-size="0.4000" lengthAdjust="spacingAndGlyphs"
text-anchor="middle" opacity="0">1</text>
</g>
<g class="stroked-text"><desc>1</desc>
<path d="M79.6849 69.8393
L79.6849 70.0107
" />
<path d="M79.6849 69.9250
L79.3849 69.9250
" />
<path d="M79.3849 69.9250
L79.4277 69.9536
" />
<path d="M79.4277 69.9536
L79.4563 69.9821
" />
<path d="M79.4563 69.9821
L79.4706 70.0107
" />
</g></g>
<g style="fill:#000000; fill-opacity:0.0; 
stroke:#000000; stroke-width:0.1000; stroke-opacity:1; 
stroke-linecap:round; stroke-linejoin:round;">
<text x="71.0000" y="58.8500"
textLength="1.1762" font-size="0.6667" lengthAdjust="spacingAndGlyphs"
text-anchor="middle" opacity="0">D7</text>
<g class="stroked-text"><desc>D7</desc>
<path d="M70.6310 58.8261
L70.6310 58.3261
" />
<path d="M70.6310 58.3261
L70.7500 58.3261
" />
<path d="M70.7500 58.3261
L70.8214 58.3499
" />
<path d="M70.8214 58.3499
L70.8690 58.3975
" />
<path d="M70.8690 58.3975
L70.8929 58.4452
" />
<path d="M70.8929 58.4452
L70.9167 58.5404
" />
<path d="M70.9167 58.5404
L70.9167 58.6118
" />
<path d="M70.9167 58.6118
L70.8929 58.7071
" />
<path d="M70.8929 58.7071
L70.8690 58.7547
" />
<path d="M70.8690 58.7547
L70.8214 58.8023
" />
<path d="M70.8214 58.8023
L70.7500 58.8261
" />
<path d="M70.7500 58.8261
L70.6310 58.8261
" />
<path d="M71.0833 58.3261
L71.4167 58.3261
" />
<path d="M71.4167 58.3261
L71.2024 58.8261
" />
</g></g>
<g style="fill:#000000; fill-opacity:0.0; 
stroke:#000000; stroke-width:0.0750; stroke-opacity:1; 
stroke-linecap:round; stroke-linejoin:round;">
<text x="70.0750" y="59.7000"
textLength="0.4507" font-size="0.4000" lengthAdjust="spacingAndGlyphs"
text-anchor="middle" opacity="0">1</text>
<g class="stroked-text"><desc>1</desc>
<path d="M70.1607 59.6849
L69.9893 59.6849
" />
<path d="M70.0750 59.6849
L70.0750 59.3849
" />
<path d="M70.0750 59.3849
L70.0464 59.4277
" />
<path d="M70.0464 59.4277
L70.0179 59.4563
" />
<path d="M70.0179 59.4563
L69.9893 59.4706
" />
</g></g>
<g style="fill:#000000; fill-opacity:0.0; 
stroke:#000000; stroke-width:0.1000; stroke-opacity:1; 
stroke-linecap:round; stroke-linejoin:round;">
<g transform="rotate(30.000000 72.9058 54.2876)">
<text x="72.9058" y="54.5376"
textLength="1.1762" font-size="0.6667" lengthAdjust="spacingAndGlyphs"
text-anchor="middle" opacity="0">D6</text>
</g>
<g class="stroked-text"><desc>D6</desc>
<path d="M72.4731 54.2989
L72.7231 53.8658
" />
<path d="M72.7231 53.8658
L72.8262 53.9254
" />
<path d="M72.8262 53.9254
L72.8762 53.9817
" />
<path d="M72.8762 53.9817
L72.8936 54.0467
" />
<path d="M72.8936 54.0467
L72.8904 54.0999
" />
<path d="M72.8904 54.0999
L72.8634 54.1943
" />
<path d="M72.8634 54.1943
L72.8277 54.2561
" />
<path d="M72.8277 54.2561
L72.7595 54.3267
" />
<path d="M72.7595 54.3267
L72.7150 54.3560
" />
<path d="M72.7150 54.3560
L72.6500 54.3735
" />
<path d="M72.6500 54.3735
L72.5762 54.3584
" />
<path d="M72.5762 54.3584
L72.4731 54.2989
" />
<path d="M73.3417 54.2230
L73.2592 54.1754
" />
<path d="M73.2592 54.1754
L73.2061 54.1722
" />
<path d="M73.2061 54.1722
L73.1736 54.1809
" />
<path d="M73.1736 54.1809
L73.0966 54.2189
" />
<path d="M73.0966 54.2189
L73.0284 54.2895
" />
<path d="M73.0284 54.2895
L72.9331 54.4545
" />
<path d="M72.9331 54.4545
L72.9299 54.5076
" />
<path d="M72.9299 54.5076
L72.9386 54.5401
" />
<path d="M72.9386 54.5401
L72.9680 54.5846
" />
<path d="M72.9680 54.5846
L73.0505 54.6322
" />
<path d="M73.0505 54.6322
L73.1036 54.6354
" />
<path d="M73.1036 54.6354
L73.1361 54.6267
" />
<path d="M73.1361 54.6267
L73.1806 54.5973
" />
<path d="M73.1806 54.5973
L73.2401 54.4942
" />
<path d="M73.2401 54.4942
L73.2433 54.4411
" />
<path d="M73.2433 54.4411
L73.2346 54.4086
" />
<path d="M73.2346 54.4086
L73.2052 54.3641
" />
<path d="M73.2052 54.3641
L73.1227 54.3165
" />
<path d="M73.1227 54.3165
L73.0696 54.3133
" />
<path d="M73.0696 54.3133
L73.0371 54.3220
" />
<path d="M73.0371 54.3220
L72.9926 54.3514
" />
</g></g>
<g style="fill:#000000; fill-opacity:0.0; 
stroke:#000000; stroke-width:0.0750; stroke-opacity:1; 
stroke-linecap:round; stroke-linejoin:round;">
<g transform="rotate(30.000000 71.6297 54.6478)">
<text x="71.6297" y="54.7978"
textLength="0.4507" font-size="0.4000" lengthAdjust="spacingAndGlyphs"
text-anchor="middle" opacity="0">1</text>
</g>
<g class="stroked-text"><desc>1</desc>
<path d="M71.6365 54.8075
L71.4880 54.7217
" />
<path d="M71.5623 54.7646
L71.7123 54.5048
" />
<path d="M71.7123 54.5048
L71.6661 54.5276
" />
<path d="M71.6661 54.5276
L71.6271 54.5381
" />
<path d="M71.6271 54.5381
L71.5952 54.5362
" />
</g></g>
<g style="fill:#000000; fill-opacity:0.0; 
stroke:#000000; stroke-width:0.1000; stroke-opacity:1; 
stroke-linecap:round; stroke-linejoin:round;">
<text x="90.4000" y="58.4000"
textLength="1.1762" font-size="0.6667" lengthAdjust="spacingAndGlyphs"
text-anchor="middle" opacity="0">R2</text>
<g class="stroked-text"><desc>R2</desc>
<path d="M90.3167 58.3761
L90.1500 58.1380
" />
<path d="M90.0310 58.3761
L90.0310 57.8761
" />
<path d="M90.0310 57.8761
L90.2214 57.8761
" />
<path d="M90.2214 57.8761
L90.2690 57.8999
" />
<path d="M90.2690 57.8999
L90.2929 57.9237
" />
<path d="M90.2929 57.9237
L90.3167 57.9713
" />
<path d="M90.3167 57.9713
L90.3167 58.0428
" />
<path d="M90.3167 58.0428
L90.2929 58.0904
" />
<path d="M90.2929 58.0904
L90.2690 58.1142
" />
<path d="M90.2690 58.1142
L90.2214 58.1380
" />
<path d="M90.2214 58.1380
L90.0310 58.1380
" />
<path d="M90.5071 57.9237
L90.5310 57.8999
" />
<path d="M90.5310 57.8999
L90.5786 57.8761
" />
<path d="M90.5786 57.8761
L90.6976 57.8761
" />
<path d="M90.6976 57.8761
L90.7452 57.8999
" />
<path d="M90.7452 57.8999
L90.7690 57.9237
" />
<path d="M90.7690 57.9237
L90.7929 57.9713
" />
<path d="M90.7929 57.9713
L90.7929 58.0190
" />
<path d="M90.7929 58.0190
L90.7690 58.0904
" />
<path d="M90.7690 58.0904
L90.4833 58.3761
" />
<path d="M90.4833 58.3761
L90.7929 58.3761
" />
</g><text x="90.2500" y="56.9000"
textLength="1.6524" font-size="0.6667" lengthAdjust="spacingAndGlyphs"
text-anchor="middle" opacity="0">D13</text>
<g class="stroked-text"><desc>D13</desc>
<path d="M89.6429 56.8761
L89.6429 56.3761
" />
<path d="M89.6429 56.3761
L89.7619 56.3761
" />
<path d="M89.7619 56.3761
L89.8333 56.3999
" />
<path d="M89.8333 56.3999
L89.8810 56.4475
" />
<path d="M89.8810 56.4475
L89.9048 56.4952
" />
<path d="M89.9048 56.4952
L89.9286 56.5904
" />
<path d="M89.9286 56.5904
L89.9286 56.6618
" />
<path d="M89.9286 56.6618
L89.9048 56.7571
" />
<path d="M89.9048 56.7571
L89.8810 56.8047
" />
<path d="M89.8810 56.8047
L89.8333 56.8523
" />
<path d="M89.8333 56.8523
L89.7619 56.8761
" />
<path d="M89.7619 56.8761
L89.6429 56.8761
" />
<path d="M90.4048 56.8761
L90.1190 56.8761
" />
<path d="M90.2619 56.8761
L90.2619 56.3761
" />
<path d="M90.2619 56.3761
L90.2143 56.4475
" />
<path d="M90.2143 56.4475
L90.1667 56.4952
" />
<path d="M90.1667 56.4952
L90.1190 56.5190
" />
<path d="M90.5714 56.3761
L90.8810 56.3761
" />
<path d="M90.8810 56.3761
L90.7143 56.5666
" />
<path d="M90.7143 56.5666
L90.7857 56.5666
" />
<path d="M90.7857 56.5666
L90.8333 56.5904
" />
<path d="M90.8333 56.5904
L90.8571 56.6142
" />
<path d="M90.8571 56.6142
L90.8810 56.6618
" />
<path d="M90.8810 56.6618
L90.8810 56.7809
" />
<path d="M90.8810 56.7809
L90.8571 56.8285
" />
<path d="M90.8571 56.8285
L90.8333 56.8523
" />
<path d="M90.8333 56.8523
L90.7857 56.8761
" />
<path d="M90.7857 56.8761
L90.6429 56.8761
" />
<path d="M90.6429 56.8761
L90.5952 56.8523
" />
<path d="M90.5952 56.8523
L90.5714 56.8285
" />
</g><g transform="rotate(-30.000000 89.3000 55.9500)">
<text x="89.3000" y="56.2000"
textLength="1.1762" font-size="0.6667" lengthAdjust="spacingAndGlyphs"
text-anchor="middle" opacity="0">D2</text>
</g>
<g class="stroked-text"><desc>D2</desc>
<path d="M89.0934 56.3303
L88.8434 55.8973
" />
<path d="M88.8434 55.8973
L88.9465 55.8378
" />
<path d="M88.9465 55.8378
L89.0203 55.8227
" />
<path d="M89.0203 55.8227
L89.0854 55.8401
" />
<path d="M89.0854 55.8401
L89.1298 55.8695
" />
<path d="M89.1298 55.8695
L89.1980 55.9400
" />
<path d="M89.1980 55.9400
L89.2337 56.0019
" />
<path d="M89.2337 56.0019
L89.2607 56.0963
" />
<path d="M89.2607 56.0963
L89.2639 56.1494
" />
<path d="M89.2639 56.1494
L89.2465 56.2145
" />
<path d="M89.2465 56.2145
L89.1965 56.2708
" />
<path d="M89.1965 56.2708
L89.0934 56.3303
" />
<path d="M89.2797 55.7005
L89.2884 55.6679
" />
<path d="M89.2884 55.6679
L89.3177 55.6235
" />
<path d="M89.3177 55.6235
L89.4208 55.5640
" />
<path d="M89.4208 55.5640
L89.4739 55.5608
" />
<path d="M89.4739 55.5608
L89.5065 55.5695
" />
<path d="M89.5065 55.5695
L89.5509 55.5989
" />
<path d="M89.5509 55.5989
L89.5747 55.6401
" />
<path d="M89.5747 55.6401
L89.5898 55.7139
" />
<path d="M89.5898 55.7139
L89.4852 56.1041
" />
<path d="M89.4852 56.1041
L89.7533 55.9494
" />
</g></g>
<g style="fill:#000000; fill-opacity:0.0; 
stroke:#000000; stroke-width:0.0750; stroke-opacity:1; 
stroke-linecap:round; stroke-linejoin:round;">
<g transform="rotate(-30.000000 88.8203 55.4272)">
<text x="88.8203" y="55.5772"
textLength="0.4507" font-size="0.4000" lengthAdjust="spacingAndGlyphs"
text-anchor="middle" opacity="0">1</text>
</g>
<g class="stroked-text"><desc>1</desc>
<path d="M88.9620 55.5012
L88.8135 55.5869
" />
<path d="M88.8877 55.5440
L88.7377 55.2842
" />
<path d="M88.7377 55.2842
L88.7344 55.3356
" />
<path d="M88.7344 55.3356
L88.7240 55.3746
" />
<path d="M88.7240 55.3746
L88.7064 55.4013
" />
</g></g>
<g style="fill:#000000; fill-opacity:0.0; 
stroke:#000000; stroke-width:0.1000; stroke-opacity:1; 
stroke-linecap:round; stroke-linejoin:round;">
<g transform="rotate(60.000000 76.7124 51.5058)">
<text x="76.7124" y="51.7558"
textLength="1.1762" font-size="0.6667" lengthAdjust="spacingAndGlyphs"
text-anchor="middle" opacity="0">D5</text>
</g>
<g class="stroked-text"><desc>D5</desc>
<path d="M76.3321 51.2992
L76.7651 51.0492
" />
<path d="M76.7651 51.0492
L76.8246 51.1523
" />
<path d="M76.8246 51.1523
L76.8397 51.2261
" />
<path d="M76.8397 51.2261
L76.8223 51.2911
" />
<path d="M76.8223 51.2911
L76.7930 51.3356
" />
<path d="M76.7930 51.3356
L76.7224 51.4038
" />
<path d="M76.7224 51.4038
L76.6605 51.4395
" />
<path d="M76.6605 51.4395
L76.5661 51.4665
" />
<path d="M76.5661 51.4665
L76.5130 51.4697
" />
<path d="M76.5130 51.4697
L76.4480 51.4523
" />
<path d="M76.4480 51.4523
L76.3916 51.4023
" />
<path d="M76.3916 51.4023
L76.3321 51.2992
" />
<path d="M77.1342 51.6884
L77.0151 51.4822
" />
<path d="M77.0151 51.4822
L76.7970 51.5807
" />
<path d="M76.7970 51.5807
L76.8295 51.5894
" />
<path d="M76.8295 51.5894
L76.8740 51.6187
" />
<path d="M76.8740 51.6187
L76.9335 51.7218
" />
<path d="M76.9335 51.7218
L76.9367 51.7750
" />
<path d="M76.9367 51.7750
L76.9280 51.8075
" />
<path d="M76.9280 51.8075
L76.8986 51.8519
" />
<path d="M76.8986 51.8519
L76.7955 51.9114
" />
<path d="M76.7955 51.9114
L76.7424 51.9146
" />
<path d="M76.7424 51.9146
L76.7099 51.9059
" />
<path d="M76.7099 51.9059
L76.6654 51.8766
" />
<path d="M76.6654 51.8766
L76.6059 51.7735
" />
<path d="M76.6059 51.7735
L76.6027 51.7203
" />
<path d="M76.6027 51.7203
L76.6114 51.6878
" />
</g></g>
<g style="fill:#000000; fill-opacity:0.0; 
stroke:#000000; stroke-width:0.0750; stroke-opacity:1; 
stroke-linecap:round; stroke-linejoin:round;">
<g transform="rotate(60.000000 75.4272 51.1797)">
<text x="75.4272" y="51.3297"
textLength="0.4507" font-size="0.4000" lengthAdjust="spacingAndGlyphs"
text-anchor="middle" opacity="0">1</text>
</g>
<g class="stroked-text"><desc>1</desc>
<path d="M75.3533 51.3214
L75.2675 51.1729
" />
<path d="M75.3104 51.2471
L75.5702 51.0971
" />
<path d="M75.5702 51.0971
L75.5188 51.0938
" />
<path d="M75.5188 51.0938
L75.4798 51.0834
" />
<path d="M75.4798 51.0834
L75.4531 51.0658
" />
</g></g>
<g style="fill:#000000; fill-opacity:0.0; 
stroke:#000000; stroke-width:0.1000; stroke-opacity:1; 
stroke-linecap:round; stroke-linejoin:round;">
<g transform="rotate(-60.000000 74.2876 67.0942)">
<text x="74.2876" y="67.3442"
textLength="1.1762" font-size="0.6667" lengthAdjust="spacingAndGlyphs"
text-anchor="middle" opacity="0">D9</text>
</g>
<g class="stroked-text"><desc>D9</desc>
<path d="M74.2989 67.5269
L73.8658 67.2769
" />
<path d="M73.8658 67.2769
L73.9254 67.1738
" />
<path d="M73.9254 67.1738
L73.9817 67.1238
" />
<path d="M73.9817 67.1238
L74.0468 67.1064
" />
<path d="M74.0468 67.1064
L74.0999 67.1096
" />
<path d="M74.0999 67.1096
L74.1943 67.1366
" />
<path d="M74.1943 67.1366
L74.2561 67.1723
" />
<path d="M74.2561 67.1723
L74.3267 67.2405
" />
<path d="M74.3267 67.2405
L74.3560 67.2850
" />
<path d="M74.3560 67.2850
L74.3735 67.3500
" />
<path d="M74.3735 67.3500
L74.3584 67.4238
" />
<path d="M74.3584 67.4238
L74.2989 67.5269
" />
<path d="M74.5608 67.0733
L74.6084 66.9908
" />
<path d="M74.6084 66.9908
L74.6116 66.9376
" />
<path d="M74.6116 66.9376
L74.6029 66.9051
" />
<path d="M74.6029 66.9051
L74.5648 66.8282
" />
<path d="M74.5648 66.8282
L74.4942 66.7599
" />
<path d="M74.4942 66.7599
L74.3293 66.6647
" />
<path d="M74.3293 66.6647
L74.2761 66.6615
" />
<path d="M74.2761 66.6615
L74.2436 66.6702
" />
<path d="M74.2436 66.6702
L74.1992 66.6995
" />
<path d="M74.1992 66.6995
L74.1516 66.7820
" />
<path d="M74.1516 66.7820
L74.1484 66.8352
" />
<path d="M74.1484 66.8352
L74.1571 66.8677
" />
<path d="M74.1571 66.8677
L74.1864 66.9121
" />
<path d="M74.1864 66.9121
L74.2895 66.9716
" />
<path d="M74.2895 66.9716
L74.3427 66.9748
" />
<path d="M74.3427 66.9748
L74.3752 66.9661
" />
<path d="M74.3752 66.9661
L74.4196 66.9368
" />
<path d="M74.4196 66.9368
L74.4672 66.8543
" />
<path d="M74.4672 66.8543
L74.4704 66.8012
" />
<path d="M74.4704 66.8012
L74.4617 66.7686
" />
<path d="M74.4617 66.7686
L74.4324 66.7242
" />
</g></g>
<g style="fill:#000000; fill-opacity:0.0; 
stroke:#000000; stroke-width:0.0750; stroke-opacity:1; 
stroke-linecap:round; stroke-linejoin:round;">
<g transform="rotate(-60.000000 74.6478 68.3703)">
<text x="74.6478" y="68.5203"
textLength="0.4507" font-size="0.4000" lengthAdjust="spacingAndGlyphs"
text-anchor="middle" opacity="0">1</text>
</g>
<g class="stroked-text"><desc>1</desc>
<path d="M74.8075 68.3635
L74.7217 68.5120
" />
<path d="M74.7646 68.4377
L74.5048 68.2877
" />
<path d="M74.5048 68.2877
L74.5276 68.3339
" />
<path d="M74.5276 68.3339
L74.5381 68.3729
" />
<path d="M74.5381 68.3729
L74.5362 68.4048
" />
</g></g>
<g style="fill:#000000; fill-opacity:0.0; 
stroke:#000000; stroke-width:0.1000; stroke-opacity:1; 
stroke-linecap:round; stroke-linejoin:round;">
<g transform="rotate(-60.000000 85.7124 52.9058)">
<text x="85.7124" y="53.1558"
textLength="1.1762" font-size="0.6667" lengthAdjust="spacingAndGlyphs"
text-anchor="middle" opacity="0">D3</text>
</g>
<g class="stroked-text"><desc>D3</desc>
<path d="M85.7237 53.3384
L85.2907 53.0884
" />
<path d="M85.2907 53.0884
L85.3502 52.9853
" />
<path d="M85.3502 52.9853
L85.4066 52.9354
" />
<path d="M85.4066 52.9354
L85.4716 52.9179
" />
<path d="M85.4716 52.9179
L85.5248 52.9211
" />
<path d="M85.5248 52.9211
L85.6191 52.9481
" />
<path d="M85.6191 52.9481
L85.6810 52.9839
" />
<path d="M85.6810 52.9839
L85.7516 53.0521
" />
<path d="M85.7516 53.0521
L85.7809 53.0965
" />
<path d="M85.7809 53.0965
L85.7983 53.1616
" />
<path d="M85.7983 53.1616
L85.7833 53.2353
" />
<path d="M85.7833 53.2353
L85.7237 53.3384
" />
<path d="M85.5169 52.6967
L85.6717 52.4286
" />
<path d="M85.6717 52.4286
L85.7533 52.6682
" />
<path d="M85.7533 52.6682
L85.7890 52.6063
" />
<path d="M85.7890 52.6063
L85.8334 52.5770
" />
<path d="M85.8334 52.5770
L85.8660 52.5683
" />
<path d="M85.8660 52.5683
L85.9191 52.5715
" />
<path d="M85.9191 52.5715
L86.0222 52.6310
" />
<path d="M86.0222 52.6310
L86.0515 52.6754
" />
<path d="M86.0515 52.6754
L86.0603 52.7079
" />
<path d="M86.0603 52.7079
L86.0571 52.7611
" />
<path d="M86.0571 52.7611
L85.9856 52.8848
" />
<path d="M85.9856 52.8848
L85.9412 52.9141
" />
<path d="M85.9412 52.9141
L85.9087 52.9228
" />
</g></g>
<g style="fill:#000000; fill-opacity:0.0; 
stroke:#000000; stroke-width:0.0750; stroke-opacity:1; 
stroke-linecap:round; stroke-linejoin:round;">
<g transform="rotate(-60.000000 85.3522 51.6297)">
<text x="85.3522" y="51.7797"
textLength="0.4507" font-size="0.4000" lengthAdjust="spacingAndGlyphs"
text-anchor="middle" opacity="0">1</text>
</g>
<g class="stroked-text"><desc>1</desc>
<path d="M85.5119 51.6229
L85.4262 51.7714
" />
<path d="M85.4690 51.6971
L85.2092 51.5471
" />
<path d="M85.2092 51.5471
L85.2320 51.5933
" />
<path d="M85.2320 51.5933
L85.2425 51.6323
" />
<path d="M85.2425 51.6323
L85.2406 51.6642
" />
</g></g>
<g style="fill:#000000; fill-opacity:0.0; 
stroke:#000000; stroke-width:0.1000; stroke-opacity:1; 
stroke-linecap:round; stroke-linejoin:round;">
<path d="M83.3389 67.4831
L83.6639 68.0460
" />
<path d="M83.9018 67.1581
L83.3389 67.4831
" />
<path d="M88.1500 60.8500
L88.8000 60.8500
" />
<path d="M88.1500 60.2000
L88.1500 60.8500
" />
<path d="M80.8500 51.8500
L80.8500 51.2000
" />
<path d="M80.2000 51.8500
L80.8500 51.8500
" />
<path d="M86.6331 64.8111
L87.1960 65.1361
" />
<path d="M86.9581 64.2482
L86.6331 64.8111
" />
<path d="M72.5169 63.3389
L71.9540 63.6639
" />
<path d="M72.8419 63.9018
L72.5169 63.3389
" />
<path d="M79.1500 68.1500
L79.1500 68.8000
" />
<path d="M79.8000 68.1500
L79.1500 68.1500
" />
<path d="M71.8500 59.1500
L71.2000 59.1500
" />
<path d="M71.8500 59.8000
L71.8500 59.1500
" />
<path d="M73.3669 55.1889
L72.8040 54.8639
" />
<path d="M73.0419 55.7518
L73.3669 55.1889
" />
</g>
<g style="fill:#000000; fill-opacity:0.0; 
stroke:#000000; stroke-width:0.1200; stroke-opacity:1; 
stroke-linecap:round; stroke-linejoin:round;">
<path d="M87.9125 56.7500
L87.9125 57.5500
" />
<path d="M89.2725 56.7500
L87.9125 56.7500
" />
<path d="M89.2725 57.5500
L87.9125 57.5500
" />
</g>
<g style="fill:#000000; fill-opacity:0.0; 
stroke:#000000; stroke-width:0.1000; stroke-opacity:1; 
stroke-linecap:round; stroke-linejoin:round;">
<path d="M87.4831 56.6611
L88.0460 56.3361
" />
<path d="M87.1581 56.0982
L87.4831 56.6611
" />
<path d="M76.6611 52.5169
L76.3361 51.9540
" />
<path d="M76.0982 52.8419
L76.6611 52.5169
" />
<path d="M75.1889 66.6331
L74.8639 67.1960
" />
<path d="M75.7518 66.9581
L75.1889 66.6331
" />
<path d="M84.8111 53.3669
L85.1361 52.8040
" />
<path d="M84.2482 53.0419
L84.8111 53.3669
" />
<g >
</g>
<g >
</g>
<g >
</g>
<g >
</g>
<g >
</g>
<g >
</g>
<g >
</g>
<g >
</g>
<g >
</g>
<g >
</g>
<g >
</g>
<g >
</g>
<g >
</g>
<g >
</g>
<g >
</g>
<g >
</g>
<g >
</g>
<g >
</g>
<g >
</g>
<g >
</g>
<g >
</g>
<g >
</g>
<g >
</g>
<g >
</g>
<g >
</g>
<g >
</g>
<g >
</g>
<g >
</g>
<g >
</g>
<g >
</g>
<g >
</g>
<g >
</g>
<g >
</g>
<g >
</g>
<g >
</g>
<g >
</g>
</g> 
</svg>
