<?xml version="1.0" standalone="no"?>
 <!DOCTYPE svg PUBLIC "-//W3C//DTD SVG 1.1//EN" 
 "http://www.w3.org/Graphics/SVG/1.1/DTD/svg11.dtd"> 
<svg
  xmlns:svg="http://www.w3.org/2000/svg"
  xmlns="http://www.w3.org/2000/svg"
  xmlns:xlink="http://www.w3.org/1999/xlink"
  version="1.1"
  width="297.0022mm" height="210.0072mm" viewBox="0.0000 0.0000 297.0022 210.0072">
<title>SVG Image created as pedalboard-led-ring-B_Silkscreen.svg date 2023/10/21 15:36:18 </title>
  <desc>Image generated by PCBNEW </desc>
<g style="fill:#000000; fill-opacity:1.0000;stroke:#000000; stroke-opacity:1.0000;
stroke-linecap:round; stroke-linejoin:round;"
 transform="translate(0 0) scale(1 1)">
</g>
<g style="fill:#000000; fill-opacity:0.0; 
stroke:#000000; stroke-width:0.0000; stroke-opacity:1; 
stroke-linecap:round; stroke-linejoin:round;">
</g>
<g style="fill:#000000; fill-opacity:0.0; 
stroke:#000000; stroke-width:0.1000; stroke-opacity:1; 
stroke-linecap:round; stroke-linejoin:round;">
<circle cx="217.0022" cy="60.0000" r="7.0500" /> 
<g transform="rotate(-90.000000 208.7322 55.2000)">
<text x="208.7322" y="55.2000"
transform="scale(-1 1) translate(-417.464400 0)"
textLength="0.9381" font-size="0.6667" lengthAdjust="spacingAndGlyphs"
text-anchor="start" opacity="0">DI</text>
</g>
<g class="stroked-text"><desc>DI</desc>
<path d="M208.7986 55.3848
L209.2986 55.3848
" />
<path d="M209.2986 55.3848
L209.2986 55.5039
" />
<path d="M209.2986 55.5039
L209.2748 55.5753
" />
<path d="M209.2748 55.5753
L209.2272 55.6229
" />
<path d="M209.2272 55.6229
L209.1795 55.6467
" />
<path d="M209.1795 55.6467
L209.0843 55.6705
" />
<path d="M209.0843 55.6705
L209.0129 55.6705
" />
<path d="M209.0129 55.6705
L208.9176 55.6467
" />
<path d="M208.9176 55.6467
L208.8700 55.6229
" />
<path d="M208.8700 55.6229
L208.8224 55.5753
" />
<path d="M208.8224 55.5753
L208.7986 55.5039
" />
<path d="M208.7986 55.5039
L208.7986 55.3848
" />
<path d="M208.7986 55.8848
L209.2986 55.8848
" />
</g><g transform="rotate(-90.000000 208.8022 62.5000)">
<text x="208.8022" y="62.5000"
transform="scale(-1 1) translate(-417.604400 0)"
textLength="1.3514" font-size="0.8000" lengthAdjust="spacingAndGlyphs"
text-anchor="start" opacity="0">D0</text>
</g>
<g class="stroked-text"><desc>D0</desc>
<path d="M208.8808 62.7086
L209.4808 62.7086
" />
<path d="M209.4808 62.7086
L209.4808 62.8515
" />
<path d="M209.4808 62.8515
L209.4523 62.9372
" />
<path d="M209.4523 62.9372
L209.3951 62.9944
" />
<path d="M209.3951 62.9944
L209.3380 63.0229
" />
<path d="M209.3380 63.0229
L209.2237 63.0515
" />
<path d="M209.2237 63.0515
L209.1380 63.0515
" />
<path d="M209.1380 63.0515
L209.0237 63.0229
" />
<path d="M209.0237 63.0229
L208.9665 62.9944
" />
<path d="M208.9665 62.9944
L208.9094 62.9372
" />
<path d="M208.9094 62.9372
L208.8808 62.8515
" />
<path d="M208.8808 62.8515
L208.8808 62.7086
" />
<path d="M209.4808 63.4229
L209.4808 63.4801
" />
<path d="M209.4808 63.4801
L209.4523 63.5372
" />
<path d="M209.4523 63.5372
L209.4237 63.5658
" />
<path d="M209.4237 63.5658
L209.3665 63.5944
" />
<path d="M209.3665 63.5944
L209.2523 63.6229
" />
<path d="M209.2523 63.6229
L209.1094 63.6229
" />
<path d="M209.1094 63.6229
L208.9951 63.5944
" />
<path d="M208.9951 63.5944
L208.9380 63.5658
" />
<path d="M208.9380 63.5658
L208.9094 63.5372
" />
<path d="M208.9094 63.5372
L208.8808 63.4801
" />
<path d="M208.8808 63.4801
L208.8808 63.4229
" />
<path d="M208.8808 63.4229
L208.9094 63.3658
" />
<path d="M208.9094 63.3658
L208.9380 63.3372
" />
<path d="M208.9380 63.3372
L208.9951 63.3086
" />
<path d="M208.9951 63.3086
L209.1094 63.2801
" />
<path d="M209.1094 63.2801
L209.2523 63.2801
" />
<path d="M209.2523 63.2801
L209.3665 63.3086
" />
<path d="M209.3665 63.3086
L209.4237 63.3372
" />
<path d="M209.4237 63.3372
L209.4523 63.3658
" />
<path d="M209.4523 63.3658
L209.4808 63.4229
" />
</g><g transform="rotate(-90.000000 206.6022 62.3500)">
<text x="206.6022" y="62.3500"
transform="scale(-1 1) translate(-413.204400 0)"
textLength="2.0086" font-size="0.8000" lengthAdjust="spacingAndGlyphs"
text-anchor="start" opacity="0">GND</text>
</g>
<g class="stroked-text"><desc>GND</desc>
<path d="M207.2523 62.8729
L207.2808 62.8158
" />
<path d="M207.2808 62.8158
L207.2808 62.7301
" />
<path d="M207.2808 62.7301
L207.2523 62.6444
" />
<path d="M207.2523 62.6444
L207.1951 62.5872
" />
<path d="M207.1951 62.5872
L207.1380 62.5586
" />
<path d="M207.1380 62.5586
L207.0237 62.5301
" />
<path d="M207.0237 62.5301
L206.9380 62.5301
" />
<path d="M206.9380 62.5301
L206.8237 62.5586
" />
<path d="M206.8237 62.5586
L206.7665 62.5872
" />
<path d="M206.7665 62.5872
L206.7094 62.6444
" />
<path d="M206.7094 62.6444
L206.6808 62.7301
" />
<path d="M206.6808 62.7301
L206.6808 62.7872
" />
<path d="M206.6808 62.7872
L206.7094 62.8729
" />
<path d="M206.7094 62.8729
L206.7380 62.9015
" />
<path d="M206.7380 62.9015
L206.9380 62.9015
" />
<path d="M206.9380 62.9015
L206.9380 62.7872
" />
<path d="M206.6808 63.1586
L207.2808 63.1586
" />
<path d="M207.2808 63.1586
L206.6808 63.5015
" />
<path d="M206.6808 63.5015
L207.2808 63.5015
" />
<path d="M206.6808 63.7872
L207.2808 63.7872
" />
<path d="M207.2808 63.7872
L207.2808 63.9301
" />
<path d="M207.2808 63.9301
L207.2523 64.0158
" />
<path d="M207.2523 64.0158
L207.1951 64.0729
" />
<path d="M207.1951 64.0729
L207.1380 64.1015
" />
<path d="M207.1380 64.1015
L207.0237 64.1301
" />
<path d="M207.0237 64.1301
L206.9380 64.1301
" />
<path d="M206.9380 64.1301
L206.8237 64.1015
" />
<path d="M206.8237 64.1015
L206.7665 64.0729
" />
<path d="M206.7665 64.0729
L206.7094 64.0158
" />
<path d="M206.7094 64.0158
L206.6808 63.9301
" />
<path d="M206.6808 63.9301
L206.6808 63.7872
" />
</g><g transform="rotate(-90.000000 224.6622 59.9200)">
<text x="224.6622" y="59.9200"
transform="scale(-1 1) translate(-449.324400 0)"
textLength="16.9267" font-size="0.9333" lengthAdjust="spacingAndGlyphs"
text-anchor="middle" opacity="0">https://github.com/pedalboard</text>
</g>
<g class="stroked-text"><desc>https://github.com/pedalboard</desc>
<path d="M224.7531 51.7033
L225.4531 51.7033
" />
<path d="M224.7531 52.0033
L225.1197 52.0033
" />
<path d="M225.1197 52.0033
L225.1864 51.9700
" />
<path d="M225.1864 51.9700
L225.2197 51.9033
" />
<path d="M225.2197 51.9033
L225.2197 51.8033
" />
<path d="M225.2197 51.8033
L225.1864 51.7367
" />
<path d="M225.1864 51.7367
L225.1531 51.7033
" />
<path d="M225.2197 52.2367
L225.2197 52.5033
" />
<path d="M225.4531 52.3367
L224.8531 52.3367
" />
<path d="M224.8531 52.3367
L224.7864 52.3700
" />
<path d="M224.7864 52.3700
L224.7531 52.4367
" />
<path d="M224.7531 52.4367
L224.7531 52.5033
" />
<path d="M225.2197 52.6367
L225.2197 52.9033
" />
<path d="M225.4531 52.7367
L224.8531 52.7367
" />
<path d="M224.8531 52.7367
L224.7864 52.7700
" />
<path d="M224.7864 52.7700
L224.7531 52.8367
" />
<path d="M224.7531 52.8367
L224.7531 52.9033
" />
<path d="M225.2197 53.1367
L224.5197 53.1367
" />
<path d="M225.1864 53.1367
L225.2197 53.2033
" />
<path d="M225.2197 53.2033
L225.2197 53.3367
" />
<path d="M225.2197 53.3367
L225.1864 53.4033
" />
<path d="M225.1864 53.4033
L225.1531 53.4367
" />
<path d="M225.1531 53.4367
L225.0864 53.4700
" />
<path d="M225.0864 53.4700
L224.8864 53.4700
" />
<path d="M224.8864 53.4700
L224.8197 53.4367
" />
<path d="M224.8197 53.4367
L224.7864 53.4033
" />
<path d="M224.7864 53.4033
L224.7531 53.3367
" />
<path d="M224.7531 53.3367
L224.7531 53.2033
" />
<path d="M224.7531 53.2033
L224.7864 53.1367
" />
<path d="M224.7864 53.7367
L224.7531 53.8033
" />
<path d="M224.7531 53.8033
L224.7531 53.9367
" />
<path d="M224.7531 53.9367
L224.7864 54.0033
" />
<path d="M224.7864 54.0033
L224.8531 54.0367
" />
<path d="M224.8531 54.0367
L224.8864 54.0367
" />
<path d="M224.8864 54.0367
L224.9531 54.0033
" />
<path d="M224.9531 54.0033
L224.9864 53.9367
" />
<path d="M224.9864 53.9367
L224.9864 53.8367
" />
<path d="M224.9864 53.8367
L225.0197 53.7700
" />
<path d="M225.0197 53.7700
L225.0864 53.7367
" />
<path d="M225.0864 53.7367
L225.1197 53.7367
" />
<path d="M225.1197 53.7367
L225.1864 53.7700
" />
<path d="M225.1864 53.7700
L225.2197 53.8367
" />
<path d="M225.2197 53.8367
L225.2197 53.9367
" />
<path d="M225.2197 53.9367
L225.1864 54.0033
" />
<path d="M224.8197 54.3367
L224.7864 54.3700
" />
<path d="M224.7864 54.3700
L224.7531 54.3367
" />
<path d="M224.7531 54.3367
L224.7864 54.3033
" />
<path d="M224.7864 54.3033
L224.8197 54.3367
" />
<path d="M224.8197 54.3367
L224.7531 54.3367
" />
<path d="M225.1864 54.3367
L225.1531 54.3700
" />
<path d="M225.1531 54.3700
L225.1197 54.3367
" />
<path d="M225.1197 54.3367
L225.1531 54.3033
" />
<path d="M225.1531 54.3033
L225.1864 54.3367
" />
<path d="M225.1864 54.3367
L225.1197 54.3367
" />
<path d="M225.4864 55.1700
L224.5864 54.5700
" />
<path d="M225.4864 55.9033
L224.5864 55.3033
" />
<path d="M225.2197 56.4367
L224.6531 56.4367
" />
<path d="M224.6531 56.4367
L224.5864 56.4033
" />
<path d="M224.5864 56.4033
L224.5531 56.3700
" />
<path d="M224.5531 56.3700
L224.5197 56.3033
" />
<path d="M224.5197 56.3033
L224.5197 56.2033
" />
<path d="M224.5197 56.2033
L224.5531 56.1367
" />
<path d="M224.7864 56.4367
L224.7531 56.3700
" />
<path d="M224.7531 56.3700
L224.7531 56.2367
" />
<path d="M224.7531 56.2367
L224.7864 56.1700
" />
<path d="M224.7864 56.1700
L224.8197 56.1367
" />
<path d="M224.8197 56.1367
L224.8864 56.1033
" />
<path d="M224.8864 56.1033
L225.0864 56.1033
" />
<path d="M225.0864 56.1033
L225.1531 56.1367
" />
<path d="M225.1531 56.1367
L225.1864 56.1700
" />
<path d="M225.1864 56.1700
L225.2197 56.2367
" />
<path d="M225.2197 56.2367
L225.2197 56.3700
" />
<path d="M225.2197 56.3700
L225.1864 56.4367
" />
<path d="M224.7531 56.7700
L225.2197 56.7700
" />
<path d="M225.4531 56.7700
L225.4197 56.7367
" />
<path d="M225.4197 56.7367
L225.3864 56.7700
" />
<path d="M225.3864 56.7700
L225.4197 56.8033
" />
<path d="M225.4197 56.8033
L225.4531 56.7700
" />
<path d="M225.4531 56.7700
L225.3864 56.7700
" />
<path d="M225.2197 57.0033
L225.2197 57.2700
" />
<path d="M225.4531 57.1033
L224.8531 57.1033
" />
<path d="M224.8531 57.1033
L224.7864 57.1367
" />
<path d="M224.7864 57.1367
L224.7531 57.2033
" />
<path d="M224.7531 57.2033
L224.7531 57.2700
" />
<path d="M224.7531 57.5033
L225.4531 57.5033
" />
<path d="M224.7531 57.8033
L225.1197 57.8033
" />
<path d="M225.1197 57.8033
L225.1864 57.7700
" />
<path d="M225.1864 57.7700
L225.2197 57.7033
" />
<path d="M225.2197 57.7033
L225.2197 57.6033
" />
<path d="M225.2197 57.6033
L225.1864 57.5367
" />
<path d="M225.1864 57.5367
L225.1531 57.5033
" />
<path d="M225.2197 58.4367
L224.7531 58.4367
" />
<path d="M225.2197 58.1367
L224.8531 58.1367
" />
<path d="M224.8531 58.1367
L224.7864 58.1700
" />
<path d="M224.7864 58.1700
L224.7531 58.2367
" />
<path d="M224.7531 58.2367
L224.7531 58.3367
" />
<path d="M224.7531 58.3367
L224.7864 58.4033
" />
<path d="M224.7864 58.4033
L224.8197 58.4367
" />
<path d="M224.7531 58.7700
L225.4531 58.7700
" />
<path d="M225.1864 58.7700
L225.2197 58.8367
" />
<path d="M225.2197 58.8367
L225.2197 58.9700
" />
<path d="M225.2197 58.9700
L225.1864 59.0367
" />
<path d="M225.1864 59.0367
L225.1531 59.0700
" />
<path d="M225.1531 59.0700
L225.0864 59.1033
" />
<path d="M225.0864 59.1033
L224.8864 59.1033
" />
<path d="M224.8864 59.1033
L224.8197 59.0700
" />
<path d="M224.8197 59.0700
L224.7864 59.0367
" />
<path d="M224.7864 59.0367
L224.7531 58.9700
" />
<path d="M224.7531 58.9700
L224.7531 58.8367
" />
<path d="M224.7531 58.8367
L224.7864 58.7700
" />
<path d="M224.8197 59.4033
L224.7864 59.4367
" />
<path d="M224.7864 59.4367
L224.7531 59.4033
" />
<path d="M224.7531 59.4033
L224.7864 59.3700
" />
<path d="M224.7864 59.3700
L224.8197 59.4033
" />
<path d="M224.8197 59.4033
L224.7531 59.4033
" />
<path d="M224.7864 60.0367
L224.7531 59.9700
" />
<path d="M224.7531 59.9700
L224.7531 59.8367
" />
<path d="M224.7531 59.8367
L224.7864 59.7700
" />
<path d="M224.7864 59.7700
L224.8197 59.7367
" />
<path d="M224.8197 59.7367
L224.8864 59.7033
" />
<path d="M224.8864 59.7033
L225.0864 59.7033
" />
<path d="M225.0864 59.7033
L225.1531 59.7367
" />
<path d="M225.1531 59.7367
L225.1864 59.7700
" />
<path d="M225.1864 59.7700
L225.2197 59.8367
" />
<path d="M225.2197 59.8367
L225.2197 59.9700
" />
<path d="M225.2197 59.9700
L225.1864 60.0367
" />
<path d="M224.7531 60.4367
L224.7864 60.3700
" />
<path d="M224.7864 60.3700
L224.8197 60.3367
" />
<path d="M224.8197 60.3367
L224.8864 60.3033
" />
<path d="M224.8864 60.3033
L225.0864 60.3033
" />
<path d="M225.0864 60.3033
L225.1531 60.3367
" />
<path d="M225.1531 60.3367
L225.1864 60.3700
" />
<path d="M225.1864 60.3700
L225.2197 60.4367
" />
<path d="M225.2197 60.4367
L225.2197 60.5367
" />
<path d="M225.2197 60.5367
L225.1864 60.6033
" />
<path d="M225.1864 60.6033
L225.1531 60.6367
" />
<path d="M225.1531 60.6367
L225.0864 60.6700
" />
<path d="M225.0864 60.6700
L224.8864 60.6700
" />
<path d="M224.8864 60.6700
L224.8197 60.6367
" />
<path d="M224.8197 60.6367
L224.7864 60.6033
" />
<path d="M224.7864 60.6033
L224.7531 60.5367
" />
<path d="M224.7531 60.5367
L224.7531 60.4367
" />
<path d="M224.7531 60.9700
L225.2197 60.9700
" />
<path d="M225.1531 60.9700
L225.1864 61.0033
" />
<path d="M225.1864 61.0033
L225.2197 61.0700
" />
<path d="M225.2197 61.0700
L225.2197 61.1700
" />
<path d="M225.2197 61.1700
L225.1864 61.2367
" />
<path d="M225.1864 61.2367
L225.1197 61.2700
" />
<path d="M225.1197 61.2700
L224.7531 61.2700
" />
<path d="M225.1197 61.2700
L225.1864 61.3033
" />
<path d="M225.1864 61.3033
L225.2197 61.3700
" />
<path d="M225.2197 61.3700
L225.2197 61.4700
" />
<path d="M225.2197 61.4700
L225.1864 61.5367
" />
<path d="M225.1864 61.5367
L225.1197 61.5700
" />
<path d="M225.1197 61.5700
L224.7531 61.5700
" />
<path d="M225.4864 62.4033
L224.5864 61.8033
" />
<path d="M225.2197 62.6367
L224.5197 62.6367
" />
<path d="M225.1864 62.6367
L225.2197 62.7033
" />
<path d="M225.2197 62.7033
L225.2197 62.8367
" />
<path d="M225.2197 62.8367
L225.1864 62.9033
" />
<path d="M225.1864 62.9033
L225.1531 62.9367
" />
<path d="M225.1531 62.9367
L225.0864 62.9700
" />
<path d="M225.0864 62.9700
L224.8864 62.9700
" />
<path d="M224.8864 62.9700
L224.8197 62.9367
" />
<path d="M224.8197 62.9367
L224.7864 62.9033
" />
<path d="M224.7864 62.9033
L224.7531 62.8367
" />
<path d="M224.7531 62.8367
L224.7531 62.7033
" />
<path d="M224.7531 62.7033
L224.7864 62.6367
" />
<path d="M224.7864 63.5367
L224.7531 63.4700
" />
<path d="M224.7531 63.4700
L224.7531 63.3367
" />
<path d="M224.7531 63.3367
L224.7864 63.2700
" />
<path d="M224.7864 63.2700
L224.8531 63.2367
" />
<path d="M224.8531 63.2367
L225.1197 63.2367
" />
<path d="M225.1197 63.2367
L225.1864 63.2700
" />
<path d="M225.1864 63.2700
L225.2197 63.3367
" />
<path d="M225.2197 63.3367
L225.2197 63.4700
" />
<path d="M225.2197 63.4700
L225.1864 63.5367
" />
<path d="M225.1864 63.5367
L225.1197 63.5700
" />
<path d="M225.1197 63.5700
L225.0531 63.5700
" />
<path d="M225.0531 63.5700
L224.9864 63.2367
" />
<path d="M224.7531 64.1700
L225.4531 64.1700
" />
<path d="M224.7864 64.1700
L224.7531 64.1033
" />
<path d="M224.7531 64.1033
L224.7531 63.9700
" />
<path d="M224.7531 63.9700
L224.7864 63.9033
" />
<path d="M224.7864 63.9033
L224.8197 63.8700
" />
<path d="M224.8197 63.8700
L224.8864 63.8367
" />
<path d="M224.8864 63.8367
L225.0864 63.8367
" />
<path d="M225.0864 63.8367
L225.1531 63.8700
" />
<path d="M225.1531 63.8700
L225.1864 63.9033
" />
<path d="M225.1864 63.9033
L225.2197 63.9700
" />
<path d="M225.2197 63.9700
L225.2197 64.1033
" />
<path d="M225.2197 64.1033
L225.1864 64.1700
" />
<path d="M224.7531 64.8033
L225.1197 64.8033
" />
<path d="M225.1197 64.8033
L225.1864 64.7700
" />
<path d="M225.1864 64.7700
L225.2197 64.7033
" />
<path d="M225.2197 64.7033
L225.2197 64.5700
" />
<path d="M225.2197 64.5700
L225.1864 64.5033
" />
<path d="M224.7864 64.8033
L224.7531 64.7367
" />
<path d="M224.7531 64.7367
L224.7531 64.5700
" />
<path d="M224.7531 64.5700
L224.7864 64.5033
" />
<path d="M224.7864 64.5033
L224.8531 64.4700
" />
<path d="M224.8531 64.4700
L224.9197 64.4700
" />
<path d="M224.9197 64.4700
L224.9864 64.5033
" />
<path d="M224.9864 64.5033
L225.0197 64.5700
" />
<path d="M225.0197 64.5700
L225.0197 64.7367
" />
<path d="M225.0197 64.7367
L225.0531 64.8033
" />
<path d="M224.7531 65.2367
L224.7864 65.1700
" />
<path d="M224.7864 65.1700
L224.8531 65.1367
" />
<path d="M224.8531 65.1367
L225.4531 65.1367
" />
<path d="M224.7531 65.5033
L225.4531 65.5033
" />
<path d="M225.1864 65.5033
L225.2197 65.5700
" />
<path d="M225.2197 65.5700
L225.2197 65.7033
" />
<path d="M225.2197 65.7033
L225.1864 65.7700
" />
<path d="M225.1864 65.7700
L225.1531 65.8033
" />
<path d="M225.1531 65.8033
L225.0864 65.8367
" />
<path d="M225.0864 65.8367
L224.8864 65.8367
" />
<path d="M224.8864 65.8367
L224.8197 65.8033
" />
<path d="M224.8197 65.8033
L224.7864 65.7700
" />
<path d="M224.7864 65.7700
L224.7531 65.7033
" />
<path d="M224.7531 65.7033
L224.7531 65.5700
" />
<path d="M224.7531 65.5700
L224.7864 65.5033
" />
<path d="M224.7531 66.2367
L224.7864 66.1700
" />
<path d="M224.7864 66.1700
L224.8197 66.1367
" />
<path d="M224.8197 66.1367
L224.8864 66.1033
" />
<path d="M224.8864 66.1033
L225.0864 66.1033
" />
<path d="M225.0864 66.1033
L225.1531 66.1367
" />
<path d="M225.1531 66.1367
L225.1864 66.1700
" />
<path d="M225.1864 66.1700
L225.2197 66.2367
" />
<path d="M225.2197 66.2367
L225.2197 66.3367
" />
<path d="M225.2197 66.3367
L225.1864 66.4033
" />
<path d="M225.1864 66.4033
L225.1531 66.4367
" />
<path d="M225.1531 66.4367
L225.0864 66.4700
" />
<path d="M225.0864 66.4700
L224.8864 66.4700
" />
<path d="M224.8864 66.4700
L224.8197 66.4367
" />
<path d="M224.8197 66.4367
L224.7864 66.4033
" />
<path d="M224.7864 66.4033
L224.7531 66.3367
" />
<path d="M224.7531 66.3367
L224.7531 66.2367
" />
<path d="M224.7531 67.0700
L225.1197 67.0700
" />
<path d="M225.1197 67.0700
L225.1864 67.0367
" />
<path d="M225.1864 67.0367
L225.2197 66.9700
" />
<path d="M225.2197 66.9700
L225.2197 66.8367
" />
<path d="M225.2197 66.8367
L225.1864 66.7700
" />
<path d="M224.7864 67.0700
L224.7531 67.0033
" />
<path d="M224.7531 67.0033
L224.7531 66.8367
" />
<path d="M224.7531 66.8367
L224.7864 66.7700
" />
<path d="M224.7864 66.7700
L224.8531 66.7367
" />
<path d="M224.8531 66.7367
L224.9197 66.7367
" />
<path d="M224.9197 66.7367
L224.9864 66.7700
" />
<path d="M224.9864 66.7700
L225.0197 66.8367
" />
<path d="M225.0197 66.8367
L225.0197 67.0033
" />
<path d="M225.0197 67.0033
L225.0531 67.0700
" />
<path d="M224.7531 67.4033
L225.2197 67.4033
" />
<path d="M225.0864 67.4033
L225.1531 67.4367
" />
<path d="M225.1531 67.4367
L225.1864 67.4700
" />
<path d="M225.1864 67.4700
L225.2197 67.5367
" />
<path d="M225.2197 67.5367
L225.2197 67.6033
" />
<path d="M224.7531 68.1367
L225.4531 68.1367
" />
<path d="M224.7864 68.1367
L224.7531 68.0700
" />
<path d="M224.7531 68.0700
L224.7531 67.9367
" />
<path d="M224.7531 67.9367
L224.7864 67.8700
" />
<path d="M224.7864 67.8700
L224.8197 67.8367
" />
<path d="M224.8197 67.8367
L224.8864 67.8033
" />
<path d="M224.8864 67.8033
L225.0864 67.8033
" />
<path d="M225.0864 67.8033
L225.1531 67.8367
" />
<path d="M225.1531 67.8367
L225.1864 67.8700
" />
<path d="M225.1864 67.8700
L225.2197 67.9367
" />
<path d="M225.2197 67.9367
L225.2197 68.0700
" />
<path d="M225.2197 68.0700
L225.1864 68.1367
" />
</g><g transform="rotate(-90.000000 206.6122 54.3400)">
<text x="206.6122" y="54.3400"
transform="scale(-1 1) translate(-413.224400 0)"
textLength="1.8943" font-size="0.8000" lengthAdjust="spacingAndGlyphs"
text-anchor="start" opacity="0">VCC</text>
</g>
<g class="stroked-text"><desc>VCC</desc>
<path d="M207.2908 54.4629
L206.6908 54.6629
" />
<path d="M206.6908 54.6629
L207.2908 54.8629
" />
<path d="M206.7480 55.4058
L206.7194 55.3772
" />
<path d="M206.7194 55.3772
L206.6908 55.2915
" />
<path d="M206.6908 55.2915
L206.6908 55.2344
" />
<path d="M206.6908 55.2344
L206.7194 55.1486
" />
<path d="M206.7194 55.1486
L206.7765 55.0915
" />
<path d="M206.7765 55.0915
L206.8337 55.0629
" />
<path d="M206.8337 55.0629
L206.9480 55.0344
" />
<path d="M206.9480 55.0344
L207.0337 55.0344
" />
<path d="M207.0337 55.0344
L207.1480 55.0629
" />
<path d="M207.1480 55.0629
L207.2051 55.0915
" />
<path d="M207.2051 55.0915
L207.2623 55.1486
" />
<path d="M207.2623 55.1486
L207.2908 55.2344
" />
<path d="M207.2908 55.2344
L207.2908 55.2915
" />
<path d="M207.2908 55.2915
L207.2623 55.3772
" />
<path d="M207.2623 55.3772
L207.2337 55.4058
" />
<path d="M206.7480 56.0058
L206.7194 55.9772
" />
<path d="M206.7194 55.9772
L206.6908 55.8915
" />
<path d="M206.6908 55.8915
L206.6908 55.8344
" />
<path d="M206.6908 55.8344
L206.7194 55.7486
" />
<path d="M206.7194 55.7486
L206.7765 55.6915
" />
<path d="M206.7765 55.6915
L206.8337 55.6629
" />
<path d="M206.8337 55.6629
L206.9480 55.6344
" />
<path d="M206.9480 55.6344
L207.0337 55.6344
" />
<path d="M207.0337 55.6344
L207.1480 55.6629
" />
<path d="M207.1480 55.6629
L207.2051 55.6915
" />
<path d="M207.2051 55.6915
L207.2623 55.7486
" />
<path d="M207.2623 55.7486
L207.2908 55.8344
" />
<path d="M207.2908 55.8344
L207.2908 55.8915
" />
<path d="M207.2908 55.8915
L207.2623 55.9772
" />
<path d="M207.2623 55.9772
L207.2337 56.0058
" />
</g><text x="217.3422" y="71.1300"
transform="scale(-1 1) translate(-434.684400 0)"
textLength="6.7000" font-size="0.6667" lengthAdjust="spacingAndGlyphs"
text-anchor="middle" opacity="0">PCB: v1.1.0-RC1</text>
<g class="stroked-text"><desc>PCB: v1.1.0-RC1</desc>
<path d="M214.2112 71.0636
L214.2112 70.5636
" />
<path d="M214.2112 70.5636
L214.4017 70.5636
" />
<path d="M214.4017 70.5636
L214.4493 70.5874
" />
<path d="M214.4493 70.5874
L214.4732 70.6112
" />
<path d="M214.4732 70.6112
L214.4970 70.6588
" />
<path d="M214.4970 70.6588
L214.4970 70.7303
" />
<path d="M214.4970 70.7303
L214.4732 70.7779
" />
<path d="M214.4732 70.7779
L214.4493 70.8017
" />
<path d="M214.4493 70.8017
L214.4017 70.8255
" />
<path d="M214.4017 70.8255
L214.2112 70.8255
" />
<path d="M214.9970 71.0160
L214.9732 71.0398
" />
<path d="M214.9732 71.0398
L214.9017 71.0636
" />
<path d="M214.9017 71.0636
L214.8541 71.0636
" />
<path d="M214.8541 71.0636
L214.7827 71.0398
" />
<path d="M214.7827 71.0398
L214.7351 70.9922
" />
<path d="M214.7351 70.9922
L214.7112 70.9446
" />
<path d="M214.7112 70.9446
L214.6874 70.8493
" />
<path d="M214.6874 70.8493
L214.6874 70.7779
" />
<path d="M214.6874 70.7779
L214.7112 70.6827
" />
<path d="M214.7112 70.6827
L214.7351 70.6350
" />
<path d="M214.7351 70.6350
L214.7827 70.5874
" />
<path d="M214.7827 70.5874
L214.8541 70.5636
" />
<path d="M214.8541 70.5636
L214.9017 70.5636
" />
<path d="M214.9017 70.5636
L214.9732 70.5874
" />
<path d="M214.9732 70.5874
L214.9970 70.6112
" />
<path d="M215.3779 70.8017
L215.4493 70.8255
" />
<path d="M215.4493 70.8255
L215.4732 70.8493
" />
<path d="M215.4732 70.8493
L215.4970 70.8969
" />
<path d="M215.4970 70.8969
L215.4970 70.9684
" />
<path d="M215.4970 70.9684
L215.4732 71.0160
" />
<path d="M215.4732 71.0160
L215.4493 71.0398
" />
<path d="M215.4493 71.0398
L215.4017 71.0636
" />
<path d="M215.4017 71.0636
L215.2112 71.0636
" />
<path d="M215.2112 71.0636
L215.2112 70.5636
" />
<path d="M215.2112 70.5636
L215.3779 70.5636
" />
<path d="M215.3779 70.5636
L215.4255 70.5874
" />
<path d="M215.4255 70.5874
L215.4493 70.6112
" />
<path d="M215.4493 70.6112
L215.4732 70.6588
" />
<path d="M215.4732 70.6588
L215.4732 70.7065
" />
<path d="M215.4732 70.7065
L215.4493 70.7541
" />
<path d="M215.4493 70.7541
L215.4255 70.7779
" />
<path d="M215.4255 70.7779
L215.3779 70.8017
" />
<path d="M215.3779 70.8017
L215.2112 70.8017
" />
<path d="M215.7112 71.0160
L215.7351 71.0398
" />
<path d="M215.7351 71.0398
L215.7112 71.0636
" />
<path d="M215.7112 71.0636
L215.6874 71.0398
" />
<path d="M215.6874 71.0398
L215.7112 71.0160
" />
<path d="M215.7112 71.0160
L215.7112 71.0636
" />
<path d="M215.7112 70.7541
L215.7351 70.7779
" />
<path d="M215.7351 70.7779
L215.7112 70.8017
" />
<path d="M215.7112 70.8017
L215.6874 70.7779
" />
<path d="M215.6874 70.7779
L215.7112 70.7541
" />
<path d="M215.7112 70.7541
L215.7112 70.8017
" />
<path d="M216.2827 70.7303
L216.4017 71.0636
" />
<path d="M216.4017 71.0636
L216.5208 70.7303
" />
<path d="M216.9732 71.0636
L216.6874 71.0636
" />
<path d="M216.8303 71.0636
L216.8303 70.5636
" />
<path d="M216.8303 70.5636
L216.7827 70.6350
" />
<path d="M216.7827 70.6350
L216.7351 70.6827
" />
<path d="M216.7351 70.6827
L216.6874 70.7065
" />
<path d="M217.1874 71.0160
L217.2112 71.0398
" />
<path d="M217.2112 71.0398
L217.1874 71.0636
" />
<path d="M217.1874 71.0636
L217.1636 71.0398
" />
<path d="M217.1636 71.0398
L217.1874 71.0160
" />
<path d="M217.1874 71.0160
L217.1874 71.0636
" />
<path d="M217.6874 71.0636
L217.4017 71.0636
" />
<path d="M217.5446 71.0636
L217.5446 70.5636
" />
<path d="M217.5446 70.5636
L217.4970 70.6350
" />
<path d="M217.4970 70.6350
L217.4493 70.6827
" />
<path d="M217.4493 70.6827
L217.4017 70.7065
" />
<path d="M217.9017 71.0160
L217.9255 71.0398
" />
<path d="M217.9255 71.0398
L217.9017 71.0636
" />
<path d="M217.9017 71.0636
L217.8779 71.0398
" />
<path d="M217.8779 71.0398
L217.9017 71.0160
" />
<path d="M217.9017 71.0160
L217.9017 71.0636
" />
<path d="M218.2351 70.5636
L218.2827 70.5636
" />
<path d="M218.2827 70.5636
L218.3303 70.5874
" />
<path d="M218.3303 70.5874
L218.3541 70.6112
" />
<path d="M218.3541 70.6112
L218.3779 70.6588
" />
<path d="M218.3779 70.6588
L218.4017 70.7541
" />
<path d="M218.4017 70.7541
L218.4017 70.8731
" />
<path d="M218.4017 70.8731
L218.3779 70.9684
" />
<path d="M218.3779 70.9684
L218.3541 71.0160
" />
<path d="M218.3541 71.0160
L218.3303 71.0398
" />
<path d="M218.3303 71.0398
L218.2827 71.0636
" />
<path d="M218.2827 71.0636
L218.2351 71.0636
" />
<path d="M218.2351 71.0636
L218.1874 71.0398
" />
<path d="M218.1874 71.0398
L218.1636 71.0160
" />
<path d="M218.1636 71.0160
L218.1398 70.9684
" />
<path d="M218.1398 70.9684
L218.1160 70.8731
" />
<path d="M218.1160 70.8731
L218.1160 70.7541
" />
<path d="M218.1160 70.7541
L218.1398 70.6588
" />
<path d="M218.1398 70.6588
L218.1636 70.6112
" />
<path d="M218.1636 70.6112
L218.1874 70.5874
" />
<path d="M218.1874 70.5874
L218.2351 70.5636
" />
<path d="M218.6160 70.8731
L218.9970 70.8731
" />
<path d="M219.5208 71.0636
L219.3541 70.8255
" />
<path d="M219.2351 71.0636
L219.2351 70.5636
" />
<path d="M219.2351 70.5636
L219.4255 70.5636
" />
<path d="M219.4255 70.5636
L219.4732 70.5874
" />
<path d="M219.4732 70.5874
L219.4970 70.6112
" />
<path d="M219.4970 70.6112
L219.5208 70.6588
" />
<path d="M219.5208 70.6588
L219.5208 70.7303
" />
<path d="M219.5208 70.7303
L219.4970 70.7779
" />
<path d="M219.4970 70.7779
L219.4732 70.8017
" />
<path d="M219.4732 70.8017
L219.4255 70.8255
" />
<path d="M219.4255 70.8255
L219.2351 70.8255
" />
<path d="M220.0208 71.0160
L219.9970 71.0398
" />
<path d="M219.9970 71.0398
L219.9255 71.0636
" />
<path d="M219.9255 71.0636
L219.8779 71.0636
" />
<path d="M219.8779 71.0636
L219.8065 71.0398
" />
<path d="M219.8065 71.0398
L219.7589 70.9922
" />
<path d="M219.7589 70.9922
L219.7351 70.9446
" />
<path d="M219.7351 70.9446
L219.7112 70.8493
" />
<path d="M219.7112 70.8493
L219.7112 70.7779
" />
<path d="M219.7112 70.7779
L219.7351 70.6827
" />
<path d="M219.7351 70.6827
L219.7589 70.6350
" />
<path d="M219.7589 70.6350
L219.8065 70.5874
" />
<path d="M219.8065 70.5874
L219.8779 70.5636
" />
<path d="M219.8779 70.5636
L219.9255 70.5636
" />
<path d="M219.9255 70.5636
L219.9970 70.5874
" />
<path d="M219.9970 70.5874
L220.0208 70.6112
" />
<path d="M220.4970 71.0636
L220.2112 71.0636
" />
<path d="M220.3541 71.0636
L220.3541 70.5636
" />
<path d="M220.3541 70.5636
L220.3065 70.6350
" />
<path d="M220.3065 70.6350
L220.2589 70.6827
" />
<path d="M220.2589 70.6827
L220.2112 70.7065
" />
</g><text x="217.2722" y="51.6200"
transform="scale(-1 1) translate(-434.544400 0)"
textLength="11.3267" font-size="0.9333" lengthAdjust="spacingAndGlyphs"
text-anchor="middle" opacity="0">Pedalboard LED Ring</text>
<g class="stroked-text"><desc>Pedalboard LED Ring</desc>
<path d="M211.8555 51.5291
L211.8555 50.8291
" />
<path d="M211.8555 50.8291
L212.1222 50.8291
" />
<path d="M212.1222 50.8291
L212.1889 50.8625
" />
<path d="M212.1889 50.8625
L212.2222 50.8958
" />
<path d="M212.2222 50.8958
L212.2555 50.9625
" />
<path d="M212.2555 50.9625
L212.2555 51.0625
" />
<path d="M212.2555 51.0625
L212.2222 51.1291
" />
<path d="M212.2222 51.1291
L212.1889 51.1625
" />
<path d="M212.1889 51.1625
L212.1222 51.1958
" />
<path d="M212.1222 51.1958
L211.8555 51.1958
" />
<path d="M212.8222 51.4958
L212.7555 51.5291
" />
<path d="M212.7555 51.5291
L212.6222 51.5291
" />
<path d="M212.6222 51.5291
L212.5555 51.4958
" />
<path d="M212.5555 51.4958
L212.5222 51.4291
" />
<path d="M212.5222 51.4291
L212.5222 51.1625
" />
<path d="M212.5222 51.1625
L212.5555 51.0958
" />
<path d="M212.5555 51.0958
L212.6222 51.0625
" />
<path d="M212.6222 51.0625
L212.7555 51.0625
" />
<path d="M212.7555 51.0625
L212.8222 51.0958
" />
<path d="M212.8222 51.0958
L212.8555 51.1625
" />
<path d="M212.8555 51.1625
L212.8555 51.2291
" />
<path d="M212.8555 51.2291
L212.5222 51.2958
" />
<path d="M213.4555 51.5291
L213.4555 50.8291
" />
<path d="M213.4555 51.4958
L213.3889 51.5291
" />
<path d="M213.3889 51.5291
L213.2555 51.5291
" />
<path d="M213.2555 51.5291
L213.1889 51.4958
" />
<path d="M213.1889 51.4958
L213.1555 51.4625
" />
<path d="M213.1555 51.4625
L213.1222 51.3958
" />
<path d="M213.1222 51.3958
L213.1222 51.1958
" />
<path d="M213.1222 51.1958
L213.1555 51.1291
" />
<path d="M213.1555 51.1291
L213.1889 51.0958
" />
<path d="M213.1889 51.0958
L213.2555 51.0625
" />
<path d="M213.2555 51.0625
L213.3889 51.0625
" />
<path d="M213.3889 51.0625
L213.4555 51.0958
" />
<path d="M214.0889 51.5291
L214.0889 51.1625
" />
<path d="M214.0889 51.1625
L214.0555 51.0958
" />
<path d="M214.0555 51.0958
L213.9889 51.0625
" />
<path d="M213.9889 51.0625
L213.8555 51.0625
" />
<path d="M213.8555 51.0625
L213.7889 51.0958
" />
<path d="M214.0889 51.4958
L214.0222 51.5291
" />
<path d="M214.0222 51.5291
L213.8555 51.5291
" />
<path d="M213.8555 51.5291
L213.7889 51.4958
" />
<path d="M213.7889 51.4958
L213.7555 51.4291
" />
<path d="M213.7555 51.4291
L213.7555 51.3625
" />
<path d="M213.7555 51.3625
L213.7889 51.2958
" />
<path d="M213.7889 51.2958
L213.8555 51.2625
" />
<path d="M213.8555 51.2625
L214.0222 51.2625
" />
<path d="M214.0222 51.2625
L214.0889 51.2291
" />
<path d="M214.5222 51.5291
L214.4555 51.4958
" />
<path d="M214.4555 51.4958
L214.4222 51.4291
" />
<path d="M214.4222 51.4291
L214.4222 50.8291
" />
<path d="M214.7889 51.5291
L214.7889 50.8291
" />
<path d="M214.7889 51.0958
L214.8555 51.0625
" />
<path d="M214.8555 51.0625
L214.9889 51.0625
" />
<path d="M214.9889 51.0625
L215.0555 51.0958
" />
<path d="M215.0555 51.0958
L215.0889 51.1291
" />
<path d="M215.0889 51.1291
L215.1222 51.1958
" />
<path d="M215.1222 51.1958
L215.1222 51.3958
" />
<path d="M215.1222 51.3958
L215.0889 51.4625
" />
<path d="M215.0889 51.4625
L215.0555 51.4958
" />
<path d="M215.0555 51.4958
L214.9889 51.5291
" />
<path d="M214.9889 51.5291
L214.8555 51.5291
" />
<path d="M214.8555 51.5291
L214.7889 51.4958
" />
<path d="M215.5222 51.5291
L215.4555 51.4958
" />
<path d="M215.4555 51.4958
L215.4222 51.4625
" />
<path d="M215.4222 51.4625
L215.3889 51.3958
" />
<path d="M215.3889 51.3958
L215.3889 51.1958
" />
<path d="M215.3889 51.1958
L215.4222 51.1291
" />
<path d="M215.4222 51.1291
L215.4555 51.0958
" />
<path d="M215.4555 51.0958
L215.5222 51.0625
" />
<path d="M215.5222 51.0625
L215.6222 51.0625
" />
<path d="M215.6222 51.0625
L215.6889 51.0958
" />
<path d="M215.6889 51.0958
L215.7222 51.1291
" />
<path d="M215.7222 51.1291
L215.7555 51.1958
" />
<path d="M215.7555 51.1958
L215.7555 51.3958
" />
<path d="M215.7555 51.3958
L215.7222 51.4625
" />
<path d="M215.7222 51.4625
L215.6889 51.4958
" />
<path d="M215.6889 51.4958
L215.6222 51.5291
" />
<path d="M215.6222 51.5291
L215.5222 51.5291
" />
<path d="M216.3555 51.5291
L216.3555 51.1625
" />
<path d="M216.3555 51.1625
L216.3222 51.0958
" />
<path d="M216.3222 51.0958
L216.2555 51.0625
" />
<path d="M216.2555 51.0625
L216.1222 51.0625
" />
<path d="M216.1222 51.0625
L216.0555 51.0958
" />
<path d="M216.3555 51.4958
L216.2889 51.5291
" />
<path d="M216.2889 51.5291
L216.1222 51.5291
" />
<path d="M216.1222 51.5291
L216.0555 51.4958
" />
<path d="M216.0555 51.4958
L216.0222 51.4291
" />
<path d="M216.0222 51.4291
L216.0222 51.3625
" />
<path d="M216.0222 51.3625
L216.0555 51.2958
" />
<path d="M216.0555 51.2958
L216.1222 51.2625
" />
<path d="M216.1222 51.2625
L216.2889 51.2625
" />
<path d="M216.2889 51.2625
L216.3555 51.2291
" />
<path d="M216.6889 51.5291
L216.6889 51.0625
" />
<path d="M216.6889 51.1958
L216.7222 51.1291
" />
<path d="M216.7222 51.1291
L216.7555 51.0958
" />
<path d="M216.7555 51.0958
L216.8222 51.0625
" />
<path d="M216.8222 51.0625
L216.8889 51.0625
" />
<path d="M217.4222 51.5291
L217.4222 50.8291
" />
<path d="M217.4222 51.4958
L217.3555 51.5291
" />
<path d="M217.3555 51.5291
L217.2222 51.5291
" />
<path d="M217.2222 51.5291
L217.1555 51.4958
" />
<path d="M217.1555 51.4958
L217.1222 51.4625
" />
<path d="M217.1222 51.4625
L217.0889 51.3958
" />
<path d="M217.0889 51.3958
L217.0889 51.1958
" />
<path d="M217.0889 51.1958
L217.1222 51.1291
" />
<path d="M217.1222 51.1291
L217.1555 51.0958
" />
<path d="M217.1555 51.0958
L217.2222 51.0625
" />
<path d="M217.2222 51.0625
L217.3555 51.0625
" />
<path d="M217.3555 51.0625
L217.4222 51.0958
" />
<path d="M218.6222 51.5291
L218.2889 51.5291
" />
<path d="M218.2889 51.5291
L218.2889 50.8291
" />
<path d="M218.8555 51.1625
L219.0889 51.1625
" />
<path d="M219.1889 51.5291
L218.8555 51.5291
" />
<path d="M218.8555 51.5291
L218.8555 50.8291
" />
<path d="M218.8555 50.8291
L219.1889 50.8291
" />
<path d="M219.4889 51.5291
L219.4889 50.8291
" />
<path d="M219.4889 50.8291
L219.6555 50.8291
" />
<path d="M219.6555 50.8291
L219.7555 50.8625
" />
<path d="M219.7555 50.8625
L219.8222 50.9291
" />
<path d="M219.8222 50.9291
L219.8555 50.9958
" />
<path d="M219.8555 50.9958
L219.8889 51.1291
" />
<path d="M219.8889 51.1291
L219.8889 51.2291
" />
<path d="M219.8889 51.2291
L219.8555 51.3625
" />
<path d="M219.8555 51.3625
L219.8222 51.4291
" />
<path d="M219.8222 51.4291
L219.7555 51.4958
" />
<path d="M219.7555 51.4958
L219.6555 51.5291
" />
<path d="M219.6555 51.5291
L219.4889 51.5291
" />
<path d="M221.1222 51.5291
L220.8889 51.1958
" />
<path d="M220.7222 51.5291
L220.7222 50.8291
" />
<path d="M220.7222 50.8291
L220.9889 50.8291
" />
<path d="M220.9889 50.8291
L221.0555 50.8625
" />
<path d="M221.0555 50.8625
L221.0889 50.8958
" />
<path d="M221.0889 50.8958
L221.1222 50.9625
" />
<path d="M221.1222 50.9625
L221.1222 51.0625
" />
<path d="M221.1222 51.0625
L221.0889 51.1291
" />
<path d="M221.0889 51.1291
L221.0555 51.1625
" />
<path d="M221.0555 51.1625
L220.9889 51.1958
" />
<path d="M220.9889 51.1958
L220.7222 51.1958
" />
<path d="M221.4222 51.5291
L221.4222 51.0625
" />
<path d="M221.4222 50.8291
L221.3889 50.8625
" />
<path d="M221.3889 50.8625
L221.4222 50.8958
" />
<path d="M221.4222 50.8958
L221.4555 50.8625
" />
<path d="M221.4555 50.8625
L221.4222 50.8291
" />
<path d="M221.4222 50.8291
L221.4222 50.8958
" />
<path d="M221.7555 51.0625
L221.7555 51.5291
" />
<path d="M221.7555 51.1291
L221.7889 51.0958
" />
<path d="M221.7889 51.0958
L221.8555 51.0625
" />
<path d="M221.8555 51.0625
L221.9555 51.0625
" />
<path d="M221.9555 51.0625
L222.0222 51.0958
" />
<path d="M222.0222 51.0958
L222.0555 51.1625
" />
<path d="M222.0555 51.1625
L222.0555 51.5291
" />
<path d="M222.6889 51.0625
L222.6889 51.6291
" />
<path d="M222.6889 51.6291
L222.6555 51.6958
" />
<path d="M222.6555 51.6958
L222.6222 51.7291
" />
<path d="M222.6222 51.7291
L222.5555 51.7625
" />
<path d="M222.5555 51.7625
L222.4555 51.7625
" />
<path d="M222.4555 51.7625
L222.3889 51.7291
" />
<path d="M222.6889 51.4958
L222.6222 51.5291
" />
<path d="M222.6222 51.5291
L222.4889 51.5291
" />
<path d="M222.4889 51.5291
L222.4222 51.4958
" />
<path d="M222.4222 51.4958
L222.3889 51.4625
" />
<path d="M222.3889 51.4625
L222.3555 51.3958
" />
<path d="M222.3555 51.3958
L222.3555 51.1958
" />
<path d="M222.3555 51.1958
L222.3889 51.1291
" />
<path d="M222.3889 51.1291
L222.4222 51.0958
" />
<path d="M222.4222 51.0958
L222.4889 51.0625
" />
<path d="M222.4889 51.0625
L222.6222 51.0625
" />
<path d="M222.6222 51.0625
L222.6889 51.0958
" />
</g><g transform="rotate(50.000000 210.3422 52.9600)">
<text x="210.3422" y="53.2100"
transform="scale(-1 1) translate(-420.684400 0)"
textLength="1.5571" font-size="0.6667" lengthAdjust="spacingAndGlyphs"
text-anchor="middle" opacity="0">JP1</text>
</g>
<g class="stroked-text"><desc>JP1</desc>
<path d="M209.8646 53.1031
L210.1381 53.3327
" />
<path d="M210.1381 53.3327
L210.1776 53.3969
" />
<path d="M210.1776 53.3969
L210.1834 53.4639
" />
<path d="M210.1834 53.4639
L210.1558 53.5340
" />
<path d="M210.1558 53.5340
L210.1251 53.5704
" />
<path d="M210.4006 53.2421
L210.0176 52.9207
" />
<path d="M210.0176 52.9207
L210.1400 52.7748
" />
<path d="M210.1400 52.7748
L210.1889 52.7537
" />
<path d="M210.1889 52.7537
L210.2224 52.7507
" />
<path d="M210.2224 52.7507
L210.2742 52.7631
" />
<path d="M210.2742 52.7631
L210.3289 52.8090
" />
<path d="M210.3289 52.8090
L210.3501 52.8578
" />
<path d="M210.3501 52.8578
L210.3530 52.8914
" />
<path d="M210.3530 52.8914
L210.3407 52.9432
" />
<path d="M210.3407 52.9432
L210.2182 53.0891
" />
<path d="M210.8904 52.6585
L210.7067 52.8773
" />
<path d="M210.7985 52.7679
L210.4155 52.4465
" />
<path d="M210.4155 52.4465
L210.4396 52.5289
" />
<path d="M210.4396 52.5289
L210.4455 52.5960
" />
<path d="M210.4455 52.5960
L210.4331 52.6478
" />
</g></g>
<g style="fill:#000000; fill-opacity:0.0; 
stroke:#000000; stroke-width:0.1200; stroke-opacity:1; 
stroke-linecap:round; stroke-linejoin:round;">
<path d="M209.0622 62.0600
L209.0622 57.9400
" />
<path d="M208.7622 62.0600
L209.0622 62.0600
" />
<path d="M206.7622 62.0600
L207.2422 62.0600
" />
<path d="M204.9422 62.0600
L205.2422 62.0600
" />
<path d="M204.9422 62.0600
L204.9422 57.9400
" />
<path d="M208.7622 57.9400
L209.0622 57.9400
" />
<path d="M206.7622 57.9400
L207.2422 57.9400
" />
<path d="M205.2422 57.9400
L205.2422 55.5600
" />
<path d="M204.9422 57.9400
L205.2422 57.9400
" />
<path d="M210.5321 55.4653
L210.0725 55.0796
" />
<path d="M209.9862 54.0934
L210.8861 53.0210
" />
<path d="M212.4182 54.3066
L211.5183 55.3790
" />
<path d="M211.8723 52.9347
L212.3319 53.3204
" />
<path d="M210.5321 55.4653 A0.7000 0.7000 0.0 0 0 211.5183 55.3790" />
<path d="M209.9862 54.0934 A0.7000 0.7000 0.0 0 0 210.0725 55.0796" />
<path d="M212.4182 54.3066 A0.7000 0.7000 0.0 0 0 212.3319 53.3204" />
<path d="M211.8723 52.9347 A0.7000 0.7000 0.0 0 0 210.8861 53.0210" />
<g >
</g>
<g >
</g>
<g >
</g>
<g >
</g>
<g >
</g>
<g >
</g>
<g >
</g>
<g >
</g>
<g >
</g>
<g >
</g>
<g >
</g>
<g >
</g>
<g >
</g>
<g >
</g>
<g >
</g>
<g >
</g>
<g >
</g>
<g >
</g>
<g >
</g>
<g >
</g>
<g >
</g>
<g >
</g>
<g >
</g>
<g >
</g>
<g >
</g>
<g >
</g>
<g >
</g>
<g >
</g>
<g >
</g>
<g >
</g>
<g >
</g>
<g >
</g>
<g >
</g>
<g >
</g>
<g >
</g>
</g> 
</svg>
